<svg width="504" height="325" fill="none" xmlns="http://www.w3.org/2000/svg"><path fill-rule="evenodd" clip-rule="evenodd" d="M332.153 107.725c0 18.437-1.979 34.412-5.937 47.926-3.957 13.514-9.435 24.711-16.434 33.592-6.998 8.881-15.299 15.493-24.904 19.837-9.604 4.343-20.005 6.515-31.202 6.515-11.198 0-21.55-2.172-31.058-6.515-9.508-4.344-17.737-10.956-24.687-19.837-6.95-8.881-12.38-20.078-16.289-33.592-3.91-13.514-5.865-29.489-5.865-47.926s1.955-34.412 5.865-47.926c3.909-13.514 9.339-24.711 16.289-33.592 6.95-8.88 15.179-15.468 24.687-19.764C232.126 2.148 242.478 0 253.676 0c11.197 0 21.598 2.148 31.202 6.443 9.605 4.296 17.906 10.884 24.904 19.764 6.999 8.881 12.477 20.078 16.434 33.592 3.958 13.514 5.937 29.49 5.937 47.926zm-169.986 23.601h-21.719V2.316H97.59L0 133.499l4.633 22.153c.58 2.607 2.003 4.778 4.272 6.516 2.268 1.737 4.802 2.606 7.601 2.606h84.848v48.505h39.094v-48.505h13.031c2.8 0 4.947-.82 6.444-2.461 1.496-1.641 2.244-3.572 2.244-5.792v-25.194zm-60.451-65.952a178.365 178.365 0 00-.362 10.931v55.021H47.057l55.745-78.042c-.482 4.15-.844 8.18-1.086 12.09zm184.1 40.902l.003 1.449c0 14.673-.917 26.642-2.751 35.909-1.834 9.266-4.271 16.578-7.312 21.936-3.04 5.357-6.491 9.025-10.352 11.004-3.862 1.979-7.771 2.968-11.729 2.968-3.957 0-7.842-.989-11.655-2.968-3.813-1.979-7.192-5.647-10.136-11.004-2.944-5.358-5.309-12.67-7.095-21.936l-.087-.458c-1.727-9.202-2.591-21.019-2.591-35.451l.001-.726c.029-14.247.921-25.95 2.677-35.11 1.786-9.315 4.151-16.627 7.095-21.936 2.944-5.309 6.323-8.953 10.136-10.932 3.813-1.978 7.698-2.968 11.655-2.968 3.958 0 7.867.99 11.729 2.968 3.861 1.98 7.312 5.623 10.352 10.932 3.041 5.31 5.478 12.621 7.312 21.936 1.773 9.005 2.689 20.467 2.748 34.387zM482.157 2.316v129.01h21.719v25.194c0 2.22-.748 4.151-2.244 5.792-1.497 1.641-3.644 2.461-6.444 2.461h-13.031v48.505h-39.094v-48.505h-84.848c-2.799 0-5.333-.869-7.601-2.606-2.269-1.738-3.693-3.909-4.272-6.516l-4.633-22.153 97.59-131.181h42.858zm-93.391 129.01l55.745-78.042-.128 1.129a223.083 223.083 0 00-.958 10.96c-.241 3.91-.362 7.554-.362 10.932v55.021h-54.297z" fill="url(#paint0_linear)"/><path d="M394.697 112.055s-4.141 15.02-16.076 10.462-29.251-12.776-36.533-2.411c-7.283 10.366 13.338 15.914 4.654 24.454-8.685 8.54-23.34-10.208-39.463-7.749-16.124 2.46-36.202 37.983-36.202 37.983s-48.65-15.012-64.085 0c-15.436 15.011-2.139 36.856-14.349 44.071-12.21 7.214-55.382 7.921-42.218 38.474C172.191 307.857 140 325 140 325s66.992-11.476 61.604-44.666c-3.261-20.092 8.741-30.749 22.964-30.749 14.223 0 29.906 14.849 44.586 8.835 14.679-6.014 4.147-37.344 30.357-38.45 26.211-1.105 9.52-42.979 35.294-40.894 25.774 2.085 60.1-2.668 48.007-25.976-12.093-23.309 2.389-17.734 11.937-20.181 9.548-2.447-.052-20.864-.052-20.864z" fill="#9286FF" fill-opacity=".193"/><path d="M310.47 100.862c23.137 3 31.165 24.951 9.871 24.951-6.315 0-17.957-6.034-27.549-3.074-22.75 7.02-40.43 26.084-35.565 11.875 8.06-23.541 30.106-36.75 53.243-33.752z" fill="#9286FF" fill-opacity=".193"/><path fill-rule="evenodd" clip-rule="evenodd" d="M168.903 185.635c-.772.247-2.254 1.031-4.32 2.467-5.472 3.805-13.05 12.076-13.838 13.923-.764 1.787-.14 3.326 1.656 3.326 1.797 0 2.874-.478 3.951.352 1.077.831.812 3.635 2.159 4.439 1.347.804 4.633 1.06 7.512-1.69 2.88-2.749 7.226-8.583 8.226-10.561 1-1.978 1.151-2.855.401-3.343-.751-.489-2.939.775-3.511 0-.573-.775 2.11-6.067 2.11-7.882 0-1.815-1.863-1.824-4.346-1.031z" fill="#4C0C68"/><path fill-rule="evenodd" clip-rule="evenodd" d="M167.881 187.502c1.456 1.749-5.002 5.268-3.117 9.185 1.183 2.457 1.875 8.181.88 12.107-2.783 2.384-5.844 2.116-7.132 1.347-1.347-.803-1.083-3.607-2.16-4.438a2.536 2.536 0 00-.216-.149c.075-.205.156-.417.246-.633l.671-1.563c2.11-4.941 2.812-7.392.485-7.392h-1.793c2.707-2.819 6.047-5.923 8.838-7.864a36.59 36.59 0 012.069-1.345c.545.167.954.416 1.229.745z" fill="#5A256C"/><path fill-rule="evenodd" clip-rule="evenodd" d="M173.468 194.516l.127-.024c.432-.077.816-.099 1.055.056.75.488.599 1.366-.401 3.343-1 1.978-5.346 7.812-8.225 10.562-2.88 2.749-6.165 2.493-7.512 1.689a1.552 1.552 0 01-.347-.284c1.966-.174 3.502-.479 4.609-.911 2.459-.962 6.378-6.065 8.766-9.285 1.156-1.558 1.798-3.273 1.928-5.146l.127-.024-.127.024z" fill="#2F0251"/><path fill-rule="evenodd" clip-rule="evenodd" d="M286.287 243.607c1.326-1.078 2.369-4.893 4.013-4.893 1.643 0 8.295-8.01 11.753-8.01 3.457 0 4.689 1.051 7.176 1.051 2.488 0 3.593.178 5.547-.437 1.954-.614 9.973-1.884 11.881-.314 1.909 1.569.74 2.517 2.174 3.414 1.434.897 4.921 1.64 4.016 3.856-.906 2.216-6.733 3.541-9.07 6.163-2.338 2.622-1.883 3.7-4.33 5.326-2.447 1.627-5.192 3.145-7.107 3.145-1.916 0-6.109-2.102-8.653-2.102-2.545 0-8.04 3.147-11.544 2.939-3.505-.209-8.671-3.512-8.671-6.608 0-3.096 1.488-2.453 2.815-3.53z" fill="#4C0C68"/><path fill-rule="evenodd" clip-rule="evenodd" d="M320.188 230.39l.154-.015c-1.731 2.805-6.271 7.601-9.252 8.954-3.937 1.788-4.094.774-8.414 0-4.321-.774-8.491 3.511-10.532 2.673-.995-.409-1.897-1.386-2.705-2.93.232-.194.474-.318.731-.35l.13-.008c1.643 0 8.295-8.01 11.753-8.01s4.689 1.051 7.177 1.051l.781.006c1.84.022 2.892.094 4.447-.347l.318-.096c.861-.27 2.896-.668 5.069-.894l.497-.049-.154.015z" fill="#5A256C"/><path fill-rule="evenodd" clip-rule="evenodd" d="M332.847 238.274c-.906 2.216-6.733 3.541-9.07 6.163-2.338 2.622-1.883 3.699-4.33 5.326-2.447 1.627-5.192 3.144-7.107 3.144-1.916 0-6.108-2.101-8.653-2.101-.508 0-1.133.125-1.835.324 1.144-1.03 2.106-1.769 2.887-2.218 2.513-1.444 8.315.301 10.276-.756 1.962-1.056 2.368-6.154 6.425-9.215 1.99-1.5 5.453-2.506 10.392-3.018.874.566 1.448 1.289 1.015 2.351z" fill="#2F0251"/><path fill-rule="evenodd" clip-rule="evenodd" d="M212.237 117.959c.973 4.558 8.759.749 9.857 2.944 1.098 2.195.037 3.676 3.274 4.718 3.237 1.043 4.27-2.526 7.569-2.092 3.299.434 5.085 1.553 6.885-1.643 1.8-3.195-3.176-5.633-3.176-7.066 0-1.433.798-4.994-1.404-5.978-2.201-.985-3.149-1.098-9.016.984-5.868 2.083-14.962 3.575-13.989 8.133z" fill="#4C0C68"/><path fill-rule="evenodd" clip-rule="evenodd" d="M225.915 109.935l1.019-.358c5.24-1.822 6.198-1.679 8.308-.735a2.24 2.24 0 011.059.975c-1.239-.393-2.659-.434-4.262-.121l-.221.046c-2.254.501-8.751 2.708-19.492 6.621 1.172-3.284 8.477-4.663 13.589-6.428z" fill="#5A256C"/><path fill-rule="evenodd" clip-rule="evenodd" d="M236.784 112.004l.003.203c.002 1.014-.141 2.005-.141 2.613 0 .218.114.459.303.722-1.263-.062-2.116.17-2.557.697-1.44 1.72.289 3.149-.576 5.255-.216.526-.616 1.194-1.202 2.004-3.048-.169-4.117 3.131-7.246 2.123-2.401-.773-2.437-1.788-2.744-3.156 1.333-.166 2.321-.489 2.966-.971 1.857-1.388 1.43-7.767 5.009-9.14 1.664-.638 3.725-.755 6.185-.35z" fill="#2F0251"/><path fill-rule="evenodd" clip-rule="evenodd" d="M364.78 129.958c3.864 0 2.498 3.78 4.709 3.78 2.211 0 5.104-.962 5.104 2.028 0 2.991-1.823 6.056-6.051 6.056-4.229 0-2.846-1.306-4.981-2.55-2.134-1.245-4.674-.853-4.779-3.382-.104-2.53 2.134-5.932 5.998-5.932z" fill="#5A256C"/><path fill-rule="evenodd" clip-rule="evenodd" d="M364.78 129.958c3.864 0 2.498 3.78 4.709 3.78 2.21 0 5.104-.962 5.104 2.028 0 .197-.008.394-.024.591-1.167 1.943-2.468 2.914-3.902 2.914-2.936 0-3.347-2.73-4.89-3.981-1.543-1.25-3.944.6-5.011-1.554-.437-.883-.11-1.873.983-2.968a5.893 5.893 0 013.031-.81z" fill="#2F0251"/><path fill-rule="evenodd" clip-rule="evenodd" d="M258.047 299.95c-.567.709-2.66 8.166-5.534 8.751-2.875.585-9.472-.02-9.472-2.172s2.528-5.294.805-6.579c-1.724-1.285.662-3.242.662-3.242s-1.467-.809-.662-2.229 8.837-9.68 10.31-8.915c1.474.765.813 3.417.813 3.417s4.443.23 4.88 1.484c.437 1.254.039 2.179.628 3.671.59 1.493 1.485 3.92.428 4.641-1.056.72-2.291.464-2.858 1.173z" fill="#4C0C68"/><path fill-rule="evenodd" clip-rule="evenodd" d="M245.887 296.878c.872.223 1.059 1.607.559 4.152-.448-1.147-.866-1.972-1.251-2.474-.257-.336-.662-.739-1.215-1.209l-.089-.074a7.03 7.03 0 01.617-.565l-.14-.083c.53.045 1.036.129 1.519.253z" fill="#5A256C"/><path fill-rule="evenodd" clip-rule="evenodd" d="M254.969 288.981c.828.043 1.552.112 2.172.209l-.321 6.053c-1.45-1.521-2.305-2.674-2.565-3.459-.193-.583.056-1.566.748-2.95l-.034.147zm-2.456 19.72c-1.553.316-4.193.285-6.292-.15 1.6-1.082 5.103-2.375 5.997-2.713 1.266-.479.515-3.323.951-4.503.247-.67 1.853-1.102 4.818-1.295-.64 1.083-2.69 8.094-5.474 8.661z" fill="#2F0251"/><path fill-rule="evenodd" clip-rule="evenodd" d="M145.148 250.309c1.302-2.396 4.88-3.865 7.632-2.584 2.751 1.282 2.388 6.16.651 6.16-1.737 0-2.212-1.144-3.636-.697-1.423.447-2.75.947-4.045.697s-1.905-1.181-.602-3.576z" fill="#4C0C68"/><path fill-rule="evenodd" clip-rule="evenodd" d="M150.603 247.739c.394.423-.021 2.286-1.247 5.588l-.576.183c-1.048.323-2.048.565-3.03.375-1.295-.25-1.905-1.18-.603-3.576.843-1.551 2.638-2.713 4.546-2.993.434.097.737.237.91.423z" fill="#5A256C"/><path fill-rule="evenodd" clip-rule="evenodd" d="M163.439 287.805c-1.664.997.095 3.898 1.143 4.549 1.048.65 4.199 2.01 5.606 3.285 1.407 1.275 3.322-1.391 4.935-1.391 1.613 0 7.428.889 8.859-.503 1.431-1.391 1.035-1.966-.486-2.835s-7.11-2.682-10.455-3.392c-3.346-.709-7.938-.709-9.602.287z" fill="#4C0C68"/><path fill-rule="evenodd" clip-rule="evenodd" d="M164.001 287.544l.219-.075c2.047-.648 5.907-.569 8.821.049 2.084.443 5.041 1.313 7.341 2.117-.309.451-1.031.788-2.168 1.009-3.633.708-12.939-1.824-13.852-2.589a1.21 1.21 0 01-.361-.511l.219-.075-.219.075z" fill="#5A256C"/><path fill-rule="evenodd" clip-rule="evenodd" d="M183.78 291.174l.013-.089.256.164c1.041.7 1.17 1.293-.067 2.496-1.431 1.391-7.247.502-8.859.502-.323 0-.658.107-.998.268.825-1.021 1.794-1.531 2.905-1.531 2.334 0 5.847.856 6.419-.609.153-.391.263-.791.331-1.201z" fill="#2F0251"/><path d="M307.198 179.244s-19.635 34.289-23.969 35.199c-4.333.91-29.417-11.763-29.417-11.763l31.351-46 22.035 22.564z" fill="#959FFA"/><path d="M264.735 203.331l17.075 5.391 1.817 5.582a1.809 1.809 0 01-.398.139c-2.349.493-9.269-2.007-20.762-7.499l2.268-3.613z" fill="#2E3461"/><path d="M304.562 183.954l-.943-.233a3.594 3.594 0 00-3.878 1.518c-4.029 6.146-15.501 23.517-16.999 24.348-3.158 1.752-33.338-13.265-33.338-13.265l21.968-36.706 37.263 18.732-4.073 5.606z" fill="#4B517F"/><path d="M166.068 234.703c.778-1.635 3.437-3.198 6.28-2.495 2.843.704 5.862 5.328 7.179 5.982 1.317.653 2.749.653 4.439-.933 1.689-1.586.293-3.274 2.371-5.049 2.077-1.774 24.124-23.238 27.626-25.87 3.501-2.631 26.841-21.324 29.388-21.801 2.546-.477 3.181-.131 4.386-1.694 1.204-1.564-.34-4.164 1.28-6.328 1.619-2.164 13.551-16.899 13.551-16.899s-14.905 5.288-19.217 4.65c-4.313-.637-21.371-7.279-22.505-8.583-1.133-1.304-1.293-2.141-1.293-2.141s-8.582-1.486-9.684-1.99c-.519-.237-2.144-.825-3.592-1.04-1.628-.243-3.364-1.963-3.364-2.597 0-.553 2.831.656 3.62.656.916 0 3.336.111 3.336.111s-2.809-.724-3.832-1.036c-2.518-.767-4.147-1.92-3.911-2.72.237-.8 1.527.471 4.407.791.907.101 2.915.249 2.915.249s-3.189-1.227-4.382-1.756c-2.848-1.263-4.174-2.206-3.976-2.83.206-.654 1.713-.08 4.654.99 1.041.378 3.704 1.094 3.704 1.094s-2.495-1.393-3.411-1.974c-2.076-1.317-3.018-2.24-2.824-2.769.235-.644 4.533 1.271 4.533 1.271s3.233 1.245 3.593 1.388c.823.327 4.283 1.461 4.283 1.461s.66-1.158-.265-2.577-2.205-3.081-1.799-3.705c.405-.624 4.931 2.343 5.463 3.433.532 1.09 1.928 5.052 3.508 5.725s2.385 0 4.283 0c1.898 0 14.335 6.337 16.539 5.835 2.203-.502 24.264-5.586 27.336-5.586 3.071 0 17.451 2.852 20.642 4.546 3.192 1.694 14.116 6.562 16.899 11.06 2.783 4.499 7.624 18.525 10.221 19.898 2.596 1.373 1.956-.784 4.676.589s10.745 4.866 11.48 7.059c.735 2.193.477 3.733 1.319 3.733.843 0 1.68 2.263 3.716.072 2.037-2.19 4.423-3.168 6.125-3.168 1.703 0 7.075-1.287 7.075-.441 0 .428-.663 2.096-2.453 2.096-1.79 0-4.275 1.034-4.275 1.513 0 .97 2.89 2.011 5.542 2.011 2.652 0 7.38.791 7.38 1.633 0 .841-7.38.871-7.38.871s3.368.76 4.727 1.502c1.358.742 4.161 1.72 3.689 2.628-.471.908-5.804-.586-5.804-.586l-3.879-.466 3.879 1.889s3.804 1.772 3.19 2.553c-.615.782-4.616-.801-4.616-.801l-3.8-1.22s3.284 2.609 3.8 3.007c.517.398 2.335 1.544 1.426 2.395s-6.415-3.725-7.075-3.381c-.66.345-3.886-1.349-6.011-2.021-2.125-.673-5.232-2.411-6.149-2.411-.917 0-1.767 1.975-3.569 1.975-1.803 0-17.82-6.551-18.291-7.728-.471-1.177-.692-2.489-.692-2.489l-12.2-15.769s-11.611 18.138-13.307 19.009c-1.695.871-2.545.798-4.252 2.374-1.708 1.576-.494 3.43-1.101 5.217-.607 1.787-15.895 27.103-20.92 29.913-5.024 2.81-4.392 6.07-5.789 8.245-1.397 2.175-12.023 23.132-15.359 24.398-3.336 1.266-3.641.692-5.276 2.866-1.635 2.174-5.78 15.2-8.156 16.565-2.376 1.364-6.115.387-7.098-1.385-.982-1.772-6.719-19.127-5.058-21.161 2.309-2.828 7.157-.787 8.566 0 1.409.786 2.067 1.567 2.402 1.567.336 0 .858-.489.858-1.327 0-.837-1.024-4.131 0-5.879 1.023-1.748 13.204-26.619 14.612-28.557 1.408-1.938 13.562-23.458 13.562-23.458s-25.271 14.227-27.151 14.801c-1.881.573-4.377.94-5.439 2.101-1.063 1.162-2.286 5.993-5.751 8.199-3.465 2.205-19.669 13.213-21.552 13.213-1.883 0-2.102.063-2.987.657-.885.595-10.329 11.395-12.497 12.009-2.169.615-4.796.209-6.238-3.497-1.441-3.706-7.059-16.048-6.28-17.682z" fill="#733DFF"/><path d="M308.228 161.572c2.076 3.356 5.298 12.015 7.878 16.766l-6.288 10.508-9.539-12.331-1.565 2.436c-6.776 10.509-10.689 16.033-11.742 16.573-1.696.871-2.545.798-4.252 2.374-1.708 1.576-.494 3.43-1.101 5.217-.607 1.787-15.895 27.103-20.92 29.913-4.915 2.749-4.417 5.929-5.701 8.102l-.275.451c-1.969 3.357-11.957 22.87-15.173 24.09-3.336 1.267-3.64.692-5.275 2.866-1.635 2.174-5.78 15.2-8.156 16.565-1.058.608-2.387.751-3.622.566l5.424-9.137c12.276-20.731 19.661-33.593 22.157-38.588l.166-.335c4.06-8.283 18.004-26.471 25.747-40.719l.306-.567c7.675-14.329 19.443-23.46 21.317-26.645 1.873-3.186 2.509-8.675 2.509-10.442 0-1.098-1.516-2.216-4.547-3.353l-.673-.244 1.471-2.576.789.412c4.264 2.246 9.301 5.246 11.065 8.098z" fill="#000" fill-opacity=".275"/><path d="M286.203 149.045l-4 4.268v1.535l7.385 3.435 6.434-3.015s-2.918-3.061-4.648-4.158c-1.73-1.097-5.171-2.065-5.171-2.065z" fill="#959FFA"/><path d="M287.189 149.036s1.416-1.62 1.416-2.441c0-.821-.991-3.198-.708-4.817.283-1.619.553-4.686 2.245-6.841 1.692-2.155 4.973-5.737 4.973-5.737s5.882-.658 8.82 1.289c2.939 1.948 5.617 5.606 5.216 8.946-.402 3.341-2.046 7.023-4.667 8.525-2.62 1.501-4.296 1.664-5.909 3.33-1.613 1.667-2.554 2.936-2.554 2.936s-2.905-2.459-4.616-3.464c-1.71-1.005-4.216-1.726-4.216-1.726z" fill="#FFAF8A"/><path d="M309.024 140.277c-.556 3.098-2.138 6.306-4.54 7.683-2.62 1.501-4.296 1.664-5.909 3.33-1.075 1.111-1.926 2.089-2.554 2.936a55.405 55.405 0 00-2.666-2.14l-.248-.184a20.356 20.356 0 00-1.702-1.14 14.479 14.479 0 00-1.63-.818 71.187 71.187 0 01-1.922-1.729c.502-.682.752-1.222.752-1.62 0-.562-.464-1.853-.667-3.131 1.193-.645 2.159-.928 2.899-.848 1.109.119 5.075 5.197 6.406 5.197 1.332 0 8.713-7.117 8.713-7.117l3.068-.419z" fill="#000" fill-opacity=".175"/><path d="M284.978 148.801l.8-1.469s2.857-.137 5.641 1.049 6.958 5.613 6.958 5.613l-1.791 1.644s-4.418-2.253-7.058-3.818c-2.639-1.565-4.55-3.019-4.55-3.019zm8.364-20.88c-1.17 1.58 0 3.173 0 3.173s.854-.651 3.004-.651 4.314.151 6.035 1.4c1.72 1.249 1.49 2.426 2.504 3.3 1.014.874 2.333 2.595 1.467 3.719-.865 1.123-1.741 3.74-.99 3.74.751 0 1.646-1.649 2.233-1.384.588.264 1.105 1.388 0 3.15s-6.463 5.186-6.463 5.186 8.731-3.993 8.731-5.186 1.365-9.697 0-11.111c-1.364-1.414-5.104-5.887-6.549-5.887-1.446 0-3.557.3-5.124-.33-1.568-.631-3.678-.699-4.848.881z" fill="#380085"/><path d="M306.633 138.055l3.564-4.169c.77 2.425-.334 9.409-.334 10.482 0 .795-2.91 2.524-8.731 5.186 3.572-2.283 5.727-4.011 6.463-5.186 1.105-1.762.588-2.886 0-3.15-.587-.264-1.482 1.385-2.233 1.385-.751 0 .125-2.617.99-3.741.189-.245.274-.519.281-.807l3.564-4.169-3.564 4.169z" fill="#000" fill-opacity=".175"/><path fill-rule="evenodd" clip-rule="evenodd" d="M304.781 146.316c.309 1.087 2.528 1.554 3.745 0 1.216-1.554-.333-4.668-1.328-4.668-.994 0-2.726 3.58-2.417 4.668z" fill="#C5876A"/><path d="M282.203 153.313l4-4.268c2.294.646 4.017 1.334 5.171 2.065.923.585 2.099 1.589 3.529 3.013l-5.315 2.772-7.385-3.427v-.155l4-4.268-4 4.268z" fill="#F8FCFF"/><path d="M222.529 145.717c1.58.673 2.385 0 4.283 0 1.898 0 14.335 6.338 16.538 5.836l7.097-1.608c7.431-1.66 18.165-3.979 20.24-3.979l.308.007c1.07.049 3.014.322 5.302.724-.268.174-.579.34-.932.501l-.272.12c-3.275 1.386-7.506 5.556-12.692 12.512l-.355.478-1.626.513c-8.671 2.697-14.361 3.846-17.07 3.446l-.382-.066c-4.852-.932-21.019-7.249-22.122-8.518-.755-.869-1.186-1.583-1.293-2.141l-2.046-.359a223.2 223.2 0 01-3.378-.625l6.528-9.026c.555 1.008 1.196 1.897 1.872 2.185z" fill="#380085"/><path d="M262.402 159.83l-.355.478-1.251.396c-6.563 2.055-11.452 3.24-14.666 3.554 1.551-2.25 9.197-6.376 22.937-12.377-1.885 1.909-3.956 4.357-6.212 7.344l-.453.605z" fill="#000" fill-opacity=".275"/><path d="M308.228 161.572c2.783 4.499 7.624 18.525 10.22 19.898 2.51 1.327 1.996-.644 4.415.463l1.788.869c3.422 1.641 9.328 4.45 9.954 6.316.706 2.108.495 3.613 1.227 3.726l.092.007c.82 0 1.634 2.143 3.554.24l.162-.168c1.955-2.103 4.232-3.088 5.917-3.163l.208-.005c.621 0 1.73-.171 2.888-.347l.558.559-.505 1.671c-1.357.333-2.594.947-2.594 1.285 0 .488.73.993 1.792 1.375l-3.038 10.083c-1.184-.471-2.583-1.095-3.686-1.444-2.125-.673-5.232-2.412-6.149-2.412-.917 0-1.767 1.976-3.57 1.976-1.802 0-17.819-6.551-18.29-7.728a12.122 12.122 0 01-.693-2.489l-12.199-15.769-.099.153c-.428-7.45 1.558-14.787 4.961-18.268 1.34 1.048 2.436 2.12 3.087 3.172z" fill="#380085"/><path d="M305.141 158.4c.475.372.92.747 1.325 1.123-1.049 7.679-.326 13.615 2.168 17.808l.77 1.306c2.252 3.863 4.002 7.23 5.248 10.101l.421 7.287c-1.095-.568-1.808-1.017-1.902-1.252a12.122 12.122 0 01-.693-2.489l-12.199-15.769-.099.153c-.428-7.45 1.558-14.787 4.961-18.268z" fill="#000" fill-opacity=".275"/><path d="M232.047 261.233c1.787.78 2.802 2.891 3.043 6.333a9.582 9.582 0 00-.815.971c-1.635 2.174-5.78 15.2-8.156 16.565-2.376 1.364-6.115.387-7.098-1.385-.982-1.772-6.719-19.127-5.058-21.161 2.309-2.828 7.157-.787 8.566 0 1.409.786 2.067 1.567 2.402 1.567.336 0 .858-.489.858-1.327l-.005-.108c2.343-1.77 4.43-2.255 6.263-1.455z" fill="#959FFA"/><path d="M235.09 267.566a9.582 9.582 0 00-.815.971c-1.635 2.174-5.78 15.2-8.156 16.565-.706.406-1.533.604-2.372.637l-1.093-1.681 12.143-18.672c.14.655.237 1.382.293 2.18z" fill="#000" fill-opacity=".275"/><path d="M215.835 263.15c2.923 0 7.422 3.68 8.985 8.849.788 2.605 1.625 6.511 2.51 11.717-.435.687-.844 1.175-1.211 1.386-2.376 1.364-6.115.387-7.098-1.385-.763-1.376-4.393-12.149-5.199-17.847.362-1.813 1.033-2.72 2.013-2.72z" fill="#733DFF"/><path d="M225.789 262.796v-.024c.549.861.935 1.582 1.157 2.164.359.942.505 2.25.438 3.924l-1.445-3.08a9.158 9.158 0 00-1.037-1.66l.029.003c.314 0 .789-.426.851-1.164l.007-.187v.024z" fill="#000" fill-opacity=".275"/><path d="M172.348 232.209c2.843.703 5.862 5.327 7.179 5.981 1.317.653 2.749.653 4.439-.933.455-.428.686-.863.822-1.305 1.163-.245 2.22-.102 3.172.429 1.955 1.091 3.362 3.669 3.362 5.438v1.898l-.239.156c-.885.595-10.329 11.395-12.497 12.01-2.115.599-4.665.228-6.128-3.226l-.444-1.107c-1.817-4.444-6.674-15.32-5.946-16.847.778-1.634 3.437-3.198 6.28-2.494z" fill="#959FFA"/><path d="M174.03 239.104l.523 1.001c1.794 3.36 5.781 10.267 6.266 14.188l-.406.353c-.789.67-1.43 1.124-1.827 1.237-2.169.614-4.796.208-6.238-3.498-1.252-3.22-5.657-12.959-6.28-16.53l-.026-.171c.265-.288.597-.49.995-.608 3.296-.973 5.258.734 6.993 4.028z" fill="#733DFF"/><path d="M217.702 203.433l.131-.102c2.502 2.317 4.344 4.91 5.525 7.778a31.116 31.116 0 012.213 8.936l-.917.239c-1.324.356-2.598.774-3.281 1.521-.569.621-1.184 2.294-2.163 4.052l-.802-1.054c-1.717-2.23-3.301-4.105-4.753-5.628-1.558-1.634-4.417-3.22-8.578-4.76l3.397-3.185c2.49-2.315 4.464-4.098 5.387-4.814l.97-.742 3.002-2.343-.131.102zm34.477 23.834c2.526 1.105 5.084 3.196 7.674 6.272-4.109 2.688-3.63 5.69-4.943 7.734a18.6 18.6 0 00-.489.837 35.304 35.304 0 01-7.877-2.809c-3.137-1.55-6.014-3.677-8.631-6.381l1.12-2.142c.581-1.094 1.024-1.893 1.273-2.278l.272-.397c.321-.483.857-1.356 1.606-2.619 4.463.225 7.794.819 9.995 1.783zm-4.01-45.431l.012-.064c3.217 2.516 5.378 4.809 6.483 6.881 1.442 2.703 2.163 7.045 2.162 13.026 5.111-1.968 9.557-3.024 13.339-3.167 2.825-.108 6.707.24 11.645 1.042-.19 1.15.214 2.37-.191 3.561-.211.622-2.203 4.098-4.922 8.483-4.368-1.974-8.038-3.166-11.009-3.574-3.563-.489-8.207-.227-13.935.786l2.21-3.908-3.308 1.86c-.825-4.738-2.034-8.218-3.626-10.44-1.584-2.212-4.774-4.889-9.57-8.029l1.144-.82c2.385-1.694 4.146-2.823 4.748-2.936l.517-.09c2.123-.347 2.751-.152 3.869-1.604.232-.301.362-.64.432-1.007l.012-.064-.012.064z" fill="#959FFA"/><path d="M256.955 201.568l-.959.939-2.066 2.453.033-.058-10.418 5.839c-10.191 5.681-15.769 8.668-16.733 8.962-1.881.574-4.377.94-5.44 2.102-1.062 1.161-2.285 5.992-5.75 8.198l-1.08.7c-4.919 3.218-18.742 12.513-20.472 12.513l-.474.002c-1.382.013-1.68.105-2.396.578l-.117.078c-.697.467-6.694 7.255-10.274 10.426l.01.03-.16-.63c-.6-2.33-1.068-3.661-1.404-3.991l15.429-12.38c3.327-2.678 6.024-4.858 8.091-6.539l1.211-.986c8.969-7.324 13.702-12.212 15.167-13.224l.166-.109c2.896-1.854 15.441-6.822 37.636-14.903z" fill="#000" fill-opacity=".275"/><path d="M352.84 189.314c0 .428-.663 2.096-2.453 2.096-1.79 0-4.275 1.034-4.275 1.514 0 .94 2.718 1.947 5.301 2.007l.241.003c2.652 0 7.38.791 7.38 1.633 0 .561-2.46.851-7.38.871 2.113.477 3.633.949 4.56 1.415l.167.087c1.358.742 4.161 1.72 3.689 2.628-.314.606-2.249.41-5.804-.586l-3.879-.466 3.879 1.889.521.248c2.16 1.054 3.049 1.822 2.669 2.306-.41.52-1.948.253-4.616-.802l-3.8-1.22 3.8 3.007.569.423c.687.53 1.539 1.333.857 1.972-.909.851-6.415-3.725-7.075-3.38-.638.333-3.674-1.239-5.795-1.952l-.216-.07c-1.744-.552-4.15-1.823-5.463-2.26.067-.958.211-2.034.43-3.224.265-1.432.682-2.669 1.252-3.714.53.248 1.188.24 2.089-.657l.152-.158c1.956-2.104 4.232-3.088 5.918-3.164l.207-.004c1.703 0 7.075-1.288 7.075-.442z" fill="#959FFA"/><path d="M336.375 196.412l-.055-.09c1.476 2.513 3.558 4.165 6.247 4.957l.354.099c2.482.65 5.69 2.844 9.622 6.581-1.974-1.011-4.883-3.245-5.352-3-.638.333-3.674-1.239-5.795-1.951l-.216-.071c-1.744-.552-4.15-1.822-5.463-2.26.067-.958.211-2.034.43-3.224.067-.359.143-.706.228-1.041z" fill="#000" fill-opacity=".275"/><path d="M323.125 182.059l.802.394c3.231 1.564 10.006 4.659 10.678 6.665.633 1.889.529 3.294 1.027 3.647a12.68 12.68 0 00-1.463 3.022c-.634 1.892-1.01 3.946-1.126 6.16-.44.313-.953.554-1.581.554-1.803 0-17.82-6.551-18.291-7.728a12.02 12.02 0 01-.596-1.981c.595-2.363 1.427-4.354 2.496-5.975a29.896 29.896 0 014.167-5.002c1.703.569 1.486-.968 3.887.244z" fill="#959FFA"/><path d="M315.071 186.817c-.328 3.16.586 5.535 2.741 7.123l.375.273c3.323 2.384 9.98 6.341 14.542 4.63l.266-.107c.156-.068.307-.123.452-.166a24.637 24.637 0 00-.404 3.377c-.44.314-.953.554-1.581.554-1.803 0-17.82-6.551-18.291-7.728a11.992 11.992 0 01-.596-1.981c.549-2.181 1.3-4.046 2.253-5.594l.243-.381z" fill="#000" fill-opacity=".275"/><path d="M219.021 139.992l.132.287c.608 1.372 1.913 4.815 3.376 5.438a3.399 3.399 0 001.506.297c-1.384.799-2.385 1.814-3.003 3.045-.563 1.121-1.065 2.614-1.506 4.479l.027.004-2.84-.502c-3.96-.716-6.241-1.212-6.844-1.488-.519-.237-2.144-.825-3.592-1.04-1.629-.243-3.364-1.963-3.364-2.597 0-.553 2.831.656 3.619.656l.427.004c.649.012 1.619.048 2.91.107l-2.116-.555a65.57 65.57 0 01-1.581-.44l-.135-.041c-2.518-.767-4.147-1.92-3.911-2.72.229-.775 1.444.391 4.133.757l.273.034c.605.067 1.577.15 2.916.249l-2.288-.892a76.946 76.946 0 01-1.786-.73l-.308-.134c-2.848-1.263-4.174-2.206-3.977-2.83.207-.654 1.714-.08 4.655.99l.482.165c.728.237 1.802.547 3.222.929l-1.649-.931a54.739 54.739 0 01-1.642-.967l-.12-.076c-2.077-1.317-3.018-2.24-2.824-2.769.157-.43 1.668-.006 4.533 1.271l3.882 1.498c.685.252 2.016.703 3.994 1.351.44-.772.351-1.631-.265-2.577l-.968-1.452c-.623-.96-1.102-1.837-.831-2.253.405-.624 4.931 2.343 5.463 3.433zm92.769 25.815c-.893-2.269-2.64-3.773-3.902-3.359-1.261.414-1.56 2.59-.667 4.859s2.639 3.773 3.901 3.359c1.262-.414 1.561-2.589.668-4.859z" fill="#959FFA"/><path d="M313.652 164.936c-.982-2.358-2.972-3.832-4.444-3.293-1.473.54-1.87 2.889-.888 5.247.983 2.358 2.973 3.832 4.445 3.292 1.472-.539 1.869-2.888.887-5.246z" fill="#F8FCFF"/><path d="M316.912 137.35c0 9.867-7.998 17.865-17.865 17.865-9.866 0-17.865-7.998-17.865-17.865 0-9.867 7.999-17.865 17.865-17.865 9.867 0 17.865 7.998 17.865 17.865z" fill="#9286FF" fill-opacity=".193" stroke="#D4D0FF" stroke-width="1.8"/><path opacity=".504" fill-rule="evenodd" clip-rule="evenodd" d="M291.278 127.871c1.178-1.264 1.45-2.924.608-3.71-.842-.785-2.48-.398-3.658.866-1.178 1.263-1.45 2.924-.608 3.709.842.785 2.48.398 3.658-.865z" fill="#fff"/><path d="M269.033 157.158l-5.944 5.733v2.085s6.159.998 13.361 4.08c5.1 2.183 10.102 6.299 12.587 8.516.852.76 2.203.603 2.824-.356l5.286-8.166v-1.989s-9.895-5.324-14.057-7.085c-7.028-2.973-14.057-2.818-14.057-2.818z" fill="#959FFA"/><path d="M269.033 155.073l-5.944 7.818s6.159.998 13.361 4.08c5.164 2.21 10.328 6.029 12.837 8.013.845.668 2.096.496 2.7-.396l5.16-7.623s-7.028-6.101-14.057-9.074c-7.028-2.973-14.057-2.818-14.057-2.818z" fill="#F8FCFF"/><path d="M320.91 167.601a1.35 1.35 0 01-.271-2.162l16.164-15.261a3.15 3.15 0 013.641-.492l32.755 17.402a1.35 1.35 0 01.312 2.155l-16.252 15.967a3.15 3.15 0 01-3.737.506l-32.612-18.115z" fill="#FF3F87" fill-opacity=".28" stroke="#F8458D" stroke-width=".9"/><path d="M332.33 169.28c-1.012-.564-.89-2.058.2-2.45l17.741-6.383a1.35 1.35 0 011.807 1.271v16.267a1.351 1.351 0 01-2.008 1.18l-17.74-9.885z" fill="#9286FF" fill-opacity=".193" stroke="#F8F8F8" stroke-width=".9"/><path fill-rule="evenodd" clip-rule="evenodd" d="M346.476 164.987l-1.952 3.103c-.242.41-.387.74-.437.99-.049.25.037.456.259.618a.603.603 0 00.681.051c.235-.125.499-.358.791-.7l2.705-3.113c.147-.176.286-.354.418-.535.335-.462.532-.858.59-1.19.059-.332-.089-.626-.443-.884-.292-.212-.598-.288-.916-.226-.318.061-.601.263-.85.604-.182.252-.464.679-.846 1.282zm-4.701 6.944c.07.299.23.539.481.722.247.179.523.254.828.224.305-.03.562-.189.772-.478.185-.255.251-.539.198-.851a1.13 1.13 0 00-.468-.751 1.106 1.106 0 00-.854-.21 1.1 1.1 0 00-.742.457c-.212.292-.284.588-.215.887z" fill="#FF3F87"/><defs><linearGradient id="paint0_linear" x1="488.064" y1="188.646" x2="-15.106" y2="130.324" gradientUnits="userSpaceOnUse"><stop stop-color="#380085"/><stop offset="1" stop-color="#733DFF"/><stop offset="1" stop-color="#733DFF"/></linearGradient></defs></svg>