<svg width="1364" height="760" fill="none" xmlns="http://www.w3.org/2000/svg"><path opacity=".4" d="M758 0v227.997c0 .594.264 1.157.721 1.537l54.559 45.409a2 2 0 01.72 1.537V745" stroke="#CCC"/><path d="M1210.3 179.478l353.65 252.402L1588 759.478 813.998 752.5 352 757.88l-462-5.38 762.028-302.366L1210.3 179.478z" fill="url(#paint0_linear)" fill-opacity=".15"/><path d="M1051.2 77.968l.58 184.316 311.48 184.584V262.885L1051.2 77.968z" fill="#EFF0FF"/><path d="M1049.66 1v252.293L1398 477.178V254.022L1391.5 1h-341.84z" fill="#E8E8E8"/><path d="M1111.74 94.072a2.002 2.002 0 00-2-.004l-3.87 2.228 3.75 131.444c.02.673.37 1.29.95 1.644l188.21 116.403 4.52-2.75c.59-.363.96-1.01.96-1.708V206.725c0-.713-.38-1.373-1-1.731L1111.74 94.072z" fill="#733DFF"/><path d="M1107.72 97.06c-1-.585-2.26.138-2.26 1.297l.15 133.97c0 .533.28 1.025.74 1.294l190.9 111.279c1 .583 2.26-.14 2.26-1.299l-.29-133.778c0-.532-.28-1.023-.74-1.292l-190.76-111.47z" fill="#F8FCFF" stroke="#D0D4FF"/><path d="M1285.09 230.615a3.716 3.716 0 00-1.84-3.233l-47.21-27.873c-1.16-.689-2.63.152-2.63 1.507v74.424c0 1.329.7 2.559 1.84 3.233l47.14 27.704c1.16.685 2.63-.155 2.63-1.507l.07-74.255z" fill="#9286FF" fill-opacity=".193" stroke="#B399FF" stroke-width=".5"/><path d="M1276.02 291.672v-17.466c0-.64-.5-1.147-1.11-1.147-.61 0-1.11.507-1.11 1.147v17.466c0 .64.5 1.147 1.11 1.147.61 0 1.11-.507 1.11-1.147zm-6.96-4.347v-11.877c0-.64-.5-1.147-1.11-1.147-.61 0-1.11.507-1.11 1.147v11.877c0 .64.5 1.147 1.11 1.147.61 0 1.11-.507 1.11-1.147zm-6.96-3.571v-14.671c0-.64-.5-1.147-1.11-1.147-.61 0-1.11.507-1.11 1.147v14.671c0 .64.5 1.147 1.11 1.147.61 0 1.11-.507 1.11-1.147zm-20.87-11.954v-14.672c0-.639-.51-1.147-1.12-1.147-.6 0-1.11.508-1.11 1.147V271.8c0 .639.51 1.147 1.11 1.147.61 0 1.12-.508 1.12-1.147zm6.95 2.794v-11.876c0-.64-.5-1.148-1.11-1.148-.61 0-1.11.508-1.11 1.148v11.876c0 .64.5 1.148 1.11 1.148.61 0 1.11-.508 1.11-1.148zm6.96 4.192v-16.068c0-.64-.5-1.148-1.11-1.148-.61 0-1.11.508-1.11 1.148v16.068c0 .64.5 1.147 1.11 1.147.61 0 1.11-.507 1.11-1.147z" fill="#9286FF" fill-opacity=".193" stroke="#B399FF" stroke-width=".5"/><path opacity=".8" d="M1246.18 228.746l.01.016.01.018 9.16 16.383c.59 1.052 1.88 1.44 2.92.89l7.89-4.147.21-.113.12.21 10.9 19.198c.4.714 1.29.951 1.98.539.69-.415.93-1.333.52-2.051l-11.34-19.991c-.6-1.044-1.87-1.425-2.92-.878l-7.87 4.145-.22.113-.12-.213-8.84-15.81-9.41-11.848a1.425 1.425 0 00-2.04-.214 1.532 1.532 0 00-.21 2.11l9.25 11.643z" fill="#FF623F" stroke="#FF623F" stroke-width=".5"/><path d="M1167.85 160.754c0-1.329-.7-2.56-1.84-3.236l-47.21-27.873c-1.17-.689-2.64.152-2.64 1.507v35.612c0 1.329.71 2.559 1.85 3.233l47.14 27.705c1.16.685 2.63-.153 2.63-1.505l.07-35.443z" fill="#9286FF" fill-opacity=".193" stroke="#B399FF" stroke-width=".5"/><path d="M1158.02 185.061v-20.338c0-.794-.63-1.427-1.38-1.427-.76 0-1.39.633-1.39 1.427v20.338c0 .794.63 1.426 1.39 1.426.75 0 1.38-.632 1.38-1.426zm-6.53-3.354v-13.631c0-.794-.63-1.427-1.39-1.427-.76 0-1.38.633-1.38 1.427v13.631c0 .794.62 1.427 1.38 1.427.76 0 1.39-.633 1.39-1.427zm-6.54-3.353v-16.985c0-.794-.63-1.426-1.38-1.426-.76 0-1.39.632-1.39 1.426v16.985c0 .794.63 1.427 1.39 1.427.75 0 1.38-.633 1.38-1.427zm-19.61-13.414v-16.984c0-.795-.62-1.427-1.38-1.427-.76 0-1.38.632-1.38 1.427v16.984c0 .794.62 1.427 1.38 1.427.76 0 1.38-.633 1.38-1.427zm6.54 3.354v-13.631c0-.795-.63-1.427-1.38-1.427-.76 0-1.39.632-1.39 1.427v13.631c0 .794.63 1.426 1.39 1.426.75 0 1.38-.632 1.38-1.426zm6.53 5.03v-18.661c0-.795-.62-1.427-1.38-1.427-.76 0-1.38.632-1.38 1.427v18.661c0 .794.62 1.427 1.38 1.427.76 0 1.38-.633 1.38-1.427z" opacity=".8" fill="#FF623F" stroke="#FF623F" stroke-width=".5"/><path d="M1226.09 195.686c.01-1.33-.7-2.561-1.84-3.236l-47.21-27.873c-1.16-.689-2.63.152-2.63 1.507v35.611c0 1.33.7 2.56 1.84 3.233l47.14 27.706c1.17.685 2.64-.154 2.64-1.505l.06-35.443z" fill="#9286FF" fill-opacity=".193" stroke="#B399FF" stroke-width=".5"/><path opacity=".8" d="M1203.76 210.852c1.16 2.935 3.09 5.215 5.27 6.533 2.18 1.319 4.59 1.668 6.73.782 2.13-.887 3.63-2.857 4.31-5.358.67-2.501.52-5.519-.64-8.454-1.15-2.936-3.09-5.216-5.26-6.534-2.18-1.318-4.59-1.668-6.73-.781-2.14.887-3.64 2.856-4.31 5.357-.68 2.502-.52 5.519.63 8.455z" fill="#FF623F" stroke="#F8458D" stroke-width=".5"/><path d="M1184.55 186.353c1.14 2.908 3.86 4.407 6.01 3.516 2.15-.89 3.09-3.906 1.94-6.814-1.14-2.909-3.86-4.407-6.01-3.517-2.14.891-3.09 3.906-1.94 6.815zm6.67 17.127c.33.848.89 1.498 1.52 1.87.62.372 1.3.459 1.89.214.59-.245 1.01-.789 1.21-1.501.2-.712.16-1.579-.17-2.427-.34-.848-.9-1.499-1.52-1.871-.62-.372-1.3-.458-1.89-.214-.59.245-1.02.789-1.21 1.501-.2.713-.16 1.58.17 2.428z" fill="#9286FF" fill-opacity=".193" stroke="#B399FF" stroke-width=".5"/><path opacity=".7" d="M1179.87 197.27c.34.848.9 1.498 1.52 1.87.63.372 1.3.459 1.89.214.59-.245 1.02-.789 1.22-1.501.19-.712.15-1.579-.18-2.427-.33-.848-.89-1.499-1.52-1.871-.62-.372-1.3-.458-1.89-.214-.59.245-1.01.789-1.21 1.501-.2.713-.16 1.58.17 2.428z" fill="#FF623F" stroke="#F8458D" stroke-width=".5"/><mask id="a" fill="#fff"><path d="M1189.94 190.116l2.28 9.287-2.28-9.287z"/></mask><path d="M1189.94 190.116l2.28 9.287-2.28-9.287z" fill="#9286FF" fill-opacity=".193"/><path d="M1190.42 189.997l2.28 9.287-.97.238-2.28-9.287.97-.238z" fill="#B399FF" mask="url(#a)"/><mask id="b" fill="#fff"><path d="M1184.55 197.829l6.27 4.255-6.27-4.255z"/></mask><path d="M1184.55 197.829l6.27 4.255-6.27-4.255z" fill="#9286FF" fill-opacity=".193"/><path d="M1184.83 197.415l6.27 4.256-.56.827-6.28-4.255.57-.828z" fill="#B399FF" mask="url(#b)"/><path d="M1185.13 132.434a.409.409 0 00-.39-.003l-6.06 3.276.92 9.817a.43.43 0 00.2.309l37.65 21.738 1.83-1.034v-4.917l4.56-2.378v-4.888a.41.41 0 00-.2-.349l-38.51-21.571z" fill="#512BB5"/><path d="M1179.28 136.035a.398.398 0 00-.59.352l.02 9.728c0 .145.08.279.21.349l38.18 21.038c.27.148.59-.047.59-.352l-.05-9.689a.395.395 0 00-.21-.348l-38.15-21.078z" fill="#733DFF"/><path d="M1091.86 577.867c-17.54-.628-31.37-12.252-30.91-25.963.47-13.71 15.06-24.315 32.6-23.687 17.53.629 31.37 12.253 30.9 25.963-.47 13.711-15.06 24.316-32.59 23.687zm-162.631 8.539c-17.535-.628-31.371-12.252-30.905-25.963.467-13.71 15.06-24.315 32.595-23.687 17.535.628 31.371 12.252 30.905 25.963-.467 13.71-15.06 24.316-32.595 23.687zm-74.884-47.351c-17.535-.629-31.372-12.253-30.905-25.963.467-13.711 15.06-24.316 32.594-23.688 17.535.629 31.372 12.253 30.905 25.963-.466 13.711-15.059 24.316-32.594 23.688zm10.59-100.914c-17.535-.628-31.371-12.252-30.905-25.963.467-13.71 15.06-24.316 32.595-23.687 17.535.628 31.371 12.252 30.905 25.963-.467 13.71-15.06 24.315-32.595 23.687zm195.005-116.782c-17.55 0-31.77-7.994-31.77-17.854 0-9.861 14.22-17.854 31.77-17.854 17.54 0 31.77 7.993 31.77 17.854 0 9.86-14.23 17.854-31.77 17.854zm251.83 140.069c-17.55 0-31.77-7.993-31.77-17.854 0-9.86 14.22-17.854 31.77-17.854 17.54 0 31.77 7.994 31.77 17.854 0 9.861-14.23 17.854-31.77 17.854z" fill="#000" fill-opacity=".13"/><path d="M1295.19 367.954l21.04-11.969v41.634c0 7.219 3.79 13.906 9.99 17.605l22.31 13.309-18.28 10.58-25.53-15.188a19.498 19.498 0 01-9.53-16.759v-39.212z" fill="#F8FCFF" stroke="#D0D4FF"/><path d="M1312.35 411.451a4.005 4.005 0 013.89.08l25.32 14.773c1.33.78 1.32 2.716-.03 3.472l-9.08 5.086a3.996 3.996 0 01-3.99-.047l-25.38-15.011c-1.35-.796-1.3-2.758.08-3.489l9.19-4.864z" fill="#1B215B"/><path d="M1288.48 364.776l-.13 57.39a24.012 24.012 0 0011.67 20.646l21.93 13.129a22.98 22.98 0 0023.54.042 22.991 22.991 0 0011.24-19.767l-.03-57.675-5.78-3.452-22.64 12.373v40.414c0 4.646-5.06 7.529-9.06 5.165l-14.7-8.695a20.002 20.002 0 01-9.83-17.216v-39.467l22.04-12.537-5.38-3.15-22.87 12.8z" fill="#D6D9FB"/><path d="M1327.27 458.303c3.45-.469 6.35-3.185 6.96-6.872.08-.466.12-.938.12-1.41v-58.14l21.85-12.554.03 59.224c0 6.372-3.25 12.264-8.54 15.54l-.01.001-.27.164v.003l-4.83 2.869a17.252 17.252 0 01-15.31 1.175z" fill="#F8FCFF" stroke="#D0D4FF"/><path d="M1304.45 380.204c2.31 1.005 5.23-.74 6.54-3.897 1.31-3.157.49-6.531-1.81-7.536-2.31-1.005-5.24.739-6.54 3.896-1.31 3.157-.5 6.531 1.81 7.537z" fill="#1B215B"/><path d="M1305.89 378.098c1.34.587 3.03-.378 3.76-2.154.74-1.776.24-3.69-1.1-4.277-1.35-.586-3.04.378-3.77 2.154-.74 1.776-.24 3.691 1.11 4.277z" fill="#FF623F"/><path d="M1304.45 397.281c2.31 1.005 5.23-.739 6.54-3.896 1.31-3.157.49-6.532-1.81-7.537-2.31-1.005-5.24.74-6.54 3.897-1.31 3.157-.5 6.531 1.81 7.536z" fill="#1B215B"/><path d="M1305.89 395.176c1.34.586 3.03-.378 3.76-2.154.74-1.776.24-3.691-1.1-4.277-1.35-.586-3.04.378-3.77 2.154-.74 1.776-.24 3.691 1.11 4.277z" fill="#FF623F"/><path d="M1311.35 419.324c-2.91-2.554-5.45-2.554-3.36-7.361 2.08-4.808-5.82-9.212-2.65-13.871 3.18-4.659-2.01-10.943.93-14.072 2.94-3.129 1.78-12.176 5.08-11.719 1.61.222 2.24 6.834 3.96 7.62 1.72.786 3.69 2.697 2.58 5.66-2.15 5.761 3.31 6.538 1.66 12.511-1.66 5.972 2.95 4.386 2.03 10.465-.93 6.078-2.03 9.013-2.03 9.013s-3.1-.645-3.72.743c-.63 1.388-1.57 3.566-4.48 1.011z" fill="#733DFF" stroke="#D0D4FF" stroke-width=".5"/><path d="M1315.31 379.921c1.68.769 3.6 2.613 2.65 5.464l-.07.196c-2.11 5.658 3.12 6.509 1.74 12.196l-.08.315c-1.66 5.972 2.95 4.386 2.02 10.465-.61 4.052-1.29 7.057-2.02 9.013-2.07-.43-3.31-.182-3.73.743l-.18.4c-.6 1.288-1.56 2.786-3.94.905-.29-1.289-.21-2.717.62-4.186l.12-.21c2.43-3.978-3.4-6.049-1.98-9.542 1.4-3.424 3.86-6.427 2.09-9.012l-.11-.155c-1.98-2.62-1.72-6.84.84-10.156 1.88-2.436.89-5.31 1.12-7.496.27.52.57.904.91 1.06z" fill="#3C1F86"/><path d="M1316.68 424.432c-1.23-1.53-4.4-5.233-1.97-9.21 2.43-3.978-3.4-6.049-1.98-9.542 1.42-3.492 3.96-6.547 1.98-9.167-1.98-2.619-1.72-6.84.84-10.156 2.56-3.315-.21-7.444 2.04-9.541 2.26-2.097 1.97 4.401 5.35 6.686 3.37 2.285-.99 7.923 2.19 9.493 3.17 1.57-2.52 9.157 0 11.626 2.52 2.469 4.46 6.27 2.45 9.784-2.01 3.514-.21 6.385-1.27 7.434-1.06 1.049-2.78-1.758-4.27.673-1.49 2.431-4.13 3.449-5.36 1.92z" fill="#733DFF" stroke="#D0D4FF" stroke-width=".5"/><path d="M1325 392.924l.13.071c3.17 1.57-2.52 9.157 0 11.626.3.297.6.613.88.946v16.468c-1.04.38-2.54-1.638-3.87.329l-.1.148c-.54.885-1.23 1.582-1.96 2.038-.46-1.133-.39-2.438.61-3.906l.13-.184c2.74-3.775-3.13-5.632-1.21-9.288l.12-.201c2.21-3.731-2.14-9.361 2.5-14.168l.23-.224c1.24-1.204 1.82-2.583 2.09-3.984.13.122.28.232.45.329z" fill="#3C1F86"/><path d="M1332.58 385.112l-4.3 2.35v41.59a6.43 6.43 0 01-1.38-.512l-.43-.214c-2.89-1.504-5.94-4.115-3.5-7.69l.12-.176c2.74-3.775-3.13-5.632-1.21-9.288l.12-.201c2.21-3.731-2.14-9.361 2.5-14.168l.22-.224c5.01-4.855-.6-12.543 5.22-13.159 1.62-.171 2.35.538 2.64 1.692z" fill="#733DFF" stroke="#D0D4FF" stroke-width=".5"/><path d="M1041.85 226.332l21.03-11.968v41.633c0 7.22 3.8 13.907 10 17.606l22.31 13.308-18.28 10.58-25.53-15.188a19.497 19.497 0 01-9.53-16.758v-39.213z" fill="#F8FCFF" stroke="#D0D4FF"/><path d="M1059.01 269.829a4.006 4.006 0 013.89.081l25.31 14.772c1.34.78 1.32 2.717-.03 3.473l-9.08 5.085a3.997 3.997 0 01-3.99-.047l-25.37-15.011c-1.35-.796-1.3-2.758.08-3.489l9.19-4.864z" fill="#1B215B"/><path d="M1035.14 223.154l-.13 57.391a23.99 23.99 0 0011.67 20.645l21.93 13.13a22.967 22.967 0 0023.53.042 22.951 22.951 0 0011.24-19.768l-.03-57.675-5.77-3.452-22.65 12.374v40.413c0 4.646-5.05 7.529-9.05 5.165l-14.71-8.694a19.993 19.993 0 01-9.82-17.217v-39.467l22.03-12.537-5.37-3.15-22.87 12.8z" fill="#D6D9FB"/><path d="M1073.93 316.681c3.45-.469 6.34-3.185 6.96-6.872.08-.466.12-.937.12-1.41v-58.14l21.84-12.554.04 59.224c0 6.372-3.25 12.264-8.55 15.54v.001l-.27.164v.003l-4.83 2.869c-4.71 2.792-10.35 3.183-15.31 1.175z" fill="#F8FCFF" stroke="#D0D4FF"/><path d="M1051.11 238.582c2.3 1.005 5.23-.74 6.54-3.897 1.3-3.157.49-6.531-1.82-7.536-2.3-1.005-5.23.739-6.54 3.896-1.3 3.158-.49 6.532 1.82 7.537z" fill="#1B215B"/><path d="M1052.54 236.477c1.35.586 3.03-.378 3.77-2.154.73-1.776.24-3.691-1.11-4.277-1.34-.587-3.03.378-3.76 2.154-.74 1.775-.24 3.69 1.1 4.277z" fill="#FF623F"/><path d="M1051.11 255.66c2.3 1.005 5.23-.74 6.54-3.897 1.3-3.157.49-6.531-1.82-7.536-2.3-1.005-5.23.739-6.54 3.896-1.3 3.157-.49 6.532 1.82 7.537z" fill="#1B215B"/><path d="M1052.54 253.554c1.35.587 3.03-.378 3.77-2.154.73-1.775.24-3.69-1.11-4.277-1.34-.586-3.03.378-3.76 2.154-.74 1.776-.24 3.691 1.1 4.277z" fill="#FF623F"/><path d="M1058.01 277.703c-2.91-2.555-5.45-2.555-3.37-7.362 2.09-4.807-5.82-9.212-2.64-13.871 3.18-4.659-2.02-10.943.93-14.072 2.94-3.129 1.77-12.176 5.08-11.719 1.6.222 2.24 6.834 3.96 7.62 1.72.786 3.69 2.697 2.58 5.66-2.15 5.762 3.31 6.539 1.66 12.511-1.66 5.973 2.94 4.387 2.02 10.465-.92 6.079-2.02 9.014-2.02 9.014s-3.11-.645-3.73.743c-.62 1.388-1.56 3.565-4.47 1.011z" fill="#733DFF" stroke="#D0D4FF" stroke-width=".5"/><path d="M1061.97 238.299c1.68.769 3.6 2.613 2.65 5.464l-.07.196c-2.11 5.659 3.12 6.509 1.74 12.196l-.08.315c-1.66 5.973 2.95 4.387 2.02 10.465-.61 4.053-1.29 7.057-2.02 9.014-2.07-.43-3.31-.183-3.73.743l-.18.399c-.6 1.288-1.56 2.787-3.94.905-.29-1.289-.21-2.716.61-4.186l.13-.21c2.43-3.978-3.4-6.049-1.98-9.541 1.39-3.425 3.85-6.427 2.09-9.013l-.11-.154c-1.98-2.62-1.72-6.841.84-10.156 1.88-2.436.88-5.311 1.12-7.496.27.519.57.904.91 1.059z" fill="#3C1F86"/><path d="M1063.34 282.81c-1.23-1.529-4.4-5.233-1.97-9.21 2.42-3.978-3.4-6.049-1.98-9.541 1.42-3.493 3.95-6.547 1.98-9.167-1.98-2.62-1.72-6.841.84-10.156 2.56-3.316-.21-7.445 2.04-9.542 2.25-2.096 1.97 4.401 5.34 6.686 3.38 2.286-.98 7.923 2.2 9.493 3.17 1.57-2.52 9.158 0 11.626 2.52 2.469 4.46 6.27 2.45 9.784-2.01 3.514-.21 6.385-1.27 7.434-1.06 1.049-2.78-1.758-4.27.673-1.49 2.431-4.13 3.45-5.36 1.92z" fill="#733DFF" stroke="#D0D4FF" stroke-width=".5"/><path d="M1071.65 251.303l.14.07c3.17 1.57-2.52 9.158 0 11.626.3.297.59.614.87.946v16.468c-1.04.38-2.53-1.637-3.86.33l-.1.147c-.54.885-1.24 1.583-1.96 2.038-.46-1.132-.39-2.437.61-3.905l.13-.185c2.74-3.774-3.13-5.632-1.21-9.287l.11-.201c2.22-3.732-2.13-9.362 2.51-14.168l.22-.225c1.24-1.204 1.83-2.582 2.1-3.984.13.122.27.232.44.33z" fill="#3C1F86"/><path d="M1079.24 243.49l-4.31 2.351v41.589c-.39-.088-.84-.252-1.38-.512l-.42-.214c-2.89-1.503-5.95-4.114-3.51-7.689l.13-.177c2.74-3.774-3.13-5.632-1.21-9.287l.11-.201c2.22-3.732-2.13-9.362 2.51-14.168l.22-.225c5-4.855-.61-12.543 5.22-13.159 1.62-.171 2.35.539 2.64 1.692z" fill="#733DFF" stroke="#D0D4FF" stroke-width=".5"/><path d="M1161.97 508.628c-11.07 0-20.05-5.213-20.05-11.644 0-6.43 8.98-11.643 20.05-11.643s20.04 5.213 20.04 11.643c0 6.431-8.97 11.644-20.04 11.644zm-15.89-137.397c-11.07 0-20.04-5.214-20.04-11.644 0-6.431 8.97-11.644 20.04-11.644 11.07 0 20.05 5.213 20.05 11.644 0 6.43-8.98 11.644-20.05 11.644z" fill="#000" fill-opacity=".13"/><path d="M1124.5 239.826s3.51-.498 3.74-3.608c.22-3.11 0-9.324 0-9.324l8.16 4.474s-.08 3.555.43 5.207c.09.295 1.43.112 2.64.287 1.35.195 2.58.754 2.79 1.246.31.721-2.79 2.376-2.79 2.376l-1.58 5.646-5.27-.32-8.12-5.984z" fill="#FFAF8A"/><path d="M1134.05 236.618c3.3.025 4.16-3.388 4.16-3.388l-10.51-2.011s-.24 7.212 0 7.607c.24.4 1.66-4.928 1.86-4.714 1.57 1.67 2.82 2.493 4.49 2.506z" fill="#000" fill-opacity=".175"/><path d="M1141.74 220.324s.57 15.609 1.75 16.576c1.18.967-6.83.606-7.37-2.395-.8-3.496 3.84-12.935 3.84-12.935l1.78-1.246z" fill="#0D134E"/><path d="M1135.87 235.879c3.87-.244 4.48-14.668 4.48-14.668l-6.35-6.173-5.96 5.161-.97 9.07s4.04 6.909 8.8 6.61z" fill="#FFAF8A"/><path fill-rule="evenodd" clip-rule="evenodd" d="M1141.32 236.97l-4.49-.336c.69 1.083.2 2.503-1.81 2.947-2.01.444-6.77-.19-7.14-1.827l-.02.005.19-.46-1.18.41-9.05 4.844c-.82.441-1.34 1.307-1.37 2.26l-.54 23.474c-.01.628.11 1.252.35 1.829.93 2.214 3.43 3.236 5.58 2.283l2.78-1.225-2.2 13.329-.01.075c-.01.115 0 .227.03.33-.83 3.308-1.25 7.02-1.25 11.136v.231c.03 4.477.77 9.175 2.22 17.197l1.45 7.989c-.79 16.844.62 26.874 1.03 27.885.2.495.46.609.67.703.22.098.39.174.4.633.03 1.526.01 3.68-.08 6.46l-.05 1.45 11.49 5.73-.51-1.891c-1.88-2.588-3.32-4.531-4.33-5.829l-.47-.596c-.61-.767-.82-2.204-.95-4.456v-1.237c0-.12.11-.249.24-.406.2-.227.44-.512.46-.911.04-.631.07-1.437.11-2.42.15-3.804.41-10.258 1.45-19.446l.7-6.12 1.81-22.908c1.07 2.932 2.67 8.184 4 12.571.84 2.745 1.57 5.151 2 6.437l.54 1.612c-.17 7.59 3.01 20.469 4.44 25.483.22.773.75 1.122 1.13 1.371.23.157.41.273.41.431l.74 6.125 8.33 4.683 1.86-1.009s-2.71-1.903-3.94-3.208c-1.23-1.304-2.21-3.321-2.21-3.321s.24-2.382.23-3.599c0-.334.19-.509.39-.69.21-.191.42-.388.42-.783-.05-5.775-1.77-26.363-1.77-26.363 0-.001-.03-.185-.1-.528-.85-4.388-6.76-34.693-6.76-36.239l-.53-16.581 2.18-4.923 1.31 3.654c.11.292.26.563.45.803a2.674 2.674 0 003.83.392l16.77-14.088c.24-.204.38-.511.38-.833-.04-1.747-.27-2.855-.7-3.324-.38-.422-.96-.836-1.74-1.242a1.002 1.002 0 00-1.02.055l-13.59 9.061-5.86-14.785a2.564 2.564 0 00-1.93-1.594c-2.24-.399-3.83-.633-4.77-.7zm-18.02 26.732l.06-7.192 1.83 6.263-1.89.929z" fill="#380085"/><path d="M1137.01 298.602l-.16-1.976.83 1.758c4.35 9.307 6.52 15.04 6.52 17.199 0 1.225-.27 2.713-.82 4.464-.01-.457-.02-.899-.01-1.325l-.66-1.991c-1.18-3.592-4-13.32-5.7-18.129z" fill="#000" fill-opacity=".275"/><path d="M1146.05 265.675l.14 4.484-.76.402c-.16.082-.33.124-.51.124-.61 0-1.11-.509-1.11-1.137 0-1.113.44-2.174 1.22-2.945l.15-.141.87-.787zm-7.23-28.892l2.5.187c.51.036 1.21.121 2.1.255l.06.368c.19 1.213.16 1.661.1 1.932-.21.843-3.26 1.972-3.52 1.424l-.03-.065c-.15-.435-.75-2.614-1.21-4.101z" fill="#733DFF"/><path d="M1136.83 236.634l4.49.336c.54.038 1.28.129 2.22.274.17.332.26.681.26 1.04 0 2.453-4.15 4.472-7.73 4.472-1.68 0-3.21-.436-4.36-1.152l-2.97 1.321v-4.205c.36.215.82.396 1.33.542l.26.07.29.07.31.065.08.016c.19.037.39.069.58.097l.2.027c.2.026.41.048.61.065l.37.027-.07-.005a12.414 12.414 0 001.22.016l.28-.016.18-.015c.23-.023.45-.055.64-.098 2.01-.444 2.5-1.864 1.81-2.947z" fill="#000" fill-opacity=".275"/><path d="M1126.52 239.955l.22.38c1.21 2.168.95 2.346.95 2.728 0 .87-3.13 2.723-3.58 2.256l-.02-.033c-.16-.209.04-.475-1.6-2.728-.3-.403-.8-.965-1.52-1.687l4.55-2.441.29.41c.31.454.55.826.71 1.115z" fill="#733DFF"/><path d="M1138.53 276.5l.36-.009-.46-18.844-.21.038c-2.23.414-4.93.132-5.97-1.175-1.06-1.34-4.53-9.641-5.96-13.037l-.35.095c1.49 3.644 4.93 11.786 6.03 13.176 1.1 1.38 3.86 1.712 6.11 1.342l.45 18.414zm2.97-36.082c.57 5.39 1.95 9.179 1.39 11.227-.56 2.03-2.18 3.34-4.46 4.865l.2.31c2.34-1.571 4.03-2.951 4.61-5.075.57-2.106-.81-5.932-1.38-11.367l-.36.04z" fill="#733DFF"/><path d="M1124.26 272.902s10.79 3.939 14.63 3.08c5.52-1.234 7.28-4.429 7.28-4.429v2.608s-1.77 3.392-7.38 4.402c-4.04.728-14.87-3.539-14.87-3.539l.34-2.122zm2.78 77.824s.05 4.938-.28 6.192c-.34 1.254-.3 2.224.16 3.274.46 1.05 1.58 1.059 2.38 1.695.79.636 3.1 3.863 4.47 3.978 1.36.115 3.5.119 4.62-.354 1.11-.473 2.25-1.466 1.73-2.509-.51-1.044-5.3-5.112-6.08-5.952-.78-.841-1.43-3.71-1.67-5.482-.24-1.772-.22-1.367-.22-1.367l-5.11.525z" fill="#733DFF"/><path d="M1132.21 350.157s.09.931.16 1.411c.24 1.772.89 4.641 1.67 5.481.78.841 5.57 4.909 6.08 5.953.09.177.13.354.13.526l-.69-.358c-4.14-2.177-5.94-3.834-6.9-4.972-.94-1.111-1.39-7.909-1.39-7.909l.94-.132z" fill="#000" fill-opacity=".275"/><path d="M1149.02 345.824s.58 5.731.4 6.865c-.18 1.133-.41 3.313.97 4.001 1.38.688 3.3.687 4.19 1.459.88.772 1.09 2.797 3.64 3.417 2.55.621 4.73-.574 4.82-1.747.08-1.172-.15-1.733-1.94-3.339-1.79-1.607-4.7-3.614-5.72-5.317-1.01-1.703-1.02-5.485-1.02-5.485s-1.41.452-2.4.479c-.99.027-2.94-.333-2.94-.333z" fill="#733DFF"/><path d="M1152.86 345.719l1.5-.041c.01 2.521.34 4.35 1.02 5.485 1.02 1.703 3.93 3.71 5.72 5.317l.33.296c1.33 1.234 1.63 1.814 1.62 2.703l-.95-.583c-4.55-2.795-7.13-4.825-7.75-6.09-.66-1.358-1.16-3.72-1.49-7.087zm-6.15-98.85l.44.645c2.13 3.17 3.29 5.546 3.49 7.129.18 1.372-.5 3.408-2.03 6.108l-.42-1.18-.01.011c.33-1.619.49-3.032.49-4.239 0-1.934-.65-4.758-1.96-8.474z" fill="#000" fill-opacity=".275"/><path d="M1127.72 269.645s.38.662.31 1.041c-.35 1.703-3.41.488-3.41.488l3.1-1.529z" fill="#733DFF"/><path fill-rule="evenodd" clip-rule="evenodd" d="M1144.2 263.315l-1.48-16.446-15.69 13.237-3.6-3.34 1.69 5.801 6.77-2.797 2.23-.723 1.32 4.655-.22 2.116-10.61 5.384-.73 4.427 20.32-12.314zm-20.84-6.619l-.06-.05.05.238.01-.188z" fill="#000" fill-opacity=".275"/><path d="M1131.98 248.122a.456.456 0 00-.36.421l-.51 11.681 3.01-1.177 1.28 4.395-.17 2.376-2.8 1.296 9.74-3.054c.18-.056.31-.22.32-.409l.74-17.322a.448.448 0 00-.54-.46l-10.71 2.253z" fill="#733DFF"/><path d="M1142.91 246.354c.15.007.27.106.31.239l-.73 17.126a.358.358 0 01-.19.295l-.05.024-6.51 2.038.17-2.285-1.27-4.395-.37.143-.15-.492-2.47.967.49-11.198a.357.357 0 01.21-.307l.06-.019 10.42-2.13a.407.407 0 01.08-.006z" fill="#D6D9FB"/><path fill-rule="evenodd" clip-rule="evenodd" d="M1141.36 248.07c.01-.21.17-.383.38-.415l.28-.044c.28-.045.54.186.52.474l-.11 1.687a.455.455 0 01-.38.415l-.28.044a.448.448 0 01-.52-.474l.11-1.687z" fill="#ABBBD9"/><path d="M1141.19 248.07c.01-.21.17-.383.38-.415l.28-.044c.28-.045.54.186.52.474l-.11 1.687a.455.455 0 01-.38.415l-.28.044a.448.448 0 01-.52-.474l.11-1.687z" fill="#733DFF"/><path fill-rule="evenodd" clip-rule="evenodd" d="M1141.89 248.828c.19 0 .34-.167.34-.373 0-.205-.15-.372-.34-.372-.18 0-.34.167-.34.372 0 .206.16.373.34.373zm0 1.024c.19 0 .34-.167.34-.372 0-.206-.15-.373-.34-.373-.18 0-.34.167-.34.373 0 .205.16.372.34.372z" fill="#000"/><path opacity=".212" fill-rule="evenodd" clip-rule="evenodd" d="M1133.89 259.72l2.46-3.177c.08-.106.15-.216.22-.332.23-.404.79-1.394.96-1.703.56-.994 1.81-1.903 2.09-1.639.28.264-.06 1.079-.51 2.014-.26.538-.01 1.237-.01 1.237l2.57-.848c.3-.101.61.144.58.466l-.37 4.014a2.742 2.742 0 01-1.78 2.339l-1.54.563-2.64 1.137-.09-.311-2.73-3.432.79-.328z" fill="url(#paint1_linear)"/><path d="M1169.58 248.239a2.477 2.477 0 01-1.22-2.493l.51-3.541c.09-.622.37-1.2.81-1.653l1.18-1.231a.49.49 0 01.67-.034c.16.139.22.368.13.566l-.47 1.101-.28 1.616 2.43-1.823c1.85-1.389 4.5-.067 4.5 2.248 0 .434-.19.847-.52 1.134l-4.25 3.76a3.01 3.01 0 01-3.49.35z" fill="#FFAF8A"/><path d="M1135.39 221.847s1.63 3.289 2.72 3.289c1.1 0 2.4 2.834 2.4 2.834l2.51-5.761-8.75-5.354 1.12 4.992z" fill="#000" fill-opacity=".175"/><path d="M1135.8 221.393s.05 2.524-1.8 3.476c-1.86.952-3.29 3.538-2.71 6.244.59 2.706-2.77 12.778-2.77 12.778s-.62-3.563-1.94-4.367c-1.33-.804-2.37-3.592-2.6-5.575-.43-3.717.74-14.37 2.87-16.618 2.13-2.248 4.44-1.722 4.44-1.722s4.09-1.292 6.86 0c2.77 1.291 3.45 4.598 4.66 5.489 1.21.89-1.38 4.92-3.09 4.396s-3.92-4.101-3.92-4.101z" fill="#0D134E"/><path d="M1134.91 259.021l2.46-3.177c.08-.105.16-.215.22-.331.23-.404.79-1.394.96-1.704.56-.993 1.81-1.902 2.09-1.638.28.264-.06 1.078-.51 2.014-.26.537-.01 1.237-.01 1.237l2.57-.848c.3-.101.61.143.58.465l-.36 4.015a2.769 2.769 0 01-1.79 2.339l-1.54.563-3.03 1.232-1.7.707-.73-4.545.79-.329z" fill="#FFAF8A"/><path d="M873.795 318.277l2.814-1.993-3.75-2.143-.096-.055-.064-.091a.845.845 0 00-1.07-.278l-25.926 13.029a.902.902 0 00-.488.829l1.896 84.749c.008.383.216.725.533.903l23.209 12.97a.83.83 0 00.84-.015l33.238-20.17a.907.907 0 00.428-.776v-6.684l-20.436-13.324-.184-.12-.036-.216-11.112-66.124-.052-.309.256-.182z" fill="#F8FCFF" stroke="#E9EBFF"/><path d="M889.281 381.316l-11.064-63.682a1.8 1.8 0 00-2.582-1.3l-25.154 12.64a1.799 1.799 0 00-.991 1.654l1.829 71.957 19.638 15.413c.58.455 1.378.51 2.015.141l31.678-18.374a1.8 1.8 0 00.365-2.834l-15.734-15.615z" fill="#D6D9FB"/><path d="M887.424 366.856l-.045-.042a.668.668 0 00-.895.023l-.063.069-13.907 17.218-20.625.936.684 23.751-.279.345a.714.714 0 00-.006.885l.06.067 28.718 28.098a1.337 1.337 0 001.515.255l.106-.057 36.788-21.846a1.42 1.42 0 00.537-1.833l-3.107-32.616-18.509.84-10.893-15.997a.72.72 0 00-.079-.096l-.045-.042.045.042z" fill="#5C66C0"/><path d="M883.334 401.492l-1.53 37.436-30.485-22.899-.258-31.202 32.273 16.665z" fill="#4A529E"/><path d="M886.107 364.237a.899.899 0 01.9-.006l28.862 16.396c1.208.687 1.215 2.426.012 3.123l-31.656 18.326a1.8 1.8 0 01-1.77.02l-30.006-16.506a.9.9 0 01-.022-1.564l33.68-19.789z" fill="#D6D9FB"/><path d="M882.318 366.648l-7.989-41.537a1.26 1.26 0 00-1.803-.888l-17.619 8.867c-.457.231-.73.714-.69 1.225l3.716 47.283 24.385 12.855 23.541-13.244-23.541-14.561z" fill="#0D134E"/><path d="M907.904 309.533s5.328 5.794 5.89 8.106c.562 2.313.764 9.899 0 13.719-.764 3.821-5.467 8.267-5.467 16.221 0 7.953 2.772 34.466 2.772 36.489 0 2.024-2.404 17.817-1.843 19.444.561 1.627-.506 4.989-.929 6.606-.423 1.616-.915 9.735.929 11.322 1.843 1.587 5.242 2.169 5.242-1.496 0-3.666-.398-6.442 0-8.134.398-1.692-.398-5.067 0-5.89.398-.824 1.525-1.616 1.948-3.503.423-1.887 4.722-18.398 4.722-20.878 0-2.48 2.388-23.003 2.388-23.003s.163 9.501.74 11.874c.577 2.372.721 3.8.649 4.69-.072.89-1.804 5.485-1.804 11.031 0 3.925-.689 7.436-.663 9.588.01.888.541 1.697.663 1.967.415.925-1.156 6.536 0 7.789 1.155 1.254 3.119-.387 5.163 1.254 2.045 1.64 4.39 3.82 6.585 3.389 2.195-.432 2.496-3.256.145-5.478-2.35-2.223-6.73-5.063-6.73-5.888 0-.825 1.171-1.332 1.171-3.033 0-1.702 4.393-16.044 4.393-21.863 0-5.819.073-26.427 0-29.83-.072-3.402-2.531-9.362-2.741-11.249-.335-3.013 2.741-10.719 2.741-12.345v-1.309s1.34 5.452 2.233 7.261c.894 1.809 9.55 13.068 9.55 13.068l3.291-3.108s-6.179-14.016-6.533-14.959c-.354-.944-6.364-20.697-8.513-21.682-2.483-1.137-5.61-2.078-14.009 1.643-8.632 3.824-11.983 8.187-11.983 8.187z" fill="#380085"/><path d="M933.896 310.986l8.077 23.646-1.475-1.964c-2.481-3.323-3.935-5.397-4.364-6.222l-.032-.062c-.576-1.166-1.29-3.467-2.144-6.901l-.089-.36.027-8.137z" fill="#000" fill-opacity=".275"/><path d="M931.927 335.863l.012-.009.464 1.498c.159.519.32 1.052.473 1.589a23.282 23.282 0 01-10.926 2.676c-4.154 0-8.06-.849-11.716-2.546a43.09 43.09 0 011.299-2.631c3.434 1.763 6.906 2.575 10.417 2.438 3.501-.137 6.827-1.142 9.977-3.015z" fill="#733DFF"/><path d="M914.499 314.834c3.862 4.7 7.344 9.825 10.447 15.376l1.559 2.78c2.292 4.075 4.753 8.397 7.384 12.968l.007 1.64-22.034-11.774.514-.969c.66-1.261 1.2-2.404 1.419-3.496.763-3.821.561-11.407 0-13.72a3.53 3.53 0 00-.074-.256l.778-2.549z" fill="#000" fill-opacity=".275"/><path d="M911.567 405.655c.652.248 1.673.259 3.06.034a2.43 2.43 0 00-.129.231c-.398.823.398 4.198 0 5.89-.398 1.692 0 4.468 0 8.134 0 3.665-3.399 3.083-5.242 1.496-1.844-1.587-1.352-9.706-.929-11.322l.108-.4c.407-1.494 1.117-3.941.957-5.543.974.807 1.699 1.3 2.175 1.48zm14.499-6.972c.696.093 1.45.051 2.261-.125a.836.836 0 00-.022.194c0 .825 4.379 3.665 6.73 5.888 2.351 2.222 2.05 5.046-.145 5.478-2.195.431-4.54-1.749-6.585-3.389-2.045-1.641-4.008 0-5.164-1.254-1.108-1.202.291-6.41.042-7.652a9.86 9.86 0 002.883.86zm5.061-100.065c1.031 2.198 1.162 2.866 1.162 3.239 0 .875-2.71 2.74-3.098 2.271-.183-.221-2.439-4.327-2.955-4.939 1.737-.444 3.465-.672 4.891-.571z" fill="#733DFF"/><path d="M919.887 301.346c5.118-2.268 8.279-2.804 10.529-2.62.444.695.691 1.466.691 2.277 0 3.086-3.576 5.589-7.988 5.589-3.23 0-6.012-1.342-7.27-3.272l.245-.132a56.928 56.928 0 013.793-1.842z" fill="#000" fill-opacity=".275"/><path d="M924.183 304.571c1.841-.557 1.735-2.198 1.735-2.198v-1.596s1.86 1.244 3.576.699 2.431-3.773 3.085-7.086c.655-3.314 0-7.287 0-7.287l-7.984-1.897-6.589 3.576s2.107 9.077 2.107 10.886c0 1.808-.342 2.188 0 2.705.342.518 2.229 2.756 4.07 2.198z" fill="#FFAF8A"/><path d="M924.595 285.206l7.984 1.897c.113.683.196 1.351.251 2.005l-1.415.722c-3.388 1.742-5.663 2.994-6.825 3.756-2.055 1.347-.64 6.049-1.347 7.653-.313.709-.899 1.561-1.758 2.558-.695-.539-1.209-1.177-1.372-1.424-.329-.497-.025-.867-.001-2.503l.001-.202c0-1.105-.59-4.246-1.771-9.423l-.336-1.463 6.589-3.576zm.562 15.05c.098 0 .351.231.76.692l.001 1.426c.067 1.046-.459 1.762-1.579 2.147l-.188.06.328-1.641c.367-1.79.593-2.684.678-2.684z" fill="#000" fill-opacity=".175"/><path d="M928.956 288.56c.795-.445 1.707 1.813 3.95 1.813 2.243 0 3.939-3.06 2.92-4.422-1.02-1.361-2.334-1.144-3.284-2.648-.949-1.504-1.244-3.002-3.049-3.298-1.805-.295-3.596.96-4.899.96-1.304 0-2.584-1.69-4.899-.484-2.316 1.206-1.945 7.095-3.249 8.079-1.305.983-5.113 4.207-3.793 6.648 1.32 2.441 4.435 1.411 3.141 4.231-1.295 2.82-.643 5.246-.643 5.246l4.544-2.734s2.306.734 2.306-.815c0-1.55-1.309-2.96 0-4.184 1.31-1.223-.716-2.796 0-4.055.717-1.26 4.743-.345 5.687-1.231.944-.886.472-2.662 1.268-3.106z" fill="#380085"/><path d="M915.502 303.384l.78-.509.459.638c.525.738.914 1.32 1.169 1.746l1.121 1.94c.194.357.082.235.082.471 0 .875-3.151 2.739-3.602 2.27l-.046-.041c-.101-.072-.006.17-.947-1.09l-.602-.818c-.357-.489-1.028-1.213-2.011-2.171a144.174 144.174 0 013.597-2.436z" fill="#733DFF"/><path d="M927.86 323.061c0 1.919-.411 7.109-1.233 15.56l.361.037c.823-8.466 1.235-13.66 1.235-15.597 0-1.95-.567-4.761-1.699-8.439l-.046-.149-.15.02c-3.219.421-5.345-.039-6.389-1.351-.545-.685-2.398-3.438-2.655-3.788a6.44 6.44 0 01-.272-.391.79.79 0 01-.044-.078l.002.005c.024.06.025.117-.083.182l-.183-.322c-.128.077-.118.166-.071.28.016.036.039.079.073.133.06.098.156.235.288.415.26.354 2.116 3.111 2.664 3.8 1.125 1.413 3.317 1.905 6.565 1.504 1.092 3.572 1.637 6.301 1.637 8.179z" fill="#733DFF"/><path d="M930.523 303.172c.563 1.934.563 3.928 0 5.984-.56 2.043-1.981 3.831-4.272 5.366l.199.312c2.359-1.581 3.836-3.44 4.422-5.577.582-2.123.582-4.189-.001-6.192l-.348.107z" fill="#733DFF"/><path d="M931.796 342.114s3.947 7.414-.907 4.102l-.679-.465s-15.933-10.849-17.014-12.974c-1.08-2.124-7.575-21.552-5.292-23.245 2.284-1.692 6.731 1.057 7.377 3.721.647 2.664 3.489 13.351 4.559 13.964 1.069.613 11.956 14.897 11.956 14.897zm208.364 77.427s-3.07-1.135-3.07-2.995.23-15.514.92-17.099c.69-1.585 5.43-19.63 7.69-22.163 2.25-2.533 12.02-5.152 16.52-5.152s15.85 4.291 18.33 6.618c2.48 2.326-4.75 7.573-4.75 12.474 0 4.9-1.55 15.277-.77 19.015.77 3.739 1.45 14.691 1.45 14.691s-.52 24.502 0 35.259c.09 1.797.62 4.323.78 6.175.28 3.227 1.15 10.258.94 19.785-.03 1.376-.94 3.67-.94 3.67s-2.17.715-3.23.567c-1.06-.148-2.95-1.431-2.95-1.431s-.93-1.868-1.15-2.806c-2.58-11.005-3.4-17.233-3.4-18.455v-6.516l-4.69-27.721s-3.35 19.27-5.14 23.006c-.59 1.245.9 1.629.68 6.175-.13 2.637-1.25 12.516-2.13 17.639-.23 1.305-1.02 3.488-1.02 3.488s-2.29 1.464-3.4 1.464c-1.11 0-2.98-1.464-2.98-1.464s-.83-1.342-.83-3.488v-23.814c0-4.434 2.68-45.857 2.68-50.499 0-4.643-.91-14.74-.91-14.74l-3.09 9.509s-1.05 18.254-2.15 18.254c-1.11 0-3.39.554-3.39.554z" fill="#380085"/><path d="M1192.41 458.18a2.237 2.237 0 001.1-1.938v-22.865c0-.787-.41-1.517-1.08-1.925l-4.74-2.884a2.252 2.252 0 00-2.33-.007l-19.7 11.826a2.248 2.248 0 00-1.09 1.932v22.922c0 .802.42 1.544 1.12 1.947l4.68 2.727c.71.41 1.58.407 2.29-.01l19.75-11.725z" fill="#F8FCFF" stroke="#E9EBFF" stroke-width=".614"/><path d="M1170.52 444.363l-5.97-3.393c-.17.281-.27.597-.29.929v23.656c0 .678.34 1.307.89 1.671l.09.058 5.32 3.091c.27.16.57.246.88.257l.08-24.524c0-.725-.38-1.394-1-1.745z" fill="#5C66C0"/><path d="M1185.65 428.035l-.11.057-20.32 12.202c-.28.168-.51.402-.68.676l5.7 3.148a2.57 2.57 0 002.54-.034l19.37-11.391c.12-.068.22-.16.3-.271a1.01 1.01 0 00-.14-1.338l-.06-.052-.35-.261-4.39-2.673a1.897 1.897 0 00-1.76-.113l-.1.05z" fill="#D0D4FF"/><path d="M1180.42 430.254c.42-.254.94-.255 1.35-.001l6.55 4.037a2.577 2.577 0 011.22 2.179v2.383l-12.95 7.021c-.44.242-.98.242-1.43-.001l-.01-.008a1.459 1.459 0 01-.77-1.292c0-.519-.28-.999-.72-1.264l-6.61-3.921a.34.34 0 00-.42.062l.35-.568c.21-.346.5-.637.84-.849l12.6-7.778z" fill="#380085"/><path d="M1181.4 429.729c.41-.238.92-.232 1.32.016l6.57 4.048a2.568 2.568 0 011.21 2.179v1.641c0 .459-.24.883-.64 1.111l-12.6 7.221c-.85.489-1.91-.127-1.91-1.111v-.139a2.56 2.56 0 00-1.26-2.201l-5.65-3.361a1.29 1.29 0 00-1.35.022l-.46.294.02-.106c.14-.723.59-1.35 1.23-1.721l13.52-7.893z" fill="#959FFA"/><path d="M1181.61 432.079l-.05.029s-10 5.745-10.15 6.061c-.12.226 1.55 1.284 2.5 1.865.4.241.89.24 1.29.007l9.66-5.648a.5.5 0 00.08-.799l-.03-.026-.17-.13-2.2-1.327a.934.934 0 00-.87-.057l-.06.025z" fill="#380085"/><path d="M1190.42 443.221l-14.32 8.143a.835.835 0 01-1.15-.339.878.878 0 01.33-1.182l14.32-8.143a.834.834 0 011.15.339c.22.42.08.949-.33 1.182z" fill="#FF623F"/><path d="M1182.93 433.646v-4.736c0-.987-1.07-1.603-1.92-1.107l-5.79 3.362a2.574 2.574 0 00-1.27 2.213v5.275" stroke="#733DFF" stroke-width="2.88" stroke-linecap="round"/><path d="M1190.16 435.372l-14.41 8.429a.352.352 0 01-.49-.137.38.38 0 01.13-.509l14.41-8.429a.352.352 0 01.49.138.38.38 0 01-.13.508z" fill="#D0D4FF"/><path d="M1152.21 376.079l1.01 2.093c1.5 3.108 4.59 5.075 7.97 5.075h.49c3.24 0 6.21-1.799 7.78-4.699l1.33-2.461-.31-.181-1.33 2.461c-1.51 2.782-4.37 4.507-7.47 4.507h-.49c-3.24 0-6.2-1.886-7.64-4.867l-1.01-2.093-.33.165z" fill="#733DFF"/><path d="M1149.08 387.897l-.28 3.382-.01-.055-3.09 9.509-.14 2.264c-.56 9.194-1.14 14.424-1.73 15.688h-.93l.53-10.746c.16-3.314.26-5.559.29-6.735l.02-.724c0-1.149 1.48-4.75 4.46-10.804l.88-1.779z" fill="#000" fill-opacity=".275"/><path d="M1140.8 416.119c2.94-.815 6.14 4.842 5.31 6.045-.83 1.204-1.21-1.918-2.58-1.918-1.38 0-.84 4.517-.84 5.279 0 .763 2.7 4.54 1.77 4.991-.93.452-3.66-4.284-3.66-4.991 0-.707.24 2.567.81 3.779.58 1.212-.03 1.959-.42 1.959s-1.74-3.598-2.06-5.139c-.06-.254.09 1.208.09 2.442 0 .392.37 1.601.37 1.95 0 .972-.54 1.304-.58 1.127-.07-.37-1.09-4.155-1.31-5.519-.38-2.26 0-4.445 0-5.192 0-1.685.17-3.998 3.1-4.813z" fill="#FFAF8A"/><path d="M1174.86 490.253c.85 0 1.65-.142 2.4-.426l.3.791c2.9 7.753 4.14 12.384 3.72 13.895-.65 2.342-3.25 3.225-5.53.814-2.28-2.411-2.32-4.077-2.8-6.167-.48-2.091-1.87-2.788-2.02-4.096l-.02-.195c-.07-.95-.02-2.89.16-5.82 1.1.803 2.36 1.204 3.79 1.204zm-20.56-6.696l-.07.208.26 1.498c.48 2.799.66 4.423.53 4.872-.06.216-.58.8-1.86 1.203-.86.272-2.5 1.257-3 2.105-1.23 2.102-3.01 3.313-4.46 3.885l-.25.094c-2.78.987-8.24 1.329-3.37-4.589l.16-.187c3.47-4.134 5.34-7.067 5.6-8.798.85.583 1.81.874 2.86.874 1.32 0 2.52-.388 3.6-1.165zm5.95-72.376c5.81.448 7.73.253 14.74-1.099a.85.85 0 00.04.158c.17.833.34 1.934.5 3.304-8.09 1.147-12.55 1.066-16.09.639-4.38-.528-9.91-3.233-9.91-3.233s.08-1.992.11-2.441c3.06 1.573 4.8 2.223 10.61 2.672zm-10.72-8.815l1.47.25c1.24.212 2.15 1.313 2.15 2.603 0 1.046-.83 1.894-1.85 1.894-.1 0-.2-.009-.3-.026l-1.31-.223v-.588c.01-.102.01-.206.01-.312l-.01-.44c-.01-.845-.07-1.897-.16-3.158zm25.29 5.834h-2.01c-1.2 0-2.18-1.001-2.18-2.236 0-1.191.91-2.164 2.05-2.232l.13-.004h2.13c-.1 1.654-.16 3.197-.12 4.472z" fill="#733DFF"/><path d="M1175.72 390.6l.08.516v.108c0 4.806-1.49 14.88-.82 18.792l.15.744c.46 2.514.89 6.957 1.3 13.327-1.84 1.456-5.14-9.271-4.98-12.596.16-3.326 2.93-10.473 4.2-20.384l.07-.507z" fill="#000" fill-opacity=".275"/><path d="M1180.35 422.723c-.9-.37-1.58 1.261-2.5 1.692-2.59 1.207-3.62 4.152-3.9 5.224-.14.552.02.979.02.979s2.07-1.329 2.96-1.329c.83 0 .82.696.57 1.587-.06.224-.76 1.076-1.07 1.172-.17.053-.37-.085-.58 0-.32.131-.63.498-.64.621-.03.24.28.817 1.22.958.6.09 1.06.09 1.65-.373.58-.449.96 1.422 2.27 0 .18-.202.97.188 1.59-.568.17-.213 1.03.356 1.13-.793.14-1.808-.08-2.731 0-3.469.19-1.873.27-4.463-2.72-5.701z" fill="#FFAF8A"/><path d="M1153.72 373.556l1.24 3.062c.47 1.149-.04 2.468-1.15 2.974-1.03.471-2.23.032-2.75-.981l-.08-.174-1.43-3.54a44.3 44.3 0 014.17-1.341zm20.16 1.682l-1.6 3.267c-.55 1.118-1.86 1.596-2.97 1.087l-.1-.044c-.98-.51-1.4-1.714-.97-2.739l.06-.123 1.44-2.945c1.39.449 2.81.961 4.14 1.497z" fill="#733DFF"/><path d="M1162.22 372.132c2.35 0 6.59 1.177 10.44 2.632l.01.071v.13c0 2.469-3.9 4.471-8.71 4.471-4.81 0-8.71-2.002-8.71-4.471 0-.719.33-1.398.91-2 2.3-.517 4.5-.833 6.06-.833z" fill="#000" fill-opacity=".275"/><path d="M1175.38 388.894s3.44 12.599 3.44 13.575c0 .976-1.33 19.569-1.46 21.395-.14 1.826 3.25 1.636 5.06 1.636 1.81 0 4.03-18.509 4.78-21.143.75-2.633-6.13-24.826-6.13-24.826l-5.69 9.363z" fill="#380085"/><path d="M1161.32 383.041c-.88 8.674-1.32 14.967-1.32 18.883v11.589h.36v-11.589c0-3.9.44-10.183 1.32-18.844l-.36-.039z" fill="#733DFF"/><path d="M1160.32 375.674c1.7.242 4.14-1.083 5.25-1.761a.946.946 0 00.41-1.061c-.27-1.088-.71-3.246-.33-4.713.52-2.034 1.48-6.659 1.48-6.659s.15-7.666-3.4-8.366c-3.55-.7-8.99.178-9.85 3.746-.86 3.569.66 11.47 2.2 12.782 1.19 1.014 1.12 2.944 1.02 3.768-.03.25.02.507.19.694.42.47 1.4 1.338 3.03 1.57z" fill="#FFAF8A"/><path d="M1163.43 368.038l-.27.543c-1.49 2.899-2.74 4.349-3.76 4.349-.64 0-1.37-.141-2.2-.422.02-.785-.12-1.453-.42-2.006 1.06.639 1.93.844 2.62.617.98-.321 2.32-1.348 4.03-3.081z" fill="#000" fill-opacity=".175"/><path d="M1153.42 360.282c2.72-.293 5.97-3.799 6.69-3.358.71.44.32 2.602 1.94 2.428 1.61-.174 2.29-1.073 2.73 0 .44 1.072.53 4.921 1.1 4.859.57-.061.46-4.677.97-4.732.51-.055 1.07.567 1.07.567s0-2.594-.21-4.64c-.21-2.047-1.1-3.259-3.03-4.121-1.93-.862-6.43.694-6.43.694s-1.67-1.441-3.13-1.283c-1.47.158-2.9 3.551-3.47 3.969-.57.419-2.6.289-2.82.797-.23.507 1.86 5.114 4.59 4.82z" fill="#380085"/><path d="M1166.62 359.622s1.34-.358 1.61.331c.26.688-.22 3.723-.55 4.009-.33.287-1.37 0-1.37 0s-.08-1.801 0-2.532c.07-.731.31-1.808.31-1.808z" fill="#FFAF8A"/><path fill-rule="evenodd" clip-rule="evenodd" d="M1036.47 513.984c0 .107-.06.206-.15.26l-6.36 3.778a.302.302 0 01-.31 0l-6.38-3.778a.298.298 0 01-.14-.26v-4.787c0-.108.05-.208.15-.262l6.37-3.671a.298.298 0 01.3 0l6.37 3.671a.31.31 0 01.15.262v4.787z" fill="url(#paint2_linear)"/><path d="M1030.06 511.348a.438.438 0 01-.45 0l-3.29-1.937a.179.179 0 010-.301l3.28-1.943a.451.451 0 01.46 0l3.28 1.943a.17.17 0 010 .301l-3.28 1.937z" fill="#31347A"/><path d="M1029.68 519.408l.15 27.42" stroke="#5C66C0" stroke-width="7" stroke-linecap="round"/><path d="M1029.69 512.89l-6.56-3.781v20.434c0 .068.03.132.07.176l.04.029 6.7 3.802c.06.032.13.038.19.016l.04-.02 6.19-3.796c.05-.034.09-.09.11-.153V509.16a.292.292 0 00-.02-.095l-6.47 3.824a.29.29 0 01-.29.001l-6.54-3.828 6.54 3.828z" fill="#F8FCFF"/><path d="M1029.69 512.89l-6.56-3.781v20.434c0 .068.03.132.07.176l.05.029 6.69 3.802c.04.019.08.029.11.029l-.24-20.651a.295.295 0 01-.12-.038l-6.54-3.828 6.54 3.828z" fill="#D6D9FB"/><path fill-rule="evenodd" clip-rule="evenodd" d="M1113.62 465.856a.3.3 0 01-.14.26l-6.37 3.778a.302.302 0 01-.31 0l-6.37-3.778a.308.308 0 01-.15-.26v-4.787a.31.31 0 01.15-.262l6.37-3.671a.298.298 0 01.3 0l6.37 3.671c.1.054.15.154.15.262v4.787z" fill="url(#paint3_linear)"/><path d="M1107.22 463.22a.456.456 0 01-.46 0l-3.28-1.937a.17.17 0 010-.301l3.28-1.943a.433.433 0 01.45 0l3.29 1.944c.11.067.11.233 0 .3l-3.28 1.937z" fill="#31347A"/><path d="M1106.84 471.28l.11 27.562" stroke="#5C66C0" stroke-width="7" stroke-linecap="round"/><path d="M1106.85 464.762l-6.56-3.781-.01.051v20.386c0 .067.03.13.08.174l.04.029 6.44 3.822c.06.033.13.04.19.02l.04-.02 6.44-3.822c.06-.034.1-.09.11-.154v-20.435c0-.034 0-.066-.01-.096l-6.48 3.825a.273.273 0 01-.28.001l-6.55-3.828 6.55 3.828z" fill="#F8FCFF"/><path d="M1106.84 464.762l-6.55-3.781-.01.051v20.386c0 .067.03.13.08.174l.04.029 6.44 3.822c.04.022.08.033.13.031l-.01-20.675a.37.37 0 01-.12-.037l-6.54-3.828 6.54 3.828z" fill="#D6D9FB"/><path fill-rule="evenodd" clip-rule="evenodd" d="M889.728 427.043a.302.302 0 01-.149.26l-6.365 3.778a.3.3 0 01-.309 0l-6.373-3.778a.3.3 0 01-.148-.26v-4.787c0-.108.058-.208.151-.262l6.37-3.671a.307.307 0 01.302 0l6.369 3.671a.302.302 0 01.152.262v4.787z" fill="url(#paint4_linear)"/><path d="M883.319 424.407a.445.445 0 01-.454 0l-3.284-1.937a.174.174 0 010-.301l3.282-1.943a.442.442 0 01.455 0l3.282 1.944a.174.174 0 010 .3l-3.281 1.937z" fill="#31347A"/><path d="M882.939 432.467v27.966" stroke="#5C66C0" stroke-width="7" stroke-linecap="round"/><path d="M882.949 425.949l-6.559-3.78-.005.05v20.386c0 .067.028.13.075.174l.039.029 6.447 3.822c.056.034.124.04.185.02l.044-.02 6.439-3.822a.23.23 0 00.109-.154l.005-.049v-20.386a.234.234 0 00-.019-.095l-6.476 3.824a.278.278 0 01-.284.001l-6.544-3.828 6.544 3.828z" fill="#F8FCFF"/><path d="M882.948 425.949l-6.559-3.78-.005.05v20.386c0 .067.028.13.075.174l.039.029 6.447 3.822a.219.219 0 00.124.031l-.01-20.675a.286.286 0 01-.111-.037l-6.543-3.828 6.543 3.828z" fill="#D6D9FB"/><path fill-rule="evenodd" clip-rule="evenodd" d="M953.304 380.468c0 .106.056.205.148.26l6.366 3.778a.303.303 0 00.308 0l6.373-3.778a.303.303 0 00.148-.26v-4.787a.302.302 0 00-.151-.262l-6.369-3.671a.302.302 0 00-.302 0l-6.37 3.671a.302.302 0 00-.151.262v4.787z" fill="url(#paint5_linear)"/><path d="M959.713 377.832c.14.083.314.083.454 0l3.284-1.937a.174.174 0 000-.301l-3.281-1.944a.449.449 0 00-.456 0l-3.282 1.944a.175.175 0 000 .301l3.281 1.937z" fill="#31347A"/><path d="M960.094 385.892l-.757 36.561" stroke="#5C66C0" stroke-width="7" stroke-linecap="round"/><path d="M960.083 379.374l6.559-3.781.005.051v20.386c0 .067-.027.13-.075.174l-.039.029-6.447 3.822a.221.221 0 01-.184.02l-.045-.02-6.439-3.822a.233.233 0 01-.109-.154l-.005-.049v-20.386c0-.034.007-.066.019-.096l6.476 3.825a.28.28 0 00.284.001l6.544-3.828-6.544 3.828z" fill="#F8FCFF"/><path d="M960.084 379.374l6.559-3.781.005.051v20.386c0 .067-.028.13-.075.174l-.039.029-6.447 3.822a.219.219 0 01-.124.031l.01-20.675a.303.303 0 00.111-.037l6.543-3.828-6.543 3.828z" fill="#D6D9FB"/><path d="M871.837 408.079c-4.927 3.007-4.9 10.172.05 13.141l148.273 88.949a15.36 15.36 0 0015.74.037l81.34-48.268c4.98-2.956 5.02-10.151.08-13.164l-148.255-90.283a15.36 15.36 0 00-15.991.008l-81.237 49.58z" fill="#5C66C0"/><path d="M872.406 416.203c-4.693-2.779-4.697-9.569-.007-12.353l81.092-48.132a14.86 14.86 0 0115.157-.007l148.162 87.749c4.69 2.781 4.69 9.578-.01 12.357l-81.21 48.046a14.867 14.867 0 01-15.14-.003l-148.044-87.657z" fill="#F8FCFF" stroke="#E9EBFF"/><path d="M1044.48 421.515c.31-.183.5-.513.5-.871v-17.723c0-.362-.2-.696-.51-.877l-31.85-18.355c-.31-.18-.7-.18-1.01 0l-.25-.432.25.432-31.847 18.355a1.013 1.013 0 00-.506.877v17.723c0 .357.188.688.496.871l31.867 18.891c.32.189.71.189 1.03 0l31.83-18.891z" fill="#F8FCFF" stroke="#D0D4FE"/><path d="M1011.32 421.816l-32.063-18.761v17.773c0 .22.103.421.266.545l.071.047 32.226 19.104c.17.103.38.115.56.037l.08-.044 32.19-19.103.25.43-.25-.43a.696.696 0 00.32-.499v-2.871c-.01-1.74-.01-4.061-.02-6.387-.01-2.325-.02-4.655-.03-6.413-.01-.872-.01-1.603-.02-2.121l-31.65 18.689a1.9 1.9 0 01-1.93.004z" fill="#F8FCFF" stroke="url(#paint6_linear)"/><path d="M1011.58 421.385l-32.72-19.14c-.05.113-.083.235-.097.361l-.007.128v18.094c0 .381.18.736.479.955l.093.061 32.232 19.11c.19.112.4.164.61.157l-.03-19.541a1.36 1.36 0 01-.56-.185l-32.72-19.14 32.72 19.14z" fill="#D6D9FB"/><path fill-rule="evenodd" clip-rule="evenodd" d="M999.714 418.725a.231.231 0 00-.348.2v1.924c0 .165.087.317.23.4l7.934 4.617c.15.09.34-.021.34-.199v-1.91a.447.447 0 00-.23-.4l-7.926-4.632z" fill="#fff"/><path d="M1000 418.893l7.7 4.495c.09.053.15.144.17.248v1.743l-7.69-4.459a.337.337 0 01-.17-.249l-.01-.064v-1.714z" fill="#959FFA"/><path fill-rule="evenodd" clip-rule="evenodd" d="M999.714 423.144a.231.231 0 00-.348.2v1.924c0 .165.087.317.23.4l7.934 4.617c.15.09.34-.021.34-.2v-1.91a.447.447 0 00-.23-.399l-7.926-4.632z" fill="#fff"/><path d="M1000 423.312l7.7 4.494c.09.054.15.145.17.249v1.743l-7.69-4.46a.336.336 0 01-.17-.249l-.01-.063v-1.714z" fill="#959FFA"/><path d="M975.078 440.715c.382-.22.849-.234 1.243-.035l6.745 3.4v1.025c0 .432-.213.835-.568 1.079l-12.76 8.751a1.307 1.307 0 01-1.384.06l-6.839-3.868a1.308 1.308 0 01-.664-1.139v-1.056l14.227-8.217z" fill="#733DFF"/><path d="M974.993 439.784c.426-.269.968-.27 1.394-.002l6.245 3.919a.815.815 0 01.028 1.364l-12.911 8.846a1.31 1.31 0 01-1.401.05l-7.045-4.124a.815.815 0 01-.023-1.394l13.713-8.659z" fill="#D6D9FB"/><path d="M965.388 451.348c.417 0 .756-.173.756-.388 0-.214-.339-.388-.756-.388-.418 0-.757.174-.757.388 0 .215.339.388.757.388z" fill="#733DFF"/><path d="M974.916 440.519a1.176 1.176 0 011.272 0l4.88 3.131a.816.816 0 01.03 1.354l-9.889 6.971a1.179 1.179 0 01-1.28.05l-5.578-3.313a.816.816 0 01-.024-1.388l10.589-6.805z" fill="#fff"/><path d="M1005.13 484.528l-24.446-14.498a1.6 1.6 0 00.793 1.403l23.653 14.013c.51.295 1.14.295 1.62 0l16.44-9.752c.49-.294.79-.831.79-1.403l-17.23 10.22c-.5.312-1.11.312-1.62.017z" fill="#733DFF"/><path d="M1023.98 474.356l-17.26 10.258c-.51.296-1.13.296-1.62 0l-24.489-14.552 18.066-10.728 25.303 15.022z" fill="#D6D9FB"/><path d="M1011.18 479.468l9.67-5.72-21.682-12.866-9.667 5.703 21.679 12.883zm-13.212-1.287l4.662-2.764-7.062-4.19-4.664 2.764 7.064 4.19z" fill="#733DFF"/><path d="M1023.98 474.326v-19.562c0-.537-.28-1.039-.72-1.299l-24.183-14.334c-.152-.087-.337.017-.337.208v20.03l25.24 14.957z" fill="#D6D9FB"/><path d="M999.743 458.727v-17.909l23.067 13.709v17.909l-23.067-13.709z" fill="#fff"/><path d="M1023.99 474.326c.43-.312.66-.814.66-1.35v-18.613c0-.536-.28-1.038-.74-1.298l-23.65-13.955a1.353 1.353 0 00-1.354 0l24.324 14.353c.46.277.75.762.75 1.299v19.564h.01zm-79.368-44.136l-24.451-14.498c0 .589.304 1.126.793 1.403l23.658 14.013a1.593 1.593 0 001.62 0l16.436-9.752c.49-.294.793-.831.793-1.403l-17.229 10.22a1.555 1.555 0 01-1.62.017z" fill="#733DFF"/><path d="M963.464 420.018l-17.255 10.258a1.592 1.592 0 01-1.622 0l-24.489-14.552 18.067-10.728 25.299 15.022z" fill="#D6D9FB"/><path d="M950.672 425.13l9.667-5.72-21.683-12.866-9.667 5.702 21.683 12.884zm-13.217-1.287l4.664-2.764-7.064-4.19-4.664 2.764 7.064 4.19z" fill="#733DFF"/><path d="M963.472 419.988v-19.563a1.52 1.52 0 00-.726-1.298l-24.182-14.334c-.151-.087-.337.017-.337.208v20.029l25.245 14.958z" fill="#D6D9FB"/><path d="M939.23 404.389V386.48l23.072 13.709v17.909l-23.072-13.709z" fill="#fff"/><path d="M963.481 419.988c.422-.312.659-.814.659-1.351v-18.612c0-.536-.287-1.039-.744-1.298l-23.65-13.955a1.345 1.345 0 00-1.352 0l24.326 14.353c.456.277.744.762.744 1.298v19.565h.017z" fill="#733DFF"/><path d="M1028.93 500.252c3.34 0 6.05-1.737 6.05-3.881 0-2.144-2.71-3.881-6.05-3.881-3.35 0-6.06 1.737-6.06 3.881 0 2.144 2.71 3.881 6.06 3.881zm78.66-48.128c3.34 0 6.05-1.737 6.05-3.881 0-2.143-2.71-3.881-6.05-3.881s-6.05 1.738-6.05 3.881c0 2.144 2.71 3.881 6.05 3.881zm-222.382-40.365c3.342 0 6.052-1.738 6.052-3.881 0-2.144-2.71-3.881-6.052-3.881-3.342 0-6.051 1.737-6.051 3.881 0 2.143 2.709 3.881 6.051 3.881zm78.666-48.128c3.342 0 6.052-1.738 6.052-3.881 0-2.144-2.71-3.882-6.052-3.882-3.342 0-6.051 1.738-6.051 3.882 0 2.143 2.709 3.881 6.051 3.881z" fill="#FF623F"/><path d="M1112.04 545.096l-6.28 28.901-37.09-22.908a1.99 1.99 0 01-.91-2.07l4.89-26.122c.1-.494.37-.935.77-1.235l.42-.314 38.2 23.748z" fill="#4A529E"/><path d="M1110.02 502.669a3.296 3.296 0 00-3.17.012l-31.99 17.725c-1.36.756-1.37 2.713-.02 3.486l37.14 21.207 7.24-37.423-9.2-5.007z" fill="#D6D9FB"/><path d="M1112.95 538.783l-28.91-16.776 23.22-13.122 10.68 5.545-4.99 24.353z" fill="#0D134E"/><path d="M1148.15 473.571a1.502 1.502 0 00-1.5-.04l-25.19 13.677c-.41.22-.69.615-.77 1.07l-14.38 85.457 5.03 2.851 40.95-98.997a1.5 1.5 0 00-.6-1.852l-3.54-2.166z" fill="#F8FCFF" stroke="#E9EBFF"/><path d="M1154.34 478.018c.03-1.547-1.64-2.531-2.99-1.766l-25.29 14.406c-.53.301-.89.825-.99 1.425l-13.48 85.217 38.6-23.371a6.579 6.579 0 003.17-5.538l.98-70.373z" fill="#5C66C0"/><path d="M948.095 335.686c1.159.302 1.942.662 2.297 1.07.139.159.858.783 1.294 1.378.675.92 1.08 1.89.745 1.89-.257 0-.596-.229-1.205-.753-.221-.19-.558-.447-.825-.706l-.153-.149 2.106 4.565.159.754c.247 1.209.33 1.837.248 1.884-.113.066-.507-.559-1.18-1.874l-.09-.175-1.385-2.085.286.967c.801 2.75 1.079 4.125.834 4.125-.273 0-.98-1.497-2.121-4.49l.149.769c.545 2.871.692 4.306.439 4.306-.274 0-.806-1.414-1.598-4.243.279 2.829.279 4.243 0 4.243-.406 0-.529-2.481-1.224-4.094l-.066-.149c-.503-1.069-1.061-2.176-1.672-4.354 0 0 .294-1.907 1.158-2.319a7.417 7.417 0 011.804-.56z" fill="#FFAF8A"/><path d="M954.18 342.707l-.016-.07c-.423.726-1.158 1.245-1.796 1.307l-.126.006c-1.194 0-2.648 1.554-3.659 2.528l-.891.842c-.99.922-2.392 2.04-4.6 2.04-2.737 0-5.319-2.149-6.14-4.448-.026-.074-.14-.201-.297-.357a8.216 8.216 0 00-.012.446c0 5.145 4.064 9.315 9.077 9.315s8.714-4.17 8.714-9.315c0-.791-.088-1.56-.254-2.294l-.016-.07.016.07z" fill="#733DFF"/><path d="M953.536 341.162c-1.293-1.854-4.288-2.158-5.71-1.273-1.422.885-1.849 2.242-3.996 2.242-2.147 0-7.917.571-7.095 2.87.821 2.299 3.621 4.359 6.358 4.359 2.738 0 4.237-1.718 5.247-2.652 1.011-.934 2.986-2.716 4.28-2.716 1.293 0 2.21-.975.916-2.83z" fill="#1B215B"/><path d="M952.416 341.456c-.469-.656-1.315-1.03-2.213-1.148-.901-.119-1.788.029-2.3.34a3.58 3.58 0 00-.71.597c-.083.087-.171.183-.261.281-.138.15-.282.307-.423.446-.494.486-1.096.906-2.056.906l-.385-.002c-.86-.007-1.983-.015-2.946.21-.554.13-1.028.332-1.361.636-.323.295-.528.7-.528 1.279 0 .601.157 1.054.413 1.401.258.351.628.611 1.08.803.911.386 2.105.471 3.211.471 1.897 0 3.012-1.037 3.827-1.795.09-.084.176-.164.259-.238.109-.099.235-.216.371-.344.359-.334.797-.744 1.245-1.1a6.41 6.41 0 01.96-.646c.318-.168.651-.286.972-.286.481 0 .91-.172 1.106-.448.175-.245.231-.674-.261-1.363z" fill="#9286FF" fill-opacity=".193" stroke="#6262AD" stroke-width=".5"/><path d="M936.894 345.001c0 5.013 3.958 9.065 8.827 9.065s8.827-4.052 8.827-9.065-3.958-9.065-8.827-9.065-8.827 4.052-8.827 9.065z" fill="#9286FF" fill-opacity=".193" stroke="#F8F8F8" stroke-width=".5"/><path d="M939.495 340.73c0 .726-3.84 1.452-3.442 1.784l.069.052c.377.259 1.629.875 3.755 1.848 1.879.469 2.819.894 2.819 1.278 0 .383-1.014.383-3.042 0l-.854-.192.331.185c.685.374 1.147.575 1.388.602l.271.01c.534.033 1.563.179 1.563.622 0 .517-1.819.882-2.699.684-.587-.131-1.183-.27-1.788-.415.719.603 1.389.905 2.011.905l.5.002c.69.012 1.19.086 1.19.549 0 .569-2.445.414-3.132.414a3.5 3.5 0 01-1.322-.257c1.105.576 1.842.865 2.211.865l.469-.004c.541.001 1.135.056.911.483-.215.409-1.447.424-2.376.402l-.837-.021c-.461 0-3.152-1.679-8.072-5.039 0-.653.059-1.242.185-1.822.171-.781.563-1.298.965-1.847l1.528-.68c1.338-.246 2.21-.381 2.618-.404l.248-.01c.959-.067 4.532-.682 4.532.006z" fill="#FFAF8A"/><path d="M915.375 489.793h6.786c.369 0 .73.113 1.032.325l1.198.838c.961.672 1.03 2.064.112 2.795-1.008.803-2.292 1.777-3.431 2.491-1.043.654-3.629 2.093-6.152 3.476-2.623 1.436-5.783-.593-5.59-3.578l.366-5.647 5.679-.7zm-24.24-3.606c-.529.309-.862.87-.882 1.487l-.109 3.415-.004 1.17c-.003.947.724 1.745 1.668 1.786.799.034 1.644.043 1.928-.051 1.476-.487 2.178-1.954 2.573-2.16.959-.502 2.491-2.082 2.491-2.082l3.629-1.39a1.792 1.792 0 00.959-2.466l-.242-.498a1.818 1.818 0 00-1.407-1.01l-5.597-.7a1.781 1.781 0 00-1.121.229l-3.886 2.27z" fill="#733DFF"/><path d="M897.242 384.215s.885-2.385 1.581-5.697c.696-3.312-2.131-11.584-2.131-11.584l13.229-4.977s.273 6.686.273 10.121c0 2.682-1.242 4.689-1.788 5.441a1.17 1.17 0 01-.646.431l-1.802.495.94 5.77-2.503 2.455-7.153-2.455z" fill="#FFAF8A"/><path d="M920.922 400.791l8.681-8.933a1.54 1.54 0 00.256-1.794l-9.06-5.513a.912.912 0 00-1.108.126l-8.815 8.6 10.046 7.514z" fill="#733DFF"/><path d="M919.818 384.553l-8.508 8.3 9.611 7.19 8.866-9.124a.714.714 0 00.201-.521 1.47 1.47 0 00-.073-.215l-.057-.119-9.215-5.607a.675.675 0 00-.825.096z" fill="#D6D9FB"/><path d="M921.012 399.05l7.816-7.957a.819.819 0 00-.164-1.276l-7.769-4.653a.818.818 0 00-.963.089l-7.991 7.084 9.071 6.713z" fill="#fff"/><path d="M920.046 385.152l-8.104 7.185 9.07 6.713.884-.899c.906-4.12 1.362-7.975 1.371-11.568l-2.504-1.499a.607.607 0 00-.717.068z" fill="#000" fill-opacity=".169"/><path d="M911.866 390.848l4.522 1.678c1.067.396 2.258.1 3.006-.748.512-.579-.176-1.456-.865-1.11a8.083 8.083 0 01-.374.18c-.462.191-1.083-.87-1.083-.87l3.302-1.08a1.302 1.302 0 00.741-1.878c-.448-.799-1.004-1.692-1.373-1.944-.586-.402-3.927-.139-5.066-.037a1.298 1.298 0 00-.683.272l-3.593 2.799 1.466 2.738z" fill="#FFAF8A"/><path d="M898.258 380.66l-7.504 1.467a1.031 1.031 0 00-.671.461l-.053.094-7.874 15.65a5.692 5.692 0 00.38 5.755c.095.138.2.266.317.384a2.695 2.695 0 003.766.093l.116-.115 4.697-4.992.471 8.647a16.227 16.227 0 01-.69 9.387l-.131.33s-1.644 5.94-2.358 10.636c-.714 4.696.548 36.117.548 36.117l.487 21.177c.013.56.449 1.013.995 1.033l.678.02c.982.022 1.631.002 1.945-.062 1.089-.22 1.9-.957 2.409-1.236l.104-.053c.903-.406 1.642-7.215 2.217-20.427l.02-.452s1.527-26.531 1.604-26.372l4.843 30.341 3.408 23.658c.011.073.026.145.045.216.255.938 1.203 1.487 2.118 1.226l.512-.149c1.814-.534 2.931-.951 3.354-1.252.549-.391 1.255-1.534 2.12-3.429.089-.194.142-.404.157-.617l.005-.161-.339-20.125s-3.488-41.69-3.698-47.16c-.228-5.94.471-10.87 2.099-14.788l.155-.365 5.027 8.29a4.11 4.11 0 003.319 1.993l.185.004h1.257c.153 0 .306-.011.457-.035 1.617-.251 2.744-1.76 2.58-3.411l-.019-.155L925 396.59l-3.715 3.764-4.146-11.136a1.057 1.057 0 00-.32-.449l-.09-.066-9.259-6.05c-3.229.484-5.572.484-7.028 0-1.393-.463-2.12-1.091-2.18-1.884l-.004-.109z" fill="#380085"/><path d="M892.044 414.517l.362.072c.923.184 1.816-.434 1.995-1.381.172-.906-.372-1.784-1.227-2.02l-.118-.028-.772-.154a16.193 16.193 0 01-.24 3.511zm-.805 3.684l-.156.396c-.255.857-.495 1.687-.72 2.489a30.21 30.21 0 006.79 1.567c3.755.434 8.805.372 15.148-.186l-.038-.781-.006-.16a53.996 53.996 0 01-.042-2.107l-.362.036a5.616 5.616 0 01-.17.015c-5.842.486-10.783.303-14.066 0a30.83 30.83 0 01-6.378-1.269zm21.404-5.831l-3.069.002c-.94 0-1.702.782-1.702 1.746 0 .925.7 1.681 1.585 1.743l.117.004 2.716-.001c.07-1.217.187-2.381.353-3.494zm-16.344-31.326l-3.547.693c-.205 4.517 2.282 7.468 7.275 8.342 5.073.888 9.287-.523 12.449-4.155l-2.919-1.906c-2.336 2.448-5.301 3.358-8.958 2.617-2.475-.501-4.553-2.241-4.3-5.591z" fill="#733DFF"/><path d="M891.415 393.55l-5.382 11.428c.208-.109.405-.247.586-.414l.116-.115 4.68-4.975v-5.924zm31.632 5.053l-1.761 1.751 2.691 7.908-.93-9.659zm-10.588.991a.352.352 0 00-.212.329l.122 11.874c.003.264.099.504.257.688.349-2.402.919-4.562 1.711-6.48l.173-.407 2.277 3.752-3.879-9.566a.34.34 0 00-.449-.19z" fill="#000" fill-opacity=".275"/><path d="M1060.17 479.607l22.76-13.498c0 .549-.28 1.049-.73 1.307l-22.03 13.045c-.47.275-1.05.275-1.51 0l-15.3-9.078a1.525 1.525 0 01-.74-1.307l16.04 9.515c.47.29 1.04.29 1.51.016z" fill="#733DFF"/><path d="M1042.63 470.137l16.06 9.55c.48.275 1.06.275 1.51 0l22.8-13.548-16.82-9.987-23.55 13.985z" fill="#D6D9FB"/><path d="M1054.54 474.896l-9-5.325 20.19-11.978 9 5.309-20.19 11.994zm12.3-1.198l-4.34-2.574 6.58-3.901 4.34 2.574-6.58 3.901z" fill="#733DFF"/><path d="M1042.62 470.109v-18.213c0-.499.27-.967.68-1.208l22.51-13.345c.14-.081.31.016.31.193v18.648l-23.5 13.925z" fill="#D6D9FB"/><path d="M1065.19 455.586v-16.672l-21.48 12.763v16.672l21.48-12.763z" fill="#fff"/><path d="M1042.61 470.109c-.39-.29-.61-.758-.61-1.257v-17.328c0-.5.27-.967.69-1.209l22.02-12.992a1.26 1.26 0 011.26 0l-22.65 13.363c-.42.258-.69.709-.69 1.209v18.214h-.02z" fill="#733DFF"/><path d="M913.37 365.122c.452 1.18-.407 3.029-.785 4.971-.219 1.129.069 2.058 0 2.351-.037.159-1.356-.341-1.565-.95-.256-.743.228-2.594 0-2.607-2.474-.142-1.305 4.376-6.171 9.273-1.678 1.688-6.351.632-6.351.632s-2.557-3.681-2.815-7.483c-.611-8.997 7.938-11.386 9.466-9.47 2.966-2.148 7.119.407 8.221 3.283z" fill="#0D134E"/><path d="M897.007 367.047h.394a2.328 2.328 0 110 4.657h-.394v-4.657z" fill="#5C66C0"/><path d="M898.078 370.581c-2.567 1.399-4.226 4.084-3.58 6.935a24.212 24.212 0 001.154 3.702c1.834 4.55-1.002 14.773-1.002 14.773s-1.626-6.874-3.483-8.93c-1.857-2.055-2.862-4.163-3.73-7.555-.248-.97-.477-3.222-.678-5.946-.454-6.142 6.835-9.502 11.367-5.33 0 0 .727.277.727 1.16 0 .883-.775 1.191-.775 1.191z" fill="#0D134E"/><path d="M875.469 500.85l6.274 28.9 37.092-22.907a2.002 2.002 0 00.915-2.071l-4.898-26.122a2 2 0 00-.77-1.235l-.421-.314-38.192 23.749z" fill="#4A529E"/><path d="M877.489 458.422a3.29 3.29 0 013.167.012l31.985 17.725c1.364.756 1.377 2.713.022 3.486l-37.141 21.207-7.233-37.423 9.2-5.007z" fill="#D6D9FB"/><path d="M874.559 494.536l28.906-16.775-23.225-13.123-10.671 5.545 4.99 24.353z" fill="#0D134E"/><path d="M839.351 429.324a1.503 1.503 0 011.5-.04l25.199 13.678c.405.22.687.614.763 1.069l14.379 85.457-5.027 2.851-40.948-98.997a1.5 1.5 0 01.602-1.851l3.532-2.167z" fill="#F8FCFF" stroke="#E9EBFF"/><path d="M833.161 433.771c-.022-1.546 1.645-2.531 2.989-1.766l25.298 14.406a2 2 0 01.985 1.426l13.487 85.216-38.608-23.371a6.578 6.578 0 01-3.171-5.537l-.98-70.374z" fill="#5C66C0"/><path d="M951.11 551.306l6.274 28.901 37.092-22.908a1.998 1.998 0 00.915-2.07l-4.898-26.122a1.995 1.995 0 00-.77-1.235l-.421-.314-38.192 23.748z" fill="#4A529E"/><path d="M953.13 508.879a3.287 3.287 0 013.167.012l31.985 17.725c1.364.756 1.377 2.713.022 3.486l-37.141 21.207-7.233-37.423 9.2-5.007z" fill="#D6D9FB"/><path d="M950.2 544.993l28.906-16.776-23.225-13.122-10.671 5.545 4.99 24.353z" fill="#0D134E"/><path d="M914.993 479.781a1.498 1.498 0 011.499-.04l25.199 13.677a1.5 1.5 0 01.763 1.07l14.379 85.457-5.027 2.85-40.947-98.996a1.5 1.5 0 01.601-1.852l3.533-2.166z" fill="#F8FCFF" stroke="#E9EBFF"/><path d="M908.802 484.228c-.022-1.547 1.645-2.531 2.99-1.766l25.297 14.406a2 2 0 01.985 1.425l13.487 85.217-38.607-23.371a6.579 6.579 0 01-3.172-5.538l-.98-70.373z" fill="#5C66C0"/><path d="M986.886 467.018s.858.724 1.99 1.131c1.133.406 2.513 1.65 3.257 1.005.744-.646-1.303-1.841-1.219-2.451.039-.283 1.486-.975 3.009-1.722 1.772-.87 3.648-.596 3.523-1.058-.234-.859-4.733-.139-4.733-.139s4.228-.977 4.134-1.722c-.094-.745-4.359-.073-4.359-.073s3.483-.765 3.147-1.634c-.336-.87-3.45-.184-3.45-.184s1.835-1.148 1.394-1.462c-.196-.14-1.489-.472-3.873 1.442-.597.48-1.835.961-3.185 2.086-.467.39-1.273 1.608-1.273 1.608l1.638 3.173z" fill="#FFAF8A"/><path d="M949.59 473.909c5.293-5.175 11.752.94 18.613-1.41 6.861-2.35 14.711-9.98 17.172-8.96 2.462 1.021 3.488 3.033 1.815 5.161-1.674 2.127-12.274 10.787-14.853 12.363-2.579 1.576-20.183 4.798-20.183 4.798s-7.856-6.777-2.564-11.952z" fill="#380085"/><path d="M951.096 473.175c-7.716 6.336-.611 32.687-2.822 36.234-2.211 3.548-3.153 13.091 4.158 16.072 4.787 1.952 7.322 3.223 10.249 2.981 1.543-.127 4.166-.277 5.172-1.833 2.916-4.507.72-21.7 3.095-25.588 2.375-3.889 4.59-17.385 2.002-21.53-2.588-4.144-18.751-8.884-21.854-6.336z" fill="#380085"/><path d="M965.546 473.971l-.03-.062c3.537 1.79 6.451 4.027 7.435 5.602 2.551 4.085.436 17.252-1.899 21.355l-.103.175c-1.056 1.728-1.208 6.081-1.308 10.782l-1.787.957c1.411-12.337 1.411-22.575 0-30.715-.554-3.199-1.278-5.799-2.173-7.798l-.165-.358.03.062z" fill="#000" fill-opacity=".288"/><path d="M1005.49 544.215s-.25 2.376 1.5 3.801c1.75 1.426 6.56-.565 8.97 2.11 1.37 1.531-.9 3.808-5.25 5.072-3.25.942-8.04 1.4-9.6 1.022-2.457-.594-1.223-11.349-1.223-11.349l5.603-.656z" fill="#733DFF"/><path d="M970.407 510.96s-18.079 5.928-14.367 14.829c2.473 5.93 20.39 1.084 32.907-4.917.951-.456 1.69.953 1.69 3.502 0 2.55 6.11 19.337 6.855 21.896.746 2.558 4.828 2.07 5.968 1.7 1.15-.369 3.5-1.087 3.5-3.259 0-2.173-3.87-33.234-9.221-35.304-5.356-2.07-27.332 1.553-27.332 1.553z" fill="#380085"/><path d="M968.919 502.138l-4.742.427c-.937.084-1.629.931-1.547 1.892.078.921.84 1.612 1.727 1.594l.116-.007 3.422-.255c.511-.038.912-.455.93-.966l.055-1.556a.996.996 0 00-1.084-1.028l-3.619.326 4.742-.427zm-20.507 0l.961.427c.936.084 1.629.931 1.547 1.892-.079.921-.84 1.612-1.728 1.594l-.116-.007-.068-.04a1.007 1.007 0 01-.489-.827l-.07-1.989a.656.656 0 01.924-.623l-.961-.427zm.092 9.723c5.962 1.683 11.584 2.292 20.622.104l-.071-3.301s-11.439 1.63-19.679-.048c-.28-.058-.796-.152-.796-.152s-.466.85-.607 1.368c-.191.702-.578 1.561-.578 1.561s.777.375 1.109.468z" fill="#733DFF"/><path d="M993.357 518.245c1.522.953 8.963 10.951 7.183 29.994-1.332-.117-2.655-.618-3.048-1.969-.725-2.486-6.262-18.664-6.276-21.914v-.249c0-2.483-1.368-3.63-2.198-3.268l-1.3.617.329-.421c2.175-2.714 3.945-3.644 5.31-2.79z" fill="#000" fill-opacity=".288"/><path d="M1002.13 478.555s-.37-1.1-.34-2.349c.03-1.249-.64-3.048.24-3.532.89-.484 1.27 1.944 1.87 2.088.29.067 1.47-1.083 2.74-2.285 1.47-1.399 3.05-2.869 3.44-2.576.73.544-2.75 4.191-2.75 4.191s3.62-3.29 4.29-2.923c.68.366-2.68 3.804-2.68 3.804s3.16-2.645 3.86-1.998c.7.647-2.25 2.964-2.25 2.964s2.93-1.374 3.07-.829c.06.241-1.27 1.634-3.96 3.242-.67.403-1.58 1.427-3.14 2.322-.54.31-1.99.643-1.99.643l-2.4-2.762z" fill="#FFAF8A"/><path d="M987.666 494.519c3.818-1.138 17.274-10.358 17.524-11.466.25-1.109-1.48-4.605-3.63-4.57-2.142.036-13.772 7.891-16.641 7.212-1.926-.457-13.317-10.939-18.332-10.306-1.042.132-.1 2.142-.746 3.316-5.395 9.81 18.007 16.953 21.825 15.814z" fill="#380085"/><path d="M951.277 473.263l-.154-.003c-1.338 3.696-1.103 6.883 4.114 8.878 4.132 1.579 10.193.963 13.449-3.729l.228-.338c-.228-.522-.729-1.713-1.885-2.209-2.482 3.445-6.635 4.685-10.595 3.25-2.589-.938-3.584-3.578-2.331-5.59l.046-.159c-1.194-.373-1.918-.071-2.872-.1l-.154-.003.154.003z" fill="#733DFF"/><path d="M956.976 472.829l.37-3.706s-3.53-10.804-1.923-14.18c1.607-3.376 11.381-5.361 12.872-1.092 1.492 4.269 2.588 16.024 0 17.081-2.587 1.057-2.83.424-2.83.424l-.91 3.047s-1.837 1.114-4.318.411c-2.481-.703-3.261-1.985-3.261-1.985z" fill="#FFAF8A"/><path d="M956.199 466.742c1.895 2.306 4.201 2.664 5.865.595 1.664-2.069.215-6.637 1.949-7.447 1.733-.81 1.512 4.068 2.457 3.577.944-.49-.13-5.656.944-6.89 1.075-1.234 2.775-.434 2.775-2.798s-4.082-4.772-7.129-3.906c-3.046.867-5.651-.432-8.14 2.575-2.488 3.006-.616 11.987 1.279 14.294z" fill="#380085"/><defs><linearGradient id="paint0_linear" x1="2406.24" y1="287.942" x2="2287.91" y2="1039.02" gradientUnits="userSpaceOnUse"><stop offset=".065" stop-color="#A8A8A8"/><stop offset="1" stop-color="#F6F6F6"/></linearGradient><linearGradient id="paint1_linear" x1="1154.08" y1="240.573" x2="1121.68" y2="251.654" gradientUnits="userSpaceOnUse"><stop stop-color="#3D3D70" stop-opacity=".045"/><stop offset="1" stop-color="#272858"/></linearGradient><linearGradient id="paint2_linear" x1="1030.76" y1="516.504" x2="1020.68" y2="517.167" gradientUnits="userSpaceOnUse"><stop stop-color="#F5F6F9"/><stop offset="1" stop-color="#E4E7EC"/></linearGradient><linearGradient id="paint3_linear" x1="1107.91" y1="468.376" x2="1097.84" y2="469.039" gradientUnits="userSpaceOnUse"><stop stop-color="#F5F6F9"/><stop offset="1" stop-color="#E4E7EC"/></linearGradient><linearGradient id="paint4_linear" x1="884.016" y1="429.563" x2="873.939" y2="430.226" gradientUnits="userSpaceOnUse"><stop stop-color="#F5F6F9"/><stop offset="1" stop-color="#E4E7EC"/></linearGradient><linearGradient id="paint5_linear" x1="959.015" y1="382.987" x2="969.092" y2="383.651" gradientUnits="userSpaceOnUse"><stop stop-color="#F5F6F9"/><stop offset="1" stop-color="#E4E7EC"/></linearGradient><linearGradient id="paint6_linear" x1="1040.53" y1="410.15" x2="1047.09" y2="429.95" gradientUnits="userSpaceOnUse"><stop stop-color="#EAECFF" stop-opacity=".179"/><stop offset="1" stop-color="#D0D4FE"/></linearGradient></defs></svg>