<svg width="320" height="805" fill="none" xmlns="http://www.w3.org/2000/svg"><ellipse rx="3.892" ry="3.816" transform="matrix(1 0 0 -1 289.416 188.816)" fill="#CCC" fill-opacity=".3"/><path opacity=".4" d="M265 365.391v-52.364a2 2 0 011.194-1.831l21.903-9.641a2.002 2.002 0 001.195-1.831V193.326" stroke="#CCC"/><ellipse rx="1.942" ry="1.904" transform="matrix(0 -1 -1 0 231.904 1.942)" fill="#CCC" fill-opacity=".3"/><path opacity=".4" d="M320 14.123h-25.472a1.999 1.999 0 01-1.83-1.194l-4.284-9.731a1.999 1.999 0 00-1.83-1.194h-52.43" stroke="#CCC"/><ellipse rx="1.942" ry="1.904" transform="matrix(0 1 1 0 88.096 802.181)" fill="#CCC" fill-opacity=".3"/><path opacity=".4" d="M0 790h25.472a2 2 0 011.83 1.194l4.284 9.731a2 2 0 001.83 1.194h52.43" stroke="#CCC"/></svg>