<svg width="1367" height="742" fill="none" xmlns="http://www.w3.org/2000/svg"><path opacity=".4" d="M133.562 392.651V270.879c0-.803.48-1.528 1.219-1.841l55.355-23.491a2.001 2.001 0 001.219-1.842V-2" stroke="#CCC"/><circle cx="133.895" cy="397.105" r="3.895" transform="rotate(-180 133.895 397.105)" fill="#CCC" fill-opacity=".3"/><path opacity=".4" d="M1249.79 347.349v121.772c0 .803-.48 1.528-1.22 1.841l-55.35 23.491a2 2 0 00-1.22 1.842V742" stroke="#CCC"/><circle cx="1249.46" cy="342.895" r="3.895" fill="#CCC" fill-opacity=".3"/><path opacity=".4" d="M465.16 676.637H321.395c-.803 0-1.528-.48-1.841-1.219l-27.873-65.68a1.999 1.999 0 00-1.841-1.219H0" stroke="#CCC"/><circle cx="470.409" cy="676.244" r="4.591" transform="rotate(90 470.409 676.244)" fill="#CCC" fill-opacity=".3"/><path opacity=".4" d="M833.017 61.127h175.863c.81 0 1.53.48 1.84 1.22l34.27 80.751a2.007 2.007 0 001.84 1.218h354.26" stroke="#CCC"/><circle cx="826.607" cy="61.607" r="5.607" transform="rotate(-90 826.607 61.607)" fill="#CCC" fill-opacity=".3"/></svg>