<svg width="707" height="382" fill="none" xmlns="http://www.w3.org/2000/svg"><path d="M712 27.5V382H0L712 27.5z" fill="url(#paint0_linear)" fill-opacity=".2"/><path d="M633.463 63.567l22.563 55.622 8.044-2.747c3.825-1.275 6.082-5.297 5.101-9.319l-8.24-34.433c-.785-3.139-3.336-5.493-6.475-5.983l-20.993-3.14z" fill="#959FFA"/><path d="M640.983 66.798l16.842 51.776 6.245-2.132a7.59 7.59 0 00.601-.228c1.859-2.972 2.902-5.255 3.129-6.852.585-4.102-6.913-33.677-8.341-36.671-.922-1.934-6.731-3.838-17.426-5.712l-1.05-.181z" fill="#000" fill-opacity=".288"/><path d="M622.476 69.06l-6.769 31.49 12.557 10.104c.49 3.826.49 7.063 0 9.712-.785 3.924 9.908 41.299 13.047 44.438 3.139 3.139 9.025 1.962 11.281 0 1.472-1.275 7.652-5.689 18.737-13.047 0 1.374-.196 2.257-.589 2.453-.588.392-2.746 1.569-2.746 2.55 0 .883 1.373 2.649 3.335 2.649s8.534-1.275 9.614-4.022c.588-1.57.882-10.987.392-13.047-.392-2.158-2.158-3.826-3.63-3.433-.392.098-2.06.686-4.905 1.667-.392.196-1.667-.588-2.06-.392-2.55.981-8.828 3.728-18.736 8.436l2.158-23.151 7.161-5.101c-1.864-4.316-3.237-9.515-4.218-15.598-.981-6.082-.981-16.186 0-30.312-2.943-3.139-14.334-6.385-20.012-6.376-5.678.009-6.778-.01-14.617.98z" fill="#733DFF"/><path d="M653.224 135.518l-20.647 4.776a311.687 311.687 0 003.72 12.277c3.228-1.29 5.829-2.536 7.806-3.741l.342-.212c1.967-1.24 4.681-3.326 8.142-6.258l.637-6.842zm-32.869-56.587l-4.648 21.619 12.557 10.104c.398 3.107.473 5.826.225 8.156 4.972.379 8.768-.317 11.387-2.089l.258-.181c2.804-2.034 9.378-2.051 19.723-.049-1.143-3.452-2.049-7.36-2.752-11.723-.705-4.37-.904-10.818-.595-19.342l-5.078-2.553c-2.175 2.815-4.176 3.754-6.001 2.815l-.851-.446c-3.028-1.609-8.384-4.613-9.684-4.613l-.174-.004c-1.129-.041-4.23-.445-9.303-1.212l-5.064-.482z" fill="#000" fill-opacity=".288"/><path d="M635.523 103.788c-.392-2.061-1.079-3.532-2.06-4.415-1.373-1.373-14.518-1.57-15.107-2.845-.589-1.275 2.453-11.379 3.434-13.341.686-1.275.98-5.984.98-14.126-.882-.294-2.06.098-3.433 1.177-2.158 1.668-14.813 28.547-15.303 31.195-.491 2.551.49 4.513 3.531 6.769 3.041 2.256 18.639 4.709 20.405 5.101 1.177.294 2.06.196 2.746-.392-.686-.589-1.177-1.079-1.373-1.472-.294-.49-2.256-.981-2.256-2.158 0-1.079.883-3.924 2.55-4.807 1.178-.294 3.041-.588 5.886-.686z" fill="#380085"/><path d="M612.046 83.581c-.724-.775-.301-3.278.944-5.591 1.246-2.314 2.842-3.562 3.566-2.787.723.774.3 3.278-.945 5.591-1.246 2.314-2.842 3.562-3.565 2.787z" fill="#959FFA"/><path d="M611.267 83.272c-.723-.774-.3-3.278.945-5.591 1.246-2.314 2.842-3.562 3.565-2.787.724.774.301 3.278-.945 5.591-1.245 2.314-2.841 3.562-3.565 2.787z" fill="#F8FCFF"/><path d="M635.523 104.585s5.46.796 5.46 2.567c0 1.772-1.858 2.21-1.858 2.21l-3.602-4.777z" fill="#5C66C0"/><path d="M630.815 113.009c2.974 3.084 10.3-.687 9.417-3.728-.589-1.962-2.158-3.826-4.709-5.395v-.197c-2.845 0-5.003.308-5.984.896-1.766.883-2.636 3.698-2.636 4.777 0 1.079 2.106 1.732 2.4 2.321.098.392.858.649 1.512 1.326zm7.455 45.419c1.177 3.335 2.256 5.69 2.943 6.376 3.139 3.14 9.025 1.962 11.281 0 .393-.392 1.177-.981 2.354-1.765.785-2.943 1.178-5.886 1.472-7.75.392-2.453.49-5.395.196-8.829-1.373.687-2.943 1.373-4.512 2.158l.392-4.218c-2.845 4.709-5.003 7.946-6.376 9.614-1.276 1.471-4.317 3.139-7.75 4.414zm32.863-6.671c0 1.374-.196 2.158-.589 2.453-.588.392-2.747 1.569-2.747 2.55 0 .883 1.374 2.649 3.336 2.649 1.962 0 8.534-1.275 9.613-4.022.589-1.57.883-10.987.393-13.047-.393-2.158-2.158-3.826-3.63-3.434-.392.099-2.06.687-4.905 1.668h-.392c.392 1.374.49 2.845.294 4.513-.196 1.962-.687 4.218-1.373 6.67z" fill="#959FFA"/><path d="M677.509 138.906l-.132.037c-.135.041-.33.104-.585.189 1.056.376 1.826 1.053 2.308 2.03.971 1.968.082 12.298-.582 13.768-.664 1.469-4.901 3.287-6.934 3.287-1.183 0-2.444-.462-3.783-1.384l-.004-.073c0 .883 1.374 2.649 3.336 2.649l.31-.009c2.265-.116 8.276-1.397 9.303-4.013.589-1.57.883-10.987.393-13.047-.393-2.158-2.158-3.826-3.63-3.434z" fill="#733DFF"/><path d="M645.627 87.896l-.981 8.24c0 .687-.588 1.275-1.275 1.275h-.294l-19.816-5.297c-.589-.196-.981-.687-.981-1.275l.981-7.75c0-.687.589-1.275 1.275-1.275h.295l19.815 4.806c.491.197.981.687.981 1.276z" fill="#F8FCFF"/><path d="M635.523 81.703c-.961.206-1.44 2.918-1.437 8.137l9.972 2.666h.294c.644 0 1.201-.517 1.269-1.147l.006-.128-.001-3.425-3.474-1.624c-1.134-.523-2.061-.577-2.3-.957l-.332-.526c-.845-1.314-2.325-3.352-3.997-2.996z" fill="#D5D9FF"/><path d="M657.007 74.506c-2.257.784-6.181 6.62-6.181 8.877 0 1.57.687 5.101 1.962 10.693-6.278-4.807-9.809-7.161-10.594-7.161-1.275 0-1.275.392-1.766.294-.49 0-.785-.196-.883-.589-.294-.686-.098-1.864-.686-2.452-1.276-1.275-3.14-4.022-4.807-4.022-1.766 0-8.142-1.373-8.535-.589-.392.785.294 1.08.687 1.276.392.196 5.003 1.667 5.199 2.354.294.687-.785 5.886 0 6.867.785.98 2.354 3.433 3.237 3.433.589 0 1.472-.392 2.257-.392.392 0 .882 0 .981.392.294.883 0 1.962.294 2.453.294.588 14.715 14.224 18.835 15.793 4.12 1.57 8.142-2.452 9.025-4.61.883-2.06-.981-11.183-2.649-17.07-1.57-5.59-4.218-16.332-6.376-15.547z" fill="#380085"/><path d="M640.134 87.209c-.294-.098-.491-.196-.589-.49-.294-.687-.098-1.962-.686-2.551-1.276-1.275-3.105-4.044-4.773-4.044-1.766 0-8.142-1.373-8.534-.588-.393.785.26 1.199.652 1.395.392.196 5.003 2.648 5.199 3.335.294.687-.785 4.905 0 5.886.785.98 2.354 3.433 3.237 3.433.589 0 1.472-.392 2.257-.392.294 0 .686 0 .882.196l1.472-2.648c.49-.883.785-2.159.883-3.532z" fill="#959FFA"/><path fill-rule="evenodd" clip-rule="evenodd" d="M635.561 103.724c-1.841-.49-3.604-.582-5.388-.283-1.784.3-3.31 1.3-4.578 3.002l-13.385-3.256c.051-.979.283-1.655.897-2.114.819-.644 5.531-4.327 8.176-4.188 2.645.138 12.323 1.039 13.452 1.982.65.722.96 2.31.826 4.857z" fill="#BAC8FF"/><path d="M627.682 100.364c-1.51.706-2.624 1.336-3.335 1.79-.815.546-1.707.696-2.681.547l-8.554-1.726c-.516.465-.851 1.233-.902 2.213l13.385 3.255c1.268-1.702 2.789-2.604 4.578-3.002 1.784-.299 3.547-.207 5.388.283.129-2.449-.078-4.13-.826-4.857-2.557.062-4.939.527-7.053 1.497z" fill="#5C66C0"/><path d="M619.828 97.705l-21.092-6.866c-.294-.099-.588-.393-.588-.687l-4.12-30.803c-.098-.49.294-.883.785-.98h.294l21.091 5.493c.392.098.588.392.687.784l4.12 32.177c.098.49-.295.882-.785.98-.098 0-.196 0-.392-.098z" fill="#FF623F" fill-opacity=".3"/><path d="M619.982 97.23l.036.011.033.017a.44.44 0 00.117.044.57.57 0 00.285-.167.234.234 0 00.061-.214l-.003-.018-.002-.017-4.116-32.145c-.074-.273-.176-.36-.316-.394h0l-.005-.001-21.029-5.478h-.001 0-.001 0-.001 0-.002 0-.001 0-.001 0-.002 0-.001 0-.001 0-.002 0-.001 0-.001 0-.002 0-.001 0-.001 0-.002 0-.001 0-.002 0-.001 0-.001 0-.002 0-.001 0-.001 0-.002 0-.001 0-.001 0-.002 0-.001 0-.001 0-.002 0-.001 0-.001 0-.002 0-.001 0-.002 0-.001 0-.001 0-.002 0-.001 0-.001 0-.002 0-.001 0-.001 0-.002 0-.001 0-.001 0-.002 0-.001 0-.001 0-.002 0-.001 0-.001 0-.002 0-.001 0-.002 0-.001 0-.001 0-.002 0-.001 0-.001 0-.002 0-.001 0-.001 0-.002 0-.001 0-.001 0-.002 0-.001 0-.001 0-.002 0-.001 0-.002 0-.001 0-.001 0-.002 0-.001 0-.001 0-.002 0-.001 0-.001 0-.002 0-.001 0-.001 0-.002 0-.001 0-.001 0-.002 0-.001 0-.001 0-.002 0-.001 0-.002 0-.001 0-.001 0-.002 0-.001 0-.001 0-.002 0-.001 0-.001 0-.002 0-.001 0-.001 0-.002 0-.001 0-.001 0-.002 0-.001 0-.002 0-.001 0-.001 0-.002 0-.001 0-.001 0-.002 0-.001 0-.001 0-.002 0-.001 0-.001 0-.002 0-.001 0-.001 0-.002 0-.001 0-.002 0-.001 0-.001 0-.002 0a.577.577 0 00-.29.169.237.237 0 00-.061.214l.003.016.002.016 4.12 30.803.005.033v.028s.006.032.055.087a.49.49 0 00.19.13h.002l21.087 6.866z" stroke="#FF623F" stroke-opacity=".5"/><path d="M641.213 71.317l-6.475 7.26c-.196.195-.49.392-.784.294l-5.101-.687c-.491-.098-.785-.49-.785-.981 0-.098.098-.196.098-.294l1.471-4.415c.197-.294.491-.49.883-.392l10.104-2.256c.491.098.785.49.785.98 0 .295-.098.393-.196.491z" fill="#380085"/><path fill-rule="evenodd" clip-rule="evenodd" d="M640.886 70.656l-6.148 6.94c-.196.196-.49.392-.784.294l-5.101-.687c-.491-.098-.785-.49-.785-.981 0-.098.098-.196.098-.294l1.471-4.415c.197-.294.491-.49.883-.392l8.144-2.155c.49.098 2.353.782 2.353 1.272 0 .294-.033.32-.131.418z" fill="#BAC8FF"/><path d="M632.875 73.083c-2.061-.392-3.037-.92-3.135-1.802l-.201-3.593c-.981.196-1.766.098-2.256-.393-.687-.686-1.864-2.845-1.864-8.338 0-5.494 1.962-10.693 2.845-11.674.883-.98 3.531-4.807 8.633-3.727 5.003 1.177 8.142 5.199 7.357 10.79-.785 5.592-3.826 8.633-3.826 11.282 0 1.765.163 3.254.555 4.53-3.433 2.354-6.048 3.317-8.108 2.925z" fill="#FFA877"/><path d="M634.248 66.775c-1.255.504-2.666.802-4.234.892l-.475.02.083 1.956c.604-.039 1.35-.216 2.236-.531 1.356-.482 2.152-1.261 2.39-2.337z" fill="#000" fill-opacity=".288"/><path d="M631.159 49.83c.612.611 3.326 4.445 3.737 10.933.295 4.635 1.87 7.791 2.687 8.2 1.57.785 4.317-.294 6.769-1.962s3.368-1.962 3.368-3.434c0-1.471-.719-12.85-2.681-15.99-1.864-3.139-4.389-4.904-8.803-4.904-2.257-.687-4.342-.59-5.716 0-1.373.588-3.335 2.746-4.709 5.297-.98 1.668-2.627 8.818-3.216 17.156l3.624.332c-1.008-5.044-.604-7.776-.309-8.463.159-.266.627-2.155 1.672-3.515.882-1.145 2.949-3.246 3.577-3.65z" fill="#0D134E"/><path d="M629.245 127.723c-9.319 7.358-14.224 11.38-14.617 11.968-.686.883-1.471 8.142 0 11.87 1.472 3.728 2.943 31.097 2.159 32.078-.785.981-12.459 11.281-13.244 12.851-.784 1.57 3.826 3.335 7.946 2.256 4.12-1.079 13.243-6.278 14.028-8.436.785-2.158.491-5.592 0-6.671-.49-1.079-.49-6.965 0-8.829.491-1.765 3.728-6.474 3.728-13.635 0-4.807-.491-8.437-1.373-10.889 10.3-2.943 17.363-5.592 21.287-7.946 3.924-2.354 7.946-6.573 12.164-12.557l-1.864-6.18h-21.287l-8.927 4.12z" fill="#733DFF"/><path d="M616.404 54.444c0 10.56 8.56 19.12 19.119 19.12 10.56 0 19.12-8.56 19.12-19.12s-8.56-19.12-19.12-19.12c-10.559 0-19.119 8.56-19.119 19.12z" fill="#9286FF" fill-opacity=".193" stroke="#ECEAFE"/><path opacity=".504" fill-rule="evenodd" clip-rule="evenodd" d="M647.271 52.047c-.459-1.84.022-3.544 1.073-3.806 1.052-.262 2.276 1.017 2.734 2.857.459 1.84-.021 3.544-1.073 3.806-1.051.262-2.275-1.017-2.734-2.857z" fill="#fff"/><path d="M662.402 123.701c0 1.962-.392 4.022-1.079 6.083-4.513-2.551-9.221-3.826-13.93-3.826-4.807 0-10.791.588-18.148 1.667l-.196-.883c6.278-5.003 11.968-7.749 16.971-8.436 5.003-.687 9.711-.981 14.126-.981 1.471 2.354 2.256 4.414 2.256 6.376zm-45.419 56.995c0 1.668-.098 2.747-.196 2.943-.785.981-12.459 11.281-13.244 12.851-.784 1.57 3.826 3.335 7.946 2.256 4.12-1.079 13.243-6.278 14.028-8.436.785-2.158.491-5.592 0-6.671-.392-.785-.49-4.12-.294-6.572-1.864 1.667-3.433 2.746-4.807 3.237-1.177.392-2.354.588-3.433.392z" fill="#959FFA"/><path d="M610.42 197.429c-1.525.262-3.682-.235-6.472-1.493-.202.236-.34.425-.405.554-.784 1.569 3.826 3.335 7.946 2.256 4.12-1.079 13.243-6.278 14.028-8.436.143-.392.249-.825.326-1.278l-1.758 1.093c-7.398 4.575-11.953 7.01-13.665 7.304z" fill="#733DFF"/><path d="M618.258 136.454c-2.256 1.864-3.433 2.845-3.63 3.139-.686.883-1.471 8.142 0 11.87.098.294.197.687.393 1.275.981.491 1.962.981 2.845 1.374 2.354 1.177 6.082 1.667 11.183 1.569-.196-2.158-.589-3.924-1.079-5.395l2.943-.883c-2.355-3.924-4.611-6.965-6.573-9.221a17.21 17.21 0 00-6.082-3.728z" fill="#959FFA"/><path d="M652.429 92.08s9.269 8.585 8.349 10.545c-.921 1.96-7.99-8.55-7.99-8.55l-.359-1.995z" fill="#000" fill-opacity=".288"/><path d="M567.345 81.068c7.377 0 13.341 5.965 13.341 13.42v69.296c0 2.59-.863 5.101-2.511 7.063-2.982 3.689-6.984 5.494-11.929 5.494-4.944 0-8.946-1.805-11.928-5.494-1.648-1.962-2.512-4.473-2.512-7.063V94.488c0-7.377 5.965-13.42 13.342-13.42h2.197z" fill="#733DFF"/><path d="M571.307 81.665l-5.572 2.788c7.294 5.06 10.941 9.55 10.941 13.475v37.133c0 6.671 1.496 18.492-.508 18.492l-.384.006c-1.84.05-7.321.398-16.444 1.043v9.996l21.119 1.464c.126-.62.2-1.253.221-1.893l.006-.385V94.488c0-6.06-3.941-11.136-9.379-12.823z" fill="#000" fill-opacity=".288"/><path fill-rule="evenodd" clip-rule="evenodd" d="M568.522 76.516c.707 0 1.334.628 1.334 1.335v5.886c0 .706-.549 1.334-1.334 1.334h-4.159c-.706 0-1.334-.628-1.334-1.334V77.85c0-.707.549-1.335 1.334-1.335h4.159z" fill="#94A5E5"/><path fill-rule="evenodd" clip-rule="evenodd" d="M562.95 78.086v-.235c0-.707.628-1.335 1.335-1.335h4.159c.706 0 1.334.628 1.334 1.335v.235c-.706.47-1.962.785-3.375.785-1.412 0-2.668-.314-3.453-.785z" fill="#BAC8FF"/><path d="M570.327 95.665c.942 0 1.727.785 1.727 1.727v28.095c0 .942-.785 1.726-1.727 1.726a1.741 1.741 0 01-1.726-1.726V97.392c0-1.02.785-1.727 1.726-1.727z" fill="#293181"/><path d="M568.601 100.688h3.453v24.721c0 .941-.785 1.726-1.727 1.726a1.742 1.742 0 01-1.726-1.726v-24.721z" fill="#FF623F"/><path d="M568.718 78.87c10.987 3.14 18.345 9.222 21.876 18.149 1.177 3.139 1.766 6.769 1.864 11.379.098 3.336-.098 5.984-.49 12.851-.197 3.63-.197 9.516 1.373 14.322 3.532 11.085 5.788 14.813 6.18 19.522.491 6.572-1.569 11.183-6.769 13.832-3.237 1.569-6.474 1.765-9.711.686-2.256-.784-4.12-1.863-7.063-4.022-2.747-2.06-3.336-2.452-4.415-2.943-.294-.196-.588-.294-.883-.392-3.139-.981-8.338.196-13.635 1.766l-1.864-6.082c6.376-1.864 12.851-3.139 17.363-1.668.589.196 1.177.392 1.766.687 1.57.785 2.158 1.177 5.395 3.531 4.807 3.532 7.063 4.317 10.203 2.747 2.648-1.275 3.629-3.433 3.237-7.652-.294-4.022-2.453-7.455-5.886-18.05-1.864-5.689-1.864-12.949-1.668-16.676.785-12.655.785-17.265-.883-21.484-2.746-6.965-8.534-11.673-17.657-14.322-1.177-1.177-1.57-2.55-1.079-4.022.392-1.57 1.373-2.256 2.746-2.158z" fill="#FF623F"/><path d="M485.728 40.024l-2.158-4.022a9.683 9.683 0 00-10.497-4.807l-13.341 2.845a9.707 9.707 0 00-7.554 8.338l-4.12 36.002c-.49 4.415 2.158 8.633 6.279 10.202l15.793 5.69 15.598-54.248z" fill="#959FFA"/><path d="M478.059 66.698l-2.086-35.42-1.038.38c-10.225 3.768-15.925 6.737-17.1 8.906l-.055.108c-1.581 3.308-4.324 2.93-5.094 8.969l-1.102 9.451c-1.023 8.962-2.212 20.803-1.456 24.657.155.791.363 1.61.625 2.456a9.808 9.808 0 003.584 2.377l6.866 2.475 13.807-13.754 3.049-10.605z" fill="#000" fill-opacity=".288"/><path d="M474.054 34.138c-2.256 1.08-6.965 3.924-14.028 8.535 2.943 62.586 4.513 94.86 4.905 96.724.491 2.845-6.769 36.591-5.788 39.141.981 2.453 2.747 4.316 3.924 5.003 1.177.687-1.373 6.671-1.373 7.848 0 1.177-.981 7.946-.589 10.104.393 2.158.589 5.69 5.101 5.69 4.513 0 5.396-3.336 4.905-6.671-.49-3.433-.686-3.532 0-5.493.687-1.962.098-2.355-.588-5.298-.785-3.041-.295-6.867.588-7.455.883-.589 4.317-2.943 4.905-5.199.589-2.257 6.573-30.313 6.573-34.335 0-2.746.49-21.348.49-21.348s3.237 19.583 3.237 21.054c0 2.158-.294 18.835-1.177 21.385-.785 2.649-.883 6.279 0 7.162.589.588.981.981 1.079 1.275-.784 5.297-.981 8.338-.588 9.221.588 1.275 4.807 1.275 7.063 4.414 2.256 3.14 4.316 4.611 7.75 4.611 3.433 0 6.572-.589 4.022-4.218-2.453-3.63-8.927-9.025-8.927-11.281V170.2c1.765-1.276 2.648-2.453 2.648-3.532 0-1.667 4.022-18.54 4.513-21.581.49-3.041.588-8.142 0-12.459-.589-4.316-2.551-33.059-3.924-36.688-1.373-3.63-2.158-3.924-2.158-5.396 0-1.471-.098-3.237.392-3.924.491-.686 1.275-1.471 1.472-2.55.196-1.08 2.648-12.459 1.863-23.347-.784-10.89-6.376-23.642-8.534-24.917-1.472-.883-3.532-1.374-6.278-1.57-5.298-1.177-9.222-1.177-11.478-.098z" fill="#733DFF"/><path d="M499.756 53.674s-13.495 10.108-18.639 9.109c-5.143-1-11.036-11.086-11.036-11.086l-9.351 25.947 4.663 20.65s3.779 1.147 4.688-2.418c.909-3.566-3.016-17.671 0-19.85 3.016-2.18 5.403 9.314 9.872 9.314 4.468 0 18.546-2.588 18.546-2.588l2.826-19.97-1.569-9.108z" fill="#000" fill-opacity=".288"/><path d="M485.928 139.753c.098 1.374.31 2.289.31 2.583 0 .687-.196 2.653 0 5.498 2.453.588 4.591 1.373 9.202 0 2.452-.687 6.278-2.551 7.749-3.434.098-2.452.393-5.559 0-8.109-.098-.785-.098-2.756-.686-4.251-3.924.981-8.535 2.943-9.908 3.728-1.472.98-2.645 1.729-6.667 3.985zm-22.37-28.51c3.826.294 7.421-.3 9.873.583 2.747.981 7.597 3.113 9.844 4.42 2.453-1.528 5.988-4.81 9.072-6.901 3.062-2.076 4.284-2.83 7.83-4.265-.528-4.542-.912-8.061-1.402-9.14-.785-2.06-1.288-2.747-1.681-3.532-3.531 2.355-6.167 4.513-7.835 6.769-1.962 2.55-3.727 6.573-5.493 12.066-2.453-4.316-5.395-8.436-8.731-12.066-3.139-3.532-7.357-5.788-12.556-6.769.588 7.063.883 13.44 1.079 18.835z" fill="#959FFA"/><path d="M461.694 102.022c.098.098.098.196.196.392.883 2.256-.294 2.453-.687 4.611-.392 2.256 1.033 11.436 2.504 12.908 0 1.974 3.55 3.386 4.139 3.778.588.392 2.481.775 3.658.481 1.177-.294-2.158-11.379-1.276-12.066.785-.687 3.14 2.158 4.219 2.747 1.079.49 1.765-1.178.49-3.238-1.177-2.06-4.898-8.142-5.683-9.221-.785-1.079.778-6.582.778-7.66 0-.295-.196-.972 0-1.365-1.373 0-2.648 0-3.924.196-1.177.295-2.746 7.652-4.414 8.437z" fill="#000" fill-opacity=".288"/><path d="M486.218 172.064c.098 0 .098 0 0 0-.784 5.395-.981 8.436-.588 9.319.588 1.275 4.807 1.275 7.063 4.414 2.256 3.139 4.316 4.611 7.75 4.611 3.433 0 6.572-.589 4.022-4.218-2.453-3.63-8.927-9.025-8.927-11.282V170.2c-1.668.588-3.336 1.079-4.905 1.373-1.472.294-2.943.491-4.415.491z" fill="#959FFA"/><path d="M485.63 181.383c.588 1.275 4.807 1.275 7.063 4.414 2.256 3.139 4.316 4.611 7.75 4.611l.529-.005c1.84-.037 3.511-.284 4.149-1.136-3.815.135-6.389-.122-7.722-.771-2.294-1.118-4.165-4.015-5.685-5.544-.829-.833-2.908-1.576-6.235-2.228.032.285.082.505.151.659zm-24.525 22.072c.393 2.158 1.766 5.085 5.11 5.085 3.085 0 5.279-2.374 4.964-5.516-.27 2.316-1.618 4.159-4.973 4.159-4.512 0-4.708-3.532-5.101-5.69a5.314 5.314 0 01-.065-.553c-.046 1.037-.039 1.94.065 2.515z" fill="#733DFF"/><path d="M463.165 183.639c.883.981-1.471 6.573-1.471 7.75 0 1.177-.981 7.946-.589 10.104.393 2.158.589 5.69 5.101 5.69 4.513 0 5.396-3.336 4.905-6.671-.49-3.433-.686-3.531 0-5.493.687-1.962.098-2.355-.588-5.298-.589-2.452-.393-5.395.098-6.768-.589.294-1.57.588-2.845.882-1.472.197-3.041.197-4.611-.196zm1.766-44.046c.098 1.079-.49 4.807-1.275 9.418 3.433 1.177 6.474 1.765 9.025 1.765 2.845 0 5.788-.392 8.927-1.079.588-3.433.981-6.082.981-7.063v-2.55c-3.237-.589-6.18-.883-8.731-.883-2.256 0-5.199.098-8.927.392z" fill="#959FFA"/><path d="M490.535 35.315c2.845.687 5.689 1.374 6.768 1.962 1.57.883 17.364 22.072 18.345 25.996.981 4.022.196 8.24-2.943 10.202-3.139 1.962-15.794 7.554-17.952 6.67-2.158-.784-1.57-1.176-3.237-.686-1.668.49-3.826 3.041-6.377 4.022-4.022 1.8-9.908-5.984-7.259-7.946.785-1.177 3.559-1.864 4.344-2.06 1.864-.49 2.915 0 3.406 0 1.177 0 2.648-.49 2.648-1.177s0-1.668.883-2.256c.883-.49 11.38-7.456 11.38-7.946 0-.49-1.048-7.115-3.206-13.099-2.845-8.142-5.231-12.799-6.8-13.682z" fill="#380085"/><path d="M486.022 73.612s-2.543-1.515-3.416-1.515c-.874 0-4.641-.082-4.9.555-.26.637 1.614 2.948 1.614 2.948l6.702-1.987z" fill="#5C66C0"/><path d="M487.922 73.037l-.145-.08c-.532.32-1.399.518-2.147.518-.467 0-1.444-.445-3.146-.063l-.26.063c-.785.196-3.559.883-4.344 2.06-2.614 1.937 3.086 9.545 7.102 8.011l.157-.065c2.551-.98 4.709-3.531 6.377-4.022l.335-.094c.202-.054.362-.09.497-.107l-.11-.363a20.42 20.42 0 00-1.122-2.87c-.525-1.073-1.59-2.07-3.194-2.988l-.145-.08.145.08z" fill="#959FFA"/><path fill-rule="evenodd" clip-rule="evenodd" d="M486.709 72.789c1.864-.393 3.629-.393 5.395 0 1.766.392 3.237 1.471 4.415 3.237l13.537-6.475c0-.98-.196-1.667-.785-2.158-.439-2.652-5.297-4.61-7.946-4.61-2.648 0-12.36 4.316-13.537 5.199-.687.686-1.079 2.256-1.079 4.807z" fill="#BAC8FF"/><path d="M498.316 72.094l10.889-4.8c.49.49.976.945.851 2.257l-13.537 6.475c-1.178-1.766-2.649-2.579-4.415-3.07-1.766-.392-3.531-.392-5.395 0 0-2.452.325-3.308 1.11-3.995 6.623-1.12 9.516 3.23 10.497 3.133z" fill="#5C66C0"/><path d="M504.764 57.738l-.017.006-.017.008a.68.68 0 01-.17.065.419.419 0 01-.085.007c-.399-.09-.625-.385-.565-.682l.002-.009.001-.008 4.118-32.161c.086-.335.236-.523.501-.59v.001l.013-.004 21.055-6.463h.231c.399.089.625.384.565.682l-.001.008-.001.009-4.12 31.783-.003.016v.016c0 .066-.034.156-.119.25a.728.728 0 01-.298.2s0 0 0 0l-21.09 6.866z" fill="#FF623F" fill-opacity=".28" stroke="#FF623F" stroke-width=".5"/><path d="M456.495 44.537c1.471-1.668 3.629-2.159 5.395-2.159 1.766 0 9.81 3.041 8.731 12.557-1.079 9.614-3.826 13.93-3.826 17.854 0 3.924.785 6.376 1.373 9.32.589 2.942 1.178 12.065.589 13.439-.589 1.373-1.864 2.942-1.864 3.923 0 1.079-.392 2.453.392 3.532.785 1.079 3.532 3.63 4.807 5.788 1.177 2.06.589 3.825-.49 3.237-1.079-.491-3.434-3.434-4.218-2.747-.785.687 1.471 11.772.294 12.066-1.177.294-1.57-1.275-2.158-1.667-.589-.393-4.415-.589-5.788-1.962-1.472-1.472-1.766-10.301-1.373-12.557.392-2.256 1.569-2.354.686-4.611-.883-2.256-2.845-2.256-3.335-4.022-.491-1.765-4.218-17.167-3.728-20.6.589-3.433 1.472-13.734 1.472-15.892-.098-2.256 1.569-13.832 3.041-15.5z" fill="#380085"/><path d="M458.751 100.06c.098.098.098.196.196.392.883 2.256-.294 2.453-.687 4.611-.392 2.256-.098 11.085 1.374 12.556 1.373 1.472 5.661 2.757 6.25 3.149.588.392 1.5 1.756 2.677 1.462 1.177-.294-1.177-11.379-.295-12.066.785-.687 3.14 2.158 4.219 2.747 1.079.49 1.765-1.178.49-3.238-1.177-2.06-5.046-5.687-5.665-6.753-.62-1.067-.295-2.524-.295-3.603 0-.294.098-.686.295-1.079-1.374 0-2.869.056-4.145.252a24.375 24.375 0 00-4.414 1.57zm.76-51.86c2.266.198 3.89 2.81 3.625 5.831-.264 3.023-2.316 5.312-4.583 5.114-2.267-.198-3.89-2.81-3.626-5.832.265-3.022 2.317-5.312 4.584-5.113z" fill="#959FFA"/><path d="M458.259 48.09c2.267.198 3.89 2.81 3.626 5.832-.265 3.022-2.317 5.312-4.583 5.113-2.267-.198-3.89-2.809-3.626-5.831.264-3.023 2.316-5.312 4.583-5.114zm38.554 2.627c-.098-.491-.491-.785-.981-.687l-23.151 3.531c-.491.098-.785.49-.687.981l1.472 10.497c.098.49.49.784.981.686l23.347-3.825c.49-.099.785-.49.687-.981l-1.668-10.202z" fill="#F8FCFF"/><path d="M484.892 33.9l-10.339-.06-1.367.71 6.988 9.006c.196.294.491.49.883.49l5.358-.883h.098a.785.785 0 00.588-1.08l-2.209-8.184z" fill="#380085"/><path fill-rule="evenodd" clip-rule="evenodd" d="M485.237 34.138h-11.085l6.769 8.437c.196.294.491.49.883.49l4.611-.883h.098a.785.785 0 00.588-1.079l-1.864-6.965z" fill="#BAC8FF"/><path d="M481.117 35.315c-2.354 0-4.61-.392-7.063-1.177.295-3.63.295-6.572 0-8.829-.392-3.335-.686-15.401 4.12-16.676 4.807-1.374 10.791.588 13.047 4.905 3.336 6.278-1.177 18.638-3.139 19.03-.686.197-1.667.099-3.041-.098v2.355c-.294.392-1.569.49-3.924.49z" fill="#FFA877"/><path d="M480.174 31.461c.821 1.253 1.795 2.046 2.923 2.38.709.209 1.358.303 1.945.284l-.001-1.655.215.03-.019-.032c-.891.002-1.668-.062-2.329-.194-.66-.131-1.572-.402-2.734-.813z" fill="#000" fill-opacity=".288"/><path d="M495.636 12.164c.686 1.373.098 6.67-3.139 6.67-3.336 0-7.848-3.335-9.32-3.335-1.373 0-1.079 5.101-2.06 5.396-.981.392.393-2.845-1.177-3.434-1.569-.588-2.452.295-2.452.785 0 .49-.393 3.826-1.668 4.61-.883.491-1.471.982-1.766 1.57-1.177-1.275-1.864-2.648-1.864-4.12 0-2.256 0-7.16.785-8.436.589-.883 1.668-1.864 3.434-2.845.686-2.354 1.765-3.433 3.041-3.433 2.06 0 4.708 1.765 5.787 1.765 1.08 0 5.003-.196 6.181.883 1.177 1.177.098 3.041.588 3.335.491.295 2.943-.784 3.63.59z" fill="#380085"/><path d="M462.881 19.718c0 10.613 8.604 19.217 19.217 19.217 10.614 0 19.218-8.604 19.218-19.217C501.316 9.104 492.712.5 482.098.5c-10.613 0-19.217 8.604-19.217 19.218z" fill="#9286FF" fill-opacity=".193" stroke="#ECEAFE"/><path opacity=".504" fill-rule="evenodd" clip-rule="evenodd" d="M493.744 13.402c-.741-1.746-.533-3.504.465-3.928.997-.423 2.406.649 3.147 2.394.741 1.746.533 3.504-.464 3.927-.998.424-2.407-.648-3.148-2.393z" fill="#fff"/><path fill-rule="evenodd" clip-rule="evenodd" d="M505.317 190.25l-.196-14.224c0-.687.392-1.276.981-1.57l18.638-9.515c.393-.197.785-.197 1.177-.197l34.433 7.26-54.248 19.717c-.491-.196-.785-.784-.785-1.471z" fill="#BAC8FF"/><path d="M505.317 190.25l-.196-14.224c0-.687.392-1.276.981-1.57l18.638-9.515c.393-.197.785-.197 1.177-.197l34.433 7.26 34.53 30.116c.393.294.589.784.589 1.275v13.832c0 .588-.294 1.177-.883 1.471l-20.797 12.164c-.588.295-1.177.295-1.766 0l-65.921-39.141c-.491-.196-.785-.784-.785-1.471z" fill="#959FFA"/><path d="M505.317 190.25l-.196-14.224c0-.687.392-1.276.981-1.57l18.638-9.515c.393-.197.785-.197 1.177-.197l34.433 7.26-54.248 19.717c-.491-.196-.785-.784-.785-1.471z" fill="#D0D4FF"/><path d="M521.994 176.516c3.25 0 5.885-.776 5.885-2.943s-2.242-3.864-5.493-3.864c-3.251 0-5.494 1.736-5.494 3.434 0 1.697 1.851 3.373 5.102 3.373z" fill="#5C66C0"/><path d="M522.19 176.908c2.709 0 4.905-1.317 4.905-2.942 0-1.626-2.196-2.943-4.905-2.943s-4.937 1.317-4.937 2.943c0 1.625 2.228 2.942 4.937 2.942z" fill="#F8FCFF"/><path d="M520.659 172.29l-.685.244 3.24 2.871.525-.416-3.08-2.699z" fill="#A4B6C5"/><path d="M572.906 231.157v-13.832c0-1.079-.49-2.158-1.373-2.747l-34.727-26.486-31.587-12.459c0 .196-.098.295-.098.491l.196 14.224c0 .589.294 1.177.883 1.471l65.922 39.141c.196.099.49.197.784.197z" fill="#5C66C0"/><path d="M587.188 189.392v-13.538c0-.589-.294-1.177-.882-1.471l-17.503-9.541c-.392-.196-.883-.294-1.275-.196l-32.233 5.813-38.16 31.685c-.393.295-.589.883-.589 1.374l.196 13.733c0 .589.295 1.178.883 1.472l20.699 11.968a1.878 1.878 0 001.766 0l66.314-39.73c.49-.392.784-.883.784-1.569z" fill="#F8FCFF"/><path d="M567.797 175.988c3.251 0 6.023-1.169 6.023-3.336s-2.243-3.863-5.494-3.863c-3.25 0-5.493 1.736-5.493 3.433 0 1.697 1.713 3.766 4.964 3.766z" fill="#5C66C0"/><path d="M568.13 175.988c2.709 0 4.905-1.318 4.905-2.943 0-1.626-2.196-2.943-4.905-2.943s-4.937 1.317-4.937 2.943c0 1.625 2.228 2.943 4.937 2.943z" fill="#F8FCFF"/><path d="M566.364 172.985v.648l4.056-.49v-.57l-4.056.412z" fill="#A4B6C5"/><path d="M535.295 170.459l-38.16 31.685c-.393.295-.589.883-.589 1.374l.196 13.733c0 .589.295 1.177.883 1.472l20.699 11.968a1.878 1.878 0 001.766 0l25.281-33.514-10.076-26.718z" fill="#D0D4FF"/><path d="M517.413 206.006c-4.063 0-7.357-2.196-7.357-4.905s3.294-4.905 7.357-4.905c4.064 0 7.358 2.196 7.358 4.905s-3.294 4.905-7.358 4.905z" fill="#5C66C0"/><path d="M517.413 206.006c-3.521 0-6.376-1.538-6.376-3.434 0-1.896 2.855-3.433 6.376-3.433 3.522 0 6.377 1.537 6.377 3.433s-2.855 3.434-6.377 3.434z" fill="#F8FCFF"/><path d="M520.354 201.101l.493.649-7.631 1.664-.279-.695 7.417-1.618z" fill="#A4B6C5"/><path d="M497.135 202.144c-.393.393-.687.883-.687 1.374l.196 13.635c0 .589.295 1.177.883 1.472l20.699 11.968c.294.196.686.294 1.079.196v-14.322c0-1.276-.687-2.453-1.766-3.041l-20.404-11.282z" fill="#5C66C0"/><path d="M586.992 175.167l-24.224 7.588-42.875 31.259c-.392.294-.588.785-.588 1.373v15.5c.196 0 .49-.098.686-.196l66.315-38.749c.588-.294.883-.883.883-1.471v-14.519c0-.294-.099-.588-.197-.785z" fill="#959FFA"/><path d="M560.35 172.004l34.53 30.116c.393.294.589.784.589 1.275l-22.563 13.091-27.022-.755-.513-21.676 14.979-22.051z" fill="#F8FCFF"/><path d="M573.329 205.025c-4.063 0-7.357-2.196-7.357-4.905s3.294-4.905 7.357-4.905c4.063 0 7.357 2.196 7.357 4.905s-3.294 4.905-7.357 4.905z" fill="#5C66C0"/><path d="M573.329 205.025c-3.521 0-6.376-1.538-6.376-3.434 0-1.896 2.855-3.433 6.376-3.433 3.522 0 6.376 1.537 6.376 3.433s-2.854 3.434-6.376 3.434z" fill="#F8FCFF"/><path fill="#A4B6C5" d="M573.82 199.139h-.981v4.905h.981z"/><path d="M572.906 231.157v-13.832c0-1.079-.49-2.158-1.373-2.747l-26.554-18.988.889 20.173 26.253 15.197c.197.099.491.197.785.197z" fill="#5C66C0"/><path d="M522.692 164.659l.553 16.361c.078 8.055 10.287 14.57 22.869 14.57 12.63 0 22.868-6.565 22.868-14.662 0-.51-.04-1.014-.12-1.511l-.341-14.758h-45.829z" fill="#959FFA"/><path d="M522.692 164.659l.553 16.361c.035 3.612 2.107 6.914 5.516 9.458l.001-25.82-6.07.001z" fill="#5C66C0"/><path d="M545.972 178.832c-12.832 0-23.28-6.348-23.28-14.224s10.448-14.224 23.28-14.224c12.833 0 22.826 6.348 22.826 14.224s-9.993 14.224-22.826 14.224z" fill="#F8FCFF"/><path d="M550.344 157.349l-19.639-3.481c-4.906 2.604-8.013 6.445-8.013 10.74 0 3.668 2.266 7.004 5.983 9.522l21.669-16.781-19.639-3.481 19.639 3.481z" fill="#D0D4FF"/><path d="M545.469 169.906c-6.772 0-12.262-3.075-12.262-6.867 0-3.793 5.49-6.867 12.262-6.867s12.262 3.074 12.262 6.867c0 3.792-5.49 6.867-12.262 6.867z" fill="#FF623F" fill-opacity=".2"/><path d="M570.75 135.467a3.11 3.11 0 00-1.548-2.689l-46.664-27.101a1.43 1.43 0 00-2.148 1.233l-.135 49.22a3.112 3.112 0 001.567 2.709l46.789 26.737a1.43 1.43 0 002.139-1.242v-48.867z" fill="#FF623F" fill-opacity=".28" stroke="#FF623F" stroke-width=".5"/><path d="M549.5 128.233c0-.509-.271-.98-.712-1.236l-23.332-13.551a.59.59 0 00-.887.509l-.066 20.183a1.43 1.43 0 00.721 1.246l23.393 13.368a.59.59 0 00.883-.512v-20.007zm17 10.364a3.11 3.11 0 00-1.48-2.648l-8.564-5.273a1.43 1.43 0 00-2.179 1.213l-.131 37.635a3.109 3.109 0 001.553 2.703l8.655 5.005a1.43 1.43 0 002.146-1.238v-37.397z" fill="#FF623F" fill-opacity=".193" stroke="#F8F8F8" stroke-width=".5"/><path d="M546.844 164.562v-7.968a.813.813 0 00-1.625 0v7.968a.813.813 0 101.625 0zm-4.25-2.124v-3.719a.813.813 0 00-1.625 0v3.719a.813.813 0 001.625 0zm-4.25-2.125v-5.844a.813.813 0 00-1.625 0v5.844a.813.813 0 001.625 0zm-12.75-8.5v-5.844a.813.813 0 00-1.625 0v5.844a.813.813 0 001.625 0zm4.25 2.125v-3.719a.813.813 0 00-1.625 0v3.719a.813.813 0 001.625 0zm4.25 3.187v-6.906a.813.813 0 00-1.625 0v6.906a.813.813 0 101.625 0z" fill="#FF623F" fill-opacity=".28" stroke="#FF623F" stroke-width=".5"/><path d="M404.432 230.428a2.254 2.254 0 01-1.125-1.95v-30.253c0-.796.42-1.533 1.105-1.938l7.092-4.203a2.254 2.254 0 012.286-.006l26.872 15.719a2.252 2.252 0 011.115 1.945v30.332c0 .811-.436 1.56-1.142 1.96l-7.027 3.982a2.253 2.253 0 01-2.239-.01l-26.937-15.578z" fill="#F8FCFF" stroke="#E9EBFF" stroke-width=".614"/><path d="M433.81 212.773l7.896-4.371c.221.362.35.77.374 1.197l.004.143v30.332a2.56 2.56 0 01-1.174 2.152l-.124.075-7.027 3.982a2.556 2.556 0 01-1.168.331l-.102-31.593a2.559 2.559 0 011.321-2.248z" fill="#5C66C0"/><path d="M413.81 191.739l.135.074 26.872 15.719c.37.216.672.517.889.87l-7.97 4.29a2.56 2.56 0 01-2.486-.032l-26.044-14.92a1.28 1.28 0 01-.207-2.074l.082-.066.454-.337 5.813-3.443a2.561 2.561 0 012.323-.146l.139.065z" fill="#D0D4FF"/><path d="M420.483 194.46a1.278 1.278 0 00-1.318-.001l-9.256 5.558a2.562 2.562 0 00-1.242 2.194v3.463l17.13 9.055c.58.306 1.275.306 1.855-.001l.06-.032a1.87 1.87 0 00.994-1.653c0-.667.356-1.284.935-1.619l8.757-5.062a.445.445 0 01.548.081l-.553-.887a2.563 2.563 0 00-.853-.839l-17.057-10.257z" fill="#380085"/><path d="M419.194 193.793a1.28 1.28 0 00-1.291.015l-9.274 5.569a2.562 2.562 0 00-1.242 2.195v2.711c0 .463.251.891.656 1.117l17.479 9.763a1.28 1.28 0 001.904-1.118V212.8a2.56 2.56 0 011.278-2.215l8.088-4.684a1.28 1.28 0 011.319.022l.835.52-.092-.456a2.557 2.557 0 00-1.244-1.723l-18.416-10.471z" fill="#959FFA"/><path d="M419.141 196.949l.067.037s13.218 7.401 13.428 7.808c.159.309-2.333 1.825-3.535 2.533-.39.229-.87.228-1.262.004l-12.997-7.401a.634.634 0 01-.104-1.03l.041-.033.227-.167 2.904-1.71c.356-.21.788-.234 1.161-.073l.07.032z" fill="#380085"/><path d="M407.5 211.302l18.928 10.49a1.12 1.12 0 001.086-1.96l-18.928-10.489a1.12 1.12 0 10-1.086 1.959z" fill="#FF623F"/><path d="M417.4 198.967v-6.771a1.28 1.28 0 011.911-1.114l8.662 4.907a2.558 2.558 0 011.299 2.227v7.202" stroke="#733DFF" stroke-width="2.88" stroke-linecap="round"/><path d="M407.844 201.191l19.046 10.859a.48.48 0 10.477-.833l-19.046-10.859a.48.48 0 00-.477.833z" fill="#D0D4FF"/><defs><linearGradient id="paint0_linear" x1="1471.24" y1="116.833" x2="1397.9" y2="586.498" gradientUnits="userSpaceOnUse"><stop stop-color="#A8A8A8"/><stop offset="1" stop-color="#F6F6F6"/></linearGradient></defs></svg>