<svg width="1364" height="755" fill="none" xmlns="http://www.w3.org/2000/svg"><path d="M1060-123l4.48 264.839c.01.718.41 1.374 1.04 1.72l136.4 74.816c1.33.731 2.96-.233 2.96-1.753V104.7a1.999 1.999 0 012.81-1.827L1367 173.678" stroke="#CCC" stroke-opacity=".5"/><path opacity=".4" d="M625.025 194.787v172.478c0 .802-.48 1.527-1.219 1.841l-79.16 33.593a2 2 0 00-1.219 1.841V752" stroke="#CCC"/><circle cx="624.554" cy="188.5" r="5.5" fill="#CCC" fill-opacity=".3"/><path d="M984.5 317L1372 546.865V751.5H-26L984.5 317z" fill="url(#paint0_linear)" fill-opacity=".2"/><path d="M853.99 511.116l.213.095 30.4 15.52a2.854 2.854 0 011.594 2.364l.006.196-.32 23.2c0 1.054-.425 1.967-1.142 2.337l-.138.063-3.411 2.024 18.037 14.976c.228.172.416.405.563.67.338.491.557 1.031.557 1.57l-.32 22.24c0 .668-.232 1.336-.697 1.842l-.146.147a2.585 2.585 0 01-.757.571l-33.76 19.52c-.96.48-1.92.48-2.88 0l-.127-.167-41.906-24.486-.012.306-42.821 24.787c-.32.16-.8.32-1.28.32l.001-.12c-.416 0-.833-.09-1.249-.27l-.192-.09-33.92-19.84c-.9-.45-1.378-1.322-1.434-2.22l-.006-.18v-22.56c0-.738.273-1.477.818-1.964l.142-.116 17.007-14.834-3.021-1.766c-.96-.48-1.44-1.44-1.44-2.4v-23.68c0-.48.16-.96.32-1.28l27.617 8.65 15.837-13.81 56.16-11.84c.569 0 1.138 0 1.707.225zM771.543 692.79c14.636 0 26.5-6.716 26.5-15 0-8.285-11.864-15-26.5-15-14.635 0-26.5 6.715-26.5 15 0 8.284 11.865 15 26.5 15zm188-125.001c14.636 0 26.5-6.716 26.5-15 0-8.284-11.864-15-26.5-15-14.635 0-26.5 6.716-26.5 15 0 8.284 11.865 15 26.5 15zm74.997 63c14.64 0 26.5-6.716 26.5-15 0-8.284-11.86-15-26.5-15-14.63 0-26.5 6.716-26.5 15 0 8.284 11.87 15 26.5 15zm153 49.001c14.64 0 26.5-6.716 26.5-15 0-8.285-11.86-15-26.5-15-14.63 0-26.5 6.715-26.5 15 0 8.284 11.87 15 26.5 15zm91.5-65.001c11.6 0 21-5.373 21-12s-9.4-12-21-12c-11.59 0-21 5.373-21 12s9.41 12 21 12zm-250-142c11.6 0 21-5.373 21-12s-9.4-12-21-12c-11.59 0-21 5.373-21 12s9.41 12 21 12zm28.5 181.001c8.42 0 15.93 2.222 20.78 5.687 3.66-1.078 7.81-1.687 12.22-1.687 14.64 0 26.5 6.715 26.5 15 0 8.284-11.86 15-26.5 15-8.42 0-15.92-2.223-20.77-5.688-3.66 1.078-7.82 1.688-12.23 1.688-14.63 0-26.5-6.716-26.5-15 0-8.285 11.87-15 26.5-15z" fill="#000" fill-opacity=".13"/><path d="M1363.9 620.016L901.709 352.152V115.867l462.111 267.544.08 236.605z" fill="#FCFCFC" stroke="#D4D4FF"/><path d="M1017.07 182.536V330.18c0 .688.36 1.328.94 1.693l7.23 4.545c.59.366.94 1.006.94 1.694v20.952m-84.743-220.107v55.695c0 .709.376 1.366.987 1.725l17.318 10.165a2 2 0 01.987 1.725v112.921" stroke="#CCDCEA"/><circle cx="431.5" cy="255.5" r="5.5" fill="#CCC" fill-opacity=".3"/><path opacity=".4" d="M397 1v76.06a2 2 0 001.181 1.824l31.964 14.352a2 2 0 011.18 1.824V249" stroke="#CCC"/><circle cx="938.103" cy="618.413" r="4.413" fill="#CCC" fill-opacity=".3"/><path opacity=".4" d="M938.506 623.628v39.209c0 .532-.212 1.043-.59 1.418l-6.844 6.805a2 2 0 00-.589 1.418V752M14 0v234.56a2 2 0 00.716 1.533l54.569 45.72c.453.38.715.942.715 1.533V755" stroke="#CCC"/><path d="M921 298v30.467c0 .707.374 1.362.982 1.722l15.036 8.89c.609.36.982 1.014.982 1.721V373m374.97-17.39v90.302c0 1.523-1.63 2.488-2.96 1.75l-10.47-5.786c-1.33-.737-2.96.227-2.96 1.751v74.658m27.27 12.817v44.53c0 .715.38 1.375 1 1.732l15.25 8.794c1.33.769 3-.194 3-1.733v-12.742c0-1.523 1.64-2.488 2.97-1.749l18.57 10.285" stroke="#CCDCEA"/><path fill-rule="evenodd" clip-rule="evenodd" d="M1030.17 357.182L901.209 282.44v10l128.961 74.741v-9.999zM1364.4 550.88l-84.66-49.062v9.999l84.66 49.066V550.88z" fill="#959FFA"/><path d="M1035.17 192.666l244.57 141.592V571.92l-244.57-141.738V192.666z" fill="#9286FF" fill-opacity=".193"/><path d="M1030.17 189.666l244.57 141.592V574.92l-244.57-141.738V189.666z" fill="#9286FF" fill-opacity=".193"/><path d="M1171.92 447.481a.754.754 0 01-.34-.97l37.77-84.178c.28-.633 1.2-.574 1.4.09l37.45 123.859a.752.752 0 01-1.07.881l-75.21-39.682z" fill="#9286FF" fill-opacity=".193" stroke="#F8F8F8" stroke-width=".5"/><path d="M1201.97 424.337c3.4-.848 5.29-5.032 4.21-9.344-1.07-4.312-4.7-7.119-8.11-6.271-3.4.849-5.29 5.033-4.22 9.345 1.08 4.312 4.71 7.119 8.12 6.27z" fill="#380085"/><path d="M1200.02 417.864l-8.47 25.685 26.26-6.882" stroke="#380085" stroke-width="2.118"/><path d="M1221.19 447.03c4.66-1.161 7.24-6.886 5.77-12.787-1.47-5.901-6.44-9.742-11.1-8.581-4.66 1.162-7.24 6.886-5.77 12.787 1.47 5.901 6.44 9.742 11.1 8.581zm-28.51.277c2.04-.509 3.19-2.946 2.57-5.442-.63-2.496-2.79-4.107-4.83-3.598-2.04.509-3.19 2.946-2.57 5.442.62 2.496 2.78 4.107 4.83 3.598z" fill="#380085"/><path d="M1055.99 383.481a.74.74 0 01-.33-.97l37.76-84.178c.28-.633 1.2-.574 1.4.09l37.45 123.859a.752.752 0 01-1.07.881l-75.21-39.682z" fill="#9286FF" fill-opacity=".193" stroke="#F8F8F8" stroke-width=".5"/><path d="M1086.04 360.337c3.4-.848 5.29-5.032 4.21-9.344-1.07-4.312-4.7-7.119-8.11-6.271-3.4.849-5.29 5.033-4.21 9.345 1.07 4.312 4.7 7.119 8.11 6.27z" fill="#380085"/><path d="M1084.09 353.864l-8.47 25.685 26.26-6.882" stroke="#380085" stroke-width="2.118"/><path d="M1105.26 383.03c4.66-1.161 7.24-6.886 5.77-12.787-1.47-5.901-6.44-9.742-11.1-8.581-4.66 1.162-7.24 6.886-5.77 12.787 1.47 5.901 6.44 9.742 11.1 8.581zm-28.51.277c2.04-.509 3.19-2.946 2.57-5.442-.62-2.496-2.78-4.107-4.83-3.598-2.04.509-3.19 2.946-2.57 5.442.63 2.496 2.79 4.107 4.83 3.598z" fill="#380085"/><path d="M1152.46 260.418V503.92" stroke="#C4C5FF" stroke-width="2.5"/><path d="M1290.24 590.829v11.16h-.01c-.3 5.798-7.83 10.44-17.09 10.44-9.25 0-16.79-4.642-17.09-10.44h-.01v-11.16h34.2z" fill="#F8FCFF"/><path d="M1290.24 590.829v11.16h-.01c-.24 4.781-5.41 8.776-12.41 10.031l-.51-21.191h12.93z" fill="#D6D9FB"/><path d="M1273.14 601.989c9.45 0 17.1-4.835 17.1-10.8 0-5.965-7.65-10.8-17.1-10.8-9.44 0-17.1 4.835-17.1 10.8 0 5.965 7.66 10.8 17.1 10.8z" fill="#D6D9FB"/><path d="M1272.96 598.389c6.76 0 12.24-3.465 12.24-7.74s-5.48-7.74-12.24-7.74-12.24 3.465-12.24 7.74 5.48 7.74 12.24 7.74z" fill="#1B215B"/><path d="M1272.54 590.889s.18-11.099-2.67-25.827c-2.86-14.728-7.29-23.315-7.29-23.315s4.2 20 4.99 25.372c.79 5.371 3.06 23.71 3.06 23.71l1.91.06z" fill="#733DFF"/><path d="M1268.64 559.539l-.02-.274c.44 1.846.85 3.778 1.25 5.797 1.86 9.585 2.75 18.017 2.68 25.297l-.01.53-1.07-.033-.08-.468c-.5-2.938-1.05-8.207-1.64-15.807l-.34-4.455c-.17-2.252-.34-4.672-.53-7.262l-.26-3.599.02.274z" fill="#000" fill-opacity=".275"/><path d="M1275.39 590.589s-.58-1.993 1.18-10.714c1.76-8.721 3.47-11.486 3.47-11.486s-1.1 4.945-1.59 8.125c-.49 3.181-1.88 14.04-1.88 14.04l-1.18.035z" fill="#733DFF"/><path d="M1275.94 590.572l-.55.017c-.39-1.329 0-4.9 1.18-10.714l.18-.896c.46-2.201.92-4.096 1.37-5.685l-.9 7.054c-.38 2.978-.81 6.386-1.28 10.224z" fill="#000" fill-opacity=".275"/><path d="M1273.39 590.889s-.94-3.366 1.92-18.094c2.86-14.729 5.64-19.399 5.64-19.399s-1.79 8.351-2.58 13.723c-.79 5.371-3.06 23.71-3.06 23.71l-1.92.06zm-3.09-.3s.58-1.993-1.18-10.714c-1.76-8.721-4.87-16.766-4.87-16.766s2.5 10.225 2.99 13.405c.48 3.181 1.88 14.04 1.88 14.04l1.18.035z" fill="#733DFF"/><path d="M1271.59 590.889s.42-23.699 3.28-38.427c2.86-14.728 7.28-23.316 7.28-23.316s-4.19 20.001-4.98 25.372c-.79 5.372-3.66 36.311-3.66 36.311l-1.92.06z" fill="#733DFF"/><path d="M1274.14 572.674l.02.18c.22 2.032.35 4.23.42 6.593l-.52 5.434c-.18 1.897-.36 3.88-.55 5.948l-.84.027-.06-.355c-.27-1.532-.54-3.724-.84-6.578.25-7.051.68-13.432 1.3-19.142l.35 2.383c.34 2.338.58 4.174.72 5.51z" fill="#000" fill-opacity=".275"/><path d="M1272.13 591.189s-.85-4.359-1.91-18.335c-1.07-13.977-2.65-37.825-2.65-37.825s5.2 30.289 5.99 37.825c.8 7.535.18 18.099.18 18.099l-1.61.236z" fill="#733DFF"/><path d="M1284.7 522.249c0 1.906-1.22 3.704-3.35 5.051-2.12 1.342-5.09 2.189-8.39 2.189-3.3 0-6.26-.847-8.38-2.189-2.13-1.347-3.36-3.145-3.36-5.051 0-1.905 1.23-3.703 3.36-5.05 2.12-1.343 5.08-2.19 8.38-2.19 3.3 0 6.27.847 8.39 2.19 2.13 1.347 3.35 3.145 3.35 5.05z" fill="#9286FF" fill-opacity=".193" stroke="#ECEAFE"/><path d="M1272.96 514.289c3.66 0 6.95.927 9.33 2.405 2.39 1.481 3.79 3.47 3.85 5.592v68.661c-.05 2.127-1.45 4.121-3.83 5.608-2.38 1.483-5.68 2.414-9.35 2.414-3.61 0-6.88-.907-9.25-2.357-2.37-1.451-3.8-3.403-3.92-5.491l-.01-68.689.01-.146c.06-2.122 1.46-4.111 3.84-5.592 2.38-1.478 5.68-2.405 9.33-2.405z" fill="#9286FF" fill-opacity=".193" stroke="#ECEAFE"/><path d="M1040.24 446.829v11.16h-.01c-.3 5.798-7.83 10.44-17.09 10.44-9.25 0-16.79-4.642-17.09-10.44h-.01v-11.16h34.2z" fill="#F8FCFF"/><path d="M1040.24 446.829v11.16h-.01c-.24 4.781-5.41 8.776-12.41 10.031l-.51-21.191h12.93z" fill="#D6D9FB"/><path d="M1023.14 457.989c9.45 0 17.1-4.835 17.1-10.8 0-5.965-7.65-10.8-17.1-10.8-9.44 0-17.1 4.835-17.1 10.8 0 5.965 7.66 10.8 17.1 10.8z" fill="#D6D9FB"/><path d="M1022.96 454.389c6.76 0 12.24-3.465 12.24-7.74s-5.48-7.74-12.24-7.74-12.24 3.465-12.24 7.74 5.48 7.74 12.24 7.74z" fill="#1B215B"/><path d="M1022.54 446.889s.18-11.099-2.67-25.827c-2.86-14.728-7.29-23.315-7.29-23.315s4.2 20 4.99 25.372c.79 5.371 3.06 23.71 3.06 23.71l1.91.06z" fill="#733DFF"/><path d="M1018.64 415.539l-.02-.274c.44 1.846.85 3.778 1.25 5.797 1.86 9.585 2.75 18.017 2.68 25.297l-.01.53-1.07-.033-.08-.468c-.5-2.938-1.05-8.207-1.64-15.807l-.34-4.455c-.17-2.252-.34-4.672-.53-7.262l-.26-3.599.02.274z" fill="#000" fill-opacity=".275"/><path d="M1025.39 446.589s-.58-1.993 1.18-10.714c1.76-8.721 3.47-11.486 3.47-11.486s-1.1 4.945-1.59 8.125c-.48 3.181-1.88 14.04-1.88 14.04l-1.18.035z" fill="#733DFF"/><path d="M1025.94 446.572l-.55.017c-.39-1.329 0-4.9 1.18-10.714l.18-.896c.46-2.201.92-4.096 1.37-5.685l-.9 7.054c-.38 2.978-.81 6.386-1.28 10.224z" fill="#000" fill-opacity=".275"/><path d="M1023.39 446.889s-.94-3.366 1.92-18.094c2.86-14.729 5.64-19.399 5.64-19.399s-1.79 8.351-2.58 13.723c-.79 5.371-3.06 23.71-3.06 23.71l-1.92.06zm-3.09-.3s.58-1.993-1.18-10.714c-1.76-8.721-4.87-16.766-4.87-16.766s2.5 10.225 2.99 13.405c.48 3.181 1.88 14.04 1.88 14.04l1.18.035z" fill="#733DFF"/><path d="M1021.59 446.889s.42-23.699 3.28-38.427c2.86-14.728 7.28-23.316 7.28-23.316s-4.19 20.001-4.98 25.372c-.79 5.372-3.66 36.311-3.66 36.311l-1.92.06z" fill="#733DFF"/><path d="M1024.14 428.674l.02.18c.22 2.032.35 4.23.42 6.593l-.52 5.434c-.18 1.897-.36 3.88-.55 5.948l-.84.027-.06-.355c-.27-1.532-.54-3.724-.84-6.578.25-7.051.68-13.432 1.3-19.142l.35 2.383c.34 2.338.58 4.174.72 5.51z" fill="#000" fill-opacity=".275"/><path d="M1022.13 447.189s-.85-4.359-1.91-18.335c-1.07-13.977-2.65-37.825-2.65-37.825s5.2 30.289 5.99 37.825c.8 7.535.18 18.099.18 18.099l-1.61.236z" fill="#733DFF"/><path d="M1034.7 378.249c0 1.906-1.22 3.704-3.35 5.051-2.12 1.342-5.09 2.189-8.39 2.189-3.3 0-6.26-.847-8.38-2.189-2.13-1.347-3.36-3.145-3.36-5.051 0-1.905 1.23-3.703 3.36-5.05 2.12-1.343 5.08-2.19 8.38-2.19 3.3 0 6.27.847 8.39 2.19 2.13 1.347 3.35 3.145 3.35 5.05z" fill="#9286FF" fill-opacity=".193" stroke="#ECEAFE"/><path d="M1022.96 370.289c3.66 0 6.95.927 9.33 2.405 2.39 1.481 3.79 3.47 3.85 5.592v68.661c-.05 2.127-1.45 4.121-3.83 5.608-2.38 1.483-5.68 2.414-9.35 2.414-3.61 0-6.88-.907-9.25-2.357-2.37-1.451-3.8-3.403-3.92-5.491l-.01-68.689.01-.146c.06-2.122 1.46-4.111 3.84-5.592 2.38-1.478 5.68-2.405 9.33-2.405z" fill="#9286FF" fill-opacity=".193" stroke="#ECEAFE"/><path d="M1034.59 455.241c3.48-4.189 28.87 3.433 31.52 6.747 2.65 3.315.76 43.962-2.14 48.045-2.91 4.083-8.96 3.997-8.96 3.997l-27.13-8.936s2.76-45.079 6.71-49.853z" fill="#959FFA"/><path d="M1034.59 455.241c3.48-4.189 23.98-.517 31.52 6.747 7.53 7.265.76 43.962-2.14 48.045-2.91 4.083-8.96 3.997-8.96 3.997l-27.13-8.936s2.76-45.079 6.71-49.853z" fill="#959FFA"/><path d="M1051.4 459.403c7.99 2.393 13.64 6.668 15.86 9.966 2.22 3.297-.41 26.253-1.78 34.962l-13.11 8.829-.04-.014-20.39-48.485.15-.869c.58-3.279 1.21-5.919 1.88-7.462 5.15.109 10.96 1.133 17.43 3.073z" fill="#000" fill-opacity=".288"/><path d="M1011.34 481.633l17.33-8.238s4.82-15.158 1.37-15.098c-3.46.06-21.12 10.419-27.45 16.626-6.327 6.208-12.202 23.28-12.202 23.28l5.155 4.519 15.797-21.089z" fill="#380085"/><path d="M1027.78 460.503l-.29 13.453-16.15 7.678-15.696 20.954-.007-.045c-.021-.142-.04-.292-.057-.452l2.053-3.135 2.287-3.468c5.52-8.327 9.1-13.426 10.75-15.297l1.21-1.345c1.9-2.123 5.25-5.97 10.05-11.539l5.85-6.804z" fill="#000" fill-opacity=".288"/><path d="M996.008 497.228c-.407-1.224-4-1.841-5.048.088-1.049 1.929-1.472 4.267-.973 7.226.498 2.959 5.614 6.531 6.603 6.513.989-.017-.947-2.583-1.012-6.321-.066-3.737.837-6.282.43-7.506z" fill="#959FFA"/><path d="M995.436 496.605l.263 1.215c.126.594.245 1.166.357 1.717l-.115.66c-.209 1.265-.393 2.832-.363 4.537.039 2.233.892 4.249 1.301 5.516-.138.122-.31.149-.515.08-.735-.245-4.092-2.979-4.772-4.222-1.361-2.486.074-4.515.7-6.253l.06-.173c.581-1.756 1.609-2.782 3.084-3.077z" fill="#000" fill-opacity=".288"/><path fill-rule="evenodd" clip-rule="evenodd" d="M1020.49 510.499c.05 3.054-4.44 5.608-10.04 5.706-5.6.098-10.18-2.299-10.23-5.352-.06-3.053 4.44-5.608 10.04-5.706 5.6-.097 10.18 2.299 10.23 5.352zm-18.42.783c.03 2.009 3.66 4.083 8.36 4.001 4.71-.082 8.26-2.282 8.22-4.291-.03-2.009-3.66-4.084-8.36-4.002-4.7.082-8.26 2.283-8.22 4.292z" fill="#5C66C0"/><path d="M1026.88 498.849c.16 9.139-7.12 16.677-16.25 16.836-9.14.16-16.681-7.119-16.841-16.258-.159-9.139 7.121-16.676 16.261-16.836 9.14-.159 16.67 7.12 16.83 16.258z" fill="#9286FF" fill-opacity=".193" stroke="#ECEAFE"/><path d="M996.196 495.353c.417.615-.04.623-1.79 2.78l-.186.233c-.431.55-1.001 2.07-.877 3.085.124 1.014 1.68 3.15 2.418 3.566.737.416 3.958 2.83 3.731 3.2-.403.655-2.864-.598-6.405-2.592l.575.38c2.874 1.912 5.626 3.398 5.181 4.329-.445.932-2.852-1.087-5.72-2.629-1.443-.776-1.18-.633-1.596-1.165-.683-.875-1.689-.83-1.749-4.284-.06-3.455 1.782-4.814 2.522-5.574 1.969-1.725 3.479-1.943 3.896-1.329z" fill="#959FFA"/><path opacity=".504" fill-rule="evenodd" clip-rule="evenodd" d="M1000.67 493.131c.57-1.416.27-2.873-.678-3.254-.943-.381-2.172.457-2.744 1.873-.572 1.416-.271 2.873.673 3.254.944.381 2.169-.457 2.749-1.873z" fill="#fff"/><path d="M1030.79 596.69s-.95 8.465-.81 10.482c.13 2.016 1.07 5.909.13 6.617-.45.344-1.26.709-2.46 1.004-1.27.311-2.96.582-4.05 2.128-2.12 3.014-4.79 3.926-7.12 4.246-2.32.321-4.03-.49-4.29-1.894-.26-1.404.1-3.244 2.35-5.133 2.26-1.889 6.93-6.016 7-7.411.07-1.394-.08-9.49-.08-9.49l9.33-.549z" fill="#959FFA"/><path d="M1029.69 596.755l1.1-.065-.24 2.227c-.44 4.206-.64 6.918-.58 8.138l.01.117c.13 2.016 1.07 5.909.13 6.617-.42.318-1.13.653-2.19.935l-.27.069c-1.27.311-2.96.582-4.05 2.128-1.89 2.69-4.22 3.706-6.36 4.121 1.58-3.957 8.59-9.494 9.3-10.348.6-.717 1.14-4.12 1.64-10.208l.1-1.314 1.41-2.417z" fill="#000" fill-opacity=".275"/><path d="M1030.11 613.788c-.42.319-1.13.654-2.19.936l-.27.069c-1.27.311-2.96.582-4.05 2.128-2.12 3.013-4.79 3.926-7.12 4.246-2.01.277-3.55-.29-4.1-1.355 2.22.488 4.07.494 5.56.019 2.35-.751 4.87-4.203 6.27-4.986 1.4-.782 2.34-.814 4.72-1.595a9.361 9.361 0 001.58-.658c-.03.569-.14 1.002-.4 1.196z" fill="#733DFF"/><path d="M1056.3 600.342c.05 2.308.23 5.975 1.53 9.561 1.04 2.866 3.1 5.791 4.06 7.104 2.14 2.957.52 7.771-2.7 7.827-3.15.055-6.73-2.135-6.9-5.152l-.01-.224c-.06-3.165-2.27-4.349-3.7-5.972-.69-.778-.08-4.636-.12-6.677-.04-2.041-.11-6.328-.11-6.328l7.95-.139z" fill="#959FFA"/><path d="M1057.83 609.903c1.04 2.865 3.1 5.791 4.06 7.104.92 1.267 1.14 2.875.85 4.303l-.63-.858c-2.36-3.231-3.99-5.778-4.9-7.644-1.08-2.206-1.7-5.702-1.88-10.491l-.02-.518 1.02-.508.03.715c.12 2.218.45 5.083 1.47 7.897z" fill="#000" fill-opacity=".288"/><path d="M1051.9 615.29c1.53 1.93.76 4.436 2.31 5.954 1.09 1.071 3.3 2.409 5.51 2.114.65-.086 1.53-.384 2.65-.892-.6 1.352-1.73 2.343-3.18 2.368-3.15.055-6.73-2.135-6.9-5.152l-.01-.224c-.06-3.165-2.27-4.349-3.7-5.972-.28-.317-.35-1.145-.33-2.153 1.52 1.488 2.74 2.807 3.65 3.957zm-27.41-101.643s-5.07 41.41-4.99 45.682c.07 4.272-.39 33.861.67 38.243 1.05 4.382 10.04 4.806 11.33.906.5-1.499 3.19-17.122 3.8-27.45.19-3.23-.15-5.776-.12-6.882.02-.726 1.1-1.966 1.37-5.115.47-5.37 2.3-21.972 2.3-21.972l2.44 22.02s1.17 4.745 1.42 6.746c.27 2.181 0 4.549.09 5.508 2.05 20.874 2.82 28.214 3.2 29.378 1.28 3.963 10.51 6.377 11.32-.198.8-6.574-.66-82.087-.66-82.087l-32.17-4.779z" fill="#733DFF"/><path d="M1057.36 559.626l.08 5.479c.03 2.437.05 4.75.07 6.94-2.56.265-4.85.267-6.86.005-1.93-.253-4.56-.833-7.86-1.741l.03-1.325c.02-.972.02-2.088-.11-3.16l-.06-.417c-.17-1.108-.49-2.707-.99-4.797 3.87-1.015 6.79-1.578 8.76-1.69 1.89-.108 4.21.127 6.94.706zm-30.07-3.756l.58.214c2.11.791 4.98 2.021 8.59 3.692-.36 2.607-1.26 3.704-1.28 4.369-.01.656.1 1.817.15 3.325-3.97.831-7.06 1.197-9.28 1.099-1.87-.083-4.06-.536-6.57-1.358l.03-6.326c0-.599 0-1.083-.01-1.432v-.124c-.02-.821.11-2.672.38-5.552 2.85.642 5.32 1.34 7.41 2.093z" fill="#959FFA"/><path d="M1037.52 533.186l1.31 4.041-1.23 11.299c-.51 4.852-.86 8.354-1.05 10.505-.27 3.149-1.35 4.388-1.37 5.114v.281c.02 1.17.27 3.422.14 6.232l-.02.369c-.61 10.329-3.3 25.952-3.8 27.45-.42 1.275-1.67 2.087-3.19 2.451l.95-14.447c.52-8.284.88-14.387 1.07-18.307l.06-1.338c.24-5.657 2.49-16.383 6.73-32.177l.4-1.473z" fill="#000" fill-opacity=".288"/><path d="M1029.25 458.387c5.07-.857 8.96.536 15.02 1.198 5.96.76 12.08 4.494 15.39 6.932 3.3 2.439 5.2 12.007 1.12 20.624-4.07 8.712-4.26 14.095-4.94 19.579-.76 5.487-.67 16.14-.67 16.14s-19.21-.675-24.23-2.755c-2.38-.985-7.45-3.232-5.79-10.237.92-3.927.45-6.504.38-10.765-.08-4.26-1.23-6.216-1.59-10.38-.57-6.69-.37-13.19-.24-14.026.47-6 2.44-13.893 5.55-16.31z" fill="#733DFF"/><path d="M1029.2 510.548l.42.361c2.08 1.785 5.03 5.01 8.87 9.674l.78-.828c3.9-4.048 7.05-6.707 9.46-7.979l2.18-1.108c1.63-.836 3.8-1.973 6.52-3.411l.21 11.222c-2.31.593-4.26 1.217-5.87 1.872-3.02 1.232-7.41 3.779-13.16 7.642-5-4.072-8.81-6.879-11.44-8.423a39.582 39.582 0 00-3.07-1.597l.36-2.724c.32-2.289.7-4.978 1.15-8.066a79.202 79.202 0 003.59 3.365z" fill="#959FFA"/><path d="M1053.38 475.848c3.75.344 6.98 1.02 9.69 2.027a24.284 24.284 0 01-2.04 8.72l-.25.546c-4.07 8.713-4.26 14.095-4.94 19.58-.35 2.557-.57 5.955-.65 10.196 0 .099-.02.19-.04.276l.04.006-.02 1.532a142.05 142.05 0 000 4.13l.74 4.801.37 2.435c.24 1.599.47 3.151.68 4.654l.2 11.447c.53 32.716.59 50.821.16 54.315-.16 1.249-.61 2.173-1.26 2.824l-.01.008c-.2-.156-.41-.58-.64-1.24l-.45-7.464c-.55-9.461-.93-17.055-1.13-22.782l-.06-1.765c-.28-9.19-1.34-16.945-1.48-24.462-.07-3.878.73-8.14.69-11.564-.01-1.209-5.54 2.692-6.65.777-.76-1.292 4.15-9.069 4.53-12.663l.09-.868c.11-1.139.21-2.348.31-3.61l.16-2.058c.97-13.745 1.27-32.236 1.28-35.423l-.02-1.442.01-.965c.04-2.361.27-3.017.69-1.968z" fill="#000" fill-opacity=".288"/><path d="M1053.11 471.258c-1.83 5.81 3.24 27.307 3.24 27.307s-2.86 24.491-2.3 26.663c.56 2.172 8.28 1.762 9.67-.169 1.39-1.93 4.14-23.693 4.06-28.207-.08-4.513-1.92-19.638-4.78-25.767-2.86-6.129-8.07-5.637-9.89.173z" fill="#380085"/><path d="M1061.97 469.598l-.04-.375c.38.534.74 1.154 1.07 1.862 2.81 6.022 4.63 20.726 4.77 25.52l.01.247c.08 4.514-2.67 26.277-4.06 28.207-.15.202-.36.388-.63.555l.34-2.795c1.15-9.551 1.68-16.654 1.6-21.31l-.03-1.03c-.17-4.91-.98-13.541-2.43-25.891l-.64-5.365.04.375z" fill="#000" fill-opacity=".288"/><path d="M1062.84 526.073c.22 1.041.64 7.274.5 7.99-.06.33-.13 2.361-.38 4.265-.14 1.008-.47 1.35-.66 1.398-.5.12-.71-1.407-.89-2.096-.14-.535-.28-1.462-.42-2.783-.2 1.732-.31 2.919-.35 3.561-.12 2.369-.33 3.827-1.1 3.795-.77-.033-.74-1.433-.89-3.97-.03-.543.05-1.65-.07-2.831-.33 2.014-.68 3.664-.75 4.459-.25 2.776-.29 4.303-1.11 4.23-.83-.072-.7-1.537-.8-4.421-.03-.673 0-2.456.04-4.238-.37 1.758-.65 3.519-.79 4.173-.51 2.301-.81 3.512-1.55 3.448-.49-.043-.55-1.582-.18-4.617.26-2.066.41-3.214.44-3.444.07-.527.05-1.761.21-3.943-.79-.217-1.4-.074-2.11.672-1.07 1.118-2.83 2.895-3.76 1.922-.92-.972 1.76-3.079 2.7-5.068.51-1.095 3.99-3.313 4.88-4.422.49-.616 1.62-1.235 3.49-1.035 1.18.125 1.75.374 2.45.743.47.253.88 1.17 1.1 2.212z" fill="#959FFA"/><path fill-rule="evenodd" clip-rule="evenodd" d="M1062.84 526.072v-.009c-.33 4.281-.93 7.387-1.79 9.318.12 1.04.24 1.789.36 2.248l.03.11c.02.103.05.219.07.341.17.746.38 1.743.79 1.645.19-.048.52-.389.66-1.397.16-1.214.24-2.479.3-3.323.03-.369.04-.658.06-.826l.03-.196c.1-1.009-.3-6.901-.51-7.911zm-2.18 12.041l-.05.788c-.12 2.076-.35 3.332-1.07 3.302-.68-.029-.74-1.122-.84-3.12l-.03-.459 1.52-1.803c.25-.297.49-.665.7-1.104l-.12 1.143c-.05.509-.09.927-.11 1.253zm-2.8 1.474l-.03.274-.14 1.559c-.16 1.78-.32 2.729-.97 2.671-.59-.051-.7-.81-.74-2.285l1.88-2.219z" fill="#000" fill-opacity=".288"/><path d="M1044.27 459.585c2.56.327 5.69 1.369 8.68 2.646-.44 2.036-1.76 3.275-3.96 3.719-2.78.56-6.6.137-11.45-1.268l3.51-5.482c1.06.134 2.14.267 3.22.385z" fill="#000" fill-opacity=".288"/><path d="M1036.86 454.568c.81.37.2 6.444.12 6.734-.14 1.058.93 1.409 2.69 1.858 1.76.449 6.71.534 7.95-.369.79-.782-.11-1.784-.07-4.089.04-2.305-.07-3.84-.07-3.84l-10.62-.294z" fill="#FFAF8A"/><path d="M1039.74 454.518c.45.204-2.98 3.952-2.98 3.952s.84.898 1.22 1.225c1.2 1.032 1.9 1.499 1.89 1.61-.06.626-.2 2.009-.2 2.009s1.25.475 2.96.445c1.72-.03 4.21-.282 4.99-.968.79-.782-.11-1.784-.07-4.089.04-2.305-.07-3.84-.07-3.84l-7.74-.344z" fill="#000" fill-opacity=".175"/><path d="M1034.99 445.191l-.29 5.574s-3.75-.607-3.52-3.779c.33-3.175 3.81-1.795 3.81-1.795z" fill="#FFC18A"/><path d="M1034.99 445.191l-.29 5.574-.21-.045a5.75 5.75 0 01-1.78-.749l-.71-4.67c1.13-.849 2.99-.11 2.99-.11z" fill="#000" fill-opacity=".175"/><path d="M1033.68 441.757s-1.81 18.947 7.15 18.79c2.4-.042 4.11-.417 6.11-2.029 2-1.611 3.09-5.656 3.09-5.656s2.98-.052 3.57-3.054c.6-3.003-1.58-3.962-1.58-3.962s-1.14-9.094-8.54-9.349c-7.88-.342-9.8 5.26-9.8 5.26z" fill="#FFAF8A"/><path d="M1049.01 440.488l1.98 1.772.17.423c.68 1.738.86 3.163.86 3.163l.12.066c.46.26 1.97 1.335 1.46 3.896-.39 2.001-1.59 3.019-3.57 3.054-.73 2.697-1.76 4.582-3.09 5.657-.55.437-1.07.784-1.59 1.057.11-.255.34-.602.72-1.042 3.19-3.782 2.23-10.503.79-12.787-.92-1.471-3.02-2.182-6.31-2.134l-.35.008 8.81-3.133z" fill="#000" fill-opacity=".175"/><path d="M1034.28 442.359s-.35 6.448-.7 6.299c-.35-.149-.33-6.721-.33-6.721l1.03.422z" fill="#380085"/><path d="M1039.65 445.19c3.37.536 7-1.466 8.17-.142 1.18 1.323.22 4.908 1.37 4.984.98.064.86-3.588 2.63-4.021.31-.077 1.22.537 1.22.537s.72-2.011.4-3.638c-.84-4.21-2.76-6.538-5.85-7.828-4.74-1.934-5.28.188-7.02-.262-1.74-.546-4.61-.326-5.74 1.134-.75.973-1.77 3.199-2.33 4.823-.55 1.623-3.7 2.564-1.36 4.562 2.34 1.998 5.15-.685 8.51-.149zm-.7 17.155c-1.02-.342-2.13.187-2.48 1.203l-.81 2.366a1.924 1.924 0 001.28 2.463l2.78.818c.19.055.38.081.58.078l.17-.003a1.92 1.92 0 001.46-.717l4.24-5.27s-1.41-.016-2.27-.078c-1.58-.113-3.43-.448-3.8-.512-.18-.03-.64-.177-1.15-.348z" fill="#380085"/><path d="M1036.97 461.702s2.13.755 3.37.954c1.24.199 3.73.57 3.73.57l-3.08 4.265a1.92 1.92 0 01-2.09.721l-2.1-.607a1.924 1.924 0 01-1.24-2.599l1.41-3.304z" fill="#959FFA"/><path d="M1027.17 471.998a.956.956 0 00-1.19.874l-.45 7.587v.471c.01.426.3.797.71.909l20.14 5.495c.13.036.27.044.4.022l1.75-.28c.43-.07.76-.42.8-.855l.74-7.578a.95.95 0 00-.71-1.025l-22.19-5.62z" fill="#F8FCFF"/><path d="M1048.17 477.297l1.2.315c.41.11.7.483.71.906v.116l-.75 7.587a.955.955 0 01-.69.829l-.11.025-1.74.28a.986.986 0 01-.21.01l1.59-10.068zm9.15-1.014c.47 2.783 2.67 4.733 4.91 4.355 2.25-.377 3.69-2.939 3.22-5.721-.47-2.783-2.67-4.733-4.91-4.356-2.24.377-3.69 2.939-3.22 5.722z" fill="#959FFA"/><path d="M1058.96 476.045c.38 2.671 2.23 4.617 4.14 4.347 1.9-.269 3.14-2.652 2.76-5.322-.37-2.67-2.22-4.616-4.13-4.347-1.9.269-3.14 2.652-2.77 5.322z" fill="#F8FCFF"/><path d="M1075.19 518.459c2.05-2.804 34.04-3.229 35.99.629 1.96 3.857 1.29 42.237-.78 44.993-2.08 2.755-36-.629-36-.629s.25-7.034.18-9.998c-.51-22.051-.59-33.347.61-34.995z" fill="#959FFA"/><path d="M1107.8 520.953l4.16 2.736c.48 5.902.5 16.094.16 24.782l-2.17-1.824-2.14 18.369c-4.8.701-15.93.179-33.41-1.564l.08-2.382c.1-3.455.14-5.993.1-7.616l-.19-8.607c-.15-7.762-.21-13.769-.13-18.093l.4-3.532c1.1-2.606 2.95-3.886 5.54-3.84 3.89.067 23.94-.839 27.6 1.571z" fill="#000" fill-opacity=".288"/><path d="M1080.18 520.759s-6.81 1.363-7.81 3.183c-1 1.82-10.01 26.852-10.01 26.852s-4.27 17.36-4.31 19.3c-.03 1.94 5.15 6.339 7.44 2.461 2.29-3.877 8.18-25.877 11.31-31.999 3.14-6.123 3.38-19.797 3.38-19.797z" fill="#380085"/><path d="M1059.18 570.311s-2.12 4.446-2.14 5.968c-.03 1.522-.41 4.667-.1 5.498.32.864 2.08 4.99 2.67 4.769.59-.22-.65-3.875-.65-3.875s1.43 4.234 2.29 4.249c.97.017-.14-4.627-.14-4.627s1.79 5.021 2.43 4.322c.66-.736-.33-4.779-.22-5.221.27-1.076 1-3.12 1.21-3.117.42.008 1.14 2.582.73 4.504-.42 1.922 1.9-.036 2.26-1.766.27-1.297-.31-5.499-.31-5.499l-2.24-4.556s-1.51-.901-2.87-.924c-1.35-.024-2.92.275-2.92.275z" fill="#959FFA"/><path d="M1074.16 529.17l2.65 11.374-.01.012c-1.52 2.975-3.66 10.192-7.65 21.914-.21-.105-.4-.253-.56-.446-1.55-1.81.04-11.765 4.78-29.864l.79-2.99z" fill="#000" fill-opacity=".288"/><path d="M1072.04 542.582c-.07 4.274.98 5.556 1.89 9.664.91 4.107.89 11.933-.14 14.567-1.03 2.633-1.85 22.546-1.96 28.947-.11 6.4-1.77 16.175-.05 22.596 1.03 3.842 1.26 23.076 3.09 29.965.6 2.253 1.93 2.187 2.1 2.457.18.271-.07 3.306-.25 4.364-1.16 6.528-7.74 11.926-6.05 14.165 1.7 2.239 4.84 1.35 6.64-.251 1.79-1.602 2.64-4.548 4.91-6.012 2.27-1.465 3.27-2.505 2.65-4.565-.62-2.059-.69-5.237-.65-7.516.01-.439 1.09-1.176 1.3-2.456.89-5.366 1.73-18.58 1.41-22.449-.38-4.791-.82-9.796-.82-9.796l2.14-27.923s3.07 27.181 4.21 30.378c.95 2.643 3.63 25.416 5.16 33.973.32 1.794 2.24 1.972 2.24 2.313-.01.598-.04 1.528-.26 2.607-.5 2.464-1.17 5.579-.34 6.589 1.2 1.451 3.08 2.546 3.03 5.293-.05 2.747 2.23 4.231 5.02 4.28 2.8.048 5.16-3.485 3.39-6.115-1.77-2.63-5.02-10.039-4.96-13.642.01-.555 1.91-1.052 1.96-2.645.2-5.314-.9-34.032-.9-34.032s-2.2-34.618-2.11-40.059c.1-5.441-1.74-17.363-1.74-17.363s4.27-19.722 5.28-24.238c1-4.515 1.7-11.598 1.7-11.598s-10.6-3.362-19.35-3.425c-8.76-.063-11.33-.108-12.44 1.095-.78.847-6.02 16.559-6.1 20.832z" fill="#733DFF"/><path d="M1106.62 614.385l.18 2.953.3 7.952c-2.58.264-4.68.382-6.3.354-1.7-.03-4.09-.242-7.18-.637l-.3-1.927c-.33-2.096-.62-3.631-.83-4.277l-.03-.086c-.13-.384-.29-1.029-.47-1.934 3.08-1.292 5.55-2.081 7.4-2.368 1.74-.27 4.15-.281 7.23-.03zm-2.42-44.625l.06-.016c.3 2.917.45 5.307.44 7.169l-.01.712c-.01 1.114.04 2.914.15 5.398-2.51.359-4.61.772-6.33 1.238l-.39.108c-2.24.642-5.5 1.879-9.79 3.711l-1.49-.739c-4.19-2.054-7.33-3.415-9.42-4.081-1.54-.492-3.22-.83-5.03-1.014l.11-1.717c.3-4.674.69-8.855 1.14-10.415 2.61 1.05 4.66 2.127 6.18 3.231l.39.299c1.7 1.319 4.01 3.564 6.93 6.733l1.19-1.062c3.37-2.962 5.93-4.982 7.69-6.062 1.78-1.092 4.33-2.198 7.65-3.317l.59-.192-.06.016z" fill="#959FFA"/><path d="M1104.45 532.179l3.99 2.514-.11.5-5.38 24.723.29 1.891c.99 6.776 1.48 11.834 1.46 15.173l-.01.93c.01 4.384.72 17.527 2.11 39.428l.37 9.876c.46 13.22.64 21.272.53 24.156-.05 1.593-1.95 2.091-1.96 2.645-.01.517.05 1.112.16 1.76l-1.29.49-.26-14.639c-.15-9.017-.22-15.16-.2-18.43l.01-2.044c-.01-7.237-1.74-42.926-5.38-42.182-3.76.767-6.6-1.505-7.2-2.793-.61-1.289 1.04-3.571 2.47-5.607 1.44-2.036-1.21-2.357-1.19-3.83.03-1.452 5.44-1.472 6.3-10.857l.03-.402c.47-6.321 2.14-13.808 4.98-22.461l.28-.841z" fill="#000" fill-opacity=".288"/><path d="M1078.51 613.334c1.86.426 4.4 1.274 7.63 2.545l-.03.383.34 3.97c.17 1.968.33 3.91.48 5.826l-.12-1.492-1.54.007c-2.3 0-4.16-.043-5.58-.131l-.58-.04c-1.47-.112-3.68-.172-6.63-.18l-.09-1.073c-.18-2.193-.37-3.904-.61-4.793-.48-1.768-.69-3.79-.76-5.926l1.01.07c2.79.205 4.94.484 6.48.834z" fill="#959FFA"/><path d="M1076.58 534.578a1 1 0 00-1.04.902l-.79 8.076v.255c-.01.546.42.999.96 1.017l21.73.723c.05.001.11-.001.16-.008l1.96-.245c.45-.057.81-.41.87-.86l1.02-7.634a1 1 0 00-.95-1.131l-23.92-1.095z" fill="#F8FCFF"/><path d="M1097.42 545.544l2.05-10.019 1.13.106a1 1 0 01.86 1.007l-.01.117-1.02 7.683c-.06.412-.36.744-.76.839l-.11.021-1.94.242a.892.892 0 01-.2.004z" fill="#959FFA"/><path d="M1087.13 580.663l1.11 7.825-2.13 27.774.34 3.97.33 3.901.15 1.925c.32 3.869-.52 17.082-1.41 22.449-.21 1.28-1.29 2.016-1.3 2.455-.02 1.274-.01 2.829.12 4.313l-2.01.601.1-17.89c.05-10.652.04-17.783-.01-21.393l-.01-.696c-.09-4.603 1.32-15.421 4.24-32.455l.48-2.779z" fill="#000" fill-opacity=".275"/><path d="M1105.42 654.137l.3-.124c-.06 3.794 3.66 11.585 5.69 14.786l.27.407c1.95 2.893-.65 6.78-3.73 6.726-3-.052-5.45-1.602-5.52-4.477v-.23c.05-3.022-2.02-4.226-3.34-5.823-1.28-1.555-.36-8.304-.28-10.652l.01-.234c1.48.541 2.75.699 3.83.473.87-.182 1.8-.466 2.77-.852l.3-.124-.3.124z" fill="#959FFA"/><path d="M1102.99 668.528l.02.402c.1 1.851.59 5.488 3.74 6.188 1.29.288 2.47.312 3.53.075-.68.474-1.49.754-2.33.739-3-.052-5.45-1.602-5.52-4.477v-.23c.05-3.022-2.02-4.226-3.34-5.823-.31-.388-.5-1.098-.59-1.983l.57.477c2.59 2.18 3.9 3.724 3.92 4.632z" fill="#733DFF"/><path d="M1105.42 654.137l.3-.124c-.06 3.794 3.66 11.585 5.69 14.786l.27.407c1.11 1.643.75 3.606-.34 4.987-4.85-5.885-7.49-10.973-7.93-15.267l-.04-.416c-.07-.893-.11-2.141-.14-3.656.7-.177 1.43-.416 2.19-.717z" fill="#000" fill-opacity=".275"/><path d="M1080.72 651.41c1 .018 2.17-.132 3.51-.447-.01 2.342.5 5.483 1.12 7.687l.12.402c.68 2.265-.43 3.409-2.92 5.02-2.5 1.612-3.43 4.852-5.41 6.614-1.97 1.762-5.43 2.739-7.29.276-1.87-2.463 5.37-8.4 6.65-15.581.19-1.091.11-2.9.09-4.755v-.187c1.62.628 3 .951 4.13.971z" fill="#959FFA"/><path d="M1082.55 664.073c-2.5 1.611-3.43 4.852-5.41 6.613-1.59 1.42-4.14 2.33-6.05 1.34.11-.037.23-.054.35-.052 1.15.02 3.97-.845 5.37-2.238 1.4-1.394 2.27-3.567 3.43-5.227 1.16-1.661 2.19-1.828 3.51-2.722.54-.374 1.18-.984 1.9-1.831.15 1.696-.96 2.735-3.1 4.117z" fill="#733DFF"/><path d="M1084.23 650.962c-.01 2.343.5 5.484 1.12 7.688l.12.401c.68 2.266-.43 3.41-2.92 5.021-2.5 1.612-3.43 4.852-5.41 6.614-1.06.945-2.54 1.665-3.98 1.748l3.92-5.576c2.85-4.087 4.57-6.598 5.15-7.533.84-1.369 1.11-4.074.78-8.114.39-.066.8-.149 1.22-.249z" fill="#000" fill-opacity=".275"/><path d="M1102.76 565.439s-5.44.053-6.56.537c-1.12.484-2.68 1.075-1.86 1.763.34.28 1.74-.033 3.2.056.93.057 2.99.552 2.99.552l2.23-2.908z" fill="#959FFA"/><path d="M1104.83 564.862s-3.31.51-5.07 2.004c-1.75 1.494-8.76 8.578-8.15 9.406.62.828 6-4.2 6.5-3.785.14.107-4.92 4.129-4.28 4.829.63.701 5.8-3.009 5.8-3.009s-3.5 3.412-3.15 3.758c.35.346 4.38-2.897 4.38-2.897s-2.71 2.585-2.13 2.937c.58.351 3.93-2.866 4.11-2.903 1.74-.361 6.74-7.593 6.74-7.593l-4.75-2.747z" fill="#959FFA"/><path d="M1108.05 567.005l.97.283.56.321-.49.707c-2.99 4.25-5.04 6.539-6.16 6.865l-.09.021c-.18.037-3.53 3.254-4.11 2.903-.39-.235.32-1.214 2.13-2.937l-.88.704c-.1.073-.19.144-.28.213l8.35-9.08z" fill="#000" fill-opacity=".288"/><path d="M1109.18 524.194c-4.51.312-6.19 6.237-5.44 8.416.75 2.178 11.62 16.715 11.62 16.715s-9.02 10.248-10.63 14.674c-.8 2.206 3.77 6.135 5.4 5.595 1.62-.539 16.03-15.107 16.13-20.079.05-2.596-12.57-25.632-17.08-25.321z" fill="#380085"/><path d="M1113.66 535.198l4.1-2.058.43.661c4.23 6.545 8.1 14.274 8.07 15.714-.04 1.699-1.74 4.517-4.03 7.513 1.28-3.415 1.94-5.974 1.97-7.679.04-2.736-3.29-8.969-5.92-10.273l-.17-.079c-1.66-.693-3.07-1.85-4.22-3.469l-.23-.33z" fill="#000" fill-opacity=".288"/><path d="M1111.58 534.937c1.46 2.205 4.08 3.037 5.86 1.858 1.78-1.18 2.04-3.923.58-6.128-1.47-2.205-4.09-3.036-5.87-1.857-1.78 1.179-2.04 3.922-.57 6.127z" fill="#959FFA"/><path d="M1112.89 534.108c1.34 2.143 3.67 3.104 5.2 2.146 1.53-.957 1.68-3.47.34-5.613-1.34-2.143-3.67-3.104-5.2-2.147-1.53.958-1.68 3.471-.34 5.614z" fill="#F8FCFF"/><path d="M1087.05 523.871c4.66 1.411 10.05-2.571 10.05-2.571s-1.85-2.498-1.81-4.749c.04-2.251.96-5.788.96-5.788s2.66-1.034 2.69-2.66c.03-1.627.1-6.051.1-6.051l-12.12-5.404s-5.89 7.117-5.93 9.514c-.04 2.398 1.03 9.67 3.58 11.374 2.56 1.705.06 4.244.06 4.244s-.02 1.351 2.42 2.091z" fill="#FFAF8A"/><path d="M1085.2 499.519l7.9-.117 5.94 2.65-.1 6.051c-.02 1.084-.92 1.971-2.69 2.66-.61 2.358-.94 4.288-.96 5.788-.03 1.5.57 3.083 1.81 4.749-3.07 2.265-5.96 3.222-8.67 2.869 3.03-1.124 4.75-2.219 5.16-3.285.73-1.927-.25-14.234-1.42-16.346-.76-1.374-3.87-1.826-9.34-1.357l-.4.036 2.77-3.698z" fill="#000" fill-opacity=".175"/><path d="M1094.86 495.06l.39.524c.43.579.76 1.048.99 1.406 1.21-.271 2.36-.048 3.47.669 1.61 1.047 2.86 4.017 1.82 7.682l-.09.299c-.8 2.534-.65 6.779.45 12.734l-6.27.219a6.192 6.192 0 01-.33-2.042c.02-1.5.35-3.43.96-5.788 1.38-.492 2.08-1.28 2.09-2.365.03-1.626-.94-4.553-1.98-3.752-.69.534-1.1 1.528-1.23 2.981l-.36-.724c-.68-1.399-1.17-2.501-1.48-3.305l-.07-.195c-.35-.943-.66-1.511-.93-1.704l-1.07-.084c-2.38-.173-3.96-.178-4.72-.017-3.91.828-4.9 3.564-4.95 4.082v.035c-.05 2.397.44 8.752 2.07 10.752.62.765 2.12 1.625 2.28 3.01-.27.001-.54-.004-.79-.014l-.83-.035c-2.15-.103-3.73-.28-4.74-.529l-.06-1.483c-.16-3.829-.38-6.649-.66-8.462l-.07-.432c-.52-2.981-.67-7.379 1.15-10.162 1.82-2.783 6.16-4.871 8.56-4.83l.52.013c2.3.07 5.01.366 5.88 1.517z" fill="#380085"/><path d="M1085.4 518.242s.63.755 2.72.792c2.09.036 4.79-3.106 4.79-3.106s-1.8 3.927-3.83 4.746c-2.03.82-3.72.067-3.72.067s.53-.592.54-1.264c.01-.673-.5-1.235-.5-1.235z" fill="#000" fill-opacity=".175"/><path d="M1206.04 534.806s-7 7.418-7.73 10.378c-.74 2.96.75 23.508 1.76 28.4 1 4.891 3.65 9.926 3.65 20.109 0 10.182 1.13 33.942 1.13 36.532 0 2.591 3.16 22.809 2.42 24.892-.38 1.061-2.89 3.479-5.25 4.118-2.27.615-4.38-.519-4.64-1.036-.52-1.055-2-2.068-2.56-4.484-.55-2.415-6.2-22.672-6.97-26.993-.77-4.322-2.72-20.826-2.72-20.826s-.48 3.304-.62 6.183c-.24 4.939-.78 7.192-.74 7.672.1 1.14 1.36 5.115 1.36 12.214 0 5.026-.9 10.42-.93 13.175-.02 1.137-.71 2.173-.87 2.519-.55 1.183 1.52 8.366 0 9.971-1.52 1.605-4.1-.495-6.79 1.605-2.68 2.1-5.76 4.89-8.65 4.338-2.88-.552-3.28-4.167-.19-7.012 3.09-2.846 8.84-6.481 8.84-7.537 0-1.057-1.53-1.706-1.53-3.884 0-2.179-3.08-20.538-3.08-27.988 0-7.449-1.62-47.588-1.53-51.944.1-4.356 1.53-13.064 1.53-16.448 0-3.385-.59-6.363-.59-6.363s-2.12 10.711-3.29 13.027c-1.18 2.316-10.64 13.869-10.64 13.869l-4.28-3.026s7.12-15.08 7.58-16.288c.47-1.208 7.06-26.666 9.88-27.927 3.26-1.455 8.68-2.49 19.71 2.274 11.34 4.896 15.74 10.48 15.74 10.48z" fill="#380085"/><path d="M1172.98 578.255l-2.24.338.93 27.437c.14 4.636.24 8.446.26 10.544v.578c0 7.449 3.08 25.809 3.08 27.987 0 2.179 1.53 2.828 1.53 3.884 0 .293-.44.785-1.15 1.403h1.5l-1.13-14.563c-.66-8.201-1.08-12.979-1.27-14.335l-.06-.42c-.19-1.446-.51-9.893-.96-25.344l-.49-17.509zm11.39 18.464l-2 21.025 3.67 16.287-.01-.58v-.586c0-7.099-2.16-11.974-2.26-13.114v-.088c.02-.596.46-2.657.7-6.845l.04-.739c.09-1.919.3-3.98.62-6.183l.85 7.122c.84 6.77 1.45 11.285 1.84 13.542l.03.162c.77 4.321 6.42 24.578 6.97 26.993.56 2.416 2.04 3.429 2.56 4.484.07.139.11.334.13.574.22-1.526.12-3.381-.3-5.562-1.62-8.44-6.93-22.823-7.77-33.508l-.04-.663c-.44-7.164-2.12-14.604-5.03-22.321zm-13.74-58.434l-.26 1.212c-1.69 7.557-3.56 12.851-5.6 15.881l-3.57 5.331c-1.48 2.217-3.18 4.77-5.1 7.659l1.31.924 2.83-3.474c4.55-5.633 7.15-9.098 7.81-10.394.76-1.504 1.82-5.663 3.18-12.477l-.08-.777c-.11-1.023-.29-2.318-.52-3.885zm27.62 13.48l-1.9-7.087-.24 1.035c-1.86 7.975-3.78 12.833-5.75 14.572l-.31.269c-3.78 3.146-19.91 14.271-16.12 18.207 2.44 2.536 11.5 1.455 27.17-3.241-.16-.855-.31-1.661-.46-2.42l-.33-1.63c-.69-3.337-1.71-12.976-2.06-19.705z" fill="#000" fill-opacity=".275"/><path d="M1153.16 566.208l-.03.059c-2.44.097-3.79.484-4.04 1.162l-.02.083c-.25 1.093-2.99 4.308-2.2 4.308.51 0 1.48-.619 2.92-1.858l.23-.2-3.04 5.843-.23 1.003c-.35 1.524-.47 2.316-.35 2.375.16.084.73-.716 1.7-2.399l.13-.225 2-2.669-.33.989c-1.22 3.687-1.65 5.531-1.29 5.531.4 0 1.42-1.916 3.06-5.749l-.28 1.329c-.73 3.446-.92 5.169-.56 5.169.39 0 1.16-1.811 2.3-5.432l-.1.971c-.3 2.974-.26 4.461.1 4.461.59 0 .77-3.177 1.77-5.242l.1-.19c.72-1.369 1.52-3.447 2.41-6.235l.2-.245c-.74-.961-1.43-1.654-2.09-2.079-.51-.33-1.3-.584-2.36-.76z" fill="#FFAF8A"/><path d="M1151.67 572.074c.32.909 1.25 2.476 2.81 4.7.14-.44.31-.866.52-1.247.72-1.368 1.52-3.447 2.41-6.234l.2-.246c-.74-.961-1.43-1.654-2.09-2.078a3.971 3.971 0 00-.39-.216c-2.63 2.606-3.78 4.379-3.46 5.321z" fill="#000" fill-opacity=".175"/><path d="M1150.29 584.671l9.92 6.795c.45.312 1.03.379 1.55.178.59-.23 1.03-.731 1.18-1.344l5.95-23.978a1.6 1.6 0 00-.78-1.776l-10.36-5.711a1.582 1.582 0 00-1.39-.069l-.75.322-5.32 25.583z" fill="#733DFF"/><path d="M1149.19 584.527c-.11.466.1.95.52 1.182l10.49 5.801c.61.338 1.37.004 1.54-.673l6.12-24.702a1.07 1.07 0 00-.52-1.184l-10.54-5.783c-.61-.335-1.37 0-1.54.677l-6.07 24.682z" fill="#D6D9FB"/><path d="M1154.91 588.038c.32 0 .58-.376.58-.839 0-.462-.26-.838-.58-.838-.32 0-.58.376-.58.838 0 .463.26.839.58.839z" fill="#733DFF"/><path d="M1150.48 582.487c-.11.467.1.954.52 1.186l9.12 5.008a1.06 1.06 0 001.54-.672l5.42-21.636c.12-.468-.1-.957-.52-1.188l-9.56-5.211a.701.701 0 00-1.02.45l-5.5 22.063z" fill="#fff"/><path d="M1202.23 658.86c-.85.317-2.2.331-4.02.042.07.099.12.197.17.296.51 1.019-.45 5.081-.05 7.309l.05.232c.52 2.166 0 5.72 0 10.413 0 4.693 5.47 3.947 7.89 1.915 2.42-2.031 1.77-12.425 1.22-14.494l-.55-1.986c-.56-2.064-1.16-4.663-.74-6.238l-.58.423c-1.6 1.147-2.72 1.843-3.39 2.088z" fill="#733DFF"/><path d="M1198.21 658.902c.07.099.12.197.17.296.51 1.019-.45 5.081-.05 7.309l.05.232c.52 2.166 0 5.72 0 10.413 0 .879.19 1.567.52 2.092l.19-1.152c.86-5.47 1.17-9.523.94-12.161-.23-2.598-.6-4.908-1.11-6.929-.23-.028-.47-.061-.71-.1z" fill="#000" fill-opacity=".275"/><path d="M1179.49 648.935c-.92.118-1.91.065-2.98-.16.02.081.03.163.03.248 0 1.057-5.75 4.692-8.84 7.537-3.09 2.846-2.69 6.461.19 7.013 2.89.552 5.97-2.238 8.65-4.338 2.69-2.1 5.27 0 6.79-1.605 1.45-1.539-.39-8.21-.06-9.797a13.14 13.14 0 01-3.78 1.102z" fill="#733DFF"/><path d="M1176.51 648.775c.02.08.03.163.03.248 0 1.056-5.75 4.692-8.84 7.537-1.13 1.04-1.79 2.182-2.04 3.24l-.01.058 4.24-2.994c4.07-2.883 6.4-4.595 7-5.135.72-.649.87-1.586.47-2.81-.28-.036-.56-.084-.85-.144z" fill="#000" fill-opacity=".275"/><path d="M1173.15 557.626l-1.87-1.646-.3 2.534c-.13 1.126-.25 2.235-.35 3.274l2.19 1.119a1.46 1.46 0 002.13-1.306c0-1.433-.58-2.8-1.6-3.793l-.2-.182zm2.38-36.793c-1.35 2.815-1.52 3.67-1.52 4.147 0 1.12 3.56 3.507 4.07 2.907.24-.283 3.2-5.54 3.88-6.323-2.28-.568-4.55-.86-6.43-.731zm20.47 6.34l-1.14-.65-.59.8a33.28 33.28 0 00-1.37 2.011l-.09.146c-1.93 3.257-1.55 3.484-1.55 4.004 0 1.12 4.14 3.507 4.74 2.906l.03-.043c.21-.269-.05-.612 2.12-3.514.47-.635 1.37-1.578 2.69-2.828-1.54-.932-3.21-1.903-4.84-2.832z" fill="#733DFF"/><path d="M1181.45 572.074l-.48-.012.61-24.275.27.049c2.95.534 5.1-.048 6.47-1.731 1.41-1.726 3.62-6.626 4.81-11.093l.46.122c-1.21 4.527-3.43 9.482-4.9 11.272-1.45 1.779-3.68 2.423-6.65 1.946l-.59 23.722z" fill="#733DFF"/><path d="M1176.34 526.621c-.75 6.943-.75 11.743-.01 14.381.73 2.615 2.6 4.904 5.61 6.869l-.26.399c-3.1-2.023-5.04-4.404-5.81-7.139-.76-2.713-.76-7.561-.01-14.562l.48.052z" fill="#733DFF"/><path d="M1190.3 524.326c-6.91-2.985-11.62-3.693-14.97-3.448-1.43.953-2.35 2.147-2.35 3.448 0 3.161 5.47 5.761 10.21 5.761 4.44 0 8.1-2.246 8.54-5.127-.46-.213-.94-.424-1.43-.634z" fill="#000" fill-opacity=".275"/><path d="M1197.8 567.923s-10.16 4.577-16.59 2.637-10.81-5.997-10.81-5.997v3.36s4.73 4.226 10.81 6.107c6.08 1.881 17.04-3.374 17.04-3.374l-.45-2.733z" fill="#733DFF"/><path d="M1174.66 576.515s-4.88-.929-5.78-.929c-.9 0-6.13-.93-6.13 0 0 .929 5.04 1.859 4.52 2.284-.53.425-5.03 2.433-5.03 2.433s-3.7.899-3.7 1.635 4 0 4 0l1.12-.245s-1.82 1.01-2.33 1.01c-.5 0-2.34.145-2.34.806s2.39 1.129 3.55.876c1.15-.253 2.35-.532 2.35-.532s-1.42 1.159-2.65 1.159c-1.22 0-2.22-.024-2.22.705s3.22.53 4.12.53c.9 0 1.74-.328 1.74-.328s-2.18 1.106-2.91 1.106-2.2-.105-1.81.613c.38.718 3.27.489 4.22.489.94 0 11.36-6.955 11.36-6.955s24.88-10.786 26.3-13.506c1.42-2.72 6-30.693 3-32.86-3-2.167-8.84 4.671-9.69 8.081-.85 3.411-.28 17.047-1.69 17.832-1.4.785-20 15.796-20 15.796z" fill="#380085"/><path d="M1162.75 575.586c0 .929 5.04 1.859 4.52 2.284l-.1.069c-.5.333-2.14 1.121-4.93 2.364-2.46.599-3.7 1.144-3.7 1.635 0 .491 1.33.491 4 0l1.12-.245c-1.22.674-1.99 1.01-2.33 1.01l-.17.005c-.66.028-2.17.203-2.17.801 0 .662 2.39 1.129 3.55.876.77-.168 1.55-.346 2.35-.532-.95.773-1.83 1.159-2.65 1.159l-.68.003c-.89.017-1.54.116-1.54.702 0 .729 3.22.53 4.12.53.6 0 1.18-.11 1.74-.328l-.53.259c-1.16.565-1.95.847-2.38.847l-.64-.005c-.71.004-1.46.08-1.17.618.38.718 3.27.489 4.22.489.61 0 4.14-2.15 10.6-6.45-.11-.698-.25-1.419-.42-2.162-.22-.998-.54-2.001-.95-3.009l-1.27-.237c-2.36-.437-3.82-.664-4.39-.682l-.07-.001c-.9 0-6.13-.929-6.13 0zm32.82-71.356c0 4.034-2.48 11.272-2.48 13.368v8.725s-4.52 3.764-8.29 1.331c-3.77-2.432-2.25-6.552-2.25-6.552s-2.54-.182-3.95-2.172c-1.42-1.989-.66-15.61-.66-15.61s2.47-4.045 6.86-3.818c4.39.226 10.77.693 10.77 4.728z" fill="#FFAF8A"/><path d="M1193.75 515.011s2.33-2.681 2.76-4.92c.43-2.239.94-6.861 0-8.273-.94-1.413-2.3-1.823-2.3-1.823s0-1.333-1.97-2.666c-1.97-1.334-13.45-2.667-15.43 0-1.98 2.666.58 6.782 1.79 7.427 1.2.644 7.47-1.044 8.71.294 1.24 1.338 2.01 7.758 2.85 7.758.84 0 .67-5.281 3.04-4.59 2.36.691.55 6.793.55 6.793z" fill="#380085"/><path d="M1182.55 521.102h5.07s-.97 1.552-2.38 2.952c-1.4 1.399-2.69 1.769-2.69 1.769s-.45-1.494-.45-2.361c0-.866.45-2.36.45-2.36z" fill="#000" fill-opacity=".175"/><path d="M920.116 414.403c0 2.531 7.81 28.82 12.244 28.82s6.672-15.558 6.672-15.558.02 9.706 1.457 11.257c1.438 1.551 1.962 8.05.981 10.701s-2.438 26.112-2.438 32.514c0 6.401-.487 16.203 1.343 22.594 1.095 3.822 3.015 20.286 3.674 29.904.089 1.298 1.063 1.314 1.088 2.422.04 1.802-.012 3.307-.181 4.368-1.043 6.547-7.529 12.059-5.795 14.268 1.735 2.209 4.858 1.266 6.627-.367 1.769-1.632 2.561-4.593 4.805-6.097 2.244-1.504 3.229-2.562 2.574-4.61-.655-2.049-1.255-5.227-1.255-7.507 0-.439 1.065-1.194 1.255-2.477.795-5.382 1.878-18.606 1.498-22.468-.471-4.784-.999-9.781-.999-9.781l1.657-27.955s3.54 27.123 4.742 30.3c.994 2.625 5.314 24.644 6.997 33.172.353 1.788 1.184 2.612 1.184 2.952 0 1.964-1.812 7.801-.589 9.231 1.223 1.431 3.12 2.492 3.12 5.24s2.298 4.191 5.096 4.191 5.1-3.574 3.282-6.173c-1.817-2.598-5.658-10.115-5.658-13.719 0-.554.849-1.338.88-2.932.105-5.317 0-33.592 0-33.592s-2.809-34.574-2.809-40.016-2.042-17.33-2.042-17.33 2.117-22.237 3.044-26.77c.927-4.532 3.303-9.182 3.303-9.182s-10.652-3.177-19.408-3.087c-8.756.09-14.341.361-15.976 2.465-1.634 2.103-8.875 14.346-8.875 14.346s-2.986-10.495-5-11.438c-2.495-1.168-6.498.914-6.498 2.314z" fill="#380085"/><path d="M942.216 417.377l-.556 2.225c-.958 3.766-1.679 6.245-2.164 7.437l-.053.127c-.131.307-.266.76-.407 1.317l-.004-.818c-.127.871-.256 1.714-.388 2.53l-.594 2.809c-.605 2.827-1.332 5.887-2.264 7.506-1.394 2.421-2.992 3.111-4.792 2.068 1.06-3.86 2.359-7.358 3.899-10.494l2.037-4.122a3356.28 3356.28 0 015.286-10.585zm11.848 49.399l1.25 7.804-1.648 27.807.413 3.963c.135 1.31.267 2.608.395 3.895l.191 1.922c.38 3.863-.703 17.087-1.498 22.468-.19 1.284-1.255 2.039-1.255 2.478 0 1.291.192 2.871.479 4.371l-1.807.577-.213-17.889c-.141-10.651-.27-17.781-.388-21.389l-.024-.697c-.17-4.6 1.054-15.441 3.674-32.524l.431-2.786z" fill="#000" fill-opacity=".275"/><path d="M925.084 403.669c.923-.537 1.928-2.637 3.306-2.21 1.379.428-1.28 3.533-2.302 5.255s0 5.956 0 5.956-1.365.903-2.338 1.309c-1.135.473-2.84.34-2.84.34s-1.026-2.037-1.559-2.634c-.971-1.086-3.037-3.385-2.383-5.896.653-2.511 1.606-4.868 3.148-5.23 1.541-.362 4.046 3.648 4.968 3.11z" fill="#FFAF8A"/><path d="M924.99 403.707l.04-.014c-.145 1.912-.55 3.531-1.215 4.856-.708 1.407-2.148 2.51-4.323 3.308l-.073-.092-.393-.447a15.49 15.49 0 01-.563-.678c1.423-.258 2.642-.955 3.658-2.091 1.063-1.188 1.629-3.005 1.697-5.45.429.372.807.63 1.09.62l.082-.012z" fill="#000" fill-opacity=".175"/><path d="M943.043 440.889a2.7 2.7 0 010 5.4h-1.076c.043-1.834-.165-3.879-.577-5.401l1.653.001zm27.004 8.415l.072.039.225 1.45c.071.473.14.937.205 1.39l-1.792.348c-8.981 1.704-15.233 2.323-18.759 1.858-3.48-.459-6.48-1.212-9-2.26l.07-.504c.116-.803.23-1.419.338-1.801l.052-.167.235-.218c2.285 1.077 5.324 1.748 9.116 2.014 3.793.266 10.206-.45 19.238-2.149z" fill="#733DFF"/><path d="M969.517 413.827l2.703 7.215-.177 1.239c-.613 4.467-1.452 12.292-2.517 23.474l.201 1.186c1.155 6.888 1.766 12.06 1.834 15.516l.014 1.259c.091 4.383 1.025 17.512 2.802 39.385l.052 23.504c-.002 5.057-.019 8.42-.052 10.088-.031 1.594-.88 2.378-.88 2.932 0 3.604 3.841 11.121 5.658 13.72 1.032 1.475.736 3.265-.225 4.537-4.503-5.271-6.988-9.854-7.457-13.75-.731-6.088-.029-37.727 0-41.439l-.002-.312c-.071-2.276-1.889-19.915-5.454-52.919l-.93.029c-7.47.181-11.928-.903-13.378-3.251l-.16-.266c-1.382-2.36-2.619-6.167 1.446-9.704 1.603-1.395 5.658-3.377 12.166-5.947l1.926-.75 2.43-15.746z" fill="#000" fill-opacity=".275"/><path d="M963.847 407.207l.017-.028c2.242.29 4.563.716 6.963 1.277l-.476.463c-.828.815-1.416 1.455-1.764 1.92-2.158 2.886-2.614 4.787-2.877 5.053-.559.567-4.464-1.685-4.464-2.741l.006-.113c.062-.629.598-2.488 2.303-5.363l.185-.302.124-.194-.017.028zm-15.623-.244l1.213-.074-.286.437c-1.044 1.637-2.912 4.931-3.095 5.146-.481.567-3.84-1.685-3.84-2.741l.002-.13c.014-.277.113-.449.804-1.867 1.325-.387 3.069-.623 5.202-.771z" fill="#733DFF"/><path d="M951.034 451.459l-.45-.012.573-22.893.252.037c3.388.507 5.717-.046 7.013-1.632 1.328-1.626 2.947-5.746 4.835-12.332l.433.124c-1.906 6.647-3.539 10.802-4.92 12.493-1.379 1.689-3.78 2.291-7.176 1.829l-.56 22.386z" fill="#733DFF"/><path d="M944.412 412.178c-.544 5.016-.463 8.773.237 11.263.685 2.434 3.046 4.202 7.118 5.29l-.116.435c-4.21-1.126-6.7-2.989-7.435-5.603-.719-2.557-.801-6.366-.251-11.434l.447.049zm28.989 127.495l.096-.044c.003 3.438 3.492 10.427 5.392 13.322l.266.393c1.818 2.599-.484 6.173-3.282 6.173-2.721 0-4.967-1.364-5.09-3.965l-.006-.226c0-2.748-1.897-3.809-3.12-5.24-1.223-1.43.589-7.267.589-9.231 0-.094-.064-.226-.164-.404.996.25 1.876.288 2.642.114a15.718 15.718 0 002.677-.892l.096-.044-.096.044z" fill="#733DFF"/><path d="M973.401 539.673l.096-.044c.003 3.605 3.841 11.118 5.658 13.715 1.032 1.476.736 3.267-.225 4.538-4.503-5.271-6.988-9.854-7.457-13.751l-.043-.409c-.076-.808-.135-1.93-.179-3.29a16.444 16.444 0 002.15-.759z" fill="#000" fill-opacity=".275"/><path d="M948.736 537.749c.903 0 1.962-.154 3.178-.463.026 2.12.543 4.954 1.134 6.946l.119.387c.655 2.049-.33 3.106-2.574 4.61-2.244 1.504-3.036 4.465-4.805 6.097-1.769 1.633-4.892 2.576-6.627.367-1.734-2.209 4.752-7.721 5.795-14.268.156-.979.212-2.337.188-3.957l-.01-.477c1.408.506 2.609.758 3.602.758z" fill="#733DFF"/><path d="M951.914 537.286c.026 2.12.543 4.954 1.134 6.946l.119.387c.655 2.049-.33 3.106-2.574 4.61-2.244 1.504-3.036 4.465-4.805 6.097-.949.876-2.289 1.554-3.594 1.652l4.811-7.126c1.736-2.594 2.811-4.238 3.224-4.933.747-1.258.942-3.72.585-7.387.35-.067.717-.149 1.1-.246z" fill="#000" fill-opacity=".275"/><path d="M975.953 409.993c-4.051-.927-6.607 2.627-6.607 4.931 0 2.304 2.556 20.503 2.556 20.503s-17.817 3.711-20.097 4.967c-2.28 1.256-7.372 3.935-7.372 5.327 0 1.393 4.171 3.583 5.957 3.583 1.785 0 5.818-3.187 5.818-4.3s1.275-1.155 2.222-.577c.948.577 22.69 2.557 24.401-2.113.893-2.438-2.828-31.393-6.878-32.321z" fill="#380085"/><path d="M974.641 409.843h.119c.381.008.779.056 1.193.15 4.05.928 7.771 29.883 6.878 32.321-.644 1.758-4.127 2.574-8.27 2.876l-.445-2.793.648-.423c2.938-1.935 4.617-3.321 5.039-4.159.432-.86-1.289-10.184-5.162-27.972h.119-.119z" fill="#000" fill-opacity=".275"/><path d="M956.461 438.774l2.439.492.385 5.371c-.93-.541-2.928-.72-3.069.254l-.008.113c0 1.113-3.707 4.506-5.492 4.506-1.786 0-4.973-3.46-4.973-4.852 0-.971 1.791-2.116 3.648-3.146l2.318-1.254c.646-.355 2.229-.85 4.752-1.484z" fill="#FFAF8A"/><path d="M956.208 440.889l3.05 3.364.027.384c-.93-.541-2.928-.72-3.069.254l-.008.113c0 .743-1.654 2.503-3.284 3.591.417-1.135 1.475-2.629 2.17-3.291l.126-.114c.731-.626 1.065-1.957 1.001-3.99l-.013-.311z" fill="#000" fill-opacity=".175"/><path d="M952.995 439.835a4.539 4.539 0 013.463-4.41l11.606-2.831a5.402 5.402 0 013.958.556l3.844 2.195a5.4 5.4 0 012.704 4.241l.067.805a5.4 5.4 0 01-5.381 5.849h-13.69a2.902 2.902 0 01-2.863-2.425s-.156-1.49-1.174-2.583c-1.018-1.093-2.534-1.397-2.534-1.397z" fill="#959FFA"/><path d="M957.43 438.203c.644.681 1.158 1.332 1.539 1.953a2.7 2.7 0 002.791 1.241l16.554-3.064c.133.402.22.821.256 1.252l.159 1.912a4.378 4.378 0 01-4.363 4.742h-14.8a2.903 2.903 0 01-2.829-2.252l-.034-.173a4.354 4.354 0 00-1.174-2.582c-.678-.729-1.523-1.194-2.534-1.397 0-1.257.516-2.416 1.369-3.249 1.269.259 2.291.798 3.066 1.617z" fill="#5C66C0"/><path d="M952.995 409.993c4.685 1.33 10.001-2.745 10.001-2.745s-1.89-2.466-1.89-4.717c0-2.251.863-5.805.863-5.805s2.64-1.079 2.64-2.706v-6.052l-12.216-5.192s-5.767 7.219-5.767 9.617c0 2.398 1.202 9.651 3.785 11.31 2.584 1.659.13 4.242.13 4.242s0 1.352 2.454 2.048z" fill="#FFAF8A"/><path d="M950.72 385.678l7.9-.256 5.989 2.546v6.052c0 1.085-.88 1.987-2.64 2.706-.575 2.369-.863 4.304-.863 5.805 0 1.5.63 3.073 1.89 4.717-3.024 2.318-5.895 3.324-8.613 3.019 3.013-1.177 4.712-2.301 5.097-3.374.696-1.939-.5-14.228-1.7-16.319-.782-1.36-3.902-1.758-9.361-1.194l-.403.043 2.704-3.745z" fill="#000" fill-opacity=".175"/><path d="M960.3 381.05l.402.517c.44.572.777 1.035 1.012 1.389 1.204-.292 2.364-.089 3.48.609 1.63 1.018 2.931 3.966 1.956 7.649l-.084.3c-.753 2.548-.516 5.996.71 10.344h-6.63l-.023.003c.071-1.392.353-3.104.846-5.135 1.367-.515 2.05-1.315 2.05-2.4 0-1.627-1.023-4.536-2.05-3.717-.685.546-1.076 1.547-1.174 3.002l-.371-.718c-.708-1.387-1.222-2.48-1.542-3.279l-.076-.193c-.359-.937-.679-1.5-.959-1.688l-2.47.381c-2.21.348-3.64.597-4.29.747-3.895.896-4.436 3.013-4.46 3.5l-.001.032c0 2.398 1.144 8.286 2.809 10.258l.123.154-1.312.107c.077.082-.28.273-1.07.574-.79.301-2.087.551-3.893.753 1.106-4.163 1.502-7.24 1.188-9.231l-.038-.217c-.572-2.971-.8-7.366.972-10.18 1.771-2.815 6.076-4.978 8.471-4.978l.523.003c2.3.03 5.009.279 5.901 1.414z" fill="#0D134E"/><path d="M951.248 404.394s.642.745 2.731.745c2.09 0 4.737-3.189 4.737-3.189s-1.734 3.958-3.746 4.812c-2.013.855-3.722.131-3.722.131s.519-.6.519-1.273c0-.672-.519-1.226-.519-1.226z" fill="#000" fill-opacity=".175"/><path d="M960.986 437.601a.65.65 0 01.32-1.125l9.293-1.661a.62.62 0 01.223 1.219l-9.283 1.723a.649.649 0 01-.553-.156z" fill="#F8FCFF"/><path d="M952.826 412.732a1.124 1.124 0 10-1.53 1.65l7.528 6.979a2.026 2.026 0 003.065-.366l2.584-3.896a1.125 1.125 0 10-1.876-1.243l-2.437 3.675-7.334-6.799z" fill="#FF623F" fill-opacity=".28"/><path d="M959.99 419.715l.216.2.162-.246 2.438-3.675a.875.875 0 111.458.967l-2.584 3.896a1.774 1.774 0 01-2.686.321l-7.528-6.98a.875.875 0 011.19-1.283l7.334 6.8z" stroke="#FF623F" stroke-opacity=".3" stroke-width=".5"/><path d="M949.572 407.147a1.8 1.8 0 00-1.506 1.776v23.672a1.8 1.8 0 002.139 1.768l36.322-6.976a1.8 1.8 0 001.46-1.768v-22.708a1.8 1.8 0 00-2.094-1.775l-36.321 6.011z" fill="#FF623F" fill-opacity=".28"/><path d="M948.316 408.923c0-.759.548-1.406 1.296-1.529l36.322-6.012a1.55 1.55 0 011.803 1.529v22.708a1.55 1.55 0 01-1.257 1.522l-36.322 6.976a1.55 1.55 0 01-1.842-1.522v-23.672z" stroke="#FF623F" stroke-opacity=".3" stroke-width=".5"/><path d="M976.016 408.744a.47.47 0 01.394-.464l14.76-2.392a.471.471 0 01.546.464v1.811a.47.47 0 01-.384.462l-14.76 2.775a.469.469 0 01-.556-.462v-2.194zm0 6.3c0-.231.167-.428.394-.464l14.76-2.392a.471.471 0 01.546.464v1.811a.47.47 0 01-.384.462l-14.76 2.775a.47.47 0 01-.556-.462v-2.194zm0 6.3a.47.47 0 01.394-.464l14.76-2.391a.47.47 0 01.546.463v1.811a.47.47 0 01-.384.462L976.572 424a.469.469 0 01-.556-.462v-2.194z" fill="#FF623F" fill-opacity=".193" stroke="#F8F8F8" stroke-width=".5"/><path d="M960.466 426.206a7.2 7.2 0 100-14.4 7.2 7.2 0 000 14.4z" fill="#FF623F" fill-opacity=".28"/><path d="M967.416 419.006a6.95 6.95 0 11-13.9 0 6.95 6.95 0 0113.9 0z" stroke="#FF623F" stroke-opacity=".3" stroke-width=".5"/><path fill-rule="evenodd" clip-rule="evenodd" d="M878.883 547.491l.32-23.2c0-1.12-.64-2.08-1.6-2.56l-30.4-15.52c-.64-.32-1.28-.32-1.92-.32l-56.16 11.84 88.48 32.16c.8-.32 1.28-1.28 1.28-2.4z" fill="#BAC8FF"/><path d="M878.883 547.491l.32-23.2c0-1.12-.64-2.08-1.6-2.56l-30.4-15.52c-.64-.32-1.28-.32-1.92-.32l-56.16 11.84-56.32 49.12c-.64.48-.96 1.28-.96 2.08v22.56c0 .96.48 1.92 1.44 2.4l33.92 19.84c.96.48 1.92.48 2.88 0l107.52-63.84c.8-.32 1.28-1.28 1.28-2.4z" fill="#959FFA"/><path d="M878.883 547.491l.32-23.2c0-1.12-.64-2.08-1.6-2.56l-30.4-15.52c-.64-.32-1.28-.32-1.92-.32l-56.16 11.84 88.48 32.16c.8-.32 1.28-1.28 1.28-2.4z" fill="#D0D4FF"/><path d="M851.683 525.091c-5.302 0-9.6-1.265-9.6-4.8 0-3.534 3.658-6.302 8.96-6.302 5.302 0 8.96 2.832 8.96 5.6 0 2.769-3.018 5.502-8.32 5.502z" fill="#5C66C0"/><path d="M851.363 525.731c-4.418 0-8-2.149-8-4.8s3.582-4.8 8-4.8c4.419 0 8.053 2.149 8.053 4.8s-3.634 4.8-8.053 4.8z" fill="#F8FCFF"/><path d="M853.86 518.198l1.116.398-5.283 4.683-.857-.679 5.024-4.402z" fill="#A4B6C5"/><path d="M768.643 614.211v-22.56c0-1.76.8-3.52 2.24-4.48l56.64-43.2 51.52-20.32c0 .32.16.48.16.8l-.32 23.2c0 .96-.48 1.92-1.44 2.4l-107.52 63.84c-.32.16-.8.32-1.28.32z" fill="#5C66C0"/><path d="M745.349 546.091v-22.08c0-.96.48-1.92 1.44-2.4l28.547-15.56c.64-.32 1.44-.48 2.08-.32l52.573 9.48 62.24 51.68c.64.48.96 1.44.96 2.24l-.32 22.4c0 .96-.48 1.92-1.44 2.4l-33.76 19.52c-.96.48-1.92.48-2.88 0l-108.16-64.8c-.8-.64-1.28-1.44-1.28-2.56z" fill="#F8FCFF"/><path d="M776.977 524.229c-5.302 0-9.823-1.906-9.823-5.44 0-3.535 3.658-6.302 8.96-6.302 5.302 0 8.96 2.831 8.96 5.6 0 2.768-2.795 6.142-8.097 6.142z" fill="#5C66C0"/><path d="M776.434 524.229c-4.419 0-8-2.149-8-4.8s3.581-4.8 8-4.8c4.418 0 8.052 2.149 8.052 4.8s-3.634 4.8-8.052 4.8z" fill="#F8FCFF"/><path d="M779.314 519.331v1.058l-6.615-.8v-.929l6.615.671z" fill="#A4B6C5"/><path d="M829.989 515.211l62.24 51.68c.64.48.96 1.44.96 2.24l-.32 22.4c0 .96-.48 1.92-1.44 2.4l-33.76 19.52c-.96.48-1.92.48-2.88 0l-41.235-54.662 16.435-43.578z" fill="#D0D4FF"/><path d="M859.154 573.189c6.627 0 12-3.582 12-8s-5.373-8-12-8c-6.628 0-12 3.582-12 8s5.372 8 12 8z" fill="#5C66C0"/><path d="M859.154 573.189c5.743 0 10.4-2.507 10.4-5.6 0-3.093-4.657-5.6-10.4-5.6-5.744 0-10.4 2.507-10.4 5.6 0 3.093 4.656 5.6 10.4 5.6z" fill="#F8FCFF"/><path d="M854.358 565.189l-.804 1.059 12.445 2.714.456-1.134-12.097-2.639z" fill="#A4B6C5"/><path d="M892.229 566.891c.64.64 1.12 1.44 1.12 2.24l-.32 22.24c0 .96-.48 1.92-1.44 2.4l-33.76 19.52c-.48.32-1.12.48-1.76.32v-23.36c0-2.08 1.12-4 2.88-4.96l33.28-18.4z" fill="#5C66C0"/><path d="M745.669 522.891l39.51 12.376 69.93 50.984c.64.48.96 1.28.96 2.24v25.28c-.32 0-.8-.16-1.12-.32l-108.16-63.2c-.96-.48-1.44-1.44-1.44-2.4v-23.68c0-.48.16-.96.32-1.28z" fill="#959FFA"/><path d="M789.123 517.731l-56.32 49.12c-.64.48-.96 1.28-.96 2.08l36.8 21.352 44.075-1.232.836-35.354-24.431-35.966z" fill="#F8FCFF"/><path d="M767.954 571.589c6.627 0 12-3.582 12-8s-5.373-8-12-8c-6.628 0-12 3.582-12 8s5.372 8 12 8z" fill="#5C66C0"/><path d="M767.954 571.589c5.743 0 10.4-2.508 10.4-5.6 0-3.093-4.657-5.6-10.4-5.6-5.744 0-10.4 2.507-10.4 5.6 0 3.092 4.656 5.6 10.4 5.6z" fill="#F8FCFF"/><path fill="#A4B6C5" d="M767.154 561.989h1.6v8h-1.6z"/><path d="M768.643 614.211v-22.56c0-1.76.8-3.52 2.24-4.48l43.311-30.971-1.45 32.903-42.821 24.788c-.32.16-.8.32-1.28.32z" fill="#5C66C0"/><path d="M850.544 505.752l-.902 26.685c-.127 13.138-16.778 23.763-37.3 23.763-20.599 0-37.299-10.706-37.299-23.913 0-.832.067-1.654.196-2.464l.556-24.071h74.749z" fill="#959FFA"/><path d="M850.544 505.752l-.902 26.685c-.057 5.891-3.436 11.277-8.997 15.426l-.001-42.113 9.9.002z" fill="#5C66C0"/><path d="M812.574 528.868c20.93 0 37.97-10.353 37.97-23.2 0-12.846-17.04-23.2-37.97-23.2s-37.23 10.354-37.23 23.2c0 12.847 16.3 23.2 37.23 23.2z" fill="#F8FCFF"/><path d="M805.443 493.829l32.031-5.678c8.003 4.248 13.07 10.512 13.07 17.517 0 5.983-3.695 11.425-9.758 15.532l-35.343-27.371 32.031-5.678-32.031 5.678z" fill="#D0D4FF"/><path d="M813.394 514.309c11.045 0 20-5.014 20-11.2 0-6.185-8.955-11.2-20-11.2-11.046 0-20 5.015-20 11.2 0 6.186 8.954 11.2 20 11.2z" fill="#FFC8DC"/><path d="M816.377 485.775l-8.482 16.666.446.498 8.036-15.786 5.881 10.626.467-.427-6.348-11.577z" fill="#D5316F"/><path d="M807.154 506.789a4.96 4.96 0 100-9.92 4.96 4.96 0 000 9.92zm9.44-15.2a4 4 0 100-8 4 4 0 000 8zm5.6 8a2.88 2.88 0 100-5.76 2.88 2.88 0 000 5.76z" fill="#FF3F87"/><path d="M812.914 467.227c4.346 0 8.238.87 11.107 2.275 2.886 1.414 4.648 3.319 4.939 5.346v.003l3.516 27.326v.772c0 2.808-2.075 5.451-5.615 7.417-3.524 1.958-8.408 3.185-13.787 3.185-5.379 0-10.263-1.227-13.787-3.185-3.541-1.966-5.615-4.609-5.615-7.417v-.772 0l3.515-27.326.001-.003c.291-2.032 2.019-3.936 4.842-5.347 2.808-1.404 6.619-2.274 10.884-2.274z" fill="#9286FF" fill-opacity=".193" stroke="url(#paint1_linear)" stroke-width=".876"/><path d="M828.956 475.269c0 2.071-1.653 4.077-4.583 5.591-2.907 1.502-6.955 2.451-11.459 2.451-4.423 0-8.35-.948-11.175-2.449-2.839-1.508-4.471-3.514-4.547-5.6.004-2.078 1.588-4.078 4.427-5.586 2.824-1.5 6.791-2.449 11.295-2.449s8.552.949 11.459 2.451c2.93 1.514 4.583 3.52 4.583 5.591z" fill="#9286FF" fill-opacity=".193" stroke="url(#paint2_linear)" stroke-width=".876"/><path d="M814.543 517.789c4.155 0 8.239-.3 12.233-.879l28.2 17.858 24.227-9.037-.545 23.258-3.881 2.51 2.715 2.295c-21.18 17.489-48.337 27.995-77.949 27.995-23.286 0-45.055-6.497-63.593-17.779l14.209-13.468-.001-62.525c15.5 18.216 38.593 29.772 64.385 29.772z" fill="#000" fill-opacity=".275"/><path clip-rule="evenodd" d="M881.377 495.167l1.906-9.82-8.739 4.259 6.833 5.561zm-9.406-44.89l6.181 7.738-3.067 5.976-4.965-6.051 1.851-7.663z" stroke="#467FFF" stroke-width=".5"/><path d="M905.425 443.238a22.837 22.837 0 0121.611 6.928c5.573 6.096 7.408 14.762 4.82 22.605-2.554 7.737-9.027 13.58-16.993 15.295l-22.784 4.904-4.763-5.976-10.662 2.54 4.723 5.633-5.506 1.292-17.724-19.835 8.374-25.196 5.45-1.15-1.851 7.663 10.324-2.003 1.994-7.807 22.987-4.893z" fill="#733DFF"/><path d="M896.969 445.038l8.311-1.769a23.092 23.092 0 0111.919.615c-2.803 4.023-4.142 9.915-4.018 17.677.133 8.273 1.981 16.701 5.544 25.284a23.082 23.082 0 01-4.007 1.252l-16.419 3.534-1.33-46.593z" fill="#000" fill-opacity=".275"/><path d="M914.817 470.313c-2.631-2.922-3.486-7.081-2.261-10.822 2.623-8.015 12.955-10.349 18.618-4.132 2.674 2.936 3.54 7.14 2.287 10.914-2.66 8.009-13.013 10.294-18.644 4.04z" fill="#F8FCFF" stroke="#E9EBFF"/><path d="M931.717 464.907l.71.241-.71-.241-.131.386c-2.099 6.193-10.087 7.838-14.462 2.979a8.557 8.557 0 01-1.757-8.438l.129-.386c2.071-6.197 10.043-7.881 14.443-3.05a8.56 8.56 0 011.778 8.509z" fill="#0D134E" stroke="#959FFA" stroke-width="1.5"/><path clip-rule="evenodd" d="M888.057 454.328l-2.553 8.799 20.743-10.25-18.19 1.451zm5.763 31.88l-5.015-7.668 21.987-1.141-16.972 8.809zm-17.002 2.936l-11.881-13.832 4.796-17.643 10.448-2.1-4.07 16.555 11.297 14.702-10.59 2.318z" stroke="#467FFF" stroke-width=".5"/><path clip-rule="evenodd" d="M873.187 456.96l-4.144 17.53 11.683 13.8-3.908.854-11.881-13.832 4.796-17.643 3.454-.709z" stroke="#467FFF" stroke-width=".5"/><path d="M842.524 308.459l2.499 9.582-5.233 4.211-2.074-7.546 4.808-6.247z" fill="#D0D4FF"/><path clip-rule="evenodd" d="M834.044 352.523l5.735-8.196-9.715.336 3.98 7.86z" stroke="#467FFF" stroke-width=".5"/><path d="M877.135 314.864a22.839 22.839 0 0116.925 15.119c2.611 7.836.763 16.499-4.792 22.611-5.48 6.03-13.77 8.735-21.744 7.061l-22.81-4.787-1.92-7.396-10.773-2.016 2.023 7.067-5.555-1.06-8.124-25.329 17.125-18.764a1.997 1.997 0 011.895-.607l1.225.262a2 2 0 011.167 3.176l-2.875 3.735 10.246 2.37 4.227-5.347a1.998 1.998 0 011.984-.716l21.776 4.621z" fill="#733DFF"/><path d="M833.897 346.167l-5.532-17.375 11.308-14.366 10.438 2.149-10.215 13.649 4.655 17.947-10.654-2.004z" fill="#000" fill-opacity=".275"/><path d="M831.093 314.418l50.517 14.714 8.054 23.022-.322.359a23.233 23.233 0 01-21.964 7.112l-22.664-4.757-1.92-7.396-10.773-2.016 2.023 7.067-5.555-1.06-8.124-25.329 10.661-11.682.067-.034z" fill="#000" fill-opacity=".275"/><path d="M875.716 346.659c-1.86-5.726-.498-12.034 3.542-16.501 4.68-5.176 13.23-3.41 15.422 3.206l1.019 3.077a10.99 10.99 0 01-2.314 10.861l-2.417 2.65c-4.665 5.114-13.113 3.29-15.252-3.293z" fill="#F8FCFF" stroke="#E9EBFF"/><path d="M892.129 345.606l.551.508-.551-.508-.276.299c-4.437 4.803-12.403 3.057-14.424-3.162a8.557 8.557 0 011.828-8.422l.275-.3c4.412-4.819 12.379-3.115 14.434 3.087a8.558 8.558 0 01-1.837 8.498z" fill="#0D134E" stroke="#959FFA" stroke-width="1.5"/><path clip-rule="evenodd" d="M849.056 349.4l-1.463-9.045 20.55 7.9-19.087 1.145z" stroke="#467FFF" stroke-width=".5"/><path d="M842.102 314.288l-10.916 14.329 5.061 17.359-3.918-.81-5.227-17.469 11.557-14.166 3.443.757z" fill="#FF623F"/><path d="M729.87 338.611l-22.88 105.005 78.341 89.477 115.185-53.034 2.943-91.217-40.672-51.821-52.308-17.631-80.609 19.221z" fill="#0D124E"/><path d="M762.64 479.239c38.015 2.659 70.987-26.004 73.645-64.018 2.659-38.015-26.004-70.987-64.018-73.646-38.015-2.658-70.987 26.004-73.645 64.019-2.659 38.015 26.003 70.987 64.018 73.645z" fill="#000" fill-opacity=".162"/><path d="M817.035 390.306l80.187 53.036 17.083-14.255-1.074-9.434-75.616-50.452-20.58 21.105z" fill="#fff"/><path d="M840.798 381.277l19.137 13.237a1.824 1.824 0 002.493-.403 1.68 1.68 0 00-.213-2.255l-.146-.118-19.11-13.216a1.821 1.821 0 00-2.492.402 1.679 1.679 0 00.331 2.353zm31.661 21.279l11.771 7.937a1.845 1.845 0 002.504-.419 1.661 1.661 0 00-.327-2.326l-.071-.051-11.771-7.937a1.844 1.844 0 00-2.504.42 1.66 1.66 0 00.327 2.325l.071.051z" fill="#FF623F"/><path d="M868.892 344.228s3.897 17.534 5.288 28.532c1.391 10.998 1.663 22.107 1.663 22.107l29.185 20.662-6.095-33.21-30.041-38.091z" fill="#D0D4FF"/><path d="M872.024 342.442s3.898 17.535 5.288 28.533c1.391 10.998 1.663 22.106 1.663 22.106l29.185 20.663-6.095-33.211-30.041-38.091z" fill="#BBBEFB"/><path d="M887.139 365.255l1.433 16.236a1 1 0 01-1.455.976l-4.185-2.162a1 1 0 00-1.457.962l1.056 14.478" stroke="#fff" stroke-width=".5"/><path d="M836.089 325.989s3.251 12.383 4.641 23.381c1.391 10.998.745 22.458.745 22.458l30.103 20.311s-.684-10.239-2.384-24.238c-1.7-13.999-6.244-27.805-6.244-27.805l-26.861-14.107z" fill="#D0D4FF"/><path d="M840.15 331.286s2.457 11.937 3.567 20.768c1.109 8.83.576 18.229.576 18.229l24.082 16.106s-.545-8.222-1.901-19.462c-1.356-11.241-4.847-24.321-4.847-24.321l-21.477-11.32z" fill="#BBBEFB"/><path d="M847.305 332.624l.585 15.69a2 2 0 001.583 1.882l7.464 1.585a2 2 0 011.583 1.868l1.349 30.507" stroke="#fff" stroke-width=".5"/><path d="M826.571 346.408a.9.9 0 00-.809-.02l-30.096 14.241a.899.899 0 00-.514.779l-2.751 71.312a.899.899 0 00.398.782l48.561 32.572 6.676 40.328 17.863-9.534-2.226-12.002 2.306-1.401 22.444-11.318 14.96 9.235 6.708-6.283-15.125-45.068-40.043-26.848-22.189-53.251a.897.897 0 00-.407-.448l-5.756-3.076z" fill="#F8FCFF"/><path d="M800.006 429.41l-1.94 27.746 53.656 43.51-7.757-40.672-43.959-30.584z" fill="#5C66C0"/><path clip-rule="evenodd" d="M804.911 444.072l-13.872 7.396-1.364 19.497 37.379 24.641 2.455-35.097-24.598-16.437z" stroke="#467FFF" stroke-width=".5"/><path clip-rule="evenodd" d="M815.928 447.394l-8.08 10.445c-.204.264-.331.58-.366.912l-3.219 30.495a1.8 1.8 0 00.767 1.669l28.054 19.4a1.797 1.797 0 001.775.155l14.401-6.621-6.887-38.198-26.445-18.257z" stroke="#467FFF" stroke-width=".5"/><path d="M806.155 365.494a.9.9 0 00-.511.897l5.405 57.805c.052.558.336 1.068.783 1.407l34.193 25.933 11.018 50.049 8.884-4.469-8.797-51.303-37.016-26.223a1.999 1.999 0 01-.807-1.254l-8.982-46.552a2 2 0 011.101-2.183l18.258-8.738a2 2 0 012.756 1.157l15.204 44.483c.14.408.407.76.763 1.003l39.362 26.933 15.614 46.942 6.777-7.266-15.194-44.084-39.573-26.533a2.004 2.004 0 01-.705-.829l-22.616-49.437-25.917 12.262z" fill="#5C66C0"/><path d="M888.417 472.237l-12.022-37.012-28.536-28.094-15.419-45.11a2 2 0 00-2.756-1.158l-18.258 8.738a2 2 0 00-1.101 2.183l9.134 47.342 37.671 26.688 6.543 39.052 24.744-12.629z" fill="#1B215B"/><path clip-rule="evenodd" d="M895.169 434.146l9.812 6.191-6.858 2.958-2.954-9.149z" stroke="#467FFF" stroke-width=".5"/><path d="M761.995 372.117a.9.9 0 00-.786-.04l-31.62 13.433a.902.902 0 00-.546.766l-4.823 68.97a.9.9 0 00.391.806l53.735 36.691 6.677 40.328 17.862-9.534-2.226-12.002 2.306-1.401 22.445-11.318 14.959 9.235 7.231-4.103-15.648-47.247-40.042-26.848-22.192-53.258a.9.9 0 00-.397-.442l-7.326-4.036z" fill="#F8FCFF"/><path d="M736.993 456.08l-1.707 24.407 51.196 35.666-5.531-29.49-43.958-30.583z" fill="#5C66C0"/><path clip-rule="evenodd" d="M752.914 474.064l26.445 18.257 3.304 18.329-37.722-26.279 7.973-10.307z" stroke="#467FFF" stroke-width=".5"/><path clip-rule="evenodd" d="M741.897 470.741l-13.872 7.396-1.364 19.498 37.38 24.64 2.454-35.097-24.598-16.437z" stroke="#467FFF" stroke-width=".5"/><path clip-rule="evenodd" d="M752.914 474.064l-8.079 10.444c-.205.265-.332.58-.367.913l-3.219 30.494a1.798 1.798 0 00.767 1.669l28.054 19.401c.523.362 1.198.42 1.776.155l14.4-6.622-6.887-38.197-26.445-18.257z" stroke="#467FFF" stroke-width=".5"/><path clip-rule="evenodd" d="M779.437 492.756l6.809 37.762-14.4 6.622a1.81 1.81 0 01-.619.16l2.431-34.758c.016-.232.077-.458.179-.665l.084-.153 5.516-8.968z" stroke="#467FFF" stroke-width=".5"/><path d="M783.606 430.816l10.542 18.895 19.588 19.971 15.773-9.173-45.903-29.693z" fill="#F8FCFF"/><path d="M742.823 391.506a2 2 0 00-1.161 2.088l7.646 57.433c.069.517.337.987.747 1.309l32.957 25.869 11.018 50.05 8.883-4.47-8.796-51.302-37.672-26.689-9.133-47.341a1.999 1.999 0 011.1-2.183l18.259-8.738a2 2 0 012.755 1.158l15.419 45.11 39.91 27.308 15.614 46.943 7.231-4.103-15.648-47.248-40.042-26.848-22.291-50.407-26.796 12.061z" fill="#5C66C0"/><path d="M734.095 409.158c.901 29.725 8.397 49.934 48.935 77.69l2.536 1.729c20.721 14.251 18.78 18.447-5.823 12.588l-1.397-8.422-53.735-36.691a.9.9 0 01-.391-.687v-.119l4.823-68.97c.021-.3.19-.567.446-.716l.1-.05 9.672-4.109c-3.738 8.812-5.46 18.064-5.166 27.757z" fill="#000" fill-opacity=".162"/><path d="M825.403 498.906l-6.242-33.468-34.316-31.638-15.419-45.11a2 2 0 00-2.755-1.158l-18.259 8.738a2 2 0 00-1.101 2.183l9.134 47.341 37.671 26.689 6.543 39.052 24.744-12.629z" fill="#1B215B"/><path d="M781.887 467.461a1.612 1.612 0 00-.961 1.937l7.685 27.272-10.815 4.358-2.166-33.355a1.607 1.607 0 011.134-1.641l17.732-5.414a.88.88 0 01.579 1.659l-13.188 5.184z" fill="#1B215B" stroke="#E5EAED" stroke-width=".515"/><path d="M777.998 493.745l7.633-14.518 113.899-55.158 13.312 11.686-4.071 30.465-109.377 56.188-21.396-28.663z" fill="#D0D4FF"/><path d="M797.704 480.459c-1.06-.592-1.015-2.132.078-2.66l44.818-21.668a1.499 1.499 0 011.591.18l2.911 2.336a.5.5 0 01-.09.837l-45.189 22.525a1.5 1.5 0 01-1.401-.033l-2.718-1.517z" fill="#FF623F" stroke="#fff"/><path d="M856.917 459.261l-29.001 15.286a1 1 0 00-.163 1.662l3.067 2.484a1 1 0 01-.203 1.682l-30.795 14.496m72.082-28.223l-14.826 8.222a1 1 0 01-.964.003l-5.02-2.74a1 1 0 00-.946-.006l-8.378 4.415a1 1 0 00-.185 1.644l4.127 3.545a1 1 0 01-.226 1.663l-30.84 14.518" stroke="#fff" stroke-width=".5"/><path d="M899.53 424.069l13.312 11.686-4.071 30.465-109.377 56.188-21.396-28.663 1.713-3.255c35.358 6.705 64.523-2.637 87.494-28.028 10.154-11.223 17.311-22.268 21.473-33.137l10.852-5.256z" fill="#9593F3" fill-opacity=".331"/><path d="M820.847 443.343a.999.999 0 111.998.07l-.034.999-1.999-.069.035-1z" fill="#FF3F87"/><path d="M819.915 445.335a1.743 1.743 0 013.48.186l-.712 13.362a1.74 1.74 0 11-3.479-.186l.711-13.362z" fill="#1B215B" stroke="#E5EAED" stroke-width=".515"/><path d="M820.417 458.547a2.001 2.001 0 01-.442-2.794l1.763-2.427a2 2 0 012.794-.442l2.427 1.763-4.115 5.663-2.427-1.763z" fill="#B0C1E9"/><path d="M822.188 459.747c.87.68 2.541-.003 3.731-1.526 1.19-1.524 1.449-3.31.579-3.99-.871-.68-2.541.004-3.731 1.527s-1.45 3.309-.579 3.989z" fill="#1B215B"/><path d="M823.973 458.547a1.514 1.514 0 011.806-2.433l3.011 2.188-2.904 1.695-1.913-1.45z" fill="#B0C1E9"/><path d="M873.84 470.933l-28.584-20.206 1.266-16.93 39.907-19.943 23.679 30.278-36.268 26.801z" fill="#D0D4FF"/><path d="M864.647 424.322l22.136 26.62m9.707-3.851l-12.221-15.668a1.999 1.999 0 01-.144-2.248l2.567-4.338a1.999 1.999 0 00-.17-2.281l-4.796-5.891m3.24 47.84l-14.31-17.261a1 1 0 00-.942-.347l-2.449.427a1.001 1.001 0 01-.926-.328l-13.769-15.798" stroke="#fff" stroke-width=".5"/><path d="M891.457 420.285l18.651 23.847-36.268 26.801-8.76-6.191c.713-.742 1.422-1.502 2.125-2.28 12.982-14.349 21.066-28.408 24.252-42.177z" fill="#9593F3" fill-opacity=".331"/><path d="M846.478 434.377l27.917 36.156-.555.4-28.584-20.206 1.222-16.35z" fill="#1B215B"/><mask id="a" fill="#fff"><path fill-rule="evenodd" clip-rule="evenodd" d="M917.374 445.451c4.72-67.49-46.166-126.028-113.656-130.747-67.49-4.72-126.028 46.166-130.747 113.656-4.719 67.49 46.166 126.028 113.656 130.747 67.491 4.719 126.028-46.166 130.747-113.656zm-189.718-39.33c3.255-46.555 43.634-81.655 90.188-78.4 46.555 3.255 81.655 43.634 78.4 90.189-3.255 46.554-43.634 81.655-90.189 78.399-46.554-3.255-81.655-43.634-78.399-90.188z"/></mask><path fill-rule="evenodd" clip-rule="evenodd" d="M917.374 445.451c4.72-67.49-46.166-126.028-113.656-130.747-67.49-4.72-126.028 46.166-130.747 113.656-4.719 67.49 46.166 126.028 113.656 130.747 67.491 4.719 126.028-46.166 130.747-113.656zm-189.718-39.33c3.255-46.555 43.634-81.655 90.188-78.4 46.555 3.255 81.655 43.634 78.4 90.189-3.255 46.554-43.634 81.655-90.189 78.399-46.554-3.255-81.655-43.634-78.399-90.188z" fill="#F8FCFF"/><path d="M803.648 315.701c66.939 4.681 117.409 62.741 112.729 129.68l1.995.139c4.758-68.041-46.543-127.056-114.584-131.814l-.14 1.995zM673.969 428.43c4.68-66.939 62.74-117.409 129.679-112.729l.14-1.995c-68.041-4.758-127.057 46.544-131.815 114.585l1.996.139zm112.728 129.679c-66.939-4.68-117.409-62.74-112.728-129.679l-1.996-.139c-4.757 68.041 46.544 127.056 114.585 131.814l.139-1.996zm129.68-112.728c-4.681 66.939-62.741 117.409-129.68 112.728l-.139 1.996c68.041 4.758 127.056-46.544 131.814-114.585l-1.995-.139zm-98.463-118.658c-47.105-3.294-87.962 32.223-91.256 79.328l1.995.139c3.217-46.003 43.118-80.688 89.121-77.471l.14-1.996zm79.327 91.256c3.294-47.105-32.222-87.962-79.327-91.256l-.14 1.996c46.004 3.216 80.689 43.117 77.472 89.121l1.995.139zm-91.255 79.328c47.105 3.294 87.962-32.222 91.255-79.328l-1.995-.139c-3.217 46.003-43.117 80.689-89.121 77.472l-.139 1.995zm-79.328-91.256c-3.294 47.105 32.222 87.962 79.328 91.256l.139-1.995c-46.003-3.217-80.689-43.118-77.472-89.122l-1.995-.139z" fill="#E9EBFF" mask="url(#a)"/><path d="M891.246 482.217c4.704.329 8.467 3.708 9.491 8.07l6.298-3.368c-20.398 45.61-67.669 75.876-120.408 72.188-1.86-.13-3.708-.301-5.542-.512l1.63-.596c11.293-4.152 20.069-7.901 26.329-11.25 6.742-3.607 12.725-7.906 17.95-12.896a10.5 10.5 0 01-5.33-9.888c.405-5.785 5.422-10.146 11.207-9.742 5.426.38 9.6 4.818 9.763 10.14 9.63-2.056 17.308-5.033 23.034-8.929 5.748-3.912 11.91-8.707 18.486-14.385a10.494 10.494 0 01-4.115-9.09c.405-5.784 5.422-10.146 11.207-9.742z" fill="#9593F3" fill-opacity=".331"/><path d="M831.546 533.177a8.5 8.5 0 101.185-16.958 8.5 8.5 0 10-1.185 16.958zm58.374-32.006a8.5 8.5 0 10-7.886-9.072 8.5 8.5 0 007.886 9.072z" fill="#733DFF"/><path fill-rule="evenodd" clip-rule="evenodd" d="M904.12 419.964c3.583-51.237-35.049-95.678-86.286-99.261-51.238-3.583-95.678 35.049-99.261 86.286-3.583 51.238 35.049 95.678 86.286 99.261 51.237 3.583 95.678-35.049 99.261-86.286zm-176.464-13.843c3.255-46.555 43.634-81.655 90.188-78.4 46.555 3.255 81.655 43.634 78.4 90.189-3.256 46.554-43.634 81.655-90.189 78.399-46.554-3.255-81.655-43.634-78.399-90.188z" fill="#733DFF"/><path d="M895.745 417.875c-3.236 46.279-43.376 81.172-89.655 77.936-46.279-3.237-81.172-43.376-77.936-89.655 3.236-46.279 43.376-81.172 89.655-77.936 46.279 3.236 81.172 43.376 77.936 89.655z" fill="#9286FF" fill-opacity=".193" stroke="#ECEAFE"/><path d="M709.734 404.364c-1.268 18.141-25.001 28.47-24.254 44.92l.057 1.12c.918 16.039 5.849 31.184 13.095 36.222 7.415 5.154 20.829 4.731 29.636 17.29 4.669 6.658 8.807 20.903 12.414 42.733-43.1-21.415-71.277-67.297-67.711-118.289 1.691-24.178 10.289-46.226 23.731-64.349 9.408 16.616 13.752 30.066 13.032 40.353z" fill="#9593F3" fill-opacity=".331"/><path d="M832.752 530.254a5.5 5.5 0 10.77-10.972 5.5 5.5 0 00-.77 10.972zm58.375-32.006a5.5 5.5 0 10.769-10.973 5.5 5.5 0 00-.769 10.973z" fill="#1B215B"/><path d="M836.877 525.029a4.75 4.75 0 11-9.477-.663 4.75 4.75 0 019.477.663zm58.375-32.006a4.75 4.75 0 11-9.477-.663 4.75 4.75 0 019.477.663z" fill="#0D134E" stroke="#959FFA" stroke-width="1.5"/><path d="M649.245 417.212l4.848-8.751-9.627 1.35 4.779 7.401zm4.857-44.602l3.488 9.269-4.765 4.735-2.852-7.288 4.129-6.716z" fill="#D0D4FF"/><path d="M690.089 376.392a22.841 22.841 0 0118.413 13.268c3.416 7.519 2.483 16.328-2.402 22.987-4.82 6.57-12.782 10.126-20.887 9.295l-21.952-2.25a1.998 1.998 0 01-1.668-1.287l-2.248-5.994-10.925-.879 1.535 3.804c.558 1.381-.537 2.866-2.022 2.741l-1.213-.102a1.999 1.999 0 01-1.663-1.186l-9.782-22.194a2 2 0 01.22-1.993l14.383-19.519a2 2 0 011.822-.802l1.245.133a2 2 0 011.492 3.036l-2.469 4.015 10.438 1.286 3.645-5.759a2.001 2.001 0 011.899-.92l22.139 2.32z" fill="#733DFF"/><path d="M653.671 395.271l14.759 1.247a18.233 18.233 0 0116.342 14.575 10.844 10.844 0 01-3.641 10.432" stroke="#491A9C"/><path d="M690.629 405.078c-1.599-3.592-1.127-7.811 1.194-10.991 4.972-6.811 15.52-5.839 18.984 1.824 1.635 3.618 1.16 7.885-1.198 11.086-5.004 6.796-15.557 5.769-18.98-1.919z" fill="#F8FCFF" stroke="#E9EBFF"/><path d="M708.215 405.398l.601.448-.601-.448-.244.326c-3.91 5.241-12.015 4.337-14.675-1.636a8.559 8.559 0 01.937-8.568l.242-.327c3.885-5.254 11.986-4.391 14.678 1.562a8.56 8.56 0 01-.938 8.643z" fill="#0D134E" stroke="#959FFA" stroke-width="1.5"/><path d="M648.696 411.212l-6.616-15.848a2 2 0 01.172-1.866l9.432-14.41 10.586 1.231-8.987 14.487 6.201 17.474-10.788-1.068z" fill="#000" fill-opacity=".275"/><path d="M655.188 379.481l-8.834 14.529a2.002 2.002 0 00-.142 1.797l6.465 15.8-3.981-.395-6.616-15.848a2 2 0 01.172-1.866l9.432-14.41 3.504.393z" fill="#FF623F"/><path d="M689.091 552.527l-.7-9.979-7.339 6.375 8.039 3.604zm-20.773-39.929l7.973 5.874-1.417 6.566-6.361-4.559-.195-7.881z" fill="#D0D4FF"/><path d="M700.875 496.282a22.84 22.84 0 0122.668 1.099c6.96 4.445 10.976 12.342 10.505 20.587-.464 8.135-5.204 15.454-12.454 19.172l-19.636 10.068a2 2 0 01-2.101-.17l-5.149-3.803-9.641 5.212 3.359 2.354c1.22.856 1.11 2.697-.203 3.401l-1.073.575a2 2 0 01-2.041-.089l-20.291-13.286a2 2 0 01-.901-1.791l1.432-24.203a1.999 1.999 0 011.091-1.665l1.116-.567a2 2 0 012.905 1.733l.117 4.713 9.454-4.607-.08-6.815a2 2 0 011.092-1.806l19.831-10.112z" fill="#733DFF"/><path d="M680.333 531.58l14.003-7.5a17.762 17.762 0 0120.41 2.583c3.488 3.208 4.299 8.238 2.315 12.287" stroke="#491A9C"/><path d="M716.954 520.004c-3.298-2.142-5.199-5.937-4.985-9.868.46-8.421 9.836-13.35 16.914-8.81 3.343 2.144 5.268 5.981 5.034 9.95-.496 8.425-9.905 13.311-16.963 8.728z" fill="#F8FCFF" stroke="#E9EBFF"/><path d="M731.879 510.409l.748.049-.748-.049-.027.406c-.424 6.525-7.714 10.182-13.198 6.62a8.553 8.553 0 01-3.88-7.695l.024-.407c.397-6.521 7.661-10.211 13.161-6.684a8.56 8.56 0 013.92 7.76z" fill="#0D134E" stroke="#959FFA" stroke-width="1.5"/><path d="M685.124 548.028l-15.056-10.286.066-18.282 9.548-4.733.354 17.044 14.717 11.278-9.629 4.979z" fill="#000" fill-opacity=".275"/><path d="M673.287 517.881l.534 18.005 14.857 10.306-3.554 1.836-15.056-10.286.066-18.282 3.153-1.579z" fill="#FF623F"/><path d="M780.924 675.314h9.166c.362 0 .715.109 1.014.313l2.284 1.557c.984.671 1.053 2.09.118 2.828-1.39 1.095-3.343 2.568-5.05 3.611-1.654 1.01-6.244 3.477-10.104 5.526-2.628 1.394-5.752-.642-5.555-3.61l.619-9.322 7.508-.903zm-32.295-4.503a1.8 1.8 0 00-.909 1.505l-.154 4.668-.006 2.007a1.758 1.758 0 001.658 1.775c1.189.062 2.655.103 3.098-.039 1.951-.627 2.879-2.518 3.401-2.784 1.268-.646 3.293-2.682 3.293-2.682l5.329-1.988a1.8 1.8 0 00.981-2.491l-.703-1.407a1.8 1.8 0 00-1.393-.983l-7.931-.967a1.806 1.806 0 00-1.108.223l-5.556 3.163z" fill="#733DFF"/><path d="M758.618 542.034s.392-3.264.253-7.627c-.139-4.362-6.343-13.798-6.343-13.798l15.418-10.452s2.433 8.269 3.504 12.564c.867 3.478-.208 6.476-.648 7.49a1.187 1.187 0 01-.526.563l-2.276 1.26 3.004 6.912-2.446 3.868-9.94-.78z" fill="#FFAF8A"/><path d="M773.357 513.011c.948 1.33.421 3.915.542 6.463.071 1.483.73 2.551.733 2.939.002.211-1.846.008-2.304-.687-.56-.847-.516-3.315-.813-3.258-3.218.614-.31 5.887-5.026 13.564-1.626 2.647-7.95 2.822-7.95 2.822s-4.426-3.783-5.942-8.453c-3.588-11.051 6.634-16.771 9.191-14.865 3.135-3.633 9.259-1.769 11.569 1.475z" fill="#0D134E"/><path d="M752.967 520.649l.582-.145a3 3 0 111.452 5.822l-.582.145-1.452-5.822z" fill="#5C66C0"/><path d="M788.258 560.66l11.484-11.516c.608-.61.743-1.547.332-2.304l-12.184-7.222a.909.909 0 00-1.09.123l-11.823 11.239 13.281 9.68z" fill="#733DFF"/><path d="M786.8 539.741l-11.249 10.693 12.707 9.262 11.722-11.754a.91.91 0 00.265-.671 1.93 1.93 0 00-.096-.277l-.075-.154-12.184-7.222a.909.909 0 00-1.09.123z" fill="#D6D9FB"/><path d="M788.378 558.416l10.539-10.455a.818.818 0 00-.164-1.287l-10.705-6.248a.816.816 0 00-.947.087l-10.715 9.256 11.992 8.647z" fill="#fff"/><path d="M787.101 540.513l-10.715 9.256 11.992 8.647 1.168-1.158c1.197-5.306 1.801-10.273 1.813-14.901l-3.311-1.931a.816.816 0 00-.947.087z" fill="#000" fill-opacity=".169"/><path d="M776.286 547.85l6.024 2.179a3.632 3.632 0 003.926-.977c.681-.751-.201-1.894-1.111-1.448a9.983 9.983 0 01-.525.246c-.61.247-1.432-1.121-1.432-1.121l4.796-1.528c.8-.255 1.18-1.163.77-1.895-.621-1.108-1.486-2.525-2.035-2.892-.798-.532-5.449-.159-6.82-.035a1.324 1.324 0 00-.687.268l-4.844 3.676 1.938 3.527z" fill="#FFAF8A"/><path d="M758.93 535.081l-10.555 1.536a1.361 1.361 0 00-.887.594l-.069.12-10.411 20.161a7.173 7.173 0 00.504 7.414 3.63 3.63 0 005.396.614l.155-.148 6.209-6.431.622 11.139c.93 4.034.61 8.251-.911 12.093l-.174.425s-2.173 7.652-3.117 13.702c-.944 6.049.724 46.527.724 46.527l.644 27.28a1.364 1.364 0 001.316 1.331l.896.026c1.299.029 2.156.002 2.571-.079 1.441-.283 2.512-1.233 3.185-1.593l.138-.068c1.193-.523 2.17-9.295 2.931-26.314l.026-.583s2.019-34.178 2.12-33.973l6.403 39.086 4.506 30.477a2.274 2.274 0 002.86 1.857l.676-.191c2.398-.688 3.876-1.225 4.434-1.613.726-.503 1.66-1.976 2.803-4.417.117-.251.188-.521.208-.796l.006-.207-.448-25.925s-4.612-53.707-4.889-60.753c-.302-7.653.623-14.003 2.775-19.051l.205-.469 6.646 10.679a5.458 5.458 0 004.387 2.567l.245.006h1.662a4.035 4.035 0 004.016-4.44l-.026-.2-3.062-20.217-4.911 4.85-5.481-14.346a1.38 1.38 0 00-.423-.579l-.119-.084-12.241-7.795c-4.269.624-7.366.624-9.291 0-1.842-.596-2.169-1.051-2.249-2.072l-.005-.14z" fill="#380085"/><path d="M750.081 578.342l.479.093a2.25 2.25 0 001.015-4.381l-.157-.036-1.02-.2a20.411 20.411 0 01-.317 4.524zm-1.065 4.746l-.207.51a216.999 216.999 0 00-.952 3.206c2.825.991 5.817 1.664 8.978 2.02 4.964.558 11.639.478 20.026-.24l-.051-1.006-.008-.206a69.814 69.814 0 01-.056-2.715l-.478.047-.225.019c-7.723.626-14.255.39-18.596 0a41.761 41.761 0 01-8.431-1.635zm28.297-7.511l-4.057.001a2.25 2.25 0 00-.154 4.495l.154.005 3.591-.001c.092-1.567.247-3.067.466-4.5zm-21.524-40.01l-4.771.547c-.272 5.818 3.016 9.619 9.617 10.746 6.708 1.144 12.279-.674 16.458-5.353l-3.858-2.455c-3.088 3.153-7.008 4.326-11.843 3.372-3.272-.646-5.937-2.542-5.603-6.857z" fill="#733DFF"/><path d="M755.624 525.181c-3.255 2.032-5.204 5.696-4.062 9.359a30.683 30.683 0 001.819 4.535c2.828 5.678.006 19.077.006 19.077s-2.763-8.684-5.397-11.154c-2.634-2.47-4.148-5.086-5.598-9.366-.402-1.188-.89-3.932-1.384-7.278-1.19-8.043 8.051-13.192 14.468-8.199 0 0 .983.289 1.063 1.424.079 1.135-.915 1.602-.915 1.602z" fill="#0D134E"/><path d="M749.249 551.331l-7.114 14.722c.274-.141.535-.319.773-.533l.155-.148 6.186-6.409v-7.632zm41.818 6.51l-2.328 2.256 3.559 10.187-1.231-12.443zm-13.997 1.276a.455.455 0 00-.28.425l.162 15.296c.003.34.131.649.338.886.462-3.095 1.216-5.877 2.263-8.348l.229-.524 3.009 4.834-5.127-12.324a.454.454 0 00-.594-.245z" fill="#000" fill-opacity=".275"/><defs><linearGradient id="paint0_linear" x1="2090.04" y1="402.738" x2="2001.48" y2="1022.88" gradientUnits="userSpaceOnUse"><stop stop-color="#A8A8A8"/><stop offset="1" stop-color="#F6F6F6"/></linearGradient><linearGradient id="paint1_linear" x1="837.692" y1="462.809" x2="790.18" y2="450.882" gradientUnits="userSpaceOnUse"><stop stop-color="#fff" stop-opacity=".145"/><stop offset="1" stop-color="#fff"/></linearGradient><linearGradient id="paint2_linear" x1="833.324" y1="465.359" x2="802.093" y2="447.411" gradientUnits="userSpaceOnUse"><stop stop-color="#fff" stop-opacity=".145"/><stop offset="1" stop-color="#fff"/></linearGradient></defs></svg>