<svg width="20" height="21" fill="none" xmlns="http://www.w3.org/2000/svg"><g clip-path="url(#clip0)" fill="#333"><path d="M14.586 0H5.414C2.429 0 0 2.55 0 5.684v9.632C0 18.45 2.43 21 5.414 21h9.172C17.572 21 20 18.45 20 15.316V5.684C20 2.55 17.572 0 14.586 0zM10 16.242c-3.015 0-5.468-2.576-5.468-5.742S6.985 4.758 10 4.758s5.47 2.576 5.47 5.742-2.455 5.742-5.47 5.742zm5.6-10.13c-.892 0-1.616-.76-1.616-1.697 0-.935.724-1.696 1.616-1.696.89 0 1.615.76 1.615 1.696 0 .936-.724 1.697-1.615 1.697z"/><path d="M10 5.99c-2.369 0-4.296 2.023-4.296 4.51 0 2.487 1.927 4.511 4.296 4.511s4.296-2.024 4.296-4.51c0-2.488-1.927-4.512-4.296-4.512zm5.6-2.04a.456.456 0 00-.444.465c0 .257.199.466.443.466a.455.455 0 00.444-.466.455.455 0 00-.444-.465z"/></g><defs><clipPath id="clip0"><path fill="#fff" d="M0 0h20v21H0z"/></clipPath></defs></svg>