<svg width="1351" height="751" fill="none" xmlns="http://www.w3.org/2000/svg"><circle r="5.225" transform="matrix(1 0 0 -1 1317.77 508.225)" fill="#CCC" fill-opacity=".3"/><path opacity=".4" d="M1284.99 750.001v-72.192c0-.788.47-1.502 1.19-1.825l30.24-13.581a1.997 1.997 0 001.18-1.824V514.4M1 0v232.997a2 2 0 00.72 1.537l54.56 45.409a2 2 0 01.72 1.537V750" stroke="#CCC"/><circle cx="894.849" cy="101.784" r="9.85" transform="rotate(90 894.849 101.784)" fill="#CCC" fill-opacity=".3"/><path opacity=".4" d="M1350.62 40h-137.24c-.79 0-1.5.462-1.82 1.18l-26.54 59.11a2.014 2.014 0 01-1.83 1.181h-276.7" stroke="#CCC"/></svg>