<svg width="453" height="144" fill="none" xmlns="http://www.w3.org/2000/svg"><ellipse cx="9.582" cy="61.872" rx="9.773" ry="9.581" transform="rotate(90 9.582 61.872)" fill="#CCC" fill-opacity=".3"/><path opacity=".4" d="M452.943.568H319.49c-.793 0-1.511.468-1.83 1.194l-25.798 58.605a1.999 1.999 0 01-1.83 1.195H20.905" stroke="#CCC"/><path d="M418.789 49.149s3.228-5.456 3.536-7.129c.307-1.673.777-4.625 1.945-5.86.581-.616 3.603-2.287 7.508-2.742 1.241-.144 2.375-1.449 3.524-1.898 2.39-.932 4.164-.181 5.227.395 3.23 1.75-.734 6.291-2.793 7.62-2.059 1.33-7.245 4.02-8.219 6.179-.974 2.16-3.544 7.625-3.544 7.625l-7.184-4.19z" fill="#959FFA"/><path d="M440.528 31.915c1.406.761 1.45 2.052.88 3.376-2.709 2.57-11.707 7.534-16.426 4.146-1.344-.966-1.205-2.315.416-4.049 1.332-.732 3.638-1.65 6.38-1.97 1.241-.144 2.374-1.449 3.524-1.897 2.389-.933 4.163-.182 5.226.394z" fill="#733DFF"/><path d="M440.529 31.915c3.173 1.72-.594 6.13-2.681 7.546l-.112.075c-2.059 1.329-7.245 4.018-8.219 6.178l-.64 1.403a901.589 901.589 0 01-2.904 6.222l-2.29-1.337-.38-2.325c2.868-5.363 5.042-8.643 6.522-9.84l10.638-7.957.066.035z" fill="#000" fill-opacity=".489"/><path d="M440.529 31.915c.311.168.555.363.741.578a6.143 6.143 0 01-.525 1.513c-1.008 2.01-11.179 7.072-14.22 4.878-1.395-1.006-1.43-2.34-.106-4.001a18.68 18.68 0 015.359-1.465c1.241-.144 2.374-1.45 3.524-1.898 2.389-.932 4.163-.181 5.227.395z" fill="#380085"/><path d="M396.601 36.76s2.226-6.95 2.797-9.068c.387-1.436.457-2.489.567-3.082.405-2.205 12.732-6.322 14.336-6.039 3.229.57 2.051 4.343 1.091 5.784-.96 1.44-7.433 5.353-7.969 5.846-1.458 1.343-4.018 8.92-4.018 8.92l-6.804-2.361z" fill="#959FFA"/><path d="M414.301 18.571c1.534.271 2.073 1.265 2.114 2.388a7.175 7.175 0 01-.459.33l-3.062 2.013c-1.415.94-2.821 1.895-3.527 2.466l-.244.207c-2 1.817-7.182 1.516-9.366.024l.074-.479c.054-.372.091-.677.133-.91.406-2.205 12.733-6.322 14.337-6.039z" fill="#733DFF"/><path d="M415.392 24.355c-.96 1.44-7.434 5.353-7.969 5.847-.958.882-2.273 3.784-3.946 8.706l-.772-.03-.83-.288 2.081-11.31c.366-1.994 4.232-4.725 11.596-8.193 1.597 1.23.643 4.064-.16 5.268z" fill="#000" fill-opacity=".489"/><path d="M414.301 18.571c.967.171 1.539.63 1.839 1.226a18.03 18.03 0 01-.568.39c-1.844 1.217-5.569 2.925-6.712 3.845l-.116.099c-2.036 1.849-6.853 2.336-8.853.958l.049-.336.024-.143c.406-2.205 12.733-6.322 14.337-6.039z" fill="#380085"/><path d="M360.619 76.989s16.049-13.001 19.544-14.964c3.494-1.963 5.148-2.447 5.313-3.347.166-.9 1.732-3.89 2.57-8.448.838-4.558 6.809-14.886 9.395-14.98 2.585-.093 6.215 1 6.42 2.289.206 1.289-3.83 28.829-7.013 31.838-3.183 3.01-9.169 7.188-9.169 7.188s11.901-1.958 13.507-4.048c1.606-2.09 1.687-4.186 3.222-7.203 1.535-3.017 12.409-17.239 14.884-17.623 2.476-.385 6.453 2.553 7.205 4.924.751 2.37-11.222 29.276-13.91 31.54-2.687 2.265-8.546 6.14-15.703 7.67-3.635.776-7.83 1.892-14.093 2.906-1.958.317-7.013.764-7.013.764l-15.159-18.506z" fill="#733DFF"/><path d="M386.161 56.758l.068-.179c2.011.444 3.926.993 5.745 1.646 2.139.768 4.576 2.503 7.31 5.205l-.188.672c-.754 2.631-1.523 4.59-2.248 5.275-1.138 1.076-2.546 2.265-4.222 3.565-1.128-2.896-2.231-5.341-3.31-7.337-1.042-1.927-3.236-3.578-6.583-4.954l1.104-.574c.958-.511 1.482-.865 1.617-1.31l.022-.09c.042-.229.176-.594.365-1.087l.388-1.01-.068.178z" fill="#959FFA"/><path d="M403.861 37.539c.206 1.288-3.83 28.829-7.013 31.838-2.104 1.989-5.126 4.36-9.067 7.116l-.155.062.76-.882c3.59-4.199 5.953-7.48 7.088-9.844 1.246-2.595 3.787-19.022 6.208-29.905 1.188.42 2.08.994 2.179 1.615z" fill="#000" fill-opacity=".489"/><path d="M402.522 70.075l.102-.266a47.626 47.626 0 016.722 3.41c1.927 1.185 3.938 3.373 6.035 6.564l-.312.576c-1.074 1.965-1.956 3.353-2.482 3.796-1.813 1.528-4.764 3.378-7.909 4.898.031-3.807-.236-6.68-.801-8.62-.619-2.13-2.13-4.363-4.531-6.697.912-.402 1.524-.809 1.84-1.219.611-.796 1.002-1.593 1.336-2.442l.102-.266-.102.266z" fill="#959FFA"/><path d="M426.496 52.615c.751 2.37-11.222 29.275-13.909 31.54-2.622 2.21-8.262 5.952-15.182 7.553l-2.009.444c-3.175.716-6.88 1.627-11.986 2.477l-.619.101c-.436.07-.987.146-1.653.227l3.731-11.525c10.189.03 17.518-1.276 21.989-3.92 5.193-3.073 12.475-20.745 16.576-30.468 1.444.99 2.677 2.355 3.062 3.57z" fill="#000" fill-opacity=".489"/><path d="M377.049 95.668l6.636-.943s4.591-12.691-1.805-17.767c-6.395-5.075-12.322-6.977-12.322-6.977l-8.838 6.528 15.057 18.985 1.272.174z" fill="#6970B1"/><path d="M310.735 90.632s-6.163 12.829-8.705 13.581c-2.542.752-2.7 1.173-2.7 1.173l-6.302 7.347-1.52-1.886-.026-1.355s-.97-.569-1.117-1.907c-.148-1.337 1.348-2.107 2.757-3.617 1.408-1.509-.79-2.492.43-5.736 1.221-3.244 8.844-16.84 11.579-17.772 2.735-.933 14.171.076 20.185 1.14 6.014 1.062 37.247-9.475 37.247-9.475l16.92 12.02s.862 9.429-3.335 12.32c-4.198 2.892-24.442 13.539-31.555 12.282-7.114-1.257-20.575-7.704-22.338-10.5-1.235-1.957-.115-4.553-2.204-5.968-1.491-1.01-9.316-1.647-9.316-1.647z" fill="#733DFF"/><path d="M376.148 96.466l-.305.204c-4.752 3.132-23.994 13.15-31.087 12.104 2.372-2.005 3.298-4.273 2.782-6.804-.531-2.601-3.409-4.72-8.633-6.359-4.853-2.235-3.189-4.41 4.99-6.523l.908-.227c8.008-1.95 19.588-3.262 34.742-3.939.417 5.849-.716 9.696-3.397 11.544z" fill="#000" fill-opacity=".489"/><path d="M335.786 73.861l-1.289 7.012a1.937 1.937 0 00.602 1.78l15.555 14.25a2.03 2.03 0 001.988.43l30.291-9.724a1.965 1.965 0 001.378-1.88c-.016-1.806-.728-3.45-2.137-4.93l-.294-.3c-3.094-3.051-13.309-10.693-18.68-11.642-3.591-.635-12.216.51-25.873 3.436a1.979 1.979 0 00-1.541 1.568z" fill="#959FFA"/><path d="M352.154 84.794l27.397-6.353.554.461c.888.75 1.602 1.405 2.069 1.896 1.409 1.481 2.121 3.125 2.137 4.93a1.96 1.96 0 01-1.226 1.825l-.152.056-30.291 9.725a2.034 2.034 0 01-.619.097l.48-1.016c.224-.48.463-.996.715-1.551 1.581-3.473 1.296-6.735-.856-9.785l-.208-.285z" fill="#000" fill-opacity=".489"/><path d="M363.2 68.857c5.556.982 16.297 9.126 18.974 11.941.281.295.53.614.749.955l-27.453 7.134c-.26.067-.535.029-.764-.104l-.11-.074-18.863-14.56.053-.288a1.975 1.975 0 011.386-1.528l.155-.04 1.266-.269c12.925-2.726 21.128-3.782 24.607-3.167z" fill="#F8FCFF"/><path d="M353.629 74.781l11.769-5.284c4.308 1.643 10.143 5.691 13.838 8.688l-22.325 1.6a2.034 2.034 0 01-1.079-.221l-.161-.093-2.288-1.467a1.828 1.828 0 01.101-3.15l.145-.073 11.769-5.284-11.769 5.284z" fill="#380085"/><path d="M363.2 68.857c2.978.526 7.445 3.11 11.362 5.828-2.897 6.03-14.479 9.018-27.402 6.734-4.484-.793-8.59-2.124-12.065-3.803l.691-3.755a1.978 1.978 0 011.541-1.568l1.266-.269c12.925-2.726 21.128-3.782 24.607-3.167z" fill="#9593F3" fill-opacity=".331"/><path d="M321.591 94.582l-.177.067c-.153-.914-.454-1.754-1.363-2.37-.994-.673-4.1-1.222-9.316-1.646l-.428.885c-3.883 7.98-6.642 12.211-8.278 12.695-1.694.502-2.594.893-2.699 1.173l-2.819 3.286-4.647-3.631c.44-.32.881-.668 1.258-1.072 1.408-1.51-.791-2.493.43-5.737l.131-.328c1.554-3.74 8.797-16.54 11.448-17.444 2.735-.933 14.171.076 20.185 1.14 1.245.22 3.301.067 6.168-.46l-.453.91c-3.682 7.306-6.829 11.483-9.44 12.532zm9.993 7.993c4.076.72 7.977-1.935 8.712-5.932.735-3.996-1.974-7.82-6.051-8.54-4.076-.721-7.976 1.935-8.711 5.931-.735 3.997 1.974 7.82 6.05 8.541z" fill="#380085"/><path fill-rule="evenodd" clip-rule="evenodd" d="M331.408 100.771c3.805.672 7.108-1.865 7.794-5.595.686-3.73-1.644-6.488-5.448-7.16-3.805-.673-8.091 2.134-8.131 5.536-.04 3.402 1.98 6.546 5.785 7.219z" fill="#C5876A"/><path d="M335.959 100.764l-1.709 3.522c-.464.955-1.615 1.377-2.604.956l-3.597-1.534a1.96 1.96 0 01-1.202-1.778l-.037-3.511c1.332.627 2.591 1.092 3.776 1.396 1.185.303 2.976.62 5.373.949z" fill="#380085"/><path d="M326.816 98.387l.31.079.135.07c1.18.587 2.289 1.013 3.325 1.279.997.255 2.452.497 4.366.724l-2.074 4.81a2.018 2.018 0 01-1.245-.113l-3.582-1.527a1.96 1.96 0 01-1.203-1.78l-.032-3.542zm-29.959 4.912c.934.422 1.901 1.001 2.901 1.738-.247.131-.39.247-.428.349l-.293 1.046c-.439 1.527-.8 2.591-1.085 3.192-.498 1.053-1.949 2.298-2.344 2.698l-.055.059c-.089.1-.972.795-.557-.249l.245-.59c.478-1.215.896-2.748.145-1.872a33.543 33.543 0 00-2.358 3.063l-.514.629c-1.368 1.632-2.222 2.324-2.561 2.076-.381-.279.138-1.809 1.554-4.591l-.025-1.356-.562-.514a1.935 1.935 0 01-.096-2.772l.104-.101.623-.574a32.801 32.801 0 001.571-1.562c.475-.509.539-.958.463-1.454a8.684 8.684 0 013.272.785zm22.15 14.79c-.007-1.184-.17-2.478-.489-3.884-.262.196-.458.289-.588.279l-1.282-.2c-1.879-.281-3.215-.419-4.008-.412-1.391.011-3.453.929-4.081 1.147l-.091.03c-.152.045-1.338.633.001.705l.763.03c1.557.088 3.432.394 2.112.756-1.608.442-3.103.77-4.485.985l-.936.234c-2.444.642-3.613 1.201-3.506 1.678.119.533 2.039.733 5.761.597l1.466.685.289.839c.415 1.205 1.747 1.852 2.976 1.445l.161-.06.928-.374a40.934 40.934 0 012.466-.889c.785-.25 1.306-.1 1.811.22a9.702 9.702 0 00.732-3.811z" fill="#959FFA"/><path d="M314.67 118.004c.325 1.767 2.139 4.249 3.727 4.53 1.588.281 19.777 2.058 21.772 1.072 1.995-.986 11.767-11.622 13.787-14.698 2.019-3.076.529-7.912-4.451-8.034-4.98-.122-13.754 12.325-16.309 12.817-2.554.492-14.365-1.856-16.659-.319-2.294 1.537-2.191 2.866-1.867 4.632z" fill="#380085"/><path d="M346.518 108.412c-1.326 2.706-.597 5.75 1.628 6.799 2.226 1.049 5.106-.294 6.433-2.999s.598-5.749-1.628-6.798c-2.226-1.049-5.106.293-6.433 2.998z" fill="#5C66C0"/><path d="M348.122 109.213c-1.336 2.552-.914 5.378.944 6.313 1.857.935 4.446-.376 5.783-2.928 1.336-2.552.913-5.379-.944-6.314-1.858-.935-4.447.376-5.783 2.929z" fill="#F8FCFF"/><path d="M322.865 86.238c-.077 3.753 1.401 7.682 2.664 9.452 1.263 1.77 3.154 3.468 5.954 3.443 2.8-.025 5.907-1.631 7.515-6.728 1.609-5.096-13.485-15.563-13.485-15.563s-2.571 5.643-2.648 9.396z" fill="#FFAF8A"/><path fill-rule="evenodd" clip-rule="evenodd" d="M331.325 96.186c-.793.337-1.551.458-2.277.366a.249.249 0 00-.28.212.246.246 0 00.216.274c.819.104 1.667-.031 2.54-.402a.243.243 0 00.13-.322.252.252 0 00-.329-.127z" fill="#D28A62"/><path d="M326.183 82.745s-1.569 2.566-2.082 4.021c-.514 1.455-.72 3.912-.72 3.912s.808 2.88 1.533 4.184c.725 1.304 1.355 2.015 1.355 2.015s-3.42-.28-4.799-4.002c-1.378-3.723-1.414-6.915-.832-10.079.582-3.164 2.927-8.566 4.867-8.705 1.939-.138 5.743-2.633 8.799-1.53 3.056 1.102 4.445 2.233 5.586 4.073 1.141 1.84 1.896 6.284 3.91 8.547 2.015 2.263 2.332 3.223 1.344 5.305-.987 2.081-7.856 6.563-7.856 6.563s.512-5.672-.751-6.229c-1.264-.557-4.471-3.665-5.227-5.282-.757-1.618-5.127-2.793-5.127-2.793z" fill="#0D134E"/><path d="M321.957 88.523s.412 4.133 1.422 4.781c1.011.648 2.189 1.015 2.875.508.685-.506 1.421-1.806 1.421-1.806s1.889 1.692 3.476 1.973c1.587.28 6.61-3.102 6.61-3.102l-3.378-3.47s-3.75 1.807-6.677 2.132c-2.926.325-5.749-1.016-5.749-1.016z" fill="#F8FCFF"/><path d="M349.176 87.84c-1.761 9.578-11.114 15.958-20.906 14.227-9.792-1.73-16.283-10.91-14.522-20.488 1.761-9.578 11.114-15.958 20.906-14.227 9.792 1.73 16.283 10.91 14.522 20.488z" fill="#9286FF" fill-opacity=".193" stroke="#ECEAFE"/><path opacity=".504" fill-rule="evenodd" clip-rule="evenodd" d="M323.035 75.978c.907-1.36.894-2.942-.03-3.535s-2.409.027-3.317 1.386c-.907 1.359-.894 2.942.03 3.535s2.409-.028 3.317-1.386z" fill="#fff"/></svg>