<svg width="1342" height="727" fill="none" xmlns="http://www.w3.org/2000/svg"><ellipse cx="897.582" cy="61.872" rx="9.773" ry="9.581" transform="rotate(90 897.582 61.872)" fill="#CCC" fill-opacity=".3"/><path opacity=".4" d="M1340.94.568h-133.45c-.79 0-1.51.468-1.83 1.194l-25.8 58.605a2.003 2.003 0 01-1.83 1.195H908.905" stroke="#CCC"/><path d="M1306.79 49.149s3.23-5.456 3.53-7.129c.31-1.673.78-4.625 1.95-5.86.58-.616 3.6-2.287 7.51-2.742 1.24-.144 2.37-1.449 3.52-1.898 2.39-.932 4.17-.181 5.23.395 3.23 1.75-.73 6.291-2.79 7.62-2.06 1.33-7.25 4.02-8.22 6.179-.98 2.16-3.55 7.625-3.55 7.625l-7.18-4.19z" fill="#959FFA"/><path d="M1328.53 31.915c1.4.761 1.45 2.052.88 3.376-2.71 2.57-11.71 7.534-16.43 4.146-1.34-.966-1.2-2.315.42-4.049 1.33-.732 3.64-1.65 6.38-1.97 1.24-.144 2.37-1.449 3.52-1.897 2.39-.933 4.17-.182 5.23.394z" fill="#733DFF"/><path d="M1328.53 31.915c3.17 1.72-.6 6.13-2.68 7.546l-.11.075c-2.06 1.329-7.25 4.018-8.22 6.178l-.64 1.403c-.69 1.486-1.65 3.56-2.91 6.222l-2.29-1.337-.38-2.325c2.87-5.363 5.04-8.643 6.53-9.84l10.63-7.957.07.035z" fill="#000" fill-opacity=".489"/><path d="M1328.53 31.915c.31.168.55.363.74.578a6.48 6.48 0 01-.52 1.513c-1.01 2.01-11.18 7.072-14.23 4.878-1.39-1.006-1.43-2.34-.1-4.001a18.632 18.632 0 015.36-1.465c1.24-.144 2.37-1.45 3.52-1.898 2.39-.932 4.17-.181 5.23.395z" fill="#380085"/><path d="M1284.6 36.76s2.23-6.95 2.8-9.068c.38-1.436.46-2.489.56-3.082.41-2.205 12.74-6.322 14.34-6.039 3.23.57 2.05 4.343 1.09 5.784-.96 1.44-7.43 5.353-7.97 5.846-1.45 1.343-4.01 8.92-4.01 8.92l-6.81-2.361z" fill="#959FFA"/><path d="M1302.3 18.571c1.54.271 2.07 1.265 2.12 2.388-.15.112-.3.222-.46.33l-3.07 2.013c-1.41.94-2.82 1.895-3.52 2.466l-.25.207c-2 1.817-7.18 1.516-9.36.024l.07-.479c.05-.372.09-.677.13-.91.41-2.205 12.74-6.322 14.34-6.039z" fill="#733DFF"/><path d="M1303.39 24.355c-.96 1.44-7.43 5.353-7.97 5.847-.96.882-2.27 3.784-3.94 8.706l-.77-.03-.83-.288 2.08-11.31c.36-1.994 4.23-4.725 11.59-8.193 1.6 1.23.64 4.064-.16 5.268z" fill="#000" fill-opacity=".489"/><path d="M1302.3 18.571c.97.171 1.54.63 1.84 1.226-.18.126-.37.256-.57.39-1.84 1.217-5.57 2.925-6.71 3.845l-.12.099c-2.03 1.849-6.85 2.336-8.85.958l.05-.336c.01-.05.02-.098.02-.143.41-2.205 12.74-6.322 14.34-6.039z" fill="#380085"/><path d="M1248.62 76.989s16.05-13.001 19.54-14.964c3.5-1.963 5.15-2.447 5.32-3.347.16-.9 1.73-3.89 2.57-8.448.83-4.558 6.81-14.886 9.39-14.98 2.59-.093 6.22 1 6.42 2.289.21 1.289-3.83 28.829-7.01 31.838-3.18 3.01-9.17 7.188-9.17 7.188s11.9-1.958 13.51-4.048c1.6-2.09 1.68-4.186 3.22-7.203 1.53-3.017 12.41-17.239 14.88-17.623 2.48-.385 6.46 2.553 7.21 4.924.75 2.37-11.23 29.276-13.91 31.54-2.69 2.265-8.55 6.14-15.71 7.67-3.63.776-7.83 1.892-14.09 2.906-1.96.317-7.01.764-7.01.764l-15.16-18.506z" fill="#733DFF"/><path d="M1274.16 56.758l.07-.179c2.01.444 3.92.993 5.74 1.646 2.14.768 4.58 2.503 7.31 5.205l-.18.672c-.76 2.631-1.53 4.59-2.25 5.275-1.14 1.076-2.55 2.265-4.22 3.565-1.13-2.896-2.24-5.341-3.31-7.337-1.05-1.927-3.24-3.578-6.59-4.954l1.11-.574c.96-.511 1.48-.865 1.61-1.31l.03-.09c.04-.229.17-.594.36-1.087l.39-1.01-.07.178z" fill="#959FFA"/><path d="M1291.86 37.539c.21 1.288-3.83 28.829-7.01 31.838-2.11 1.989-5.13 4.36-9.07 7.116l-.15.062.76-.882c3.59-4.199 5.95-7.48 7.08-9.844 1.25-2.595 3.79-19.022 6.21-29.905 1.19.42 2.08.994 2.18 1.615z" fill="#000" fill-opacity=".489"/><path d="M1290.52 70.075l.1-.266a47.459 47.459 0 016.73 3.41c1.92 1.185 3.93 3.373 6.03 6.564l-.31.576c-1.07 1.965-1.96 3.353-2.48 3.796-1.82 1.528-4.77 3.378-7.91 4.898.03-3.807-.24-6.68-.8-8.62-.62-2.13-2.13-4.363-4.53-6.697.91-.402 1.52-.809 1.84-1.219.61-.796 1-1.593 1.33-2.442l.1-.266-.1.266z" fill="#959FFA"/><path d="M1314.5 52.615c.75 2.37-11.23 29.275-13.91 31.54-2.62 2.21-8.27 5.952-15.18 7.553l-2.01.444c-3.18.716-6.88 1.627-11.99 2.477l-.62.101c-.43.07-.99.146-1.65.227l3.73-11.525c10.19.03 17.52-1.276 21.99-3.92 5.19-3.073 12.47-20.745 16.57-30.468 1.45.99 2.68 2.355 3.07 3.57z" fill="#000" fill-opacity=".489"/><path d="M1265.05 95.668l6.64-.943s4.59-12.691-1.81-17.767c-6.4-5.075-12.32-6.977-12.32-6.977l-8.84 6.528 15.06 18.985 1.27.174z" fill="#6970B1"/><path d="M1198.73 90.632s-6.16 12.829-8.7 13.581c-2.54.752-2.7 1.173-2.7 1.173l-6.3 7.347-1.52-1.886-.03-1.355s-.97-.569-1.12-1.907c-.14-1.337 1.35-2.107 2.76-3.617 1.41-1.509-.79-2.492.43-5.736 1.22-3.244 8.85-16.84 11.58-17.772 2.74-.933 14.17.076 20.19 1.14 6.01 1.062 37.24-9.475 37.24-9.475l16.92 12.02s.87 9.429-3.33 12.32c-4.2 2.892-24.44 13.539-31.56 12.282-7.11-1.257-20.57-7.704-22.34-10.5-1.23-1.957-.11-4.553-2.2-5.968-1.49-1.01-9.32-1.647-9.32-1.647z" fill="#733DFF"/><path d="M1264.15 96.466l-.31.204c-4.75 3.132-23.99 13.15-31.08 12.104 2.37-2.005 3.29-4.273 2.78-6.804-.53-2.601-3.41-4.72-8.64-6.359-4.85-2.235-3.18-4.41 4.99-6.523l.91-.227c8.01-1.95 19.59-3.262 34.75-3.939.41 5.849-.72 9.696-3.4 11.544z" fill="#000" fill-opacity=".489"/><path d="M1223.79 73.861l-1.29 7.012c-.12.656.1 1.326.6 1.78l15.55 14.25c.54.488 1.3.653 1.99.43l30.29-9.724a1.96 1.96 0 001.38-1.88c-.02-1.806-.73-3.45-2.14-4.93l-.29-.3c-3.09-3.051-13.31-10.693-18.68-11.642-3.59-.635-12.22.51-25.87 3.436-.79.17-1.4.788-1.54 1.568z" fill="#959FFA"/><path d="M1240.15 84.794l27.4-6.353.55.461c.89.75 1.61 1.405 2.07 1.896 1.41 1.481 2.12 3.125 2.14 4.93.01.801-.48 1.52-1.22 1.825l-.16.056-30.29 9.725c-.2.065-.41.097-.62.097l.48-1.016c.23-.48.47-.996.72-1.551 1.58-3.473 1.29-6.735-.86-9.785l-.21-.285z" fill="#000" fill-opacity=".489"/><path d="M1251.2 68.857c5.56.982 16.3 9.126 18.97 11.941.28.295.53.614.75.955l-27.45 7.134c-.26.067-.54.029-.76-.104l-.11-.074-18.87-14.56.06-.288c.13-.728.67-1.315 1.38-1.528l.16-.04 1.26-.269c12.93-2.726 21.13-3.782 24.61-3.167z" fill="#F8FCFF"/><path d="M1241.63 74.781l11.77-5.284c4.31 1.643 10.14 5.691 13.84 8.688l-22.33 1.6c-.37.027-.75-.05-1.08-.221l-.16-.093-2.29-1.467a1.92 1.92 0 01-.68-.776 1.828 1.828 0 01.78-2.374l.15-.073 11.77-5.284-11.77 5.284z" fill="#380085"/><path d="M1251.2 68.857c2.98.526 7.45 3.11 11.36 5.828-2.9 6.03-14.48 9.018-27.4 6.734-4.48-.793-8.59-2.124-12.06-3.803l.69-3.755c.14-.78.75-1.398 1.54-1.568l1.26-.269c12.93-2.726 21.13-3.782 24.61-3.167z" fill="#9593F3" fill-opacity=".331"/><path d="M1209.59 94.582l-.18.067c-.15-.914-.45-1.754-1.36-2.37-.99-.673-4.1-1.222-9.32-1.646l-.42.885c-3.89 7.98-6.65 12.211-8.28 12.695-1.7.502-2.6.893-2.7 1.173l-2.82 3.286-4.65-3.631c.44-.32.88-.668 1.26-1.072 1.41-1.51-.79-2.493.43-5.737l.13-.328c1.56-3.74 8.8-16.54 11.45-17.444 2.74-.933 14.17.076 20.19 1.14 1.24.22 3.3.067 6.16-.46l-.45.91c-3.68 7.306-6.83 11.483-9.44 12.532zm9.99 7.993c4.08.72 7.98-1.935 8.72-5.932.73-3.996-1.98-7.82-6.05-8.54-4.08-.721-7.98 1.935-8.72 5.931-.73 3.997 1.98 7.82 6.05 8.541z" fill="#380085"/><path fill-rule="evenodd" clip-rule="evenodd" d="M1219.41 100.771c3.8.672 7.11-1.865 7.79-5.595.69-3.73-1.64-6.488-5.45-7.16-3.8-.673-8.09 2.134-8.13 5.536-.04 3.402 1.98 6.546 5.79 7.219z" fill="#C5876A"/><path d="M1223.96 100.764l-1.71 3.522c-.46.955-1.62 1.377-2.6.956l-3.6-1.534c-.72-.308-1.2-1.005-1.2-1.778l-.04-3.511c1.33.627 2.59 1.092 3.78 1.396 1.18.303 2.97.62 5.37.949z" fill="#380085"/><path d="M1214.82 98.387l.31.079.13.07c1.18.587 2.29 1.013 3.33 1.279.99.255 2.45.497 4.36.724l-2.07 4.81c-.4.092-.84.061-1.25-.113l-3.58-1.527a1.97 1.97 0 01-1.2-1.78l-.03-3.542zm-29.96 4.912c.93.422 1.9 1.001 2.9 1.738-.25.131-.39.247-.43.349l-.29 1.046c-.44 1.527-.8 2.591-1.09 3.192-.5 1.053-1.95 2.298-2.34 2.698l-.06.059c-.09.1-.97.795-.55-.249l.24-.59c.48-1.215.9-2.748.15-1.872a31.56 31.56 0 00-2.36 3.063l-.52.629c-1.36 1.632-2.22 2.324-2.56 2.076-.38-.279.14-1.809 1.56-4.591l-.03-1.356-.56-.514a1.936 1.936 0 01-.1-2.772l.11-.101.62-.574c.6-.56 1.12-1.081 1.57-1.562.48-.509.54-.958.47-1.454 1.11.043 2.21.305 3.27.785zm22.15 14.79c-.01-1.184-.17-2.478-.49-3.884-.26.196-.46.289-.59.279l-1.28-.2c-1.88-.281-3.22-.419-4.01-.412-1.39.011-3.45.929-4.08 1.147l-.09.03c-.15.045-1.34.633 0 .705l.76.03c1.56.088 3.43.394 2.11.756-1.6.442-3.1.77-4.48.985l-.94.234c-2.44.642-3.61 1.201-3.5 1.678.12.533 2.04.733 5.76.597l1.46.685.29.839c.42 1.205 1.75 1.852 2.98 1.445l.16-.06.93-.374c.9-.355 1.72-.651 2.46-.889.79-.25 1.31-.1 1.81.22.5-1.194.74-2.465.74-3.811z" fill="#959FFA"/><path d="M1202.67 118.004c.32 1.767 2.14 4.249 3.73 4.53 1.58.281 19.77 2.058 21.77 1.072 1.99-.986 11.77-11.622 13.79-14.698 2.01-3.076.53-7.912-4.45-8.034-4.98-.122-13.76 12.325-16.31 12.817-2.56.492-14.37-1.856-16.66-.319-2.3 1.537-2.19 2.866-1.87 4.632z" fill="#380085"/><path d="M1234.52 108.412c-1.33 2.706-.6 5.75 1.63 6.799 2.22 1.049 5.1-.294 6.43-2.999s.6-5.749-1.63-6.798c-2.22-1.049-5.1.293-6.43 2.998z" fill="#5C66C0"/><path d="M1236.12 109.213c-1.33 2.552-.91 5.378.95 6.313 1.85.935 4.44-.376 5.78-2.928 1.33-2.552.91-5.379-.95-6.314-1.85-.935-4.44.376-5.78 2.929z" fill="#F8FCFF"/><path d="M1210.87 86.238c-.08 3.753 1.4 7.682 2.66 9.452 1.26 1.77 3.15 3.468 5.95 3.443 2.8-.025 5.91-1.631 7.52-6.728 1.61-5.096-13.49-15.563-13.49-15.563s-2.57 5.643-2.64 9.396z" fill="#FFAF8A"/><path fill-rule="evenodd" clip-rule="evenodd" d="M1219.33 96.186c-.8.337-1.56.458-2.28.366a.249.249 0 00-.28.212c-.02.134.08.257.21.274.82.104 1.67-.031 2.54-.402a.237.237 0 00.13-.322.243.243 0 00-.32-.127z" fill="#D28A62"/><path d="M1214.18 82.745s-1.57 2.566-2.08 4.021-.72 3.912-.72 3.912.81 2.88 1.53 4.184c.73 1.304 1.36 2.015 1.36 2.015s-3.42-.28-4.8-4.002c-1.38-3.723-1.41-6.915-.83-10.079.58-3.164 2.93-8.566 4.86-8.705 1.94-.138 5.75-2.633 8.8-1.53 3.06 1.102 4.45 2.233 5.59 4.073 1.14 1.84 1.9 6.284 3.91 8.547 2.01 2.263 2.33 3.223 1.34 5.305-.98 2.081-7.85 6.563-7.85 6.563s.51-5.672-.75-6.229c-1.27-.557-4.47-3.665-5.23-5.282-.76-1.618-5.13-2.793-5.13-2.793z" fill="#0D134E"/><path d="M1209.96 88.523s.41 4.133 1.42 4.781c1.01.648 2.19 1.015 2.87.508.69-.506 1.42-1.806 1.42-1.806s1.89 1.692 3.48 1.973c1.59.28 6.61-3.102 6.61-3.102l-3.38-3.47s-3.75 1.807-6.67 2.132c-2.93.325-5.75-1.016-5.75-1.016z" fill="#F8FCFF"/><path d="M1237.18 87.84c-1.77 9.578-11.12 15.958-20.91 14.227-9.79-1.73-16.28-10.91-14.52-20.488 1.76-9.578 11.11-15.958 20.9-14.227 9.8 1.73 16.29 10.91 14.53 20.488z" fill="#9286FF" fill-opacity=".193" stroke="#ECEAFE"/><path opacity=".504" fill-rule="evenodd" clip-rule="evenodd" d="M1211.03 75.978c.91-1.36.9-2.942-.02-3.535-.93-.593-2.41.027-3.32 1.386-.91 1.359-.9 2.942.03 3.535.92.593 2.41-.028 3.31-1.386z" fill="#fff"/><ellipse cx="7.573" cy="382.581" rx="7.573" ry="7.425" transform="rotate(-180 7.573 382.581)" fill="#CCC" fill-opacity=".3"/><path opacity=".4" d="M55.077 726.137V623.02c0-.793-.469-1.511-1.194-1.831L9.008 601.436a2.001 2.001 0 01-1.194-1.831V391.356" stroke="#CCC"/><ellipse rx="5.62" ry="5.733" transform="matrix(0 -1 -1 0 1090.73 658.758)" fill="#CCC" fill-opacity=".3"/><path opacity=".4" d="M1356 694.012h-79.34c-.79 0-1.5-.456-1.82-1.167l-15-32.742a1.984 1.984 0 00-1.81-1.167h-160.52" stroke="#CCC"/></svg>