<svg width="21" height="21" fill="none" xmlns="http://www.w3.org/2000/svg"><path d="M18.413.894H2.73C1.664.894.796 1.744.796 2.79v15.375c0 1.046.868 1.896 1.935 1.896h15.682c1.066 0 1.934-.85 1.934-1.896V2.79c0-1.045-.868-1.896-1.934-1.896zM2.73 2.017h15.682c.435 0 .788.347.788.773v2.222H1.941V2.79c0-.426.355-.773.79-.773zm15.682 16.921H2.73a.782.782 0 01-.79-.773V6.135H19.2v12.03a.782.782 0 01-.788.773z" fill="#333"/><path d="M3.518 4.092h1.106a.567.567 0 00.572-.561.567.567 0 00-.572-.562H3.518a.567.567 0 00-.573.562c0 .31.256.561.573.561zm3.002 0h1.106a.567.567 0 00.573-.561.567.567 0 00-.573-.562H6.52a.567.567 0 00-.573.562c0 .31.257.561.573.561zm3.017 0h1.106a.567.567 0 00.572-.561.567.567 0 00-.572-.562H9.537a.567.567 0 00-.573.562c0 .31.256.561.573.561zm1.035 3.094c-3.051 0-5.533 2.433-5.533 5.424 0 2.991 2.482 5.425 5.533 5.425 3.05 0 5.533-2.434 5.533-5.425 0-2.99-2.482-5.424-5.533-5.424zm4.35 4.863h-1.4c-.062-1.172-.32-2.264-.742-3.122l-.023-.046a4.31 4.31 0 012.165 3.168zM9.999 8.565v3.484H8.768c.1-1.655.633-2.956 1.23-3.484zm0 4.607v3.484c-.598-.529-1.13-1.83-1.231-3.484h1.23zm1.145 3.484v-3.484h1.231c-.1 1.654-.633 2.955-1.23 3.484zm0-4.607V8.565c.598.528 1.131 1.83 1.231 3.484h-1.23zM8.387 8.88l-.024.046c-.422.858-.68 1.95-.743 3.122H6.221A4.31 4.31 0 018.387 8.88zm-2.166 4.29h1.4c.062 1.172.32 2.264.742 3.122l.024.046a4.31 4.31 0 01-2.166-3.167zm6.536 3.168l.023-.046c.422-.857.68-1.95.743-3.121h1.399a4.31 4.31 0 01-2.165 3.167z" fill="#333"/></svg>