<svg width="12" height="12" fill="none" xmlns="http://www.w3.org/2000/svg"><g clip-path="url(#clip0)" fill="#333"><path d="M11.099 9.995a1.605 1.605 0 10-3.21 0 1.605 1.605 0 003.21 0z"/><path d="M9.494 8.02c-1.09 0-1.976.886-1.976 1.975 0 1.09.886 1.976 1.976 1.976a1.977 1.977 0 000-3.951zm0 3.21a1.236 1.236 0 01-1.235-1.235c0-.68.554-1.235 1.235-1.235a1.236 1.236 0 010 2.47zm1.605-9.137a1.605 1.605 0 10-3.21 0 1.605 1.605 0 003.21 0z"/><path d="M9.494.118c-1.09 0-1.976.886-1.976 1.975 0 1.09.886 1.976 1.976 1.976a1.977 1.977 0 000-3.951zm0 3.21a1.236 1.236 0 01-1.235-1.235 1.236 1.236 0 012.47 0c0 .68-.554 1.235-1.235 1.235zm-5.31 2.716a1.605 1.605 0 10-3.21 0 1.605 1.605 0 003.21 0z"/><path d="M2.58 4.069c-1.09 0-1.976.886-1.976 1.975 0 1.09.886 1.976 1.975 1.976 1.09 0 1.976-.886 1.976-1.976 0-1.09-.886-1.975-1.976-1.975zm0 3.21a1.236 1.236 0 01-1.235-1.235c0-.68.553-1.235 1.234-1.235a1.236 1.236 0 010 2.47z"/><path d="M3.745 6.281a.493.493 0 00-.245.923l4.583 2.613a.493.493 0 10.489-.858L3.989 6.346a.49.49 0 00-.244-.065zm4.582-4.074a.49.49 0 00-.244.064L3.501 4.884a.494.494 0 00.489.858L8.572 3.13a.494.494 0 00-.245-.923z"/></g><defs><clipPath id="clip0"><path fill="#fff" transform="matrix(1 0 0 -1 .118 11.97)" d="M0 0h11.853v11.853H0z"/></clipPath></defs></svg>