<svg width="18" height="18" fill="none" xmlns="http://www.w3.org/2000/svg"><g clip-path="url(#clip0)" fill="#333"><path d="M14.25 9a.75.75 0 00-.75.75v6a.75.75 0 01-.75.75H2.25a.75.75 0 01-.75-.75V5.25a.75.75 0 01.75-.75h6a.75.75 0 100-1.5h-6C1.01 3 0 4.01 0 5.25v10.5C0 16.99 1.01 18 2.25 18h10.5c1.24 0 2.25-1.01 2.25-2.25v-6a.75.75 0 00-.75-.75z"/><path d="M7.032 8.317a.38.38 0 00-.103.191L6.4 11.16a.376.376 0 00.442.441l2.651-.53a.373.373 0 00.192-.103l5.934-5.934-2.651-2.651-5.935 5.934zM17.45.55a1.876 1.876 0 00-2.65 0l-1.038 1.037 2.65 2.651 1.04-1.038A1.86 1.86 0 0018 1.875c0-.5-.195-.972-.55-1.326z"/></g><defs><clipPath id="clip0"><path fill="#fff" d="M0 0h18v18H0z"/></clipPath></defs></svg>