<svg width="20" height="20" fill="none" xmlns="http://www.w3.org/2000/svg"><g clip-path="url(#clip0)"><path d="M12.211 15.345a.784.784 0 00-.783.784v.783c0 .432-.35.783-.783.783H2.812a.784.784 0 01-.784-.783v-14.1c0-.432.351-.783.784-.783h.391c.436 0 .789.355.784.792a.771.771 0 00.777.774h3.539c.818 0 1.172-.344 1.167-.774a.783.783 0 01.783-.792h.392c.432 0 .783.35.783.783v.783a.784.784 0 001.567 0v-.783a2.35 2.35 0 00-2.35-2.35H2.812a2.35 2.35 0 00-2.35 2.35v14.1a2.35 2.35 0 002.35 2.35h7.833a2.35 2.35 0 002.35-2.35v-.783a.784.784 0 00-.784-.784z" fill="url(#paint0_linear)"/><path d="M19.262 7.512c0-.864-.703-1.567-1.567-1.567H9.862c-.864 0-1.567.703-1.567 1.567v4.7c0 .864.703 1.567 1.567 1.567h7.833c.864 0 1.567-.703 1.567-1.567v-4.7zm-1.567 1.567l-3.666 1.707a.557.557 0 01-.25.055.557.557 0 01-.252-.055L9.863 9.08v-1.3l3.916 1.824 3.917-1.825v1.3z" fill="url(#paint1_linear)"/></g><defs><linearGradient id="paint0_linear" x1=".246" y1=".169" x2="16.092" y2="3.393" gradientUnits="userSpaceOnUse"><stop stop-color="#363844"/><stop offset="1" stop-color="#11141C"/></linearGradient><linearGradient id="paint1_linear" x1="8.106" y1="5.823" x2="20.316" y2="11.041" gradientUnits="userSpaceOnUse"><stop stop-color="#363844"/><stop offset="1" stop-color="#11141C"/></linearGradient><clipPath id="clip0"><path fill="#fff" transform="translate(.462 .462)" d="M0 0h18.8v18.8H0z"/></clipPath></defs></svg>