<svg width="133" height="192" fill="none" xmlns="http://www.w3.org/2000/svg"><path d="M121.503 112.259v23.898L68.871 167.42l7.443-28.356 45.189-26.805z" fill="#1B215B"/><path d="M11.646 150.562L27.89 110.39l-10.04 5.363-.06.037a.887.887 0 00-.267.293L1.667 144.117l9.979 6.445z" fill="#5C66C0"/><path d="M11.646 150.562L27.89 110.39l-10.04 5.363-.086.054a.887.887 0 00-.24.263L.782 144.117l10.863 6.445z" fill="#5C66C0"/><path d="M77.967 145.925l.052-.2.177-.106 47.418-28.149.256.43-.256-.43c.416-.246.687-.677.729-1.158l5.824-66.43a5.5 5.5 0 00-2.737-5.248l-23.094-13.277a5.5 5.5 0 00-4.85-.311l-5.945 2.468a.5.5 0 00-.254.234l-.444-.229.444.229L69.911 83.19l-.068.132-.13.074-40.497 23.092a1.5 1.5 0 00-.644.73l-17.677 42.79a1.5 1.5 0 00.578 1.836l4.653 2.978a1.5 1.5 0 001.512.062l14.026-7.451.248-.132.242.143 21.226 12.557.017.01.016.011 2.164 1.522.331.233-.158.372-4.968 11.688a1.5 1.5 0 00.625 1.883l6.63 3.863 10.458 3.248 9.472-36.907z" fill="#F8FCFF" stroke="#E9EBFF"/><path d="M104.143 45.105l4.788-3.943a2 2 0 012.341-.146l13.584 8.6a2 2 0 01.917 1.918l-6.983 60.768a1.998 1.998 0 01-1.021 1.524l-15.502 8.546a2.001 2.001 0 00-1.035 1.751v8.579" stroke="#5C66C0" stroke-width=".5"/><path d="M66.302 89.252l-6.4 2.793-1.778 7.638-31.255 24.153-8.096 31.011 5.953-3.161 52.463-48.289-10.887-14.145z" fill="#000" fill-opacity=".275"/><path d="M116.289 127.255a1.998 1.998 0 012.025.115l9.579 6.398a2 2 0 01.89 1.663v16.849c0 .724-.392 1.391-1.023 1.745l-37.31 20.889V140.55l25.839-13.295z" fill="#733DFF"/><path d="M127.996 133.837l-9.795-6.542a1.768 1.768 0 00-1.658-.164l-.134.062-23.162 11.917 9.546 9.072 25.617-13.677.135-.079a1.74 1.74 0 00-.417-.492l-.132-.097-9.795-6.542 9.795 6.542z" fill="#000" fill-opacity=".489"/><path d="M124.744 141.765a.787.787 0 11.766 1.375l-22.717 12.577v-1.62l21.951-12.332zm0 6.192a.787.787 0 11.766 1.374l-22.717 12.577v-1.62l21.951-12.331z" fill="#0D124E"/><path d="M106.394 133.689a3.499 3.499 0 00-4.602-.954L77.92 146.778l-9.226 36.188 13.198 7.982a1.499 1.499 0 001.549.002l31.643-19.023a1.5 1.5 0 00.713-1.493l-4.077-29.144a1.496 1.496 0 00-.274-.677l-5.052-6.924z" fill="#F8FCFF" stroke="#E9EBFF"/><path d="M104.808 142.802s.811.877.811 1.58c0 .604 1.199 17.31 1.539 22.035a1.985 1.985 0 01-.992 1.862l-11.38 6.605a2.002 2.002 0 00-.987 1.531l-.99 9.871" stroke="#5C66C0" stroke-width=".5"/><path d="M105.73 131.932a2 2 0 00-2.631-.546l-24.894 14.645a2 2 0 00-.924 1.229l-9.163 35.941 13.666 8.32c.34.185.724.25 1.094.198l5.803-38.34a2 2 0 01.95-1.416l21.36-12.805-5.261-7.226z" fill="#5C66C0"/><path d="M117.614 50.376a2 2 0 01.981 2.076l-8.978 52.339a2 2 0 01-.964 1.39l-37.072 21.621a2 2 0 00-.912 1.168L56.73 176.781a2 2 0 01-2.922 1.171l-2.869-1.662a2.001 2.001 0 01-.918-2.287l14.358-49.654 38.759-23.437 11.768-43.9a4 4 0 00-1.973-4.56L99.707 45.36a4 4 0 00-5.537 1.882L76.12 87.29l-40.995 23.888-17.855 43.063a2.001 2.001 0 01-2.357 1.168l-.853-.225a2 2 0 01-1.34-2.698l17.446-42.229a2 2 0 01.843-.965l40.388-23.47 23.58-45.935a2 2 0 012.769-.825l19.868 11.313z" fill="#5C66C0"/><path d="M31.899 147.963l14.323-35.244L76.12 87.291l18.913-42.597a2 2 0 012.818-.927l15.193 8.654a4 4 0 011.884 4.511l-11.79 43.98-38.758 23.437-10.63 37.4-21.85-13.786z" fill="#1B215B"/><path d="M90.886 53.867l-1.959 3.249L76.121 87.29l-29.9 25.428L31.9 147.964l21.853 13.786 10.629-37.4 33.276-20.127-.008-2.777c-.073-13.887-.632-22.096-1.677-24.628l-.158-.37c-1.179-2.876-2.725-9.84-4.638-20.892l-.29-1.689z" fill="#000" fill-opacity=".275"/><path d="M36.761 118.85l6.259 3.754a2.656 2.656 0 002.468.137l.168-.084 5.157-2.815-7.203-4.893-1.02.558c-2.323 1.277-4.266 2.391-5.829 3.343z" fill="#000" fill-opacity=".275"/><path d="M87.296 117.634l-.419 13.996a1.997 1.997 0 01-.942 1.638l-9.913 6.169a1.998 1.998 0 00-.862 1.134l-12.07 41.072" stroke="#5C66C0" stroke-width=".5"/><path d="M59.902 106.488s-24.325 12.242-27.48 15.413c-2.641 2.653-9.19 30.328-10.033 35.611-.32 1.997.52 5.024 0 5.28-3.184 1.565-5.92 6.162-3.899 6.978 2.02.816 4.554 1.328 6.595.639 2.042-.689 1.001-4.293 2.512-7.089.363-.671 2.409-1.779 3.569-3.037 3.475-3.77 6.217-12.535 7.414-16.62 1.577-5.378 2.82-9.561 4.987-10.581 2.166-1.02 24.05-15.45 24.05-15.45l-7.715-11.144z" fill="#733DFF"/><path d="M22.389 157.511c-.213 1.331.088 3.118.16 4.239a2.93 2.93 0 00.322-.599c.995-2.555 2.212-9.765 3.652-21.631l-.43 1.671c-1.803 7.093-3.326 13.954-3.704 16.32z" fill="#000" fill-opacity=".275"/><path d="M32.421 121.9c-.891.897-2.229 4.647-3.642 9.425 1.45 1.141 2.785 2.095 4.005 2.863l.517.32c1.704 1.033 4.03 2.269 6.98 3.708.903-2.525 1.856-4.352 3.131-5.055l.412-.21c.405-.217 1.06-.603 1.962-1.158l-1.058-1.181c-2.506-2.811-4.411-5.076-5.716-6.795A44.644 44.644 0 0136 119.319l-.571.361c-1.466.938-2.468 1.679-3.008 2.22z" fill="#959FFA"/><path d="M66.488 116.002l-.312-.45-2.03.963c-17.106 8.146-26.06 13.406-26.864 15.78l-.084.267c-.681 2.288-1.912 9.408-3.693 21.361l-.587 3.974c2.388-3.905 4.287-9.654 5.357-13.207l.92-3.11c1.276-4.243 2.433-7.446 4.228-8.425l.366-.185c1.899-1.006 9.669-6.005 23.31-14.997l-.611-1.971z" fill="#000" fill-opacity=".275"/><path d="M20.764 162.223c-3.384 3.398-13.607 3.006-14.689 5.078-1.082 2.072.097 3.034 1.07 3.581.975.546 6.77 1.298 8.245.818l.37-.117c1.36-.419 2.784-.682 4.719.117l1.138.476c1.373.563 2.276.795 3.982.207 2.133-.736 1.046-6.474 2.624-9.459.168-.317.678-.724 1.3-1.196l-.732-.149c-1.769-.371-3.088-.73-3.959-1.078-1.295-.518-2.05-1.386-2.267-2.604l-.012-.081c-.49 1.929-1.424 4.04-1.789 4.407z" fill="#959FFA"/><path d="M22.553 157.817c-.49 1.928-1.424 4.039-1.79 4.406-2.401 2.412-8.25 2.914-11.829 3.744l.84-.082c6.74-.667 10.554-1.252 11.443-1.755.91-.515 1.605-2.069 2.085-4.662a3.16 3.16 0 01-.737-1.571l-.012-.08z" fill="#000" fill-opacity=".275"/><path d="M6.727 171.031c.985.51 7.238 1.185 8.73.737l.391-.114c1.372-.389 2.808-.629 4.758.114l1.197.461c1.37.514 2.296.72 4.004.176.51-.162.838-.586 1.063-1.175-1.211.29-2.215.359-3.014.208-1.861-.351-2.97-1.427-5.44-1.427-2.471 0-2.49.536-4.322.536l-.39-.003c-2.048-.034-6.33-.316-7.337-.862a3.806 3.806 0 01-.721-.493c-.037.908.443 1.511 1.08 1.842zm60.889-54.335s-18.263 10.135-21.419 13.306c-2.661 2.674-7.745 28.607-7.745 38.919 0 1.81-.787 3.15-1.137 3.628-1.156 1.575-3.873 2.978-6.022 3.92-3.069 1.345-7.066 2.943-7.871 3.907-1.537 1.84-1.497 3.421 1.063 4.447 1.183.474 2.862 1.046 5.973.708 4.288-.467 10.627-4.305 11.81-4.704 2.041-.689 1.027-8.782 3.843-9.672 1.825-.576 8.484-22.034 9.165-24.944.884-3.779.682-4.929 2.848-5.949.411-.194.758-1.009 2.299-2.495 1.24-1.196 1.779-9.099 5.26-12.75 3.784-3.969 17.778-10.805 17.778-10.805l-15.845 2.484z" fill="#733DFF"/><path d="M46.197 130.001c-.992.997-2.32 5.226-3.597 10.673 1.879.962 3.557 1.694 5.034 2.198l.473.156c1.725.553 4.204 1.178 7.435 1.877.457-2.604.15-3.376 1.855-4.232l.166-.081c.245-.115.699-.465 1.36-1.05l.17-.385c-2.289-1.906-4.345-3.8-6.169-5.684l-.441-.462c-1.14-1.203-2.541-2.773-4.206-4.712-.93.677-1.624 1.244-2.08 1.702z" fill="#959FFA"/><path d="M43.311 138.216l-.134.095-.257 1.026c-2.265 9.236-4.468 22.795-4.468 29.584 0 1.81-.787 3.15-1.137 3.628-.25.339-.571.671-.944.992.816 1.398 1.384 1.855 1.702 1.373l.033-.062c.536-1.169 2.126-12.226 4.77-33.171l.435-3.465zm40.149-24.004l-14.794 2.319c-.505.382-1.007.753-1.503 1.107l-.494.35c-5.231 3.661-7.546 7.956-8.403 9.764l-.378.825c-.947 2.14-3.196 7.984-3.204 19.782l.347-1.213c.08-.288.145-.531.194-.726l.05-.209c.862-3.682.693-4.868 2.688-5.871l.161-.078c.262-.124.66-.349 1.197-.992.274-.328.496-.848.944-1.34l.158-.163c1.24-1.196 1.779-9.099 5.26-12.75 2.522-2.646 8.449-6.248 17.778-10.805z" fill="#000" fill-opacity=".275"/><path d="M38.45 169.086l.002-.166c0 1.811-.787 3.151-1.137 3.628-1.156 1.576-3.873 2.979-6.022 3.921l-3.04 1.315c-2.226.971-4.28 1.931-4.832 2.592-1.499 1.795-1.497 3.344.881 4.371l.183.076c1.182.474 2.862 1.046 5.973.707 4.287-.466 10.627-4.304 11.81-4.704 1.766-.596 1.244-6.736 2.897-8.955-1.378-.256-2.606-.637-3.684-1.14-.861-.402-1.872-.95-3.032-1.645z" fill="#959FFA"/><path d="M36.121 182.273l-1.334.545c-3.409 1.375-6.532 2.404-9.666.815-1.101-.558-1.964-1.162-2.587-1.812-.424 1.175.054 2.182 1.757 2.921l.194.081c1.182.474 2.862 1.046 5.973.707 4.287-.466 10.627-4.304 11.81-4.703.494-.167.809-.768 1.042-1.595l-2.986 1.28a416.52 416.52 0 01-4.203 1.761z" fill="#733DFF"/><path d="M69.752 69.353s-17.218 2.38-18.812 2.102c-1.595-.278-13.341-7.577-15.36-6.776-2.018.801-2.774-1.236-4.23-2.044-1.457-.808-5.077-2.94-6.76-2.216-1.684.724-7.747 2.263-7.232 3.376.515 1.112 6.04 0 7.231 0 1.191 0 3.666 2.158 3.071 2.512-.18.108-.417.821-.961.792-1.252-.066-3.276-1.246-3.723-.232-.446 1.014 3.39 3.148 4.684 3.426.814.174 3.085-.592 4.352-.377.749.128.817.98.918 1.539.273 1.504 11.834 9.105 14.285 9.764 2.45.658 17.926-.465 17.926-.465l4.611-11.4z" fill="#380085"/><path d="M68.525 72.387l.005-.588-.987.714c-5.015 3.642-8.703 6.57-11.065 8.783l1.513-.079a408.82 408.82 0 007.15-.463l3.383-8.367z" fill="#000" fill-opacity=".275"/><path d="M60.315 72.985c-2.114.26-3.933-.386-4.062-1.443-.13-1.057 1.478-2.124 3.592-2.384 2.114-.26 3.933.387 4.062 1.444.13 1.057-1.478 2.124-3.592 2.383z" fill="#959FFA"/><path d="M60.315 72.021c-2.114.26-3.924-.316-4.043-1.285-.119-.97 1.498-1.966 3.612-2.226s3.924.316 4.043 1.286c.119.97-1.498 1.966-3.612 2.225z" fill="#F8FCFF"/><path d="M93.946 78.689c-.91-1.533-14.228-8.035-14.228-8.035s-9.255-1.875-9.966-1.3c-.711.574-6.595 8.396-7.14 13.1-.544 4.704 1.18 21.778 0 22.643-1.18.865-2.71 1.391-2.71 1.391l7.714 10.208 20.584-5.34s6.655-31.135 5.746-32.667z" fill="#733DFF"/><path d="M66.165 74.291l-.04.056c-1.63 2.617-3.24 5.752-3.512 8.107-.545 4.704 1.18 21.777 0 22.643-.787.577-1.69 1.04-2.711 1.391l2.158 2.855.515-.273c.625-.338 1.002-.575 1.129-.71 1.2-1.268 0-13.38 0-20.98 0-4.871.758-9.093 2.275-12.664l.186-.425zm18.912 11.615c-1.833 1.129-2.922 2.586-3.268 4.372-.519 2.68.322 11.286-1.365 14.551-1.466 2.838-6.6 7.751-11.564 11.54l19.32-5.013 1.103-5.206c.581-2.766 1.11-5.325 1.584-7.675l-5.81-12.57z" fill="#000" fill-opacity=".275"/><path d="M93.946 78.689c2.449 2.863 2.492 27.447.895 29.783-1.598 2.336-13.115 13.716-15.643 13.716-2.527 0-2.644-.685-3.343 0-.698.685-6.5 5.049-7.536 5.606-1.036.557-5.806-5.314-4.336-6.142 1.47-.829 1.733-1.429 1.733-1.429s-.008-1.231.487-1.571c1.067-.735 5.033-.163 5.231-.735.377-1.085 1.406-2.588 2.776-3.902 1.37-1.314 10.05-8.877 10.05-10.452 0-1.574-.6-11.907 0-16.508.6-4.601 7.237-11.23 9.686-8.367z" fill="#380085"/><path d="M84.591 86.319l-.062-.446c-.127.404-.219.8-.269 1.182-.6 4.601 0 14.934 0 16.508 0 1.575-8.68 9.138-10.05 10.452-1.37 1.314-2.4 2.817-2.776 3.903-.068.197-.587.258-1.281.284l1.244 1.155 3.614-3.221c6.947-6.228 10.668-9.799 11.161-10.712.542-1.003.06-7.04-1.445-18.115l-.198-1.436.062.446z" fill="#000" fill-opacity=".275"/><path d="M71.64 117.761l-.123-.063a4.77 4.77 0 00-.083.219c-.198.572-4.164 0-5.231.735-.33.226-.492.75-.487 1.571-.175.4-.753.876-1.733 1.429-1.47.828-1.491 4.946-1.491 6.615 0 1.67 3.75 1.973 5.626 1.509 1.876-.464 2.243-3.138 3.28-3.695 1.035-.557 3.759-3.208 4.457-3.893.205-.201.36-.284.54-.301-.775-1.128-1.503-1.971-2.185-2.53-.552-.452-1.408-.984-2.57-1.596l-.123-.063.124.063zM24.59 60.419c-1.684.724-7.746 2.263-7.232 3.376.515 1.112 6.04 0 7.231 0 1.156 0 3.521 2.033 3.116 2.476l-.044.036c-.18.108-.418.821-.962.792-1.252-.066-3.276-1.246-3.723-.232-.446 1.014 3.39 3.148 4.684 3.426 1.26.27 4.799-1.146 5.24.162l.03.115c.02.11.1.257.231.434.63-.348 1.151-.943 1.562-1.785.641-1.312.704-2.768.189-4.368-1.54.162-2.28-1.505-3.563-2.216l-.797-.444c-1.712-.944-4.534-2.387-5.963-1.772z" fill="#959FFA"/><path d="M24.52 63.33c-.274.123-.631.312-1.071.569l.67-.075c.192-.019.352-.03.47-.03 1.156 0 3.52 2.034 3.116 2.477l-.045.036c-.18.107-.418.821-.962.792-1.002-.053-2.5-.82-3.287-.603 1.295 1.31 2.157 1.965 2.587 1.965.582 0 1.912-.305 3.99-.915l-1.782-2.675c-1.909-1.27-3.137-1.783-3.686-1.54z" fill="#000" fill-opacity=".275"/><path d="M80.445 91.618a1 1 0 00-.63-.928L65.47 84.954a1 1 0 00-1.371.928v6.404a1 1 0 00.619.925l14.347 5.903a1 1 0 001.38-.925v-6.572z" fill="#F8FCFF"/><path d="M80.445 91.622a1 1 0 00-.634-.93l-1.05-.414v8.738l.315.124a1 1 0 001.369-.93v-6.588z" fill="#959FFA"/><path d="M82.306 73.948s.137-2.827.56-5.218c.421-2.39 2.211-10.54 2.211-10.54l-.777-7.903s-8.091-.001-10.424 1.38c-2.334 1.38-2.619 4.245-2.619 4.245s-.28 9.56.595 10.985c.875 1.427 3.343 2.322 3.343 2.322l-.29 5.47s.025 2.267 3.046 1.883c3.021-.383 4.355-2.624 4.355-2.624z" fill="#FFAF8A"/><path d="M74.287 51.454L71.9 53.688c-.345.646-.56 1.388-.643 2.224l-.039 1.56-.01.495 3.598-4.1.569-2.797a7.489 7.489 0 00-1.088.384zm.903 17.868l-.284 5.368c.01 1 .46 1.614 1.347 1.84l.38-.197c1.38-.727 1.925-1.18 1.637-1.362-2.342-1.472-2.121-3.448-2.107-4.054l.001-.05c0-.748-.325-1.263-.974-1.545zm9.784-10.66l-7.515-.495.764.535c2.428 1.717 3.642 2.786 3.642 3.207l.018.618c.05 1.384.206 4.935.467 10.653.087-1.364.225-2.649.416-3.854l.1-.595c.273-1.547.976-4.903 2.108-10.069z" fill="#000" fill-opacity=".175"/><path d="M76.66 74.346c-1.063-.313-2.269.03-2.781 1.013l-.868 1.662a2 2 0 001.05 2.79l1.95.755a1.99 1.99 0 002.346-.704c.961-1.357 2.445-3.465 3.174-4.572 1.13-1.715.792-1.712.792-1.712s-1.49 1.3-2.285 1.229c-1.445-.13-2.375-.18-3.295-.437a4.72 4.72 0 01-.083-.024z" fill="#380085"/><path d="M74.906 72.94s.924 1.197 2.063 1.4c1.14.203 3.436.51 3.436.51l-2.81 3.797a2 2 0 01-2.218.715l-.91-.292a2 2 0 01-1.189-2.778l1.628-3.353z" fill="#959FFA"/><path d="M72.302 69.354l-.153-.019c-1.17.083-1.835.594-1.996 1.532-.267 1.56 1.736 2.64 6.011 3.237l-.299-.233c-.508-.41-.79-.72-.846-.931-.057-.216-.033-1.042.072-2.479l.052-.676-1.062-.176a53.016 53.016 0 00-1.514-.222l-.418-.052.153.019z" fill="#000" fill-opacity=".275"/><path d="M73.555 53.047s1.46 5.356 3.988 6.732c2.527 1.377 6.051 1.377 6.051 1.377s.286 3.22-.38 5.741c-.666 2.522-.741 5.132-.741 5.132l7.946 4.011s.981-.447.49-3.745c-.49-3.299-.004-5.414.693-8.277.696-2.862 1.94-9.482-.692-12.983-2.633-3.502-6.729-4.658-9.257-4.658-.209 0-.372.653-.611.633-1.28-.111-2.393-.297-4.064-.229-.32.013-3.567-.005-4.602.938-2.818 2.567-5.715 10.684-3.579 12.06 2.136 1.377-1.234 5.52-1.234 5.52s1.175 1.056 1.955 1.328 2.049 0 2.049 0-.697-9.146 0-10.78c.618-1.447 1.988-2.8 1.988-2.8z" fill="#0D134E"/><path d="M81.057 46.19c.79.366 2.312.473 5.094 3.84 2.781 3.367 3.037 7.803 1.574 12.85l-2.549-.739c1.248-4.306.571-8.066-1.59-10.95-2.16-2.883-4.08-3.962-6.906-4.635.977-.903 4.377-.366 4.377-.366z" fill="#959FFA"/><rect width="7.96" height="8.844" rx="3.98" transform="scale(-1 1) rotate(1 -3435.423 -5169.757)" fill="#959FFA"/><path d="M87.276 60.057a3.538 3.538 0 00-3.476 3.599l.016.884a3.538 3.538 0 007.074-.123l-.015-.885a3.538 3.538 0 00-3.6-3.475zm-16.715 4.815l-2.255-.81a1.106 1.106 0 01-.516-1.695s1.34-1.856 1.49-1.997c.151-.142.302.31.302.31l-1.436 1.949a.664.664 0 00.31 1.016l2.255.811-.15.416z" fill="#5C66C0"/><path d="M73.04 64.135l-2.524-.82a1.327 1.327 0 10-.82 2.523l2.524.82a1.327 1.327 0 00.82-2.523z" fill="#959FFA"/><path d="M73.434 64.417l-.116-.006c-.733 0-1.327.594-1.327 1.327 0 .353.2.706.488.976a1.326 1.326 0 001.062-2.282l-.107-.015-.116-.006.116.006z" fill="#5C66C0"/><path d="M61.449 105.77s2.213 1.693 3.533 4.091c1.32 2.398 2.22 5.99 2.22 5.99s5.744-2.135 7.988-2.722c-1.817 1.789-2.035 2.092-3.287 3.778-1.397.359-6.444 1.081-6.444 1.081s-1.704-3.282-3.015-5.729c-1.312-2.448-5.305-4.382-5.305-4.382l4.31-2.107z" fill="#959FFA"/><path d="M75.19 113.13l-.373.101c-.856.241-2.014.615-3.476 1.124l-4.392 3.416 1.519-.231c1.675-.264 2.82-.474 3.434-.632l.698-.933c.726-.955 1.168-1.446 2.59-2.845z" fill="#000" fill-opacity=".275"/><path d="M46.633 102.718a2 2 0 011.99.022l12.828 7.546a2 2 0 01.984 1.818l-.09 1.911a2 2 0 01-1.009 1.644l-11.758 6.69a2.001 2.001 0 01-2.058-.049l-13.377-8.461a2 2 0 01-.807-2.382l.355-.963a2 2 0 01.901-1.055l12.041-6.721z" fill="#1B215B"/><path d="M61.571 110.357l-13.063-7.684a1.767 1.767 0 00-1.62-.09l-.139.07-12.15 6.782a1.77 1.77 0 00.718 1.608l.124.083 13.14 7.974a1.77 1.77 0 001.65.099l.142-.073 11.79-6.697c.094-.054.183-.115.265-.185l.013-.28a1.77 1.77 0 00-.752-1.532l-.118-.075-13.063-7.684 13.063 7.684z" fill="#5C66C0"/><path d="M45.417 103.398l-8.72 4.867 11.887 7.063a1.77 1.77 0 001.632.092l.14-.072 6.44-3.632a.883.883 0 00.103-1.472l-.086-.058-11.396-6.788z" fill="#F8FCFF"/><path d="M21.75 66.428a1.75 1.75 0 00-.854-1.503L4.432 55.112a.75.75 0 00-1.134.642l-.044 11.953a1.75 1.75 0 00.865 1.516l16.501 9.678a.75.75 0 001.13-.647V66.428z" fill="#9286FF" fill-opacity=".193" stroke="#F8F8F8" stroke-width=".5"/><path d="M3.727 55.25a.932.932 0 00-.381.08l7.137 11.448a2.096 2.096 0 002.102.946l.176-.035 8.835-2.13a2.05 2.05 0 00-.426-.406l-.171-.109-16.81-9.67.125-.217-.125.217a.934.934 0 00-.462-.124z" fill="#9286FF" fill-opacity=".193" stroke="#F8F8F8" stroke-width=".5"/><path d="M41.776 84.507a1.75 1.75 0 00-.87-1.513l-27.89-16.237a.75.75 0 00-1.127.646l-.077 20.374a1.75 1.75 0 00.88 1.525l27.96 16.018a.75.75 0 001.124-.651V84.507z" fill="#FF623F" fill-opacity=".28" stroke="#FF623F" stroke-width=".5"/><path d="M35.473 87.4L17.04 77.08a.855.855 0 10-.835 1.493l18.432 10.318a.856.856 0 00.836-1.493zm0 7.075L17.04 84.156a.855.855 0 10-.835 1.493l18.432 10.319a.856.856 0 00.836-1.493z" fill="#FF623F" fill-opacity=".193" stroke="#F8F8F8" stroke-width=".5"/><path d="M60.305 26.195a2.55 2.55 0 00-1.27-2.205L20.195 1.433a1.15 1.15 0 00-1.727.99l-.11 33.597a2.55 2.55 0 001.285 2.223l38.941 22.252a1.15 1.15 0 001.72-.998V26.195z" fill="#FF623F" fill-opacity=".28" stroke="#FF623F" stroke-width=".5"/><path d="M42.615 20.173c0-.41-.218-.789-.572-.995L22.623 7.9a.45.45 0 00-.676.388l-.055 16.798c-.001.414.22.797.58 1.002l19.47 11.127a.45.45 0 00.673-.391V20.173zM56.767 28.8a2.55 2.55 0 00-1.214-2.17l-7.126-4.389a1.15 1.15 0 00-1.753.975l-.106 24.69a2.55 2.55 0 001.274 2.218l7.199 4.163a1.15 1.15 0 001.726-.995V28.8z" fill="#FF623F" fill-opacity=".193" stroke="#F8F8F8" stroke-width=".5"/><path d="M40.405 45.99v-6.633a.634.634 0 00-1.269 0v6.633a.634.634 0 101.269 0zm-3.538-1.769v-3.095a.634.634 0 00-1.269 0v3.095a.634.634 0 001.27 0zm-3.537-1.769v-4.864a.634.634 0 10-1.27 0v4.864a.634.634 0 001.27 0zm-10.614-7.075v-4.865a.634.634 0 10-1.268 0v4.865a.634.634 0 101.268 0zm3.538 1.769V34.05a.634.634 0 10-1.269 0v3.096a.634.634 0 001.27 0zm3.538 2.653V34.05a.634.634 0 00-1.269 0v5.75a.634.634 0 001.269 0z" fill="#FF623F" fill-opacity=".28" stroke="#FF623F" stroke-width=".5"/></svg>