<svg width="14" height="16" fill="none" xmlns="http://www.w3.org/2000/svg"><path d="M7.513 8.644a.448.448 0 01-.634 0L4.842 6.607a.448.448 0 010-.634l.362-.362-1.063-1.063-.871.871a.753.753 0 000 1.064l3.734 3.734c.141.141.33.219.532.219s.39-.078.532-.219l.87-.871-1.063-1.064-.362.362z" fill="#333"/><path d="M14 5.4a5.361 5.361 0 00-1.586-3.814A5.362 5.362 0 008.6 0H5.4a5.362 5.362 0 00-3.814 1.586A5.362 5.362 0 000 5.4v2.515c0 1.113.34 2.184.982 3.096a5.419 5.419 0 002.217 1.833v1.444c0 .747.418 1.012.776 1.012.256 0 .512-.126.761-.375l1.61-1.61H8.6a5.362 5.362 0 003.814-1.586A5.361 5.361 0 0014 7.915V5.4zM9.89 9.663L8.7 10.85c-.31.31-.724.481-1.165.481-.442 0-.856-.17-1.166-.48L2.635 7.116a1.65 1.65 0 010-2.332l1.189-1.188a.448.448 0 01.634 0l1.697 1.697a.448.448 0 010 .634l-.362.362 1.403 1.403.362-.362a.448.448 0 01.634 0l1.698 1.7a.448.448 0 010 .634zM6.66 4.352c0-.248.201-.449.449-.449A2.82 2.82 0 019.925 6.72a.448.448 0 11-.896 0c0-1.059-.861-1.92-1.92-1.92a.448.448 0 01-.449-.448zm4.738 2.816a.448.448 0 01-.449-.448c0-1.026-.4-1.99-1.124-2.716A3.816 3.816 0 007.109 2.88a.448.448 0 010-.896 4.71 4.71 0 013.35 1.387 4.705 4.705 0 011.387 3.35c0 .248-.2.448-.448.448z" fill="#333"/></svg>