<svg width="15" height="15" fill="none" xmlns="http://www.w3.org/2000/svg"><path d="M12.895 2.105A7.138 7.138 0 007.815 0C5.895 0 4.09.747 2.734 2.105a7.138 7.138 0 00-2.105 5.08 7.19 7.19 0 00.892 3.47L0 15l4.346-1.521a7.182 7.182 0 003.469.892 7.138 7.138 0 005.08-2.105A7.138 7.138 0 0015 7.186c0-1.92-.747-3.724-2.105-5.081zm-1.528 7.75l-.83.83c-.687.686-2.637-.15-4.355-1.867C4.464 7.1 3.63 5.15 4.316 4.463l.83-.83a.44.44 0 01.621 0L6.804 4.67a.44.44 0 010 .622l-.622.622a6.104 6.104 0 002.904 2.904l.622-.622a.44.44 0 01.622 0l1.037 1.037a.44.44 0 010 .622z" fill="#333"/></svg>