<svg width="1364" height="664" fill="none" xmlns="http://www.w3.org/2000/svg"><path opacity=".4" d="M687.293 99.95H896.73c.803 0 1.528-.48 1.841-1.219L939.528 2.22A2.001 2.001 0 01941.369 1H1363" stroke="#CCC"/><circle r="6.67" transform="matrix(0 1 1 0 679.669 99.38)" fill="#CCC" fill-opacity=".3"/><path opacity=".4" d="M238.946 133.991H165.74c-.803 0-1.528-.48-1.841-1.219l-13.815-32.553a2 2 0 00-1.841-1.22H0" stroke="#CCC"/><circle cx="241.642" cy="133.789" r="2.359" transform="rotate(90 241.642 133.789)" fill="#CCC" fill-opacity=".3"/><path opacity=".4" d="M1124.08 628.165h73.51c.8 0 1.52.48 1.84 1.219l13.87 32.697a2.008 2.008 0 001.84 1.219H1364" stroke="#CCC"/><circle cx="1121.37" cy="628.368" r="2.368" transform="rotate(-90 1121.37 628.368)" fill="#CCC" fill-opacity=".3"/></svg>