<svg width="768" height="565" fill="none" xmlns="http://www.w3.org/2000/svg"><circle cx="579.188" cy="560.273" r="4.188" transform="rotate(90 579.188 560.273)" fill="#CCC" fill-opacity=".3"/><path opacity=".4" d="M773 534h-57.614c-.787 0-1.502.462-1.824 1.181l-10.677 23.778a1.999 1.999 0 01-1.824 1.181H584.138" stroke="#CCC"/><circle r="5.902" transform="matrix(0 -1 -1 0 494.902 6.364)" fill="#CCC" fill-opacity=".3"/><path opacity=".4" d="M768 43.385h-81.713a2 2 0 01-1.824-1.181L668.985 7.732a2 2 0 00-1.825-1.181H501.877" stroke="#CCC"/><circle cx="157.51" cy="73.49" r="3.49" transform="rotate(-90 157.51 73.49)" fill="#CCC" fill-opacity=".3"/><path opacity=".4" d="M-4 95.385h47.796a2 2 0 001.824-1.181l8.72-19.422a2 2 0 011.825-1.18h97.22" stroke="#CCC"/></svg>