<svg width="457" height="425" fill="none" xmlns="http://www.w3.org/2000/svg"><g opacity=".04"><path clip-rule="evenodd" d="M381.007 296.641l1.783-14.554-12.342 7.121 10.559 7.433zm-18.342-64.677l9.828 10.682-3.874 9.051-7.878-8.338 1.924-11.395z" stroke="#467FFF" stroke-width=".5"/><path d="M411.673 218.017a32.002 32.002 0 0130.884 7.572l1.238 1.178a31.997 31.997 0 018.959 31.071l-.477 1.876a31.999 31.999 0 01-22.113 22.852l-33.734 9.767-7.575-8.25-15.329 4.804 7.481 7.754-7.918 2.451-27.945-27.19 9.669-37.698 7.851-2.24-1.924 11.395 14.892-3.984 2.117-11.619 33.924-9.739z" fill="#733DFF"/><path d="M398.681 221.747l11.972-3.436a33.823 33.823 0 0117.491-.319c-3.688 6.168-5.044 14.92-4.068 26.257 1.04 12.084 4.604 24.219 10.691 36.404a33.743 33.743 0 01-5.731 2.24l-23.646 6.846-6.709-67.992z" fill="#000" fill-opacity=".275"/><path d="M427.2 257.047c-4.206-4.062-5.904-10.142-4.476-15.817 3.059-12.155 18.139-16.696 27.187-8.057 4.272 4.078 5.993 10.224 4.525 15.951-3.113 12.15-18.23 16.62-27.236 7.923z" fill="#F8FCFF" stroke="#E9EBFF"/><path d="M430.284 253.91a12.89 12.89 0 01-3.527-12.496l.149-.578c2.461-9.531 14.265-12.899 21.385-6.102a12.893 12.893 0 013.567 12.602l-.152.578c-2.504 9.527-14.336 12.839-21.422 5.996z" fill="#0D134E" stroke="#959FFA" stroke-width="1.5"/><path clip-rule="evenodd" d="M386.6 236.242l-2.834 13.128 29.282-17.108-26.448 3.98zm11.686 46.026l-8.116-10.699 32.032-3.917-23.916 14.616zm-24.561 6.031l-18.787-19.01 5.209-26.287 15.062-4.14-4.259 24.623 18.022 20.343-15.247 4.471z" stroke="#467FFF" stroke-width=".5"/><path clip-rule="evenodd" d="M365.125 241.612l-4.268 26.056 18.495 18.984-5.627 1.647-18.787-19.01 5.209-26.287 4.978-1.39z" stroke="#467FFF" stroke-width=".5"/><path d="M305.106 27.608l4.634 13.755-7.221 6.693-3.805-10.822 6.392-9.627z" fill="#D0D4FF"/><path clip-rule="evenodd" d="M297.212 92.906l7.548-12.57-14.171 1.484 6.623 11.086z" stroke="#467FFF" stroke-width=".5"/><path d="M356.369 33.435a33.476 33.476 0 0126.294 20.377c4.619 11.19 2.802 24.047-4.695 33.552-7.396 9.376-19.241 14.179-31.072 12.547l-33.842-4.667-3.564-10.619-15.959-1.846 3.681 10.127-8.23-.982-14.47-36.205 23.453-29.607a2 2 0 011.849-.738l3.809.54a2 2 0 011.385 3.087l-4.638 6.986 15.224 2.418 5.96-8.729a2.001 2.001 0 011.93-.852l32.885 4.611z" fill="#733DFF"/><path d="M296.347 83.627l-9.865-24.84 15.066-22.163L317.03 38.7l-13.541 21.002 8.641 25.767-15.783-1.841z" fill="#000" fill-opacity=".275"/><path d="M289 37.49l75.371 16.35 14.13 32.839-.433.558a34.053 34.053 0 01-31.389 12.644l-33.625-4.637-3.564-10.619-15.959-1.846 3.681 10.126-8.23-.981-14.47-36.205 14.395-18.173.093-.057z" fill="#000" fill-opacity=".275"/><path d="M357.329 80.157c-3.337-8.26-1.977-17.71 3.524-24.72 6.424-8.186 19.328-6.45 23.277 3.166l1.804 4.395a16.34 16.34 0 01-2.304 16.35l-3.264 4.123c-6.409 8.094-19.169 6.259-23.037-3.314z" fill="#F8FCFF" stroke="#E9EBFF"/><path d="M359.327 74.3a12.89 12.89 0 011.861-12.85l.371-.467c6.125-7.706 18.278-5.982 22.018 3.124a12.894 12.894 0 01-1.867 12.963l-.374.466c-6.163 7.685-18.319 5.898-22.009-3.236z" fill="#0D134E" stroke="#959FFA" stroke-width="1.5"/><path clip-rule="evenodd" d="M318.843 86.804l-3.063-13.076 30.856 9.45-27.793 3.626z" stroke="#467FFF" stroke-width=".5"/><path d="M305.086 36.174l-14.497 22.068 9.175 24.865-5.811-.784-9.43-25.008 15.45-21.896 5.113.755z" fill="#FF3F87"/><path d="M143.467 83.215l-22.72 155.878 123.7 122.823 163.001-89.323-5.023-133.679-64.77-71.614-78.287-20.432-115.901 36.347z" fill="#0D124E"/><path d="M205.762 285.492c55.857 0 101.138-45.282 101.138-101.139S261.619 83.215 205.762 83.215c-55.858 0-101.139 45.281-101.139 101.138 0 55.857 45.281 101.139 101.139 101.139z" fill="#000" fill-opacity=".162"/><path d="M276.204 149.892l122.673 69.35 23.522-22.59-2.536-13.685-115.724-66.04-27.935 32.965z" fill="#fff"/><path d="M309.303 130.852l31.261 20.296" stroke="#467FFF" stroke-width="3.5"/><path d="M358.498 162.136l18.023 10.402a2.702 2.702 0 003.618-.869 2.434 2.434 0 00-.716-3.367l-.108-.067-18.024-10.402a2.702 2.702 0 00-3.618.869 2.434 2.434 0 00.716 3.367l.109.067z" fill="#FF3F87"/><path d="M347.318 77.214s7.493 25.24 10.651 41.179c3.158 15.939 4.692 32.154 4.692 32.154l44.786 27.229-12.307-47.937-47.822-52.625z" fill="#D0D4FF"/><path d="M351.716 74.282s7.492 25.24 10.65 41.18c3.158 15.939 4.692 32.154 4.692 32.154l44.787 27.228-12.308-47.937-47.821-52.624z" fill="#BBBEFB"/><path d="M376.149 106.094l3.889 24.429a1 1 0 01-1.383 1.076l-7.882-3.397a1 1 0 00-1.386 1.06l3.143 21.886" stroke="#fff" stroke-width=".5"/><path d="M297.489 53.9s6.02 17.773 9.178 33.712c3.158 15.939 3.385 31.296 3.385 31.296l46.093 28.087s-2.047-14.902-5.964-35.198c-3.916-20.296-11.973-40.018-11.973-40.018L297.489 53.9z" fill="#D0D4FF"/><path d="M303.969 61.228s4.814 17.204 7.339 30.003c2.526 12.798 2.707 25.13 2.707 25.13l36.859 22.553s-1.637-11.966-4.769-28.263c-3.132-16.297-9.575-35.065-9.575-35.065l-32.561-14.358z" fill="#BBBEFB"/><path d="M314.567 62.452l2.538 23.606a2 2 0 001.711 1.766l12.508 1.755a2 2 0 011.71 1.753l5.174 45.187" stroke="#fff" stroke-width=".5"/><path d="M325.956 97.872c12.142 0 21.986 9.844 21.986 21.987a21.88 21.88 0 01-2.857 10.846l.274.147c2.473.87 4.311 2.203 5.515 3.998l.188.299c1.854 3.07 12.093 22.299 30.718 57.687l-10.028 3.806-34.511-28.557-7.366-26.588a22.107 22.107 0 01-3.919.348c-12.143 0-21.987-9.843-21.987-21.986s9.844-21.987 21.987-21.987z" fill="#000" fill-opacity=".162"/><path d="M283.106 83.405a.9.9 0 00-.807.025l-45.243 24.507a.9.9 0 00-.469.859l7.922 105.892a.9.9 0 00.449.714l74.562 42.79 13.886 58.286 25.144-15.768-4.482-17.322 3.228-2.284 31.661-18.844 22.818 11.974 9.166-9.873-26.723-64.351-61.296-35.163-37.96-75.735a.902.902 0 00-.426-.414l-11.43-5.293z" fill="#F8FCFF"/><path d="M255.304 208.811v40.769l82.904 58.134-15.501-58.678-67.403-40.225z" fill="#5C66C0"/><path clip-rule="evenodd" d="M263.974 229.748l-19.527 12.233v28.648l57.175 32.208v-51.569l-37.648-21.52z" stroke="#467FFF" stroke-width=".5"/><path clip-rule="evenodd" d="M280.424 233.48l-10.878 16.296c-.186.278-.29.602-.302.936l-1.615 45.653a1.799 1.799 0 00.881 1.611l43.843 25.997a1.8 1.8 0 001.783.03l20.797-11.384-13.974-55.148-40.535-23.991z" stroke="#467FFF" stroke-width=".5"/><path d="M257.503 114.868a.902.902 0 00-.448.931l13.928 84.663a2 2 0 00.879 1.349l52.993 34.647 21.228 72.056 12.532-7.444-18.107-74.115-57.126-34.754a2 2 0 01-.893-1.194l-18.174-68.208a2 2 0 01.945-2.254l27.341-15.515a2 2 0 012.83.962l27.307 64.738c.167.397.459.73.831.948l60.576 35.513 27.63 67.043 9.166-11.319-26.723-62.905-60.806-34.882a2.004 2.004 0 01-.761-.778L294.4 94.145l-36.897 20.723z" fill="#5C66C0"/><path d="M243.139 122.791c13.357 0 24.186 10.828 24.186 24.185 0 8.361-4.243 15.732-10.694 20.075l11.355 36.177 60.562 35.183-15.361 16.147-68.036-39.045a1.324 1.324 0 01-.637-.885l-.022-.161-6.812-91.058a24.309 24.309 0 015.459-.618z" fill="#000" fill-opacity=".162"/><path d="M388.957 262.393l-21.364-52.891-44.597-38.16-27.565-65.35a2 2 0 00-2.83-.962l-27.341 15.515a2 2 0 00-.945 2.254l18.381 68.984 57.812 35.172 13.559 56.433 34.89-20.995z" fill="#1B215B"/><path d="M299.448 98.065l33.474 66.782 31.612 18.134 12.723 11.78-53.61 23.062-24.461-16.059-7.486-21.63c-5.152.352-8.174-.546-9.068-2.695l-.079-.212c-.726-2.141-4.495-20.202-11.305-54.182l-1.574-7.868 15.987 17.283 14.527-5.916a24.083 24.083 0 01-5.014-14.746c0-5.101 1.579-9.832 4.274-13.733z" fill="#000" fill-opacity=".22"/><path clip-rule="evenodd" d="M394.935 206.007l14.98 8.048-9.725 5.026-5.255-13.074z" stroke="#467FFF" stroke-width=".5"/><path d="M346.101 138.243c-1.493.039-2.419 1.641-1.706 2.954l4.764 8.771a2 2 0 003.365.235l.799-1.081a2.001 2.001 0 00.131-2.179l-4.394-7.721a2 2 0 00-1.79-1.01l-1.169.031z" fill="#959FFA"/><path d="M352.872 148.818l-5.555-9.959a2.933 2.933 0 011.976 1.288l.127.214 3.273 6.076a2.93 2.93 0 01.179 2.381l-5.555-9.959 5.555 9.959z" fill="#F8FCFF"/><path d="M351.827 186.721c1.975 2 20.367 13.275 22.574 13.275 2.206 0 4.451.166 4.451.746s.756 6.754 2.018 7.964c1.261 1.209 2.948 2.677 2.948 1.024 0-1.654-.776-5.412 0-6.346.776-.935 11.32 3.922 13.793 3.922 2.473 0 6.295-4.364 3.697-7.675-2.597-3.31-12.846-6.081-14.587-6.081-1.741 0-3.596-1.925-4.369-2.902-.773-.977-19.885-13.903-21.137-17.062-1.252-3.158-15.778-38.337-20.63-39.824-4.853-1.487-7.746-1.458-7.746-1.458s5.301 20.126 7.746 27.592c4.913 15.007 10.363 25.935 11.242 26.825z" fill="#380085"/><path d="M338.208 137.542c5.184 4.703 9.724 12.663 13.619 23.88 1.515 4.362 1.009 11.922-1.519 22.678l-.646-1.296c-2.179-4.475-5.596-12.411-8.822-22.136l-.255-.771a148.72 148.72 0 01-.885-2.813l-1.492-19.542z" fill="#000" fill-opacity=".275"/><path clip-rule="evenodd" d="M378.182 200.29l6.511-7.454c.565.366 1.172.638 1.772.701l.256.013c1.741 0 11.99 2.771 14.588 6.082 2.597 3.31-1.225 7.674-3.698 7.674s-13.016-4.857-13.793-3.922c-.776.934 0 4.692 0 6.346s-1.686.185-2.948-1.024c-1.261-1.21-2.018-7.384-2.018-7.964 0-.194-.252-.342-.67-.452l6.511-7.454-6.511 7.454z" stroke="#467FFF" stroke-width=".5"/><path d="M290.776 139.256c-2.844 7.978 5.279 41.642 9.475 57.821 1.255 4.837 6.25 7.632 11.053 6.256l33.201-9.516s-8.7-61.724-13.982-65.818c-5.283-4.094-35.966.654-39.747 11.257z" fill="#959FFA"/><path d="M325.254 126.673l.139-.051c2.347.175 4.164.628 5.13 1.377 1.62 1.256 3.482 6.578 5.584 15.967l-6.519 54.125-14.276 4.092-.144.039a13.146 13.146 0 01-9.901-1.313l-2.554-9.33c-2.541-9.371-4.283-16.102-5.224-20.193-.186-.806-1.702-.499-3.591.134l-.428-1.991c-1.729-8.173-2.805-14.816-3.227-19.93 1.806-3.548 3.529-6.117 4.093-7.101l.065-.115c1.833-3.351 11.035-8.181 27.608-14.49l3.384-1.271-.139.051z" fill="#000" fill-opacity=".275"/><path d="M322.959 131.593s11.263.187 13.316 1.214c2.053 1.026 11.627 23.554 11.627 29.548 0 3.015-1.72 17.707-.689 25.823 1.019 8.018 4.778 9.464 6.885 11.906 4.24 4.914 25.982 15.93 25.982 15.93l-37.404 20.076-2.113-8.7s-33.426-19.254-33.121-20.617c1.424-6.377 2.232-10.145.515-15.63-2.407-7.692-13.557-44.965-13.557-44.965s4.134-3.881 6.722-5.998c2.588-2.118 13.344-7.373 13.344-7.373l8.493-1.214z" fill="#733DFF"/><path d="M347.213 188.178c.997 7.84 4.612 9.397 6.742 11.745l.143.161c.644.747 1.592 1.6 2.843 2.558l-4.263 6.169-18.902 2.51 13.373-23.684.064.541zm-28.838-55.93l4.585-.655 1.919.039c5.746.144 9.403.478 10.971 1.003.075.166.129.339.164.517.54 2.781-3.853 5.975-9.813 7.133-5.96 1.159-11.229-.157-11.77-2.938-.338-1.738 1.251-3.636 3.944-5.099z" fill="#000" fill-opacity=".275"/><path d="M354.098 200.084c1.108 1.284 3.112 2.88 6.012 4.789-3.319 2.415-5.896 4.629-7.734 6.643-2.188 2.398-5.117 6.472-8.785 12.222l-.411.646-10.34-1.764c-5.154-2.733-9.795-5.387-13.922-7.963l-1.464-.924c-2.722-1.732-6.082-3.95-10.078-6.653l.502-2.281c.098-.452.191-.892.278-1.32 6.048.651 10.745 1.6 14.091 2.85 4.525 1.689 10.636 4.918 18.334 9.685l.596-1.4c1.962-4.554 3.677-7.983 5.143-10.289 1.342-2.11 3.362-4.671 6.06-7.683.524 1.531 1.096 2.722 1.718 3.442z" fill="#959FFA"/><path d="M298.199 158.865l7.09-7.356.863 3.017c5.517 19.465 8.321 32.758 8.413 39.878l.002.357c0 7.38 6.097 15.017 18.29 22.91l-1.375 4.455-5.164-3.033c-12.738-7.525-19.03-11.632-18.876-12.32l.42-1.9c1.144-5.275 1.634-8.812.095-13.73l-3.674-12.043c-1.59-5.265-3.618-12.01-6.084-20.235z" fill="#000" fill-opacity=".275"/><path d="M314.466 132.807l8.494-1.214 2.289.049c1.215.033 2.333.074 3.354.124.301.614.454 1.307.454 2.076 0 3.642-3.456 7.604-9.527 7.604-5.379 0-9.162-2.318-9.954-5.38l4.89-3.259zM303.88 155.88c-1.686 3.401-13.56 15.489-20.261 14.04-5.591-1.208-12.169-25.748-15.227-36.87-.608-2.21.444-3.515 0-4.414-2.68-5.419 7.752-5.195 8.942-1.837.218.616 2.096 1.149 2.693 2.512 1.577 3.597 8.69 19.059 8.69 19.059s9.639-7.849 15.163-10.043c5.524-2.193 1.686 14.152 0 17.553z" fill="#380085"/><path d="M305.289 151.509l.026.091c-.495 1.886-1.027 3.46-1.434 4.281-1.354 2.73-9.272 11.057-15.809 13.487l17.217-17.859zm-26.238-23.256l1.284 1.754 3.687 8.13c1.286 2.813 2.851 6.224 4.695 10.233 1.03-.838 2.024-1.628 2.983-2.369l-6.039 9.256-6.61-27.004z" fill="#000" fill-opacity=".275"/><path d="M274.025 107.052l.318.904c1.447 4.009 3.018 7.146 3.018 8.18 0 2.476-1.516 6.647-.444 9.67l.043.072c-.959.382-1.938.646-2.935.79-1.424.207-3.418.247-5.981.123l-.051-.138-.925-1.888c-2.07-4.294-3.78-8.586-1.751-10.898 2.328-2.651 4.249-3.734 4.249-5.963l-.011-.375c-.135-2.743-1.485-11.207.011-11.9.866-.402 2.587 5.973 4.459 11.423z" fill="#959FFA"/><path d="M275.326 110.533l.879 2.165c.125.806.097 1.726-.083 2.757-.493 2.839-3.632 5.688-9.416 8.547l-.349-.754c-1.711-3.762-2.83-7.341-1.04-9.381 2.172-2.473 3.989-3.581 4.223-5.529 2.802.083 4.731.816 5.786 2.195z" fill="#000" fill-opacity=".275"/><path d="M269.564 109.344c3.274.859 5.057 1.872 5.347 3.04.437 1.752-4.212 8.872-5.936 9.196-1.15.215-1.845.115-2.085-.301l-.448 1.693-.272-.138-.322-.743c-1.402-3.328-2.136-6.395-.531-8.224 1.747-1.989 3.264-3.096 3.913-4.465l.334-.058z" fill="#959FFA"/><path d="M272.536 110.376c-.662 1.796 3.225 3.778 3.578 5.372.202.912-1.432 3.321-.927 4.768.378 1.082 1.695 1.277 1.965.862 1.249-1.923 3.239-5.816 2.455-6.658-1.179-1.265-6.409-6.14-7.071-4.344z" fill="#959FFA"/><path d="M312.963 130.021s-2.645 2.438-6.333 2.438-4.19-.404-4.19-.404 2.366-7.404.564-11.872c-2.898-7.187.998-22.87 11.565-20.548 3.316-2.321 6.155-2.321 9.683 0 3.528 2.322 6.667 8.878 6.083 15.724-.583 6.846 2.292 11.164 2.292 11.164s-5.924 2.901-9.281 3.498c-3.358.598-10.383 0-10.383 0z" fill="#380085"/><path d="M320.164 139.271c4.01 0 6.418-3.836 6.418-3.836s-1.286-1.461-1.286-4.651c0-3.191.661-11.005.661-11.005s1.378.545 2.089-.271c.712-.816 1.738-3.419.556-5.43-.293-.497-2.02-.869-2.02-.869s-2.814.399-5.457-.508c-2.643-.906-6.739-6.784-6.739-6.784s-.926 1.238-3.861 4.268c-2.936 3.03-3.895 5.033-3.895 7.305 0 2.272 2.946 10.763 4.495 12.263 1.55 1.5 2.818 2.043 2.818 4.542 0 2.499-.04 2.278-.04 2.278s2.252 2.698 6.261 2.698z" fill="#FFAF8A"/><path d="M323.768 126.192c-1.032 4.092-3.069 6.375-6.112 6.849-1.535.239-2.901.078-4.097-.484a5.294 5.294 0 00-.949-1.377c1.342.596 2.882.733 4.618.413 2.712-.5 4.892-2.301 6.54-5.401z" fill="#000" fill-opacity=".175"/><path d="M241.093 68.484a1.75 1.75 0 011.394-2.15l67.495-11.888a1.75 1.75 0 011.967 1.178l10.922 33.286a1.75 1.75 0 01-1.211 2.236l-68.47 18.274a1.75 1.75 0 01-2.149-1.265l-9.948-39.671z" fill="#FF3F87" fill-opacity=".28" stroke="#F8458D" stroke-width=".5"/><path d="M310.29 158.303a.998.998 0 00-.262.956l2.467 9.582c.145.565.741.886 1.293.7 2.814-.951 10.786-3.608 15.781-4.921 5.456-1.434 12.817-2.72 14.407-2.992a.99.99 0 00.538-.279l.745-.745a.999.999 0 00.2-1.128l-3.8-8.2a.991.991 0 00-1.089-.561c-2.232.43-8.918 1.737-13.907 2.917-3.363.797-13.26 3.126-15.037 3.544a.987.987 0 00-.475.266l-.861.861z" fill="#959FFA"/><path d="M312.225 156.947a.99.99 0 00-.642 1.191l2.377 9.237c.146.565.741.886 1.294.7 2.814-.951 10.786-3.608 15.781-4.921 4.823-1.268 11.136-2.42 13.633-2.858.582-.102.952-.68.799-1.251l-2.43-9.046a.992.992 0 00-1.147-.722c-2.365.456-8.876 1.733-13.761 2.89-5.03 1.19-13.231 3.887-15.904 4.78z" fill="#F8FCFF"/><path d="M261.501 68.583a1.75 1.75 0 011.392-2.147l31.258-5.538a1.75 1.75 0 011.969 1.18l4.77 14.622a1.75 1.75 0 01-1.21 2.233l-31.645 8.496a1.75 1.75 0 01-2.152-1.267l-4.382-17.58z" fill="#9286FF" fill-opacity=".193" stroke="#F8F8F8" stroke-width=".5"/><path d="M256.043 95.626a1.75 1.75 0 011.357-2.118l18.996-3.83a1.75 1.75 0 012.017 1.195l1.226 3.929a1.75 1.75 0 01-1.266 2.224l-19.124 4.538a1.748 1.748 0 01-2.107-1.299l-1.099-4.639zm36.397-7.082a1.75 1.75 0 011.285-2.322l18.876-3.914a1.75 1.75 0 011.945.982l1.065 2.313a1.75 1.75 0 01-1.159 2.428l-18.768 4.76a1.75 1.75 0 01-2.071-1.087l-1.173-3.16z" fill="#FF3F87" fill-opacity=".28" stroke="#F8458D" stroke-width=".5"/><path d="M317.773 139.256v2.611l4.868 5.756a1 1 0 00.963.334l5.336-1.083a1 1 0 00.801-.97l.005-.554a1.002 1.002 0 00-.141-.523l-4.351-7.285s-1.439.287-2.839.786c-1.399.498-4.642.928-4.642.928z" fill="#380085"/><path d="M325.321 137.181l4.169 7.557a1.42 1.42 0 01-.254.115l-.137.04-4.583 1.091a1.467 1.467 0 01-1.288-.309l-.126-.121-5.308-5.724-.021-.574c1.996-.264 3.468-.548 4.416-.852l.226-.076c.7-.25 1.42-.527 2.159-.832l.747-.315z" fill="#959FFA"/><path d="M340.113 116.195c0 13.081-10.604 23.685-23.685 23.685s-23.685-10.604-23.685-23.685 10.604-23.686 23.685-23.686 23.685 10.605 23.685 23.686z" fill="#9286FF" fill-opacity=".193" stroke="#ECEAFE"/><path opacity=".504" fill-rule="evenodd" clip-rule="evenodd" d="M301.731 108.111c.874-2.06.47-4.203-.904-4.786-1.373-.583-3.195.615-4.07 2.675-.874 2.06-.47 4.203.904 4.786 1.373.583 3.195-.614 4.07-2.675z" fill="#fff"/><path d="M193.681 128.838a.899.899 0 00-.787.014l-45.272 23.085a.9.9 0 00-.491.802v101.838a.9.9 0 00.446.777l82.531 48.277 13.886 58.285 25.143-15.767-4.482-17.322 3.229-2.284 31.661-18.844 22.818 11.973 10.153-6.738-27.71-67.486-61.296-35.163-37.96-75.734a.898.898 0 00-.427-.414l-11.442-5.299z" fill="#F8FCFF"/><path d="M165.892 254.25v35.862l78.506 46.917-11.103-42.554-67.403-40.225z" fill="#5C66C0"/><path clip-rule="evenodd" d="M191.012 278.918l40.534 23.992 6.706 26.463-57.845-34.569 10.605-15.886z" stroke="#467FFF" stroke-width=".5"/><path clip-rule="evenodd" d="M174.562 275.186l-19.527 12.233v28.649l57.175 32.207v-51.569l-37.648-21.52z" stroke="#467FFF" stroke-width=".5"/><path clip-rule="evenodd" d="M191.012 278.918l-10.879 16.296c-.185.278-.29.602-.302.936l-1.614 45.653a1.8 1.8 0 00.881 1.612l43.843 25.996a1.801 1.801 0 001.782.031l20.798-11.384-13.975-55.148-40.534-23.992z" stroke="#467FFF" stroke-width=".5"/><path clip-rule="evenodd" d="M231.704 303.538l13.816 54.52-20.378 11.154c-.28.154-.581.252-.888.297v-51.071c0-.341.066-.677.194-.991l.107-.231 7.149-13.678z" stroke="#467FFF" stroke-width=".5"/><path d="M245.521 219.242l3.293 19.851 30.683 27.199 22.125-15.025-56.101-32.025z" fill="#D0D4FF"/><path d="M167.204 159.562a2 2 0 00-1.013 2.164l17.268 84.248c.104.511.405.961.837 1.254l51.147 34.669 21.228 72.056 12.532-7.444-18.107-74.115-57.812-35.172-18.381-68.984a2.001 2.001 0 01.945-2.255l27.341-15.515a2.001 2.001 0 012.83.963l27.565 65.349 61.149 35.849 27.63 67.043 10.153-6.738-27.71-67.486-61.296-35.163-37.748-71.426-38.558 20.703z" fill="#5C66C0"/><path d="M156.857 185.936c4.357 43.373 17.384 72.155 79.497 108.597l3.884 2.268c31.757 18.719 29.347 25.053-7.227 19.002l-2.903-12.172-82.324-48.156a1.32 1.32 0 01-.642-.964l-.011-.174V152.995c0-.44.22-.848.579-1.091l.141-.084 13.722-6.997c-4.565 13.266-6.137 26.971-4.716 41.113z" fill="#000" fill-opacity=".162"/><path d="M299.545 307.831l-21.364-52.89-44.597-38.161-27.565-65.349a2 2 0 00-2.83-.962l-27.341 15.514a2.002 2.002 0 00-.946 2.255l18.381 68.984 57.812 35.172 13.56 56.433 34.89-20.996z" fill="#1B215B"/><path d="M206.951 137.346l36.287 72.393c.082 5.92-.065 12.457-.44 19.608l-.149 2.667-33.365 15.434-8.823-5.907a13.196 13.196 0 01-5.127-6.649l-.674-1.959c-7.843-22.957-11.203-38.055-10.081-45.296.876-5.656 9.273-12.415 19.142-16.775a24.074 24.074 0 01-5.287-15.092c0-7.38 3.305-13.988 8.517-18.424z" fill="#000" fill-opacity=".22"/><path d="M187.51 186.918c-1.829 11.803 8.943 54.397 16.578 57.6 7.635 3.203 37.095-8.107 37.095-8.107s3.069-51.951-9.295-62.369c-12.364-10.419-42.55 1.072-44.378 12.876z" fill="#959FFA"/><path d="M207.465 174.259l1.243-2.974c4.597-1.174 9.359-1.637 13.64-1.086l-6.333 73.912-6.899 1.106c-1.934.051-3.503-.141-4.708-.575l-.238-.092-.79-1.865c-12.473-29.608-16.95-48.126-13.434-55.553 1.683-3.554 7.298-7.732 16.847-12.537l.672-.336 1.243-2.974-1.243 2.974z" fill="#000" fill-opacity=".275"/><path d="M247.654 176.341c-1.493.039-2.419 1.641-1.706 2.954l4.763 8.771a2 2 0 003.366.235l.799-1.081a2 2 0 00.131-2.178l-4.394-7.721a2 2 0 00-1.79-1.01l-1.169.03z" fill="#959FFA"/><path d="M254.386 187.132l-5.671-10.166a2.929 2.929 0 011.988 1.252l.13.21 3.424 6.091a2.93 2.93 0 01.129 2.613l-5.671-10.166 5.671 10.166z" fill="#F8FCFF"/><path d="M238.526 173.09s7.421 1.458 8.851 3.764c1.431 2.306 20.363 28.262 22.161 29.787 1.797 1.525 18.399 14.405 19.423 17.189 1.025 2.785 2.903 4.258 2.903 4.258s-8.132 7.431-9.184 6.862c-1.052-.569-2.736.856-7.671-1.972-4.935-2.827-19.633-16.19-19.633-16.19l-8.34-10.497-8.51-33.201z" fill="#380085"/><path d="M240.578 181.1l1.215-3.873 1.274 3.077c5.094 12.202 8.853 19.984 11.276 23.346l.946 1.264c2.785 3.783 8.878 12.835 18.279 27.156l-.558-.385c-3.65-2.562-9.529-7.528-17.635-14.897l-8.339-10.497-6.458-25.191z" fill="#000" fill-opacity=".275"/><path d="M218.953 172.038s-24.468 12.497-24.468 16.696c0 4.199 12.234 34.08 12.234 39.532 0 2.634-.411 7.99-1.233 16.067-.173 1.698 45.609 28.061 45.609 28.061l1.764 12.042 6.775-2.536-8.103-15.041 15.793 7.983 30.164-16.467s-43.302-15.705-44.629-19.033c-1.328-3.327 1.432-4.394 1.432-5.95 0-1.555-10.197-57.707-14.09-59.531-3.892-1.823-21.248-1.823-21.248-1.823z" fill="#733DFF"/><path d="M218.954 172.038l1.659.004c7.054.037 12.306.319 15.756.845.313.613.481 1.264.481 1.938 0 3.643-4.922 6.596-10.993 6.596-6.071 0-10.993-2.953-10.993-6.596 0-.235.02-.468.061-.698l1.969-1.029a289.41 289.41 0 012.06-1.06zm31.716 92.892l23.48 6.185-6.826 3.727-15.793-7.983-.861-1.929z" fill="#000" fill-opacity=".275"/><path d="M253.115 239.803s-3.395.682-5.785 2.372-6.147 6.063-6.147 6.063-13.222-1.194-19.297-.913c-6.076.282-9.676 2.255-9.676 2.255l9.224 5.514s1.075-3.122 5.931-3.56c4.856-.439 15.774 2.567 15.774 2.567s5.586-4.669 8.795-6.776c3.209-2.106 7.556-3.956 7.556-3.956l-6.375-3.566z" fill="#959FFA"/><path d="M204.754 194.761c5.997 13.541 13.147 24.304 21.447 32.289l.715.678c8.605 8.05 14.279 15.563 17.023 22.54l5.875 21.388-10.815-6.264c-22.441-13.068-33.612-20.088-33.513-21.059l.408-4.136c.551-5.799.826-9.776.826-11.931 0-2.288-2.155-8.88-4.656-16.07l2.69-17.435z" fill="#000" fill-opacity=".275"/><path d="M218.954 172.038c6.621 0 11.772.199 15.454.597-.56 4.66-3.665 7.747-9.313 9.261-5.21 1.397-10.755-.018-16.636-4.246 3.01-1.706 6.509-3.577 10.495-5.612z" fill="#380085"/><path d="M232.752 266.41a2.242 2.242 0 00-1.146 2.782l14.061 39.192-15.613 7.597-6.6-48.714a2.476 2.476 0 011.567-2.644l25.374-9.729a1.409 1.409 0 011.11 2.586l-18.753 8.93z" fill="#1B215B" stroke="#E5EAED" stroke-width=".515"/><path d="M194.486 188.584s4.954-.572 8.17 1.811 10.441 29.827 16.298 36.718c5.856 6.891 20.967 14.556 22.217 19.918 1.249 5.361 6.084 5.584 8.057 7.07 1.973 1.486 3.5 9.312 1.75 10.581-1.75 1.269-12.255 5.01-13.629 4.511-1.374-.499-4.028-2.384-4.028-2.384s.547-.578 1.178-.94c.632-.362 1.898-.906 1.898-.906s.339-1.491 0-2.453c-.338-.962-1.166-1.461-1.307-1.621-.336-.38-1.769.411-1.769.411s-.15-5.713-1.154-5.713-4.707-.099-6.63-2.268c-1.923-2.169-21.139-14.715-22.881-19.315-1.742-4.599-12.71-31.376-12.71-37.492 0-6.117 4.54-7.928 4.54-7.928z" fill="#380085"/><path d="M209.202 232.824l.746.561c3.479 2.682 12.1 10.196 25.862 22.542l-2.986.539c-.175-.586-.394-.879-.657-.879l-.277-.003c-1.233-.024-4.307-.243-6.123-2.024l-.23-.241c-1.922-2.169-21.139-14.715-22.881-19.315l-.965-2.474c-2.516-6.389-8.319-21-10.699-29.598l1.201 2.373c8.536 16.807 14.206 26.312 17.009 28.519z" fill="#000" fill-opacity=".275"/><path d="M249.228 254.101c1.973 1.485 3.5 9.312 1.75 10.581-1.75 1.269-12.254 5.01-13.628 4.511-.916-.333-2.259-1.128-4.029-2.384a5.136 5.136 0 011.179-.94c.421-.242 1.054-.543 1.898-.906.225-.994.225-1.812 0-2.453-.311-.882-1.032-1.375-1.259-1.574l-.049-.047c-.224-.253-.813-.116-1.769.411l-.028-.862c-.108-2.617-.374-4.175-.799-4.675l.04-.076c.807-1.971 2.304-3.777 4.491-5.419 1.085-.815 2.574-1.536 4.467-2.163 1.608 4.325 5.905 4.617 7.736 5.996zm-36.284-51.967a1 1 0 00-.269.927l2.358 10.459c.132.587.746.927 1.313.725 3.026-1.079 11.781-4.159 16.679-5.46 5.343-1.419 13.107-2.894 14.721-3.196a.982.982 0 00.521-.276l.767-.766c.289-.29.373-.726.212-1.102l-3.432-8a.991.991 0 00-1.032-.595c-2.052.255-8.007 1.044-13.138 2.201-3.42.771-15.389 3.497-17.351 3.945a.957.957 0 00-.477.266l-.872.872z" fill="#959FFA"/><path d="M214.894 200.783a.996.996 0 00-.673 1.17l2.277 10.101c.133.587.746.927 1.313.725 3.027-1.079 11.782-4.159 16.68-5.46 4.766-1.266 11.459-2.576 13.994-3.058.562-.107.918-.659.788-1.215l-2.084-8.884a.986.986 0 00-1.082-.76c-2.172.272-7.979 1.052-12.997 2.183-5.321 1.199-15.228 4.263-18.216 5.198z" fill="#F8FCFF"/><path d="M221.886 179.761l-1.054 2.655 5.877 7.114c.259.312.68.438 1.067.318l4.51-1.395a.998.998 0 00.705-.945l.007-.736a.982.982 0 00-.058-.348l-3.373-9.4s-1.64 1.31-3.039 1.809c-1.399.498-4.642.928-4.642.928z" fill="#380085"/><path d="M229.221 176.28l3.909 10.176a1.446 1.446 0 01-.4.251l-.153.055-3.8 1.13a1.468 1.468 0 01-1.459-.373l-.118-.135-5.287-6.835-.028-.788.955-.134c1.517-.226 2.671-.465 3.461-.718l.227-.076c.855-.305 1.68-1.045 2.476-2.222l.217-.331z" fill="#959FFA"/><path d="M214.588 176.984s3.518 2.808 6.332 3.119c2.814.312 9.455-1.802 8.161-5.418-1.294-3.615-.453-3.397-.453-3.397s2.898.358 4.709-1.357c1.81-1.715 2.135-7.397 1.067-9.859-1.067-2.463-5.409-13.363-7.29-15.13-1.88-1.768-4.612-2.761-7.729-1.937-3.117.824-12.116 2.782-12.708 9.057-.592 6.276 8.333 14.757 8.333 18.315 0 3.559-.422 6.607-.422 6.607z" fill="#FFAF8A"/><path d="M221.885 169.184l1.224.51c.989.403 1.906.751 2.748 1.044 1.049.364 1.895.55 2.539.556l.061-.003c-.343.141-.135 1.272.624 3.394.245.686.206 1.317-.039 1.888-1.222-.349-2.522-1.28-3.902-2.795l-.639-.717c-1.414-1.626-2.285-2.918-2.616-3.877z" fill="#000" fill-opacity=".175"/><path d="M214.83 168.502s-3.011-1.394-5.556-3.518c-2.545-2.124-7.125-11.229-5.945-13.348 1.179-2.118 3.444-2.308 3.444-4.354 0-2.046 4.769-6.048 8.721-7.051 3.952-1.003 5.379-5.046 6.854-5.046 1.475 0 4.971 8.662 3.436 9.895-1.534 1.234-11.119 4.903-11.119 6.556 0 1.654 4.076 8.088 2.914 8.593-1.161.504-5.599-5.984-6.713-3.314-1.592 3.818 3.964 6.215 3.964 7.524v4.063z" fill="#380085"/><path d="M243.372 157.236c0 13.081-10.604 23.686-23.685 23.686s-23.685-10.605-23.685-23.686 10.604-23.685 23.685-23.685 23.685 10.604 23.685 23.685z" fill="#9286FF" fill-opacity=".193" stroke="#ECEAFE"/><path opacity=".504" fill-rule="evenodd" clip-rule="evenodd" d="M204.99 150.619c.874-2.06.47-4.203-.904-4.786-1.373-.583-3.196.614-4.07 2.675-.875 2.06-.47 4.203.903 4.786 1.374.583 3.196-.615 4.071-2.675z" fill="#fff"/><path d="M229.7 305.131l9.678-22.009 160.904-92.298 20.659 15.727-2.838 44.961-154.186 93.343-34.217-39.724z" fill="#D0D4FF"/><path d="M341.57 246.639l-41.442 25.689a1 1 0 00-.047 1.669l5.926 4.149a1 1 0 01-.086 1.692l-44.193 24.708m102.513-48.637l-21.055 13.677a.997.997 0 01-.961.07l-8.08-3.703a1.004 1.004 0 00-.944.059l-12.593 7.806a1 1 0 00-.07 1.652l7.523 5.6a1 1 0 01-.109 1.675l-44.238 24.733" stroke="#fff" stroke-width=".5"/><path d="M400.282 190.824l20.659 15.727-2.838 44.961-154.186 93.343-34.217-39.724 2.173-4.935c52.386 6.189 94.076-10.453 125.069-49.928 13.699-17.449 23.035-34.331 28.008-50.648l15.332-8.796z" fill="#9593F3" fill-opacity=".331"/><path d="M289.063 225.578l.379.262.927-.461c3.457-1.682 5.791-2.415 7.004-2.197l.305.066c2.275.569 8.282 3.394 6.979 4.116-.911.504-2.876.796-5.897.873l.838.336c3.63 1.501 5.316 2.814 5.059 3.941l-.062.22c-.746 2.336-6.235 12.483-9.858 10.203-2.502-1.574-5.79-4.247-9.863-8.02l-1.035-.389a81.285 81.285 0 011.991-4.328c.701-1.407 1.779-2.948 3.233-4.622z" fill="#959FFA"/><path d="M303.016 227.872l-.198.038c-1.027.175-2.38.284-4.058.327 1.44.561 2.617 1.098 3.531 1.609l-8.583 12.125-.861-.323c-1.681-1.223-3.631-2.824-5.851-4.802l.731-1.116c3.945-5.988 6.668-9.433 8.168-10.335 1.675-1.009 4.049-.184 7.121 2.477z" fill="#000" fill-opacity=".275"/><path d="M298.082 226.556a1 1 0 011.378-.318l.79.494a1 1 0 01.318 1.378l-1.024 1.638-2.486-1.554 1.024-1.638z" fill="#FF3F87"/><path d="M295.591 227.966a1.742 1.742 0 012.384-.527l1.58.987a1.742 1.742 0 01.537 2.428l-11.712 18.001a1.743 1.743 0 01-2.384.528l-1.58-.987a1.745 1.745 0 01-.537-2.429l11.712-18.001z" fill="#1B215B" stroke="#E5EAED" stroke-width=".515"/><path d="M287.338 248.834a2 2 0 01-.637-2.756l3.318-5.309a2 2 0 012.756-.637l4.519 2.824-5.437 8.702-4.519-2.824z" fill="#B0C1E9"/><path d="M290.839 250.902c1.342.905 3.715-.265 5.299-2.614 1.585-2.349 1.781-4.987.439-5.892-1.343-.906-3.715.264-5.299 2.613-1.585 2.349-1.781 4.987-.439 5.893z" fill="#1B215B"/><path d="M293.146 248.846a2 2 0 01-.603-2.734l.232-.371a2 2 0 012.756-.636l4.814 3.008-4.073 2.776-3.126-2.043z" fill="#5C66C0"/><path d="M304.702 232.022s-11.731-6.313-10.301-2.274c1.795 5.07-1.453 7.861-1.682 8.826-.518 2.182 4.037 4.193 4.037 4.193s2.533-1.089 4.506-4.193c1.974-3.104 3.44-6.552 3.44-6.552z" fill="#959FFA"/><path d="M304.086 231.98l.294.154a54.702 54.702 0 01-.882 1.89c-.611 1.245-1.466 2.874-2.447 4.416a12.136 12.136 0 01-2.932 3.195c-.43.323-.799.55-1.059.696a5.834 5.834 0 01-.301.159l-.004.002-.085-.041a12.82 12.82 0 01-.5-.253 12.942 12.942 0 01-1.48-.912c-.527-.38-1.024-.818-1.355-1.282-.332-.463-.479-.924-.373-1.373.019-.079.076-.199.183-.377.078-.129.172-.274.281-.441l.115-.176c.31-.48.691-1.093 1.008-1.839.637-1.501 1.009-3.531.088-6.133-.17-.479-.109-.707-.014-.816.106-.123.343-.211.778-.2.85.023 2.145.417 3.523.954 1.368.533 2.783 1.193 3.857 1.72.537.263.988.493 1.305.657z" stroke="#fff" stroke-opacity=".265" stroke-width=".5"/><path d="M367.509 261.976l-43.862-26.622.121-24.885 56.312-33.242 37.719 41.853-50.29 42.896z" fill="#D0D4FF"/><path d="M349.302 194.761l35.088 36.661m13.8-6.624l-19.896-22.131a2 2 0 01-.3-2.233l3.885-7.755a2 2 0 00-.329-2.263l-8.058-8.597m9.629 69.621l-22.877-23.972a1 1 0 00-.964-.281l-4.053 1.004a1.002 1.002 0 01-.947-.263l-21.935-21.878" stroke="#fff" stroke-width=".5"/><path d="M388.09 186.116l29.709 32.964-50.291 42.896-13.441-8.157a153.598 153.598 0 002.875-3.551c17.515-22.309 27.898-43.693 31.148-64.152z" fill="#9593F3" fill-opacity=".331"/><path d="M323.763 211.321l44.517 50.013-.771.642-43.862-26.622.116-24.033z" fill="#1B215B"/><mask id="a" fill="#fff"><path fill-rule="evenodd" clip-rule="evenodd" d="M428.559 220.264c0-99.166-80.391-179.557-179.557-179.557-99.167 0-179.557 80.391-179.557 179.557 0 99.167 80.39 179.558 179.557 179.558 99.166 0 179.557-80.391 179.557-179.558zm-281.428-38.11c0-68.405 55.453-123.858 123.858-123.858 68.404 0 123.857 55.453 123.857 123.858s-55.453 123.858-123.857 123.858c-68.405 0-123.858-55.453-123.858-123.858z"/></mask><path fill-rule="evenodd" clip-rule="evenodd" d="M428.559 220.264c0-99.166-80.391-179.557-179.557-179.557-99.167 0-179.557 80.391-179.557 179.557 0 99.167 80.39 179.558 179.557 179.558 99.166 0 179.557-80.391 179.557-179.558zm-281.428-38.11c0-68.405 55.453-123.858 123.858-123.858 68.404 0 123.857 55.453 123.857 123.858s-55.453 123.858-123.857 123.858c-68.405 0-123.858-55.453-123.858-123.858z" fill="#F8FCFF"/><path d="M249.002 41.707c98.614 0 178.557 79.943 178.557 178.557h2c0-99.719-80.838-180.557-180.557-180.557v2zM70.445 220.264c0-98.614 79.942-178.557 178.557-178.557v-2c-99.719 0-180.557 80.838-180.557 180.557h2zm178.557 178.558c-98.615 0-178.557-79.943-178.557-178.558h-2c0 99.719 80.838 180.558 180.557 180.558v-2zm178.557-178.558c0 98.615-79.943 178.558-178.557 178.558v2c99.719 0 180.557-80.839 180.557-180.558h-2zM270.989 57.296c-68.957 0-124.858 55.901-124.858 124.858h2c0-67.852 55.005-122.858 122.858-122.858v-2zm124.857 124.858c0-68.957-55.9-124.858-124.857-124.858v2c67.852 0 122.857 55.006 122.857 122.858h2zM270.989 307.012c68.957 0 124.857-55.901 124.857-124.858h-2c0 67.853-55.005 122.858-122.857 122.858v2zM146.131 182.154c0 68.957 55.901 124.858 124.858 124.858v-2c-67.853 0-122.858-55.005-122.858-122.858h-2z" fill="#E9EBFF" mask="url(#a)"/><path d="M394.114 276.697c6.912 0 12.759 4.556 14.703 10.829l8.864-5.57c-25.162 68.777-91.188 117.866-168.679 117.866-2.733 0-5.453-.062-8.157-.182l2.323-1.038c16.088-7.226 28.537-13.605 37.348-19.143 9.49-5.963 17.799-12.86 24.928-20.69-5.206-2.469-8.804-7.771-8.804-13.914 0-8.5 6.89-15.391 15.39-15.391 7.973 0 14.53 6.063 15.313 13.829 13.87-3.992 24.792-9.129 32.767-15.412 8.005-6.307 16.525-13.948 25.56-22.923-4.184-2.752-6.947-7.489-6.947-12.871 0-8.5 6.891-15.39 15.391-15.39z" fill="#9593F3" fill-opacity=".331"/><path d="M312.031 357.314c6.881 0 12.459-5.578 12.459-12.459 0-6.881-5.578-12.459-12.459-12.459-6.881 0-12.459 5.578-12.459 12.459 0 6.881 5.578 12.459 12.459 12.459zm82.083-52.768c6.881 0 12.459-5.578 12.459-12.459 0-6.881-5.578-12.459-12.459-12.459-6.881 0-12.459 5.578-12.459 12.459 0 6.881 5.578 12.459 12.459 12.459z" fill="#733DFF"/><path fill-rule="evenodd" clip-rule="evenodd" d="M406.572 184.353c0-75.286-61.031-136.317-136.317-136.317-75.285 0-136.317 61.031-136.317 136.317S194.97 320.67 270.255 320.67c75.286 0 136.317-61.031 136.317-136.317zm-259.441-2.199c0-68.405 55.453-123.858 123.858-123.858 68.404 0 123.857 55.453 123.857 123.858s-55.453 123.858-123.857 123.858c-68.405 0-123.858-55.453-123.858-123.858z" fill="#733DFF"/><path d="M255.438 283.139c-1.099-.517-1.161-2.056-.108-2.66l65.381-37.447a1.502 1.502 0 011.6.069l5.577 3.868a.5.5 0 01-.032.841l-64.823 38.175a1.498 1.498 0 01-1.399.065l-6.196-2.911z" fill="#FF3F87" stroke="#fff"/><path d="M394.347 182.154c0 68.129-55.23 123.358-123.358 123.358-68.129 0-123.358-55.229-123.358-123.358 0-68.128 55.229-123.357 123.358-123.357 68.128 0 123.358 55.229 123.358 123.357z" fill="#9286FF" fill-opacity=".193" stroke="#ECEAFE"/><path d="M120.747 181.418c0 26.656-33.647 44.186-30.873 68.162l.199 1.632c2.982 23.359 11.741 45 22.851 51.625 11.369 6.778 30.939 4.788 45.101 22.251 7.508 9.258 15.015 29.664 22.522 61.216-65.211-26.907-111.102-91.114-111.102-166.039 0-35.527 10.317-68.644 28.12-96.518 15.456 23.333 23.182 42.556 23.182 57.671z" fill="#9593F3" fill-opacity=".331"/><path d="M313.496 352.917a8.062 8.062 0 100-16.124 8.062 8.062 0 000 16.124zm82.083-52.768a8.061 8.061 0 100-16.123 8.061 8.061 0 00-8.061 8.061 8.061 8.061 0 008.061 8.062z" fill="#1B215B"/><path d="M319.342 344.855a7.312 7.312 0 11-7.311-7.312 7.312 7.312 0 017.311 7.312zm82.084-52.768a7.312 7.312 0 11-14.625 0 7.312 7.312 0 0114.625 0z" fill="#0D134E" stroke="#959FFA" stroke-width="1.5"/><path d="M33.613 206.389l6.193-13.29-13.938 2.957 7.745 10.333zm2.542-65.713l6.047 13.196-6.482 7.411-4.916-10.365 5.35-10.242z" fill="#D0D4FF"/><path d="M89.162 142.526a33.475 33.475 0 0128.279 17.517c5.764 10.646 5.301 23.622-1.162 33.859-6.375 10.099-17.653 16.112-29.59 15.726l-32.905-1.064a2 2 0 01-1.755-1.167l-4.139-9.06-16.064-.169 3.296 6.766c.653 1.339-.336 2.896-1.826 2.875l-3.851-.053a2.002 2.002 0 01-1.742-1.068l-17.08-32.418a2 2 0 01.08-2.004l19.61-30.918a2 2 0 011.76-.927l3.845.14a2 2 0 011.7 2.924l-3.882 7.433 15.393.813 5.016-9.303a1.997 1.997 0 011.83-1.05l33.187 1.148z" fill="#733DFF"/><path d="M37.84 173.855l21.709.313a26.728 26.728 0 0125.386 19.641c1.591 5.791-.235 11.716-4.258 15.626" stroke="#491A9C"/><path d="M92.678 184.525c-2.745-5.164-2.48-11.47.631-16.427 6.665-10.614 22.411-10.273 28.347.739 2.802 5.199 2.539 11.576-.626 16.569-6.715 10.593-22.474 10.173-28.352-.881z" fill="#F8FCFF" stroke="#E9EBFF"/><path d="M96.375 182.859a12.892 12.892 0 01.507-12.975l.32-.504c5.287-8.304 17.553-7.859 22.225.806a12.891 12.891 0 01-.503 13.087l-.322.503c-5.326 8.287-17.603 7.781-22.227-.917z" fill="#0D134E" stroke="#959FFA" stroke-width="1.5"/><path d="M32.197 197.671l-11.516-22.938a2 2 0 01.041-1.873l12.56-22.465 15.604.717-11.66 22.102L48.08 198.13l-15.883-.459z" fill="#000" fill-opacity=".275"/><path d="M38.445 150.611l-11.647 22.566a2 2 0 00-.016 1.802l11.276 22.864-5.86-.172-11.517-22.938a2 2 0 01.041-1.873l12.56-22.465 5.163.216z" fill="#FF3F87"/><path d="M105.712 400.173l-2.045-14.519-10.079 10.072 12.124 4.447zm-34.457-56.259l12.258 7.773-1.4 9.746-9.767-6.015-1.091-11.504z" fill="#D0D4FF"/><path d="M117.191 316.727a33.474 33.474 0 0133.257-.711c10.632 5.788 17.311 16.924 17.467 29.029.153 11.942-6.031 23.128-16.252 29.305l-28.176 17.029a1.998 1.998 0 01-2.107-.024l-8.406-5.343-13.564 8.607 6.449 3.879c1.277.768 1.295 2.613.035 3.406l-3.259 2.053c-.62.39-1.403.41-2.042.053l-31.982-17.885a2 2 0 01-1.024-1.724l-.393-36.61a2 2 0 01.972-1.737l3.3-1.977a2 2 0 013.02 1.527l.79 8.348 13.354-7.702-.86-10.534a2 2 0 01.962-1.877l28.459-17.112z" fill="#733DFF"/><path d="M90.763 370.44l19.709-12.398a26.039 26.039 0 0130.109 1.69c5.428 4.334 7.127 11.606 4.64 17.729" stroke="#491A9C"/><path d="M143.014 349.973c-5.115-2.835-8.328-8.268-8.418-14.12-.191-12.532 13.2-20.822 24.176-14.819 5.182 2.834 8.435 8.325 8.499 14.236.138 12.542-13.307 20.772-24.257 14.703z" fill="#F8FCFF" stroke="#E9EBFF"/><path d="M145.181 346.145a12.894 12.894 0 01-6.641-11.158l-.005-.597c-.089-9.843 10.44-16.152 19.077-11.429a12.892 12.892 0 016.707 11.25l.003.597c.047 9.851-10.525 16.113-19.141 11.337z" fill="#0D134E" stroke="#959FFA" stroke-width="1.5"/><path d="M99.45 394.001L76.385 380.5l-1.772-26.74 13.477-7.896 2.26 24.886 22.672 14.985-13.57 8.266z" fill="#000" fill-opacity=".275"/><path d="M79.06 351.13l2.622 26.272 22.778 13.55-5.01 3.049L76.385 380.5l-1.772-26.74 4.448-2.63z" fill="#FF3F87"/></g></svg>