<svg width="23" height="24" fill="none" xmlns="http://www.w3.org/2000/svg"><path d="M20.688.55H2.271C1.019.55 0 1.547 0 2.775V20.83c0 1.228 1.019 2.227 2.272 2.227h18.415c1.253 0 2.272-.999 2.272-2.227V2.776c0-1.228-1.019-2.227-2.271-2.227zM2.271 1.867h18.416c.51 0 .926.408.926.908v2.61H1.345v-2.61c0-.5.416-.908.927-.908zM20.688 21.74H2.271a.918.918 0 01-.927-.908V6.704h20.269v14.127a.92.92 0 01-.927.908z" fill="url(#paint0_linear)"/><path d="M3.196 4.305h1.299a.666.666 0 00.672-.66.666.666 0 00-.672-.659h-1.3a.666.666 0 00-.672.66c0 .364.301.66.673.66z" fill="url(#paint1_linear)"/><path d="M6.722 4.305H8.02a.666.666 0 00.673-.66.666.666 0 00-.673-.659H6.722a.666.666 0 00-.673.66c0 .364.301.66.673.66z" fill="url(#paint2_linear)"/><path d="M10.264 4.305h1.299a.666.666 0 00.672-.66.666.666 0 00-.672-.659h-1.299a.666.666 0 00-.673.66c0 .364.302.66.673.66z" fill="url(#paint3_linear)"/><path d="M11.48 7.938c-3.583 0-6.498 2.857-6.498 6.37 0 3.512 2.915 6.37 6.497 6.37 3.583 0 6.498-2.858 6.498-6.37 0-3.513-2.915-6.37-6.498-6.37zm5.108 5.71h-1.643c-.073-1.376-.377-2.658-.872-3.665a6.437 6.437 0 00-.027-.055c1.36.77 2.33 2.13 2.542 3.72zm-5.781-4.091v4.091H9.36c.118-1.942.743-3.47 1.446-4.091zm0 5.41v4.092c-.703-.62-1.328-2.15-1.446-4.092h1.446zm1.345 4.092v-4.092h1.446c-.118 1.943-.744 3.471-1.446 4.092zm0-5.41V9.556c.702.62 1.328 2.149 1.446 4.091h-1.446zm-3.239-3.72l-.027.054c-.495 1.007-.799 2.29-.872 3.665H6.37c.212-1.59 1.182-2.95 2.542-3.72zm-2.542 5.038h1.643c.073 1.376.377 2.659.872 3.666l.027.054c-1.36-.769-2.33-2.129-2.542-3.72zm7.675 3.72l.027-.054c.495-1.007.799-2.29.872-3.666h1.643c-.212 1.591-1.183 2.951-2.543 3.72z" fill="url(#paint4_linear)"/><defs><linearGradient id="paint0_linear" x1="-.395" y1=".198" x2="27.163" y2="8.778" gradientUnits="userSpaceOnUse"><stop stop-color="#363844"/><stop offset="1" stop-color="#11141C"/></linearGradient><linearGradient id="paint1_linear" x1="2.478" y1="2.966" x2="5.01" y2="4.516" gradientUnits="userSpaceOnUse"><stop stop-color="#363844"/><stop offset="1" stop-color="#11141C"/></linearGradient><linearGradient id="paint2_linear" x1="6.003" y1="2.966" x2="8.536" y2="4.516" gradientUnits="userSpaceOnUse"><stop stop-color="#363844"/><stop offset="1" stop-color="#11141C"/></linearGradient><linearGradient id="paint3_linear" x1="9.546" y1="2.966" x2="12.079" y2="4.516" gradientUnits="userSpaceOnUse"><stop stop-color="#363844"/><stop offset="1" stop-color="#11141C"/></linearGradient><linearGradient id="paint4_linear" x1="4.758" y1="7.739" x2="20.357" y2="12.595" gradientUnits="userSpaceOnUse"><stop stop-color="#363844"/><stop offset="1" stop-color="#11141C"/></linearGradient></defs></svg>