<svg width="18" height="17" fill="none" xmlns="http://www.w3.org/2000/svg"><path d="M15.438 8.5h2.374V5.532a.588.588 0 00-.593-.594H16.03V3.157a.588.588 0 00-.593-.594h-1.414L13.004.52a.6.6 0 00-.796-.273l-1.378.69-.202-.417a.6.6 0 00-.796-.273l-4.63 2.316h-3.42C.795 2.563 0 3.359 0 4.344v10.688a1.78 1.78 0 001.781 1.781H17.22a.588.588 0 00.593-.594V13.25h-2.375a2.382 2.382 0 01-2.374-2.374A2.382 2.382 0 0115.437 8.5zm-.594-4.75v.452l-.226-.452h.226zm-13.62.796a.588.588 0 01.558-.796h1.044l-1.603.796zm1.887.392l6.721-3.36 1.675 3.36H3.11zm9.726 0l-1.473-2.945.843-.416 1.675 3.361h-1.045z" fill="#333"/></svg>