<svg width="1364" height="526" fill="none" xmlns="http://www.w3.org/2000/svg"><path d="M291.5 130L-3 290.182V526h1381L828.5 344.054 291.5 130z" fill="url(#paint0_linear)" fill-opacity=".2"/><path d="M331.351 500.016l21.574 5.689 165.603-96.017-168.532-49.111-67.395 35.907 48.75 103.532zM469.12 275.6L490 287.5l21.5 15 38.62 24.731L588.5 350.5 592 313l32.5-5.254-129.671-72.506-25.709 40.36zM12.626 305.21l14.32 9.508 33.552 4.933 139.334-66.183 26.87-6.01 19.34 27.198 64.349-19.519-64.456-37.498 59.191-32.143 86.112 51.539 38.23-5.674 13.36-10.528 13.997-14.387-170.419-54.16L12.626 293.62v11.59zm187.206 117.294c11.584 0 20.975-5.316 20.975-11.873 0-6.557-9.391-11.873-20.975-11.873-11.584 0-20.975 5.316-20.975 11.873 0 6.557 9.391 11.873 20.975 11.873zM63.617 494.588c10.295-12.675 7.44-32.048-6.377-43.269-13.817-11.222-33.362-10.044-43.657 2.631-10.295 12.675 2.044 29.416 15.86 40.638 13.817 11.221 23.88 12.675 34.174 0zm447.19-118.617c9.18 0 16.622-4.253 16.622-9.499 0-5.245-7.442-9.498-16.622-9.498s-16.622 4.253-16.622 9.498c0 5.246 7.442 9.499 16.622 9.499zm-117.449-20.746c9.18 0 16.622-4.253 16.622-9.498 0-5.246-7.442-9.499-16.622-9.499s-16.622 4.253-16.622 9.499c0 5.245 7.442 9.498 16.622 9.498z" fill="#000" fill-opacity=".13"/><path d="M183.91 305.539s5.54 5.871 6.124 8.214c.584 2.343-.598 18.607-1.393 22.479-.794 3.871-2.889 7.857-2.889 15.916 0 8.06-.895 26.866-.895 28.917 0 2.05-2.5 18.053-1.917 19.701.298.84 2.288 2.754 4.153 3.26 1.795.487 3.47-.41 3.673-.82.414-.835 1.586-1.637 2.026-3.549.44-1.912 4.91-17.945 5.519-21.366.608-3.42 2.155-16.483 2.155-16.483s.38 2.615.489 4.894c.188 3.909.615 5.692.583 6.072-.074.902-1.072 4.048-1.072 9.668 0 3.978.708 8.247.735 10.428.011.9.563 1.72.69 1.993.432.937-1.202 6.623 0 7.893 1.201 1.27 3.243-.392 5.369 1.27s4.565 3.871 6.848 3.434c2.282-.437 2.595-3.299.151-5.551-2.445-2.252-6.999-5.129-6.999-5.965 0-.836 1.217-1.35 1.217-3.074 0-1.725 2.432-16.257 2.432-22.153 0-5.896 1.288-37.667 1.213-41.115-.076-3.448-1.213-10.34-1.213-13.019 0-2.679.47-5.036.47-5.036s1.679 8.478 2.607 10.311c.929 1.834 8.421 10.977 8.421 10.977l3.383-2.394s-5.632-11.937-6-12.893c-.368-.956-5.584-21.106-7.819-22.104-2.582-1.152-6.867-1.971-15.601 1.799-8.976 3.876-12.46 8.296-12.46 8.296z" fill="#380085"/><path d="M210.083 339.93l1.767.267-.729 21.717c-.114 3.669-.196 6.685-.21 8.346l-.002.457c0 5.896-2.432 20.428-2.432 22.153 0 1.724-1.217 2.238-1.217 3.074 0 .232.351.621.91 1.11h-1.183l.895-11.527c.517-6.491.851-10.273 1.001-11.346l.053-.333c.146-1.144.398-7.83.758-20.059l.389-13.859zm-9.019 14.614l1.586 16.642-2.909 12.891.01-.459.003-.464c0-5.619 1.71-9.478 1.784-10.38l.002-.069c-.013-.472-.365-2.104-.554-5.419l-.031-.584a51.341 51.341 0 00-.489-4.894l-.679 5.636c-.658 5.36-1.143 8.933-1.454 10.72l-.022.127c-.609 3.421-5.079 19.454-5.519 21.366-.44 1.912-1.612 2.714-2.026 3.549a1.34 1.34 0 00-.104.455c-.173-1.208-.093-2.676.239-4.403 1.285-6.68 5.489-18.064 6.149-26.522l.036-.525c.347-5.67 1.673-11.559 3.978-17.667zm10.876-46.252l.21.96c1.337 5.981 2.814 10.171 4.431 12.57l2.827 4.219c1.171 1.755 2.515 3.776 4.031 6.063l-1.032.731-2.238-2.75c-3.602-4.459-5.663-7.201-6.182-8.227-.603-1.19-1.444-4.482-2.521-9.876l.062-.614c.09-.81.227-1.836.412-3.076zm-21.86 10.67l1.501-5.609.188.819c1.478 6.313 2.995 10.157 4.552 11.534l.249.213c2.991 2.49 15.757 11.296 12.758 14.411-1.932 2.007-9.099 1.152-21.502-2.565.122-.677.245-1.315.364-1.916l.261-1.29c.542-2.641 1.353-10.27 1.629-15.597z" fill="#000" fill-opacity=".275"/><path d="M225.767 330.394l.023.047c1.937.077 3.003.383 3.198.92l.019.065c.196.866 2.367 3.411 1.738 3.411-.399 0-1.169-.491-2.311-1.471l-.183-.159 2.406 4.625.188.794c.277 1.206.369 1.833.277 1.88-.13.066-.579-.567-1.349-1.899l-.102-.178-1.583-2.112.262.782c.965 2.919 1.304 4.378 1.017 4.378-.311 0-1.119-1.517-2.422-4.55l.228 1.052c.575 2.727.723 4.091.444 4.091-.313 0-.922-1.433-1.827-4.3l.081.769c.235 2.354.208 3.531-.081 3.531-.464 0-.604-2.515-1.398-4.149l-.076-.151c-.574-1.083-1.211-2.728-1.909-4.935l-.159-.194c.582-.76 1.133-1.309 1.652-1.645.404-.262 1.026-.462 1.867-.602z" fill="#FFAF8A"/><path d="M226.945 335.037c-.251.72-.99 1.96-2.218 3.72a6.605 6.605 0 00-.411-.987c-.574-1.083-1.211-2.728-1.909-4.935l-.159-.194c.582-.76 1.133-1.309 1.652-1.645.092-.06.197-.117.312-.17 2.082 2.062 2.992 3.466 2.733 4.211z" fill="#000" fill-opacity=".175"/><path d="M186.926 403.73c.679.251 1.741.262 3.184.033a2.247 2.247 0 00-.135.235c-.4.806.358 4.021.038 5.785l-.038.183c-.414 1.714 0 4.528 0 8.242 0 3.714-4.326 3.124-6.243 1.516-1.917-1.608-1.405-9.835-.966-11.473l.437-1.571c.442-1.634.913-3.691.585-4.938l.46.335c1.26.908 2.153 1.459 2.678 1.653z" fill="#733DFF"/><path d="M190.11 403.763a2.082 2.082 0 00-.135.235c-.4.806.358 4.021.038 5.785l-.038.183c-.414 1.714 0 4.528 0 8.242 0 .696-.152 1.241-.412 1.656l-.146-.912c-.68-4.33-.928-7.538-.745-9.626.181-2.056.474-3.884.879-5.484.18-.022.366-.048.559-.079z" fill="#000" fill-opacity=".275"/><path d="M204.932 395.873c.724.094 1.507.052 2.351-.126a.856.856 0 00-.023.197c0 .836 4.554 3.713 6.999 5.965 2.444 2.252 2.131 5.114-.151 5.551-2.283.437-4.721-1.772-6.848-3.434-2.126-1.662-4.168 0-5.369-1.27-1.153-1.218.303-6.498.043-7.755.991.452 1.99.742 2.998.872z" fill="#733DFF"/><path d="M207.283 395.747a.856.856 0 00-.023.197c0 .836 4.554 3.713 6.999 5.965.893.823 1.418 1.727 1.613 2.565l.01.046-3.359-2.37c-3.217-2.282-5.063-3.637-5.536-4.065-.569-.513-.692-1.255-.37-2.224.217-.028.44-.066.666-.114z" fill="#000" fill-opacity=".275"/><path d="M209.943 323.601l1.484-1.303.236 2.006c.102.891.199 1.769.277 2.592l-1.734.885a1.161 1.161 0 01-1.688-1.033c0-1.134.46-2.217 1.269-3.003l.156-.144zm-1.884-29.122c1.071 2.228 1.208 2.904 1.208 3.283 0 .886-2.818 2.775-3.222 2.3-.19-.224-2.535-4.385-3.072-5.005 1.806-.449 3.603-.681 5.086-.578zm-16.201 5.018l.905-.514.464.633c.481.664.843 1.194 1.087 1.592l.07.115c1.528 2.578 1.225 2.758 1.225 3.169 0 .886-3.277 2.776-3.746 2.3l-.03-.034c-.162-.213.046-.484-1.672-2.781-.376-.503-1.087-1.249-2.132-2.239a181.868 181.868 0 013.829-2.241z" fill="#733DFF"/><path d="M203.378 335.037l.378-.009-.481-19.215-.217.039c-2.336.423-4.035-.038-5.123-1.37-1.116-1.366-2.86-5.245-3.8-8.781l-.365.097c.952 3.584 2.715 7.506 3.873 8.923 1.149 1.407 2.913 1.917 5.265 1.54l.47 18.776z" fill="#733DFF"/><path d="M207.424 299.06c.593 5.496.593 9.295.006 11.383-.582 2.07-2.059 3.882-4.441 5.437l.206.316c2.454-1.602 3.99-3.486 4.599-5.651.604-2.148.604-5.984.006-11.526l-.376.041z" fill="#733DFF"/><path d="M196.37 297.244c5.472-2.363 9.198-2.924 11.853-2.73 1.126.755 1.86 1.7 1.86 2.73 0 2.502-4.333 4.56-8.086 4.56-3.515 0-6.406-1.778-6.76-4.059.37-.168.748-.335 1.133-.501z" fill="#000" fill-opacity=".275"/><path d="M190.436 331.751s8.043 3.623 13.131 2.088c5.088-1.536 8.555-4.747 8.555-4.747v2.659s-3.744 3.345-8.555 4.834c-4.811 1.489-13.486-2.671-13.486-2.671l.355-2.163z" fill="#733DFF"/><path d="M208.753 338.553l-.808 4.078s-20.537-8.93-21.661-11.083c-1.123-2.153-4.749-24.294-2.374-26.009 2.374-1.715 6.998 3.697 7.671 6.397.672 2.699.226 13.492 1.338 14.114 1.112.621 15.834 12.503 15.834 12.503z" fill="#380085"/><path d="M220.246 328.589a.452.452 0 00-.286.287l-5.283 16.047a1 1 0 001.28 1.257l10.327-3.611a.445.445 0 00.28-.287l5.364-16.803a.45.45 0 00-.57-.564l-11.112 3.674z" fill="#733DFF"/><path d="M231.886 325.359c.144.048.237.18.243.323l-5.553 16.575a.357.357 0 01-.268.236l-.063.007-10.689 3.912a.5.5 0 01-.646-.628l5.448-16.37a.354.354 0 01.298-.24l.068-.001 11.078-3.831a.339.339 0 01.084.017z" fill="#F8FCFF"/><path fill-rule="evenodd" clip-rule="evenodd" d="M229.894 327.241a.446.446 0 01.276-.272l.193-.067a.45.45 0 01.57.578l-.512 1.419a.452.452 0 01-.276.273l-.193.066a.45.45 0 01-.57-.577l.512-1.42z" fill="#ABBBD9"/><path d="M229.723 327.192a.448.448 0 01.277-.272l.193-.067a.45.45 0 01.57.578l-.512 1.419a.454.454 0 01-.277.273l-.193.067a.45.45 0 01-.57-.578l.512-1.42z" fill="#733DFF"/><path fill-rule="evenodd" clip-rule="evenodd" d="M230.159 327.914c.189.054.389-.065.447-.267.058-.202-.049-.409-.238-.463-.189-.054-.389.065-.447.267-.058.201.049.409.238.463zm-.288 1.004c.189.054.389-.065.447-.267.058-.202-.048-.409-.238-.463-.189-.055-.389.065-.447.267-.057.201.049.409.238.463z" fill="#000"/><path d="M217.079 337.817c0 .736-2.892 1.471-2.477 1.808l.075.054c.396.264 1.696.888 3.901 1.871 1.954.475 2.931.906 2.931 1.295 0 .388-1.054.388-3.163 0l-.888-.194c.963.533 1.577.8 1.841.8l.141.003c.521.022 1.713.161 1.713.634 0 .524-1.892.894-2.807.694-.61-.134-1.23-.274-1.859-.421.747.611 1.444.917 2.091.917l.545.002c.704.013 1.213.092 1.213.556 0 .577-2.543.419-3.257.419-.476 0-.935-.086-1.375-.26l.413.206c.922.447 1.55.67 1.886.67l.51-.004c.556.004 1.155.063.925.49-.306.568-2.593.387-3.341.387-.48 0-3.277-1.702-8.393-5.106.09-.552.202-1.123.334-1.711.177-.79.428-1.584.752-2.382l1.003-.188c1.868-.345 3.029-.525 3.48-.539l.055-.001c.713 0 3.751-.736 3.751 0zm-24.879-56.48c0 3.193 1.96 8.922 1.96 10.581v6.906s3.584 2.979 6.565 1.054c2.982-1.926 1.779-5.186 1.779-5.186s2.011-.144 3.131-1.719c1.12-1.575.523-12.356.523-12.356s-1.958-3.202-5.433-3.022c-3.475.179-8.525.549-8.525 3.742z" fill="#FFAF8A"/><path d="M193.644 289.871s-1.848-2.122-2.189-3.894c-.341-1.772-.746-5.431 0-6.549.745-1.118 1.823-1.442 1.823-1.442s-.004-1.056 1.556-2.111c1.561-1.056 10.649-2.111 12.215 0 1.566 2.111-.461 5.369-1.414 5.879-.953.509-5.915-.827-6.895.232-.981 1.059-1.595 6.141-2.26 6.141-.666 0-.532-4.18-2.403-3.633-1.871.547-.433 5.377-.433 5.377z" fill="#380085"/><path d="M202.504 294.692h-4.008s.768 1.228 1.878 2.336c1.111 1.108 2.13 1.4 2.13 1.4s.359-1.182.359-1.868c0-.686-.359-1.868-.359-1.868z" fill="#000" fill-opacity=".175"/><path fill-rule="evenodd" clip-rule="evenodd" d="M383.624 402.233c0 .81-.431 1.558-1.132 1.964l-50.065 28.954a2.268 2.268 0 01-2.27.001l-50.123-28.956a2.267 2.267 0 01-1.133-1.963V365.61c0-.82.442-1.576 1.157-1.978l50.094-28.132a2.27 2.27 0 012.221 0l50.094 28.132a2.269 2.269 0 011.157 1.978v36.623z" fill="url(#paint1_linear)"/><path d="M330.416 393.859l-51.351-29.275c-.08.173-.132.36-.153.554l-.011.195v37.172c0 .583.283 1.126.751 1.461l.146.094 50.596 29.229c.5.289 1.105.317 1.626.086l.17-.087 50.538-29.228c.505-.292.833-.808.888-1.381l.009-.173v-37.173c0-.254-.054-.5-.153-.725l-50.826 29.247a2.244 2.244 0 01-2.23.004l-51.351-29.275 51.351 29.275z" fill="#C8CBED"/><path d="M330.416 393.859l-51.352-29.274a1.794 1.794 0 00-.152.553l-.011.195v37.172c0 .583.283 1.126.751 1.461l.146.094 50.596 29.229c.295.17.628.25.958.239l-.058-39.387a2.235 2.235 0 01-.878-.282l-51.352-29.274 51.352 29.274z" fill="#C8CBED"/><path d="M318.588 378.798a.348.348 0 00-.35.004l-2.412 1.448a.695.695 0 00.015 1.199l12.145 6.891c.108.061.241.06.348-.004l2.406-1.428a.695.695 0 00-.011-1.2l-12.141-6.91z" fill="#D6D9FB"/><path d="M315.964 381.519l1.773-1.064c.37-.223.822-.252 1.214-.087l.145.071 11.507 6.549-2.305 1.37a.282.282 0 01-.208.03l-.068-.028-12.058-6.841 1.773-1.064-1.773 1.064z" fill="#733DFF"/><path d="M361.785 372.044a1.676 1.676 0 01-1.666.001l-13.22-7.566a.655.655 0 01-.001-1.137l13.211-7.593a1.676 1.676 0 011.67 0l13.211 7.594a.655.655 0 01-.001 1.136l-13.204 7.565z" fill="#FF623F"/><path d="M375.197 363.462l-13.591-7.812a1.33 1.33 0 00-1.183-.07l-.139.07-13.592 7.812a.517.517 0 00-.084.838l.085.061 2.308 1.32 11.706-6.456a.647.647 0 01.528-.044l.101.045 11.576 6.444 2.285-1.308c.053-.031.1-.07.139-.117l.052-.075a.52.52 0 00-.105-.647l-.086-.061-13.591-7.812 13.591 7.812z" fill="#D6D9FB"/><path fill-rule="evenodd" clip-rule="evenodd" d="M311.769 390.963a.347.347 0 00-.519.301v2.966c0 .25.135.48.352.604l12.484 7.083a.348.348 0 00.519-.302v-2.944a.695.695 0 00-.351-.603l-12.485-7.105z" fill="#fff"/><path d="M312.247 391.235l12.08 6.875c.143.081.24.221.269.38l.009.097-.001 2.569-12.078-6.821a.55.55 0 01-.27-.381l-.009-.097v-2.622z" fill="#959FFA"/><path fill-rule="evenodd" clip-rule="evenodd" d="M311.769 397.721a.347.347 0 00-.519.301v2.966c0 .25.135.48.352.604l12.484 7.083a.348.348 0 00.519-.302v-2.944a.695.695 0 00-.351-.603l-12.485-7.105z" fill="#fff"/><path d="M312.247 397.993l12.08 6.875c.143.081.24.221.269.38l.009.097-.001 2.569-12.078-6.821a.55.55 0 01-.27-.381l-.009-.097v-2.622z" fill="#959FFA"/><path d="M374.959 380.47a.434.434 0 01.674.362v2.475a.867.867 0 01-.395.727l-2.089 1.357a.433.433 0 01-.67-.363v-2.444c0-.291.145-.562.387-.723l2.093-1.391z" fill="#733DFF"/><path d="M374.96 386.327a.433.433 0 01.673.361v2.476a.865.865 0 01-.395.727l-2.089 1.357a.433.433 0 01-.67-.363v-2.445c0-.29.145-.561.387-.722l2.094-1.391z" fill="#FF623F"/><path d="M367.857 384.474a.348.348 0 01.52.301v2.966a.693.693 0 01-.35.602l-24.112 13.779a.347.347 0 01-.519-.302v-2.942c0-.249.133-.479.349-.602l24.112-13.802z" fill="#D6D9FB"/><path d="M367.38 384.748l-23.708 13.569a.555.555 0 00-.268.38l-.008.097v2.565l23.706-13.514a.553.553 0 00.269-.38l.009-.097v-2.62z" fill="#733DFF"/><path d="M367.857 390.782a.347.347 0 01.52.301v2.965a.696.696 0 01-.35.603l-24.112 13.778a.346.346 0 01-.519-.301v-2.943c0-.248.133-.478.349-.602l24.112-13.801z" fill="#D6D9FB"/><path d="M367.38 391.056l-23.708 13.569a.55.55 0 00-.268.38l-.008.097v2.565l23.706-13.515a.549.549 0 00.269-.38l.009-.097v-2.619z" fill="#FF623F"/><path fill-rule="evenodd" clip-rule="evenodd" d="M326.635 435.477c0 .81-.432 1.558-1.132 1.963l-50.066 28.955a2.27 2.27 0 01-2.27.001l-50.122-28.956a2.269 2.269 0 01-1.133-1.964v-36.622c0-.82.442-1.576 1.157-1.978l50.094-28.132a2.264 2.264 0 012.221 0l50.094 28.132a2.269 2.269 0 011.157 1.978v36.623z" fill="url(#paint2_linear)" stroke="#D0D4FE" stroke-width="1.5"/><path d="M273.427 427.103l-51.351-29.276a1.79 1.79 0 00-.153.554l-.011.196v37.172c0 .583.283 1.126.751 1.461l.146.094 50.596 29.228c.5.289 1.105.318 1.626.087l.17-.087 50.538-29.228c.504-.292.833-.808.888-1.381l.008-.173v-37.173c0-.254-.053-.501-.153-.726l-50.825 29.247a2.244 2.244 0 01-2.23.005l-51.351-29.276 51.351 29.276z" fill="#C8CBED"/><path fill-rule="evenodd" clip-rule="evenodd" d="M273.427 427.103l-51.352-29.274a1.794 1.794 0 00-.152.553l-.011.195v37.172c0 .583.283 1.126.751 1.461l.146.094 50.595 29.228c.296.171.629.251.959.24l-.058-39.387a2.252 2.252 0 01-.878-.282l-51.352-29.274 51.352 29.274z" fill="url(#paint3_linear)"/><path d="M261.599 412.042a.348.348 0 00-.35.004l-2.412 1.448a.694.694 0 00.015 1.199l12.145 6.89a.344.344 0 00.348-.003l2.406-1.429a.694.694 0 00-.011-1.199l-12.141-6.91z" fill="#D6D9FB"/><path d="M258.975 414.763l1.773-1.064c.37-.223.822-.252 1.214-.087l.145.071 11.507 6.548-2.305 1.37a.273.273 0 01-.208.03l-.068-.027-12.058-6.841 1.773-1.064-1.773 1.064z" fill="#733DFF"/><path d="M304.797 405.288a1.674 1.674 0 01-1.666 0l-13.22-7.565a.655.655 0 01-.001-1.137l13.211-7.593a1.676 1.676 0 011.67 0l13.211 7.593a.655.655 0 01-.001 1.137l-13.204 7.565z" fill="#FF623F"/><path d="M318.208 396.706l-13.592-7.812a1.328 1.328 0 00-1.182-.07l-.139.07-13.592 7.811a.517.517 0 00-.084.839l.085.061 2.308 1.319 11.706-6.456a.655.655 0 01.528-.044l.101.046 11.576 6.444 2.284-1.309a.507.507 0 00.14-.116l.052-.075a.519.519 0 00-.106-.647l-.085-.061-13.592-7.812 13.592 7.812zm-63.428 27.5a.348.348 0 00-.519.302v2.966c0 .25.134.48.352.603l12.484 7.083a.347.347 0 00.519-.301v-2.944a.694.694 0 00-.351-.603l-12.485-7.106z" fill="#D6D9FB"/><path d="M255.257 424.479l12.081 6.875c.143.081.24.221.269.38l.008.097v2.569l-12.078-6.821a.552.552 0 01-.27-.381l-.009-.097-.001-2.622z" fill="#959FFA"/><path d="M317.97 413.714a.434.434 0 01.674.361v2.476a.868.868 0 01-.395.727l-2.089 1.357a.433.433 0 01-.67-.363v-2.445c0-.29.145-.561.387-.722l2.093-1.391z" fill="#733DFF"/><path d="M317.97 419.571a.434.434 0 01.674.361v2.476a.866.866 0 01-.395.727l-2.089 1.357a.433.433 0 01-.67-.364v-2.444c0-.29.145-.561.387-.722l2.093-1.391z" fill="#FF623F"/><path d="M310.868 417.718a.347.347 0 01.52.301v2.965a.696.696 0 01-.35.603l-24.112 13.778a.346.346 0 01-.519-.301v-2.942c0-.249.133-.479.349-.603l24.112-13.801z" fill="#D6D9FB"/><path d="M310.391 417.992l-23.708 13.569a.55.55 0 00-.268.38l-.008.097v2.565l23.706-13.514a.553.553 0 00.269-.381l.009-.097v-2.619z" fill="#733DFF"/><path d="M310.868 424.025a.348.348 0 01.52.302v2.965a.696.696 0 01-.35.603l-24.112 13.778a.347.347 0 01-.519-.301v-2.943c0-.249.133-.479.349-.602l24.112-13.802z" fill="#D6D9FB"/><path d="M310.391 424.299l-23.708 13.569a.555.555 0 00-.268.38l-.008.097v2.565l23.706-13.514a.549.549 0 00.269-.38l.009-.097v-2.62z" fill="#FF623F"/><path fill-rule="evenodd" clip-rule="evenodd" d="M440.613 435.477c0 .81-.431 1.558-1.132 1.963l-50.065 28.955a2.27 2.27 0 01-2.27.001l-50.123-28.956a2.269 2.269 0 01-1.133-1.964v-36.622c0-.82.442-1.576 1.157-1.978l50.094-28.132a2.264 2.264 0 012.221 0l50.094 28.132a2.269 2.269 0 011.157 1.978v36.623z" fill="url(#paint4_linear)" stroke="#D0D4FE" stroke-width="1.5"/><path d="M387.405 427.103l-51.351-29.276a1.79 1.79 0 00-.153.554l-.011.196v37.172c0 .583.283 1.126.751 1.461l.146.094 50.596 29.228c.5.289 1.105.318 1.626.087l.171-.087 50.537-29.228c.505-.292.833-.808.888-1.381l.009-.173v-37.173c0-.254-.054-.501-.153-.726l-50.825 29.247a2.246 2.246 0 01-2.231.005l-51.351-29.276 51.351 29.276z" fill="#D6D9FB"/><path d="M387.405 427.103l-51.351-29.274c-.08.173-.132.359-.153.553l-.011.195v37.172c0 .583.283 1.126.751 1.461l.146.094 50.596 29.228c.296.171.628.251.958.24l-.058-39.387a2.257 2.257 0 01-.878-.282l-51.351-29.274 51.351 29.274z" fill="#C8CBED"/><path d="M375.577 412.042a.348.348 0 00-.35.004l-2.412 1.448a.695.695 0 00.015 1.199l12.145 6.89a.344.344 0 00.348-.003l2.406-1.429a.693.693 0 00-.011-1.199l-12.141-6.91z" fill="#D6D9FB"/><path d="M372.953 414.763l1.773-1.064c.37-.223.822-.252 1.215-.087l.144.071 11.507 6.548-2.305 1.37a.272.272 0 01-.208.03l-.068-.027-12.058-6.841 1.773-1.064-1.773 1.064z" fill="#733DFF"/><path d="M418.774 405.288a1.674 1.674 0 01-1.666 0l-13.22-7.565a.655.655 0 01-.001-1.137l13.211-7.593a1.676 1.676 0 011.67 0l13.211 7.593a.655.655 0 01-.001 1.137l-13.204 7.565z" fill="#FF623F"/><path d="M432.186 396.706l-13.591-7.812a1.33 1.33 0 00-1.183-.07l-.139.07-13.591 7.811a.519.519 0 00-.085.839l.085.061 2.309 1.319 11.706-6.456a.653.653 0 01.527-.044l.101.046 11.576 6.444 2.285-1.309c.053-.03.1-.07.139-.116l.053-.075a.52.52 0 00-.106-.647l-.086-.061-13.591-7.812 13.591 7.812z" fill="#D6D9FB"/><path fill-rule="evenodd" clip-rule="evenodd" d="M368.758 424.206a.347.347 0 00-.518.302v2.966c0 .25.134.48.351.603l12.485 7.083a.346.346 0 00.518-.301v-2.944a.694.694 0 00-.351-.603l-12.485-7.106z" fill="#fff"/><path d="M369.236 424.479l12.08 6.875c.143.081.24.221.269.38l.009.097-.001 2.569-12.077-6.821a.55.55 0 01-.271-.381l-.009-.097v-2.622z" fill="#959FFA"/><path fill-rule="evenodd" clip-rule="evenodd" d="M368.758 430.965a.346.346 0 00-.518.301v2.966c0 .25.134.48.351.603l12.485 7.084a.347.347 0 00.518-.302v-2.944a.694.694 0 00-.351-.603l-12.485-7.105z" fill="#fff"/><path d="M369.236 431.237l12.08 6.875c.143.081.24.221.269.38l.009.097-.001 2.569-12.077-6.821a.55.55 0 01-.271-.381l-.009-.097v-2.622z" fill="#959FFA"/><path d="M431.949 413.714a.433.433 0 01.673.361v2.476a.866.866 0 01-.395.727l-2.089 1.357a.433.433 0 01-.67-.363v-2.445c0-.29.145-.561.387-.722l2.094-1.391z" fill="#733DFF"/><path d="M431.949 419.571a.433.433 0 01.673.361v2.476a.867.867 0 01-.394.727l-2.09 1.357a.433.433 0 01-.67-.364v-2.444c0-.29.146-.561.388-.722l2.093-1.391z" fill="#FF623F"/><path d="M424.847 417.718a.346.346 0 01.519.301v2.965a.696.696 0 01-.35.603l-24.112 13.778a.346.346 0 01-.519-.301v-2.942c0-.249.133-.479.349-.603l24.113-13.801z" fill="#D6D9FB"/><path d="M424.369 417.992l-23.708 13.569a.55.55 0 00-.268.38l-.008.097v2.565l23.706-13.514a.55.55 0 00.269-.381l.009-.097v-2.619z" fill="#733DFF"/><path d="M424.847 424.025a.347.347 0 01.519.302v2.965a.696.696 0 01-.35.603l-24.112 13.778a.347.347 0 01-.519-.301v-2.943c0-.249.133-.479.349-.602l24.113-13.802z" fill="#D6D9FB"/><path d="M424.369 424.299l-23.708 13.569a.555.555 0 00-.268.38l-.008.097v2.565l23.706-13.514a.546.546 0 00.269-.38l.009-.097v-2.62z" fill="#FF623F"/><path fill-rule="evenodd" clip-rule="evenodd" d="M383.624 468.721c0 .809-.431 1.558-1.132 1.963l-50.065 28.955a2.268 2.268 0 01-2.27 0l-50.123-28.955a2.269 2.269 0 01-1.133-1.964v-36.623c0-.82.442-1.576 1.157-1.977l50.094-28.133a2.27 2.27 0 012.221 0l50.094 28.133a2.266 2.266 0 011.157 1.977v36.624z" fill="url(#paint5_linear)" stroke="#D0D4FE" stroke-width="1.5"/><path d="M330.416 460.347l-51.351-29.276c-.08.174-.132.36-.153.554l-.011.196v37.172c0 .583.283 1.126.751 1.46l.146.094 50.596 29.229c.5.289 1.105.318 1.626.087l.17-.087 50.538-29.228c.505-.292.833-.808.888-1.381l.009-.173v-37.173c0-.254-.054-.501-.153-.726l-50.826 29.247a2.244 2.244 0 01-2.23.005l-51.351-29.276 51.351 29.276z" fill="#D6D9FB"/><path fill-rule="evenodd" clip-rule="evenodd" d="M330.416 460.346l-51.352-29.274a1.81 1.81 0 00-.152.553l-.011.196v37.172c0 .583.283 1.125.751 1.46l.146.094 50.596 29.229c.295.171.628.251.958.24l-.058-39.387a2.237 2.237 0 01-.878-.283l-51.352-29.274 51.352 29.274z" fill="url(#paint6_linear)"/><path d="M318.588 445.286a.348.348 0 00-.35.004l-2.412 1.448a.695.695 0 00.015 1.199l12.145 6.89c.108.062.241.06.348-.003l2.406-1.429a.695.695 0 00-.011-1.2l-12.141-6.909z" fill="#D6D9FB"/><path d="M315.964 448.007l1.773-1.065c.37-.222.822-.252 1.214-.086l.145.071 11.507 6.548-2.305 1.37a.273.273 0 01-.208.03l-.068-.027-12.058-6.841 1.773-1.065-1.773 1.065z" fill="#733DFF"/><path d="M361.785 438.532a1.676 1.676 0 01-1.666 0l-13.22-7.565a.655.655 0 01-.001-1.137l13.211-7.593a1.676 1.676 0 011.67 0l13.211 7.593a.656.656 0 01-.001 1.137l-13.204 7.565z" fill="#FF623F"/><path d="M375.197 429.949l-13.591-7.811a1.327 1.327 0 00-1.183-.07l-.139.07-13.592 7.811a.517.517 0 00-.084.839l.085.061 2.308 1.319 11.706-6.456a.651.651 0 01.528-.044l.101.045 11.576 6.445 2.285-1.309c.053-.03.1-.07.139-.117l.052-.074a.52.52 0 00-.105-.647l-.086-.062-13.591-7.811 13.591 7.811zm-63.428 27.501a.348.348 0 00-.519.302v2.966c0 .249.135.48.352.603l12.484 7.083a.347.347 0 00.519-.301v-2.944c0-.25-.134-.48-.351-.603l-12.485-7.106z" fill="#D6D9FB"/><path d="M312.247 457.723l12.08 6.874c.143.082.24.222.269.381l.009.097-.001 2.569-12.078-6.821a.552.552 0 01-.27-.381l-.009-.097v-2.622z" fill="#959FFA"/><path d="M374.959 446.958a.434.434 0 01.674.361v2.476a.868.868 0 01-.395.727l-2.089 1.357a.434.434 0 01-.67-.364v-2.444c0-.29.145-.562.387-.722l2.093-1.391z" fill="#733DFF"/><path d="M374.96 452.815a.433.433 0 01.673.361v2.475a.866.866 0 01-.395.728l-2.089 1.357a.434.434 0 01-.67-.364v-2.444c0-.29.145-.562.387-.723l2.094-1.39z" fill="#FF623F"/><path d="M367.857 450.962a.347.347 0 01.52.301v2.965a.696.696 0 01-.35.603l-24.112 13.778a.347.347 0 01-.519-.301v-2.943c0-.248.133-.478.349-.602l24.112-13.801z" fill="#D6D9FB"/><path d="M367.38 451.236l-23.708 13.569a.55.55 0 00-.268.38l-.008.096v2.566l23.706-13.515a.549.549 0 00.269-.38l.009-.097v-2.619z" fill="#733DFF"/><path d="M367.857 457.269a.348.348 0 01.52.302v2.965a.693.693 0 01-.35.602l-24.112 13.779a.347.347 0 01-.519-.301v-2.943c0-.249.133-.479.349-.602l24.112-13.802z" fill="#D6D9FB"/><path d="M367.38 457.543l-23.708 13.569a.555.555 0 00-.268.38l-.008.097v2.565l23.706-13.514a.549.549 0 00.269-.38l.009-.097v-2.62z" fill="#FF623F"/><path d="M224.194 377.19a4.057 4.057 0 01-2.026-3.513v-34.899a4.06 4.06 0 012.071-3.539l106.199-59.641a4.058 4.058 0 013.974 0l106.199 59.641a4.06 4.06 0 012.071 3.539v34.898a4.059 4.059 0 01-2.028 3.514l-106.26 61.385a4.056 4.056 0 01-4.061-.001L224.194 377.19z" fill="#F8FCFF" stroke="#D0D4FF" stroke-width="1.5"/><path d="M334.221 398.666l108.864-62.064c.187.409.303.852.337 1.311l.01.278v36.063c0 1.28-.642 2.467-1.699 3.17l-.203.126-107.262 61.965a3.806 3.806 0 01-3.585.118l-.224-.119-107.141-61.964a3.807 3.807 0 01-1.893-3.056l-.007-.239v-36.064c0-.538.114-1.06.324-1.536l107.75 62.001a4.757 4.757 0 004.729.01l108.864-62.064-108.864 62.064z" fill="#F8FCFF"/><path d="M334.221 398.666l108.864-62.064c.187.409.303.852.337 1.311l.01.278v36.063c0 1.28-.642 2.467-1.699 3.17l-.203.126-107.262 61.965a3.811 3.811 0 01-2.032.508l.121-40.758a4.756 4.756 0 001.864-.599z" fill="#D6D9FB"/><path d="M328.66 373.475a7.104 7.104 0 007.061.002l56.054-32.078c1.862-1.066 1.865-3.751.004-4.82l-56.013-32.194a7.105 7.105 0 00-7.081 0L272.67 336.58c-1.86 1.069-1.858 3.753.003 4.819l55.987 32.076z" fill="#BFC1F8"/><path d="M271.795 337.083l57.628-33.122a5.622 5.622 0 015.342-.142l.263.142 57.627 33.121a2.2 2.2 0 01.157 3.714l-.16.101-9.784 5.598-49.636-27.378a2.752 2.752 0 00-2.471-.093l-.194.098-49.082 27.325-9.688-5.55a2.19 2.19 0 01-.709-.648l-.104-.164a2.199 2.199 0 01.65-2.9l.161-.102 57.628-33.122-57.628 33.122z" fill="#D6D9FB"/><path d="M312.252 297.912a3.752 3.752 0 011.88-3.255l46.434-26.716c1.166-.671 2.622.171 2.622 1.517v63.805a3.75 3.75 0 01-1.886 3.254l-46.361 26.553c-1.166.668-2.619-.173-2.62-1.516l-.069-63.642z" fill="#FF623F" fill-opacity=".28" stroke="#ED7F3F" stroke-width=".5"/><path d="M325.668 344.499v-10.064a1.092 1.092 0 012.184 0v10.064a1.092 1.092 0 01-2.184 0zm5.368-2.683v-4.697a1.092 1.092 0 012.184 0v4.697a1.091 1.091 0 01-2.184 0zm5.368-2.684v-7.38a1.091 1.091 0 112.183 0v7.38a1.092 1.092 0 01-2.183 0zm16.102-10.735v-7.38a1.092 1.092 0 012.183 0v7.38a1.091 1.091 0 11-2.183 0zm-5.368 2.684v-4.697a1.092 1.092 0 012.183 0v4.697a1.091 1.091 0 11-2.183 0zm-5.367 4.025v-8.722a1.092 1.092 0 012.184 0v8.722a1.092 1.092 0 01-2.184 0z" fill="#FF623F" fill-opacity=".28" stroke="#ED7F3F" stroke-width=".5"/><path d="M349.108 292.26l-.012.016-.011.017-9.028 15.734a2.174 2.174 0 01-2.876.852l-7.77-3.983-.211-.108-.119.205-10.739 18.436a1.427 1.427 0 11-2.466-1.437l11.183-19.199a2.172 2.172 0 012.868-.84l7.765 3.98.213.109.118-.207 8.713-15.182 9.273-11.378a1.427 1.427 0 112.212 1.803l-9.113 11.182z" fill="#9286FF" fill-opacity=".193" stroke="#F8F8F8" stroke-width=".5"/><path fill-rule="evenodd" clip-rule="evenodd" d="M373.752 385.402a.735.735 0 011.099.639v6.288a1.47 1.47 0 01-.745 1.279l-26.467 15.017a.736.736 0 01-1.099-.64v-6.241c0-.529.284-1.017.744-1.278l26.468-15.064z" fill="#fff"/><path d="M372.738 385.979l-25.609 14.575c-.324.184-.537.51-.581.874l-.008.138v5.443l25.605-14.457c.326-.184.54-.511.584-.876l.008-.138.001-5.559z" fill="#959FFA"/><path d="M242.868 365.408a.735.735 0 00-1.096.641v6.29c0 .532.287 1.022.75 1.283l63.085 35.45a.736.736 0 001.096-.641v-6.242c0-.531-.287-1.021-.75-1.282l-63.085-35.499z" fill="#D6D9FB"/><path d="M243.885 365.981l62.224 35.014c.326.183.542.51.586.876l.008.139-.001 5.447-62.222-34.891a1.168 1.168 0 01-.586-.877l-.009-.139v-5.569z" fill="#733DFF"/><path d="M291.899 182.283l.239-.14.241.136 95.978 54.491 56.274-32.979V90.901L287.135.553.105 166.32v119.42l59.138 33.196L291.9 182.283z" fill="#F8FCFF" stroke="#E9EBFF" stroke-width=".96"/><path d="M287.659 73.915l19.772-43.084-19.858-11.567-19.048 11.142 19.134 43.509z" fill="#9593F3" fill-opacity=".331"/><path d="M287.673 19.323l.294 53.923 19.464-42.415-19.758-11.508z" fill="#9593F3" fill-opacity=".331"/><path d="M98.578 184.495l-14.686-7.97-1.312-36.988 15.998 44.958z" fill="#000" fill-opacity=".275"/><path d="M83.892 176.525l-61.427 36.701-9.435-38.753 69.55-41.391 1.312 43.443z" fill="#733DFF"/><path d="M31.088 223.655l4.086-2.335-16.372-44.795-4.834.054 17.12 47.076z" fill="#BFC1F8"/><path d="M287.134 0L-.376 166.044v.176l16.362 11.525 271.587-158.48 144.185 82.229 13.353-4.377v-6.495L287.134 0z" fill="#BFC1F8"/><path d="M33.87 163.12v-4.915a5.684 5.684 0 00-2.854-4.929l-7.21-4.141a5.684 5.684 0 00-5.753.053l-10.51 6.297a5.687 5.687 0 00-2.763 4.877v4.847l11.419 7.919 17.67-10.008z" fill="#FF623F"/><path d="M33.87 159.842l-17.567 9.925-11.523-7.56v3.002l11.419 7.919 17.67-10.008.001-3.278z" fill="#F8FCFF"/><path d="M411.363 85.395V80.48a5.685 5.685 0 012.853-4.93l7.21-4.14a5.686 5.686 0 015.754.053l10.51 6.297a5.685 5.685 0 012.763 4.877v4.847l-11.419 7.918-17.671-10.007z" fill="#FF623F"/><path d="M411.363 82.117l17.567 9.924 11.522-7.56.001 3.003-11.419 7.918-17.671-10.007v-3.278z" fill="#F8FCFF"/><path d="M420.362 151.633L287.659 73.915 98.565 184.885l-74.191 42.608 32.558 34.514L290.99 129.045l97.872 59.186 31.499-36.598z" fill="#9593F3" fill-opacity=".331"/><path d="M217.073 121.018l25.506 21.177a1.895 1.895 0 002.184.168l34.194-20.469a.948.948 0 00.112-1.547l-25.738-20.974-36.258 21.645z" fill="#733DFF"/><path d="M271.335 113.54l-35.391 23.468m25.271-31.755l-35.31 23.42m2.675-14.53l26.566 21.966m-13.558-29.753l26.577 21.973" stroke="#3C1F86" stroke-width="1.579"/><path d="M287.659 73.915l3.332 48.432 44.306 33.491 53.566 32.393 31.499-36.598-132.703-77.718z" fill="#9593F3" fill-opacity=".331"/><path d="M412.389 148.252l-.024.06-.04.051-22.982 30v57.358l.937-.078 54.351-31.852V91.305l-12.628 8.854-19.614 48.093z" fill="#F8FCFF" stroke="#E9EBFF" stroke-width=".96"/><path d="M429.489 198.283a1.488 1.488 0 00-1.231-.048c-1.261.542-4.079 2.047-5.094 5.004-1.324 3.859.524 7.212.524 7.212l6.034 2.663a3.412 3.412 0 012.033 3.121v4.417s3.187 2.931 7.104 2.332c3.917-.599 4.625-3.721 4.625-3.721v-10.001a6.823 6.823 0 00-3.885-6.157l-10.11-4.822z" fill="#733DFF"/><path d="M423.393 202.645l10.266 4.896a5.399 5.399 0 013.071 4.666l.004.208v10.629c-1.697-.176-3.279-.904-4.748-2.185l-.231-.207v-4.88a2.7 2.7 0 00-1.472-2.405l-.137-.065-6.458-2.851c-1.232-2.235-1.406-4.639-.524-7.212.07-.203.146-.401.229-.594z" fill="#293181"/><path d="M415.99 207.283c-.39-.186-.834-.219-1.231-.048-1.262.542-4.079 2.046-5.094 5.004-1.324 3.859.524 7.212.524 7.212l6.033 2.663a3.413 3.413 0 012.034 3.121v4.417s3.187 2.931 7.104 2.332c3.916-.599 4.625-3.721 4.625-3.721v-10.001a6.821 6.821 0 00-3.886-6.157l-10.109-4.822z" fill="#733DFF"/><path d="M409.893 211.645l10.267 4.896a5.4 5.4 0 013.071 4.666l.004.208-.001 10.629c-1.696-.176-3.279-.904-4.747-2.185l-.231-.207v-4.881a2.699 2.699 0 00-1.472-2.404l-.138-.066-6.457-2.85c-1.232-2.235-1.407-4.639-.524-7.212.07-.203.146-.401.228-.594z" fill="#293181"/><path d="M291.899 182.283l.239-.141.242.137 95.977 54.49.026-.015v-57.678l-97.392-56.175L47.353 263.294v48.968l11.89 6.675L291.9 182.283z" fill="#F8FCFF" stroke="#E9EBFF" stroke-width=".96"/><path d="M290.991 122.347v60.885l.109.078 1.043-.613 96.218 54.627.502-.295v-58.23l-97.872-56.452z" fill="#9593F3" fill-opacity=".331"/><path d="M-.376 166.044v119.978l58.5 32.837-.001-61.991-26.94-32.959-17.215-48.273-14.344-9.592z" fill="#BFC1F8"/><path d="M44.873 213.494c-3.728 0-6.75-2.015-6.75-4.5s3.022-4.5 6.75-4.5 6.75 2.015 6.75 4.5-3.022 4.5-6.75 4.5z" fill="#3C1F86"/><path d="M49.892 224.967l16.298 15.452" stroke="#3C1F86" stroke-width="1.579"/><path d="M55.628 224.766l.05 1.42-6.483 4.167-1.904-1.629-.058-1.648 6.149-4.22 2.246 1.91z" fill="#F8FCFF"/><path d="M53.382 222.856l-6.022 4.133 1.925 1.665 6.18-4.026-2.083-1.772z" fill="#FF623F"/><path d="M17.496 281.531c.39-.186.834-.219 1.231-.048 1.261.541 4.08 2.046 5.094 5.004 1.324 3.859-.524 7.212-.524 7.212l-6.033 2.663a3.411 3.411 0 00-2.034 3.121v4.417s-3.187 2.931-7.104 2.332c-3.916-.599-4.625-3.721-4.625-3.721V292.51a6.822 6.822 0 013.886-6.158l10.11-4.821z" fill="#733DFF"/><path d="M23.592 285.892l-10.266 4.897a5.4 5.4 0 00-3.071 4.666l-.004.208v10.629c1.697-.176 3.28-.904 4.748-2.185l.23-.207v-4.881a2.7 2.7 0 011.473-2.404l.137-.066 6.458-2.85c1.232-2.236 1.406-4.64.524-7.212a8.522 8.522 0 00-.229-.595z" fill="#293181"/><path d="M30.995 290.531c.39-.186.834-.219 1.231-.049 1.262.542 4.08 2.047 5.094 5.004 1.324 3.859-.524 7.213-.524 7.213l-6.033 2.663a3.41 3.41 0 00-2.034 3.12v4.418s-3.187 2.93-7.103 2.331C17.709 314.632 17 311.51 17 311.51v-10a6.822 6.822 0 013.886-6.158l10.11-4.821z" fill="#733DFF"/><path d="M37.092 294.892l-10.266 4.896a5.4 5.4 0 00-3.071 4.667l-.004.207v10.629c1.697-.175 3.28-.903 4.748-2.184l.23-.207v-4.881a2.7 2.7 0 011.473-2.405l.137-.065 6.458-2.85c1.232-2.236 1.406-4.64.524-7.213a8.692 8.692 0 00-.229-.594z" fill="#293181"/><path d="M263.858 151.461a2.269 2.269 0 00-1.056.304l-155.917 90.351a4.501 4.501 0 00-2.244 3.894v46.818l162.483-95.437-.945-43.753a2.252 2.252 0 00-2.321-2.177zm129.143-7.923a4.616 4.616 0 011.432 6.935l-10.598 13.363a4.78 4.78 0 11-7.432-6.011l10.853-13.158a4.616 4.616 0 015.745-1.129z" fill="#9593F3" fill-opacity=".331"/><path d="M391.685 148.172l-11.115 14.083a1.25 1.25 0 11-1.962-1.549l11.115-14.083a1.25 1.25 0 111.962 1.549z" fill="#3C1F86"/><path d="M391.011 150.796l-4.882-2.941v-3.859l3.418-3.182 4.912 2.82v3.617l-3.448 3.545z" fill="#FF623F"/><path d="M394.459 144.022l-3.472 3.037-4.858-2.821v3.617l4.882 2.941 3.448-3.545v-3.229z" fill="#F8FCFF"/><path d="M377.252 134.538a4.616 4.616 0 011.432 6.935l-10.598 13.363a4.78 4.78 0 01-6.245 1.103 4.778 4.778 0 01-1.187-7.114l10.852-13.158a4.617 4.617 0 015.746-1.129z" fill="#9593F3" fill-opacity=".331"/><path d="M375.936 139.172l-11.115 14.083a1.25 1.25 0 01-1.963-1.548l11.116-14.084a1.25 1.25 0 111.962 1.549z" fill="#3C1F86"/><path d="M375.262 141.796l-4.883-2.94v-3.86l3.418-3.182 4.912 2.82v3.618l-3.447 3.544z" fill="#FF623F"/><path d="M378.71 135.022l-3.472 3.038-4.858-2.821-.001 3.617 4.883 2.94 3.447-3.544.001-3.23z" fill="#F8FCFF"/><path d="M171.022 154.691c-2.447 1.096-3.151 4.238-1.404 6.273a4.011 4.011 0 005.053.86l1.091-.631a3.947 3.947 0 00-3.591-7.018l-1.149.516zm11.249-6.75c-2.447 1.096-3.15 4.238-1.404 6.273a4.013 4.013 0 005.054.86l1.091-.631a3.947 3.947 0 00-3.591-7.018l-1.15.516zm11.25-6.75c-2.447 1.096-3.15 4.239-1.404 6.273a4.011 4.011 0 005.054.86l1.09-.631a3.946 3.946 0 00-3.59-7.017l-1.15.515zm-13.5 20.249c-2.447 1.097-3.15 4.239-1.404 6.274a4.013 4.013 0 005.054.86l1.09-.631a3.947 3.947 0 00-3.59-7.018l-1.15.515zm11.25-6.749c-2.447 1.096-3.15 4.238-1.404 6.273a4.013 4.013 0 005.054.86l1.09-.631a3.947 3.947 0 00-3.59-7.018l-1.15.516zm11.25-6.75c-2.447 1.096-3.15 4.238-1.404 6.273a4.011 4.011 0 005.053.86l1.091-.631a3.947 3.947 0 00-3.59-7.018l-1.15.516z" fill="#733DFF"/><path d="M152.803 164.203c-2.549 1.607-2.818 5.221-.536 7.189l12.809 11.043a4.664 4.664 0 005.757.262c2.493-1.781 2.621-5.441.258-7.392l-13.04-10.767a4.482 4.482 0 00-5.248-.335z" fill="#9593F3" fill-opacity=".331"/><path d="M154.465 168.435l13.796 11.576a1.25 1.25 0 101.606-1.915l-13.796-11.576a1.25 1.25 0 10-1.606 1.915z" fill="#3C1F86"/><path d="M154.836 171.593l4.666-3.274-.269-3.85-3.632-2.936-4.703 3.156.252 3.609 3.686 3.295z" fill="#FF623F"/><path d="M150.924 165.076l3.676 2.788 4.649-3.153.253 3.608-4.665 3.274-3.687-3.295-.226-3.222z" fill="#F8FCFF"/><path d="M206.492 130.806c-2.491 1.696-2.634 5.317-.284 7.204l13.185 10.589a4.665 4.665 0 005.763.062c2.43-1.867 2.43-5.53.001-7.397l-13.409-10.306a4.484 4.484 0 00-5.256-.152z" fill="#9593F3" fill-opacity=".331"/><path d="M208.3 134.978l14.192 11.088a1.25 1.25 0 001.539-1.97l-14.192-11.088a1.25 1.25 0 00-1.539 1.97z" fill="#3C1F86"/><path d="M208.782 138.121l4.549-3.435-.404-3.838-3.731-2.808-4.591 3.319.378 3.597 3.799 3.165z" fill="#FF623F"/><path d="M204.645 131.744l3.77 2.658 4.537-3.313.379 3.597-4.549 3.435-3.799-3.165-.338-3.212z" fill="#F8FCFF"/><path d="M419.946 102.657a5.686 5.686 0 012.512 7.088l-9.574 23.833c-1.302 3.241-5.191 4.552-8.19 2.762l-22.649-13.525a5.686 5.686 0 01-2.38-6.954l9.076-23.18a5.685 5.685 0 018.057-2.897l23.148 12.873z" fill="#733DFF"/><path d="M372.577 102.763a5.683 5.683 0 012.498 7.019l-.48 1.23c-1.278 3.268-5.181 4.61-8.198 2.819l-29.488-17.508a5.684 5.684 0 01-2.421-6.882l.203-.543c1.225-3.27 5.081-4.674 8.121-2.956l29.765 16.821z" fill="#9593F3" fill-opacity=".331"/><path d="M362.969 125.492c2.447 1.096 3.15 4.238 1.404 6.273a4.013 4.013 0 01-5.054.86l-1.09-.631a3.947 3.947 0 013.59-7.018l1.15.516zm-11.25-6.75c2.447 1.096 3.15 4.238 1.404 6.273a4.013 4.013 0 01-5.054.86l-1.09-.631a3.947 3.947 0 013.59-7.018l1.15.516zm-11.25-6.75c2.447 1.096 3.15 4.239 1.404 6.274a4.011 4.011 0 01-5.053.859l-1.091-.631a3.946 3.946 0 013.59-7.017l1.15.515zm13.5 20.249c2.447 1.097 3.15 4.239 1.404 6.274a4.013 4.013 0 01-5.054.86l-1.09-.631a3.947 3.947 0 013.59-7.018l1.15.515zm-11.25-6.749c2.447 1.096 3.151 4.238 1.404 6.273a4.011 4.011 0 01-5.053.86l-1.091-.631a3.947 3.947 0 013.591-7.018l1.149.516zm-11.249-6.75c2.447 1.096 3.15 4.238 1.404 6.273a4.013 4.013 0 01-5.054.86l-1.091-.631a3.947 3.947 0 013.591-7.018l1.15.516zm5.458-63.406a5.686 5.686 0 012.512 7.127l-9.781 23.92c-1.316 3.22-5.19 4.513-8.177 2.73l-22.579-13.484a5.686 5.686 0 01-2.326-7.085l9.667-22.986a5.685 5.685 0 017.992-2.771l22.692 12.549z" fill="#733DFF"/><path d="M210.186 95.721a5.686 5.686 0 00-2.329 7.398l2.309 4.833a5.685 5.685 0 008.01 2.451l57.621-33.85a5.684 5.684 0 002.179-7.495l-1.953-3.81a5.685 5.685 0 00-7.86-2.354L210.186 95.72z" fill="#9593F3" fill-opacity=".331"/><path d="M122.541 120.412a5.685 5.685 0 00-2.273 7.511l12.029 23.811a5.685 5.685 0 007.954 2.339l57.707-33.901a5.686 5.686 0 002.162-7.529l-11.828-22.7a5.685 5.685 0 00-7.843-2.32l-57.908 32.789z" fill="#FF623F"/><path d="M109.592 139.907a4.682 4.682 0 00-2.01 6.139l7.94 16.654a4.81 4.81 0 108.654-4.2l-8.171-16.542a4.682 4.682 0 00-6.413-2.051zm-13.249 9a4.682 4.682 0 00-2.01 6.139l7.94 16.653a4.81 4.81 0 108.653-4.199l-8.171-16.542a4.68 4.68 0 00-6.412-2.051z" fill="#3C1F86"/><path d="M259.492 62.998c-5.592 0-10.125-4.533-10.125-10.124 0-5.592 4.533-10.125 10.125-10.125 5.591 0 10.124 4.533 10.124 10.124 0 5.592-4.533 10.125-10.124 10.125zm-24.75 13.5c-5.591 0-10.124-4.533-10.124-10.125s4.533-10.125 10.124-10.125c5.592 0 10.125 4.533 10.125 10.125s-4.533 10.125-10.125 10.125zm-24.749 13.5c-5.592 0-10.124-4.534-10.124-10.125 0-5.592 4.532-10.125 10.124-10.125 5.592 0 10.125 4.533 10.125 10.125 0 5.591-4.533 10.124-10.125 10.124z" fill="#733DFF"/><path d="M294.711 84.373L331.529 107l-7.559 6.54-28.224-17.34-1.035-11.827z" fill="#9593F3" fill-opacity=".331"/><path d="M63.274 216.088l15.976 14.206" stroke="#3C1F86" stroke-width="1.579"/><path d="M69.006 215.788l.075 1.419-6.41 4.279-1.932-1.596-.086-1.646 6.074-4.327 2.28 1.871z" fill="#F8FCFF"/><path d="M66.727 213.917l-5.949 4.238 1.953 1.631 6.11-4.134-2.114-1.735z" fill="#FF623F"/><path d="M73.802 205.62c-1.708 1.008-1.885 3.413-.342 4.66l6.261 5.059a5.685 5.685 0 006.453.48l60.542-35.567c1.743-1.024 1.89-3.488.281-4.713l-6.653-5.062a5.687 5.687 0 00-6.331-.373l-60.21 35.516z" fill="#733DFF"/><path d="M149.245 188.994c-1.864 0-3.375-1.007-3.375-2.249 0-1.243 1.511-2.25 3.375-2.25s3.375 1.007 3.375 2.25c0 1.242-1.511 2.249-3.375 2.249zm-11.25 6.75c-1.864 0-3.375-1.007-3.375-2.25 0-1.242 1.511-2.25 3.375-2.25s3.375 1.008 3.375 2.25c0 1.243-1.511 2.25-3.375 2.25zm-11.25 6.75c-1.863 0-3.374-1.007-3.374-2.25s1.511-2.25 3.374-2.25c1.864 0 3.375 1.007 3.375 2.25s-1.511 2.25-3.375 2.25zm-11.249 6.75c-1.864 0-3.375-1.007-3.375-2.25s1.511-2.25 3.375-2.25 3.375 1.007 3.375 2.25-1.511 2.25-3.375 2.25zm-11.25 6.75c-1.863 0-3.374-1.008-3.374-2.25 0-1.243 1.511-2.25 3.374-2.25 1.864 0 3.375 1.007 3.375 2.25 0 1.242-1.511 2.25-3.375 2.25zm-11.249 6.75c-1.864 0-3.375-1.008-3.375-2.25 0-1.243 1.51-2.25 3.375-2.25 1.864 0 3.375 1.007 3.375 2.25 0 1.242-1.511 2.25-3.375 2.25z" fill="#FF623F"/><path d="M78.122 193.494c-3.728 0-6.75-2.014-6.75-4.5 0-2.485 3.022-4.499 6.75-4.499s6.75 2.014 6.75 4.499c0 2.486-3.022 4.5-6.75 4.5zm279.959-8.79l-43.455-24.354 1.65-2.944 43.455 24.354-1.65 2.944zm0 11.25L314.626 171.6l1.65-2.944 43.455 24.354-1.65 2.944zm0 11.249l-43.455-24.354 1.65-2.944 43.455 24.354-1.65 2.944z" fill="#3C1F86"/><mask id="a" fill="#fff"><path d="M263.18 199.45l-.897-41.67-153.482 88.01v44.454"/></mask><path d="M263.18 199.45l-.897-41.67-153.482 88.01v44.454" fill="#F8FCFF"/><path d="M262.283 157.78l-.478-.833 1.403-.804.035 1.616-.96.021zm-153.482 88.01h-.96v-.556l.482-.277.478.833zm153.42-46.319l-.898-41.67 1.92-.042.897 41.67-1.919.042zm.539-40.858l-153.481 88.01-.956-1.666 153.482-88.01.955 1.666zM109.761 245.79v44.454h-1.92V245.79h1.92z" fill="#E9EBFF" mask="url(#a)"/><path d="M258.367 166.495a2.25 2.25 0 110-4.5 2.25 2.25 0 010 4.5zm-145.072 84.302a2.25 2.25 0 110-4.499 2.25 2.25 0 010 4.499z" fill="#1B215B"/><path d="M224.703 236.665s.085 2.434-1.842 3.757c-1.927 1.322-8.944-1.173-9.786 0-1.164 1.622 1.119 7.647 5.991 6.418 2.437-.615 3.586 1.87 5.446 2.355 1.728.451 3.106.131 3.906 0 2.607-.424 2.349-11.059 2.349-11.059l-6.064-1.471z" fill="#733DFF"/><path d="M219.14 247.061c2.437-.614 3.512 1.649 5.372 2.134 1.728.451 3.106.131 3.906 0 .743-.121 1.311-.863 1.705-2.227-1.994.852-3.612 1.167-4.856.945-2.205-.395-2.566-2.114-5.315-1.926l-.265.024c-1.892.202-4.244-1.053-7.056-3.765.681 2.507 3.137 5.666 6.509 4.815z" fill="#733DFF"/><path d="M251.307 205.534s13.105 9.15 5.342 16.005c-2.887 2.549-9.033-.74-22.131-6.859-.995-.465 0 .699 0 3.298 0 2.6-1.126 16.402-1.906 19.011-.78 2.608-5.048 2.111-6.249 1.734-1.202-.377-3.658-1.108-3.658-3.324 0-2.215-3.871-33.887 1.734-35.997 5.604-2.111 26.868 6.132 26.868 6.132z" fill="#380085"/><path d="M231.484 199.38l.001 7.725-9.712-1.256c-1.198 9.854.89 27.544.931 29.496l.001.054c0 1.89 1.786 2.7 3.058 3.131l.599.193c1.202.377 5.47.875 6.25-1.734.767-2.565 1.868-15.954 1.904-18.871l.001-.14c0-2.599-.994-3.763 0-3.298l6.496 3.048c.65.303 1.277.593 1.881.871l-1.884-16.747c-3.553-1.138-6.596-1.938-9.13-2.402l-.396-.07z" fill="#000" fill-opacity=".288"/><path d="M244.759 240.439l-2.234 7.019-24.138-14.801a6.58 6.58 0 01-2.85-7.545l.985-3.202 28.237 18.529z" fill="#532CB9"/><path d="M252.089 201.371a3.289 3.289 0 00-3.282.068l-30.135 18.193c-2.138 1.291-2.115 4.401.044 5.659l25.988 15.15 11.51-36.809-4.125-2.261z" fill="#3C1F86"/><path d="M220.619 145.68s-1.139.324-2.409.224c-1.269-.101-3.136.497-3.582-.447-.446-.944 2.045-1.206 2.224-1.83.083-.288-1.025-1.583-2.181-2.963-1.346-1.607-2.759-3.33-2.44-3.72.592-.725 4.12 3.094 4.12 3.094s-3.156-3.948-2.748-4.625c.408-.676 3.731 2.995 3.731 2.995s-2.526-3.421-1.831-4.112c.695-.691 2.899 2.493 2.899 2.493s-.768-3.073-.206-3.184c.248-.049 1.12 1.365 2.614 4.242.375.72 1.369 1.721 2.198 3.39.287.578.549 2.1.549 2.1l-2.938 2.343z" fill="#FFAF8A"/><path d="M255.402 169.523s-12.19-8.367-17.949-13.278c-5.759-4.911-10.645-12.874-13.423-12.874-2.778 0-4.542 1.5-3.731 4.167.811 2.668 7.973 12.682 9.872 15.183 1.9 2.501 16.86 14.65 16.86 14.65l8.371-7.848z" fill="#380085"/><path d="M257.306 170.607c5.766 6.992-1.65 32.992.664 36.609 2.314 3.617 3.299 13.348-4.351 16.387-5.009 1.991-7.662 3.287-10.725 3.04-1.614-.13-4.359-.283-5.412-1.869-3.051-4.596-.753-22.126-3.238-26.091s-4.804-17.727-2.096-21.953c2.709-4.226 19.391-13.114 25.158-6.123z" fill="#380085"/><path d="M239.897 171.081l.031-.063c-3.701 1.825-6.75 4.105-7.78 5.712-2.669 4.165-.456 17.591 1.988 21.774l.108.179c1.104 1.761 1.264 6.201 1.368 10.994l1.87.976c-1.476-12.58-1.476-23.019 0-31.319.58-3.262 1.338-5.913 2.274-7.951l.172-.365-.031.063z" fill="#000" fill-opacity=".288"/><path d="M206.017 244.289s.255 2.422-1.575 3.876c-1.83 1.454-6.867-.577-9.381 2.151-1.44 1.561.937 3.883 5.489 5.172 3.397.961 8.41 1.427 10.048 1.042 2.57-.606 1.278-11.572 1.278-11.572l-5.859-.669z" fill="#733DFF"/><path d="M195.061 250.315c-1.44 1.562.937 3.884 5.489 5.172 3.397.962 8.41 1.428 10.048 1.043.497-.118.886-.526 1.167-1.225-6.803-.013-14.285-2.1-15.91-3.75-.39-.396-.64-.825-.75-1.285l-.044.045z" fill="#733DFF"/><path d="M234.81 208.797s18.919 6.045 15.034 15.121c-2.588 6.046-21.336 1.104-34.434-5.014-.995-.465 0 .699 0 3.298 0 2.6-.247 19.99-1.027 22.599-.78 2.609-5.047 2.111-6.249 1.734-1.202-.377-3.658-1.108-3.658-3.324 0-2.215-3.871-33.887 1.734-35.997 5.604-2.111 28.6 1.583 28.6 1.583z" fill="#380085"/><path d="M283.511 214.933c.084.478.182.949.286 1.421l-1.241.241a1.78 1.78 0 01-.803-3.467l.124-.029 1.306-.255c.095.685.204 1.385.328 2.089zm-47.145-15.131l4.963.435a1.78 1.78 0 01-.188 3.554l-.122-.006-3.626-.263a1.001 1.001 0 01-.927-.962l-.059-1.627a1 1 0 011.087-1.032l3.835.336-4.963-.435zm22.155 10.705c-6.238 1.716-12.121 2.337-21.579.106l.075-3.366s11.97 1.663 20.592-.049c8.622-1.712 3.377 2.631.912 3.309z" fill="#733DFF"/><path d="M210.795 216.225c-1.593.972-1.459 11.166.4 30.584 1.392-.119 2.776-.631 3.188-2.008.758-2.535 1.012-19.031 1.026-22.345l.001-.254c0-2.531-.943-3.701-.075-3.332l1.361.629-.345-.429c-2.276-2.768-4.128-3.716-5.556-2.845z" fill="#000" fill-opacity=".288"/><path d="M200.34 171.955s.629-1.005.884-2.253c.256-1.248 1.353-2.878.562-3.567-.79-.688-1.734 1.634-2.388 1.634-.302 0-1.247-1.422-2.263-2.914-1.181-1.737-2.457-3.569-2.922-3.371-.866.37 1.85 4.814 1.85 4.814s-2.945-4.123-3.713-3.917c-.768.207 1.863 4.412 1.863 4.412s-2.61-3.371-3.471-2.893c-.862.478 1.608 3.473 1.608 3.473s-2.674-2.055-2.937-1.545c-.117.225.922 1.923 3.292 4.152.594.559 1.286 1.791 2.672 3.047.479.435 1.879 1.107 1.879 1.107l3.084-2.179z" fill="#FFAF8A"/><path d="M212.536 189.836c-3.632-2.031-15.237-14.358-15.237-15.518 0-1.16 2.565-4.226 4.745-3.686s12.235 11.083 15.317 11.083c2.069 0 16.087-7.734 21.055-5.924 1.032.376-.389 2.152 0 3.47 3.251 11.016-22.248 12.605-25.88 10.575z" fill="#380085"/><path d="M254.828 170.359l.162-.003c1.4 3.769 1.154 7.019-4.306 9.052-4.324 1.611-10.665.982-14.072-3.802l-.239-.344c.239-.532.763-1.747 1.972-2.252 2.598 3.512 6.943 4.776 11.087 3.313 2.71-.956 3.75-3.648 2.44-5.7l-.049-.162c1.249-.381 2.008-.072 3.005-.102l.162-.003-.162.003z" fill="#733DFF"/><path d="M248.865 169.916l-.387-3.779s3.693-11.015 2.011-14.458c-1.681-3.442-11.908-5.467-13.469-1.114-1.562 4.353-2.708 16.339 0 17.417 2.707 1.078 2.961.433 2.961.433l.952 3.107s1.923 1.135 4.519.419c2.596-.717 3.413-2.025 3.413-2.025z" fill="#FFAF8A"/><path d="M249.677 163.709c-1.982 2.352-4.396 2.717-6.137.608-1.742-2.11-.225-6.768-2.039-7.594-1.814-.826-1.583 4.148-2.571 3.648-.989-.5.136-5.768-.989-7.026-1.124-1.259-2.903-.442-2.903-2.853s4.272-4.866 7.459-3.983c3.188.884 5.914-.44 8.518 2.625 2.604 3.066.645 12.224-1.338 14.575z" fill="#380085"/><path d="M287.196 170.165a6.58 6.58 0 017.115.598l1.885 1.455-48.888 96.588-26.176-13.103 18.515-9.991 2.837 1.475 18.991-61.158a6.576 6.576 0 013.189-3.855l22.532-12.009z" fill="#F8FCFF"/><path d="M297.328 175.675c.234-2.671-2.654-4.485-4.958-3.115l-23.889 14.199a3.288 3.288 0 00-1.479 1.91l-22.835 78.632-18.528-13.949-2.739 1.429a3.29 3.29 0 00-1.768 2.917v2.792a3.29 3.29 0 001.75 2.908l21.386 11.324a6.577 6.577 0 006.418-.145l37.113-21.856a6.582 6.582 0 003.216-5.095l6.313-71.951z" fill="#532CB9"/><path d="M242.484 247.187l-2.787-1.502-14.274 7.703a2.604 2.604 0 00-.113 4.518l.133.076 7.959 4.205 4.808 2.402 4.274-17.402z" fill="#3C1F86"/><path d="M474.043 179.72v43.402a20 20 0 009.949 17.291l24.366 14.164-20.164 11.373-27.236-15.79a19.998 19.998 0 01-9.969-17.302v-40.354l23.054-12.784z" fill="#D6D9FB"/><path d="M469.599 237.085a4 4 0 013.81.078l26.659 15.158c1.362.774 1.345 2.743-.03 3.494l-9.675 5.282a4.002 4.002 0 01-3.914-.046l-26.726-15.405c-1.371-.79-1.325-2.785.082-3.51l9.794-5.051z" fill="#1B215B"/><path d="M450.746 192.067l-.257.142v40.612a20.497 20.497 0 0010.267 17.763l16.13 9.292c4.333 2.496 9.744-.632 9.744-5.633v-41.25l23.189-12.345 5.549 3.235.035 58.015c.005 8.391-4.487 16.162-11.75 20.366a23.543 23.543 0 01-23.636-.029l-23.508-13.716a23.501 23.501 0 01-11.657-20.353l.137-58.309 23.426-12.776 4.609 2.633-22.278 12.353z" fill="#F8FCFF" stroke="#D0D4FF"/><path d="M515.799 203.555l.069.041.037 61.189a18.994 18.994 0 01-9.189 16.28l-.292.173-5.059 2.928a18.998 18.998 0 01-18.624.229l.303.041a8.009 8.009 0 008.918-7.956v-59.577l23.837-13.348z" fill="#D6D9FB"/><path d="M461.197 205.291c2.414 1.025 5.479-.754 6.846-3.973 1.366-3.219.517-6.66-1.898-7.685-2.414-1.024-5.479.754-6.845 3.974-1.367 3.219-.517 6.659 1.897 7.684z" fill="#1B215B"/><path d="M462.32 203.137c1.409.597 3.173-.386 3.942-2.197.769-1.81.25-3.763-1.158-4.361-1.409-.598-3.173.386-3.942 2.197-.769 1.81-.25 3.763 1.158 4.361z" fill="#FF623F"/><path d="M461.197 222.705c2.414 1.024 5.479-.754 6.846-3.974 1.366-3.219.517-6.659-1.898-7.684-2.414-1.025-5.479.754-6.845 3.973-1.367 3.219-.517 6.66 1.897 7.685z" fill="#1B215B"/><path d="M462.32 220.55c1.409.598 3.173-.386 3.942-2.196.769-1.811.25-3.764-1.158-4.361-1.409-.598-3.173.385-3.942 2.196-.769 1.811-.25 3.763 1.158 4.361z" fill="#FF3F87"/><path d="M467.629 245.37c-1.105 1.093-10.015-14.966-6.677-26.911 3.338-11.946 2.921-19.54 2.921-19.54s8.896 12.783 8.896 19.54-1.243 25.26-1.243 25.26-.675.632-.968.709c-1.37.358-2.323.342-2.929.942z" fill="#733DFF" stroke="#D0D4FF" stroke-width=".5"/><path d="M472.769 218.459l-.003.693c-.039 4.649-.452 12.838-1.24 24.567-.45.421-.772.658-.968.709-1.37.358-2.323.342-2.929.942-.262.259-.964-.446-1.836-1.833-.893-4.741-1.586-12.061-.603-17.641.751-4.257 2.651-9.231 5.699-14.921 1.254 2.919 1.88 5.413 1.88 7.484z" fill="#3C1F86"/><path d="M471.149 248.288c-1.04-1.005-7.041-11.011-3.52-22.891 3.52-11.879 10.831-20.645 10.831-20.645s-1 12.036 1.408 18.802-1.408 21.816-1.408 21.816-.818 1.541-1.407 1.775c-1.088.431-1.948-.234-3 0-1.543.342-2.509 1.525-2.904 1.143z" fill="#733DFF" stroke="#D0D4FF" stroke-width=".5"/><path d="M479.731 223.156l.137.398c1.605 4.511 1.136 11.783-1.408 21.816-.545 1.027-1.014 1.619-1.407 1.774-1.088.432-1.947-.233-2.999 0-.176.04-.345.09-.506.147l-.217-.781c-1.782-6.549-3.997-18.192.405-22.967 2.003-2.173 3.518-5.012 4.545-8.519.205 3.14.689 5.851 1.45 8.132z" fill="#3C1F86"/><path d="M484.746 247.328c-.831 1.094-1.519 1.746-2.065 1.954l-.601.229c-.314.113-.521.154-1.513.367-1.832.394-2.955 2.056-3.381 1.285l-.033-.07c-.661-1.503-7.084-20.996-1.042-27.55 4.11-4.458 6.165-11.726 6.165-21.803 2.275 3.536 4.014 6.945 5.217 10.228l-1.363.725" fill="#733DFF"/><path d="M484.746 247.328c-.831 1.094-1.519 1.746-2.065 1.954l-.601.229c-.314.113-.521.154-1.513.367-1.832.394-2.955 2.056-3.381 1.285l-.033-.07c-.661-1.503-7.084-20.996-1.042-27.55 4.11-4.458 6.165-11.726 6.165-21.803 2.275 3.536 4.014 6.945 5.217 10.228l-1.363.725" stroke="#D0D4FF" stroke-width=".5"/><path d="M484.547 220.509v27.077c-.742.939-1.364 1.505-1.866 1.696l-.601.229-.177.059c-.219.068-.472.123-1.083.254l-.145-.681c-1.152-5.523-2.111-12.77-1.045-15.881l.058-.16c.906-2.36.357-6.391-1.648-12.094.799-1.27 1.484-2.695 2.057-4.274a65.897 65.897 0 014.45 3.775z" fill="#3C1F86"/><path d="M486.13 254.644c-.981.402-1.582 1.731-1.832 1.539-.93-.713-4.881-17.682-3.085-22.921l.058-.16c1.291-3.363-.374-10.123-4.995-20.278 3.932 2.66 7.216 5.222 9.854 7.685" fill="#733DFF"/><path d="M486.13 254.644c-.981.402-1.582 1.731-1.832 1.539-.93-.713-4.881-17.682-3.085-22.921l.058-.16c1.291-3.363-.374-10.123-4.995-20.278 3.932 2.66 7.216 5.222 9.854 7.685" stroke="#D0D4FF" stroke-width=".5"/><path d="M471.168 249.824s-.111-2.042.659-3.003c.77-.961 3.297-.506 3.297-.506l2.135 6.267s-.309-2.758 1.383-2.758 2.566-2.246 2.974-1.123c.407 1.123 1.868 8.551 1.868 8.551h1.382s-1.242-1.323-.319-2.996c.922-1.674 1.583-1.33 1.583-1.33v3.682l-1.264 1.973-13.698-8.757z" fill="#1B215B"/><path d="M518.628 361.348h7.139c.362 0 .715.109 1.014.313l1.304.888c.984.671 1.053 2.091.112 2.821-1.058.822-2.409 1.822-3.608 2.554-1.133.693-4.01 2.25-6.745 3.708-2.626 1.4-5.752-.636-5.555-3.604l.396-5.966 5.943-.714zm-25.379-3.669c-.545.31-.889.88-.909 1.506l-.115 3.485-.004 1.241c-.003.94.719 1.727 1.658 1.769.862.038 1.797.051 2.106-.048 1.544-.497 2.278-1.993 2.692-2.203 1.003-.512 2.606-2.123 2.606-2.123l3.826-1.428a1.8 1.8 0 00.982-2.492l-.28-.559a1.804 1.804 0 00-1.393-.983l-5.954-.725a1.799 1.799 0 00-1.108.222l-4.107 2.338z" fill="#733DFF"/><path d="M499.654 253.694s.926-2.431 1.655-5.808c.728-3.377-2.23-11.812-2.23-11.812l13.843-5.075s.285 6.817.285 10.32c0 2.752-1.316 4.806-1.881 5.562a1.17 1.17 0 01-.644.42l-1.908.51.984 5.883-2.619 2.503-7.485-2.503z" fill="#FFAF8A"/><path d="M524.433 270.596l9.089-9.114a1.54 1.54 0 00.263-1.824l-9.52-5.643a.907.907 0 00-1.09.123l-9.254 8.797 10.512 7.661z" fill="#733DFF"/><path d="M523.279 254.039l-8.904 8.463 10.058 7.331 9.278-9.303a.713.713 0 00.209-.531 1.419 1.419 0 00-.076-.219l-.059-.122-9.643-5.717a.72.72 0 00-.863.098z" fill="#D6D9FB"/><path d="M524.528 268.821l8.184-8.119a.82.82 0 00-.164-1.288l-8.176-4.772a.82.82 0 00-.948.088l-8.388 7.246 9.492 6.845z" fill="#fff"/><path d="M523.517 254.65l-8.481 7.326 9.492 6.845.925-.917c.947-4.2 1.425-8.132 1.434-11.794l-2.62-1.529a.647.647 0 00-.75.069z" fill="#000" fill-opacity=".169"/><path d="M514.956 260.457l4.769 1.725a2.874 2.874 0 003.107-.773c.539-.595-.159-1.499-.879-1.146a8.694 8.694 0 01-.415.194c-.483.196-1.134-.887-1.134-.887l3.479-1.108c.799-.255 1.18-1.164.762-1.892-.471-.818-1.058-1.739-1.447-1.998-.616-.412-4.144-.139-5.319-.035-.25.022-.486.115-.686.267l-3.77 2.862 1.533 2.791z" fill="#FFAF8A"/><path d="M500.717 250.07l-7.852 1.496c-.29.055-.543.226-.702.47l-.055.095-8.241 15.958a5.68 5.68 0 00.399 5.869 2.873 2.873 0 004.272.485l.122-.117 4.914-5.09.493 8.817c.736 3.192.483 6.53-.721 9.571l-.138.337s-1.72 6.057-2.467 10.845c-.747 4.788.573 36.827.573 36.827l.51 21.593a1.08 1.08 0 001.041 1.054l.709.02c1.029.023 1.707.002 2.036-.063 1.14-.224 1.988-.975 2.52-1.261l.109-.053c.945-.415 1.719-7.357 2.321-20.828l.02-.462s1.598-27.052 1.678-26.89l5.069 30.937 3.566 24.123a1.8 1.8 0 002.263 1.47l.536-.151c1.898-.545 3.067-.97 3.509-1.277.575-.398 1.314-1.564 2.219-3.496a1.82 1.82 0 00.165-.63l.004-.164-.354-20.52s-3.651-42.51-3.87-48.087c-.239-6.057.493-11.084 2.196-15.079l.163-.372 5.26 8.453a4.318 4.318 0 003.473 2.032l.194.005h1.315a3.195 3.195 0 003.178-3.515l-.02-.158-2.424-16.002-3.886 3.839-4.339-11.355a1.084 1.084 0 00-.335-.458l-.094-.067-9.689-6.17c-3.379.494-5.83.494-7.354 0-1.458-.472-2.218-1.112-2.282-1.92l-.004-.111z" fill="#380085"/><path d="M494.215 284.592l.379.074a1.781 1.781 0 00.803-3.468l-.124-.029-.807-.157c.05 1.199-.035 2.4-.251 3.58zm-.843 3.757l-.164.404c-.266.873-.518 1.719-.753 2.537 2.235.784 4.604 1.317 7.106 1.599 3.929.442 9.213.378 15.851-.19l-.04-.797-.007-.162a54.315 54.315 0 01-.044-2.15l-.379.038-.177.015c-6.113.496-11.284.309-14.719 0a33.12 33.12 0 01-6.674-1.294zm22.397-5.946l-3.211.002a1.781 1.781 0 00-.122 3.557l.122.005 2.842-.001c.073-1.241.196-2.428.369-3.563zm-17.101-31.942l-3.711.707c-.215 4.605 2.387 7.614 7.612 8.505 5.309.906 9.719-.533 13.027-4.237l-3.054-1.942c-2.445 2.496-5.547 3.424-9.374 2.668-2.59-.511-4.765-2.285-4.5-5.701z" fill="#733DFF"/><path d="M493.556 263.213l-5.631 11.652a2.85 2.85 0 00.613-.422l.122-.117 4.897-5.072-.001-6.041zm33.1 5.152l-1.842 1.786 2.816 8.063-.974-9.849zm-11.079 1.01a.36.36 0 00-.221.336l.128 12.108c.003.269.103.513.268.701.365-2.449.962-4.651 1.791-6.607l.181-.416 2.382 3.827-4.058-9.755a.361.361 0 00-.471-.194z" fill="#000" fill-opacity=".275"/><path d="M516.531 234.227c.473 1.203-.426 3.088-.821 5.067-.23 1.153.072 2.099 0 2.398-.039.162-1.419-.348-1.639-.969-.267-.757.239-2.645 0-2.658-2.589-.144-1.365 4.462-6.457 9.455-1.756 1.722-6.646.645-6.646.645s-2.675-3.753-2.945-7.63c-.64-9.174 8.307-11.61 9.905-9.656 3.103-2.19 7.45.414 8.603 3.348z" fill="#0D134E"/><path d="M499.409 236.189h.475a2.374 2.374 0 010 4.749h-.475v-4.749z" fill="#5C66C0"/><path d="M500.53 239.792c-2.682 1.425-4.424 4.21-3.725 7.166a24.325 24.325 0 001.186 3.681c1.919 4.639-1.048 15.063-1.048 15.063s-1.702-7.009-3.646-9.105c-1.943-2.096-2.994-4.245-3.903-7.704-.252-.96-.485-3.154-.691-5.823-.495-6.417 7.086-9.972 11.877-5.675 0 0 .76.282.76 1.183 0 .9-.81 1.214-.81 1.214z" fill="#0D134E"/><path d="M542.255 165.352a1.267 1.267 0 00-1.244-.003l-1.875 1.05-5.745 65.396c-.041.465.178.915.569 1.171l41.817 27.364 2.263-1.343c.341-.203.567-.553.612-.947l7.584-66.87a1.265 1.265 0 00-.634-1.245l-43.347-24.573z" fill="#733DFF"/><path d="M555.284 226.456l18.26 104.829m-18.987-105.577l-21.7 83.102m20.49-77.638l32.984 68.831" stroke="#512BB5" stroke-width="4.4" stroke-linecap="round"/><path d="M540.191 166.931a.95.95 0 00-1.42.719l-7.365 66.436a.952.952 0 00.471.928l43.01 24.726a.951.951 0 001.419-.72l7.295-66.345a.95.95 0 00-.469-.926l-42.941-24.818z" fill="#F8FCFF" stroke="#D0D4FF" stroke-width=".634"/><path d="M568.809 227.135a2.287 2.287 0 00-1.125-2.283l-23.622-13.591a1.018 1.018 0 00-1.516.75l-2.244 17.105a2.282 2.282 0 001.129 2.279l23.588 13.51a1.018 1.018 0 001.514-.748l2.276-17.022z" fill="#9286FF" fill-opacity=".193" stroke="#B399FF" stroke-width=".5"/><path d="M562.056 238.371v-.02l.004-.02 1.67-10.271a.587.587 0 00-1.174.019v.02l-.003.02-1.67 10.271a.586.586 0 001.173-.019zm-3.348-1.674v-.018l.003-.019 1.055-7.012a.587.587 0 00-.587-.57c-.182 0-.259.041-.321.109-.082.089-.159.246-.272.542l-1.051 6.985a.586.586 0 001.173-.017zm-3.348-1.674v-.022l.004-.021 1.511-8.455a.587.587 0 00-.587-.567.606.606 0 00-.426.162c-.117.108-.22.28-.286.531l-1.389 8.391a.587.587 0 001.173-.019zm-10.043-6.695v-.021l.003-.019 1.353-8.345a.587.587 0 00-1.174.019v.02l-.003.02-1.353 8.344a.588.588 0 001.174-.018zm3.355 1.607l1.152-6.997a.648.648 0 00-.134-.409.425.425 0 00-.346-.152c-.206 0-.306.032-.385.099-.091.076-.19.226-.316.548l-1.152 6.997c.003.192.044.319.102.393.05.066.134.12.301.12.209 0 .341-.031.447-.104.105-.073.217-.211.331-.495zm3.34 2.577v-.024l.005-.024 1.85-9.283a.587.587 0 00-1.174.023v.024l-.005.025-1.849 9.282a.586.586 0 001.173-.023z" fill="#ED7F3F" stroke="#FF623F" stroke-width=".5"/><path d="M573.071 201.173a2.286 2.286 0 00-1.125-2.283l-23.622-13.59a1.016 1.016 0 00-1.515.749l-2.245 17.105a2.282 2.282 0 001.129 2.279l23.588 13.51a1.017 1.017 0 001.514-.748l2.276-17.022z" fill="#9286FF" fill-opacity=".193" stroke="#B399FF" stroke-width=".5"/><path d="M559.868 206.665c.162 1.546.789 2.886 1.66 3.805.871.918 1.974 1.406 3.104 1.287 1.13-.119 2.108-.825 2.769-1.904.661-1.08.995-2.521.833-4.068-.163-1.546-.79-2.886-1.661-3.805-.87-.918-1.974-1.406-3.104-1.287-1.13.119-2.108.825-2.768 1.905-.661 1.079-.996 2.52-.833 4.067z" fill="#ED7F3F" stroke="#FF623F" stroke-width=".5"/><path d="M551.47 195.959c.571 1.411 1.902 2.096 2.919 1.685 1.017-.41 1.499-1.829.929-3.24-.57-1.411-1.902-2.096-2.919-1.685-1.017.411-1.499 1.829-.929 3.24zm3.418 8.549c.332.823 1.069 1.179 1.585.971.515-.208.798-.977.466-1.799-.332-.823-1.07-1.179-1.585-.971-.516.208-.799.977-.466 1.799z" fill="#9286FF" fill-opacity=".193" stroke="#B399FF" stroke-width=".5"/><path d="M549.075 201.408c.332.823 1.07 1.179 1.585.971.516-.208.799-.977.466-1.799-.332-.823-1.069-1.179-1.585-.971-.516.208-.798.977-.466 1.799z" fill="#FF623F" stroke="#F8458D" stroke-width=".5"/><mask id="b" fill="#fff"><path d="M554.116 197.883l1.168 4.636-1.168-4.636z"/></mask><path d="M554.116 197.883l1.168 4.636-1.168-4.636z" fill="#9286FF" fill-opacity=".193"/><path d="M554.601 197.761l1.168 4.636-.97.244-1.168-4.636.97-.244z" fill="#B399FF" mask="url(#b)"/><mask id="c" fill="#fff"><path d="M551.355 201.733l3.213 2.125-3.213-2.125z"/></mask><path d="M551.355 201.733l3.213 2.125-3.213-2.125z" fill="#9286FF" fill-opacity=".193"/><path d="M551.631 201.316l3.213 2.125-.552.834-3.213-2.125.552-.834z" fill="#B399FF" mask="url(#c)"/><path d="M567.161 255.54l-2.747 1.021-25.571-14.424.778-4.56a.88.88 0 011.303-.617l24.132 13.756a.88.88 0 01.439.859l-.314 2.894 1.98 1.071z" fill="#733DFF"/><path d="M553.224 169.489a.255.255 0 00-.24-.002l-3.082 1.624.468 4.871a.255.255 0 00.128.197l19.263 10.838.938-.516v-2.455l2.335-1.187v-2.406a.255.255 0 00-.132-.223l-19.678-10.741z" fill="#512BB5"/><path d="M550.277 171.313a.253.253 0 00-.373.224l.014 4.736c0 .093.052.179.134.223l19.46 10.449a.253.253 0 00.373-.225l-.027-4.716a.256.256 0 00-.133-.222l-19.448-10.469z" fill="#733DFF"/><path d="M81 468.4V487h-.016c-.5 9.663-13.062 17.4-28.484 17.4-15.422 0-27.983-7.737-28.485-17.4H24v-18.6h57z" fill="#F8FCFF"/><path d="M81 468.4V487h-.016c-.413 7.969-9.027 14.627-20.683 16.717l-.859-35.317H81z" fill="#D6D9FB"/><path d="M52.5 487c15.74 0 28.5-8.059 28.5-18s-12.76-18-28.5-18S24 459.059 24 469s12.76 18 28.5 18z" fill="#D6D9FB"/><path d="M52.2 481c11.267 0 20.4-5.776 20.4-12.9 0-7.125-9.133-12.9-20.4-12.9s-20.4 5.775-20.4 12.9c0 7.124 9.133 12.9 20.4 12.9z" fill="#1B215B"/><path d="M51.5 468.5s.301-18.498-4.463-43.045c-4.765-24.547-12.143-38.86-12.143-38.86s6.997 33.335 8.312 42.287c1.315 8.952 5.1 39.518 5.1 39.518l3.194.1z" fill="#733DFF"/><path d="M44.999 416.249l-.032-.457a245.99 245.99 0 012.07 9.663c3.1 15.975 4.592 30.028 4.474 42.161l-.011.884-1.788-.055-.138-.78c-.828-4.897-1.738-13.679-2.732-26.346l-.564-7.424c-.28-3.753-.575-7.788-.884-12.104l-.427-5.999.032.457z" fill="#000" fill-opacity=".275"/><path d="M56.24 468s-.967-3.322 1.966-17.857C61.139 435.609 64 431 64 431s-1.845 8.241-2.654 13.542c-.81 5.3-3.14 23.399-3.14 23.399L56.24 468z" fill="#733DFF"/><path d="M57.159 467.971l-.92.029c-.644-2.215.011-8.167 1.967-17.857l.307-1.494c.766-3.668 1.53-6.826 2.288-9.474l-1.51 11.757c-.629 4.963-1.34 10.642-2.132 17.039z" fill="#000" fill-opacity=".275"/><path d="M52.912 468.5s-1.57-5.611 3.194-30.158c4.765-24.547 9.412-32.33 9.412-32.33s-2.997 13.918-4.312 22.87c-1.315 8.952-5.1 39.518-5.1 39.518l-3.194.1zm-5.152-.5s.967-3.322-1.966-17.857c-2.933-14.534-8.117-27.944-8.117-27.944s4.168 17.042 4.977 22.343c.81 5.3 3.14 23.399 3.14 23.399l1.966.059z" fill="#733DFF"/><path d="M49.912 468.5s.699-39.498 5.464-64.045c4.764-24.547 12.142-38.86 12.142-38.86s-6.997 33.335-8.312 42.287c-1.315 8.952-6.1 60.518-6.1 60.518l-3.194.1z" fill="#733DFF"/><path d="M54.168 438.142l.032.298c.357 3.388.585 7.05.686 10.989l-.855 9.057a9004.16 9004.16 0 00-.925 9.914l-1.394.045-.105-.592c-.44-2.553-.903-6.207-1.39-10.963.414-11.753 1.133-22.387 2.155-31.904l.588 3.972c.564 3.896.967 6.957 1.208 9.184z" fill="#000" fill-opacity=".275"/><path d="M50.817 469s-1.428-7.266-3.197-30.56c-1.77-23.294-4.414-63.041-4.414-63.041s8.671 50.481 9.994 63.041c1.323 12.56.3 30.166.3 30.166l-2.683.394z" fill="#733DFF"/><path d="M72.1 354.1c0 3.33-2.136 6.419-5.742 8.699-3.6 2.277-8.605 3.701-14.158 3.701-5.553 0-10.558-1.424-14.158-3.701-3.606-2.28-5.742-5.369-5.742-8.699 0-3.331 2.136-6.419 5.742-8.699 3.6-2.277 8.605-3.701 14.158-3.701 5.553 0 10.558 1.424 14.158 3.701 3.606 2.28 5.742 5.368 5.742 8.699z" fill="#9286FF" fill-opacity=".193" stroke="#ECEAFE"/><path d="M52.2 340.5c6.15 0 11.7 1.558 15.724 4.059 4.03 2.503 6.47 5.906 6.573 9.595v.004l.003.242v114.2c-.086 3.699-2.518 7.113-6.55 9.625-4.026 2.51-9.588 4.075-15.75 4.075-6.082 0-11.58-1.524-15.593-3.978-4.016-2.454-6.487-5.794-6.693-9.425L29.9 354.403l.004-.249c.103-3.689 2.542-7.091 6.571-9.595 4.025-2.501 9.576-4.059 15.725-4.059z" fill="#9286FF" fill-opacity=".193" stroke="#ECEAFE"/><defs><linearGradient id="paint0_linear" x1="-712.31" y1="124.094" x2="-594.112" y2="833.62" gradientUnits="userSpaceOnUse"><stop stop-color="#A8A8A8"/><stop offset="1" stop-color="#F6F6F6"/></linearGradient><linearGradient id="paint1_linear" x1="338.801" y1="421.495" x2="259.735" y2="426.838" gradientUnits="userSpaceOnUse"><stop stop-color="#F5F6F9"/><stop offset="1" stop-color="#E4E7EC"/></linearGradient><linearGradient id="paint2_linear" x1="281.812" y1="454.739" x2="202.746" y2="460.082" gradientUnits="userSpaceOnUse"><stop stop-color="#F5F6F9"/><stop offset="1" stop-color="#E4E7EC"/></linearGradient><linearGradient id="paint3_linear" x1="251.913" y1="458.341" x2="212.225" y2="460.258" gradientUnits="userSpaceOnUse"><stop stop-color="#F5F6F9"/><stop offset="1" stop-color="#E4E7EC"/></linearGradient><linearGradient id="paint4_linear" x1="395.79" y1="454.739" x2="316.724" y2="460.082" gradientUnits="userSpaceOnUse"><stop stop-color="#F5F6F9"/><stop offset="1" stop-color="#E4E7EC"/></linearGradient><linearGradient id="paint5_linear" x1="338.801" y1="487.983" x2="259.735" y2="493.326" gradientUnits="userSpaceOnUse"><stop stop-color="#F5F6F9"/><stop offset="1" stop-color="#E4E7EC"/></linearGradient><linearGradient id="paint6_linear" x1="308.902" y1="491.585" x2="269.214" y2="493.502" gradientUnits="userSpaceOnUse"><stop stop-color="#F5F6F9"/><stop offset="1" stop-color="#E4E7EC"/></linearGradient></defs></svg>