<svg width="16" height="16" fill="none" xmlns="http://www.w3.org/2000/svg"><path d="M13 9a1 1 0 000 2h3V9h-3z" fill="#333"/><path d="M13 8h2V5.5c0-.28-.22-.5-.5-.5h-1V3.5c0-.28-.22-.5-.5-.5h-1.19l-.86-1.72a.506.506 0 00-.67-.23l-1.16.58-.17-.35a.506.506 0 00-.67-.23L4.38 3H1.5C.67 3 0 3.67 0 4.5v9c0 .83.67 1.5 1.5 1.5h13c.28 0 .5-.22.5-.5V12h-2c-1.1 0-2-.9-2-2s.9-2 2-2zm-.5-4v.38L12.31 4h.19zm-11.47.67A.495.495 0 011.5 4h.88l-1.35.67zM2.62 5l5.66-2.83L9.69 5H2.62zm8.19 0L9.57 2.52l.71-.35L11.69 5h-.88z" fill="#333"/></svg>