<svg width="504" height="325" viewBox="0 0 504 325" fill="none" xmlns="http://www.w3.org/2000/svg">
<path fill-rule="evenodd" clip-rule="evenodd" d="M332.153 107.725C332.153 126.162 330.174 142.137 326.216 155.651C322.259 169.165 316.781 180.362 309.782 189.243C302.784 198.124 294.483 204.736 284.878 209.08C275.274 213.423 264.873 215.595 253.676 215.595C242.478 215.595 232.126 213.423 222.618 209.08C213.11 204.736 204.881 198.124 197.931 189.243C190.981 180.362 185.551 169.165 181.642 155.651C177.732 142.137 175.777 126.162 175.777 107.725C175.777 89.2883 177.732 73.313 181.642 59.7991C185.551 46.2851 190.981 35.088 197.931 26.2073C204.881 17.3267 213.11 10.7388 222.618 6.44324C232.126 2.14773 242.478 0 253.676 0C264.873 0 275.274 2.14773 284.878 6.44324C294.483 10.7388 302.784 17.3267 309.782 26.2073C316.781 35.088 322.259 46.2851 326.216 59.7991C330.174 73.313 332.153 89.2883 332.153 107.725ZM162.167 131.326H140.448V2.31667H97.5898L0 133.498L4.63334 155.651C5.21251 158.258 6.63628 160.429 8.9047 162.167C11.1731 163.904 13.707 164.773 16.5063 164.773H101.354V213.278H140.448V164.773H153.479C156.279 164.773 158.426 163.953 159.923 162.312C161.419 160.671 162.167 158.74 162.167 156.52V131.326ZM101.716 65.3736C101.475 69.283 101.354 72.9269 101.354 76.3054V131.326H47.0575L102.802 53.2835C102.32 57.4342 101.958 61.4642 101.716 65.3736ZM285.816 106.276L285.819 107.725C285.819 122.398 284.902 134.367 283.068 143.634C281.234 152.9 278.797 160.212 275.756 165.57C272.716 170.927 269.265 174.595 265.404 176.574C261.542 178.553 257.633 179.542 253.675 179.542C249.718 179.542 245.833 178.553 242.02 176.574C238.207 174.595 234.828 170.927 231.884 165.57C228.94 160.212 226.575 152.9 224.789 143.634L224.702 143.176C222.975 133.974 222.111 122.157 222.111 107.725L222.112 106.999C222.141 92.752 223.033 81.0489 224.789 71.8892C226.575 62.5742 228.94 55.2623 231.884 49.9532C234.828 44.6442 238.207 41.0003 242.02 39.0214C245.833 37.0426 249.718 36.0532 253.675 36.0532C257.633 36.0532 261.542 37.0426 265.404 39.0214C269.265 41.0003 272.716 44.6442 275.756 49.9532C278.797 55.2623 281.234 62.5742 283.068 71.8892C284.841 80.8937 285.757 92.356 285.816 106.276ZM482.157 2.31667V131.326H503.876V156.52C503.876 158.74 503.128 160.671 501.632 162.312C500.135 163.953 497.988 164.773 495.188 164.773H482.157V213.278H443.063V164.773H358.215C355.416 164.773 352.882 163.904 350.614 162.167C348.345 160.429 346.921 158.258 346.342 155.651L341.709 133.498L439.299 2.31667H482.157ZM388.766 131.326L444.511 53.2835L444.383 54.4125C443.964 58.1659 443.645 61.8196 443.425 65.3736C443.184 69.283 443.063 72.9269 443.063 76.3054V131.326H388.766Z" fill="url(#paint0_linear)"/>
<path d="M394.697 112.055C394.697 112.055 390.556 127.075 378.621 122.517C366.686 117.959 349.37 109.741 342.088 120.106C334.805 130.472 355.426 136.02 346.742 144.56C338.057 153.1 323.402 134.352 307.279 136.811C291.155 139.271 271.077 174.794 271.077 174.794C271.077 174.794 222.427 159.782 206.992 174.794C191.556 189.805 204.853 211.65 192.643 218.865C180.433 226.079 137.261 226.786 150.425 257.339C172.191 307.857 140 325 140 325C140 325 206.992 313.524 201.604 280.334C198.343 260.242 210.345 249.585 224.568 249.585C238.791 249.585 254.474 264.434 269.154 258.42C283.833 252.406 273.301 221.076 299.511 219.97C325.722 218.865 309.031 176.991 334.805 179.076C360.579 181.161 394.905 176.408 382.812 153.1C370.719 129.791 385.201 135.366 394.749 132.919C404.297 130.472 394.697 112.055 394.697 112.055Z" fill="#9286FF" fill-opacity="0.193018"/>
<path d="M310.47 100.862C333.607 103.862 341.635 125.813 320.341 125.813C314.026 125.813 302.384 119.779 292.792 122.739C270.042 129.759 252.362 148.823 257.227 134.614C265.287 111.073 287.333 97.8631 310.47 100.862Z" fill="#9286FF" fill-opacity="0.193018"/>
<path fill-rule="evenodd" clip-rule="evenodd" d="M168.903 185.635C168.131 185.882 166.649 186.666 164.583 188.102C159.111 191.907 151.533 200.178 150.745 202.025C149.981 203.812 150.605 205.351 152.401 205.351C154.198 205.351 155.275 204.873 156.352 205.703C157.429 206.534 157.164 209.338 158.511 210.142C159.858 210.946 163.144 211.202 166.023 208.452C168.903 205.703 173.249 199.869 174.249 197.891C175.249 195.913 175.4 195.036 174.65 194.548C173.899 194.059 171.711 195.323 171.139 194.548C170.566 193.773 173.249 188.481 173.249 186.666C173.249 184.851 171.386 184.842 168.903 185.635Z" fill="#4C0C68"/>
<path fill-rule="evenodd" clip-rule="evenodd" d="M167.881 187.502C169.337 189.251 162.879 192.77 164.764 196.687C165.947 199.144 166.639 204.868 165.644 208.794C162.861 211.178 159.8 210.91 158.512 210.141C157.165 209.338 157.429 206.534 156.352 205.703C156.28 205.648 156.208 205.598 156.136 205.554C156.211 205.349 156.292 205.137 156.382 204.921L157.053 203.358C159.163 198.417 159.865 195.966 157.538 195.966L155.745 195.966C158.452 193.147 161.792 190.043 164.583 188.102C165.357 187.564 166.049 187.118 166.652 186.757C167.197 186.924 167.606 187.173 167.881 187.502Z" fill="#5A256C"/>
<path fill-rule="evenodd" clip-rule="evenodd" d="M173.468 194.516L173.595 194.492C174.027 194.415 174.411 194.393 174.65 194.548C175.4 195.036 175.249 195.914 174.249 197.891C173.249 199.869 168.903 205.703 166.024 208.453C163.144 211.202 159.859 210.946 158.512 210.142C158.382 210.065 158.268 209.969 158.165 209.858C160.131 209.684 161.667 209.379 162.774 208.947C165.233 207.985 169.152 202.882 171.54 199.662C172.696 198.104 173.338 196.389 173.468 194.516L173.595 194.492L173.468 194.516Z" fill="#2F0251"/>
<path fill-rule="evenodd" clip-rule="evenodd" d="M286.287 243.607C287.613 242.529 288.656 238.714 290.3 238.714C291.943 238.714 298.595 230.704 302.053 230.704C305.51 230.704 306.742 231.755 309.229 231.755C311.717 231.755 312.822 231.933 314.776 231.318C316.73 230.704 324.749 229.434 326.657 231.004C328.566 232.573 327.397 233.521 328.831 234.418C330.265 235.315 333.752 236.058 332.847 238.274C331.941 240.49 326.114 241.815 323.777 244.437C321.439 247.059 321.894 248.137 319.447 249.763C317 251.39 314.255 252.908 312.34 252.908C310.424 252.908 306.231 250.806 303.687 250.806C301.142 250.806 295.647 253.953 292.143 253.745C288.638 253.536 283.472 250.233 283.472 247.137C283.472 244.041 284.96 244.684 286.287 243.607Z" fill="#4C0C68"/>
<path fill-rule="evenodd" clip-rule="evenodd" d="M320.188 230.39L320.342 230.375C318.611 233.18 314.071 237.976 311.09 239.329C307.153 241.117 306.996 240.103 302.676 239.329C298.355 238.555 294.185 242.84 292.144 242.002C291.149 241.593 290.247 240.616 289.439 239.072C289.671 238.878 289.913 238.754 290.17 238.722L290.3 238.714C291.943 238.714 298.595 230.704 302.053 230.704C305.511 230.704 306.742 231.755 309.23 231.755L310.011 231.761C311.851 231.783 312.903 231.855 314.458 231.414L314.776 231.318C315.637 231.048 317.672 230.65 319.845 230.424L320.342 230.375L320.188 230.39Z" fill="#5A256C"/>
<path fill-rule="evenodd" clip-rule="evenodd" d="M332.847 238.274C331.941 240.49 326.114 241.815 323.777 244.437C321.439 247.059 321.894 248.136 319.447 249.763C317 251.39 314.255 252.907 312.34 252.907C310.424 252.907 306.232 250.806 303.687 250.806C303.179 250.806 302.554 250.931 301.852 251.13C302.996 250.1 303.958 249.361 304.739 248.912C307.252 247.468 313.054 249.213 315.015 248.156C316.977 247.1 317.383 242.002 321.44 238.941C323.43 237.441 326.893 236.435 331.832 235.923C332.706 236.489 333.28 237.212 332.847 238.274Z" fill="#2F0251"/>
<path fill-rule="evenodd" clip-rule="evenodd" d="M212.237 117.959C213.21 122.517 220.996 118.708 222.094 120.903C223.192 123.098 222.131 124.579 225.368 125.621C228.605 126.664 229.638 123.095 232.937 123.529C236.236 123.963 238.022 125.082 239.822 121.886C241.622 118.691 236.646 116.253 236.646 114.82C236.646 113.387 237.444 109.826 235.242 108.842C233.041 107.857 232.093 107.744 226.226 109.826C220.358 111.909 211.264 113.401 212.237 117.959Z" fill="#4C0C68"/>
<path fill-rule="evenodd" clip-rule="evenodd" d="M225.915 109.935L226.934 109.577C232.174 107.755 233.132 107.898 235.242 108.842C235.727 109.059 236.067 109.401 236.301 109.817C235.062 109.424 233.642 109.383 232.039 109.696L231.818 109.742C229.564 110.243 223.067 112.45 212.326 116.363C213.498 113.079 220.803 111.7 225.915 109.935Z" fill="#5A256C"/>
<path fill-rule="evenodd" clip-rule="evenodd" d="M236.784 112.004L236.787 112.207C236.789 113.221 236.646 114.212 236.646 114.82C236.646 115.038 236.76 115.279 236.949 115.542C235.686 115.48 234.833 115.712 234.392 116.239C232.952 117.959 234.681 119.388 233.816 121.494C233.6 122.02 233.2 122.688 232.614 123.498C229.566 123.329 228.497 126.629 225.368 125.621C222.967 124.848 222.931 123.833 222.624 122.465C223.957 122.299 224.945 121.976 225.59 121.494C227.447 120.106 227.02 113.727 230.599 112.354C232.263 111.716 234.324 111.599 236.784 112.004Z" fill="#2F0251"/>
<path fill-rule="evenodd" clip-rule="evenodd" d="M364.78 129.958C368.644 129.958 367.278 133.738 369.489 133.738C371.7 133.738 374.593 132.776 374.593 135.766C374.593 138.757 372.77 141.822 368.542 141.822C364.313 141.822 365.696 140.516 363.561 139.272C361.427 138.027 358.887 138.419 358.782 135.89C358.678 133.36 360.916 129.958 364.78 129.958Z" fill="#5A256C"/>
<path fill-rule="evenodd" clip-rule="evenodd" d="M364.78 129.958C368.644 129.958 367.278 133.738 369.489 133.738C371.699 133.738 374.593 132.776 374.593 135.766C374.593 135.963 374.585 136.16 374.569 136.357C373.402 138.3 372.101 139.271 370.667 139.271C367.731 139.271 367.32 136.541 365.777 135.29C364.234 134.04 361.833 135.89 360.766 133.736C360.329 132.853 360.656 131.863 361.749 130.768C362.599 130.266 363.616 129.958 364.78 129.958Z" fill="#2F0251"/>
<path fill-rule="evenodd" clip-rule="evenodd" d="M258.047 299.95C257.48 300.659 255.387 308.116 252.513 308.701C249.638 309.286 243.041 308.681 243.041 306.529C243.041 304.377 245.569 301.235 243.846 299.95C242.122 298.665 244.508 296.708 244.508 296.708C244.508 296.708 243.041 295.899 243.846 294.479C244.651 293.059 252.683 284.799 254.156 285.564C255.63 286.329 254.969 288.981 254.969 288.981C254.969 288.981 259.412 289.211 259.849 290.465C260.286 291.719 259.888 292.644 260.477 294.136C261.067 295.629 261.962 298.056 260.905 298.777C259.849 299.497 258.614 299.241 258.047 299.95Z" fill="#4C0C68"/>
<path fill-rule="evenodd" clip-rule="evenodd" d="M245.887 296.878C246.759 297.101 246.946 298.485 246.446 301.03C245.998 299.883 245.58 299.058 245.195 298.556C244.938 298.22 244.533 297.817 243.98 297.347L243.891 297.273C244.067 297.09 244.272 296.901 244.508 296.708L244.368 296.625C244.898 296.67 245.404 296.754 245.887 296.878Z" fill="#5A256C"/>
<path fill-rule="evenodd" clip-rule="evenodd" d="M254.969 288.981C255.797 289.024 256.521 289.093 257.141 289.19L256.82 295.243C255.37 293.722 254.515 292.569 254.255 291.784C254.062 291.201 254.311 290.218 255.003 288.834L254.969 288.981Z" fill="#2F0251"/>
<path fill-rule="evenodd" clip-rule="evenodd" d="M252.513 308.701C250.96 309.017 248.32 308.986 246.221 308.551C247.821 307.469 251.324 306.176 252.218 305.838C253.484 305.359 252.733 302.515 253.169 301.335C253.416 300.665 255.022 300.233 257.987 300.04C257.347 301.123 255.297 308.134 252.513 308.701Z" fill="#2F0251"/>
<path fill-rule="evenodd" clip-rule="evenodd" d="M145.148 250.309C146.45 247.913 150.028 246.444 152.78 247.725C155.531 249.007 155.168 253.885 153.431 253.885C151.694 253.885 151.219 252.741 149.795 253.188C148.372 253.635 147.045 254.135 145.75 253.885C144.455 253.635 143.845 252.704 145.148 250.309Z" fill="#4C0C68"/>
<path fill-rule="evenodd" clip-rule="evenodd" d="M150.603 247.739C150.997 248.162 150.582 250.025 149.356 253.327L148.78 253.51C147.732 253.833 146.732 254.075 145.75 253.885C144.455 253.635 143.845 252.705 145.147 250.309C145.99 248.758 147.785 247.596 149.693 247.316C150.127 247.413 150.43 247.553 150.603 247.739Z" fill="#5A256C"/>
<path fill-rule="evenodd" clip-rule="evenodd" d="M163.439 287.805C161.775 288.802 163.534 291.703 164.582 292.354C165.63 293.004 168.781 294.364 170.188 295.639C171.595 296.914 173.51 294.248 175.123 294.248C176.736 294.248 182.551 295.137 183.982 293.745C185.413 292.354 185.017 291.779 183.496 290.91C181.975 290.041 176.386 288.228 173.041 287.518C169.695 286.809 165.103 286.809 163.439 287.805Z" fill="#4C0C68"/>
<path fill-rule="evenodd" clip-rule="evenodd" d="M164.001 287.544L164.22 287.469C166.267 286.821 170.127 286.9 173.041 287.518C175.125 287.961 178.082 288.831 180.382 289.635C180.073 290.086 179.351 290.423 178.214 290.644C174.581 291.352 165.275 288.82 164.362 288.055C164.197 287.917 164.077 287.746 164.001 287.544L164.22 287.469L164.001 287.544Z" fill="#5A256C"/>
<path fill-rule="evenodd" clip-rule="evenodd" d="M183.78 291.174L183.793 291.085L184.049 291.249C185.09 291.949 185.219 292.542 183.982 293.745C182.551 295.136 176.735 294.247 175.123 294.247C174.8 294.247 174.465 294.354 174.125 294.515C174.95 293.494 175.919 292.984 177.03 292.984C179.364 292.984 182.877 293.84 183.449 292.375C183.602 291.984 183.712 291.584 183.78 291.174Z" fill="#2F0251"/>
<path d="M307.198 179.244C307.198 179.244 287.563 213.533 283.229 214.443C278.896 215.353 253.812 202.68 253.812 202.68L285.163 156.68L307.198 179.244Z" fill="#959FFA"/>
<path d="M264.735 203.331L281.81 208.722L283.627 214.304C283.485 214.371 283.353 214.417 283.229 214.443C280.88 214.936 273.96 212.436 262.467 206.944L264.735 203.331Z" fill="#2E3461"/>
<path d="M304.562 183.954L303.619 183.721C302.131 183.353 300.581 183.957 299.741 185.239C295.712 191.385 284.24 208.756 282.742 209.587C279.584 211.339 249.404 196.322 249.404 196.322L271.372 159.616L308.635 178.348L304.562 183.954Z" fill="#4B517F"/>
<path d="M166.068 234.703C166.846 233.068 169.505 231.505 172.348 232.208C175.191 232.912 178.21 237.536 179.527 238.19C180.844 238.843 182.276 238.843 183.966 237.257C185.655 235.671 184.259 233.983 186.337 232.208C188.414 230.434 210.461 208.97 213.963 206.338C217.464 203.707 240.804 185.014 243.351 184.537C245.897 184.06 246.532 184.406 247.737 182.843C248.941 181.279 247.397 178.679 249.017 176.515C250.636 174.351 262.568 159.616 262.568 159.616C262.568 159.616 247.663 164.904 243.351 164.266C239.038 163.629 221.98 156.987 220.846 155.683C219.713 154.379 219.553 153.542 219.553 153.542C219.553 153.542 210.971 152.056 209.869 151.552C209.35 151.315 207.725 150.727 206.277 150.512C204.649 150.269 202.913 148.549 202.913 147.915C202.913 147.362 205.744 148.571 206.533 148.571C207.449 148.571 209.869 148.682 209.869 148.682C209.869 148.682 207.06 147.958 206.037 147.646C203.519 146.879 201.89 145.726 202.126 144.926C202.363 144.126 203.653 145.397 206.533 145.717C207.44 145.818 209.448 145.966 209.448 145.966C209.448 145.966 206.259 144.739 205.066 144.21C202.218 142.947 200.892 142.004 201.09 141.38C201.296 140.726 202.803 141.3 205.744 142.37C206.785 142.748 209.448 143.464 209.448 143.464C209.448 143.464 206.953 142.071 206.037 141.49C203.961 140.173 203.019 139.25 203.213 138.721C203.448 138.077 207.746 139.992 207.746 139.992C207.746 139.992 210.979 141.237 211.339 141.38C212.162 141.707 215.622 142.841 215.622 142.841C215.622 142.841 216.282 141.683 215.357 140.264C214.432 138.845 213.152 137.183 213.558 136.559C213.963 135.935 218.489 138.902 219.021 139.992C219.553 141.082 220.949 145.044 222.529 145.717C224.109 146.39 224.914 145.717 226.812 145.717C228.71 145.717 241.147 152.054 243.351 151.552C245.554 151.05 267.615 145.966 270.687 145.966C273.758 145.966 288.138 148.818 291.329 150.512C294.521 152.206 305.445 157.074 308.228 161.572C311.011 166.071 315.852 180.097 318.449 181.47C321.045 182.843 320.405 180.686 323.125 182.059C325.845 183.432 333.87 186.925 334.605 189.118C335.34 191.311 335.082 192.851 335.924 192.851C336.767 192.851 337.604 195.114 339.64 192.923C341.677 190.733 344.063 189.755 345.765 189.755C347.468 189.755 352.84 188.468 352.84 189.314C352.84 189.742 352.177 191.41 350.387 191.41C348.597 191.41 346.112 192.444 346.112 192.923C346.112 193.893 349.002 194.934 351.654 194.934C354.306 194.934 359.034 195.725 359.034 196.567C359.034 197.408 351.654 197.438 351.654 197.438C351.654 197.438 355.022 198.198 356.381 198.94C357.739 199.682 360.542 200.66 360.07 201.568C359.599 202.476 354.266 200.982 354.266 200.982L350.387 200.516L354.266 202.405C354.266 202.405 358.07 204.177 357.456 204.958C356.841 205.74 352.84 204.157 352.84 204.157L349.04 202.937C349.04 202.937 352.324 205.546 352.84 205.944C353.357 206.342 355.175 207.488 354.266 208.339C353.357 209.19 347.851 204.614 347.191 204.958C346.531 205.303 343.305 203.609 341.18 202.937C339.055 202.264 335.948 200.526 335.031 200.526C334.114 200.526 333.264 202.501 331.462 202.501C329.659 202.501 313.642 195.95 313.171 194.773C312.7 193.596 312.479 192.284 312.479 192.284L300.279 176.515C300.279 176.515 288.668 194.653 286.972 195.524C285.277 196.395 284.427 196.322 282.72 197.898C281.012 199.474 282.226 201.328 281.619 203.115C281.012 204.902 265.724 230.218 260.699 233.028C255.675 235.838 256.307 239.098 254.91 241.273C253.513 243.448 242.887 264.405 239.551 265.671C236.215 266.937 235.91 266.363 234.275 268.537C232.64 270.711 228.495 283.737 226.119 285.102C223.743 286.466 220.004 285.489 219.021 283.717C218.039 281.945 212.302 264.59 213.963 262.556C216.272 259.728 221.12 261.769 222.529 262.556C223.938 263.342 224.596 264.123 224.931 264.123C225.267 264.123 225.789 263.634 225.789 262.796C225.789 261.959 224.765 258.665 225.789 256.917C226.812 255.169 238.993 230.298 240.401 228.36C241.809 226.422 253.963 204.902 253.963 204.902C253.963 204.902 228.692 219.129 226.812 219.703C224.931 220.276 222.435 220.643 221.373 221.804C220.31 222.966 219.087 227.797 215.622 230.003C212.157 232.208 195.953 243.216 194.07 243.216C192.187 243.216 191.968 243.279 191.083 243.873C190.198 244.468 180.754 255.268 178.586 255.882C176.417 256.497 173.79 256.091 172.348 252.385C170.907 248.679 165.289 236.337 166.068 234.703Z" fill="#733DFF"/>
<path d="M308.228 161.572C310.304 164.928 313.526 173.587 316.106 178.338L309.818 188.846L300.279 176.515L298.714 178.951C291.938 189.46 288.025 194.984 286.972 195.524C285.276 196.395 284.427 196.322 282.72 197.898C281.012 199.474 282.226 201.328 281.619 203.115C281.012 204.902 265.724 230.218 260.699 233.028C255.784 235.777 256.282 238.957 254.998 241.13L254.723 241.581C252.754 244.938 242.766 264.451 239.55 265.671C236.214 266.938 235.91 266.363 234.275 268.537C232.64 270.711 228.495 283.737 226.119 285.102C225.061 285.71 223.732 285.853 222.497 285.668L227.921 276.531C240.197 255.8 247.582 242.938 250.078 237.943L250.244 237.608C254.304 229.325 268.248 211.137 275.991 196.889L276.297 196.322C283.972 181.993 295.74 172.862 297.614 169.677C299.487 166.491 300.123 161.002 300.123 159.235C300.123 158.137 298.607 157.019 295.576 155.882L294.903 155.638L296.374 153.062L297.163 153.474C301.427 155.72 306.464 158.72 308.228 161.572Z" fill="black" fill-opacity="0.275213"/>
<path d="M286.203 149.045L282.203 153.313L282.203 154.848L289.588 158.283L296.022 155.268C296.022 155.268 293.104 152.207 291.374 151.11C289.644 150.013 286.203 149.045 286.203 149.045Z" fill="#959FFA"/>
<path d="M287.189 149.036C287.189 149.036 288.605 147.416 288.605 146.595C288.605 145.774 287.614 143.397 287.897 141.778C288.18 140.159 288.45 137.092 290.142 134.937C291.834 132.782 295.115 129.2 295.115 129.2C295.115 129.2 300.997 128.542 303.935 130.489C306.874 132.437 309.552 136.095 309.151 139.435C308.749 142.776 307.105 146.458 304.484 147.96C301.864 149.461 300.188 149.624 298.575 151.29C296.962 152.957 296.021 154.226 296.021 154.226C296.021 154.226 293.116 151.767 291.405 150.762C289.695 149.757 287.189 149.036 287.189 149.036Z" fill="#FFAF8A"/>
<path d="M309.024 140.277C308.468 143.375 306.886 146.583 304.484 147.96C301.864 149.461 300.188 149.624 298.575 151.29C297.5 152.401 296.649 153.379 296.021 154.226C295.639 153.902 295.273 153.598 294.922 153.312C294.413 152.9 293.938 152.526 293.495 152.191C293.448 152.155 293.401 152.12 293.355 152.086L293.107 151.902C292.465 151.431 291.898 151.051 291.405 150.762C290.911 150.471 290.368 150.199 289.775 149.944C289.174 149.425 288.534 148.848 287.853 148.215C288.355 147.533 288.605 146.993 288.605 146.595C288.605 146.033 288.141 144.742 287.938 143.464C289.131 142.819 290.097 142.536 290.837 142.616C291.946 142.735 295.912 147.813 297.243 147.813C298.575 147.813 305.956 140.696 305.956 140.696L309.024 140.277Z" fill="black" fill-opacity="0.175153"/>
<path d="M284.978 148.801L285.778 147.332C285.778 147.332 288.635 147.195 291.419 148.381C294.203 149.567 298.377 153.994 298.377 153.994L296.586 155.638C296.586 155.638 292.168 153.385 289.528 151.82C286.889 150.255 284.978 148.801 284.978 148.801Z" fill="#380085"/>
<path d="M293.342 127.921C292.172 129.501 293.342 131.094 293.342 131.094C293.342 131.094 294.196 130.443 296.346 130.443C298.496 130.443 300.66 130.594 302.381 131.843C304.101 133.092 303.871 134.269 304.885 135.143C305.899 136.017 307.218 137.738 306.352 138.862C305.487 139.985 304.611 142.602 305.362 142.602C306.113 142.602 307.008 140.953 307.595 141.218C308.183 141.482 308.7 142.606 307.595 144.368C306.49 146.13 301.132 149.554 301.132 149.554C301.132 149.554 309.863 145.561 309.863 144.368C309.863 143.175 311.228 134.671 309.863 133.257C308.499 131.843 304.759 127.37 303.314 127.37C301.868 127.37 299.757 127.67 298.19 127.04C296.622 126.409 294.512 126.341 293.342 127.921Z" fill="#380085"/>
<path d="M306.633 138.055L310.197 133.886C310.967 136.311 309.863 143.295 309.863 144.368C309.863 145.163 306.953 146.892 301.132 149.554C304.704 147.271 306.859 145.543 307.595 144.368C308.7 142.606 308.183 141.482 307.595 141.218C307.008 140.954 306.113 142.603 305.362 142.603C304.611 142.603 305.487 139.986 306.352 138.862C306.541 138.617 306.626 138.343 306.633 138.055L310.197 133.886L306.633 138.055Z" fill="black" fill-opacity="0.175153"/>
<path fill-rule="evenodd" clip-rule="evenodd" d="M304.781 146.316C305.09 147.403 307.309 147.87 308.526 146.316C309.742 144.762 308.193 141.648 307.198 141.648C306.204 141.648 304.472 145.228 304.781 146.316Z" fill="#C5876A"/>
<path d="M282.203 153.313L286.203 149.045C288.497 149.691 290.22 150.379 291.374 151.11C292.297 151.695 293.473 152.699 294.903 154.123L289.588 156.895L282.203 153.468V153.313L286.203 149.045L282.203 153.313Z" fill="#F8FCFF"/>
<path d="M222.529 145.717C224.109 146.39 224.914 145.717 226.812 145.717C228.71 145.717 241.147 152.055 243.35 151.553L250.447 149.945C257.878 148.285 268.612 145.966 270.687 145.966L270.995 145.973C272.065 146.022 274.009 146.295 276.297 146.697C276.029 146.871 275.718 147.037 275.365 147.198L275.093 147.318C271.818 148.704 267.587 152.874 262.401 159.83L262.046 160.308L260.42 160.821C251.749 163.518 246.059 164.667 243.35 164.267L242.968 164.201C238.116 163.269 221.949 156.952 220.846 155.683C220.091 154.814 219.66 154.1 219.553 153.542L217.507 153.183C216.222 152.954 215.096 152.746 214.129 152.558L220.657 143.532C221.212 144.54 221.853 145.429 222.529 145.717Z" fill="#380085"/>
<path d="M262.402 159.83L262.047 160.308L260.796 160.704C254.233 162.759 249.344 163.944 246.13 164.258C247.681 162.008 255.327 157.882 269.067 151.881C267.182 153.79 265.111 156.238 262.855 159.225L262.402 159.83Z" fill="black" fill-opacity="0.275213"/>
<path d="M308.228 161.572C311.011 166.071 315.852 180.097 318.448 181.47C320.958 182.797 320.444 180.826 322.863 181.933L324.651 182.802C328.073 184.443 333.979 187.252 334.605 189.118C335.311 191.226 335.1 192.731 335.832 192.844L335.924 192.851C336.744 192.851 337.558 194.994 339.478 193.091L339.64 192.923C341.595 190.82 343.872 189.835 345.557 189.76L345.765 189.755C346.386 189.755 347.495 189.584 348.653 189.408L349.211 189.967L348.706 191.638C347.349 191.971 346.112 192.585 346.112 192.923C346.112 193.411 346.842 193.916 347.904 194.298L344.866 204.381C343.682 203.91 342.283 203.286 341.18 202.937C339.055 202.264 335.948 200.525 335.031 200.525C334.114 200.525 333.264 202.501 331.461 202.501C329.659 202.501 313.642 195.95 313.171 194.773C312.857 193.988 312.626 193.159 312.478 192.284L300.279 176.515L300.18 176.668C299.752 169.218 301.738 161.881 305.141 158.4C306.481 159.448 307.577 160.52 308.228 161.572Z" fill="#380085"/>
<path d="M305.141 158.4C305.616 158.772 306.061 159.147 306.466 159.523C305.417 167.202 306.14 173.138 308.634 177.331L309.404 178.637C311.656 182.5 313.406 185.867 314.652 188.738L315.073 196.025C313.978 195.457 313.265 195.008 313.171 194.773C312.857 193.988 312.626 193.159 312.478 192.284L300.279 176.515L300.18 176.668C299.752 169.218 301.738 161.881 305.141 158.4Z" fill="black" fill-opacity="0.275213"/>
<path d="M232.047 261.233C233.834 262.013 234.849 264.124 235.09 267.566C234.847 267.812 234.585 268.125 234.275 268.537C232.64 270.711 228.495 283.737 226.119 285.102C223.743 286.466 220.004 285.489 219.021 283.717C218.039 281.945 212.302 264.59 213.963 262.556C216.272 259.728 221.12 261.769 222.529 262.556C223.938 263.342 224.596 264.123 224.931 264.123C225.267 264.123 225.789 263.634 225.789 262.796L225.784 262.688C228.127 260.918 230.214 260.433 232.047 261.233Z" fill="#959FFA"/>
<path d="M235.09 267.566C234.847 267.812 234.585 268.125 234.275 268.537C232.64 270.711 228.495 283.737 226.119 285.102C225.413 285.508 224.586 285.706 223.747 285.739L222.654 284.058L234.797 265.386C234.937 266.041 235.034 266.768 235.09 267.566Z" fill="black" fill-opacity="0.275213"/>
<path d="M215.835 263.15C218.758 263.15 223.257 266.83 224.82 271.999C225.608 274.604 226.445 278.51 227.33 283.716C226.895 284.403 226.486 284.891 226.119 285.102C223.743 286.466 220.004 285.489 219.021 283.717C218.258 282.341 214.628 271.568 213.822 265.87C214.184 264.057 214.855 263.15 215.835 263.15Z" fill="#733DFF"/>
<path d="M225.789 262.796L225.789 262.772C226.338 263.633 226.724 264.354 226.946 264.936C227.305 265.878 227.451 267.186 227.384 268.86L225.939 265.78C225.695 265.258 225.349 264.704 224.902 264.12L224.931 264.123C225.245 264.123 225.72 263.697 225.782 262.959L225.789 262.772L225.789 262.796Z" fill="black" fill-opacity="0.275213"/>
<path d="M172.348 232.209C175.191 232.912 178.21 237.536 179.527 238.19C180.844 238.843 182.276 238.843 183.966 237.257C184.421 236.829 184.652 236.394 184.788 235.952C185.951 235.707 187.008 235.85 187.96 236.381C189.915 237.472 191.322 240.05 191.322 241.819L191.322 243.717L191.083 243.873C190.198 244.468 180.754 255.268 178.586 255.883C176.471 256.482 173.921 256.111 172.458 252.657L172.014 251.55C170.197 247.106 165.34 236.23 166.068 234.703C166.846 233.069 169.505 231.505 172.348 232.209Z" fill="#959FFA"/>
<path d="M174.03 239.104L174.553 240.105C176.347 243.465 180.334 250.372 180.819 254.293L180.413 254.646C179.624 255.316 178.983 255.77 178.586 255.883C176.417 256.497 173.79 256.091 172.348 252.385C171.096 249.165 166.691 239.426 166.068 235.855L166.042 235.684C166.307 235.396 166.639 235.194 167.037 235.076C170.333 234.103 172.295 235.81 174.03 239.104Z" fill="#733DFF"/>
<path d="M217.702 203.433L217.833 203.331C220.335 205.648 222.177 208.241 223.358 211.109C224.538 213.976 225.276 216.954 225.571 220.045L224.654 220.284C223.33 220.64 222.056 221.058 221.373 221.805C220.804 222.426 220.189 224.099 219.21 225.857L218.408 224.803C216.691 222.573 215.107 220.698 213.655 219.175C212.097 217.541 209.238 215.955 205.077 214.415L208.474 211.23C210.964 208.915 212.938 207.132 213.861 206.416L214.831 205.674L217.833 203.331L217.702 203.433Z" fill="#959FFA"/>
<path d="M252.179 227.267C254.705 228.372 257.263 230.463 259.853 233.539C255.744 236.227 256.223 239.229 254.91 241.273C254.801 241.443 254.635 241.728 254.421 242.11C251.727 241.502 249.102 240.564 246.544 239.301C243.407 237.751 240.53 235.624 237.913 232.92L239.033 230.778C239.614 229.684 240.057 228.885 240.306 228.5L240.578 228.103C240.899 227.62 241.435 226.747 242.184 225.484C246.647 225.709 249.978 226.303 252.179 227.267Z" fill="#959FFA"/>
<path d="M248.169 181.836L248.181 181.772C251.398 184.288 253.559 186.581 254.664 188.653C256.106 191.356 256.827 195.698 256.826 201.679C261.937 199.711 266.383 198.655 270.165 198.512C272.99 198.404 276.872 198.752 281.81 199.554C281.62 200.704 282.024 201.924 281.619 203.115C281.408 203.737 279.416 207.213 276.697 211.598C272.329 209.624 268.659 208.432 265.688 208.024C262.125 207.535 257.481 207.797 251.753 208.81L253.963 204.902L250.655 206.762C249.83 202.024 248.621 198.544 247.029 196.322C245.445 194.11 242.255 191.433 237.459 188.293L238.603 187.473C240.988 185.779 242.749 184.65 243.351 184.537L243.868 184.447C245.991 184.1 246.619 184.295 247.737 182.843C247.969 182.542 248.099 182.203 248.169 181.836L248.181 181.772L248.169 181.836Z" fill="#959FFA"/>
<path d="M256.955 201.568L255.996 202.507L253.93 204.96L253.963 204.902L243.545 210.741C233.354 216.422 227.776 219.409 226.812 219.703C224.931 220.277 222.435 220.643 221.372 221.805C220.31 222.966 219.087 227.797 215.622 230.003L214.542 230.703C209.623 233.921 195.8 243.216 194.07 243.216L193.596 243.218C192.214 243.231 191.916 243.323 191.2 243.796L191.083 243.874C190.386 244.341 184.389 251.129 180.809 254.3L180.819 254.33L180.659 253.7C180.059 251.37 179.591 250.039 179.255 249.709L194.684 237.329C198.011 234.651 200.708 232.471 202.775 230.79L203.986 229.804C212.955 222.48 217.688 217.592 219.153 216.58L219.319 216.471C222.215 214.617 234.76 209.649 256.955 201.568Z" fill="black" fill-opacity="0.275213"/>
<path d="M352.84 189.314C352.84 189.742 352.177 191.41 350.387 191.41C348.597 191.41 346.112 192.444 346.112 192.924C346.112 193.864 348.83 194.871 351.413 194.931L351.654 194.934C354.306 194.934 359.034 195.725 359.034 196.567C359.034 197.128 356.574 197.418 351.654 197.438C353.767 197.915 355.287 198.387 356.214 198.853L356.381 198.94C357.739 199.682 360.542 200.66 360.07 201.568C359.756 202.174 357.821 201.978 354.266 200.982L350.387 200.516L354.266 202.405L354.787 202.653C356.947 203.707 357.836 204.475 357.456 204.959C357.046 205.479 355.508 205.212 352.84 204.157L349.04 202.937L352.84 205.944L353.409 206.367C354.096 206.897 354.948 207.7 354.266 208.339C353.357 209.19 347.851 204.614 347.191 204.959C346.553 205.292 343.517 203.72 341.396 203.007L341.18 202.937C339.436 202.385 337.03 201.114 335.717 200.677C335.784 199.719 335.928 198.643 336.147 197.453C336.412 196.021 336.829 194.784 337.399 193.739C337.929 193.987 338.587 193.979 339.488 193.082L339.64 192.924C341.596 190.82 343.872 189.836 345.558 189.76L345.765 189.756C347.468 189.756 352.84 188.468 352.84 189.314Z" fill="#959FFA"/>
<path d="M336.375 196.412L336.32 196.322C337.796 198.835 339.878 200.487 342.567 201.279L342.921 201.378C345.403 202.028 348.611 204.222 352.543 207.959C350.569 206.948 347.66 204.714 347.191 204.959C346.553 205.292 343.517 203.72 341.396 203.008L341.18 202.937C339.436 202.385 337.03 201.115 335.717 200.677C335.784 199.719 335.928 198.643 336.147 197.453C336.214 197.094 336.29 196.747 336.375 196.412Z" fill="black" fill-opacity="0.275213"/>
<path d="M323.125 182.059L323.927 182.453C327.158 184.017 333.933 187.112 334.605 189.118C335.238 191.007 335.134 192.412 335.632 192.765C335.032 193.663 334.544 194.671 334.169 195.787C333.535 197.679 333.159 199.733 333.043 201.947C332.603 202.26 332.09 202.501 331.462 202.501C329.659 202.501 313.642 195.95 313.171 194.773C312.919 194.141 312.72 193.481 312.575 192.792C313.17 190.429 314.002 188.438 315.071 186.817C316.239 185.044 317.629 183.377 319.238 181.815C320.941 182.384 320.724 180.847 323.125 182.059Z" fill="#959FFA"/>
<path d="M315.071 186.817C314.743 189.977 315.657 192.352 317.812 193.94L318.187 194.213C321.51 196.597 328.167 200.554 332.729 198.843L332.995 198.736C333.151 198.668 333.302 198.613 333.447 198.57C333.238 199.651 333.105 200.776 333.043 201.947C332.603 202.261 332.09 202.501 331.462 202.501C329.659 202.501 313.642 195.95 313.171 194.773C312.919 194.142 312.72 193.481 312.575 192.792C313.124 190.611 313.875 188.746 314.828 187.198L315.071 186.817Z" fill="black" fill-opacity="0.275213"/>
<path d="M219.021 139.992L219.153 140.279C219.761 141.651 221.066 145.094 222.529 145.717C223.104 145.962 223.576 146.029 224.035 146.014C222.651 146.813 221.65 147.828 221.032 149.059C220.469 150.18 219.967 151.673 219.526 153.538L219.553 153.542L216.713 153.04C212.753 152.324 210.472 151.828 209.869 151.552C209.35 151.315 207.725 150.727 206.277 150.512C204.648 150.269 202.913 148.549 202.913 147.915C202.913 147.362 205.744 148.571 206.532 148.571L206.959 148.575C207.608 148.587 208.578 148.623 209.869 148.682L207.753 148.127C207.077 147.946 206.55 147.799 206.172 147.687L206.037 147.646C203.519 146.879 201.89 145.726 202.126 144.926C202.355 144.151 203.57 145.317 206.259 145.683L206.532 145.717C207.137 145.784 208.109 145.867 209.448 145.966L207.16 145.074C206.418 144.779 205.822 144.536 205.374 144.344L205.066 144.21C202.218 142.947 200.892 142.004 201.089 141.38C201.296 140.726 202.803 141.3 205.744 142.37L206.226 142.535C206.954 142.772 208.028 143.082 209.448 143.464L207.799 142.533C207.085 142.125 206.538 141.803 206.157 141.566L206.037 141.49C203.96 140.173 203.019 139.25 203.213 138.721C203.37 138.291 204.881 138.715 207.746 139.992L211.628 141.49C212.313 141.742 213.644 142.193 215.622 142.841C216.062 142.069 215.973 141.21 215.357 140.264L214.389 138.812C213.766 137.852 213.287 136.975 213.558 136.559C213.963 135.935 218.489 138.902 219.021 139.992Z" fill="#959FFA"/>
<path d="M311.79 165.807C310.897 163.538 309.15 162.034 307.888 162.448C306.627 162.862 306.328 165.038 307.221 167.307C308.114 169.576 309.86 171.08 311.122 170.666C312.384 170.252 312.683 168.077 311.79 165.807Z" fill="#959FFA"/>
<path d="M313.652 164.936C312.67 162.578 310.68 161.104 309.208 161.643C307.735 162.183 307.338 164.532 308.32 166.89C309.303 169.248 311.293 170.722 312.765 170.182C314.237 169.643 314.634 167.294 313.652 164.936Z" fill="#F8FCFF"/>
<path d="M316.912 137.35C316.912 147.217 308.914 155.215 299.047 155.215C289.181 155.215 281.182 147.217 281.182 137.35C281.182 127.483 289.181 119.485 299.047 119.485C308.914 119.485 316.912 127.483 316.912 137.35Z" fill="#9286FF" fill-opacity="0.193018" stroke="#D4D0FF" stroke-width="1.8"/>
<path opacity="0.504464" fill-rule="evenodd" clip-rule="evenodd" d="M291.278 127.871C292.456 126.607 292.728 124.947 291.886 124.161C291.044 123.376 289.406 123.763 288.228 125.027C287.05 126.29 286.778 127.951 287.62 128.736C288.462 129.521 290.1 129.134 291.278 127.871Z" fill="white"/>
<path d="M269.033 157.158L263.089 162.891V164.976C263.089 164.976 269.248 165.974 276.45 169.056C281.55 171.239 286.552 175.355 289.037 177.572C289.889 178.332 291.24 178.175 291.861 177.216L297.147 169.05V167.061C297.147 167.061 287.252 161.737 283.09 159.976C276.062 157.003 269.033 157.158 269.033 157.158Z" fill="#959FFA"/>
<path d="M269.033 155.073L263.089 162.891C263.089 162.891 269.248 163.889 276.45 166.971C281.614 169.181 286.778 173 289.287 174.984C290.132 175.652 291.383 175.48 291.987 174.588L297.147 166.965C297.147 166.965 290.119 160.864 283.09 157.891C276.062 154.918 269.033 155.073 269.033 155.073Z" fill="#F8FCFF"/>
<path d="M320.91 167.601C320.112 167.158 319.975 166.066 320.639 165.439L336.803 150.178C337.786 149.25 339.25 149.052 340.444 149.686L373.199 167.088C374.005 167.516 374.162 168.604 373.511 169.243L357.259 185.21C356.263 186.188 354.742 186.394 353.522 185.716L320.91 167.601Z" fill="#FF3F87" fill-opacity="0.280021" stroke="#F8458D" stroke-width="0.9"/>
<path d="M332.33 169.28C331.318 168.716 331.44 167.222 332.53 166.83L350.271 160.447C351.15 160.131 352.078 160.783 352.078 161.718V177.985C352.078 179.015 350.97 179.666 350.07 179.165L332.33 169.28Z" fill="#9286FF" fill-opacity="0.193018" stroke="#F8F8F8" stroke-width="0.9"/>
<path fill-rule="evenodd" clip-rule="evenodd" d="M346.476 164.987L344.524 168.09C344.282 168.5 344.137 168.83 344.087 169.08C344.038 169.33 344.124 169.536 344.346 169.698C344.565 169.856 344.791 169.873 345.027 169.749C345.262 169.624 345.526 169.391 345.818 169.049L348.523 165.936C348.67 165.76 348.809 165.582 348.941 165.401C349.276 164.939 349.473 164.543 349.531 164.211C349.59 163.879 349.442 163.585 349.088 163.327C348.796 163.115 348.49 163.039 348.172 163.101C347.854 163.162 347.571 163.364 347.322 163.705C347.14 163.957 346.858 164.384 346.476 164.987ZM341.775 171.931C341.845 172.23 342.005 172.47 342.256 172.653C342.503 172.832 342.779 172.907 343.084 172.877C343.389 172.847 343.646 172.688 343.856 172.399C344.041 172.144 344.107 171.86 344.054 171.548C344.001 171.236 343.845 170.985 343.586 170.797C343.326 170.608 343.042 170.538 342.732 170.587C342.423 170.636 342.176 170.789 341.99 171.044C341.778 171.336 341.706 171.632 341.775 171.931Z" fill="#FF3F87"/>
<defs>
<linearGradient id="paint0_linear" x1="488.064" y1="188.646" x2="-15.1058" y2="130.324" gradientUnits="userSpaceOnUse">
<stop stop-color="#380085"/>
<stop offset="1" stop-color="#733DFF"/>
<stop offset="1" stop-color="#733DFF"/>
</linearGradient>
</defs>
</svg>
