<svg width="1364" height="764" viewBox="0 0 1364 764" fill="none" xmlns="http://www.w3.org/2000/svg">
<circle r="5.90192" transform="matrix(1 0 0 -1 1325.02 486.902)" fill="#CCCCCC" fill-opacity="0.3"/>
<path opacity="0.4" d="M1288 760V678.287C1288 677.5 1288.46 676.785 1289.18 676.463L1323.65 660.985C1324.37 660.662 1324.83 659.948 1324.83 659.161V493.877" stroke="#CCCCCC"/>
<circle r="6.46252" transform="matrix(-1 0 0 1 36.4624 299.038)" fill="#CCCCCC" fill-opacity="0.3"/>
<path opacity="0.4" d="M77.0001 0V89.5972C77.0001 90.3848 76.5378 91.0991 75.8193 91.4217L37.8486 108.47C37.1301 108.793 36.6678 109.507 36.6678 110.295V291.401" stroke="#CCCCCC"/>
<circle r="9.22308" transform="matrix(0 1 1 0 426.777 691.854)" fill="#CCCCCC" fill-opacity="0.3"/>
<path opacity="0.4" d="M0.00012207 634H128.423C129.21 634 129.925 634.462 130.247 635.181L155.031 690.38C155.354 691.099 156.068 691.561 156.856 691.561H415.877" stroke="#CCCCCC"/>
<path opacity="0.4" d="M758 5V232.997C758 233.591 758.264 234.154 758.721 234.534L813.28 279.943C813.736 280.323 814 280.886 814 281.48V750" stroke="#CCCCCC"/>
<path d="M1210.3 185.478L1376 292.5V758.5L813.998 758.5L352 763.88L-110 758.5L652.028 456.134L1210.3 185.478Z" fill="url(#paint0_linear)" fill-opacity="0.15"/>
<path d="M1051.2 82.9683L1051.78 267.284L1363.26 451.868V267.885L1051.2 82.9683Z" fill="#EFF0FF"/>
<path d="M1049.66 6V258.293L1398 482.178V259.022L1391.5 6H1222.5H1049.66Z" fill="#E8E8E8"/>
<path d="M1111.74 99.0718C1111.12 98.7139 1110.36 98.7126 1109.74 99.0685L1105.87 101.296L1109.62 232.74C1109.64 233.413 1109.99 234.03 1110.57 234.384L1298.78 350.787L1303.3 348.037C1303.89 347.674 1304.26 347.027 1304.26 346.329L1304.26 211.725C1304.26 211.012 1303.88 210.352 1303.26 209.994L1111.74 99.0718Z" fill="#733DFF"/>
<path d="M1105.46 103.357L1105.61 237.327C1105.61 237.86 1105.89 238.352 1106.35 238.621L1297.25 349.9C1298.25 350.483 1299.51 349.76 1299.51 348.601L1299.22 214.823C1299.22 214.291 1298.94 213.8 1298.48 213.531L1107.72 102.06C1106.72 101.476 1105.46 102.198 1105.46 103.357Z" fill="#F8FCFF" stroke="#D0D4FF"/>
<path d="M1285.02 309.87L1285.09 235.615C1285.1 234.287 1284.4 233.058 1283.25 232.382L1236.04 204.509C1234.88 203.82 1233.41 204.661 1233.41 206.016V280.44C1233.41 281.769 1234.11 282.999 1235.25 283.673L1282.39 311.377C1283.55 312.062 1285.02 311.222 1285.02 309.87Z" fill="#9286FF" fill-opacity="0.193018" stroke="#B399FF" stroke-width="0.5"/>
<path d="M1276.02 296.672V279.206C1276.02 278.566 1275.52 278.059 1274.91 278.059C1274.3 278.059 1273.8 278.566 1273.8 279.206V296.672C1273.8 297.312 1274.3 297.819 1274.91 297.819C1275.52 297.819 1276.02 297.312 1276.02 296.672Z" fill="#9286FF" fill-opacity="0.193018" stroke="#B399FF" stroke-width="0.5"/>
<path d="M1269.06 292.325V280.448C1269.06 279.808 1268.56 279.301 1267.95 279.301C1267.34 279.301 1266.84 279.808 1266.84 280.448V292.325C1266.84 292.965 1267.34 293.472 1267.95 293.472C1268.56 293.472 1269.06 292.965 1269.06 292.325Z" fill="#9286FF" fill-opacity="0.193018" stroke="#B399FF" stroke-width="0.5"/>
<path d="M1262.1 288.754V274.083C1262.1 273.443 1261.6 272.936 1260.99 272.936C1260.38 272.936 1259.88 273.443 1259.88 274.083V288.754C1259.88 289.394 1260.38 289.901 1260.99 289.901C1261.6 289.901 1262.1 289.394 1262.1 288.754Z" fill="#9286FF" fill-opacity="0.193018" stroke="#B399FF" stroke-width="0.5"/>
<path d="M1241.23 276.8V262.128C1241.23 261.489 1240.72 260.981 1240.11 260.981C1239.51 260.981 1239 261.489 1239 262.128V276.8C1239 277.439 1239.51 277.947 1240.11 277.947C1240.72 277.947 1241.23 277.439 1241.23 276.8Z" fill="#9286FF" fill-opacity="0.193018" stroke="#B399FF" stroke-width="0.5"/>
<path d="M1248.18 279.594V267.718C1248.18 267.078 1247.68 266.57 1247.07 266.57C1246.46 266.57 1245.96 267.078 1245.96 267.718V279.594C1245.96 280.234 1246.46 280.742 1247.07 280.742C1247.68 280.742 1248.18 280.234 1248.18 279.594Z" fill="#9286FF" fill-opacity="0.193018" stroke="#B399FF" stroke-width="0.5"/>
<path d="M1255.14 283.786V267.718C1255.14 267.078 1254.64 266.57 1254.03 266.57C1253.42 266.57 1252.92 267.078 1252.92 267.718V283.786C1252.92 284.426 1253.42 284.933 1254.03 284.933C1254.64 284.933 1255.14 284.426 1255.14 283.786Z" fill="#9286FF" fill-opacity="0.193018" stroke="#B399FF" stroke-width="0.5"/>
<path opacity="0.8" d="M1246.18 233.746L1246.19 233.762L1246.2 233.78L1255.36 250.163C1255.95 251.215 1257.24 251.603 1258.28 251.053L1266.17 246.906L1266.38 246.793L1266.5 247.003L1277.4 266.201C1277.8 266.915 1278.69 267.152 1279.38 266.74C1280.07 266.325 1280.31 265.407 1279.9 264.689L1268.56 244.698C1267.96 243.654 1266.69 243.273 1265.64 243.82L1257.77 247.965L1257.55 248.078L1257.43 247.865L1248.59 232.055L1239.18 220.207C1238.67 219.568 1237.76 219.475 1237.14 219.993C1236.52 220.515 1236.42 221.461 1236.93 222.103L1246.18 233.746Z" fill="#FF623F" stroke="#FF623F" stroke-width="0.5"/>
<path d="M1167.78 201.197L1167.85 165.754C1167.85 164.425 1167.15 163.194 1166.01 162.518L1118.8 134.645C1117.63 133.956 1116.16 134.797 1116.16 136.152V171.764C1116.16 173.093 1116.87 174.323 1118.01 174.997L1165.15 202.702C1166.31 203.387 1167.78 202.549 1167.78 201.197Z" fill="#9286FF" fill-opacity="0.193018" stroke="#B399FF" stroke-width="0.5"/>
<g opacity="0.8">
<path d="M1158.02 190.061V169.723C1158.02 168.929 1157.39 168.296 1156.64 168.296C1155.88 168.296 1155.25 168.929 1155.25 169.723V190.061C1155.25 190.855 1155.88 191.487 1156.64 191.487C1157.39 191.487 1158.02 190.855 1158.02 190.061Z" fill="#FF623F" stroke="#FF623F" stroke-width="0.5"/>
<path d="M1151.49 186.707V173.076C1151.49 172.282 1150.86 171.649 1150.1 171.649C1149.34 171.649 1148.72 172.282 1148.72 173.076V186.707C1148.72 187.501 1149.34 188.134 1150.1 188.134C1150.86 188.134 1151.49 187.501 1151.49 186.707Z" fill="#FF623F" stroke="#FF623F" stroke-width="0.5"/>
<path d="M1144.95 183.354V166.369C1144.95 165.575 1144.32 164.943 1143.57 164.943C1142.81 164.943 1142.18 165.575 1142.18 166.369V183.354C1142.18 184.148 1142.81 184.781 1143.57 184.781C1144.32 184.781 1144.95 184.148 1144.95 183.354Z" fill="#FF623F" stroke="#FF623F" stroke-width="0.5"/>
<path d="M1125.34 169.94V152.956C1125.34 152.161 1124.72 151.529 1123.96 151.529C1123.2 151.529 1122.58 152.161 1122.58 152.956V169.94C1122.58 170.734 1123.2 171.367 1123.96 171.367C1124.72 171.367 1125.34 170.734 1125.34 169.94Z" fill="#FF623F" stroke="#FF623F" stroke-width="0.5"/>
<path d="M1131.88 173.294V159.663C1131.88 158.868 1131.25 158.236 1130.5 158.236C1129.74 158.236 1129.11 158.868 1129.11 159.663V173.294C1129.11 174.088 1129.74 174.72 1130.5 174.72C1131.25 174.72 1131.88 174.088 1131.88 173.294Z" fill="#FF623F" stroke="#FF623F" stroke-width="0.5"/>
<path d="M1138.41 178.324V159.663C1138.41 158.868 1137.79 158.236 1137.03 158.236C1136.27 158.236 1135.65 158.868 1135.65 159.663V178.324C1135.65 179.118 1136.27 179.751 1137.03 179.751C1137.79 179.751 1138.41 179.118 1138.41 178.324Z" fill="#FF623F" stroke="#FF623F" stroke-width="0.5"/>
</g>
<path d="M1226.03 236.129L1226.09 200.686C1226.1 199.356 1225.39 198.125 1224.25 197.45L1177.04 169.577C1175.88 168.888 1174.41 169.729 1174.41 171.084V206.695C1174.41 208.025 1175.11 209.255 1176.25 209.928L1223.39 237.634C1224.56 238.319 1226.03 237.48 1226.03 236.129Z" fill="#9286FF" fill-opacity="0.193018" stroke="#B399FF" stroke-width="0.5"/>
<path opacity="0.8" d="M1203.76 215.852C1204.92 218.787 1206.85 221.067 1209.03 222.385C1211.21 223.704 1213.62 224.053 1215.76 223.167C1217.89 222.28 1219.39 220.31 1220.07 217.809C1220.74 215.308 1220.59 212.29 1219.43 209.355C1218.28 206.419 1216.34 204.139 1214.17 202.821C1211.99 201.503 1209.58 201.153 1207.44 202.04C1205.3 202.927 1203.8 204.896 1203.13 207.397C1202.45 209.899 1202.61 212.916 1203.76 215.852Z" fill="#FF623F" stroke="#F8458D" stroke-width="0.5"/>
<path d="M1184.55 191.353C1185.69 194.261 1188.41 195.76 1190.56 194.869C1192.71 193.979 1193.65 190.963 1192.5 188.055C1191.36 185.146 1188.64 183.648 1186.49 184.538C1184.35 185.429 1183.4 188.444 1184.55 191.353Z" fill="#9286FF" fill-opacity="0.193018" stroke="#B399FF" stroke-width="0.5"/>
<path d="M1191.22 208.48C1191.55 209.328 1192.11 209.978 1192.74 210.35C1193.36 210.722 1194.04 210.809 1194.63 210.564C1195.22 210.319 1195.64 209.775 1195.84 209.063C1196.04 208.351 1196 207.484 1195.67 206.636C1195.33 205.788 1194.77 205.137 1194.15 204.765C1193.53 204.393 1192.85 204.307 1192.26 204.551C1191.67 204.796 1191.24 205.34 1191.05 206.052C1190.85 206.765 1190.89 207.632 1191.22 208.48Z" fill="#9286FF" fill-opacity="0.193018" stroke="#B399FF" stroke-width="0.5"/>
<path opacity="0.7" d="M1179.87 202.27C1180.21 203.118 1180.77 203.768 1181.39 204.14C1182.02 204.512 1182.69 204.599 1183.28 204.354C1183.87 204.109 1184.3 203.565 1184.5 202.853C1184.69 202.141 1184.65 201.274 1184.32 200.426C1183.99 199.578 1183.43 198.927 1182.8 198.555C1182.18 198.183 1181.5 198.097 1180.91 198.341C1180.32 198.586 1179.9 199.13 1179.7 199.842C1179.5 200.555 1179.54 201.422 1179.87 202.27Z" fill="#FF623F" stroke="#F8458D" stroke-width="0.5"/>
<mask id="path-33-inside-1" fill="white">
<path d="M1189.94 195.116L1192.22 204.403Z"/>
</mask>
<path d="M1189.94 195.116L1192.22 204.403Z" fill="#9286FF" fill-opacity="0.193018"/>
<path d="M1190.42 194.997L1192.7 204.284L1191.73 204.522L1189.45 195.235L1190.42 194.997Z" fill="#B399FF" mask="url(#path-33-inside-1)"/>
<mask id="path-35-inside-2" fill="white">
<path d="M1184.55 202.829L1190.82 207.084Z"/>
</mask>
<path d="M1184.55 202.829L1190.82 207.084Z" fill="#9286FF" fill-opacity="0.193018"/>
<path d="M1184.83 202.415L1191.1 206.671L1190.54 207.498L1184.26 203.243L1184.83 202.415Z" fill="#B399FF" mask="url(#path-35-inside-2)"/>
<path d="M1185.13 137.434C1185.01 137.367 1184.86 137.366 1184.74 137.431L1178.68 140.707L1179.6 150.524C1179.62 150.653 1179.69 150.768 1179.8 150.833L1217.45 172.571L1219.28 171.537V166.62L1223.84 164.242L1223.84 159.354C1223.84 159.209 1223.76 159.076 1223.64 159.005L1185.13 137.434Z" fill="#512BB5"/>
<path d="M1179.28 141.035C1179.01 140.888 1178.69 141.082 1178.69 141.387L1178.71 151.115C1178.71 151.26 1178.79 151.394 1178.92 151.464L1217.1 172.502C1217.37 172.65 1217.69 172.455 1217.69 172.15L1217.64 162.461C1217.64 162.316 1217.56 162.183 1217.43 162.113L1179.28 141.035Z" fill="#733DFF"/>
<path d="M1091.86 582.867C1074.32 582.239 1060.49 570.615 1060.95 556.904C1061.42 543.194 1076.01 532.589 1093.55 533.217C1111.08 533.846 1124.92 545.47 1124.45 559.18C1123.98 572.891 1109.39 583.496 1091.86 582.867Z" fill="black" fill-opacity="0.130299"/>
<path d="M929.229 591.406C911.694 590.778 897.858 579.154 898.324 565.443C898.791 551.733 913.384 541.128 930.919 541.756C948.454 542.384 962.29 554.008 961.824 567.719C961.357 581.429 946.764 592.035 929.229 591.406Z" fill="black" fill-opacity="0.130299"/>
<path d="M854.345 544.055C836.81 543.426 822.973 531.802 823.44 518.092C823.907 504.381 838.5 493.776 856.034 494.404C873.569 495.033 887.406 506.657 886.939 520.367C886.473 534.078 871.88 544.683 854.345 544.055Z" fill="black" fill-opacity="0.130299"/>
<path d="M864.935 443.141C847.4 442.513 833.564 430.889 834.03 417.178C834.497 403.468 849.09 392.862 866.625 393.491C884.16 394.119 897.996 405.743 897.53 419.454C897.063 433.164 882.47 443.769 864.935 443.141Z" fill="black" fill-opacity="0.130299"/>
<path d="M1059.94 326.359C1042.39 326.359 1028.17 318.365 1028.17 308.505C1028.17 298.644 1042.39 290.651 1059.94 290.651C1077.48 290.651 1091.71 298.644 1091.71 308.505C1091.71 318.365 1077.48 326.359 1059.94 326.359Z" fill="black" fill-opacity="0.130299"/>
<path d="M1311.77 466.428C1294.22 466.428 1280 458.435 1280 448.574C1280 438.714 1294.22 430.72 1311.77 430.72C1329.31 430.72 1343.54 438.714 1343.54 448.574C1343.54 458.435 1329.31 466.428 1311.77 466.428Z" fill="black" fill-opacity="0.130299"/>
<path d="M1295.19 372.954L1316.23 360.985V402.619C1316.23 409.838 1320.02 416.525 1326.22 420.224L1348.53 433.533L1330.25 444.113L1304.72 428.925C1298.81 425.41 1295.19 419.042 1295.19 412.166V372.954Z" fill="#F8FCFF" stroke="#D0D4FF"/>
<path d="M1312.35 416.451C1313.58 415.804 1315.05 415.834 1316.24 416.531L1341.56 431.304C1342.89 432.084 1342.88 434.02 1341.53 434.776L1332.45 439.862C1331.2 440.559 1329.68 440.541 1328.46 439.815L1303.08 424.804C1301.73 424.008 1301.78 422.046 1303.16 421.315L1312.35 416.451Z" fill="#1B215B"/>
<path d="M1288.48 369.776L1288.35 427.166C1288.33 435.624 1292.77 443.467 1300.02 447.812L1321.95 460.941C1329.19 465.278 1338.23 465.294 1345.49 460.983V460.983C1352.46 456.841 1356.73 449.328 1356.73 441.216L1356.7 383.541L1350.92 380.089L1328.28 392.462V432.876C1328.28 437.522 1323.22 440.405 1319.22 438.041L1304.52 429.346C1298.43 425.747 1294.69 419.201 1294.69 412.13V372.663L1316.73 360.126L1311.35 356.976L1288.48 369.776Z" fill="#D6D9FB"/>
<path d="M1327.27 463.303C1330.72 462.834 1333.62 460.118 1334.23 456.431C1334.31 455.965 1334.35 455.493 1334.35 455.021V396.881L1356.2 384.327L1356.23 443.551C1356.23 449.923 1352.98 455.815 1347.69 459.091C1347.69 459.091 1347.69 459.092 1347.68 459.092L1347.41 459.256L1347.41 459.259L1342.58 462.128C1337.88 464.92 1332.24 465.311 1327.27 463.303Z" fill="#F8FCFF" stroke="#D0D4FF"/>
<path d="M1304.45 385.204C1306.76 386.209 1309.68 384.464 1310.99 381.307C1312.3 378.15 1311.48 374.776 1309.18 373.771C1306.87 372.766 1303.94 374.51 1302.64 377.667C1301.33 380.824 1302.14 384.198 1304.45 385.204Z" fill="#1B215B"/>
<path d="M1305.89 383.098C1307.23 383.685 1308.92 382.72 1309.65 380.944C1310.39 379.168 1309.89 377.254 1308.55 376.667C1307.2 376.081 1305.51 377.045 1304.78 378.821C1304.04 380.597 1304.54 382.512 1305.89 383.098Z" fill="#FF623F"/>
<path d="M1304.45 402.281C1306.76 403.286 1309.68 401.542 1310.99 398.385C1312.3 395.228 1311.48 391.853 1309.18 390.848C1306.87 389.843 1303.94 391.588 1302.64 394.745C1301.33 397.902 1302.14 401.276 1304.45 402.281Z" fill="#1B215B"/>
<path d="M1305.89 400.176C1307.23 400.762 1308.92 399.798 1309.65 398.022C1310.39 396.246 1309.89 394.331 1308.55 393.745C1307.2 393.159 1305.51 394.123 1304.78 395.899C1304.04 397.675 1304.54 399.59 1305.89 400.176Z" fill="#FF623F"/>
<path d="M1311.35 424.324C1308.44 421.77 1305.9 421.77 1307.99 416.963C1310.07 412.155 1302.17 407.751 1305.34 403.092C1308.52 398.433 1303.33 392.149 1306.27 389.02C1309.21 385.891 1308.05 376.844 1311.35 377.301C1312.96 377.523 1313.59 384.135 1315.31 384.921C1317.03 385.707 1319 387.618 1317.89 390.581C1315.74 396.342 1321.2 397.119 1319.55 403.092C1317.89 409.064 1322.5 407.478 1321.58 413.557C1320.65 419.635 1319.55 422.57 1319.55 422.57C1319.55 422.57 1316.45 421.925 1315.83 423.313C1315.2 424.701 1314.26 426.879 1311.35 424.324Z" fill="#733DFF" stroke="#D0D4FF" stroke-width="0.5"/>
<path d="M1315.31 384.921C1316.99 385.69 1318.91 387.534 1317.96 390.385L1317.89 390.581C1315.78 396.239 1321.01 397.09 1319.63 402.777L1319.55 403.092C1317.89 409.064 1322.5 407.478 1321.57 413.557C1320.96 417.609 1320.28 420.614 1319.55 422.57C1317.48 422.14 1316.24 422.388 1315.82 423.313L1315.64 423.713C1315.04 425.001 1314.08 426.499 1311.7 424.618C1311.41 423.329 1311.49 421.901 1312.32 420.432L1312.44 420.222C1314.87 416.244 1309.04 414.173 1310.46 410.68C1311.86 407.256 1314.32 404.253 1312.55 401.668L1312.44 401.513C1310.46 398.893 1310.72 394.673 1313.28 391.357C1315.16 388.921 1314.17 386.047 1314.4 383.861C1314.67 384.381 1314.97 384.765 1315.31 384.921Z" fill="#3C1F86"/>
<path d="M1316.68 429.432C1315.45 427.902 1312.28 424.199 1314.71 420.222C1317.14 416.244 1311.31 414.173 1312.73 410.68C1314.15 407.188 1316.69 404.133 1314.71 401.513C1312.73 398.894 1312.99 394.673 1315.55 391.357C1318.11 388.042 1315.34 383.913 1317.59 381.816C1319.85 379.719 1319.56 386.217 1322.94 388.502C1326.31 390.787 1321.95 396.425 1325.13 397.995C1328.3 399.565 1322.61 407.152 1325.13 409.621C1327.65 412.09 1329.59 415.891 1327.58 419.405C1325.57 422.919 1327.37 425.79 1326.31 426.839C1325.25 427.888 1323.53 425.081 1322.04 427.512C1320.55 429.943 1317.91 430.961 1316.68 429.432Z" fill="#733DFF" stroke="#D0D4FF" stroke-width="0.5"/>
<path d="M1325 397.924L1325.13 397.995C1328.3 399.565 1322.61 407.152 1325.13 409.621C1325.43 409.918 1325.73 410.234 1326.01 410.567L1326.01 427.035C1324.97 427.415 1323.47 425.397 1322.14 427.364L1322.04 427.512C1321.5 428.397 1320.81 429.094 1320.08 429.55C1319.62 428.417 1319.69 427.112 1320.69 425.644L1320.82 425.46C1323.56 421.685 1317.69 419.828 1319.61 416.172L1319.73 415.971C1321.94 412.24 1317.59 406.61 1322.23 401.803L1322.46 401.579C1323.7 400.375 1324.28 398.996 1324.55 397.595C1324.68 397.717 1324.83 397.827 1325 397.924Z" fill="#3C1F86"/>
<path d="M1332.58 390.112L1328.28 392.462L1328.28 434.052C1327.89 433.963 1327.43 433.8 1326.9 433.54L1326.47 433.326C1323.58 431.822 1320.53 429.211 1322.97 425.636L1323.09 425.46C1325.83 421.685 1319.96 419.828 1321.88 416.172L1322 415.971C1324.21 412.24 1319.86 406.61 1324.5 401.803L1324.72 401.579C1329.73 396.724 1324.12 389.036 1329.94 388.42C1331.56 388.249 1332.29 388.958 1332.58 390.112Z" fill="#733DFF" stroke="#D0D4FF" stroke-width="0.5"/>
<path d="M1041.85 231.332L1062.88 219.364V260.997C1062.88 268.217 1066.68 274.904 1072.88 278.603L1095.19 291.911L1076.91 302.491L1051.38 287.303C1045.47 283.788 1041.85 277.42 1041.85 270.545V231.332Z" fill="#F8FCFF" stroke="#D0D4FF"/>
<path d="M1059.01 274.829C1060.23 274.182 1061.7 274.213 1062.9 274.91L1088.21 289.682C1089.55 290.462 1089.53 292.399 1088.18 293.155L1079.1 298.24C1077.86 298.937 1076.34 298.919 1075.11 298.193L1049.74 283.182C1048.39 282.386 1048.44 280.424 1049.82 279.693L1059.01 274.829Z" fill="#1B215B"/>
<path d="M1035.14 228.154L1035.01 285.545C1034.99 294.002 1039.42 301.845 1046.68 306.19L1068.61 319.32C1075.85 323.656 1084.88 323.672 1092.14 319.362V319.362C1099.12 315.219 1103.39 307.706 1103.38 299.594L1103.35 241.919L1097.58 238.467L1074.93 250.841V291.254C1074.93 295.9 1069.88 298.783 1065.88 296.419L1051.17 287.725C1045.08 284.126 1041.35 277.58 1041.35 270.508V231.041L1063.38 218.504L1058.01 215.354L1035.14 228.154Z" fill="#D6D9FB"/>
<path d="M1073.93 321.681C1077.38 321.212 1080.27 318.496 1080.89 314.809C1080.97 314.343 1081.01 313.872 1081.01 313.399V255.259L1102.85 242.705L1102.89 301.929C1102.89 308.301 1099.64 314.193 1094.34 317.469C1094.34 317.469 1094.34 317.47 1094.34 317.47L1094.07 317.634L1094.07 317.637L1089.24 320.506C1084.53 323.298 1078.89 323.689 1073.93 321.681Z" fill="#F8FCFF" stroke="#D0D4FF"/>
<path d="M1051.11 243.582C1053.41 244.587 1056.34 242.842 1057.65 239.685C1058.95 236.528 1058.14 233.154 1055.83 232.149C1053.53 231.144 1050.6 232.888 1049.29 236.045C1047.99 239.203 1048.8 242.577 1051.11 243.582Z" fill="#1B215B"/>
<path d="M1052.54 241.477C1053.89 242.063 1055.57 241.099 1056.31 239.323C1057.04 237.547 1056.55 235.632 1055.2 235.046C1053.86 234.459 1052.17 235.424 1051.44 237.2C1050.7 238.975 1051.2 240.89 1052.54 241.477Z" fill="#FF623F"/>
<path d="M1051.11 260.66C1053.41 261.665 1056.34 259.92 1057.65 256.763C1058.95 253.606 1058.14 250.232 1055.83 249.227C1053.53 248.222 1050.6 249.966 1049.29 253.123C1047.99 256.28 1048.8 259.655 1051.11 260.66Z" fill="#1B215B"/>
<path d="M1052.54 258.554C1053.89 259.141 1055.57 258.176 1056.31 256.4C1057.04 254.625 1056.55 252.71 1055.2 252.123C1053.86 251.537 1052.17 252.501 1051.44 254.277C1050.7 256.053 1051.2 257.968 1052.54 258.554Z" fill="#FF623F"/>
<path d="M1058.01 282.703C1055.1 280.148 1052.56 280.148 1054.64 275.341C1056.73 270.534 1048.82 266.129 1052 261.47C1055.18 256.811 1049.98 250.527 1052.93 247.398C1055.87 244.269 1054.7 235.222 1058.01 235.679C1059.61 235.901 1060.25 242.513 1061.97 243.299C1063.69 244.085 1065.66 245.996 1064.55 248.959C1062.4 254.721 1067.86 255.498 1066.21 261.47C1064.55 267.443 1069.15 265.857 1068.23 271.935C1067.31 278.014 1066.21 280.949 1066.21 280.949C1066.21 280.949 1063.1 280.304 1062.48 281.692C1061.86 283.08 1060.92 285.257 1058.01 282.703Z" fill="#733DFF" stroke="#D0D4FF" stroke-width="0.5"/>
<path d="M1061.97 243.299C1063.65 244.068 1065.57 245.912 1064.62 248.763L1064.55 248.959C1062.44 254.618 1067.67 255.468 1066.29 261.155L1066.21 261.47C1064.55 267.443 1069.16 265.857 1068.23 271.935C1067.62 275.988 1066.94 278.992 1066.21 280.949C1064.14 280.519 1062.9 280.766 1062.48 281.692L1062.3 282.091C1061.7 283.379 1060.74 284.878 1058.36 282.996C1058.07 281.707 1058.15 280.28 1058.97 278.81L1059.1 278.6C1061.53 274.622 1055.7 272.551 1057.12 269.059C1058.51 265.634 1060.97 262.632 1059.21 260.046L1059.1 259.892C1057.12 257.272 1057.38 253.051 1059.94 249.736C1061.82 247.3 1060.82 244.425 1061.06 242.24C1061.33 242.759 1061.63 243.144 1061.97 243.299Z" fill="#3C1F86"/>
<path d="M1063.34 287.81C1062.11 286.281 1058.94 282.577 1061.37 278.6C1063.79 274.622 1057.97 272.551 1059.39 269.059C1060.81 265.566 1063.34 262.512 1061.37 259.892C1059.39 257.272 1059.65 253.051 1062.21 249.736C1064.77 246.42 1062 242.291 1064.25 240.194C1066.5 238.098 1066.22 244.595 1069.59 246.88C1072.97 249.166 1068.61 254.803 1071.79 256.373C1074.96 257.943 1069.27 265.531 1071.79 267.999C1074.31 270.468 1076.25 274.269 1074.24 277.783C1072.23 281.297 1074.03 284.168 1072.97 285.217C1071.91 286.266 1070.19 283.459 1068.7 285.89C1067.21 288.321 1064.57 289.34 1063.34 287.81Z" fill="#733DFF" stroke="#D0D4FF" stroke-width="0.5"/>
<path d="M1071.65 256.303L1071.79 256.373C1074.96 257.943 1069.27 265.531 1071.79 267.999C1072.09 268.296 1072.38 268.613 1072.66 268.945L1072.66 285.413C1071.62 285.793 1070.13 283.776 1068.8 285.743L1068.7 285.89C1068.16 286.775 1067.46 287.473 1066.74 287.928C1066.28 286.796 1066.35 285.491 1067.35 284.023L1067.48 283.838C1070.22 280.064 1064.35 278.206 1066.27 274.551L1066.38 274.35C1068.6 270.618 1064.25 264.988 1068.89 260.182L1069.11 259.957C1070.35 258.753 1070.94 257.375 1071.21 255.973C1071.34 256.095 1071.48 256.205 1071.65 256.303Z" fill="#3C1F86"/>
<path d="M1079.24 248.49L1074.93 250.841L1074.93 292.43C1074.54 292.342 1074.09 292.178 1073.55 291.918L1073.13 291.704C1070.24 290.201 1067.18 287.59 1069.62 284.015L1069.75 283.838C1072.49 280.064 1066.62 278.206 1068.54 274.551L1068.65 274.35C1070.87 270.618 1066.52 264.988 1071.16 260.182L1071.38 259.957C1076.38 255.102 1070.77 247.414 1076.6 246.798C1078.22 246.627 1078.95 247.337 1079.24 248.49Z" fill="#733DFF" stroke="#D0D4FF" stroke-width="0.5"/>
<path d="M1161.97 513.628C1150.9 513.628 1141.92 508.415 1141.92 501.984C1141.92 495.554 1150.9 490.341 1161.97 490.341C1173.04 490.341 1182.01 495.554 1182.01 501.984C1182.01 508.415 1173.04 513.628 1161.97 513.628Z" fill="black" fill-opacity="0.130299"/>
<path d="M1146.08 376.231C1135.01 376.231 1126.04 371.017 1126.04 364.587C1126.04 358.156 1135.01 352.943 1146.08 352.943C1157.15 352.943 1166.13 358.156 1166.13 364.587C1166.13 371.017 1157.15 376.231 1146.08 376.231Z" fill="black" fill-opacity="0.130299"/>
<path d="M1124.5 244.826C1124.5 244.826 1128.01 244.328 1128.24 241.218C1128.46 238.108 1128.24 231.894 1128.24 231.894L1136.4 236.368C1136.4 236.368 1136.32 239.923 1136.83 241.575C1136.92 241.87 1138.26 241.687 1139.47 241.862C1140.82 242.057 1142.05 242.616 1142.26 243.108C1142.57 243.829 1139.47 245.484 1139.47 245.484L1137.89 251.13L1132.62 250.81L1124.5 244.826Z" fill="#FFAF8A"/>
<path d="M1134.05 241.618C1137.35 241.643 1138.21 238.23 1138.21 238.23L1127.7 236.219C1127.7 236.219 1127.46 243.431 1127.7 243.826C1127.94 244.226 1129.36 238.898 1129.56 239.112C1131.13 240.782 1132.38 241.605 1134.05 241.618Z" fill="black" fill-opacity="0.175153"/>
<path d="M1141.74 225.324C1141.74 225.324 1142.31 240.933 1143.49 241.9C1144.67 242.867 1136.66 242.506 1136.12 239.505C1135.32 236.009 1139.96 226.57 1139.96 226.57L1141.74 225.324Z" fill="#0D134E"/>
<path d="M1135.87 240.879C1139.74 240.635 1140.35 226.211 1140.35 226.211L1134 220.038L1128.04 225.199L1127.07 234.269C1127.07 234.269 1131.11 241.178 1135.87 240.879Z" fill="#FFAF8A"/>
<path fill-rule="evenodd" clip-rule="evenodd" d="M1141.32 241.97L1136.83 241.634C1137.52 242.717 1137.03 244.137 1135.02 244.581C1133.01 245.025 1128.25 244.391 1127.88 242.754L1127.86 242.759L1128.05 242.299L1126.87 242.709L1117.82 247.553C1117 247.994 1116.48 248.86 1116.45 249.813L1115.91 273.287C1115.9 273.915 1116.02 274.539 1116.26 275.116C1117.19 277.33 1119.69 278.352 1121.84 277.399L1124.62 276.174L1122.42 289.503L1122.41 289.578C1122.4 289.693 1122.41 289.805 1122.44 289.908C1121.61 293.216 1121.19 296.928 1121.19 301.044L1121.19 301.275C1121.22 305.752 1121.96 310.45 1123.41 318.472L1124.86 326.461C1124.07 343.305 1125.48 353.335 1125.89 354.346C1126.09 354.841 1126.35 354.955 1126.56 355.049C1126.78 355.147 1126.95 355.223 1126.96 355.682C1126.99 357.208 1126.97 359.362 1126.88 362.142L1126.83 363.592L1138.32 369.322L1137.81 367.431C1135.93 364.843 1134.49 362.9 1133.48 361.602L1133.01 361.006C1132.4 360.239 1132.19 358.802 1132.06 356.55V355.313C1132.06 355.193 1132.17 355.064 1132.3 354.907C1132.5 354.68 1132.74 354.395 1132.76 353.996C1132.8 353.365 1132.83 352.559 1132.87 351.576C1133.02 347.772 1133.28 341.318 1134.32 332.13L1135.02 326.01L1136.83 303.102C1137.9 306.034 1139.5 311.286 1140.83 315.673C1141.67 318.418 1142.4 320.824 1142.83 322.11L1143.37 323.722C1143.2 331.312 1146.38 344.191 1147.81 349.205C1148.03 349.978 1148.56 350.327 1148.94 350.576C1149.17 350.733 1149.35 350.849 1149.35 351.007L1150.09 357.132L1158.42 361.815L1160.28 360.806C1160.28 360.806 1157.57 358.903 1156.34 357.598C1155.11 356.294 1154.13 354.277 1154.13 354.277C1154.13 354.277 1154.37 351.895 1154.36 350.678C1154.36 350.344 1154.55 350.169 1154.75 349.988C1154.96 349.797 1155.17 349.6 1155.17 349.205C1155.12 343.43 1153.4 322.842 1153.4 322.842C1153.4 322.841 1153.37 322.657 1153.3 322.314C1152.45 317.926 1146.54 287.621 1146.54 286.075L1146.01 269.494L1148.19 264.571L1149.5 268.225C1149.61 268.517 1149.76 268.788 1149.95 269.028C1150.9 270.222 1152.62 270.397 1153.78 269.42L1170.55 255.332C1170.79 255.128 1170.93 254.821 1170.93 254.499C1170.89 252.752 1170.66 251.644 1170.23 251.175C1169.85 250.753 1169.27 250.339 1168.49 249.933C1168.16 249.764 1167.77 249.785 1167.47 249.988L1153.88 259.049L1148.02 244.264C1147.69 243.427 1146.96 242.825 1146.09 242.67C1143.85 242.271 1142.26 242.037 1141.32 241.97ZM1123.3 268.702L1123.36 261.51L1125.19 267.773L1123.3 268.702Z" fill="#380085"/>
<path d="M1137.01 303.602L1136.85 301.626L1137.68 303.384C1142.03 312.691 1144.2 318.424 1144.2 320.583C1144.2 321.808 1143.93 323.296 1143.38 325.047C1143.37 324.59 1143.36 324.148 1143.37 323.722L1142.71 321.731C1141.53 318.139 1138.71 308.411 1137.01 303.602Z" fill="black" fill-opacity="0.275213"/>
<path d="M1146.05 270.675L1146.19 275.159L1145.43 275.561C1145.27 275.643 1145.1 275.685 1144.92 275.685C1144.31 275.685 1143.81 275.176 1143.81 274.548C1143.81 273.435 1144.25 272.374 1145.03 271.603L1145.18 271.462L1146.05 270.675Z" fill="#733DFF"/>
<path d="M1138.82 241.783L1141.32 241.97C1141.83 242.006 1142.53 242.091 1143.42 242.225L1143.48 242.593C1143.67 243.806 1143.64 244.254 1143.58 244.525C1143.37 245.368 1140.32 246.497 1140.06 245.949L1140.03 245.884C1139.88 245.449 1139.28 243.27 1138.82 241.783Z" fill="#733DFF"/>
<path d="M1136.83 241.634L1141.32 241.97C1141.86 242.008 1142.6 242.099 1143.54 242.244C1143.71 242.576 1143.8 242.925 1143.8 243.284C1143.8 245.737 1139.65 247.756 1136.07 247.756C1134.39 247.756 1132.86 247.32 1131.71 246.604L1128.74 247.925L1128.74 243.72C1129.1 243.935 1129.56 244.116 1130.07 244.262L1130.33 244.332L1130.62 244.402L1130.93 244.467L1131.01 244.483C1131.2 244.52 1131.4 244.552 1131.59 244.58L1131.79 244.607C1131.99 244.633 1132.2 244.655 1132.4 244.672L1132.77 244.699V244.699L1132.7 244.694C1132.97 244.711 1133.23 244.719 1133.48 244.719C1133.63 244.719 1133.78 244.716 1133.92 244.71L1134.2 244.694L1134.38 244.679C1134.61 244.656 1134.83 244.624 1135.02 244.581C1137.03 244.137 1137.52 242.717 1136.83 241.634Z" fill="black" fill-opacity="0.275213"/>
<path d="M1126.52 244.955L1126.74 245.335C1127.95 247.503 1127.69 247.681 1127.69 248.063C1127.69 248.933 1124.56 250.786 1124.11 250.319L1124.09 250.286C1123.93 250.077 1124.13 249.811 1122.49 247.558C1122.19 247.155 1121.69 246.593 1120.97 245.871L1125.52 243.43L1125.81 243.84C1126.12 244.294 1126.36 244.666 1126.52 244.955Z" fill="#733DFF"/>
<path d="M1138.53 281.5L1138.89 281.491L1138.43 262.647L1138.22 262.685C1135.99 263.099 1133.29 262.817 1132.25 261.51C1131.19 260.17 1127.72 251.869 1126.29 248.473L1125.94 248.568C1127.43 252.212 1130.87 260.354 1131.97 261.744C1133.07 263.124 1135.83 263.456 1138.08 263.086L1138.53 281.5Z" fill="#733DFF"/>
<path d="M1141.5 245.418C1142.07 250.808 1143.45 254.597 1142.89 256.645C1142.33 258.675 1140.71 259.985 1138.43 261.51L1138.63 261.82C1140.97 260.249 1142.66 258.869 1143.24 256.745C1143.81 254.639 1142.43 250.813 1141.86 245.378L1141.5 245.418Z" fill="#733DFF"/>
<path d="M1124.26 277.902C1124.26 277.902 1135.05 281.841 1138.89 280.982C1144.41 279.748 1146.17 276.553 1146.17 276.553V279.161C1146.17 279.161 1144.4 282.553 1138.79 283.563C1134.75 284.291 1123.92 280.024 1123.92 280.024L1124.26 277.902Z" fill="#733DFF"/>
<path d="M1127.04 355.726C1127.04 355.726 1127.09 360.664 1126.76 361.918C1126.42 363.172 1126.46 364.142 1126.92 365.192C1127.38 366.242 1128.5 366.251 1129.3 366.887C1130.09 367.523 1132.4 370.75 1133.77 370.865C1135.13 370.98 1137.27 370.984 1138.39 370.511C1139.5 370.038 1140.64 369.045 1140.12 368.002C1139.61 366.958 1134.82 362.89 1134.04 362.05C1133.26 361.209 1132.61 358.34 1132.37 356.568C1132.13 354.796 1132.15 355.201 1132.15 355.201L1127.04 355.726Z" fill="#733DFF"/>
<path d="M1132.21 355.157C1132.21 355.157 1132.3 356.088 1132.37 356.568C1132.61 358.34 1133.26 361.209 1134.04 362.049C1134.82 362.89 1139.61 366.958 1140.12 368.002C1140.21 368.179 1140.25 368.356 1140.25 368.528L1139.56 368.17C1135.42 365.993 1133.62 364.336 1132.66 363.198C1131.72 362.087 1131.27 355.289 1131.27 355.289L1132.21 355.157Z" fill="black" fill-opacity="0.275213"/>
<path d="M1149.02 350.824C1149.02 350.824 1149.6 356.555 1149.42 357.689C1149.24 358.822 1149.01 361.002 1150.39 361.69C1151.77 362.378 1153.69 362.377 1154.58 363.149C1155.46 363.921 1155.67 365.946 1158.22 366.566C1160.77 367.187 1162.95 365.992 1163.04 364.819C1163.12 363.647 1162.89 363.086 1161.1 361.48C1159.31 359.873 1156.4 357.866 1155.38 356.163C1154.37 354.46 1154.36 350.678 1154.36 350.678C1154.36 350.678 1152.95 351.13 1151.96 351.157C1150.97 351.184 1149.02 350.824 1149.02 350.824Z" fill="#733DFF"/>
<path d="M1152.86 350.719L1154.36 350.678C1154.37 353.199 1154.7 355.028 1155.38 356.163C1156.4 357.866 1159.31 359.873 1161.1 361.48L1161.43 361.776C1162.76 363.01 1163.06 363.59 1163.05 364.479L1162.1 363.896C1157.55 361.101 1154.97 359.071 1154.35 357.806C1153.69 356.448 1153.19 354.086 1152.86 350.719Z" fill="black" fill-opacity="0.275213"/>
<path d="M1146.71 251.869L1147.15 252.514C1149.28 255.684 1150.44 258.06 1150.64 259.643C1150.82 261.015 1150.14 263.051 1148.61 265.751L1148.19 264.571L1148.18 264.582C1148.51 262.963 1148.67 261.55 1148.67 260.343C1148.67 258.409 1148.02 255.585 1146.71 251.869Z" fill="black" fill-opacity="0.275213"/>
<path d="M1127.72 274.645C1127.72 274.645 1128.1 275.307 1128.03 275.686C1127.68 277.389 1124.62 276.174 1124.62 276.174L1127.72 274.645Z" fill="#733DFF"/>
<path fill-rule="evenodd" clip-rule="evenodd" d="M1144.2 268.315L1142.72 251.869L1127.03 265.106L1123.43 261.766L1125.12 267.567L1131.89 264.77L1134.12 264.047L1135.44 268.702L1135.22 270.818L1124.61 276.202L1123.88 280.629L1144.2 268.315ZM1123.36 261.696L1123.3 261.646L1123.35 261.884L1123.36 261.696Z" fill="black" fill-opacity="0.275213"/>
<path d="M1131.98 253.122C1131.78 253.165 1131.63 253.337 1131.62 253.543L1131.11 265.224L1134.12 264.047L1135.4 268.442L1135.23 270.818L1132.43 272.114L1142.17 269.06C1142.35 269.004 1142.48 268.84 1142.49 268.651L1143.23 251.329C1143.24 251.035 1142.98 250.809 1142.69 250.869L1131.98 253.122Z" fill="#733DFF"/>
<path d="M1142.91 251.354C1143.06 251.361 1143.18 251.46 1143.22 251.593L1142.49 268.719C1142.48 268.846 1142.41 268.958 1142.3 269.014L1142.25 269.038L1135.74 271.076L1135.91 268.791L1134.64 264.396L1134.27 264.539L1134.12 264.047L1131.65 265.014L1132.14 253.816C1132.15 253.679 1132.23 253.56 1132.35 253.509L1132.41 253.49L1142.83 251.36C1142.86 251.355 1142.89 251.353 1142.91 251.354Z" fill="#D6D9FB"/>
<path fill-rule="evenodd" clip-rule="evenodd" d="M1141.36 253.07C1141.37 252.86 1141.53 252.687 1141.74 252.655L1142.02 252.611C1142.3 252.566 1142.56 252.797 1142.54 253.085L1142.43 254.772C1142.41 254.982 1142.26 255.154 1142.05 255.187L1141.77 255.231C1141.48 255.275 1141.23 255.045 1141.25 254.757L1141.36 253.07Z" fill="#ABBBD9"/>
<path d="M1141.19 253.07C1141.2 252.86 1141.36 252.687 1141.57 252.655L1141.85 252.611C1142.13 252.566 1142.39 252.797 1142.37 253.085L1142.26 254.772C1142.24 254.982 1142.09 255.154 1141.88 255.187L1141.6 255.231C1141.31 255.275 1141.06 255.045 1141.08 254.757L1141.19 253.07Z" fill="#733DFF"/>
<path fill-rule="evenodd" clip-rule="evenodd" d="M1141.89 253.828C1142.08 253.828 1142.23 253.661 1142.23 253.455C1142.23 253.25 1142.08 253.083 1141.89 253.083C1141.71 253.083 1141.55 253.25 1141.55 253.455C1141.55 253.661 1141.71 253.828 1141.89 253.828Z" fill="black"/>
<path fill-rule="evenodd" clip-rule="evenodd" d="M1141.89 254.852C1142.08 254.852 1142.23 254.685 1142.23 254.48C1142.23 254.274 1142.08 254.107 1141.89 254.107C1141.71 254.107 1141.55 254.274 1141.55 254.48C1141.55 254.685 1141.71 254.852 1141.89 254.852Z" fill="black"/>
<path opacity="0.212402" fill-rule="evenodd" clip-rule="evenodd" d="M1133.89 264.72L1136.35 261.543C1136.43 261.437 1136.5 261.327 1136.57 261.211C1136.8 260.807 1137.36 259.817 1137.53 259.508C1138.09 258.514 1139.34 257.605 1139.62 257.869C1139.9 258.133 1139.56 258.948 1139.11 259.883C1138.85 260.421 1139.1 261.12 1139.1 261.12L1141.67 260.272C1141.97 260.171 1142.28 260.416 1142.25 260.738L1141.88 264.752C1141.79 265.813 1141.09 266.728 1140.1 267.091L1138.56 267.654L1135.92 268.791L1135.83 268.48L1133.1 265.048L1133.89 264.72Z" fill="url(#paint1_linear)"/>
<path d="M1169.58 253.239C1168.7 252.734 1168.22 251.747 1168.36 250.746L1168.87 247.205C1168.96 246.583 1169.24 246.005 1169.68 245.552L1170.86 244.321C1171.04 244.135 1171.33 244.12 1171.53 244.287V244.287C1171.69 244.426 1171.75 244.655 1171.66 244.853L1171.19 245.954L1170.91 247.57L1173.34 245.747C1175.19 244.358 1177.84 245.68 1177.84 247.995V247.995C1177.84 248.429 1177.65 248.842 1177.32 249.129L1173.07 252.889C1172.1 253.742 1170.69 253.883 1169.58 253.239V253.239Z" fill="#FFAF8A"/>
<path d="M1135.39 226.847C1135.39 226.847 1137.02 230.136 1138.11 230.136C1139.21 230.136 1140.51 232.97 1140.51 232.97L1143.02 227.209L1134.27 221.855L1135.39 226.847Z" fill="black" fill-opacity="0.175153"/>
<path d="M1135.8 226.393C1135.8 226.393 1135.85 228.917 1134 229.869C1132.14 230.821 1130.71 233.407 1131.29 236.113C1131.88 238.819 1128.52 248.891 1128.52 248.891C1128.52 248.891 1127.9 245.328 1126.58 244.524C1125.25 243.72 1124.21 240.932 1123.98 238.949C1123.55 235.232 1124.72 224.579 1126.85 222.331C1128.98 220.083 1131.29 220.609 1131.29 220.609C1131.29 220.609 1135.38 219.317 1138.15 220.609C1140.92 221.9 1141.6 225.207 1142.81 226.098C1144.02 226.988 1141.43 231.018 1139.72 230.494C1138.01 229.97 1135.8 226.393 1135.8 226.393Z" fill="#0D134E"/>
<path d="M1134.91 264.021L1137.37 260.844C1137.45 260.739 1137.53 260.629 1137.59 260.513C1137.82 260.109 1138.38 259.119 1138.55 258.809C1139.11 257.816 1140.36 256.907 1140.64 257.171C1140.92 257.435 1140.58 258.249 1140.13 259.185C1139.87 259.722 1140.12 260.422 1140.12 260.422L1142.69 259.574C1142.99 259.473 1143.3 259.717 1143.27 260.039L1142.91 264.054C1142.81 265.115 1142.11 266.03 1141.12 266.393L1139.58 266.956L1136.55 268.188L1134.85 268.895L1134.12 264.35L1134.91 264.021Z" fill="#FFAF8A"/>
<path d="M873.795 323.277L876.609 321.284L872.859 319.141L872.763 319.086L872.699 318.995C872.509 318.725 872.187 318.583 871.859 318.641C871.78 318.655 871.702 318.681 871.629 318.717L845.703 331.746C845.403 331.896 845.207 332.218 845.215 332.575L847.111 417.324C847.119 417.707 847.327 418.049 847.644 418.227L870.853 431.197C871.116 431.344 871.435 431.339 871.693 431.182L904.931 411.012C905.192 410.853 905.359 410.56 905.359 410.236V403.552L884.923 390.228L884.739 390.108L884.703 389.892L873.591 323.768L873.539 323.459L873.795 323.277Z" fill="#F8FCFF" stroke="#E9EBFF"/>
<path d="M889.281 386.316L878.217 322.634C878.01 321.445 876.714 320.792 875.635 321.334L850.481 333.974C849.858 334.287 849.472 334.931 849.49 335.628L851.319 407.585L870.957 422.998C871.537 423.453 872.335 423.509 872.972 423.139L904.65 404.765C905.675 404.171 905.856 402.765 905.015 401.931L889.281 386.316Z" fill="#D6D9FB"/>
<path d="M887.424 371.856L887.379 371.814C887.114 371.588 886.731 371.604 886.484 371.837L886.421 371.906L872.514 389.124L851.889 390.06L852.573 413.811L852.294 414.156C852.085 414.415 852.087 414.786 852.288 415.041L852.348 415.108L881.066 443.206C881.474 443.605 882.077 443.702 882.581 443.461L882.687 443.404L919.475 421.558C919.509 421.538 919.542 421.517 919.573 421.494C920.134 421.092 920.309 420.334 920.012 419.725L916.905 387.109L898.396 387.949L887.503 371.952C887.48 371.918 887.453 371.886 887.424 371.856L887.379 371.814L887.424 371.856Z" fill="#5C66C0"/>
<path d="M883.334 406.492L881.804 443.928L851.319 421.029L851.061 389.827L883.334 406.492Z" fill="#4A529E"/>
<path d="M886.107 369.237C886.384 369.074 886.727 369.072 887.007 369.231L915.869 385.627C917.077 386.314 917.084 388.053 915.881 388.75L884.225 407.076C883.679 407.392 883.008 407.4 882.455 407.096L852.449 390.59C851.838 390.254 851.825 389.379 852.427 389.026L886.107 369.237Z" fill="#D6D9FB"/>
<path d="M882.318 371.648L874.329 330.111C874.172 329.29 873.272 328.847 872.526 329.223L854.907 338.09C854.45 338.321 854.177 338.804 854.217 339.315L857.933 386.598L882.318 399.453L905.859 386.209L882.318 371.648Z" fill="#0D134E"/>
<path d="M907.904 314.533C907.904 314.533 913.232 320.327 913.794 322.639C914.356 324.952 914.558 332.538 913.794 336.358C913.03 340.179 908.327 344.625 908.327 352.579C908.327 360.532 911.099 387.045 911.099 389.068C911.099 391.092 908.695 406.885 909.256 408.512C909.817 410.139 908.75 413.501 908.327 415.118C907.904 416.734 907.412 424.853 909.256 426.44C911.099 428.027 914.498 428.609 914.498 424.944C914.498 421.278 914.1 418.502 914.498 416.81C914.896 415.118 914.1 411.743 914.498 410.92C914.896 410.096 916.023 409.304 916.446 407.417C916.869 405.53 921.168 389.019 921.168 386.539C921.168 384.059 923.556 363.536 923.556 363.536C923.556 363.536 923.719 373.037 924.296 375.41C924.873 377.782 925.017 379.21 924.945 380.1C924.873 380.99 923.141 385.585 923.141 391.131C923.141 395.056 922.452 398.567 922.478 400.719C922.488 401.607 923.019 402.416 923.141 402.686C923.556 403.611 921.985 409.222 923.141 410.475C924.296 411.729 926.26 410.088 928.304 411.729C930.349 413.369 932.694 415.549 934.889 415.118C937.084 414.686 937.385 411.862 935.034 409.64C932.684 407.417 928.304 404.577 928.304 403.752C928.304 402.927 929.475 402.42 929.475 400.719C929.475 399.017 933.868 384.675 933.868 378.856C933.868 373.037 933.941 352.429 933.868 349.026C933.796 345.624 931.337 339.664 931.127 337.777C930.792 334.764 933.868 327.058 933.868 325.432C933.868 322.788 933.868 324.123 933.868 324.123C933.868 324.123 935.208 329.575 936.101 331.384C936.995 333.193 945.651 344.452 945.651 344.452L948.942 341.344C948.942 341.344 942.763 327.328 942.409 326.385C942.055 325.441 936.045 305.688 933.896 304.703C931.413 303.566 928.286 302.625 919.887 306.346C911.255 310.17 907.904 314.533 907.904 314.533Z" fill="#380085"/>
<path d="M933.896 315.986L941.973 339.632L940.498 337.668C938.017 334.345 936.563 332.271 936.134 331.446L936.102 331.384C935.526 330.218 934.812 327.917 933.958 324.483L933.869 324.123L933.896 315.986Z" fill="black" fill-opacity="0.275213"/>
<path d="M931.927 340.863L931.939 340.854L932.403 342.352C932.562 342.871 932.723 343.404 932.876 343.941C929.457 345.725 925.815 346.617 921.95 346.617C917.796 346.617 913.89 345.768 910.234 344.071C910.652 343.131 911.1 342.26 911.533 341.44C914.967 343.203 918.439 344.015 921.95 343.878C925.451 343.741 928.777 342.736 931.927 340.863Z" fill="#733DFF"/>
<path d="M914.499 319.834C918.361 324.534 921.843 329.659 924.946 335.21L926.505 337.99C928.797 342.065 931.258 346.387 933.889 350.958L933.896 352.598V352.598L911.862 340.824L912.376 339.855C913.036 338.594 913.576 337.451 913.795 336.359C914.558 332.538 914.356 324.952 913.795 322.639C913.775 322.557 913.75 322.472 913.721 322.383L914.499 319.834Z" fill="black" fill-opacity="0.275213"/>
<path d="M911.567 410.655C912.219 410.903 913.24 410.914 914.627 410.689C914.579 410.766 914.535 410.843 914.498 410.92C914.1 411.743 914.896 415.118 914.498 416.81C914.1 418.502 914.498 421.278 914.498 424.944C914.498 428.609 911.099 428.027 909.256 426.44C907.412 424.853 907.904 416.734 908.327 415.118L908.435 414.718C908.842 413.224 909.552 410.777 909.392 409.175C910.366 409.982 911.091 410.475 911.567 410.655Z" fill="#733DFF"/>
<path d="M926.066 403.683C926.762 403.776 927.516 403.734 928.327 403.558C928.312 403.621 928.305 403.686 928.305 403.752C928.305 404.577 932.684 407.417 935.035 409.64C937.386 411.862 937.085 414.686 934.89 415.118C932.695 415.549 930.35 413.369 928.305 411.729C926.26 410.088 924.297 411.729 923.141 410.475C922.033 409.273 923.432 404.065 923.183 402.823C924.135 403.268 925.097 403.554 926.066 403.683Z" fill="#733DFF"/>
<path d="M931.127 303.618C932.158 305.816 932.289 306.484 932.289 306.857C932.289 307.732 929.579 309.597 929.191 309.128C929.008 308.907 926.752 304.801 926.236 304.189C927.973 303.745 929.701 303.517 931.127 303.618Z" fill="#733DFF"/>
<path d="M919.887 306.346C925.005 304.078 928.166 303.542 930.416 303.726C930.86 304.421 931.107 305.192 931.107 306.003C931.107 309.089 927.531 311.592 923.119 311.592C919.889 311.592 917.107 310.25 915.849 308.32L916.094 308.188C917.26 307.564 918.524 306.95 919.887 306.346Z" fill="black" fill-opacity="0.275213"/>
<path d="M924.183 309.571C926.024 309.014 925.918 307.373 925.918 307.373V305.777C925.918 305.777 927.778 307.021 929.494 306.476C931.21 305.931 931.925 302.703 932.579 299.39C933.234 296.076 932.579 292.103 932.579 292.103L924.595 290.206L918.006 293.782C918.006 293.782 920.113 302.859 920.113 304.668C920.113 306.476 919.771 306.856 920.113 307.373C920.455 307.891 922.342 310.129 924.183 309.571Z" fill="#FFAF8A"/>
<path d="M924.595 290.206L932.579 292.103C932.692 292.786 932.775 293.454 932.83 294.108L931.415 294.83C928.027 296.572 925.752 297.824 924.59 298.586C922.535 299.933 923.95 304.635 923.243 306.239C922.93 306.948 922.344 307.8 921.485 308.797C920.79 308.258 920.276 307.62 920.113 307.373C919.784 306.876 920.088 306.506 920.112 304.87L920.113 304.668C920.113 303.563 919.523 300.422 918.342 295.245L918.006 293.782L924.595 290.206Z" fill="black" fill-opacity="0.175153"/>
<path d="M925.157 305.256C925.255 305.256 925.508 305.487 925.917 305.948L925.918 307.374C925.985 308.42 925.459 309.136 924.339 309.521L924.151 309.581V309.581L924.479 307.94C924.846 306.15 925.072 305.256 925.157 305.256Z" fill="black" fill-opacity="0.175153"/>
<path d="M928.956 293.56C929.751 293.115 930.663 295.373 932.906 295.373C935.149 295.373 936.845 292.313 935.826 290.951C934.806 289.59 933.492 289.807 932.542 288.303C931.593 286.799 931.298 285.301 929.493 285.005C927.688 284.71 925.897 285.965 924.594 285.965C923.29 285.965 922.01 284.275 919.695 285.481C917.379 286.687 917.75 292.576 916.446 293.56C915.141 294.543 911.333 297.767 912.653 300.208C913.973 302.649 917.088 301.619 915.794 304.439C914.499 307.259 915.151 309.685 915.151 309.685L919.695 306.951C919.695 306.951 922.001 307.685 922.001 306.136C922.001 304.586 920.692 303.176 922.001 301.952C923.311 300.729 921.285 299.156 922.001 297.897C922.718 296.637 926.744 297.552 927.688 296.666C928.632 295.78 928.16 294.004 928.956 293.56Z" fill="#380085"/>
<path d="M915.502 308.384L916.282 307.875L916.741 308.513C917.266 309.251 917.655 309.833 917.91 310.259L919.031 312.199C919.225 312.556 919.113 312.434 919.113 312.67C919.113 313.545 915.962 315.409 915.511 314.94L915.465 314.899C915.364 314.827 915.459 315.069 914.518 313.809L913.916 312.991C913.559 312.502 912.888 311.778 911.905 310.82C913.05 310.017 914.291 309.179 915.502 308.384V308.384Z" fill="#733DFF"/>
<path d="M927.86 328.061C927.86 329.98 927.449 335.17 926.627 343.621L926.988 343.658C927.811 335.192 928.223 329.998 928.223 328.061C928.223 326.111 927.656 323.3 926.524 319.622L926.478 319.473L926.328 319.493C923.109 319.914 920.983 319.454 919.939 318.142C919.394 317.457 917.541 314.704 917.284 314.354C917.157 314.181 917.066 314.051 917.012 313.963C916.99 313.927 916.975 313.901 916.968 313.885L916.97 313.89C916.994 313.95 916.995 314.007 916.887 314.072L916.704 313.75C916.576 313.827 916.586 313.916 916.633 314.03C916.649 314.066 916.672 314.109 916.706 314.163C916.766 314.261 916.862 314.398 916.994 314.578C917.254 314.932 919.11 317.689 919.658 318.378C920.783 319.791 922.975 320.283 926.223 319.882C927.315 323.454 927.86 326.183 927.86 328.061Z" fill="#733DFF"/>
<path d="M930.523 308.172C931.086 310.106 931.086 312.1 930.523 314.156C929.963 316.199 928.542 317.987 926.251 319.522L926.45 319.834C928.809 318.253 930.286 316.394 930.872 314.257C931.454 312.134 931.454 310.068 930.871 308.065L930.523 308.172Z" fill="#733DFF"/>
<path d="M931.796 347.114C931.796 347.114 935.743 354.528 930.889 351.216C930.668 351.064 930.21 350.751 930.21 350.751C930.21 350.751 914.277 339.902 913.196 337.777C912.116 335.653 905.621 316.225 907.904 314.532C910.188 312.84 914.635 315.589 915.281 318.253C915.928 320.917 918.77 331.604 919.84 332.217C920.909 332.83 931.796 347.114 931.796 347.114Z" fill="#380085"/>
<path d="M1140.16 424.541C1140.16 424.541 1137.09 423.406 1137.09 421.546C1137.09 419.686 1137.32 406.032 1138.01 404.447C1138.7 402.862 1143.44 384.817 1145.7 382.284C1147.95 379.751 1157.72 377.132 1162.22 377.132C1166.72 377.132 1178.07 381.423 1180.55 383.75C1183.03 386.076 1175.8 391.323 1175.8 396.224C1175.8 401.124 1174.25 411.501 1175.03 415.239C1175.8 418.978 1176.48 429.93 1176.48 429.93C1176.48 429.93 1175.96 454.432 1176.48 465.189C1176.57 466.986 1177.1 469.512 1177.26 471.364C1177.54 474.591 1178.41 481.622 1178.2 491.149C1178.17 492.525 1177.26 494.819 1177.26 494.819C1177.26 494.819 1175.09 495.534 1174.03 495.386C1172.97 495.238 1171.08 493.955 1171.08 493.955C1171.08 493.955 1170.15 492.087 1169.93 491.149C1167.35 480.144 1166.53 473.916 1166.53 472.694C1166.53 470.706 1166.53 466.178 1166.53 466.178L1161.84 438.457C1161.84 438.457 1158.49 457.727 1156.7 461.463C1156.11 462.708 1157.6 463.092 1157.38 467.638C1157.25 470.275 1156.13 480.154 1155.25 485.277C1155.02 486.582 1154.23 488.765 1154.23 488.765C1154.23 488.765 1151.94 490.229 1150.83 490.229C1149.72 490.229 1147.85 488.765 1147.85 488.765C1147.85 488.765 1147.02 487.423 1147.02 485.277C1147.02 483.131 1147.02 464.153 1147.02 461.463C1147.02 457.029 1149.7 415.606 1149.7 410.964C1149.7 406.321 1148.79 396.224 1148.79 396.224L1145.7 405.733C1145.7 405.733 1144.65 423.987 1143.55 423.987C1142.44 423.987 1140.16 424.541 1140.16 424.541Z" fill="#380085"/>
<path d="M1172.66 474.905L1192.41 463.18C1193.1 462.774 1193.51 462.038 1193.51 461.242V438.377C1193.51 437.59 1193.1 436.86 1192.43 436.452L1187.69 433.568C1186.97 433.133 1186.08 433.13 1185.36 433.561L1165.66 445.387C1164.98 445.795 1164.57 446.528 1164.57 447.319V470.241C1164.57 471.043 1164.99 471.785 1165.69 472.188L1170.37 474.915C1171.08 475.325 1171.95 475.322 1172.66 474.905Z" fill="#F8FCFF" stroke="#E9EBFF" stroke-width="0.6144"/>
<path d="M1170.52 449.363L1164.55 445.97C1164.38 446.251 1164.28 446.567 1164.26 446.899L1164.26 447.01V470.555C1164.26 471.233 1164.6 471.862 1165.15 472.226L1165.24 472.284L1170.56 475.375C1170.83 475.535 1171.13 475.621 1171.44 475.632L1171.52 451.108C1171.52 450.383 1171.14 449.714 1170.52 449.363Z" fill="#5C66C0"/>
<path d="M1185.65 433.035L1185.54 433.092L1165.22 445.294C1164.94 445.462 1164.71 445.696 1164.54 445.97L1170.24 449.118C1171.03 449.555 1172 449.542 1172.78 449.084L1192.15 437.693C1192.27 437.625 1192.37 437.533 1192.45 437.422C1192.75 437.003 1192.69 436.421 1192.31 436.084L1192.25 436.032L1191.9 435.771L1187.51 433.098C1186.97 432.771 1186.32 432.733 1185.75 432.985L1185.65 433.035Z" fill="#D0D4FF"/>
<path d="M1180.42 435.254C1180.84 435 1181.36 434.999 1181.77 435.253L1188.32 439.29C1189.07 439.756 1189.54 440.581 1189.54 441.469V443.852L1176.59 450.873C1176.15 451.115 1175.61 451.115 1175.16 450.872L1175.15 450.864C1174.67 450.607 1174.38 450.111 1174.38 449.572V449.572C1174.38 449.053 1174.1 448.573 1173.66 448.308L1167.05 444.387C1166.91 444.307 1166.74 444.333 1166.63 444.449V444.449L1166.98 443.881C1167.19 443.535 1167.48 443.244 1167.82 443.032L1180.42 435.254Z" fill="#380085"/>
<path d="M1181.4 434.729C1181.81 434.491 1182.32 434.497 1182.72 434.745L1189.29 438.793C1190.04 439.259 1190.5 440.084 1190.5 440.972V442.613C1190.5 443.072 1190.26 443.496 1189.86 443.724L1177.26 450.945C1176.41 451.434 1175.35 450.818 1175.35 449.834V449.695C1175.35 448.792 1174.87 447.956 1174.09 447.494L1168.44 444.133C1168.02 443.885 1167.5 443.894 1167.09 444.155L1166.63 444.449L1166.65 444.343C1166.79 443.62 1167.24 442.993 1167.88 442.622L1181.4 434.729Z" fill="#959FFA"/>
<path d="M1181.61 437.079L1181.56 437.108C1181.56 437.108 1171.56 442.853 1171.41 443.169C1171.29 443.395 1172.96 444.453 1173.91 445.034C1174.31 445.275 1174.8 445.274 1175.2 445.041L1184.86 439.393C1184.92 439.359 1184.97 439.313 1185.01 439.259C1185.16 439.05 1185.13 438.761 1184.94 438.594L1184.91 438.568L1184.74 438.438L1182.54 437.111C1182.27 436.948 1181.95 436.929 1181.67 437.054L1181.61 437.079Z" fill="#380085"/>
<path d="M1190.42 448.221L1176.1 456.364C1175.69 456.596 1175.18 456.445 1174.95 456.025C1174.72 455.605 1174.87 455.075 1175.28 454.843L1189.6 446.7C1190.01 446.467 1190.52 446.619 1190.75 447.039C1190.97 447.459 1190.83 447.988 1190.42 448.221Z" fill="#FF623F"/>
<path d="M1182.93 438.646V433.91C1182.93 432.923 1181.86 432.307 1181.01 432.803L1175.22 436.165C1174.44 436.623 1173.95 437.466 1173.95 438.378V443.653" stroke="#733DFF" stroke-width="2.88" stroke-linecap="round"/>
<path d="M1190.16 440.372L1175.75 448.801C1175.58 448.904 1175.36 448.842 1175.26 448.664C1175.16 448.485 1175.22 448.257 1175.39 448.155L1189.8 439.726C1189.97 439.623 1190.19 439.685 1190.29 439.864C1190.39 440.042 1190.33 440.27 1190.16 440.372Z" fill="#D0D4FF"/>
<path d="M1152.21 381.079L1153.22 383.172C1154.72 386.28 1157.81 388.247 1161.19 388.247H1161.68C1164.92 388.247 1167.89 386.448 1169.46 383.548L1170.79 381.087L1170.48 380.906L1169.15 383.367C1167.64 386.149 1164.78 387.874 1161.68 387.874H1161.19C1157.95 387.874 1154.99 385.988 1153.55 383.007L1152.54 380.914L1152.21 381.079Z" fill="#733DFF"/>
<path d="M1149.08 392.897L1148.8 396.279L1148.79 396.224V396.224L1145.7 405.733L1145.56 407.997C1145 417.191 1144.42 422.421 1143.83 423.685L1142.9 423.685L1143.43 412.939C1143.59 409.625 1143.69 407.38 1143.72 406.204L1143.74 405.48C1143.74 404.331 1145.22 400.73 1148.2 394.676L1149.08 392.897Z" fill="black" fill-opacity="0.275213"/>
<path d="M1140.8 421.119C1143.74 420.304 1146.94 425.961 1146.11 427.164C1145.28 428.368 1144.9 425.246 1143.53 425.246C1142.15 425.246 1142.69 429.763 1142.69 430.525C1142.69 431.288 1145.39 435.065 1144.46 435.516C1143.53 435.968 1140.8 431.232 1140.8 430.525C1140.8 429.818 1141.04 433.092 1141.61 434.304C1142.19 435.516 1141.58 436.263 1141.19 436.263C1140.8 436.263 1139.45 432.665 1139.13 431.124C1139.07 430.87 1139.22 432.332 1139.22 433.566C1139.22 433.958 1139.59 435.167 1139.59 435.516C1139.59 436.488 1139.05 436.82 1139.01 436.643C1138.94 436.273 1137.92 432.488 1137.7 431.124C1137.32 428.864 1137.7 426.679 1137.7 425.932C1137.7 424.247 1137.87 421.934 1140.8 421.119Z" fill="#FFAF8A"/>
<path d="M1174.86 495.253C1175.71 495.253 1176.51 495.111 1177.26 494.827L1177.56 495.618C1180.46 503.371 1181.7 508.002 1181.28 509.513C1180.63 511.855 1178.03 512.738 1175.75 510.327C1173.47 507.916 1173.43 506.25 1172.95 504.16C1172.47 502.069 1171.08 501.372 1170.93 500.064L1170.91 499.869C1170.84 498.919 1170.89 496.979 1171.07 494.049C1172.17 494.852 1173.43 495.253 1174.86 495.253Z" fill="#733DFF"/>
<path d="M1154.3 488.557L1154.23 488.765V488.765L1154.49 490.263C1154.97 493.062 1155.15 494.686 1155.02 495.135C1154.96 495.351 1154.44 495.935 1153.16 496.338C1152.3 496.61 1150.66 497.595 1150.16 498.443C1148.93 500.545 1147.15 501.756 1145.7 502.328L1145.45 502.422C1142.67 503.409 1137.21 503.751 1142.08 497.833L1142.24 497.646C1145.71 493.512 1147.58 490.579 1147.84 488.848C1148.69 489.431 1149.65 489.722 1150.7 489.722C1152.02 489.722 1153.22 489.334 1154.3 488.557Z" fill="#733DFF"/>
<path d="M1160.25 416.181C1166.06 416.629 1167.98 416.434 1174.99 415.082C1175 415.136 1175.01 415.189 1175.03 415.24C1175.2 416.073 1175.37 417.174 1175.53 418.544C1167.44 419.691 1162.98 419.61 1159.44 419.183C1155.06 418.655 1149.53 415.95 1149.53 415.95C1149.53 415.95 1149.61 413.958 1149.64 413.509C1152.7 415.082 1154.44 415.732 1160.25 416.181Z" fill="#733DFF"/>
<path d="M1149.53 407.366L1151 407.616C1152.24 407.828 1153.15 408.929 1153.15 410.219C1153.15 411.265 1152.32 412.113 1151.3 412.113C1151.2 412.113 1151.1 412.104 1151 412.087L1149.69 411.864L1149.69 411.276C1149.7 411.174 1149.7 411.07 1149.7 410.964L1149.69 410.524C1149.68 409.679 1149.62 408.627 1149.53 407.366Z" fill="#733DFF"/>
<path d="M1174.82 413.2L1172.81 413.2C1171.61 413.2 1170.63 412.199 1170.63 410.964C1170.63 409.773 1171.54 408.8 1172.68 408.732L1172.81 408.728L1174.94 408.728C1174.84 410.382 1174.78 411.925 1174.82 413.2Z" fill="#733DFF"/>
<path d="M1175.72 395.6L1175.8 396.116L1175.8 396.224C1175.8 401.03 1174.31 411.104 1174.98 415.016L1175.13 415.76C1175.59 418.274 1176.02 422.717 1176.43 429.087C1174.59 430.543 1171.29 419.816 1171.45 416.491C1171.61 413.165 1174.38 406.018 1175.65 396.107L1175.72 395.6Z" fill="black" fill-opacity="0.275213"/>
<path d="M1180.35 427.723C1179.45 427.353 1178.77 428.984 1177.85 429.415C1175.26 430.622 1174.23 433.567 1173.95 434.639C1173.81 435.191 1173.97 435.618 1173.97 435.618C1173.97 435.618 1176.04 434.289 1176.93 434.289C1177.76 434.289 1177.75 434.985 1177.5 435.876C1177.44 436.1 1176.74 436.952 1176.43 437.048C1176.26 437.101 1176.06 436.963 1175.85 437.048C1175.53 437.179 1175.22 437.546 1175.21 437.669C1175.18 437.909 1175.49 438.486 1176.43 438.627C1177.03 438.717 1177.49 438.717 1178.08 438.254C1178.66 437.805 1179.04 439.676 1180.35 438.254C1180.53 438.052 1181.32 438.442 1181.94 437.686C1182.11 437.473 1182.97 438.042 1183.07 436.893C1183.21 435.085 1182.99 434.162 1183.07 433.424C1183.26 431.551 1183.34 428.961 1180.35 427.723Z" fill="#FFAF8A"/>
<path d="M1153.72 378.556L1154.96 381.618C1155.43 382.767 1154.92 384.086 1153.81 384.592C1152.78 385.063 1151.58 384.624 1151.06 383.611L1150.98 383.437V383.437L1149.55 379.897C1150.83 379.406 1152.27 378.95 1153.72 378.556Z" fill="#733DFF"/>
<path d="M1173.88 380.238L1172.28 383.505C1171.73 384.623 1170.42 385.101 1169.31 384.592L1169.21 384.548V384.548C1168.23 384.038 1167.81 382.834 1168.24 381.809L1168.3 381.686L1169.74 378.741C1171.13 379.19 1172.55 379.702 1173.88 380.238Z" fill="#733DFF"/>
<path d="M1162.22 377.132C1164.57 377.132 1168.81 378.309 1172.66 379.764L1172.67 379.835L1172.67 379.965C1172.67 382.434 1168.77 384.436 1163.96 384.436C1159.15 384.436 1155.25 382.434 1155.25 379.965C1155.25 379.246 1155.58 378.567 1156.16 377.965C1158.46 377.448 1160.66 377.132 1162.22 377.132Z" fill="black" fill-opacity="0.275213"/>
<path d="M1175.38 393.894C1175.38 393.894 1178.82 406.493 1178.82 407.469C1178.82 408.445 1177.49 427.038 1177.36 428.864C1177.22 430.69 1180.61 430.5 1182.42 430.5C1184.23 430.5 1186.45 411.991 1187.2 409.357C1187.95 406.724 1181.07 384.531 1181.07 384.531L1175.38 393.894Z" fill="#380085"/>
<path d="M1161.32 388.041C1160.44 396.715 1160 403.008 1160 406.924V418.513H1160.36V406.924C1160.36 403.024 1160.8 396.741 1161.68 388.08L1161.32 388.041Z" fill="#733DFF"/>
<path d="M1160.32 380.674C1162.02 380.916 1164.46 379.591 1165.57 378.913C1165.93 378.695 1166.09 378.259 1165.98 377.852C1165.71 376.764 1165.27 374.606 1165.65 373.139C1166.17 371.105 1167.13 366.48 1167.13 366.48C1167.13 366.48 1167.28 358.814 1163.73 358.114C1160.18 357.414 1154.74 358.292 1153.88 361.86C1153.02 365.429 1154.54 373.33 1156.08 374.642C1157.27 375.656 1157.2 377.586 1157.1 378.41C1157.07 378.66 1157.12 378.917 1157.29 379.104C1157.71 379.574 1158.69 380.442 1160.32 380.674Z" fill="#FFAF8A"/>
<path d="M1163.43 373.038L1163.16 373.581C1161.67 376.48 1160.42 377.93 1159.4 377.93C1158.76 377.93 1158.03 377.789 1157.2 377.508C1157.22 376.723 1157.08 376.055 1156.78 375.502C1157.84 376.141 1158.71 376.346 1159.4 376.119C1160.38 375.798 1161.72 374.771 1163.43 373.038Z" fill="black" fill-opacity="0.175153"/>
<path d="M1153.42 365.282C1156.14 364.989 1159.39 361.483 1160.11 361.924C1160.82 362.364 1160.43 364.526 1162.05 364.352C1163.66 364.178 1164.34 363.279 1164.78 364.352C1165.22 365.424 1165.31 369.273 1165.88 369.211C1166.45 369.15 1166.34 364.534 1166.85 364.479C1167.36 364.424 1167.92 365.046 1167.92 365.046C1167.92 365.046 1167.92 362.452 1167.71 360.406C1167.5 358.359 1166.61 357.147 1164.68 356.285C1162.75 355.423 1158.25 356.979 1158.25 356.979C1158.25 356.979 1156.58 355.538 1155.12 355.696C1153.65 355.854 1152.22 359.247 1151.65 359.665C1151.08 360.084 1149.05 359.954 1148.83 360.462C1148.6 360.969 1150.69 365.576 1153.42 365.282Z" fill="#380085"/>
<path d="M1166.62 364.622C1166.62 364.622 1167.96 364.264 1168.23 364.953C1168.49 365.641 1168.01 368.676 1167.68 368.962C1167.35 369.249 1166.31 368.962 1166.31 368.962C1166.31 368.962 1166.23 367.161 1166.31 366.43C1166.38 365.699 1166.62 364.622 1166.62 364.622Z" fill="#FFAF8A"/>
<path fill-rule="evenodd" clip-rule="evenodd" d="M1036.47 518.984C1036.47 519.091 1036.41 519.19 1036.32 519.244L1029.96 523.022C1029.86 523.079 1029.74 523.079 1029.65 523.022L1023.27 519.244C1023.18 519.19 1023.13 519.091 1023.13 518.984V514.197C1023.13 514.089 1023.18 513.989 1023.28 513.935L1029.65 510.264C1029.74 510.21 1029.86 510.21 1029.95 510.264L1036.32 513.935C1036.41 513.989 1036.47 514.089 1036.47 514.197V518.984Z" fill="url(#paint2_linear)"/>
<path d="M1030.06 516.348C1029.92 516.431 1029.75 516.431 1029.61 516.348L1026.32 514.411C1026.21 514.344 1026.21 514.178 1026.32 514.11L1029.6 512.167C1029.75 512.083 1029.92 512.083 1030.06 512.167L1033.34 514.11C1033.46 514.178 1033.46 514.344 1033.34 514.411L1030.06 516.348Z" fill="#31347A"/>
<path d="M1029.68 524.408L1029.83 551.828" stroke="#5C66C0" stroke-width="7" stroke-linecap="round"/>
<path d="M1029.69 517.89L1023.13 514.109V514.109L1023.13 514.16V534.543C1023.13 534.611 1023.16 534.675 1023.2 534.719L1023.24 534.748L1029.94 538.55C1030 538.582 1030.07 538.588 1030.13 538.566L1030.17 538.546L1036.36 534.75C1036.41 534.716 1036.45 534.66 1036.47 534.597L1036.47 534.548V514.16C1036.47 514.126 1036.46 514.094 1036.45 514.065L1029.98 517.889C1029.89 517.941 1029.78 517.942 1029.69 517.89L1023.15 514.062L1029.69 517.89Z" fill="#F8FCFF"/>
<path d="M1029.69 517.89L1023.13 514.109V514.109L1023.13 514.16V534.543C1023.13 534.611 1023.16 534.675 1023.2 534.719L1023.25 534.748L1029.94 538.55C1029.98 538.569 1030.02 538.579 1030.05 538.579L1029.81 517.928C1029.77 517.925 1029.73 517.912 1029.69 517.89L1023.15 514.062L1029.69 517.89Z" fill="#D6D9FB"/>
<path fill-rule="evenodd" clip-rule="evenodd" d="M1113.62 470.856C1113.62 470.963 1113.57 471.061 1113.48 471.116L1107.11 474.894C1107.02 474.951 1106.9 474.951 1106.8 474.894L1100.43 471.116C1100.34 471.061 1100.28 470.963 1100.28 470.856V466.069C1100.28 465.961 1100.34 465.861 1100.43 465.807L1106.8 462.136C1106.89 462.082 1107.01 462.082 1107.1 462.136L1113.47 465.807C1113.57 465.861 1113.62 465.961 1113.62 466.069V470.856Z" fill="url(#paint3_linear)"/>
<path d="M1107.22 468.22C1107.08 468.303 1106.9 468.303 1106.76 468.22L1103.48 466.283C1103.36 466.216 1103.36 466.05 1103.48 465.982L1106.76 464.039C1106.9 463.955 1107.07 463.955 1107.21 464.039L1110.5 465.983C1110.61 466.05 1110.61 466.216 1110.5 466.283L1107.22 468.22Z" fill="#31347A"/>
<path d="M1106.84 476.28L1106.95 503.842" stroke="#5C66C0" stroke-width="7" stroke-linecap="round"/>
<path d="M1106.85 469.762L1100.29 465.981V465.981L1100.28 466.032V486.418C1100.28 486.485 1100.31 486.548 1100.36 486.592L1100.4 486.621L1106.84 490.443C1106.9 490.476 1106.97 490.483 1107.03 490.463L1107.07 490.443L1113.51 486.621C1113.57 486.587 1113.61 486.531 1113.62 486.467L1113.62 486.418V466.032C1113.62 465.998 1113.62 465.966 1113.61 465.936L1107.13 469.761C1107.04 469.813 1106.93 469.813 1106.85 469.762L1100.3 465.934L1106.85 469.762Z" fill="#F8FCFF"/>
<path d="M1106.84 469.762L1100.29 465.981V465.981L1100.28 466.032V486.418C1100.28 486.485 1100.31 486.548 1100.36 486.592L1100.4 486.621L1106.84 490.443C1106.88 490.465 1106.92 490.476 1106.97 490.474L1106.96 469.799C1106.92 469.794 1106.88 469.782 1106.84 469.762L1100.3 465.934L1106.84 469.762Z" fill="#D6D9FB"/>
<path fill-rule="evenodd" clip-rule="evenodd" d="M889.728 432.043C889.728 432.15 889.671 432.249 889.579 432.303L883.214 436.081C883.119 436.138 883 436.138 882.905 436.081L876.532 432.303C876.44 432.249 876.384 432.15 876.384 432.043V427.256C876.384 427.148 876.442 427.048 876.535 426.994L882.905 423.323C882.998 423.27 883.113 423.27 883.207 423.323L889.576 426.994C889.67 427.048 889.728 427.148 889.728 427.256V432.043Z" fill="url(#paint4_linear)"/>
<path d="M883.319 429.407C883.179 429.49 883.005 429.49 882.865 429.407L879.581 427.47C879.466 427.403 879.466 427.237 879.581 427.169L882.863 425.226C883.003 425.142 883.178 425.142 883.318 425.226L886.6 427.17C886.714 427.237 886.714 427.403 886.6 427.47L883.319 429.407Z" fill="#31347A"/>
<path d="M882.939 437.467V465.433" stroke="#5C66C0" stroke-width="7" stroke-linecap="round"/>
<path d="M882.949 430.949L876.39 427.169V427.169L876.385 427.219V447.605C876.385 447.672 876.413 447.735 876.46 447.779L876.499 447.808L882.946 451.63C883.002 451.664 883.07 451.67 883.131 451.65L883.175 451.63L889.614 447.808C889.671 447.775 889.71 447.718 889.723 447.654L889.728 447.605V427.219C889.728 427.186 889.722 427.153 889.709 427.124L883.233 430.948C883.145 431 883.037 431.001 882.949 430.949L876.405 427.121L882.949 430.949Z" fill="#F8FCFF"/>
<path d="M882.948 430.949L876.389 427.169V427.169L876.384 427.219V447.605C876.384 447.672 876.412 447.735 876.459 447.779L876.498 447.808L882.945 451.63C882.983 451.653 883.026 451.663 883.069 451.661L883.059 430.986C883.021 430.982 882.983 430.969 882.948 430.949L876.405 427.121L882.948 430.949Z" fill="#D6D9FB"/>
<path fill-rule="evenodd" clip-rule="evenodd" d="M953.304 385.468C953.304 385.574 953.36 385.673 953.452 385.728L959.818 389.506C959.913 389.562 960.031 389.562 960.126 389.506L966.499 385.728C966.591 385.673 966.647 385.574 966.647 385.468V380.681C966.647 380.573 966.59 380.473 966.496 380.419L960.127 376.748C960.033 376.694 959.918 376.694 959.825 376.748L953.455 380.419C953.361 380.473 953.304 380.573 953.304 380.681V385.468Z" fill="url(#paint5_linear)"/>
<path d="M959.713 382.832C959.853 382.915 960.027 382.915 960.167 382.832L963.451 380.895C963.566 380.828 963.566 380.662 963.451 380.594L960.17 378.65C960.029 378.567 959.854 378.567 959.714 378.65L956.432 380.594C956.318 380.662 956.318 380.828 956.432 380.895L959.713 382.832Z" fill="#31347A"/>
<path d="M960.094 390.892L959.337 427.453" stroke="#5C66C0" stroke-width="7" stroke-linecap="round"/>
<path d="M960.083 384.374L966.642 380.593V380.593L966.647 380.644V401.03C966.647 401.097 966.62 401.16 966.572 401.204L966.533 401.233L960.086 405.055C960.03 405.089 959.962 405.095 959.902 405.075L959.857 405.055L953.418 401.233C953.361 401.199 953.322 401.143 953.309 401.079L953.304 401.03V380.644C953.304 380.61 953.311 380.578 953.323 380.548L959.799 384.373C959.887 384.425 959.995 384.425 960.083 384.374L966.627 380.546L960.083 384.374Z" fill="#F8FCFF"/>
<path d="M960.084 384.374L966.643 380.593V380.593L966.648 380.644V401.03C966.648 401.097 966.62 401.16 966.573 401.204L966.534 401.233L960.087 405.055C960.049 405.078 960.006 405.088 959.963 405.086L959.973 384.411C960.011 384.406 960.049 384.394 960.084 384.374L966.627 380.546L960.084 384.374Z" fill="#D6D9FB"/>
<path d="M871.837 413.079C866.91 416.086 866.937 423.251 871.887 426.22L1020.16 515.169C1025 518.073 1031.04 518.087 1035.9 515.206L1117.24 466.938C1122.22 463.982 1122.26 456.787 1117.32 453.774L969.065 363.491C964.153 360.5 957.982 360.503 953.074 363.499L871.837 413.079Z" fill="#5C66C0"/>
<path d="M1020.45 508.86L872.406 421.203C867.713 418.424 867.709 411.634 872.399 408.85L953.491 360.718C958.162 357.945 963.974 357.943 968.648 360.711L1116.81 448.46C1121.5 451.241 1121.5 458.038 1116.8 460.817L1035.59 508.863C1030.92 511.624 1025.12 511.623 1020.45 508.86Z" fill="#F8FCFF" stroke="#E9EBFF"/>
<path d="M1012.65 445.406L1044.48 426.515C1044.79 426.332 1044.98 426.002 1044.98 425.644V407.921C1044.98 407.559 1044.78 407.225 1044.47 407.044L1012.62 388.689C1012.31 388.509 1011.92 388.509 1011.61 388.689L979.763 407.044C979.45 407.225 979.257 407.559 979.257 407.921V425.644C979.257 426.001 979.445 426.332 979.753 426.515L1011.62 445.406C1011.94 445.595 1012.33 445.595 1012.65 445.406Z" fill="#F8FCFF" stroke="#D0D4FE"/>
<path d="M1011.32 426.816L979.257 408.055V425.828C979.257 426.048 979.36 426.249 979.523 426.373L979.594 426.42L1011.82 445.524C1011.99 445.627 1012.2 445.639 1012.38 445.561L1012.46 445.517L1044.65 426.414C1044.82 426.311 1044.94 426.127 1044.97 425.915L1044.97 425.889L1044.97 425.734L1044.97 425.146C1044.97 424.639 1044.97 423.914 1044.97 423.044C1044.96 421.304 1044.96 418.983 1044.95 416.657C1044.94 414.332 1044.93 412.002 1044.92 410.244C1044.91 409.372 1044.91 408.641 1044.9 408.123L1013.25 426.812C1012.66 427.164 1011.92 427.166 1011.32 426.816Z" fill="#F8FCFF" stroke="url(#paint6_linear)"/>
<path d="M1011.58 426.385L978.86 407.245C978.81 407.358 978.777 407.48 978.763 407.606L978.756 407.734V425.828C978.756 426.209 978.936 426.564 979.235 426.783L979.328 426.844L1011.56 445.954C1011.75 446.066 1011.96 446.118 1012.17 446.111L1012.14 426.57C1011.94 426.549 1011.75 426.487 1011.58 426.385L978.86 407.245L1011.58 426.385Z" fill="#D6D9FB"/>
<path fill-rule="evenodd" clip-rule="evenodd" d="M999.714 423.725C999.559 423.635 999.366 423.746 999.366 423.925V425.849C999.366 426.014 999.453 426.166 999.596 426.249L1007.53 430.866C1007.68 430.956 1007.87 430.845 1007.87 430.667V428.757C1007.87 428.592 1007.79 428.44 1007.64 428.357L999.714 423.725Z" fill="white"/>
<path d="M1000 423.893L1007.7 428.388C1007.79 428.441 1007.85 428.532 1007.87 428.636L1007.87 428.7L1007.87 430.379L1000.18 425.92C1000.09 425.867 1000.02 425.775 1000.01 425.671L1000 425.607L1000 423.893Z" fill="#959FFA"/>
<path fill-rule="evenodd" clip-rule="evenodd" d="M999.714 428.144C999.559 428.054 999.366 428.165 999.366 428.344V430.268C999.366 430.433 999.453 430.585 999.596 430.668L1007.53 435.285C1007.68 435.375 1007.87 435.264 1007.87 435.085V433.175C1007.87 433.011 1007.79 432.859 1007.64 432.776L999.714 428.144Z" fill="white"/>
<path d="M1000 428.312L1007.7 432.806C1007.79 432.86 1007.85 432.951 1007.87 433.055L1007.87 433.118L1007.87 434.798L1000.18 430.338C1000.09 430.285 1000.02 430.194 1000.01 430.089L1000 430.026L1000 428.312Z" fill="#959FFA"/>
<path d="M975.078 445.715C975.46 445.495 975.927 445.481 976.321 445.68L983.066 449.08V450.105C983.066 450.537 982.853 450.94 982.498 451.184L969.738 459.935C969.326 460.218 968.789 460.241 968.354 459.995L961.515 456.127C961.104 455.895 960.851 455.459 960.851 454.988V453.932L975.078 445.715Z" fill="#733DFF"/>
<path d="M974.993 444.784C975.419 444.515 975.961 444.514 976.387 444.782L982.632 448.701C983.13 449.013 983.145 449.733 982.66 450.065L969.749 458.911C969.331 459.197 968.786 459.217 968.348 458.961L961.303 454.837C960.775 454.528 960.762 453.77 961.28 453.443L974.993 444.784Z" fill="#D6D9FB"/>
<path d="M965.388 456.348C965.805 456.348 966.144 456.175 966.144 455.96C966.144 455.746 965.805 455.572 965.388 455.572C964.97 455.572 964.631 455.746 964.631 455.96C964.631 456.175 964.97 456.348 965.388 456.348Z" fill="#733DFF"/>
<path d="M974.916 445.519C975.303 445.27 975.801 445.27 976.188 445.519L981.068 448.65C981.556 448.963 981.571 449.67 981.098 450.004L971.209 456.975C970.83 457.242 970.328 457.262 969.929 457.025L964.351 453.712C963.83 453.402 963.817 452.651 964.327 452.324L974.916 445.519Z" fill="white"/>
<path d="M1005.13 489.528L980.684 475.03C980.684 475.619 980.987 476.156 981.477 476.433L1005.13 490.446C1005.64 490.741 1006.27 490.741 1006.75 490.446L1023.19 480.694C1023.68 480.4 1023.98 479.863 1023.98 479.291L1006.75 489.511C1006.25 489.823 1005.64 489.823 1005.13 489.528Z" fill="#733DFF"/>
<path d="M1023.98 479.356L1006.72 489.614C1006.21 489.91 1005.59 489.91 1005.1 489.614L980.611 475.062L998.677 464.334L1023.98 479.356Z" fill="#D6D9FB"/>
<path d="M1011.18 484.468L1020.85 478.748L999.168 465.882L989.501 471.585L1011.18 484.468Z" fill="#733DFF"/>
<path d="M997.968 483.181L1002.63 480.417L995.568 476.227L990.904 478.991L997.968 483.181Z" fill="#733DFF"/>
<path d="M1023.98 479.326V459.764C1023.98 459.227 1023.7 458.725 1023.26 458.465L999.077 444.131C998.925 444.044 998.74 444.148 998.74 444.339V464.369L1023.98 479.326Z" fill="#D6D9FB"/>
<path d="M999.743 463.727V445.818L1022.81 459.527V477.436L999.743 463.727Z" fill="white"/>
<path d="M1023.99 479.326V479.326C1024.42 479.014 1024.65 478.512 1024.65 477.976V459.363C1024.65 458.827 1024.37 458.325 1023.91 458.065L1000.26 444.11C999.836 443.868 999.329 443.868 998.906 444.11V444.11V444.11L1023.23 458.463C1023.69 458.74 1023.98 459.225 1023.98 459.762V479.326H1023.99Z" fill="#733DFF"/>
<path d="M944.622 435.19L920.171 420.692C920.171 421.281 920.475 421.818 920.964 422.095L944.622 436.108C945.129 436.403 945.753 436.403 946.242 436.108L962.678 426.356C963.168 426.062 963.471 425.525 963.471 424.953L946.242 435.173C945.736 435.485 945.129 435.485 944.622 435.19Z" fill="#733DFF"/>
<path d="M963.464 425.018L946.209 435.276C945.702 435.572 945.077 435.572 944.587 435.276L920.098 420.724L938.165 409.996L963.464 425.018Z" fill="#D6D9FB"/>
<path d="M950.672 430.13L960.339 424.41L938.656 411.544L928.989 417.246L950.672 430.13Z" fill="#733DFF"/>
<path d="M937.455 428.843L942.119 426.079L935.055 421.889L930.391 424.653L937.455 428.843Z" fill="#733DFF"/>
<path d="M963.472 424.988V405.425C963.472 404.889 963.185 404.387 962.746 404.127L938.564 389.793C938.413 389.706 938.227 389.81 938.227 390.001V410.03L963.472 424.988Z" fill="#D6D9FB"/>
<path d="M939.23 409.389V391.48L962.302 405.189V423.098L939.23 409.389Z" fill="white"/>
<path d="M963.481 424.988V424.988C963.903 424.676 964.14 424.174 964.14 423.637V405.025C964.14 404.489 963.853 403.986 963.396 403.727L939.746 389.772C939.324 389.529 938.816 389.529 938.394 389.772V389.772V389.772L962.72 404.125C963.176 404.402 963.464 404.887 963.464 405.423V424.988H963.481Z" fill="#733DFF"/>
<path d="M1028.93 505.252C1032.27 505.252 1034.98 503.515 1034.98 501.371C1034.98 499.227 1032.27 497.49 1028.93 497.49C1025.58 497.49 1022.87 499.227 1022.87 501.371C1022.87 503.515 1025.58 505.252 1028.93 505.252Z" fill="#FF623F"/>
<path d="M1107.59 457.124C1110.93 457.124 1113.64 455.387 1113.64 453.243C1113.64 451.1 1110.93 449.362 1107.59 449.362C1104.25 449.362 1101.54 451.1 1101.54 453.243C1101.54 455.387 1104.25 457.124 1107.59 457.124Z" fill="#FF623F"/>
<path d="M885.208 416.759C888.55 416.759 891.26 415.021 891.26 412.878C891.26 410.734 888.55 408.997 885.208 408.997C881.866 408.997 879.157 410.734 879.157 412.878C879.157 415.021 881.866 416.759 885.208 416.759Z" fill="#FF623F"/>
<path d="M963.874 368.631C967.216 368.631 969.926 366.893 969.926 364.75C969.926 362.606 967.216 360.868 963.874 360.868C960.532 360.868 957.823 362.606 957.823 364.75C957.823 366.893 960.532 368.631 963.874 368.631Z" fill="#FF623F"/>
<path d="M1112.04 550.096L1105.76 578.997L1068.67 556.089C1067.97 555.655 1067.6 554.832 1067.76 554.019L1072.65 527.897C1072.75 527.403 1073.02 526.962 1073.42 526.662L1073.84 526.348L1112.04 550.096Z" fill="#4A529E"/>
<path d="M1110.02 507.669C1109.03 507.131 1107.83 507.136 1106.85 507.681L1074.86 525.406C1073.5 526.162 1073.49 528.119 1074.84 528.892L1111.98 550.099L1119.22 512.676L1110.02 507.669Z" fill="#D6D9FB"/>
<path d="M1112.95 543.783L1084.04 527.007L1107.26 513.885L1117.94 519.43L1112.95 543.783Z" fill="#0D134E"/>
<path d="M1151.69 480.737L1148.15 478.571C1147.7 478.291 1147.13 478.276 1146.65 478.531L1121.46 492.208C1121.05 492.428 1120.77 492.823 1120.69 493.278L1106.31 578.735L1111.34 581.586L1152.29 482.589C1152.57 481.908 1152.32 481.123 1151.69 480.737Z" fill="#F8FCFF" stroke="#E9EBFF"/>
<path d="M1154.34 483.018C1154.37 481.471 1152.7 480.487 1151.35 481.252L1126.06 495.658C1125.53 495.959 1125.17 496.483 1125.07 497.083L1111.59 582.3L1150.19 558.929C1152.13 557.753 1153.33 555.661 1153.36 553.391L1154.34 483.018Z" fill="#5C66C0"/>
<path d="M948.095 340.686C949.254 340.988 950.037 341.348 950.392 341.756C950.531 341.915 951.25 342.539 951.686 343.134C952.361 344.054 952.766 345.024 952.431 345.024C952.174 345.024 951.835 344.795 951.226 344.271C951.005 344.081 950.668 343.824 950.401 343.565L950.248 343.416L952.354 347.981L952.513 348.735C952.76 349.944 952.843 350.572 952.761 350.619C952.648 350.685 952.254 350.06 951.581 348.745L951.491 348.57L950.106 346.485L950.392 347.452C951.193 350.202 951.471 351.577 951.226 351.577C950.953 351.577 950.246 350.08 949.105 347.087L949.254 347.856C949.799 350.727 949.946 352.162 949.693 352.162C949.419 352.162 948.887 350.748 948.095 347.919C948.374 350.748 948.374 352.162 948.095 352.162C947.689 352.162 947.566 349.681 946.871 348.068L946.805 347.919C946.302 346.85 945.744 345.743 945.133 343.565C945.133 343.565 945.427 341.658 946.291 341.246C947.155 340.833 948.095 340.686 948.095 340.686Z" fill="#FFAF8A"/>
<path d="M954.18 347.707L954.164 347.637C953.741 348.363 953.006 348.882 952.368 348.944L952.242 348.95C951.048 348.95 949.594 350.504 948.583 351.478L947.692 352.32C946.702 353.242 945.3 354.36 943.092 354.36C940.355 354.36 937.773 352.211 936.952 349.912C936.926 349.838 936.812 349.711 936.655 349.555C936.647 349.702 936.643 349.851 936.643 350.001C936.643 355.146 940.707 359.316 945.72 359.316C950.733 359.316 954.434 355.146 954.434 350.001C954.434 349.21 954.346 348.441 954.18 347.707L954.164 347.637L954.18 347.707Z" fill="#733DFF"/>
<path d="M953.536 346.162C952.243 344.308 949.248 344.004 947.826 344.889C946.404 345.774 945.977 347.131 943.83 347.131C941.683 347.131 935.913 347.702 936.735 350.001C937.556 352.3 940.356 354.36 943.093 354.36C945.831 354.36 947.33 352.642 948.34 351.708C949.351 350.774 951.326 348.992 952.62 348.992C953.913 348.992 954.83 348.017 953.536 346.162Z" fill="#1B215B"/>
<path d="M952.416 346.456C951.947 345.8 951.101 345.426 950.203 345.308C949.302 345.189 948.415 345.337 947.903 345.648C947.642 345.806 947.417 346.013 947.193 346.245C947.11 346.332 947.022 346.428 946.932 346.526C946.794 346.676 946.65 346.833 946.509 346.972C946.015 347.458 945.413 347.878 944.453 347.878C944.332 347.878 944.203 347.877 944.068 347.876C943.208 347.869 942.085 347.861 941.122 348.086C940.568 348.216 940.094 348.418 939.761 348.722C939.438 349.017 939.233 349.422 939.233 350.001C939.233 350.602 939.39 351.055 939.646 351.402C939.904 351.753 940.274 352.013 940.726 352.205C941.637 352.591 942.831 352.676 943.937 352.676C945.834 352.676 946.949 351.639 947.764 350.881C947.854 350.797 947.94 350.717 948.023 350.643C948.132 350.544 948.258 350.427 948.394 350.299C948.753 349.965 949.191 349.555 949.639 349.199C949.951 348.952 950.278 348.722 950.599 348.553C950.917 348.385 951.25 348.267 951.571 348.267C952.052 348.267 952.481 348.095 952.677 347.819C952.852 347.574 952.908 347.145 952.416 346.456Z" fill="#9286FF" fill-opacity="0.193018" stroke="#6262AD" stroke-width="0.5"/>
<path d="M936.894 350.001C936.894 355.014 940.852 359.066 945.721 359.066C950.59 359.066 954.548 355.014 954.548 350.001C954.548 344.988 950.59 340.936 945.721 340.936C940.852 340.936 936.894 344.988 936.894 350.001Z" fill="#9286FF" fill-opacity="0.193018" stroke="#F8F8F8" stroke-width="0.5"/>
<path d="M939.495 345.73C939.495 346.456 935.655 347.182 936.053 347.514L936.122 347.566C936.499 347.825 937.751 348.441 939.877 349.414C941.756 349.883 942.696 350.308 942.696 350.692C942.696 351.075 941.682 351.075 939.654 350.692L938.8 350.5L939.131 350.685C939.816 351.059 940.278 351.26 940.519 351.287L940.79 351.297C941.324 351.33 942.353 351.476 942.353 351.919C942.353 352.436 940.534 352.801 939.654 352.603C939.067 352.472 938.471 352.333 937.866 352.188C938.585 352.791 939.255 353.093 939.877 353.093L940.377 353.095C941.067 353.107 941.567 353.181 941.567 353.644C941.567 354.213 939.122 354.058 938.435 354.058C937.977 354.058 937.537 353.972 937.113 353.801C938.218 354.377 938.955 354.666 939.324 354.666L939.793 354.662C940.334 354.663 940.928 354.718 940.704 355.145C940.489 355.554 939.257 355.569 938.328 355.547L937.491 355.526C937.03 355.526 934.339 353.847 929.419 350.487C929.419 349.834 929.478 349.245 929.604 348.665C929.775 347.884 930.167 347.367 930.569 346.818L932.097 346.138C933.435 345.892 934.307 345.757 934.715 345.734L934.963 345.724C935.922 345.657 939.495 345.042 939.495 345.73Z" fill="#FFAF8A"/>
<path d="M915.375 494.793H922.161C922.53 494.793 922.891 494.906 923.193 495.118L924.391 495.956C925.352 496.628 925.421 498.02 924.503 498.751C923.495 499.554 922.211 500.528 921.072 501.242C920.029 501.896 917.443 503.335 914.92 504.718C912.297 506.154 909.137 504.125 909.33 501.14L909.696 495.493L915.375 494.793Z" fill="#733DFF"/>
<path d="M891.135 491.187C890.606 491.496 890.273 492.057 890.253 492.674L890.144 496.089L890.14 497.259C890.137 498.206 890.864 499.004 891.808 499.045C892.607 499.079 893.452 499.088 893.736 498.994C895.212 498.507 895.914 497.04 896.309 496.834C897.268 496.332 898.8 494.752 898.8 494.752L902.429 493.362C903.409 492.987 903.852 491.848 903.388 490.896L903.146 490.398C902.877 489.845 902.347 489.464 901.739 489.388L896.142 488.688C895.752 488.639 895.358 488.72 895.021 488.917L891.135 491.187Z" fill="#733DFF"/>
<path d="M897.242 389.215C897.242 389.215 898.127 386.83 898.823 383.518C899.519 380.206 896.692 371.934 896.692 371.934L909.921 366.957C909.921 366.957 910.194 373.643 910.194 377.078C910.194 379.76 908.952 381.767 908.406 382.519C908.249 382.735 908.017 382.88 907.76 382.95L905.958 383.445L906.898 389.215L904.395 391.67L897.242 389.215Z" fill="#FFAF8A"/>
<path d="M920.922 405.791L929.603 396.858C930.068 396.379 930.172 395.654 929.859 395.064V395.064L920.799 389.551C920.444 389.336 919.988 389.388 919.691 389.677L910.876 398.277L920.922 405.791Z" fill="#733DFF"/>
<path d="M919.818 389.553L911.31 397.853L920.921 405.043L929.787 395.919C929.927 395.775 929.994 395.585 929.988 395.398C929.969 395.324 929.945 395.253 929.915 395.183L929.858 395.064L920.643 389.457C920.378 389.296 920.041 389.335 919.818 389.553Z" fill="#D6D9FB"/>
<path d="M921.012 404.05L928.828 396.093C929.199 395.715 929.119 395.089 928.664 394.817L920.895 390.164C920.589 389.98 920.199 390.017 919.932 390.253L911.941 397.337L921.012 404.05Z" fill="white"/>
<path d="M920.046 390.152L911.942 397.337L921.012 404.05L921.896 403.151C922.802 399.031 923.258 395.176 923.267 391.583L920.763 390.084C920.534 389.947 920.246 389.975 920.046 390.152Z" fill="black" fill-opacity="0.169362"/>
<path d="M911.866 395.848L916.388 397.526C917.455 397.922 918.646 397.626 919.394 396.778V396.778C919.906 396.199 919.218 395.322 918.529 395.668C918.354 395.756 918.223 395.819 918.155 395.848C917.693 396.039 917.072 394.978 917.072 394.978L920.374 393.898C921.155 393.642 921.524 392.747 921.115 392.02C920.667 391.221 920.111 390.328 919.742 390.076C919.156 389.674 915.815 389.937 914.676 390.039C914.425 390.062 914.19 390.157 913.993 390.311L910.4 393.11L911.866 395.848Z" fill="#FFAF8A"/>
<mask id="mask0" mask-type="alpha" maskUnits="userSpaceOnUse" x="910" y="389" width="12" height="9">
<path d="M911.866 395.848L916.388 397.526C917.455 397.922 918.646 397.626 919.394 396.778V396.778C919.906 396.199 919.218 395.322 918.529 395.668C918.354 395.756 918.223 395.819 918.155 395.848C917.693 396.039 917.072 394.978 917.072 394.978L920.374 393.898C921.155 393.642 921.524 392.747 921.115 392.02C920.667 391.221 920.111 390.328 919.742 390.076C919.156 389.674 915.815 389.937 914.676 390.039C914.425 390.062 914.19 390.157 913.993 390.311L910.4 393.11L911.866 395.848Z" fill="white"/>
</mask>
<g mask="url(#mask0)">
</g>
<path d="M898.258 385.66L890.754 387.127C890.477 387.181 890.235 387.349 890.083 387.588L890.03 387.682L882.156 403.332C881.229 405.173 881.376 407.391 882.536 409.087C882.631 409.225 882.736 409.353 882.853 409.471C883.892 410.527 885.546 410.555 886.619 409.564L886.735 409.449L891.432 404.457L891.903 413.104C892.606 416.235 892.364 419.508 891.213 422.491L891.082 422.821C891.082 422.821 889.438 428.761 888.724 433.457C888.01 438.153 889.272 469.574 889.272 469.574L889.759 490.751C889.772 491.311 890.208 491.764 890.754 491.784L891.432 491.804C892.414 491.826 893.063 491.806 893.377 491.742C894.466 491.522 895.277 490.785 895.786 490.506L895.89 490.453C896.793 490.047 897.532 483.238 898.107 470.026L898.127 469.574C898.127 469.574 899.654 443.043 899.731 443.202L904.574 473.543L907.982 497.201C907.993 497.274 908.008 497.346 908.027 497.417C908.282 498.356 909.23 498.904 910.145 498.643L910.657 498.494C912.471 497.96 913.588 497.543 914.011 497.242C914.56 496.851 915.266 495.708 916.131 493.813C916.22 493.619 916.273 493.409 916.288 493.196L916.293 493.035L915.954 472.91C915.954 472.91 912.466 431.22 912.256 425.75C912.028 419.81 912.727 414.88 914.355 410.962L914.51 410.597L919.537 418.887C920.258 420.075 921.501 420.818 922.856 420.88L923.041 420.884H924.298C924.451 420.884 924.604 420.873 924.755 420.849C926.372 420.598 927.499 419.089 927.335 417.438L927.316 417.283L925 401.59L921.285 405.354L917.139 394.218C917.073 394.041 916.962 393.886 916.819 393.769L916.729 393.703L907.47 387.653C904.241 388.137 901.898 388.137 900.442 387.653C899.049 387.19 898.322 386.562 898.262 385.769L898.258 385.66Z" fill="#380085"/>
<path d="M892.044 419.517L892.406 419.589C893.329 419.773 894.222 419.155 894.401 418.208C894.573 417.302 894.029 416.424 893.174 416.188L893.056 416.16L892.284 416.006C892.332 417.182 892.251 418.36 892.044 419.517Z" fill="#733DFF"/>
<path d="M891.239 423.201L891.083 423.597C890.828 424.454 890.588 425.284 890.363 426.086C892.499 426.855 894.763 427.377 897.153 427.653C900.908 428.087 905.958 428.025 912.301 427.467L912.263 426.686V426.686L912.257 426.526C912.229 425.809 912.215 425.107 912.215 424.419L911.853 424.455C911.795 424.461 911.738 424.466 911.683 424.47C905.841 424.956 900.9 424.773 897.617 424.47C895.432 424.269 893.306 423.846 891.239 423.201Z" fill="#733DFF"/>
<path d="M912.643 417.37L909.574 417.372C908.634 417.372 907.872 418.154 907.872 419.118C907.872 420.043 908.572 420.799 909.457 420.861L909.574 420.865L912.29 420.864C912.36 419.647 912.477 418.483 912.643 417.37Z" fill="#733DFF"/>
<path d="M896.299 386.044L892.752 386.737C892.547 391.254 895.034 394.205 900.027 395.079C905.1 395.967 909.314 394.556 912.476 390.924L909.557 389.018C907.221 391.466 904.256 392.376 900.599 391.635C898.124 391.134 896.046 389.394 896.299 386.044Z" fill="#733DFF"/>
<path d="M891.415 398.55L886.033 409.978C886.241 409.869 886.438 409.731 886.619 409.564L886.735 409.449L891.415 404.474L891.415 398.55Z" fill="black" fill-opacity="0.275213"/>
<path d="M923.047 403.603L921.286 405.354L923.977 413.262L923.047 403.603Z" fill="black" fill-opacity="0.275213"/>
<path d="M912.459 404.594C912.329 404.649 912.246 404.779 912.247 404.923L912.369 416.797C912.372 417.061 912.468 417.301 912.626 417.485C912.975 415.083 913.545 412.923 914.337 411.005L914.51 410.598L916.787 414.35L912.908 404.784C912.836 404.604 912.634 404.519 912.459 404.594Z" fill="black" fill-opacity="0.275213"/>
<path d="M1060.17 484.607L1082.93 471.109C1082.93 471.658 1082.65 472.158 1082.2 472.416L1060.17 485.461C1059.7 485.736 1059.12 485.736 1058.66 485.461L1043.36 476.383C1042.9 476.108 1042.62 475.609 1042.62 475.076L1058.66 484.591C1059.13 484.881 1059.7 484.881 1060.17 484.607Z" fill="#733DFF"/>
<path d="M1042.63 475.137L1058.69 484.687C1059.17 484.962 1059.75 484.962 1060.2 484.687L1083 471.139L1066.18 461.152L1042.63 475.137Z" fill="#D6D9FB"/>
<path d="M1054.54 479.896L1045.54 474.571L1065.73 462.593L1074.73 467.902L1054.54 479.896Z" fill="#733DFF"/>
<path d="M1066.84 478.698L1062.5 476.124L1069.08 472.223L1073.42 474.797L1066.84 478.698Z" fill="#733DFF"/>
<path d="M1042.62 475.109V456.896C1042.62 456.397 1042.89 455.929 1043.3 455.688L1065.81 442.343C1065.95 442.262 1066.12 442.359 1066.12 442.536V461.184L1042.62 475.109Z" fill="#D6D9FB"/>
<path d="M1065.19 460.586V443.914L1043.71 456.677V473.349L1065.19 460.586Z" fill="white"/>
<path d="M1042.61 475.109V475.109C1042.22 474.819 1042 474.351 1042 473.852V456.524C1042 456.024 1042.27 455.557 1042.69 455.315L1064.71 442.323C1065.1 442.098 1065.58 442.098 1065.97 442.323V442.323V442.323L1043.32 455.686C1042.9 455.944 1042.63 456.395 1042.63 456.895V475.109H1042.61Z" fill="#733DFF"/>
<path d="M913.37 370.122C913.822 371.302 912.963 373.151 912.585 375.093C912.366 376.222 912.654 377.151 912.585 377.444C912.548 377.603 911.229 377.103 911.02 376.494C910.764 375.751 911.248 373.9 911.02 373.887C908.546 373.745 909.715 378.263 904.849 383.16C903.171 384.848 898.498 383.792 898.498 383.792C898.498 383.792 895.941 380.111 895.683 376.309C895.072 367.312 903.621 364.923 905.149 366.839C908.115 364.691 912.268 367.246 913.37 370.122Z" fill="#0D134E"/>
<path d="M897.007 372.047H897.401C898.688 372.047 899.73 373.089 899.73 374.375V374.375C899.73 375.662 898.688 376.704 897.401 376.704H897.007V372.047Z" fill="#5C66C0"/>
<path d="M898.078 375.581V375.581C895.511 376.98 893.852 379.665 894.498 382.516C894.752 383.639 895.12 384.898 895.652 386.218C897.486 390.768 894.65 400.991 894.65 400.991C894.65 400.991 893.024 394.117 891.167 392.061C889.31 390.006 888.305 387.898 887.437 384.506C887.189 383.536 886.96 381.284 886.759 378.56C886.305 372.418 893.594 369.058 898.126 373.23V373.23C898.126 373.23 898.853 373.507 898.853 374.39C898.853 375.273 898.078 375.581 898.078 375.581Z" fill="#0D134E"/>
<path d="M875.469 505.85L881.743 534.75L918.835 511.843C919.539 511.408 919.902 510.585 919.75 509.772L914.852 483.65C914.759 483.156 914.485 482.715 914.082 482.415L913.661 482.101L875.469 505.85Z" fill="#4A529E"/>
<path d="M877.489 463.422C878.477 462.884 879.672 462.889 880.656 463.434L912.641 481.159C914.005 481.915 914.018 483.872 912.663 484.645L875.522 505.852L868.289 468.429L877.489 463.422Z" fill="#D6D9FB"/>
<path d="M874.559 499.536L903.465 482.761L880.24 469.638L869.569 475.183L874.559 499.536Z" fill="#0D134E"/>
<path d="M835.819 436.491L839.351 434.324C839.808 434.044 840.38 434.029 840.851 434.284L866.05 447.962C866.455 448.182 866.737 448.576 866.813 449.031L881.192 534.488L876.165 537.339L835.217 438.342C834.936 437.661 835.191 436.876 835.819 436.491Z" fill="#F8FCFF" stroke="#E9EBFF"/>
<path d="M833.161 438.771C833.139 437.225 834.806 436.24 836.15 437.005L861.448 451.411C861.976 451.712 862.338 452.236 862.433 452.837L875.92 538.053L837.312 514.682C835.371 513.507 834.172 511.414 834.141 509.145L833.161 438.771Z" fill="#5C66C0"/>
<path d="M951.11 556.306L957.384 585.207L994.476 562.299C995.18 561.865 995.544 561.042 995.391 560.229L990.493 534.107C990.401 533.613 990.126 533.172 989.723 532.872L989.302 532.558L951.11 556.306Z" fill="#4A529E"/>
<path d="M953.13 513.879C954.118 513.341 955.313 513.345 956.297 513.891L988.282 531.616C989.646 532.372 989.659 534.329 988.304 535.102L951.163 556.309L943.93 518.886L953.13 513.879Z" fill="#D6D9FB"/>
<path d="M950.2 549.993L979.106 533.217L955.881 520.095L945.21 525.64L950.2 549.993Z" fill="#0D134E"/>
<path d="M911.46 486.947L914.993 484.781C915.449 484.501 916.021 484.485 916.492 484.741L941.691 498.418C942.096 498.638 942.378 499.033 942.454 499.488L956.833 584.945L951.806 587.795L910.859 488.799C910.577 488.118 910.832 487.333 911.46 486.947Z" fill="#F8FCFF" stroke="#E9EBFF"/>
<path d="M908.802 489.228C908.78 487.681 910.447 486.697 911.792 487.462L937.089 501.868C937.617 502.169 937.979 502.693 938.074 503.293L951.561 588.51L912.954 565.139C911.012 563.963 909.813 561.871 909.782 559.601L908.802 489.228Z" fill="#5C66C0"/>
<path d="M986.886 472.018C986.886 472.018 987.744 472.742 988.876 473.149C990.009 473.555 991.389 474.799 992.133 474.154C992.877 473.508 990.83 472.313 990.914 471.703C990.953 471.42 992.4 470.728 993.923 469.981C995.695 469.111 997.571 469.385 997.446 468.923C997.212 468.064 992.713 468.784 992.713 468.784C992.713 468.784 996.941 467.807 996.847 467.062C996.753 466.317 992.488 466.989 992.488 466.989C992.488 466.989 995.971 466.224 995.635 465.355C995.299 464.485 992.185 465.171 992.185 465.171C992.185 465.171 994.02 464.023 993.579 463.709C993.383 463.569 992.09 463.237 989.706 465.151C989.109 465.631 987.871 466.112 986.521 467.237C986.054 467.627 985.248 468.845 985.248 468.845L986.886 472.018Z" fill="#FFAF8A"/>
<path d="M949.59 478.909C954.883 473.734 961.342 479.849 968.203 477.499C975.064 475.149 982.914 467.519 985.375 468.539C987.837 469.56 988.863 471.572 987.19 473.7C985.516 475.827 974.916 484.487 972.337 486.063C969.758 487.639 952.154 490.861 952.154 490.861C952.154 490.861 944.298 484.084 949.59 478.909Z" fill="#380085"/>
<path d="M951.096 478.175C943.38 484.511 950.485 510.862 948.274 514.409C946.063 517.957 945.121 527.5 952.432 530.481C957.219 532.433 959.754 533.704 962.681 533.462C964.224 533.335 966.847 533.185 967.853 531.629C970.769 527.122 968.573 509.929 970.948 506.041C973.323 502.152 975.538 488.656 972.95 484.511C970.362 480.367 954.199 475.627 951.096 478.175Z" fill="#380085"/>
<path d="M965.546 478.971L965.516 478.909C969.053 480.699 971.967 482.936 972.951 484.511C975.502 488.596 973.387 501.763 971.052 505.866L970.949 506.041C969.893 507.769 969.741 512.122 969.641 516.823L967.854 517.78C969.265 505.443 969.265 495.205 967.854 487.065C967.3 483.866 966.576 481.266 965.681 479.267L965.516 478.909L965.546 478.971Z" fill="black" fill-opacity="0.28827"/>
<path d="M1005.49 549.215C1005.49 549.215 1005.24 551.591 1006.99 553.016C1008.74 554.442 1013.55 552.451 1015.96 555.126C1017.33 556.657 1015.06 558.934 1010.71 560.198C1007.46 561.14 1002.67 561.598 1001.11 561.22C998.653 560.626 999.887 549.871 999.887 549.871L1005.49 549.215Z" fill="#733DFF"/>
<path d="M970.407 515.96C970.407 515.96 952.328 521.888 956.04 530.789C958.513 536.719 976.43 531.873 988.947 525.872C989.898 525.416 990.637 526.825 990.637 529.374C990.637 531.924 996.747 548.711 997.492 551.27C998.238 553.828 1002.32 553.34 1003.46 552.97C1004.61 552.601 1006.96 551.883 1006.96 549.711C1006.96 547.538 1003.09 516.477 997.739 514.407C992.383 512.337 970.407 515.96 970.407 515.96Z" fill="#380085"/>
<path d="M968.919 507.138L964.177 507.565C963.24 507.649 962.548 508.496 962.63 509.457C962.708 510.378 963.47 511.069 964.357 511.051L964.473 511.044L967.895 510.789C968.406 510.751 968.807 510.334 968.825 509.823L968.88 508.267C968.901 507.667 968.393 507.186 967.796 507.239L964.177 507.565L968.919 507.138Z" fill="#733DFF"/>
<path d="M948.412 507.138L949.373 507.565C950.309 507.649 951.002 508.496 950.92 509.457C950.841 510.378 950.08 511.069 949.192 511.051L949.076 511.044L949.008 511.004C948.715 510.828 948.531 510.517 948.519 510.177L948.449 508.188C948.432 507.702 948.928 507.367 949.373 507.565V507.565L948.412 507.138Z" fill="#733DFF"/>
<path d="M948.504 516.861C954.466 518.544 960.088 519.153 969.126 516.965L969.055 513.664C969.055 513.664 957.616 515.294 949.376 513.616C949.096 513.558 948.58 513.464 948.58 513.464C948.58 513.464 948.114 514.314 947.973 514.832C947.782 515.534 947.395 516.393 947.395 516.393C947.395 516.393 948.172 516.768 948.504 516.861Z" fill="#733DFF"/>
<path d="M993.357 523.245C994.879 524.198 1002.32 534.196 1000.54 553.239C999.208 553.122 997.885 552.621 997.492 551.27C996.767 548.784 991.23 532.606 991.216 529.356L991.216 529.107C991.216 526.624 989.848 525.477 989.018 525.839L987.718 526.456L988.047 526.035C990.222 523.321 991.992 522.391 993.357 523.245Z" fill="black" fill-opacity="0.28827"/>
<path d="M1002.13 483.555C1002.13 483.555 1001.76 482.455 1001.79 481.206C1001.82 479.957 1001.15 478.158 1002.03 477.674C1002.92 477.19 1003.3 479.618 1003.9 479.762C1004.19 479.829 1005.37 478.679 1006.64 477.477C1008.11 476.078 1009.69 474.608 1010.08 474.901C1010.81 475.445 1007.33 479.092 1007.33 479.092C1007.33 479.092 1010.95 475.802 1011.62 476.169C1012.3 476.535 1008.94 479.973 1008.94 479.973C1008.94 479.973 1012.1 477.328 1012.8 477.975C1013.5 478.622 1010.55 480.939 1010.55 480.939C1010.55 480.939 1013.48 479.565 1013.62 480.11C1013.68 480.351 1012.35 481.744 1009.66 483.352C1008.99 483.755 1008.08 484.779 1006.52 485.674C1005.98 485.984 1004.53 486.317 1004.53 486.317L1002.13 483.555Z" fill="#FFAF8A"/>
<path d="M987.666 499.519C991.484 498.381 1004.94 489.161 1005.19 488.053C1005.44 486.944 1003.71 483.448 1001.56 483.483C999.418 483.519 987.788 491.374 984.919 490.695C982.993 490.238 971.602 479.756 966.587 480.389C965.545 480.521 966.487 482.531 965.841 483.705C960.446 493.515 983.848 500.658 987.666 499.519Z" fill="#380085"/>
<path d="M951.277 478.263L951.123 478.26C949.785 481.956 950.02 485.143 955.237 487.138C959.369 488.717 965.43 488.101 968.686 483.409L968.914 483.071C968.686 482.549 968.185 481.358 967.029 480.862C964.547 484.307 960.394 485.547 956.434 484.112C953.845 483.174 952.85 480.534 954.103 478.522L954.149 478.363C952.955 477.99 952.231 478.292 951.277 478.263L951.123 478.26L951.277 478.263Z" fill="#733DFF"/>
<path d="M956.976 477.829L957.346 474.123C957.346 474.123 953.816 463.319 955.423 459.943C957.03 456.567 966.804 454.582 968.295 458.851C969.787 463.12 970.883 474.875 968.295 475.932C965.708 476.989 965.465 476.356 965.465 476.356L964.555 479.403C964.555 479.403 962.718 480.517 960.237 479.814C957.756 479.111 956.976 477.829 956.976 477.829Z" fill="#FFAF8A"/>
<path d="M956.199 471.742C958.094 474.048 960.4 474.406 962.064 472.337C963.728 470.268 962.279 465.7 964.013 464.89C965.746 464.08 965.525 468.958 966.47 468.467C967.414 467.977 966.34 462.811 967.414 461.577C968.489 460.343 970.189 461.143 970.189 458.779C970.189 456.415 966.107 454.007 963.06 454.873C960.014 455.74 957.409 454.441 954.92 457.448C952.432 460.454 954.304 469.435 956.199 471.742Z" fill="#380085"/>
<circle r="2.96154" transform="matrix(-1 0 0 1 1262.96 143.038)" fill="#CCCCCC" fill-opacity="0.3"/>
<path opacity="0.4" d="M1281.54 6V46.3579C1281.54 47.1455 1281.08 47.8598 1280.36 48.1824L1264.24 55.4208C1263.52 55.7434 1263.06 56.4577 1263.06 57.2453V139.538" stroke="#CCCCCC"/>
<path d="M1036 430.105V382.031C1036 380.923 1035.41 379.898 1034.45 379.341L988.536 352.677C987.584 352.124 986.391 352.809 986.388 353.91L986.255 402.332C986.252 403.451 986.851 404.485 987.822 405.04L1033.86 431.347C1034.81 431.891 1036 431.203 1036 430.105Z" fill="#FF623F" fill-opacity="0.280021" stroke="#FF623F" stroke-width="0.5"/>
<path d="M1015.06 394.565V374.89C1015.06 374.38 1014.79 373.909 1014.35 373.653L991.391 360.321C990.999 360.093 990.507 360.375 990.505 360.829L990.44 380.679C990.439 381.193 990.714 381.669 991.161 381.925L1014.18 395.078C1014.57 395.302 1015.06 395.018 1015.06 394.565Z" fill="#FF623F" fill-opacity="0.193018" stroke="#F8F8F8" stroke-width="0.5"/>
<path d="M1031.81 421.888V385.114C1031.81 384.034 1031.25 383.032 1030.33 382.466L1021.95 377.309C1021 376.724 1019.78 377.405 1019.77 378.522L1019.65 415.527C1019.64 416.641 1020.23 417.672 1021.2 418.23L1029.66 423.126C1030.62 423.677 1031.81 422.989 1031.81 421.888Z" fill="#FF623F" fill-opacity="0.193018" stroke="#F8F8F8" stroke-width="0.5"/>
<path d="M1012.44 410.668V402.817C1012.44 402.377 1012.09 402.02 1011.65 402.02C1011.21 402.02 1010.85 402.377 1010.85 402.817V410.668C1010.85 411.108 1011.21 411.465 1011.65 411.465C1012.09 411.465 1012.44 411.108 1012.44 410.668Z" fill="#FF623F" fill-opacity="0.280021" stroke="#FF623F" stroke-width="0.5"/>
<path d="M1008.26 408.575V404.911C1008.26 404.471 1007.9 404.114 1007.46 404.114C1007.02 404.114 1006.66 404.471 1006.66 404.911V408.575C1006.66 409.015 1007.02 409.371 1007.46 409.371C1007.9 409.371 1008.26 409.015 1008.26 408.575Z" fill="#FF623F" fill-opacity="0.280021" stroke="#FF623F" stroke-width="0.5"/>
<path d="M1004.07 406.481V400.724C1004.07 400.284 1003.71 399.927 1003.27 399.927C1002.83 399.927 1002.48 400.284 1002.48 400.724V406.481C1002.48 406.921 1002.83 407.278 1003.27 407.278C1003.71 407.278 1004.07 406.921 1004.07 406.481Z" fill="#FF623F" fill-opacity="0.280021" stroke="#FF623F" stroke-width="0.5"/>
<path d="M991.507 398.107V392.349C991.507 391.909 991.15 391.552 990.71 391.552C990.27 391.552 989.914 391.909 989.914 392.349V398.107C989.914 398.547 990.27 398.903 990.71 398.903C991.15 398.903 991.507 398.547 991.507 398.107Z" fill="#FF623F" fill-opacity="0.280021" stroke="#FF623F" stroke-width="0.5"/>
<path d="M995.694 400.2V396.536C995.694 396.096 995.338 395.74 994.897 395.74C994.457 395.74 994.101 396.096 994.101 396.536V400.2C994.101 400.64 994.457 400.997 994.897 400.997C995.338 400.997 995.694 400.64 995.694 400.2Z" fill="#FF623F" fill-opacity="0.280021" stroke="#FF623F" stroke-width="0.5"/>
<path d="M999.882 403.341V396.536C999.882 396.096 999.525 395.74 999.085 395.74C998.645 395.74 998.288 396.096 998.288 396.536V403.341C998.288 403.781 998.645 404.137 999.085 404.137C999.525 404.137 999.882 403.781 999.882 403.341Z" fill="#FF623F" fill-opacity="0.280021" stroke="#FF623F" stroke-width="0.5"/>
<defs>
<linearGradient id="paint0_linear" x1="2406.24" y1="293.942" x2="2287.91" y2="1045.02" gradientUnits="userSpaceOnUse">
<stop offset="0.0649817" stop-color="#A8A8A8"/>
<stop offset="1" stop-color="#F6F6F6"/>
</linearGradient>
<linearGradient id="paint1_linear" x1="1154.08" y1="245.573" x2="1121.68" y2="256.654" gradientUnits="userSpaceOnUse">
<stop stop-color="#3D3D70" stop-opacity="0.0452616"/>
<stop offset="1" stop-color="#272858"/>
</linearGradient>
<linearGradient id="paint2_linear" x1="1030.76" y1="521.504" x2="1020.68" y2="522.167" gradientUnits="userSpaceOnUse">
<stop stop-color="#F5F6F9"/>
<stop offset="1" stop-color="#E4E7EC"/>
</linearGradient>
<linearGradient id="paint3_linear" x1="1107.91" y1="473.376" x2="1097.84" y2="474.039" gradientUnits="userSpaceOnUse">
<stop stop-color="#F5F6F9"/>
<stop offset="1" stop-color="#E4E7EC"/>
</linearGradient>
<linearGradient id="paint4_linear" x1="884.016" y1="434.563" x2="873.939" y2="435.226" gradientUnits="userSpaceOnUse">
<stop stop-color="#F5F6F9"/>
<stop offset="1" stop-color="#E4E7EC"/>
</linearGradient>
<linearGradient id="paint5_linear" x1="959.015" y1="387.987" x2="969.092" y2="388.651" gradientUnits="userSpaceOnUse">
<stop stop-color="#F5F6F9"/>
<stop offset="1" stop-color="#E4E7EC"/>
</linearGradient>
<linearGradient id="paint6_linear" x1="1040.53" y1="415.15" x2="1047.09" y2="434.95" gradientUnits="userSpaceOnUse">
<stop stop-color="#EAECFF" stop-opacity="0.179168"/>
<stop offset="1" stop-color="#D0D4FE"/>
</linearGradient>
</defs>
</svg>
