<svg width="1364" height="759" viewBox="0 0 1364 759" fill="none" xmlns="http://www.w3.org/2000/svg">
<path d="M1210.3 178.478L1563.95 430.88L1588 758.478L813.998 751.5L352 756.88L-110 751.5L652.028 449.134L1210.3 178.478Z" fill="url(#paint0_linear)" fill-opacity="0.15"/>
<path d="M1051.2 76.9683L1051.78 261.284L1363.26 445.868V261.885L1051.2 76.9683Z" fill="#EFF0FF"/>
<path d="M1049.66 0V252.293L1398 476.178V253.022L1391.5 0H1222.5H1049.66Z" fill="#E8E8E8"/>
<path d="M1111.74 93.0718C1111.12 92.7139 1110.36 92.7126 1109.74 93.0685L1105.87 95.2964L1109.62 226.74C1109.64 227.413 1109.99 228.03 1110.57 228.384L1298.78 344.787L1303.3 342.037C1303.89 341.674 1304.26 341.027 1304.26 340.329L1304.26 205.725C1304.26 205.012 1303.88 204.352 1303.26 203.994L1111.74 93.0718Z" fill="#733DFF"/>
<path d="M1107.72 96.0602C1106.72 95.4755 1105.46 96.1981 1105.46 97.357L1105.61 231.327C1105.61 231.86 1105.89 232.352 1106.35 232.621L1297.25 343.9C1298.25 344.483 1299.51 343.76 1299.51 342.601L1299.22 208.823C1299.22 208.291 1298.94 207.8 1298.48 207.531L1107.72 96.0602Z" fill="#F8FCFF" stroke="#D0D4FF"/>
<path d="M1285.09 229.615C1285.1 228.287 1284.4 227.058 1283.25 226.382L1236.04 198.509C1234.88 197.82 1233.41 198.661 1233.41 200.016V274.44C1233.41 275.769 1234.11 276.999 1235.25 277.673L1282.39 305.377C1283.55 306.062 1285.02 305.222 1285.02 303.87L1285.09 229.615Z" fill="#9286FF" fill-opacity="0.193018" stroke="#B399FF" stroke-width="0.5"/>
<path d="M1276.02 290.672V273.206C1276.02 272.566 1275.52 272.059 1274.91 272.059C1274.3 272.059 1273.8 272.566 1273.8 273.206V290.672C1273.8 291.312 1274.3 291.819 1274.91 291.819C1275.52 291.819 1276.02 291.312 1276.02 290.672Z" fill="#9286FF" fill-opacity="0.193018" stroke="#B399FF" stroke-width="0.5"/>
<path d="M1269.06 286.325V274.448C1269.06 273.808 1268.56 273.301 1267.95 273.301C1267.34 273.301 1266.84 273.808 1266.84 274.448V286.325C1266.84 286.965 1267.34 287.472 1267.95 287.472C1268.56 287.472 1269.06 286.965 1269.06 286.325Z" fill="#9286FF" fill-opacity="0.193018" stroke="#B399FF" stroke-width="0.5"/>
<path d="M1262.1 282.754V268.083C1262.1 267.443 1261.6 266.936 1260.99 266.936C1260.38 266.936 1259.88 267.443 1259.88 268.083V282.754C1259.88 283.394 1260.38 283.901 1260.99 283.901C1261.6 283.901 1262.1 283.394 1262.1 282.754Z" fill="#9286FF" fill-opacity="0.193018" stroke="#B399FF" stroke-width="0.5"/>
<path d="M1241.23 270.8V256.128C1241.23 255.489 1240.72 254.981 1240.11 254.981C1239.51 254.981 1239 255.489 1239 256.128V270.8C1239 271.439 1239.51 271.947 1240.11 271.947C1240.72 271.947 1241.23 271.439 1241.23 270.8Z" fill="#9286FF" fill-opacity="0.193018" stroke="#B399FF" stroke-width="0.5"/>
<path d="M1248.18 273.594V261.718C1248.18 261.078 1247.68 260.57 1247.07 260.57C1246.46 260.57 1245.96 261.078 1245.96 261.718V273.594C1245.96 274.234 1246.46 274.742 1247.07 274.742C1247.68 274.742 1248.18 274.234 1248.18 273.594Z" fill="#9286FF" fill-opacity="0.193018" stroke="#B399FF" stroke-width="0.5"/>
<path d="M1255.14 277.786V261.718C1255.14 261.078 1254.64 260.57 1254.03 260.57C1253.42 260.57 1252.92 261.078 1252.92 261.718V277.786C1252.92 278.426 1253.42 278.933 1254.03 278.933C1254.64 278.933 1255.14 278.426 1255.14 277.786Z" fill="#9286FF" fill-opacity="0.193018" stroke="#B399FF" stroke-width="0.5"/>
<path opacity="0.8" d="M1246.18 227.746L1246.19 227.762L1246.2 227.78L1255.36 244.163C1255.95 245.215 1257.24 245.603 1258.28 245.053L1266.17 240.906L1266.38 240.793L1266.5 241.003L1277.4 260.201C1277.8 260.915 1278.69 261.152 1279.38 260.74C1280.07 260.325 1280.31 259.407 1279.9 258.689L1268.56 238.698C1267.96 237.654 1266.69 237.273 1265.64 237.82L1257.77 241.965L1257.55 242.078L1257.43 241.865L1248.59 226.055L1239.18 214.207C1238.67 213.568 1237.76 213.475 1237.14 213.993C1236.52 214.515 1236.42 215.461 1236.93 216.103L1246.18 227.746Z" fill="#FF623F" stroke="#FF623F" stroke-width="0.5"/>
<path d="M1167.85 159.754C1167.85 158.425 1167.15 157.194 1166.01 156.518L1118.8 128.645C1117.63 127.956 1116.16 128.797 1116.16 130.152V165.764C1116.16 167.093 1116.87 168.323 1118.01 168.997L1165.15 196.702C1166.31 197.387 1167.78 196.549 1167.78 195.197L1167.85 159.754Z" fill="#9286FF" fill-opacity="0.193018" stroke="#B399FF" stroke-width="0.5"/>
<g opacity="0.8">
<path d="M1158.02 184.061V163.723C1158.02 162.929 1157.39 162.296 1156.64 162.296C1155.88 162.296 1155.25 162.929 1155.25 163.723V184.061C1155.25 184.855 1155.88 185.487 1156.64 185.487C1157.39 185.487 1158.02 184.855 1158.02 184.061Z" fill="#FF623F" stroke="#FF623F" stroke-width="0.5"/>
<path d="M1151.49 180.707V167.076C1151.49 166.282 1150.86 165.649 1150.1 165.649C1149.34 165.649 1148.72 166.282 1148.72 167.076V180.707C1148.72 181.501 1149.34 182.134 1150.1 182.134C1150.86 182.134 1151.49 181.501 1151.49 180.707Z" fill="#FF623F" stroke="#FF623F" stroke-width="0.5"/>
<path d="M1144.95 177.354V160.369C1144.95 159.575 1144.32 158.943 1143.57 158.943C1142.81 158.943 1142.18 159.575 1142.18 160.369V177.354C1142.18 178.148 1142.81 178.781 1143.57 178.781C1144.32 178.781 1144.95 178.148 1144.95 177.354Z" fill="#FF623F" stroke="#FF623F" stroke-width="0.5"/>
<path d="M1125.34 163.94V146.956C1125.34 146.161 1124.72 145.529 1123.96 145.529C1123.2 145.529 1122.58 146.161 1122.58 146.956V163.94C1122.58 164.734 1123.2 165.367 1123.96 165.367C1124.72 165.367 1125.34 164.734 1125.34 163.94Z" fill="#FF623F" stroke="#FF623F" stroke-width="0.5"/>
<path d="M1131.88 167.294V153.663C1131.88 152.868 1131.25 152.236 1130.5 152.236C1129.74 152.236 1129.11 152.868 1129.11 153.663V167.294C1129.11 168.088 1129.74 168.72 1130.5 168.72C1131.25 168.72 1131.88 168.088 1131.88 167.294Z" fill="#FF623F" stroke="#FF623F" stroke-width="0.5"/>
<path d="M1138.41 172.324V153.663C1138.41 152.868 1137.79 152.236 1137.03 152.236C1136.27 152.236 1135.65 152.868 1135.65 153.663V172.324C1135.65 173.118 1136.27 173.751 1137.03 173.751C1137.79 173.751 1138.41 173.118 1138.41 172.324Z" fill="#FF623F" stroke="#FF623F" stroke-width="0.5"/>
</g>
<path d="M1226.09 194.686C1226.1 193.356 1225.39 192.125 1224.25 191.45L1177.04 163.577C1175.88 162.888 1174.41 163.729 1174.41 165.084V200.695C1174.41 202.025 1175.11 203.255 1176.25 203.928L1223.39 231.634C1224.56 232.319 1226.03 231.48 1226.03 230.129L1226.09 194.686Z" fill="#9286FF" fill-opacity="0.193018" stroke="#B399FF" stroke-width="0.5"/>
<path opacity="0.8" d="M1203.76 209.852C1204.92 212.787 1206.85 215.067 1209.03 216.385C1211.21 217.704 1213.62 218.053 1215.76 217.167C1217.89 216.28 1219.39 214.31 1220.07 211.809C1220.74 209.308 1220.59 206.29 1219.43 203.355C1218.28 200.419 1216.34 198.139 1214.17 196.821C1211.99 195.503 1209.58 195.153 1207.44 196.04C1205.3 196.927 1203.8 198.896 1203.13 201.397C1202.45 203.899 1202.61 206.916 1203.76 209.852Z" fill="#FF623F" stroke="#F8458D" stroke-width="0.5"/>
<path d="M1184.55 185.353C1185.69 188.261 1188.41 189.76 1190.56 188.869C1192.71 187.979 1193.65 184.963 1192.5 182.055C1191.36 179.146 1188.64 177.648 1186.49 178.538C1184.35 179.429 1183.4 182.444 1184.55 185.353Z" fill="#9286FF" fill-opacity="0.193018" stroke="#B399FF" stroke-width="0.5"/>
<path d="M1191.22 202.48C1191.55 203.328 1192.11 203.978 1192.74 204.35C1193.36 204.722 1194.04 204.809 1194.63 204.564C1195.22 204.319 1195.64 203.775 1195.84 203.063C1196.04 202.351 1196 201.484 1195.67 200.636C1195.33 199.788 1194.77 199.137 1194.15 198.765C1193.53 198.393 1192.85 198.307 1192.26 198.551C1191.67 198.796 1191.24 199.34 1191.05 200.052C1190.85 200.765 1190.89 201.632 1191.22 202.48Z" fill="#9286FF" fill-opacity="0.193018" stroke="#B399FF" stroke-width="0.5"/>
<path opacity="0.7" d="M1179.87 196.27C1180.21 197.118 1180.77 197.768 1181.39 198.14C1182.02 198.512 1182.69 198.599 1183.28 198.354C1183.87 198.109 1184.3 197.565 1184.5 196.853C1184.69 196.141 1184.65 195.274 1184.32 194.426C1183.99 193.578 1183.43 192.927 1182.8 192.555C1182.18 192.183 1181.5 192.097 1180.91 192.341C1180.32 192.586 1179.9 193.13 1179.7 193.842C1179.5 194.555 1179.54 195.422 1179.87 196.27Z" fill="#FF623F" stroke="#F8458D" stroke-width="0.5"/>
<mask id="path-26-inside-1" fill="white">
<path d="M1189.94 189.116L1192.22 198.403L1189.94 189.116Z"/>
</mask>
<path d="M1189.94 189.116L1192.22 198.403L1189.94 189.116Z" fill="#9286FF" fill-opacity="0.193018"/>
<path d="M1190.42 188.997L1192.7 198.284L1191.73 198.522L1189.45 189.235L1190.42 188.997Z" fill="#B399FF" mask="url(#path-26-inside-1)"/>
<mask id="path-28-inside-2" fill="white">
<path d="M1184.55 196.829L1190.82 201.084L1184.55 196.829Z"/>
</mask>
<path d="M1184.55 196.829L1190.82 201.084L1184.55 196.829Z" fill="#9286FF" fill-opacity="0.193018"/>
<path d="M1184.83 196.415L1191.1 200.671L1190.54 201.498L1184.26 197.243L1184.83 196.415Z" fill="#B399FF" mask="url(#path-28-inside-2)"/>
<path d="M1185.13 131.434C1185.01 131.367 1184.86 131.366 1184.74 131.431L1178.68 134.707L1179.6 144.524C1179.62 144.653 1179.69 144.768 1179.8 144.833L1217.45 166.571L1219.28 165.537V160.62L1223.84 158.242L1223.84 153.354C1223.84 153.209 1223.76 153.076 1223.64 153.005L1185.13 131.434Z" fill="#512BB5"/>
<path d="M1179.28 135.035C1179.01 134.888 1178.69 135.082 1178.69 135.387L1178.71 145.115C1178.71 145.26 1178.79 145.394 1178.92 145.464L1217.1 166.502C1217.37 166.65 1217.69 166.455 1217.69 166.15L1217.64 156.461C1217.64 156.316 1217.56 156.183 1217.43 156.113L1179.28 135.035Z" fill="#733DFF"/>
<path d="M1091.86 576.867C1074.32 576.239 1060.49 564.615 1060.95 550.904C1061.42 537.194 1076.01 526.589 1093.55 527.217C1111.08 527.846 1124.92 539.47 1124.45 553.18C1123.98 566.891 1109.39 577.496 1091.86 576.867Z" fill="black" fill-opacity="0.130299"/>
<path d="M929.229 585.406C911.694 584.778 897.858 573.154 898.324 559.443C898.791 545.733 913.384 535.128 930.919 535.756C948.454 536.384 962.29 548.008 961.824 561.719C961.357 575.429 946.764 586.035 929.229 585.406Z" fill="black" fill-opacity="0.130299"/>
<path d="M854.345 538.055C836.81 537.426 822.973 525.802 823.44 512.092C823.907 498.381 838.5 487.776 856.034 488.404C873.569 489.033 887.406 500.657 886.939 514.367C886.473 528.078 871.88 538.683 854.345 538.055Z" fill="black" fill-opacity="0.130299"/>
<path d="M864.935 437.141C847.4 436.513 833.564 424.889 834.03 411.178C834.497 397.468 849.09 386.862 866.625 387.491C884.16 388.119 897.996 399.743 897.53 413.454C897.063 427.164 882.47 437.769 864.935 437.141Z" fill="black" fill-opacity="0.130299"/>
<path d="M1059.94 320.359C1042.39 320.359 1028.17 312.365 1028.17 302.505C1028.17 292.644 1042.39 284.651 1059.94 284.651C1077.48 284.651 1091.71 292.644 1091.71 302.505C1091.71 312.365 1077.48 320.359 1059.94 320.359Z" fill="black" fill-opacity="0.130299"/>
<path d="M1311.77 460.428C1294.22 460.428 1280 452.435 1280 442.574C1280 432.714 1294.22 424.72 1311.77 424.72C1329.31 424.72 1343.54 432.714 1343.54 442.574C1343.54 452.435 1329.31 460.428 1311.77 460.428Z" fill="black" fill-opacity="0.130299"/>
<path d="M1295.19 366.954L1316.23 354.985V396.619C1316.23 403.838 1320.02 410.525 1326.22 414.224L1348.53 427.533L1330.25 438.113L1304.72 422.925C1298.81 419.41 1295.19 413.042 1295.19 406.166V366.954Z" fill="#F8FCFF" stroke="#D0D4FF"/>
<path d="M1312.35 410.451C1313.58 409.804 1315.05 409.834 1316.24 410.531L1341.56 425.304C1342.89 426.084 1342.88 428.02 1341.53 428.776L1332.45 433.862C1331.2 434.559 1329.68 434.541 1328.46 433.815L1303.08 418.804C1301.73 418.008 1301.78 416.046 1303.16 415.315L1312.35 410.451Z" fill="#1B215B"/>
<path d="M1288.48 363.776L1288.35 421.166C1288.33 429.624 1292.77 437.467 1300.02 441.812L1321.95 454.941C1329.19 459.278 1338.23 459.294 1345.49 454.983C1352.46 450.841 1356.73 443.328 1356.73 435.216L1356.7 377.541L1350.92 374.089L1328.28 386.462V426.876C1328.28 431.522 1323.22 434.405 1319.22 432.041L1304.52 423.346C1298.43 419.747 1294.69 413.201 1294.69 406.13V366.663L1316.73 354.126L1311.35 350.976L1288.48 363.776Z" fill="#D6D9FB"/>
<path d="M1327.27 457.303C1330.72 456.834 1333.62 454.118 1334.23 450.431C1334.31 449.965 1334.35 449.493 1334.35 449.021V390.881L1356.2 378.327L1356.23 437.551C1356.23 443.923 1352.98 449.815 1347.69 453.091C1347.69 453.091 1347.69 453.092 1347.68 453.092L1347.41 453.256L1347.41 453.259L1342.58 456.128C1337.88 458.92 1332.24 459.311 1327.27 457.303Z" fill="#F8FCFF" stroke="#D0D4FF"/>
<path d="M1304.45 379.204C1306.76 380.209 1309.68 378.464 1310.99 375.307C1312.3 372.15 1311.48 368.776 1309.18 367.771C1306.87 366.766 1303.94 368.51 1302.64 371.667C1301.33 374.824 1302.14 378.198 1304.45 379.204Z" fill="#1B215B"/>
<path d="M1305.89 377.098C1307.23 377.685 1308.92 376.72 1309.65 374.944C1310.39 373.168 1309.89 371.254 1308.55 370.667C1307.2 370.081 1305.51 371.045 1304.78 372.821C1304.04 374.597 1304.54 376.512 1305.89 377.098Z" fill="#FF623F"/>
<path d="M1304.45 396.281C1306.76 397.286 1309.68 395.542 1310.99 392.385C1312.3 389.228 1311.48 385.853 1309.18 384.848C1306.87 383.843 1303.94 385.588 1302.64 388.745C1301.33 391.902 1302.14 395.276 1304.45 396.281Z" fill="#1B215B"/>
<path d="M1305.89 394.176C1307.23 394.762 1308.92 393.798 1309.65 392.022C1310.39 390.246 1309.89 388.331 1308.55 387.745C1307.2 387.159 1305.51 388.123 1304.78 389.899C1304.04 391.675 1304.54 393.59 1305.89 394.176Z" fill="#FF623F"/>
<path d="M1311.35 418.324C1308.44 415.77 1305.9 415.77 1307.99 410.963C1310.07 406.155 1302.17 401.751 1305.34 397.092C1308.52 392.433 1303.33 386.149 1306.27 383.02C1309.21 379.891 1308.05 370.844 1311.35 371.301C1312.96 371.523 1313.59 378.135 1315.31 378.921C1317.03 379.707 1319 381.618 1317.89 384.581C1315.74 390.342 1321.2 391.119 1319.55 397.092C1317.89 403.064 1322.5 401.478 1321.58 407.557C1320.65 413.635 1319.55 416.57 1319.55 416.57C1319.55 416.57 1316.45 415.925 1315.83 417.313C1315.2 418.701 1314.26 420.879 1311.35 418.324Z" fill="#733DFF" stroke="#D0D4FF" stroke-width="0.5"/>
<path d="M1315.31 378.921C1316.99 379.69 1318.91 381.534 1317.96 384.385L1317.89 384.581C1315.78 390.239 1321.01 391.09 1319.63 396.777L1319.55 397.092C1317.89 403.064 1322.5 401.478 1321.57 407.557C1320.96 411.609 1320.28 414.614 1319.55 416.57C1317.48 416.14 1316.24 416.388 1315.82 417.313L1315.64 417.713C1315.04 419.001 1314.08 420.499 1311.7 418.618C1311.41 417.329 1311.49 415.901 1312.32 414.432L1312.44 414.222C1314.87 410.244 1309.04 408.173 1310.46 404.68C1311.86 401.256 1314.32 398.253 1312.55 395.668L1312.44 395.513C1310.46 392.893 1310.72 388.673 1313.28 385.357C1315.16 382.921 1314.17 380.047 1314.4 377.861C1314.67 378.381 1314.97 378.765 1315.31 378.921Z" fill="#3C1F86"/>
<path d="M1316.68 423.432C1315.45 421.902 1312.28 418.199 1314.71 414.222C1317.14 410.244 1311.31 408.173 1312.73 404.68C1314.15 401.188 1316.69 398.133 1314.71 395.513C1312.73 392.894 1312.99 388.673 1315.55 385.357C1318.11 382.042 1315.34 377.913 1317.59 375.816C1319.85 373.719 1319.56 380.217 1322.94 382.502C1326.31 384.787 1321.95 390.425 1325.13 391.995C1328.3 393.565 1322.61 401.152 1325.13 403.621C1327.65 406.09 1329.59 409.891 1327.58 413.405C1325.57 416.919 1327.37 419.79 1326.31 420.839C1325.25 421.888 1323.53 419.081 1322.04 421.512C1320.55 423.943 1317.91 424.961 1316.68 423.432Z" fill="#733DFF" stroke="#D0D4FF" stroke-width="0.5"/>
<path d="M1325 391.924L1325.13 391.995C1328.3 393.565 1322.61 401.152 1325.13 403.621C1325.43 403.918 1325.73 404.234 1326.01 404.567L1326.01 421.035C1324.97 421.415 1323.47 419.397 1322.14 421.364L1322.04 421.512C1321.5 422.397 1320.81 423.094 1320.08 423.55C1319.62 422.417 1319.69 421.112 1320.69 419.644L1320.82 419.46C1323.56 415.685 1317.69 413.828 1319.61 410.172L1319.73 409.971C1321.94 406.24 1317.59 400.61 1322.23 395.803L1322.46 395.579C1323.7 394.375 1324.28 392.996 1324.55 391.595C1324.68 391.717 1324.83 391.827 1325 391.924Z" fill="#3C1F86"/>
<path d="M1332.58 384.112L1328.28 386.462L1328.28 428.052C1327.89 427.963 1327.43 427.8 1326.9 427.54L1326.47 427.326C1323.58 425.822 1320.53 423.211 1322.97 419.636L1323.09 419.46C1325.83 415.685 1319.96 413.828 1321.88 410.172L1322 409.971C1324.21 406.24 1319.86 400.61 1324.5 395.803L1324.72 395.579C1329.73 390.724 1324.12 383.036 1329.94 382.42C1331.56 382.249 1332.29 382.958 1332.58 384.112Z" fill="#733DFF" stroke="#D0D4FF" stroke-width="0.5"/>
<path d="M1041.85 225.332L1062.88 213.364V254.997C1062.88 262.217 1066.68 268.904 1072.88 272.603L1095.19 285.911L1076.91 296.491L1051.38 281.303C1045.47 277.788 1041.85 271.42 1041.85 264.545V225.332Z" fill="#F8FCFF" stroke="#D0D4FF"/>
<path d="M1059.01 268.829C1060.23 268.182 1061.7 268.213 1062.9 268.91L1088.21 283.682C1089.55 284.462 1089.53 286.399 1088.18 287.155L1079.1 292.24C1077.86 292.937 1076.34 292.919 1075.11 292.193L1049.74 277.182C1048.39 276.386 1048.44 274.424 1049.82 273.693L1059.01 268.829Z" fill="#1B215B"/>
<path d="M1035.14 222.154L1035.01 279.545C1034.99 288.002 1039.42 295.845 1046.68 300.19L1068.61 313.32C1075.85 317.656 1084.88 317.672 1092.14 313.362C1099.12 309.219 1103.39 301.706 1103.38 293.594L1103.35 235.919L1097.58 232.467L1074.93 244.841V285.254C1074.93 289.9 1069.88 292.783 1065.88 290.419L1051.17 281.725C1045.08 278.126 1041.35 271.58 1041.35 264.508V225.041L1063.38 212.504L1058.01 209.354L1035.14 222.154Z" fill="#D6D9FB"/>
<path d="M1073.93 315.681C1077.38 315.212 1080.27 312.496 1080.89 308.809C1080.97 308.343 1081.01 307.872 1081.01 307.399V249.259L1102.85 236.705L1102.89 295.929C1102.89 302.301 1099.64 308.193 1094.34 311.469C1094.34 311.469 1094.34 311.47 1094.34 311.47L1094.07 311.634L1094.07 311.637L1089.24 314.506C1084.53 317.298 1078.89 317.689 1073.93 315.681Z" fill="#F8FCFF" stroke="#D0D4FF"/>
<path d="M1051.11 237.582C1053.41 238.587 1056.34 236.842 1057.65 233.685C1058.95 230.528 1058.14 227.154 1055.83 226.149C1053.53 225.144 1050.6 226.888 1049.29 230.045C1047.99 233.203 1048.8 236.577 1051.11 237.582Z" fill="#1B215B"/>
<path d="M1052.54 235.477C1053.89 236.063 1055.57 235.099 1056.31 233.323C1057.04 231.547 1056.55 229.632 1055.2 229.046C1053.86 228.459 1052.17 229.424 1051.44 231.2C1050.7 232.975 1051.2 234.89 1052.54 235.477Z" fill="#FF623F"/>
<path d="M1051.11 254.66C1053.41 255.665 1056.34 253.92 1057.65 250.763C1058.95 247.606 1058.14 244.232 1055.83 243.227C1053.53 242.222 1050.6 243.966 1049.29 247.123C1047.99 250.28 1048.8 253.655 1051.11 254.66Z" fill="#1B215B"/>
<path d="M1052.54 252.554C1053.89 253.141 1055.57 252.176 1056.31 250.4C1057.04 248.625 1056.55 246.71 1055.2 246.123C1053.86 245.537 1052.17 246.501 1051.44 248.277C1050.7 250.053 1051.2 251.968 1052.54 252.554Z" fill="#FF623F"/>
<path d="M1058.01 276.703C1055.1 274.148 1052.56 274.148 1054.64 269.341C1056.73 264.534 1048.82 260.129 1052 255.47C1055.18 250.811 1049.98 244.527 1052.93 241.398C1055.87 238.269 1054.7 229.222 1058.01 229.679C1059.61 229.901 1060.25 236.513 1061.97 237.299C1063.69 238.085 1065.66 239.996 1064.55 242.959C1062.4 248.721 1067.86 249.498 1066.21 255.47C1064.55 261.443 1069.15 259.857 1068.23 265.935C1067.31 272.014 1066.21 274.949 1066.21 274.949C1066.21 274.949 1063.1 274.304 1062.48 275.692C1061.86 277.08 1060.92 279.257 1058.01 276.703Z" fill="#733DFF" stroke="#D0D4FF" stroke-width="0.5"/>
<path d="M1061.97 237.299C1063.65 238.068 1065.57 239.912 1064.62 242.763L1064.55 242.959C1062.44 248.618 1067.67 249.468 1066.29 255.155L1066.21 255.47C1064.55 261.443 1069.16 259.857 1068.23 265.935C1067.62 269.988 1066.94 272.992 1066.21 274.949C1064.14 274.519 1062.9 274.766 1062.48 275.692L1062.3 276.091C1061.7 277.379 1060.74 278.878 1058.36 276.996C1058.07 275.707 1058.15 274.28 1058.97 272.81L1059.1 272.6C1061.53 268.622 1055.7 266.551 1057.12 263.059C1058.51 259.634 1060.97 256.632 1059.21 254.046L1059.1 253.892C1057.12 251.272 1057.38 247.051 1059.94 243.736C1061.82 241.3 1060.82 238.425 1061.06 236.24C1061.33 236.759 1061.63 237.144 1061.97 237.299Z" fill="#3C1F86"/>
<path d="M1063.34 281.81C1062.11 280.281 1058.94 276.577 1061.37 272.6C1063.79 268.622 1057.97 266.551 1059.39 263.059C1060.81 259.566 1063.34 256.512 1061.37 253.892C1059.39 251.272 1059.65 247.051 1062.21 243.736C1064.77 240.42 1062 236.291 1064.25 234.194C1066.5 232.098 1066.22 238.595 1069.59 240.88C1072.97 243.166 1068.61 248.803 1071.79 250.373C1074.96 251.943 1069.27 259.531 1071.79 261.999C1074.31 264.468 1076.25 268.269 1074.24 271.783C1072.23 275.297 1074.03 278.168 1072.97 279.217C1071.91 280.266 1070.19 277.459 1068.7 279.89C1067.21 282.321 1064.57 283.34 1063.34 281.81Z" fill="#733DFF" stroke="#D0D4FF" stroke-width="0.5"/>
<path d="M1071.65 250.303L1071.79 250.373C1074.96 251.943 1069.27 259.531 1071.79 261.999C1072.09 262.296 1072.38 262.613 1072.66 262.945L1072.66 279.413C1071.62 279.793 1070.13 277.776 1068.8 279.743L1068.7 279.89C1068.16 280.775 1067.46 281.473 1066.74 281.928C1066.28 280.796 1066.35 279.491 1067.35 278.023L1067.48 277.838C1070.22 274.064 1064.35 272.206 1066.27 268.551L1066.38 268.35C1068.6 264.618 1064.25 258.988 1068.89 254.182L1069.11 253.957C1070.35 252.753 1070.94 251.375 1071.21 249.973C1071.34 250.095 1071.48 250.205 1071.65 250.303Z" fill="#3C1F86"/>
<path d="M1079.24 242.49L1074.93 244.841L1074.93 286.43C1074.54 286.342 1074.09 286.178 1073.55 285.918L1073.13 285.704C1070.24 284.201 1067.18 281.59 1069.62 278.015L1069.75 277.838C1072.49 274.064 1066.62 272.206 1068.54 268.551L1068.65 268.35C1070.87 264.618 1066.52 258.988 1071.16 254.182L1071.38 253.957C1076.38 249.102 1070.77 241.414 1076.6 240.798C1078.22 240.627 1078.95 241.337 1079.24 242.49Z" fill="#733DFF" stroke="#D0D4FF" stroke-width="0.5"/>
<path d="M1161.97 507.628C1150.9 507.628 1141.92 502.415 1141.92 495.984C1141.92 489.554 1150.9 484.341 1161.97 484.341C1173.04 484.341 1182.01 489.554 1182.01 495.984C1182.01 502.415 1173.04 507.628 1161.97 507.628Z" fill="black" fill-opacity="0.130299"/>
<path d="M1146.08 370.231C1135.01 370.231 1126.04 365.017 1126.04 358.587C1126.04 352.156 1135.01 346.943 1146.08 346.943C1157.15 346.943 1166.13 352.156 1166.13 358.587C1166.13 365.017 1157.15 370.231 1146.08 370.231Z" fill="black" fill-opacity="0.130299"/>
<path d="M1124.5 238.826C1124.5 238.826 1128.01 238.328 1128.24 235.218C1128.46 232.108 1128.24 225.894 1128.24 225.894L1136.4 230.368C1136.4 230.368 1136.32 233.923 1136.83 235.575C1136.92 235.87 1138.26 235.687 1139.47 235.862C1140.82 236.057 1142.05 236.616 1142.26 237.108C1142.57 237.829 1139.47 239.484 1139.47 239.484L1137.89 245.13L1132.62 244.81L1124.5 238.826Z" fill="#FFAF8A"/>
<path d="M1134.05 235.618C1137.35 235.643 1138.21 232.23 1138.21 232.23L1127.7 230.219C1127.7 230.219 1127.46 237.431 1127.7 237.826C1127.94 238.226 1129.36 232.898 1129.56 233.112C1131.13 234.782 1132.38 235.605 1134.05 235.618Z" fill="black" fill-opacity="0.175153"/>
<path d="M1141.74 219.324C1141.74 219.324 1142.31 234.933 1143.49 235.9C1144.67 236.867 1136.66 236.506 1136.12 233.505C1135.32 230.009 1139.96 220.57 1139.96 220.57L1141.74 219.324Z" fill="#0D134E"/>
<path d="M1135.87 234.879C1139.74 234.635 1140.35 220.211 1140.35 220.211L1134 214.038L1128.04 219.199L1127.07 228.269C1127.07 228.269 1131.11 235.178 1135.87 234.879Z" fill="#FFAF8A"/>
<path fill-rule="evenodd" clip-rule="evenodd" d="M1141.32 235.97L1136.83 235.634C1137.52 236.717 1137.03 238.137 1135.02 238.581C1133.01 239.025 1128.25 238.391 1127.88 236.754L1127.86 236.759L1128.05 236.299L1126.87 236.709L1117.82 241.553C1117 241.994 1116.48 242.86 1116.45 243.813L1115.91 267.287C1115.9 267.915 1116.02 268.539 1116.26 269.116C1117.19 271.33 1119.69 272.352 1121.84 271.399L1124.62 270.174L1122.42 283.503L1122.41 283.578C1122.4 283.693 1122.41 283.805 1122.44 283.908C1121.61 287.216 1121.19 290.928 1121.19 295.044L1121.19 295.275C1121.22 299.752 1121.96 304.45 1123.41 312.472L1124.86 320.461C1124.07 337.305 1125.48 347.335 1125.89 348.346C1126.09 348.841 1126.35 348.955 1126.56 349.049C1126.78 349.147 1126.95 349.223 1126.96 349.682C1126.99 351.208 1126.97 353.362 1126.88 356.142L1126.83 357.592L1138.32 363.322L1137.81 361.431C1135.93 358.843 1134.49 356.9 1133.48 355.602L1133.01 355.006C1132.4 354.239 1132.19 352.802 1132.06 350.55V349.313C1132.06 349.193 1132.17 349.064 1132.3 348.907C1132.5 348.68 1132.74 348.395 1132.76 347.996C1132.8 347.365 1132.83 346.559 1132.87 345.576C1133.02 341.772 1133.28 335.318 1134.32 326.13L1135.02 320.01L1136.83 297.102C1137.9 300.034 1139.5 305.286 1140.83 309.673C1141.67 312.418 1142.4 314.824 1142.83 316.11L1143.37 317.722C1143.2 325.312 1146.38 338.191 1147.81 343.205C1148.03 343.978 1148.56 344.327 1148.94 344.576C1149.17 344.733 1149.35 344.849 1149.35 345.007L1150.09 351.132L1158.42 355.815L1160.28 354.806C1160.28 354.806 1157.57 352.903 1156.34 351.598C1155.11 350.294 1154.13 348.277 1154.13 348.277C1154.13 348.277 1154.37 345.895 1154.36 344.678C1154.36 344.344 1154.55 344.169 1154.75 343.988C1154.96 343.797 1155.17 343.6 1155.17 343.205C1155.12 337.43 1153.4 316.842 1153.4 316.842C1153.4 316.841 1153.37 316.657 1153.3 316.314C1152.45 311.926 1146.54 281.621 1146.54 280.075L1146.01 263.494L1148.19 258.571L1149.5 262.225C1149.61 262.517 1149.76 262.788 1149.95 263.028C1150.9 264.222 1152.62 264.397 1153.78 263.42L1170.55 249.332C1170.79 249.128 1170.93 248.821 1170.93 248.499C1170.89 246.752 1170.66 245.644 1170.23 245.175C1169.85 244.753 1169.27 244.339 1168.49 243.933C1168.16 243.764 1167.77 243.785 1167.47 243.988L1153.88 253.049L1148.02 238.264C1147.69 237.427 1146.96 236.825 1146.09 236.67C1143.85 236.271 1142.26 236.037 1141.32 235.97ZM1123.3 262.702L1123.36 255.51L1125.19 261.773L1123.3 262.702Z" fill="#380085"/>
<path d="M1137.01 297.602L1136.85 295.626L1137.68 297.384C1142.03 306.691 1144.2 312.424 1144.2 314.583C1144.2 315.808 1143.93 317.296 1143.38 319.047C1143.37 318.59 1143.36 318.148 1143.37 317.722L1142.71 315.731C1141.53 312.139 1138.71 302.411 1137.01 297.602Z" fill="black" fill-opacity="0.275213"/>
<path d="M1146.05 264.675L1146.19 269.159L1145.43 269.561C1145.27 269.643 1145.1 269.685 1144.92 269.685C1144.31 269.685 1143.81 269.176 1143.81 268.548C1143.81 267.435 1144.25 266.374 1145.03 265.603L1145.18 265.462L1146.05 264.675Z" fill="#733DFF"/>
<path d="M1138.82 235.783L1141.32 235.97C1141.83 236.006 1142.53 236.091 1143.42 236.225L1143.48 236.593C1143.67 237.806 1143.64 238.254 1143.58 238.525C1143.37 239.368 1140.32 240.497 1140.06 239.949L1140.03 239.884C1139.88 239.449 1139.28 237.27 1138.82 235.783Z" fill="#733DFF"/>
<path d="M1136.83 235.634L1141.32 235.97C1141.86 236.008 1142.6 236.099 1143.54 236.244C1143.71 236.576 1143.8 236.925 1143.8 237.284C1143.8 239.737 1139.65 241.756 1136.07 241.756C1134.39 241.756 1132.86 241.32 1131.71 240.604L1128.74 241.925L1128.74 237.72C1129.1 237.935 1129.56 238.116 1130.07 238.262L1130.33 238.332L1130.62 238.402L1130.93 238.467L1131.01 238.483C1131.2 238.52 1131.4 238.552 1131.59 238.58L1131.79 238.607C1131.99 238.633 1132.2 238.655 1132.4 238.672L1132.77 238.699L1132.7 238.694C1132.97 238.711 1133.23 238.719 1133.48 238.719C1133.63 238.719 1133.78 238.716 1133.92 238.71L1134.2 238.694L1134.38 238.679C1134.61 238.656 1134.83 238.624 1135.02 238.581C1137.03 238.137 1137.52 236.717 1136.83 235.634Z" fill="black" fill-opacity="0.275213"/>
<path d="M1126.52 238.955L1126.74 239.335C1127.95 241.503 1127.69 241.681 1127.69 242.063C1127.69 242.933 1124.56 244.786 1124.11 244.319L1124.09 244.286C1123.93 244.077 1124.13 243.811 1122.49 241.558C1122.19 241.155 1121.69 240.593 1120.97 239.871L1125.52 237.43L1125.81 237.84C1126.12 238.294 1126.36 238.666 1126.52 238.955Z" fill="#733DFF"/>
<path d="M1138.53 275.5L1138.89 275.491L1138.43 256.647L1138.22 256.685C1135.99 257.099 1133.29 256.817 1132.25 255.51C1131.19 254.17 1127.72 245.869 1126.29 242.473L1125.94 242.568C1127.43 246.212 1130.87 254.354 1131.97 255.744C1133.07 257.124 1135.83 257.456 1138.08 257.086L1138.53 275.5Z" fill="#733DFF"/>
<path d="M1141.5 239.418C1142.07 244.808 1143.45 248.597 1142.89 250.645C1142.33 252.675 1140.71 253.985 1138.43 255.51L1138.63 255.82C1140.97 254.249 1142.66 252.869 1143.24 250.745C1143.81 248.639 1142.43 244.813 1141.86 239.378L1141.5 239.418Z" fill="#733DFF"/>
<path d="M1124.26 271.902C1124.26 271.902 1135.05 275.841 1138.89 274.982C1144.41 273.748 1146.17 270.553 1146.17 270.553V273.161C1146.17 273.161 1144.4 276.553 1138.79 277.563C1134.75 278.291 1123.92 274.024 1123.92 274.024L1124.26 271.902Z" fill="#733DFF"/>
<path d="M1127.04 349.726C1127.04 349.726 1127.09 354.664 1126.76 355.918C1126.42 357.172 1126.46 358.142 1126.92 359.192C1127.38 360.242 1128.5 360.251 1129.3 360.887C1130.09 361.523 1132.4 364.75 1133.77 364.865C1135.13 364.98 1137.27 364.984 1138.39 364.511C1139.5 364.038 1140.64 363.045 1140.12 362.002C1139.61 360.958 1134.82 356.89 1134.04 356.05C1133.26 355.209 1132.61 352.34 1132.37 350.568C1132.13 348.796 1132.15 349.201 1132.15 349.201L1127.04 349.726Z" fill="#733DFF"/>
<path d="M1132.21 349.157C1132.21 349.157 1132.3 350.088 1132.37 350.568C1132.61 352.34 1133.26 355.209 1134.04 356.049C1134.82 356.89 1139.61 360.958 1140.12 362.002C1140.21 362.179 1140.25 362.356 1140.25 362.528L1139.56 362.17C1135.42 359.993 1133.62 358.336 1132.66 357.198C1131.72 356.087 1131.27 349.289 1131.27 349.289L1132.21 349.157Z" fill="black" fill-opacity="0.275213"/>
<path d="M1149.02 344.824C1149.02 344.824 1149.6 350.555 1149.42 351.689C1149.24 352.822 1149.01 355.002 1150.39 355.69C1151.77 356.378 1153.69 356.377 1154.58 357.149C1155.46 357.921 1155.67 359.946 1158.22 360.566C1160.77 361.187 1162.95 359.992 1163.04 358.819C1163.12 357.647 1162.89 357.086 1161.1 355.48C1159.31 353.873 1156.4 351.866 1155.38 350.163C1154.37 348.46 1154.36 344.678 1154.36 344.678C1154.36 344.678 1152.95 345.13 1151.96 345.157C1150.97 345.184 1149.02 344.824 1149.02 344.824Z" fill="#733DFF"/>
<path d="M1152.86 344.719L1154.36 344.678C1154.37 347.199 1154.7 349.028 1155.38 350.163C1156.4 351.866 1159.31 353.873 1161.1 355.48L1161.43 355.776C1162.76 357.01 1163.06 357.59 1163.05 358.479L1162.1 357.896C1157.55 355.101 1154.97 353.071 1154.35 351.806C1153.69 350.448 1153.19 348.086 1152.86 344.719Z" fill="black" fill-opacity="0.275213"/>
<path d="M1146.71 245.869L1147.15 246.514C1149.28 249.684 1150.44 252.06 1150.64 253.643C1150.82 255.015 1150.14 257.051 1148.61 259.751L1148.19 258.571L1148.18 258.582C1148.51 256.963 1148.67 255.55 1148.67 254.343C1148.67 252.409 1148.02 249.585 1146.71 245.869Z" fill="black" fill-opacity="0.275213"/>
<path d="M1127.72 268.645C1127.72 268.645 1128.1 269.307 1128.03 269.686C1127.68 271.389 1124.62 270.174 1124.62 270.174L1127.72 268.645Z" fill="#733DFF"/>
<path fill-rule="evenodd" clip-rule="evenodd" d="M1144.2 262.315L1142.72 245.869L1127.03 259.106L1123.43 255.766L1125.12 261.567L1131.89 258.77L1134.12 258.047L1135.44 262.702L1135.22 264.818L1124.61 270.202L1123.88 274.629L1144.2 262.315ZM1123.36 255.696L1123.3 255.646L1123.35 255.884L1123.36 255.696Z" fill="black" fill-opacity="0.275213"/>
<path d="M1131.98 247.122C1131.78 247.165 1131.63 247.337 1131.62 247.543L1131.11 259.224L1134.12 258.047L1135.4 262.442L1135.23 264.818L1132.43 266.114L1142.17 263.06C1142.35 263.004 1142.48 262.84 1142.49 262.651L1143.23 245.329C1143.24 245.035 1142.98 244.809 1142.69 244.869L1131.98 247.122Z" fill="#733DFF"/>
<path d="M1142.91 245.354C1143.06 245.361 1143.18 245.46 1143.22 245.593L1142.49 262.719C1142.48 262.846 1142.41 262.958 1142.3 263.014L1142.25 263.038L1135.74 265.076L1135.91 262.791L1134.64 258.396L1134.27 258.539L1134.12 258.047L1131.65 259.014L1132.14 247.816C1132.15 247.679 1132.23 247.56 1132.35 247.509L1132.41 247.49L1142.83 245.36C1142.86 245.355 1142.89 245.353 1142.91 245.354Z" fill="#D6D9FB"/>
<path fill-rule="evenodd" clip-rule="evenodd" d="M1141.36 247.07C1141.37 246.86 1141.53 246.687 1141.74 246.655L1142.02 246.611C1142.3 246.566 1142.56 246.797 1142.54 247.085L1142.43 248.772C1142.41 248.982 1142.26 249.154 1142.05 249.187L1141.77 249.231C1141.48 249.275 1141.23 249.045 1141.25 248.757L1141.36 247.07Z" fill="#ABBBD9"/>
<path d="M1141.19 247.07C1141.2 246.86 1141.36 246.687 1141.57 246.655L1141.85 246.611C1142.13 246.566 1142.39 246.797 1142.37 247.085L1142.26 248.772C1142.24 248.982 1142.09 249.154 1141.88 249.187L1141.6 249.231C1141.31 249.275 1141.06 249.045 1141.08 248.757L1141.19 247.07Z" fill="#733DFF"/>
<path fill-rule="evenodd" clip-rule="evenodd" d="M1141.89 247.828C1142.08 247.828 1142.23 247.661 1142.23 247.455C1142.23 247.25 1142.08 247.083 1141.89 247.083C1141.71 247.083 1141.55 247.25 1141.55 247.455C1141.55 247.661 1141.71 247.828 1141.89 247.828Z" fill="black"/>
<path fill-rule="evenodd" clip-rule="evenodd" d="M1141.89 248.852C1142.08 248.852 1142.23 248.685 1142.23 248.48C1142.23 248.274 1142.08 248.107 1141.89 248.107C1141.71 248.107 1141.55 248.274 1141.55 248.48C1141.55 248.685 1141.71 248.852 1141.89 248.852Z" fill="black"/>
<path opacity="0.212402" fill-rule="evenodd" clip-rule="evenodd" d="M1133.89 258.72L1136.35 255.543C1136.43 255.437 1136.5 255.327 1136.57 255.211C1136.8 254.807 1137.36 253.817 1137.53 253.508C1138.09 252.514 1139.34 251.605 1139.62 251.869C1139.9 252.133 1139.56 252.948 1139.11 253.883C1138.85 254.421 1139.1 255.12 1139.1 255.12L1141.67 254.272C1141.97 254.171 1142.28 254.416 1142.25 254.738L1141.88 258.752C1141.79 259.813 1141.09 260.728 1140.1 261.091L1138.56 261.654L1135.92 262.791L1135.83 262.48L1133.1 259.048L1133.89 258.72Z" fill="url(#paint1_linear)"/>
<path d="M1169.58 247.239C1168.7 246.734 1168.22 245.747 1168.36 244.746L1168.87 241.205C1168.96 240.583 1169.24 240.005 1169.68 239.552L1170.86 238.321C1171.04 238.135 1171.33 238.12 1171.53 238.287C1171.69 238.426 1171.75 238.655 1171.66 238.853L1171.19 239.954L1170.91 241.57L1173.34 239.747C1175.19 238.358 1177.84 239.68 1177.84 241.995C1177.84 242.429 1177.65 242.842 1177.32 243.129L1173.07 246.889C1172.1 247.742 1170.69 247.883 1169.58 247.239Z" fill="#FFAF8A"/>
<path d="M1135.39 220.847C1135.39 220.847 1137.02 224.136 1138.11 224.136C1139.21 224.136 1140.51 226.97 1140.51 226.97L1143.02 221.209L1134.27 215.855L1135.39 220.847Z" fill="black" fill-opacity="0.175153"/>
<path d="M1135.8 220.393C1135.8 220.393 1135.85 222.917 1134 223.869C1132.14 224.821 1130.71 227.407 1131.29 230.113C1131.88 232.819 1128.52 242.891 1128.52 242.891C1128.52 242.891 1127.9 239.328 1126.58 238.524C1125.25 237.72 1124.21 234.932 1123.98 232.949C1123.55 229.232 1124.72 218.579 1126.85 216.331C1128.98 214.083 1131.29 214.609 1131.29 214.609C1131.29 214.609 1135.38 213.317 1138.15 214.609C1140.92 215.9 1141.6 219.207 1142.81 220.098C1144.02 220.988 1141.43 225.018 1139.72 224.494C1138.01 223.97 1135.8 220.393 1135.8 220.393Z" fill="#0D134E"/>
<path d="M1134.91 258.021L1137.37 254.844C1137.45 254.739 1137.53 254.629 1137.59 254.513C1137.82 254.109 1138.38 253.119 1138.55 252.809C1139.11 251.816 1140.36 250.907 1140.64 251.171C1140.92 251.435 1140.58 252.249 1140.13 253.185C1139.87 253.722 1140.12 254.422 1140.12 254.422L1142.69 253.574C1142.99 253.473 1143.3 253.717 1143.27 254.039L1142.91 258.054C1142.81 259.115 1142.11 260.03 1141.12 260.393L1139.58 260.956L1136.55 262.188L1134.85 262.895L1134.12 258.35L1134.91 258.021Z" fill="#FFAF8A"/>
<path d="M873.795 317.277L876.609 315.284L872.859 313.141L872.763 313.086L872.699 312.995C872.509 312.725 872.187 312.583 871.859 312.641C871.78 312.655 871.702 312.681 871.629 312.717L845.703 325.746C845.403 325.896 845.207 326.218 845.215 326.575L847.111 411.324C847.119 411.707 847.327 412.049 847.644 412.227L870.853 425.197C871.116 425.344 871.435 425.339 871.693 425.182L904.931 405.012C905.192 404.853 905.359 404.56 905.359 404.236V397.552L884.923 384.228L884.739 384.108L884.703 383.892L873.591 317.768L873.539 317.459L873.795 317.277Z" fill="#F8FCFF" stroke="#E9EBFF"/>
<path d="M889.281 380.316L878.217 316.634C878.01 315.445 876.714 314.792 875.635 315.334L850.481 327.974C849.858 328.287 849.472 328.931 849.49 329.628L851.319 401.585L870.957 416.998C871.537 417.453 872.335 417.508 872.972 417.139L904.65 398.765C905.675 398.171 905.856 396.765 905.015 395.931L889.281 380.316Z" fill="#D6D9FB"/>
<path d="M887.424 365.856L887.379 365.814C887.114 365.588 886.731 365.604 886.484 365.837L886.421 365.906L872.514 383.124L851.889 384.06L852.573 407.811L852.294 408.156C852.085 408.415 852.087 408.786 852.288 409.041L852.348 409.108L881.066 437.206C881.474 437.605 882.077 437.702 882.581 437.461L882.687 437.404L919.475 415.558C919.509 415.538 919.542 415.517 919.573 415.494C920.134 415.092 920.309 414.334 920.012 413.725L916.905 381.109L898.396 381.949L887.503 365.952C887.48 365.918 887.453 365.886 887.424 365.856L887.379 365.814L887.424 365.856Z" fill="#5C66C0"/>
<path d="M883.334 400.492L881.804 437.928L851.319 415.029L851.061 383.827L883.334 400.492Z" fill="#4A529E"/>
<path d="M886.107 363.237C886.384 363.074 886.727 363.072 887.007 363.231L915.869 379.627C917.077 380.314 917.084 382.053 915.881 382.75L884.225 401.076C883.679 401.392 883.008 401.4 882.455 401.096L852.449 384.59C851.838 384.254 851.825 383.379 852.427 383.026L886.107 363.237Z" fill="#D6D9FB"/>
<path d="M882.318 365.648L874.329 324.111C874.172 323.29 873.272 322.847 872.526 323.223L854.907 332.09C854.45 332.321 854.177 332.804 854.217 333.315L857.933 380.598L882.318 393.453L905.859 380.209L882.318 365.648Z" fill="#0D134E"/>
<path d="M907.904 308.533C907.904 308.533 913.232 314.327 913.794 316.639C914.356 318.952 914.558 326.538 913.794 330.358C913.03 334.179 908.327 338.625 908.327 346.579C908.327 354.532 911.099 381.045 911.099 383.068C911.099 385.092 908.695 400.885 909.256 402.512C909.817 404.139 908.75 407.501 908.327 409.118C907.904 410.734 907.412 418.853 909.256 420.44C911.099 422.027 914.498 422.609 914.498 418.944C914.498 415.278 914.1 412.502 914.498 410.81C914.896 409.118 914.1 405.743 914.498 404.92C914.896 404.096 916.023 403.304 916.446 401.417C916.869 399.53 921.168 383.019 921.168 380.539C921.168 378.059 923.556 357.536 923.556 357.536C923.556 357.536 923.719 367.037 924.296 369.41C924.873 371.782 925.017 373.21 924.945 374.1C924.873 374.99 923.141 379.585 923.141 385.131C923.141 389.056 922.452 392.567 922.478 394.719C922.488 395.607 923.019 396.416 923.141 396.686C923.556 397.611 921.985 403.222 923.141 404.475C924.296 405.729 926.26 404.088 928.304 405.729C930.349 407.369 932.694 409.549 934.889 409.118C937.084 408.686 937.385 405.862 935.034 403.64C932.684 401.417 928.304 398.577 928.304 397.752C928.304 396.927 929.475 396.42 929.475 394.719C929.475 393.017 933.868 378.675 933.868 372.856C933.868 367.037 933.941 346.429 933.868 343.026C933.796 339.624 931.337 333.664 931.127 331.777C930.792 328.764 933.868 321.058 933.868 319.432C933.868 316.788 933.868 318.123 933.868 318.123C933.868 318.123 935.208 323.575 936.101 325.384C936.995 327.193 945.651 338.452 945.651 338.452L948.942 335.344C948.942 335.344 942.763 321.328 942.409 320.385C942.055 319.441 936.045 299.688 933.896 298.703C931.413 297.566 928.286 296.625 919.887 300.346C911.255 304.17 907.904 308.533 907.904 308.533Z" fill="#380085"/>
<path d="M933.896 309.986L941.973 333.632L940.498 331.668C938.017 328.345 936.563 326.271 936.134 325.446L936.102 325.384C935.526 324.218 934.812 321.917 933.958 318.483L933.869 318.123L933.896 309.986Z" fill="black" fill-opacity="0.275213"/>
<path d="M931.927 334.863L931.939 334.854L932.403 336.352C932.562 336.871 932.723 337.404 932.876 337.941C929.457 339.725 925.815 340.617 921.95 340.617C917.796 340.617 913.89 339.768 910.234 338.071C910.652 337.131 911.1 336.26 911.533 335.44C914.967 337.203 918.439 338.015 921.95 337.878C925.451 337.741 928.777 336.736 931.927 334.863Z" fill="#733DFF"/>
<path d="M914.499 313.834C918.361 318.534 921.843 323.659 924.946 329.21L926.505 331.99C928.797 336.065 931.258 340.387 933.889 344.958L933.896 346.598L911.862 334.824L912.376 333.855C913.036 332.594 913.576 331.451 913.795 330.359C914.558 326.538 914.356 318.952 913.795 316.639C913.775 316.557 913.75 316.472 913.721 316.383L914.499 313.834Z" fill="black" fill-opacity="0.275213"/>
<path d="M911.567 404.655C912.219 404.903 913.24 404.914 914.627 404.689C914.579 404.766 914.535 404.843 914.498 404.92C914.1 405.743 914.896 409.118 914.498 410.81C914.1 412.502 914.498 415.278 914.498 418.944C914.498 422.609 911.099 422.027 909.256 420.44C907.412 418.853 907.904 410.734 908.327 409.118L908.435 408.718C908.842 407.224 909.552 404.777 909.392 403.175C910.366 403.982 911.091 404.475 911.567 404.655Z" fill="#733DFF"/>
<path d="M926.066 397.683C926.762 397.776 927.516 397.734 928.327 397.558C928.312 397.621 928.305 397.686 928.305 397.752C928.305 398.577 932.684 401.417 935.035 403.64C937.386 405.862 937.085 408.686 934.89 409.118C932.695 409.549 930.35 407.369 928.305 405.729C926.26 404.088 924.297 405.729 923.141 404.475C922.033 403.273 923.432 398.065 923.183 396.823C924.135 397.268 925.097 397.554 926.066 397.683Z" fill="#733DFF"/>
<path d="M931.127 297.618C932.158 299.816 932.289 300.484 932.289 300.857C932.289 301.732 929.579 303.597 929.191 303.128C929.008 302.907 926.752 298.801 926.236 298.189C927.973 297.745 929.701 297.517 931.127 297.618Z" fill="#733DFF"/>
<path d="M919.887 300.346C925.005 298.078 928.166 297.542 930.416 297.726C930.86 298.421 931.107 299.192 931.107 300.003C931.107 303.089 927.531 305.592 923.119 305.592C919.889 305.592 917.107 304.25 915.849 302.32L916.094 302.188C917.26 301.564 918.524 300.95 919.887 300.346Z" fill="black" fill-opacity="0.275213"/>
<path d="M924.183 303.571C926.024 303.014 925.918 301.373 925.918 301.373V299.777C925.918 299.777 927.778 301.021 929.494 300.476C931.21 299.931 931.925 296.703 932.579 293.39C933.234 290.076 932.579 286.103 932.579 286.103L924.595 284.206L918.006 287.782C918.006 287.782 920.113 296.859 920.113 298.668C920.113 300.476 919.771 300.856 920.113 301.373C920.455 301.891 922.342 304.129 924.183 303.571Z" fill="#FFAF8A"/>
<path d="M924.595 284.206L932.579 286.103C932.692 286.786 932.775 287.454 932.83 288.108L931.415 288.83C928.027 290.572 925.752 291.824 924.59 292.586C922.535 293.933 923.95 298.635 923.243 300.239C922.93 300.948 922.344 301.8 921.485 302.797C920.79 302.258 920.276 301.62 920.113 301.373C919.784 300.876 920.088 300.506 920.112 298.87L920.113 298.668C920.113 297.563 919.523 294.422 918.342 289.245L918.006 287.782L924.595 284.206Z" fill="black" fill-opacity="0.175153"/>
<path d="M925.157 299.256C925.255 299.256 925.508 299.487 925.917 299.948L925.918 301.374C925.985 302.42 925.459 303.136 924.339 303.521L924.151 303.581L924.479 301.94C924.846 300.15 925.072 299.256 925.157 299.256Z" fill="black" fill-opacity="0.175153"/>
<path d="M928.956 287.56C929.751 287.115 930.663 289.373 932.906 289.373C935.149 289.373 936.845 286.313 935.826 284.951C934.806 283.59 933.492 283.807 932.542 282.303C931.593 280.799 931.298 279.301 929.493 279.005C927.688 278.71 925.897 279.965 924.594 279.965C923.29 279.965 922.01 278.275 919.695 279.481C917.379 280.687 917.75 286.576 916.446 287.56C915.141 288.543 911.333 291.767 912.653 294.208C913.973 296.649 917.088 295.619 915.794 298.439C914.499 301.259 915.151 303.685 915.151 303.685L919.695 300.951C919.695 300.951 922.001 301.685 922.001 300.136C922.001 298.586 920.692 297.176 922.001 295.952C923.311 294.729 921.285 293.156 922.001 291.897C922.718 290.637 926.744 291.552 927.688 290.666C928.632 289.78 928.16 288.004 928.956 287.56Z" fill="#380085"/>
<path d="M915.502 302.384L916.282 301.875L916.741 302.513C917.266 303.251 917.655 303.833 917.91 304.259L919.031 306.199C919.225 306.556 919.113 306.434 919.113 306.67C919.113 307.545 915.962 309.409 915.511 308.94L915.465 308.899C915.364 308.827 915.459 309.069 914.518 307.809L913.916 306.991C913.559 306.502 912.888 305.778 911.905 304.82C913.05 304.017 914.291 303.179 915.502 302.384Z" fill="#733DFF"/>
<path d="M927.86 322.061C927.86 323.98 927.449 329.17 926.627 337.621L926.988 337.658C927.811 329.192 928.223 323.998 928.223 322.061C928.223 320.111 927.656 317.3 926.524 313.622L926.478 313.473L926.328 313.493C923.109 313.914 920.983 313.454 919.939 312.142C919.394 311.457 917.541 308.704 917.284 308.354C917.157 308.181 917.066 308.051 917.012 307.963C916.99 307.927 916.975 307.901 916.968 307.885L916.97 307.89C916.994 307.95 916.995 308.007 916.887 308.072L916.704 307.75C916.576 307.827 916.586 307.916 916.633 308.03C916.649 308.066 916.672 308.109 916.706 308.163C916.766 308.261 916.862 308.398 916.994 308.578C917.254 308.932 919.11 311.689 919.658 312.378C920.783 313.791 922.975 314.283 926.223 313.882C927.315 317.454 927.86 320.183 927.86 322.061Z" fill="#733DFF"/>
<path d="M930.523 302.172C931.086 304.106 931.086 306.1 930.523 308.156C929.963 310.199 928.542 311.987 926.251 313.522L926.45 313.834C928.809 312.253 930.286 310.394 930.872 308.257C931.454 306.134 931.454 304.068 930.871 302.065L930.523 302.172Z" fill="#733DFF"/>
<path d="M931.796 341.114C931.796 341.114 935.743 348.528 930.889 345.216C930.668 345.064 930.21 344.751 930.21 344.751C930.21 344.751 914.277 333.902 913.196 331.777C912.116 329.653 905.621 310.225 907.904 308.532C910.188 306.84 914.635 309.589 915.281 312.253C915.928 314.917 918.77 325.604 919.84 326.217C920.909 326.83 931.796 341.114 931.796 341.114Z" fill="#380085"/>
<path d="M1140.16 418.541C1140.16 418.541 1137.09 417.406 1137.09 415.546C1137.09 413.686 1137.32 400.032 1138.01 398.447C1138.7 396.862 1143.44 378.817 1145.7 376.284C1147.95 373.751 1157.72 371.132 1162.22 371.132C1166.72 371.132 1178.07 375.423 1180.55 377.75C1183.03 380.076 1175.8 385.323 1175.8 390.224C1175.8 395.124 1174.25 405.501 1175.03 409.239C1175.8 412.978 1176.48 423.93 1176.48 423.93C1176.48 423.93 1175.96 448.432 1176.48 459.189C1176.57 460.986 1177.1 463.512 1177.26 465.364C1177.54 468.591 1178.41 475.622 1178.2 485.149C1178.17 486.525 1177.26 488.819 1177.26 488.819C1177.26 488.819 1175.09 489.534 1174.03 489.386C1172.97 489.238 1171.08 487.955 1171.08 487.955C1171.08 487.955 1170.15 486.087 1169.93 485.149C1167.35 474.144 1166.53 467.916 1166.53 466.694C1166.53 464.706 1166.53 460.178 1166.53 460.178L1161.84 432.457C1161.84 432.457 1158.49 451.727 1156.7 455.463C1156.11 456.708 1157.6 457.092 1157.38 461.638C1157.25 464.275 1156.13 474.154 1155.25 479.277C1155.02 480.582 1154.23 482.765 1154.23 482.765C1154.23 482.765 1151.94 484.229 1150.83 484.229C1149.72 484.229 1147.85 482.765 1147.85 482.765C1147.85 482.765 1147.02 481.423 1147.02 479.277C1147.02 477.131 1147.02 458.153 1147.02 455.463C1147.02 451.029 1149.7 409.606 1149.7 404.964C1149.7 400.321 1148.79 390.224 1148.79 390.224L1145.7 399.733C1145.7 399.733 1144.65 417.987 1143.55 417.987C1142.44 417.987 1140.16 418.541 1140.16 418.541Z" fill="#380085"/>
<path d="M1192.41 457.18C1193.1 456.774 1193.51 456.038 1193.51 455.242V432.377C1193.51 431.59 1193.1 430.86 1192.43 430.452L1187.69 427.568C1186.97 427.133 1186.08 427.13 1185.36 427.561L1165.66 439.387C1164.98 439.795 1164.57 440.528 1164.57 441.319V464.241C1164.57 465.043 1164.99 465.785 1165.69 466.188L1170.37 468.915C1171.08 469.325 1171.95 469.322 1172.66 468.905L1192.41 457.18Z" fill="#F8FCFF" stroke="#E9EBFF" stroke-width="0.6144"/>
<path d="M1170.52 443.363L1164.55 439.97C1164.38 440.251 1164.28 440.567 1164.26 440.899L1164.26 441.01V464.555C1164.26 465.233 1164.6 465.862 1165.15 466.226L1165.24 466.284L1170.56 469.375C1170.83 469.535 1171.13 469.621 1171.44 469.632L1171.52 445.108C1171.52 444.383 1171.14 443.714 1170.52 443.363Z" fill="#5C66C0"/>
<path d="M1185.65 427.035L1185.54 427.092L1165.22 439.294C1164.94 439.462 1164.71 439.696 1164.54 439.97L1170.24 443.118C1171.03 443.555 1172 443.542 1172.78 443.084L1192.15 431.693C1192.27 431.625 1192.37 431.533 1192.45 431.422C1192.75 431.003 1192.69 430.421 1192.31 430.084L1192.25 430.032L1191.9 429.771L1187.51 427.098C1186.97 426.771 1186.32 426.733 1185.75 426.985L1185.65 427.035Z" fill="#D0D4FF"/>
<path d="M1180.42 429.254C1180.84 429 1181.36 428.999 1181.77 429.253L1188.32 433.29C1189.07 433.756 1189.54 434.581 1189.54 435.469V437.852L1176.59 444.873C1176.15 445.115 1175.61 445.115 1175.16 444.872L1175.15 444.864C1174.67 444.607 1174.38 444.111 1174.38 443.572C1174.38 443.053 1174.1 442.573 1173.66 442.308L1167.05 438.387C1166.91 438.307 1166.74 438.333 1166.63 438.449L1166.98 437.881C1167.19 437.535 1167.48 437.244 1167.82 437.032L1180.42 429.254Z" fill="#380085"/>
<path d="M1181.4 428.729C1181.81 428.491 1182.32 428.497 1182.72 428.745L1189.29 432.793C1190.04 433.259 1190.5 434.084 1190.5 434.972V436.613C1190.5 437.072 1190.26 437.496 1189.86 437.724L1177.26 444.945C1176.41 445.434 1175.35 444.818 1175.35 443.834V443.695C1175.35 442.792 1174.87 441.956 1174.09 441.494L1168.44 438.133C1168.02 437.885 1167.5 437.894 1167.09 438.155L1166.63 438.449L1166.65 438.343C1166.79 437.62 1167.24 436.993 1167.88 436.622L1181.4 428.729Z" fill="#959FFA"/>
<path d="M1181.61 431.079L1181.56 431.108C1181.56 431.108 1171.56 436.853 1171.41 437.169C1171.29 437.395 1172.96 438.453 1173.91 439.034C1174.31 439.275 1174.8 439.274 1175.2 439.041L1184.86 433.393C1184.92 433.359 1184.97 433.313 1185.01 433.259C1185.16 433.05 1185.13 432.761 1184.94 432.594L1184.91 432.568L1184.74 432.438L1182.54 431.111C1182.27 430.948 1181.95 430.929 1181.67 431.054L1181.61 431.079Z" fill="#380085"/>
<path d="M1190.42 442.221L1176.1 450.364C1175.69 450.596 1175.18 450.445 1174.95 450.025C1174.72 449.605 1174.87 449.075 1175.28 448.843L1189.6 440.7C1190.01 440.467 1190.52 440.619 1190.75 441.039C1190.97 441.459 1190.83 441.988 1190.42 442.221Z" fill="#FF623F"/>
<path d="M1182.93 432.646V427.91C1182.93 426.923 1181.86 426.307 1181.01 426.803L1175.22 430.165C1174.44 430.623 1173.95 431.466 1173.95 432.378V437.653" stroke="#733DFF" stroke-width="2.88" stroke-linecap="round"/>
<path d="M1190.16 434.372L1175.75 442.801C1175.58 442.904 1175.36 442.842 1175.26 442.664C1175.16 442.485 1175.22 442.257 1175.39 442.155L1189.8 433.726C1189.97 433.623 1190.19 433.685 1190.29 433.864C1190.39 434.042 1190.33 434.27 1190.16 434.372Z" fill="#D0D4FF"/>
<path d="M1152.21 375.079L1153.22 377.172C1154.72 380.28 1157.81 382.247 1161.19 382.247H1161.68C1164.92 382.247 1167.89 380.448 1169.46 377.548L1170.79 375.087L1170.48 374.906L1169.15 377.367C1167.64 380.149 1164.78 381.874 1161.68 381.874H1161.19C1157.95 381.874 1154.99 379.988 1153.55 377.007L1152.54 374.914L1152.21 375.079Z" fill="#733DFF"/>
<path d="M1149.08 386.897L1148.8 390.279L1148.79 390.224L1145.7 399.733L1145.56 401.997C1145 411.191 1144.42 416.421 1143.83 417.685L1142.9 417.685L1143.43 406.939C1143.59 403.625 1143.69 401.38 1143.72 400.204L1143.74 399.48C1143.74 398.331 1145.22 394.73 1148.2 388.676L1149.08 386.897Z" fill="black" fill-opacity="0.275213"/>
<path d="M1140.8 415.119C1143.74 414.304 1146.94 419.961 1146.11 421.164C1145.28 422.368 1144.9 419.246 1143.53 419.246C1142.15 419.246 1142.69 423.763 1142.69 424.525C1142.69 425.288 1145.39 429.065 1144.46 429.516C1143.53 429.968 1140.8 425.232 1140.8 424.525C1140.8 423.818 1141.04 427.092 1141.61 428.304C1142.19 429.516 1141.58 430.263 1141.19 430.263C1140.8 430.263 1139.45 426.665 1139.13 425.124C1139.07 424.87 1139.22 426.332 1139.22 427.566C1139.22 427.958 1139.59 429.167 1139.59 429.516C1139.59 430.488 1139.05 430.82 1139.01 430.643C1138.94 430.273 1137.92 426.488 1137.7 425.124C1137.32 422.864 1137.7 420.679 1137.7 419.932C1137.7 418.247 1137.87 415.934 1140.8 415.119Z" fill="#FFAF8A"/>
<path d="M1174.86 489.253C1175.71 489.253 1176.51 489.111 1177.26 488.827L1177.56 489.618C1180.46 497.371 1181.7 502.002 1181.28 503.513C1180.63 505.855 1178.03 506.738 1175.75 504.327C1173.47 501.916 1173.43 500.25 1172.95 498.16C1172.47 496.069 1171.08 495.372 1170.93 494.064L1170.91 493.869C1170.84 492.919 1170.89 490.979 1171.07 488.049C1172.17 488.852 1173.43 489.253 1174.86 489.253Z" fill="#733DFF"/>
<path d="M1154.3 482.557L1154.23 482.765L1154.49 484.263C1154.97 487.062 1155.15 488.686 1155.02 489.135C1154.96 489.351 1154.44 489.935 1153.16 490.338C1152.3 490.61 1150.66 491.595 1150.16 492.443C1148.93 494.545 1147.15 495.756 1145.7 496.328L1145.45 496.422C1142.67 497.409 1137.21 497.751 1142.08 491.833L1142.24 491.646C1145.71 487.512 1147.58 484.579 1147.84 482.848C1148.69 483.431 1149.65 483.722 1150.7 483.722C1152.02 483.722 1153.22 483.334 1154.3 482.557Z" fill="#733DFF"/>
<path d="M1160.25 410.181C1166.06 410.629 1167.98 410.434 1174.99 409.082C1175 409.136 1175.01 409.189 1175.03 409.24C1175.2 410.073 1175.37 411.174 1175.53 412.544C1167.44 413.691 1162.98 413.61 1159.44 413.183C1155.06 412.655 1149.53 409.95 1149.53 409.95C1149.53 409.95 1149.61 407.958 1149.64 407.509C1152.7 409.082 1154.44 409.732 1160.25 410.181Z" fill="#733DFF"/>
<path d="M1149.53 401.366L1151 401.616C1152.24 401.828 1153.15 402.929 1153.15 404.219C1153.15 405.265 1152.32 406.113 1151.3 406.113C1151.2 406.113 1151.1 406.104 1151 406.087L1149.69 405.864L1149.69 405.276C1149.7 405.174 1149.7 405.07 1149.7 404.964L1149.69 404.524C1149.68 403.679 1149.62 402.627 1149.53 401.366Z" fill="#733DFF"/>
<path d="M1174.82 407.2L1172.81 407.2C1171.61 407.2 1170.63 406.199 1170.63 404.964C1170.63 403.773 1171.54 402.8 1172.68 402.732L1172.81 402.728L1174.94 402.728C1174.84 404.382 1174.78 405.925 1174.82 407.2Z" fill="#733DFF"/>
<path d="M1175.72 389.6L1175.8 390.116L1175.8 390.224C1175.8 395.03 1174.31 405.104 1174.98 409.016L1175.13 409.76C1175.59 412.274 1176.02 416.717 1176.43 423.087C1174.59 424.543 1171.29 413.816 1171.45 410.491C1171.61 407.165 1174.38 400.018 1175.65 390.107L1175.72 389.6Z" fill="black" fill-opacity="0.275213"/>
<path d="M1180.35 421.723C1179.45 421.353 1178.77 422.984 1177.85 423.415C1175.26 424.622 1174.23 427.567 1173.95 428.639C1173.81 429.191 1173.97 429.618 1173.97 429.618C1173.97 429.618 1176.04 428.289 1176.93 428.289C1177.76 428.289 1177.75 428.985 1177.5 429.876C1177.44 430.1 1176.74 430.952 1176.43 431.048C1176.26 431.101 1176.06 430.963 1175.85 431.048C1175.53 431.179 1175.22 431.546 1175.21 431.669C1175.18 431.909 1175.49 432.486 1176.43 432.627C1177.03 432.717 1177.49 432.717 1178.08 432.254C1178.66 431.805 1179.04 433.676 1180.35 432.254C1180.53 432.052 1181.32 432.442 1181.94 431.686C1182.11 431.473 1182.97 432.042 1183.07 430.893C1183.21 429.085 1182.99 428.162 1183.07 427.424C1183.26 425.551 1183.34 422.961 1180.35 421.723Z" fill="#FFAF8A"/>
<path d="M1153.72 372.556L1154.96 375.618C1155.43 376.767 1154.92 378.086 1153.81 378.592C1152.78 379.063 1151.58 378.624 1151.06 377.611L1150.98 377.437L1149.55 373.897C1150.83 373.406 1152.27 372.95 1153.72 372.556Z" fill="#733DFF"/>
<path d="M1173.88 374.238L1172.28 377.505C1171.73 378.623 1170.42 379.101 1169.31 378.592L1169.21 378.548C1168.23 378.038 1167.81 376.834 1168.24 375.809L1168.3 375.686L1169.74 372.741C1171.13 373.19 1172.55 373.702 1173.88 374.238Z" fill="#733DFF"/>
<path d="M1162.22 371.132C1164.57 371.132 1168.81 372.309 1172.66 373.764L1172.67 373.835L1172.67 373.965C1172.67 376.434 1168.77 378.436 1163.96 378.436C1159.15 378.436 1155.25 376.434 1155.25 373.965C1155.25 373.246 1155.58 372.567 1156.16 371.965C1158.46 371.448 1160.66 371.132 1162.22 371.132Z" fill="black" fill-opacity="0.275213"/>
<path d="M1175.38 387.894C1175.38 387.894 1178.82 400.493 1178.82 401.469C1178.82 402.445 1177.49 421.038 1177.36 422.864C1177.22 424.69 1180.61 424.5 1182.42 424.5C1184.23 424.5 1186.45 405.991 1187.2 403.357C1187.95 400.724 1181.07 378.531 1181.07 378.531L1175.38 387.894Z" fill="#380085"/>
<path d="M1161.32 382.041C1160.44 390.715 1160 397.008 1160 400.924V412.513H1160.36V400.924C1160.36 397.024 1160.8 390.741 1161.68 382.08L1161.32 382.041Z" fill="#733DFF"/>
<path d="M1160.32 374.674C1162.02 374.916 1164.46 373.591 1165.57 372.913C1165.93 372.695 1166.09 372.259 1165.98 371.852C1165.71 370.764 1165.27 368.606 1165.65 367.139C1166.17 365.105 1167.13 360.48 1167.13 360.48C1167.13 360.48 1167.28 352.814 1163.73 352.114C1160.18 351.414 1154.74 352.292 1153.88 355.86C1153.02 359.429 1154.54 367.33 1156.08 368.642C1157.27 369.656 1157.2 371.586 1157.1 372.41C1157.07 372.66 1157.12 372.917 1157.29 373.104C1157.71 373.574 1158.69 374.442 1160.32 374.674Z" fill="#FFAF8A"/>
<path d="M1163.43 367.038L1163.16 367.581C1161.67 370.48 1160.42 371.93 1159.4 371.93C1158.76 371.93 1158.03 371.789 1157.2 371.508C1157.22 370.723 1157.08 370.055 1156.78 369.502C1157.84 370.141 1158.71 370.346 1159.4 370.119C1160.38 369.798 1161.72 368.771 1163.43 367.038Z" fill="black" fill-opacity="0.175153"/>
<path d="M1153.42 359.282C1156.14 358.989 1159.39 355.483 1160.11 355.924C1160.82 356.364 1160.43 358.526 1162.05 358.352C1163.66 358.178 1164.34 357.279 1164.78 358.352C1165.22 359.424 1165.31 363.273 1165.88 363.211C1166.45 363.15 1166.34 358.534 1166.85 358.479C1167.36 358.424 1167.92 359.046 1167.92 359.046C1167.92 359.046 1167.92 356.452 1167.71 354.406C1167.5 352.359 1166.61 351.147 1164.68 350.285C1162.75 349.423 1158.25 350.979 1158.25 350.979C1158.25 350.979 1156.58 349.538 1155.12 349.696C1153.65 349.854 1152.22 353.247 1151.65 353.665C1151.08 354.084 1149.05 353.954 1148.83 354.462C1148.6 354.969 1150.69 359.576 1153.42 359.282Z" fill="#380085"/>
<path d="M1166.62 358.622C1166.62 358.622 1167.96 358.264 1168.23 358.953C1168.49 359.641 1168.01 362.676 1167.68 362.962C1167.35 363.249 1166.31 362.962 1166.31 362.962C1166.31 362.962 1166.23 361.161 1166.31 360.43C1166.38 359.699 1166.62 358.622 1166.62 358.622Z" fill="#FFAF8A"/>
<path fill-rule="evenodd" clip-rule="evenodd" d="M1036.47 512.984C1036.47 513.091 1036.41 513.19 1036.32 513.244L1029.96 517.022C1029.86 517.079 1029.74 517.079 1029.65 517.022L1023.27 513.244C1023.18 513.19 1023.13 513.091 1023.13 512.984V508.197C1023.13 508.089 1023.18 507.989 1023.28 507.935L1029.65 504.264C1029.74 504.21 1029.86 504.21 1029.95 504.264L1036.32 507.935C1036.41 507.989 1036.47 508.089 1036.47 508.197V512.984Z" fill="url(#paint2_linear)"/>
<path d="M1030.06 510.348C1029.92 510.431 1029.75 510.431 1029.61 510.348L1026.32 508.411C1026.21 508.344 1026.21 508.178 1026.32 508.11L1029.6 506.167C1029.75 506.083 1029.92 506.083 1030.06 506.167L1033.34 508.11C1033.46 508.178 1033.46 508.344 1033.34 508.411L1030.06 510.348Z" fill="#31347A"/>
<path d="M1029.68 518.408L1029.83 545.828" stroke="#5C66C0" stroke-width="7" stroke-linecap="round"/>
<path d="M1029.69 511.89L1023.13 508.109L1023.13 508.16V528.543C1023.13 528.611 1023.16 528.675 1023.2 528.719L1023.24 528.748L1029.94 532.55C1030 532.582 1030.07 532.588 1030.13 532.566L1030.17 532.546L1036.36 528.75C1036.41 528.716 1036.45 528.66 1036.47 528.597L1036.47 528.548V508.16C1036.47 508.126 1036.46 508.094 1036.45 508.065L1029.98 511.889C1029.89 511.941 1029.78 511.942 1029.69 511.89L1023.15 508.062L1029.69 511.89Z" fill="#F8FCFF"/>
<path d="M1029.69 511.89L1023.13 508.109L1023.13 508.16V528.543C1023.13 528.611 1023.16 528.675 1023.2 528.719L1023.25 528.748L1029.94 532.55C1029.98 532.569 1030.02 532.579 1030.05 532.579L1029.81 511.928C1029.77 511.925 1029.73 511.912 1029.69 511.89L1023.15 508.062L1029.69 511.89Z" fill="#D6D9FB"/>
<path fill-rule="evenodd" clip-rule="evenodd" d="M1113.62 464.856C1113.62 464.963 1113.57 465.061 1113.48 465.116L1107.11 468.894C1107.02 468.951 1106.9 468.951 1106.8 468.894L1100.43 465.116C1100.34 465.061 1100.28 464.963 1100.28 464.856V460.069C1100.28 459.961 1100.34 459.861 1100.43 459.807L1106.8 456.136C1106.89 456.082 1107.01 456.082 1107.1 456.136L1113.47 459.807C1113.57 459.861 1113.62 459.961 1113.62 460.069V464.856Z" fill="url(#paint3_linear)"/>
<path d="M1107.22 462.22C1107.08 462.303 1106.9 462.303 1106.76 462.22L1103.48 460.283C1103.36 460.216 1103.36 460.05 1103.48 459.982L1106.76 458.039C1106.9 457.955 1107.07 457.955 1107.21 458.039L1110.5 459.983C1110.61 460.05 1110.61 460.216 1110.5 460.283L1107.22 462.22Z" fill="#31347A"/>
<path d="M1106.84 470.28L1106.95 497.842" stroke="#5C66C0" stroke-width="7" stroke-linecap="round"/>
<path d="M1106.85 463.762L1100.29 459.981L1100.28 460.032V480.418C1100.28 480.485 1100.31 480.548 1100.36 480.592L1100.4 480.621L1106.84 484.443C1106.9 484.476 1106.97 484.483 1107.03 484.463L1107.07 484.443L1113.51 480.621C1113.57 480.587 1113.61 480.531 1113.62 480.467L1113.62 480.418V460.032C1113.62 459.998 1113.62 459.966 1113.61 459.936L1107.13 463.761C1107.04 463.813 1106.93 463.813 1106.85 463.762L1100.3 459.934L1106.85 463.762Z" fill="#F8FCFF"/>
<path d="M1106.84 463.762L1100.29 459.981L1100.28 460.032V480.418C1100.28 480.485 1100.31 480.548 1100.36 480.592L1100.4 480.621L1106.84 484.443C1106.88 484.465 1106.92 484.476 1106.97 484.474L1106.96 463.799C1106.92 463.794 1106.88 463.782 1106.84 463.762L1100.3 459.934L1106.84 463.762Z" fill="#D6D9FB"/>
<path fill-rule="evenodd" clip-rule="evenodd" d="M889.728 426.043C889.728 426.15 889.671 426.249 889.579 426.303L883.214 430.081C883.119 430.138 883 430.138 882.905 430.081L876.532 426.303C876.44 426.249 876.384 426.15 876.384 426.043V421.256C876.384 421.148 876.442 421.048 876.535 420.994L882.905 417.323C882.998 417.27 883.113 417.27 883.207 417.323L889.576 420.994C889.67 421.048 889.728 421.148 889.728 421.256V426.043Z" fill="url(#paint4_linear)"/>
<path d="M883.319 423.407C883.179 423.49 883.005 423.49 882.865 423.407L879.581 421.47C879.466 421.403 879.466 421.237 879.581 421.169L882.863 419.226C883.003 419.142 883.178 419.142 883.318 419.226L886.6 421.17C886.714 421.237 886.714 421.403 886.6 421.47L883.319 423.407Z" fill="#31347A"/>
<path d="M882.939 431.467V459.433" stroke="#5C66C0" stroke-width="7" stroke-linecap="round"/>
<path d="M882.949 424.949L876.39 421.169L876.385 421.219V441.605C876.385 441.672 876.413 441.735 876.46 441.779L876.499 441.808L882.946 445.63C883.002 445.664 883.07 445.67 883.131 445.65L883.175 445.63L889.614 441.808C889.671 441.775 889.71 441.718 889.723 441.654L889.728 441.605V421.219C889.728 421.186 889.722 421.153 889.709 421.124L883.233 424.948C883.145 425 883.037 425.001 882.949 424.949L876.405 421.121L882.949 424.949Z" fill="#F8FCFF"/>
<path d="M882.948 424.949L876.389 421.169L876.384 421.219V441.605C876.384 441.672 876.412 441.735 876.459 441.779L876.498 441.808L882.945 445.63C882.983 445.653 883.026 445.663 883.069 445.661L883.059 424.986C883.021 424.982 882.983 424.969 882.948 424.949L876.405 421.121L882.948 424.949Z" fill="#D6D9FB"/>
<path fill-rule="evenodd" clip-rule="evenodd" d="M953.304 379.468C953.304 379.574 953.36 379.673 953.452 379.728L959.818 383.506C959.913 383.562 960.031 383.562 960.126 383.506L966.499 379.728C966.591 379.673 966.647 379.574 966.647 379.468V374.681C966.647 374.573 966.59 374.473 966.496 374.419L960.127 370.748C960.033 370.694 959.918 370.694 959.825 370.748L953.455 374.419C953.361 374.473 953.304 374.573 953.304 374.681V379.468Z" fill="url(#paint5_linear)"/>
<path d="M959.713 376.832C959.853 376.915 960.027 376.915 960.167 376.832L963.451 374.895C963.566 374.828 963.566 374.662 963.451 374.594L960.17 372.65C960.029 372.567 959.854 372.567 959.714 372.65L956.432 374.594C956.318 374.662 956.318 374.828 956.432 374.895L959.713 376.832Z" fill="#31347A"/>
<path d="M960.094 384.892L959.337 421.453" stroke="#5C66C0" stroke-width="7" stroke-linecap="round"/>
<path d="M960.083 378.374L966.642 374.593L966.647 374.644V395.03C966.647 395.097 966.62 395.16 966.572 395.204L966.533 395.233L960.086 399.055C960.03 399.089 959.962 399.095 959.902 399.075L959.857 399.055L953.418 395.233C953.361 395.199 953.322 395.143 953.309 395.079L953.304 395.03V374.644C953.304 374.61 953.311 374.578 953.323 374.548L959.799 378.373C959.887 378.425 959.995 378.425 960.083 378.374L966.627 374.546L960.083 378.374Z" fill="#F8FCFF"/>
<path d="M960.084 378.374L966.643 374.593L966.648 374.644V395.03C966.648 395.097 966.62 395.16 966.573 395.204L966.534 395.233L960.087 399.055C960.049 399.078 960.006 399.088 959.963 399.086L959.973 378.411C960.011 378.406 960.049 378.394 960.084 378.374L966.627 374.546L960.084 378.374Z" fill="#D6D9FB"/>
<path d="M871.837 407.079C866.91 410.086 866.937 417.251 871.887 420.22L1020.16 509.169C1025 512.073 1031.04 512.087 1035.9 509.206L1117.24 460.938C1122.22 457.982 1122.26 450.787 1117.32 447.774L969.065 357.491C964.153 354.5 957.982 354.503 953.074 357.499L871.837 407.079Z" fill="#5C66C0"/>
<path d="M872.406 415.203C867.713 412.424 867.709 405.634 872.399 402.85L953.491 354.718C958.162 351.945 963.974 351.943 968.648 354.711L1116.81 442.46C1121.5 445.241 1121.5 452.038 1116.8 454.817L1035.59 502.863C1030.92 505.624 1025.12 505.623 1020.45 502.86L872.406 415.203Z" fill="#F8FCFF" stroke="#E9EBFF"/>
<path d="M1044.48 420.515C1044.79 420.332 1044.98 420.002 1044.98 419.644V401.921C1044.98 401.559 1044.78 401.225 1044.47 401.044L1012.62 382.689C1012.31 382.509 1011.92 382.509 1011.61 382.689L1011.36 382.257L1011.61 382.689L979.763 401.044C979.45 401.225 979.257 401.559 979.257 401.921V419.644C979.257 420.001 979.445 420.332 979.753 420.515L1011.62 439.406C1011.94 439.595 1012.33 439.595 1012.65 439.406L1044.48 420.515Z" fill="#F8FCFF" stroke="#D0D4FE"/>
<path d="M1011.32 420.816L979.257 402.055V419.828C979.257 420.048 979.36 420.249 979.523 420.373L979.594 420.42L1011.82 439.524C1011.99 439.627 1012.2 439.639 1012.38 439.561L1012.46 439.517L1044.65 420.414L1044.9 420.844L1044.65 420.414C1044.82 420.311 1044.94 420.127 1044.97 419.915L1044.97 419.889L1044.97 419.734L1044.97 419.146C1044.97 418.639 1044.97 417.914 1044.97 417.044C1044.96 415.304 1044.96 412.983 1044.95 410.657C1044.94 408.332 1044.93 406.002 1044.92 404.244C1044.91 403.372 1044.91 402.641 1044.9 402.123L1013.25 420.812C1012.66 421.164 1011.92 421.166 1011.32 420.816Z" fill="#F8FCFF" stroke="url(#paint6_linear)"/>
<path d="M1011.58 420.385L978.86 401.245C978.81 401.358 978.777 401.48 978.763 401.606L978.756 401.734V419.828C978.756 420.209 978.936 420.564 979.235 420.783L979.328 420.844L1011.56 439.954C1011.75 440.066 1011.96 440.118 1012.17 440.111L1012.14 420.57C1011.94 420.549 1011.75 420.487 1011.58 420.385L978.86 401.245L1011.58 420.385Z" fill="#D6D9FB"/>
<path fill-rule="evenodd" clip-rule="evenodd" d="M999.714 417.725C999.559 417.635 999.366 417.746 999.366 417.925V419.849C999.366 420.014 999.453 420.166 999.596 420.249L1007.53 424.866C1007.68 424.956 1007.87 424.845 1007.87 424.667V422.757C1007.87 422.592 1007.79 422.44 1007.64 422.357L999.714 417.725Z" fill="white"/>
<path d="M1000 417.893L1007.7 422.388C1007.79 422.441 1007.85 422.532 1007.87 422.636L1007.87 422.7L1007.87 424.379L1000.18 419.92C1000.09 419.867 1000.02 419.775 1000.01 419.671L1000 419.607L1000 417.893Z" fill="#959FFA"/>
<path fill-rule="evenodd" clip-rule="evenodd" d="M999.714 422.144C999.559 422.054 999.366 422.165 999.366 422.344V424.268C999.366 424.433 999.453 424.585 999.596 424.668L1007.53 429.285C1007.68 429.375 1007.87 429.264 1007.87 429.085V427.175C1007.87 427.011 1007.79 426.859 1007.64 426.776L999.714 422.144Z" fill="white"/>
<path d="M1000 422.312L1007.7 426.806C1007.79 426.86 1007.85 426.951 1007.87 427.055L1007.87 427.118L1007.87 428.798L1000.18 424.338C1000.09 424.285 1000.02 424.194 1000.01 424.089L1000 424.026L1000 422.312Z" fill="#959FFA"/>
<path d="M975.078 439.715C975.46 439.495 975.927 439.481 976.321 439.68L983.066 443.08V444.105C983.066 444.537 982.853 444.94 982.498 445.184L969.738 453.935C969.326 454.218 968.789 454.241 968.354 453.995L961.515 450.127C961.104 449.895 960.851 449.459 960.851 448.988V447.932L975.078 439.715Z" fill="#733DFF"/>
<path d="M974.993 438.784C975.419 438.515 975.961 438.514 976.387 438.782L982.632 442.701C983.13 443.013 983.145 443.733 982.66 444.065L969.749 452.911C969.331 453.197 968.786 453.217 968.348 452.961L961.303 448.837C960.775 448.528 960.762 447.77 961.28 447.443L974.993 438.784Z" fill="#D6D9FB"/>
<path d="M965.388 450.348C965.805 450.348 966.144 450.175 966.144 449.96C966.144 449.746 965.805 449.572 965.388 449.572C964.97 449.572 964.631 449.746 964.631 449.96C964.631 450.175 964.97 450.348 965.388 450.348Z" fill="#733DFF"/>
<path d="M974.916 439.519C975.303 439.27 975.801 439.27 976.188 439.519L981.068 442.65C981.556 442.963 981.571 443.67 981.098 444.004L971.209 450.975C970.83 451.242 970.328 451.262 969.929 451.025L964.351 447.712C963.83 447.402 963.817 446.651 964.327 446.324L974.916 439.519Z" fill="white"/>
<path d="M1005.13 483.528L980.684 469.03C980.684 469.619 980.987 470.156 981.477 470.433L1005.13 484.446C1005.64 484.741 1006.27 484.741 1006.75 484.446L1023.19 474.694C1023.68 474.4 1023.98 473.863 1023.98 473.291L1006.75 483.511C1006.25 483.823 1005.64 483.823 1005.13 483.528Z" fill="#733DFF"/>
<path d="M1023.98 473.356L1006.72 483.614C1006.21 483.91 1005.59 483.91 1005.1 483.614L980.611 469.062L998.677 458.334L1023.98 473.356Z" fill="#D6D9FB"/>
<path d="M1011.18 478.468L1020.85 472.748L999.168 459.882L989.501 465.585L1011.18 478.468Z" fill="#733DFF"/>
<path d="M997.968 477.181L1002.63 474.417L995.568 470.227L990.904 472.991L997.968 477.181Z" fill="#733DFF"/>
<path d="M1023.98 473.326V453.764C1023.98 453.227 1023.7 452.725 1023.26 452.465L999.077 438.131C998.925 438.044 998.74 438.148 998.74 438.339V458.369L1023.98 473.326Z" fill="#D6D9FB"/>
<path d="M999.743 457.727V439.818L1022.81 453.527V471.436L999.743 457.727Z" fill="white"/>
<path d="M1023.99 473.326C1024.42 473.014 1024.65 472.512 1024.65 471.976V453.363C1024.65 452.827 1024.37 452.325 1023.91 452.065L1000.26 438.11C999.836 437.868 999.329 437.868 998.906 438.11L1023.23 452.463C1023.69 452.74 1023.98 453.225 1023.98 453.762V473.326H1023.99Z" fill="#733DFF"/>
<path d="M944.622 429.19L920.171 414.692C920.171 415.281 920.475 415.818 920.964 416.095L944.622 430.108C945.129 430.403 945.753 430.403 946.242 430.108L962.678 420.356C963.168 420.062 963.471 419.525 963.471 418.953L946.242 429.173C945.736 429.485 945.129 429.485 944.622 429.19Z" fill="#733DFF"/>
<path d="M963.464 419.018L946.209 429.276C945.702 429.572 945.077 429.572 944.587 429.276L920.098 414.724L938.165 403.996L963.464 419.018Z" fill="#D6D9FB"/>
<path d="M950.672 424.13L960.339 418.41L938.656 405.544L928.989 411.246L950.672 424.13Z" fill="#733DFF"/>
<path d="M937.455 422.843L942.119 420.079L935.055 415.889L930.391 418.653L937.455 422.843Z" fill="#733DFF"/>
<path d="M963.472 418.988V399.425C963.472 398.889 963.185 398.387 962.746 398.127L938.564 383.793C938.413 383.706 938.227 383.81 938.227 384.001V404.03L963.472 418.988Z" fill="#D6D9FB"/>
<path d="M939.23 403.389V385.48L962.302 399.189V417.098L939.23 403.389Z" fill="white"/>
<path d="M963.481 418.988C963.903 418.676 964.14 418.174 964.14 417.637V399.025C964.14 398.489 963.853 397.986 963.396 397.727L939.746 383.772C939.324 383.529 938.816 383.529 938.394 383.772L962.72 398.125C963.176 398.402 963.464 398.887 963.464 399.423V418.988H963.481Z" fill="#733DFF"/>
<path d="M1028.93 499.252C1032.27 499.252 1034.98 497.515 1034.98 495.371C1034.98 493.227 1032.27 491.49 1028.93 491.49C1025.58 491.49 1022.87 493.227 1022.87 495.371C1022.87 497.515 1025.58 499.252 1028.93 499.252Z" fill="#FF623F"/>
<path d="M1107.59 451.124C1110.93 451.124 1113.64 449.387 1113.64 447.243C1113.64 445.1 1110.93 443.362 1107.59 443.362C1104.25 443.362 1101.54 445.1 1101.54 447.243C1101.54 449.387 1104.25 451.124 1107.59 451.124Z" fill="#FF623F"/>
<path d="M885.208 410.759C888.55 410.759 891.26 409.021 891.26 406.878C891.26 404.734 888.55 402.997 885.208 402.997C881.866 402.997 879.157 404.734 879.157 406.878C879.157 409.021 881.866 410.759 885.208 410.759Z" fill="#FF623F"/>
<path d="M963.874 362.631C967.216 362.631 969.926 360.893 969.926 358.75C969.926 356.606 967.216 354.868 963.874 354.868C960.532 354.868 957.823 356.606 957.823 358.75C957.823 360.893 960.532 362.631 963.874 362.631Z" fill="#FF623F"/>
<path d="M1112.04 544.096L1105.76 572.997L1068.67 550.089C1067.97 549.655 1067.6 548.832 1067.76 548.019L1072.65 521.897C1072.75 521.403 1073.02 520.962 1073.42 520.662L1073.84 520.348L1112.04 544.096Z" fill="#4A529E"/>
<path d="M1110.02 501.669C1109.03 501.131 1107.83 501.136 1106.85 501.681L1074.86 519.406C1073.5 520.162 1073.49 522.119 1074.84 522.892L1111.98 544.099L1119.22 506.676L1110.02 501.669Z" fill="#D6D9FB"/>
<path d="M1112.95 537.783L1084.04 521.007L1107.26 507.885L1117.94 513.43L1112.95 537.783Z" fill="#0D134E"/>
<path d="M1148.15 472.571C1147.7 472.291 1147.13 472.276 1146.65 472.531L1121.46 486.208C1121.05 486.428 1120.77 486.823 1120.69 487.278L1106.31 572.735L1111.34 575.586L1152.29 476.589C1152.57 475.908 1152.32 475.123 1151.69 474.737L1148.15 472.571Z" fill="#F8FCFF" stroke="#E9EBFF"/>
<path d="M1154.34 477.018C1154.37 475.471 1152.7 474.487 1151.35 475.252L1126.06 489.658C1125.53 489.959 1125.17 490.483 1125.07 491.083L1111.59 576.3L1150.19 552.929C1152.13 551.753 1153.33 549.661 1153.36 547.391L1154.34 477.018Z" fill="#5C66C0"/>
<path d="M948.095 334.686C949.254 334.988 950.037 335.348 950.392 335.756C950.531 335.915 951.25 336.539 951.686 337.134C952.361 338.054 952.766 339.024 952.431 339.024C952.174 339.024 951.835 338.795 951.226 338.271C951.005 338.081 950.668 337.824 950.401 337.565L950.248 337.416L952.354 341.981L952.513 342.735C952.76 343.944 952.843 344.572 952.761 344.619C952.648 344.685 952.254 344.06 951.581 342.745L951.491 342.57L950.106 340.485L950.392 341.452C951.193 344.202 951.471 345.577 951.226 345.577C950.953 345.577 950.246 344.08 949.105 341.087L949.254 341.856C949.799 344.727 949.946 346.162 949.693 346.162C949.419 346.162 948.887 344.748 948.095 341.919C948.374 344.748 948.374 346.162 948.095 346.162C947.689 346.162 947.566 343.681 946.871 342.068L946.805 341.919C946.302 340.85 945.744 339.743 945.133 337.565C945.133 337.565 945.427 335.658 946.291 335.246C947.155 334.833 948.095 334.686 948.095 334.686Z" fill="#FFAF8A"/>
<path d="M954.18 341.707L954.164 341.637C953.741 342.363 953.006 342.882 952.368 342.944L952.242 342.95C951.048 342.95 949.594 344.504 948.583 345.478L947.692 346.32C946.702 347.242 945.3 348.36 943.092 348.36C940.355 348.36 937.773 346.211 936.952 343.912C936.926 343.838 936.812 343.711 936.655 343.555C936.647 343.702 936.643 343.851 936.643 344.001C936.643 349.146 940.707 353.316 945.72 353.316C950.733 353.316 954.434 349.146 954.434 344.001C954.434 343.21 954.346 342.441 954.18 341.707L954.164 341.637L954.18 341.707Z" fill="#733DFF"/>
<path d="M953.536 340.162C952.243 338.308 949.248 338.004 947.826 338.889C946.404 339.774 945.977 341.131 943.83 341.131C941.683 341.131 935.913 341.702 936.735 344.001C937.556 346.3 940.356 348.36 943.093 348.36C945.831 348.36 947.33 346.642 948.34 345.708C949.351 344.774 951.326 342.992 952.62 342.992C953.913 342.992 954.83 342.017 953.536 340.162Z" fill="#1B215B"/>
<path d="M952.416 340.456C951.947 339.8 951.101 339.426 950.203 339.308C949.302 339.189 948.415 339.337 947.903 339.648C947.642 339.806 947.417 340.013 947.193 340.245C947.11 340.332 947.022 340.428 946.932 340.526C946.794 340.676 946.65 340.833 946.509 340.972C946.015 341.458 945.413 341.878 944.453 341.878C944.332 341.878 944.203 341.877 944.068 341.876C943.208 341.869 942.085 341.861 941.122 342.086C940.568 342.216 940.094 342.418 939.761 342.722C939.438 343.017 939.233 343.422 939.233 344.001C939.233 344.602 939.39 345.055 939.646 345.402C939.904 345.753 940.274 346.013 940.726 346.205C941.637 346.591 942.831 346.676 943.937 346.676C945.834 346.676 946.949 345.639 947.764 344.881C947.854 344.797 947.94 344.717 948.023 344.643C948.132 344.544 948.258 344.427 948.394 344.299C948.753 343.965 949.191 343.555 949.639 343.199C949.951 342.952 950.278 342.722 950.599 342.553C950.917 342.385 951.25 342.267 951.571 342.267C952.052 342.267 952.481 342.095 952.677 341.819C952.852 341.574 952.908 341.145 952.416 340.456Z" fill="#9286FF" fill-opacity="0.193018" stroke="#6262AD" stroke-width="0.5"/>
<path d="M936.894 344.001C936.894 349.014 940.852 353.066 945.721 353.066C950.59 353.066 954.548 349.014 954.548 344.001C954.548 338.988 950.59 334.936 945.721 334.936C940.852 334.936 936.894 338.988 936.894 344.001Z" fill="#9286FF" fill-opacity="0.193018" stroke="#F8F8F8" stroke-width="0.5"/>
<path d="M939.495 339.73C939.495 340.456 935.655 341.182 936.053 341.514L936.122 341.566C936.499 341.825 937.751 342.441 939.877 343.414C941.756 343.883 942.696 344.308 942.696 344.692C942.696 345.075 941.682 345.075 939.654 344.692L938.8 344.5L939.131 344.685C939.816 345.059 940.278 345.26 940.519 345.287L940.79 345.297C941.324 345.33 942.353 345.476 942.353 345.919C942.353 346.436 940.534 346.801 939.654 346.603C939.067 346.472 938.471 346.333 937.866 346.188C938.585 346.791 939.255 347.093 939.877 347.093L940.377 347.095C941.067 347.107 941.567 347.181 941.567 347.644C941.567 348.213 939.122 348.058 938.435 348.058C937.977 348.058 937.537 347.972 937.113 347.801C938.218 348.377 938.955 348.666 939.324 348.666L939.793 348.662C940.334 348.663 940.928 348.718 940.704 349.145C940.489 349.554 939.257 349.569 938.328 349.547L937.491 349.526C937.03 349.526 934.339 347.847 929.419 344.487C929.419 343.834 929.478 343.245 929.604 342.665C929.775 341.884 930.167 341.367 930.569 340.818L932.097 340.138C933.435 339.892 934.307 339.757 934.715 339.734L934.963 339.724C935.922 339.657 939.495 339.042 939.495 339.73Z" fill="#FFAF8A"/>
<path d="M915.375 488.793H922.161C922.53 488.793 922.891 488.906 923.193 489.118L924.391 489.956C925.352 490.628 925.421 492.02 924.503 492.751C923.495 493.554 922.211 494.528 921.072 495.242C920.029 495.896 917.443 497.335 914.92 498.718C912.297 500.154 909.137 498.125 909.33 495.14L909.696 489.493L915.375 488.793Z" fill="#733DFF"/>
<path d="M891.135 485.187C890.606 485.496 890.273 486.057 890.253 486.674L890.144 490.089L890.14 491.259C890.137 492.206 890.864 493.004 891.808 493.045C892.607 493.079 893.452 493.088 893.736 492.994C895.212 492.507 895.914 491.04 896.309 490.834C897.268 490.332 898.8 488.752 898.8 488.752L902.429 487.362C903.409 486.987 903.852 485.848 903.388 484.896L903.146 484.398C902.877 483.845 902.347 483.464 901.739 483.388L896.142 482.688C895.752 482.639 895.358 482.72 895.021 482.917L891.135 485.187Z" fill="#733DFF"/>
<path d="M897.242 383.215C897.242 383.215 898.127 380.83 898.823 377.518C899.519 374.206 896.692 365.934 896.692 365.934L909.921 360.957C909.921 360.957 910.194 367.643 910.194 371.078C910.194 373.76 908.952 375.767 908.406 376.519C908.249 376.735 908.017 376.88 907.76 376.95L905.958 377.445L906.898 383.215L904.395 385.67L897.242 383.215Z" fill="#FFAF8A"/>
<path d="M920.922 399.791L929.603 390.858C930.068 390.379 930.172 389.654 929.859 389.064L920.799 383.551C920.444 383.336 919.988 383.388 919.691 383.677L910.876 392.277L920.922 399.791Z" fill="#733DFF"/>
<path d="M919.818 383.553L911.31 391.853L920.921 399.043L929.787 389.919C929.927 389.775 929.994 389.585 929.988 389.398C929.969 389.324 929.945 389.253 929.915 389.183L929.858 389.064L920.643 383.457C920.378 383.296 920.041 383.335 919.818 383.553Z" fill="#D6D9FB"/>
<path d="M921.012 398.05L928.828 390.093C929.199 389.715 929.119 389.089 928.664 388.817L920.895 384.164C920.589 383.98 920.199 384.017 919.932 384.253L911.941 391.337L921.012 398.05Z" fill="white"/>
<path d="M920.046 384.152L911.942 391.337L921.012 398.05L921.896 397.151C922.802 393.031 923.258 389.176 923.267 385.583L920.763 384.084C920.534 383.947 920.246 383.975 920.046 384.152Z" fill="black" fill-opacity="0.169362"/>
<path d="M911.866 389.848L916.388 391.526C917.455 391.922 918.646 391.626 919.394 390.778C919.906 390.199 919.218 389.322 918.529 389.668C918.354 389.756 918.223 389.819 918.155 389.848C917.693 390.039 917.072 388.978 917.072 388.978L920.374 387.898C921.155 387.642 921.524 386.747 921.115 386.02C920.667 385.221 920.111 384.328 919.742 384.076C919.156 383.674 915.815 383.937 914.676 384.039C914.425 384.062 914.19 384.157 913.993 384.311L910.4 387.11L911.866 389.848Z" fill="#FFAF8A"/>
<mask id="mask0" mask-type="alpha" maskUnits="userSpaceOnUse" x="910" y="383" width="12" height="9">
<path d="M911.866 389.848L916.388 391.526C917.455 391.922 918.646 391.626 919.394 390.778C919.906 390.199 919.218 389.322 918.529 389.668C918.354 389.756 918.223 389.819 918.155 389.848C917.693 390.039 917.072 388.978 917.072 388.978L920.374 387.898C921.155 387.642 921.524 386.747 921.115 386.02C920.667 385.221 920.111 384.328 919.742 384.076C919.156 383.674 915.815 383.937 914.676 384.039C914.425 384.062 914.19 384.157 913.993 384.311L910.4 387.11L911.866 389.848Z" fill="white"/>
</mask>
<g mask="url(#mask0)">
</g>
<path d="M898.258 379.66L890.754 381.127C890.477 381.181 890.235 381.349 890.083 381.588L890.03 381.682L882.156 397.332C881.229 399.173 881.376 401.391 882.536 403.087C882.631 403.225 882.736 403.353 882.853 403.471C883.892 404.527 885.546 404.555 886.619 403.564L886.735 403.449L891.432 398.457L891.903 407.104C892.606 410.235 892.364 413.508 891.213 416.491L891.082 416.821C891.082 416.821 889.438 422.761 888.724 427.457C888.01 432.153 889.272 463.574 889.272 463.574L889.759 484.751C889.772 485.311 890.208 485.764 890.754 485.784L891.432 485.804C892.414 485.826 893.063 485.806 893.377 485.742C894.466 485.522 895.277 484.785 895.786 484.506L895.89 484.453C896.793 484.047 897.532 477.238 898.107 464.026L898.127 463.574C898.127 463.574 899.654 437.043 899.731 437.202L904.574 467.543L907.982 491.201C907.993 491.274 908.008 491.346 908.027 491.417C908.282 492.355 909.23 492.904 910.145 492.643L910.657 492.494C912.471 491.96 913.588 491.543 914.011 491.242C914.56 490.851 915.266 489.708 916.131 487.813C916.22 487.619 916.273 487.409 916.288 487.196L916.293 487.035L915.954 466.91C915.954 466.91 912.466 425.22 912.256 419.75C912.028 413.81 912.727 408.88 914.355 404.962L914.51 404.597L919.537 412.887C920.258 414.075 921.501 414.818 922.856 414.88L923.041 414.884H924.298C924.451 414.884 924.604 414.873 924.755 414.849C926.372 414.598 927.499 413.089 927.335 411.438L927.316 411.283L925 395.59L921.285 399.354L917.139 388.218C917.073 388.041 916.962 387.886 916.819 387.769L916.729 387.703L907.47 381.653C904.241 382.137 901.898 382.137 900.442 381.653C899.049 381.19 898.322 380.562 898.262 379.769L898.258 379.66Z" fill="#380085"/>
<path d="M892.044 413.517L892.406 413.589C893.329 413.773 894.222 413.155 894.401 412.208C894.573 411.302 894.029 410.424 893.174 410.188L893.056 410.16L892.284 410.006C892.332 411.182 892.251 412.36 892.044 413.517Z" fill="#733DFF"/>
<path d="M891.239 417.201L891.083 417.597C890.828 418.454 890.588 419.284 890.363 420.086C892.499 420.855 894.763 421.377 897.153 421.653C900.908 422.087 905.958 422.025 912.301 421.467L912.263 420.686L912.257 420.526C912.229 419.809 912.215 419.107 912.215 418.419L911.853 418.455C911.795 418.461 911.738 418.466 911.683 418.47C905.841 418.956 900.9 418.773 897.617 418.47C895.432 418.269 893.306 417.846 891.239 417.201Z" fill="#733DFF"/>
<path d="M912.643 411.37L909.574 411.372C908.634 411.372 907.872 412.154 907.872 413.118C907.872 414.043 908.572 414.799 909.457 414.861L909.574 414.865L912.29 414.864C912.36 413.647 912.477 412.483 912.643 411.37Z" fill="#733DFF"/>
<path d="M896.299 380.044L892.752 380.737C892.547 385.254 895.034 388.205 900.027 389.079C905.1 389.967 909.314 388.556 912.476 384.924L909.557 383.018C907.221 385.466 904.256 386.376 900.599 385.635C898.124 385.134 896.046 383.394 896.299 380.044Z" fill="#733DFF"/>
<path d="M891.415 392.55L886.033 403.978C886.241 403.869 886.438 403.731 886.619 403.564L886.735 403.449L891.415 398.474L891.415 392.55Z" fill="black" fill-opacity="0.275213"/>
<path d="M923.047 397.603L921.286 399.354L923.977 407.262L923.047 397.603Z" fill="black" fill-opacity="0.275213"/>
<path d="M912.459 398.594C912.329 398.649 912.246 398.779 912.247 398.923L912.369 410.797C912.372 411.061 912.468 411.301 912.626 411.485C912.975 409.083 913.545 406.923 914.337 405.005L914.51 404.598L916.787 408.35L912.908 398.784C912.836 398.604 912.634 398.519 912.459 398.594Z" fill="black" fill-opacity="0.275213"/>
<path d="M1060.17 478.607L1082.93 465.109C1082.93 465.658 1082.65 466.158 1082.2 466.416L1060.17 479.461C1059.7 479.736 1059.12 479.736 1058.66 479.461L1043.36 470.383C1042.9 470.108 1042.62 469.609 1042.62 469.076L1058.66 478.591C1059.13 478.881 1059.7 478.881 1060.17 478.607Z" fill="#733DFF"/>
<path d="M1042.63 469.137L1058.69 478.687C1059.17 478.962 1059.75 478.962 1060.2 478.687L1083 465.139L1066.18 455.152L1042.63 469.137Z" fill="#D6D9FB"/>
<path d="M1054.54 473.896L1045.54 468.571L1065.73 456.593L1074.73 461.902L1054.54 473.896Z" fill="#733DFF"/>
<path d="M1066.84 472.698L1062.5 470.124L1069.08 466.223L1073.42 468.797L1066.84 472.698Z" fill="#733DFF"/>
<path d="M1042.62 469.109V450.896C1042.62 450.397 1042.89 449.929 1043.3 449.688L1065.81 436.343C1065.95 436.262 1066.12 436.359 1066.12 436.536V455.184L1042.62 469.109Z" fill="#D6D9FB"/>
<path d="M1065.19 454.586V437.914L1043.71 450.677V467.349L1065.19 454.586Z" fill="white"/>
<path d="M1042.61 469.109C1042.22 468.819 1042 468.351 1042 467.852V450.524C1042 450.024 1042.27 449.557 1042.69 449.315L1064.71 436.323C1065.1 436.098 1065.58 436.098 1065.97 436.323L1043.32 449.686C1042.9 449.944 1042.63 450.395 1042.63 450.895V469.109H1042.61Z" fill="#733DFF"/>
<path d="M913.37 364.122C913.822 365.302 912.963 367.151 912.585 369.093C912.366 370.222 912.654 371.151 912.585 371.444C912.548 371.603 911.229 371.103 911.02 370.494C910.764 369.751 911.248 367.9 911.02 367.887C908.546 367.745 909.715 372.263 904.849 377.16C903.171 378.848 898.498 377.792 898.498 377.792C898.498 377.792 895.941 374.111 895.683 370.309C895.072 361.312 903.621 358.923 905.149 360.839C908.115 358.691 912.268 361.246 913.37 364.122Z" fill="#0D134E"/>
<path d="M897.007 366.047H897.401C898.688 366.047 899.73 367.089 899.73 368.375C899.73 369.662 898.688 370.704 897.401 370.704H897.007V366.047Z" fill="#5C66C0"/>
<path d="M898.078 369.581C895.511 370.98 893.852 373.665 894.498 376.516C894.752 377.639 895.12 378.898 895.652 380.218C897.486 384.768 894.65 394.991 894.65 394.991C894.65 394.991 893.024 388.117 891.167 386.061C889.31 384.006 888.305 381.898 887.437 378.506C887.189 377.536 886.96 375.284 886.759 372.56C886.305 366.418 893.594 363.058 898.126 367.23C898.126 367.23 898.853 367.507 898.853 368.39C898.853 369.273 898.078 369.581 898.078 369.581Z" fill="#0D134E"/>
<path d="M875.469 499.85L881.743 528.75L918.835 505.843C919.539 505.408 919.902 504.585 919.75 503.772L914.852 477.65C914.759 477.156 914.485 476.715 914.082 476.415L913.661 476.101L875.469 499.85Z" fill="#4A529E"/>
<path d="M877.489 457.422C878.477 456.884 879.672 456.889 880.656 457.434L912.641 475.159C914.005 475.915 914.018 477.872 912.663 478.645L875.522 499.852L868.289 462.429L877.489 457.422Z" fill="#D6D9FB"/>
<path d="M874.559 493.536L903.465 476.761L880.24 463.638L869.569 469.183L874.559 493.536Z" fill="#0D134E"/>
<path d="M839.351 428.324C839.808 428.044 840.38 428.029 840.851 428.284L866.05 441.962C866.455 442.182 866.737 442.576 866.813 443.031L881.192 528.488L876.165 531.339L835.217 432.342C834.936 431.661 835.191 430.876 835.819 430.491L839.351 428.324Z" fill="#F8FCFF" stroke="#E9EBFF"/>
<path d="M833.161 432.771C833.139 431.225 834.806 430.24 836.15 431.005L861.448 445.411C861.976 445.712 862.338 446.236 862.433 446.837L875.92 532.053L837.312 508.682C835.371 507.507 834.172 505.414 834.141 503.145L833.161 432.771Z" fill="#5C66C0"/>
<path d="M951.11 550.306L957.384 579.207L994.476 556.299C995.18 555.865 995.544 555.042 995.391 554.229L990.493 528.107C990.401 527.613 990.126 527.172 989.723 526.872L989.302 526.558L951.11 550.306Z" fill="#4A529E"/>
<path d="M953.13 507.879C954.118 507.341 955.313 507.345 956.297 507.891L988.282 525.616C989.646 526.372 989.659 528.329 988.304 529.102L951.163 550.309L943.93 512.886L953.13 507.879Z" fill="#D6D9FB"/>
<path d="M950.2 543.993L979.106 527.217L955.881 514.095L945.21 519.64L950.2 543.993Z" fill="#0D134E"/>
<path d="M914.993 478.781C915.449 478.501 916.021 478.485 916.492 478.741L941.691 492.418C942.096 492.638 942.378 493.033 942.454 493.488L956.833 578.945L951.806 581.795L910.859 482.799C910.577 482.118 910.832 481.333 911.46 480.947L914.993 478.781Z" fill="#F8FCFF" stroke="#E9EBFF"/>
<path d="M908.802 483.228C908.78 481.681 910.447 480.697 911.792 481.462L937.089 495.868C937.617 496.169 937.979 496.693 938.074 497.293L951.561 582.51L912.954 559.139C911.012 557.963 909.813 555.871 909.782 553.601L908.802 483.228Z" fill="#5C66C0"/>
<path d="M986.886 466.018C986.886 466.018 987.744 466.742 988.876 467.149C990.009 467.555 991.389 468.799 992.133 468.154C992.877 467.508 990.83 466.313 990.914 465.703C990.953 465.42 992.4 464.728 993.923 463.981C995.695 463.111 997.571 463.385 997.446 462.923C997.212 462.064 992.713 462.784 992.713 462.784C992.713 462.784 996.941 461.807 996.847 461.062C996.753 460.317 992.488 460.989 992.488 460.989C992.488 460.989 995.971 460.224 995.635 459.355C995.299 458.485 992.185 459.171 992.185 459.171C992.185 459.171 994.02 458.023 993.579 457.709C993.383 457.569 992.09 457.237 989.706 459.151C989.109 459.631 987.871 460.112 986.521 461.237C986.054 461.627 985.248 462.845 985.248 462.845L986.886 466.018Z" fill="#FFAF8A"/>
<path d="M949.59 472.909C954.883 467.734 961.342 473.849 968.203 471.499C975.064 469.149 982.914 461.519 985.375 462.539C987.837 463.56 988.863 465.572 987.19 467.7C985.516 469.827 974.916 478.487 972.337 480.063C969.758 481.639 952.154 484.861 952.154 484.861C952.154 484.861 944.298 478.084 949.59 472.909Z" fill="#380085"/>
<path d="M951.096 472.175C943.38 478.511 950.485 504.862 948.274 508.409C946.063 511.957 945.121 521.5 952.432 524.481C957.219 526.433 959.754 527.704 962.681 527.462C964.224 527.335 966.847 527.185 967.853 525.629C970.769 521.122 968.573 503.929 970.948 500.041C973.323 496.152 975.538 482.656 972.95 478.511C970.362 474.367 954.199 469.627 951.096 472.175Z" fill="#380085"/>
<path d="M965.546 472.971L965.516 472.909C969.053 474.699 971.967 476.936 972.951 478.511C975.502 482.596 973.387 495.763 971.052 499.866L970.949 500.041C969.893 501.769 969.741 506.122 969.641 510.823L967.854 511.78C969.265 499.443 969.265 489.205 967.854 481.065C967.3 477.866 966.576 475.266 965.681 473.267L965.516 472.909L965.546 472.971Z" fill="black" fill-opacity="0.28827"/>
<path d="M1005.49 543.215C1005.49 543.215 1005.24 545.591 1006.99 547.016C1008.74 548.442 1013.55 546.451 1015.96 549.126C1017.33 550.657 1015.06 552.934 1010.71 554.198C1007.46 555.14 1002.67 555.598 1001.11 555.22C998.653 554.626 999.887 543.871 999.887 543.871L1005.49 543.215Z" fill="#733DFF"/>
<path d="M970.407 509.96C970.407 509.96 952.328 515.888 956.04 524.789C958.513 530.719 976.43 525.873 988.947 519.872C989.898 519.416 990.637 520.825 990.637 523.374C990.637 525.924 996.747 542.711 997.492 545.27C998.238 547.828 1002.32 547.34 1003.46 546.97C1004.61 546.601 1006.96 545.883 1006.96 543.711C1006.96 541.538 1003.09 510.477 997.739 508.407C992.383 506.337 970.407 509.96 970.407 509.96Z" fill="#380085"/>
<path d="M968.919 501.138L964.177 501.565C963.24 501.649 962.548 502.496 962.63 503.457C962.708 504.378 963.47 505.069 964.357 505.051L964.473 505.044L967.895 504.789C968.406 504.751 968.807 504.334 968.825 503.823L968.88 502.267C968.901 501.667 968.393 501.186 967.796 501.239L964.177 501.565L968.919 501.138Z" fill="#733DFF"/>
<path d="M948.412 501.138L949.373 501.565C950.309 501.649 951.002 502.496 950.92 503.457C950.841 504.378 950.08 505.069 949.192 505.051L949.076 505.044L949.008 505.004C948.715 504.828 948.531 504.517 948.519 504.177L948.449 502.188C948.432 501.702 948.928 501.367 949.373 501.565L948.412 501.138Z" fill="#733DFF"/>
<path d="M948.504 510.861C954.466 512.544 960.088 513.153 969.126 510.965L969.055 507.664C969.055 507.664 957.616 509.294 949.376 507.616C949.096 507.558 948.58 507.464 948.58 507.464C948.58 507.464 948.114 508.314 947.973 508.832C947.782 509.534 947.395 510.393 947.395 510.393C947.395 510.393 948.172 510.768 948.504 510.861Z" fill="#733DFF"/>
<path d="M993.357 517.245C994.879 518.198 1002.32 528.196 1000.54 547.239C999.208 547.122 997.885 546.621 997.492 545.27C996.767 542.784 991.23 526.606 991.216 523.356L991.216 523.107C991.216 520.624 989.848 519.477 989.018 519.839L987.718 520.456L988.047 520.035C990.222 517.321 991.992 516.391 993.357 517.245Z" fill="black" fill-opacity="0.28827"/>
<path d="M1002.13 477.555C1002.13 477.555 1001.76 476.455 1001.79 475.206C1001.82 473.957 1001.15 472.158 1002.03 471.674C1002.92 471.19 1003.3 473.618 1003.9 473.762C1004.19 473.829 1005.37 472.679 1006.64 471.477C1008.11 470.078 1009.69 468.608 1010.08 468.901C1010.81 469.445 1007.33 473.092 1007.33 473.092C1007.33 473.092 1010.95 469.802 1011.62 470.169C1012.3 470.535 1008.94 473.973 1008.94 473.973C1008.94 473.973 1012.1 471.328 1012.8 471.975C1013.5 472.622 1010.55 474.939 1010.55 474.939C1010.55 474.939 1013.48 473.565 1013.62 474.11C1013.68 474.351 1012.35 475.744 1009.66 477.352C1008.99 477.755 1008.08 478.779 1006.52 479.674C1005.98 479.984 1004.53 480.317 1004.53 480.317L1002.13 477.555Z" fill="#FFAF8A"/>
<path d="M987.666 493.519C991.484 492.381 1004.94 483.161 1005.19 482.053C1005.44 480.944 1003.71 477.448 1001.56 477.483C999.418 477.519 987.788 485.374 984.919 484.695C982.993 484.238 971.602 473.756 966.587 474.389C965.545 474.521 966.487 476.531 965.841 477.705C960.446 487.515 983.848 494.658 987.666 493.519Z" fill="#380085"/>
<path d="M951.277 472.263L951.123 472.26C949.785 475.956 950.02 479.143 955.237 481.138C959.369 482.717 965.43 482.101 968.686 477.409L968.914 477.071C968.686 476.549 968.185 475.358 967.029 474.862C964.547 478.307 960.394 479.547 956.434 478.112C953.845 477.174 952.85 474.534 954.103 472.522L954.149 472.363C952.955 471.99 952.231 472.292 951.277 472.263L951.123 472.26L951.277 472.263Z" fill="#733DFF"/>
<path d="M956.976 471.829L957.346 468.123C957.346 468.123 953.816 457.319 955.423 453.943C957.03 450.567 966.804 448.582 968.295 452.851C969.787 457.12 970.883 468.875 968.295 469.932C965.708 470.989 965.465 470.356 965.465 470.356L964.555 473.403C964.555 473.403 962.718 474.517 960.237 473.814C957.756 473.111 956.976 471.829 956.976 471.829Z" fill="#FFAF8A"/>
<path d="M956.199 465.742C958.094 468.048 960.4 468.406 962.064 466.337C963.728 464.268 962.279 459.7 964.013 458.89C965.746 458.08 965.525 462.958 966.47 462.467C967.414 461.977 966.34 456.811 967.414 455.577C968.489 454.343 970.189 455.143 970.189 452.779C970.189 450.415 966.107 448.007 963.06 448.873C960.014 449.74 957.409 448.441 954.92 451.448C952.432 454.454 954.304 463.435 956.199 465.742Z" fill="#380085"/>
<path d="M1036 376.031C1036 374.923 1035.41 373.898 1034.45 373.341L988.536 346.677C987.584 346.124 986.391 346.809 986.388 347.91L986.255 396.332C986.252 397.451 986.851 398.485 987.822 399.04L1033.86 425.347C1034.81 425.891 1036 425.203 1036 424.105V376.031Z" fill="#FF623F" fill-opacity="0.280021" stroke="#FF623F" stroke-width="0.5"/>
<path d="M1015.06 368.89C1015.06 368.38 1014.79 367.909 1014.35 367.653L991.391 354.321C990.999 354.093 990.507 354.375 990.505 354.829L990.44 374.679C990.439 375.193 990.714 375.669 991.161 375.925L1014.18 389.078C1014.57 389.302 1015.06 389.018 1015.06 388.565V368.89Z" fill="#FF623F" fill-opacity="0.193018" stroke="#F8F8F8" stroke-width="0.5"/>
<path d="M1031.81 379.114C1031.81 378.034 1031.25 377.032 1030.33 376.466L1021.95 371.309C1021 370.724 1019.78 371.405 1019.77 372.522L1019.65 409.527C1019.64 410.641 1020.23 411.672 1021.2 412.23L1029.66 417.126C1030.62 417.677 1031.81 416.989 1031.81 415.888V379.114Z" fill="#FF623F" fill-opacity="0.193018" stroke="#F8F8F8" stroke-width="0.5"/>
<path d="M1012.44 404.668V396.817C1012.44 396.377 1012.09 396.02 1011.65 396.02C1011.21 396.02 1010.85 396.377 1010.85 396.817V404.668C1010.85 405.108 1011.21 405.465 1011.65 405.465C1012.09 405.465 1012.44 405.108 1012.44 404.668Z" fill="#FF623F" fill-opacity="0.280021" stroke="#FF623F" stroke-width="0.5"/>
<path d="M1008.26 402.575V398.911C1008.26 398.471 1007.9 398.114 1007.46 398.114C1007.02 398.114 1006.66 398.471 1006.66 398.911V402.575C1006.66 403.015 1007.02 403.371 1007.46 403.371C1007.9 403.371 1008.26 403.015 1008.26 402.575Z" fill="#FF623F" fill-opacity="0.280021" stroke="#FF623F" stroke-width="0.5"/>
<path d="M1004.07 400.481V394.724C1004.07 394.284 1003.71 393.927 1003.27 393.927C1002.83 393.927 1002.48 394.284 1002.48 394.724V400.481C1002.48 400.921 1002.83 401.278 1003.27 401.278C1003.71 401.278 1004.07 400.921 1004.07 400.481Z" fill="#FF623F" fill-opacity="0.280021" stroke="#FF623F" stroke-width="0.5"/>
<path d="M991.507 392.107V386.349C991.507 385.909 991.15 385.552 990.71 385.552C990.27 385.552 989.914 385.909 989.914 386.349V392.107C989.914 392.547 990.27 392.903 990.71 392.903C991.15 392.903 991.507 392.547 991.507 392.107Z" fill="#FF623F" fill-opacity="0.280021" stroke="#FF623F" stroke-width="0.5"/>
<path d="M995.694 394.2V390.536C995.694 390.096 995.338 389.74 994.897 389.74C994.457 389.74 994.101 390.096 994.101 390.536V394.2C994.101 394.64 994.457 394.997 994.897 394.997C995.338 394.997 995.694 394.64 995.694 394.2Z" fill="#FF623F" fill-opacity="0.280021" stroke="#FF623F" stroke-width="0.5"/>
<path d="M999.882 397.341V390.536C999.882 390.096 999.525 389.74 999.085 389.74C998.645 389.74 998.288 390.096 998.288 390.536V397.341C998.288 397.781 998.645 398.137 999.085 398.137C999.525 398.137 999.882 397.781 999.882 397.341Z" fill="#FF623F" fill-opacity="0.280021" stroke="#FF623F" stroke-width="0.5"/>
<defs>
<linearGradient id="paint0_linear" x1="2406.24" y1="286.942" x2="2287.91" y2="1038.02" gradientUnits="userSpaceOnUse">
<stop offset="0.0649817" stop-color="#A8A8A8"/>
<stop offset="1" stop-color="#F6F6F6"/>
</linearGradient>
<linearGradient id="paint1_linear" x1="1154.08" y1="239.573" x2="1121.68" y2="250.654" gradientUnits="userSpaceOnUse">
<stop stop-color="#3D3D70" stop-opacity="0.0452616"/>
<stop offset="1" stop-color="#272858"/>
</linearGradient>
<linearGradient id="paint2_linear" x1="1030.76" y1="515.504" x2="1020.68" y2="516.167" gradientUnits="userSpaceOnUse">
<stop stop-color="#F5F6F9"/>
<stop offset="1" stop-color="#E4E7EC"/>
</linearGradient>
<linearGradient id="paint3_linear" x1="1107.91" y1="467.376" x2="1097.84" y2="468.039" gradientUnits="userSpaceOnUse">
<stop stop-color="#F5F6F9"/>
<stop offset="1" stop-color="#E4E7EC"/>
</linearGradient>
<linearGradient id="paint4_linear" x1="884.016" y1="428.563" x2="873.939" y2="429.226" gradientUnits="userSpaceOnUse">
<stop stop-color="#F5F6F9"/>
<stop offset="1" stop-color="#E4E7EC"/>
</linearGradient>
<linearGradient id="paint5_linear" x1="959.015" y1="381.987" x2="969.092" y2="382.651" gradientUnits="userSpaceOnUse">
<stop stop-color="#F5F6F9"/>
<stop offset="1" stop-color="#E4E7EC"/>
</linearGradient>
<linearGradient id="paint6_linear" x1="1040.53" y1="409.15" x2="1047.09" y2="428.95" gradientUnits="userSpaceOnUse">
<stop stop-color="#EAECFF" stop-opacity="0.179168"/>
<stop offset="1" stop-color="#D0D4FE"/>
</linearGradient>
</defs>
</svg>
