<svg width="1364" height="760" viewBox="0 0 1364 760" fill="none" xmlns="http://www.w3.org/2000/svg">
<path opacity="0.4" d="M758 0V227.997C758 228.591 758.264 229.154 758.721 229.534L813.28 274.943C813.736 275.323 814 275.886 814 276.48V745" stroke="#CCCCCC"/>
<path d="M1210.3 179.478L1563.95 431.88L1588 759.478L813.998 752.5L352 757.88L-110 752.5L652.028 450.134L1210.3 179.478Z" fill="url(#paint0_linear)" fill-opacity="0.15"/>
<path d="M1051.2 77.9683L1051.78 262.284L1363.26 446.868V262.885L1051.2 77.9683Z" fill="#EFF0FF"/>
<path d="M1049.66 1V261.5L1398 477.178V254.022L1391.5 1H1222.5H1049.66Z" fill="#E8E8E8"/>
<path d="M1111.74 94.0718C1111.12 93.7139 1110.36 93.7126 1109.74 94.0685L1105.87 96.2964L1109.62 227.74C1109.64 228.413 1109.99 229.03 1110.57 229.384L1298.78 345.787L1303.3 343.037C1303.89 342.674 1304.26 342.027 1304.26 341.329L1304.26 206.725C1304.26 206.012 1303.88 205.352 1303.26 204.994L1111.74 94.0718Z" fill="#733DFF"/>
<path d="M1107.72 97.0602C1106.72 96.4755 1105.46 97.1981 1105.46 98.357L1105.61 232.327C1105.61 232.86 1105.89 233.352 1106.35 233.621L1297.25 344.9C1298.25 345.483 1299.51 344.76 1299.51 343.601L1299.22 209.823C1299.22 209.291 1298.94 208.8 1298.48 208.531L1107.72 97.0602Z" fill="#F8FCFF" stroke="#D0D4FF"/>
<path d="M1285.09 230.615C1285.1 229.287 1284.4 228.058 1283.25 227.382L1236.04 199.509C1234.88 198.82 1233.41 199.661 1233.41 201.016V275.44C1233.41 276.769 1234.11 277.999 1235.25 278.673L1282.39 306.377C1283.55 307.062 1285.02 306.222 1285.02 304.87L1285.09 230.615Z" fill="#9286FF" fill-opacity="0.193018" stroke="#B399FF" stroke-width="0.5"/>
<path d="M1276.02 291.672V274.206C1276.02 273.566 1275.52 273.059 1274.91 273.059C1274.3 273.059 1273.8 273.566 1273.8 274.206V291.672C1273.8 292.312 1274.3 292.819 1274.91 292.819C1275.52 292.819 1276.02 292.312 1276.02 291.672Z" fill="#9286FF" fill-opacity="0.193018" stroke="#B399FF" stroke-width="0.5"/>
<path d="M1269.06 287.325V275.448C1269.06 274.808 1268.56 274.301 1267.95 274.301C1267.34 274.301 1266.84 274.808 1266.84 275.448V287.325C1266.84 287.965 1267.34 288.472 1267.95 288.472C1268.56 288.472 1269.06 287.965 1269.06 287.325Z" fill="#9286FF" fill-opacity="0.193018" stroke="#B399FF" stroke-width="0.5"/>
<path d="M1262.1 283.754V269.083C1262.1 268.443 1261.6 267.936 1260.99 267.936C1260.38 267.936 1259.88 268.443 1259.88 269.083V283.754C1259.88 284.394 1260.38 284.901 1260.99 284.901C1261.6 284.901 1262.1 284.394 1262.1 283.754Z" fill="#9286FF" fill-opacity="0.193018" stroke="#B399FF" stroke-width="0.5"/>
<path d="M1241.23 271.8V257.128C1241.23 256.489 1240.72 255.981 1240.11 255.981C1239.51 255.981 1239 256.489 1239 257.128V271.8C1239 272.439 1239.51 272.947 1240.11 272.947C1240.72 272.947 1241.23 272.439 1241.23 271.8Z" fill="#9286FF" fill-opacity="0.193018" stroke="#B399FF" stroke-width="0.5"/>
<path d="M1248.18 274.594V262.718C1248.18 262.078 1247.68 261.57 1247.07 261.57C1246.46 261.57 1245.96 262.078 1245.96 262.718V274.594C1245.96 275.234 1246.46 275.742 1247.07 275.742C1247.68 275.742 1248.18 275.234 1248.18 274.594Z" fill="#9286FF" fill-opacity="0.193018" stroke="#B399FF" stroke-width="0.5"/>
<path d="M1255.14 278.786V262.718C1255.14 262.078 1254.64 261.57 1254.03 261.57C1253.42 261.57 1252.92 262.078 1252.92 262.718V278.786C1252.92 279.426 1253.42 279.933 1254.03 279.933C1254.64 279.933 1255.14 279.426 1255.14 278.786Z" fill="#9286FF" fill-opacity="0.193018" stroke="#B399FF" stroke-width="0.5"/>
<path opacity="0.8" d="M1246.18 228.746L1246.19 228.762L1246.2 228.78L1255.36 245.163C1255.95 246.215 1257.24 246.603 1258.28 246.053L1266.17 241.906L1266.38 241.793L1266.5 242.003L1277.4 261.201C1277.8 261.915 1278.69 262.152 1279.38 261.74C1280.07 261.325 1280.31 260.407 1279.9 259.689L1268.56 239.698C1267.96 238.654 1266.69 238.273 1265.64 238.82L1257.77 242.965L1257.55 243.078L1257.43 242.865L1248.59 227.055L1239.18 215.207C1238.67 214.568 1237.76 214.475 1237.14 214.993C1236.52 215.515 1236.42 216.461 1236.93 217.103L1246.18 228.746Z" fill="#FF623F" stroke="#FF623F" stroke-width="0.5"/>
<path d="M1167.85 160.754C1167.85 159.425 1167.15 158.194 1166.01 157.518L1118.8 129.645C1117.63 128.956 1116.16 129.797 1116.16 131.152V166.764C1116.16 168.093 1116.87 169.323 1118.01 169.997L1165.15 197.702C1166.31 198.387 1167.78 197.549 1167.78 196.197L1167.85 160.754Z" fill="#9286FF" fill-opacity="0.193018" stroke="#B399FF" stroke-width="0.5"/>
<g opacity="0.8">
<path d="M1158.02 185.061V164.723C1158.02 163.929 1157.39 163.296 1156.64 163.296C1155.88 163.296 1155.25 163.929 1155.25 164.723V185.061C1155.25 185.855 1155.88 186.487 1156.64 186.487C1157.39 186.487 1158.02 185.855 1158.02 185.061Z" fill="#FF623F" stroke="#FF623F" stroke-width="0.5"/>
<path d="M1151.49 181.707V168.076C1151.49 167.282 1150.86 166.649 1150.1 166.649C1149.34 166.649 1148.72 167.282 1148.72 168.076V181.707C1148.72 182.501 1149.34 183.134 1150.1 183.134C1150.86 183.134 1151.49 182.501 1151.49 181.707Z" fill="#FF623F" stroke="#FF623F" stroke-width="0.5"/>
<path d="M1144.95 178.354V161.369C1144.95 160.575 1144.32 159.943 1143.57 159.943C1142.81 159.943 1142.18 160.575 1142.18 161.369V178.354C1142.18 179.148 1142.81 179.781 1143.57 179.781C1144.32 179.781 1144.95 179.148 1144.95 178.354Z" fill="#FF623F" stroke="#FF623F" stroke-width="0.5"/>
<path d="M1125.34 164.94V147.956C1125.34 147.161 1124.72 146.529 1123.96 146.529C1123.2 146.529 1122.58 147.161 1122.58 147.956V164.94C1122.58 165.734 1123.2 166.367 1123.96 166.367C1124.72 166.367 1125.34 165.734 1125.34 164.94Z" fill="#FF623F" stroke="#FF623F" stroke-width="0.5"/>
<path d="M1131.88 168.294V154.663C1131.88 153.868 1131.25 153.236 1130.5 153.236C1129.74 153.236 1129.11 153.868 1129.11 154.663V168.294C1129.11 169.088 1129.74 169.72 1130.5 169.72C1131.25 169.72 1131.88 169.088 1131.88 168.294Z" fill="#FF623F" stroke="#FF623F" stroke-width="0.5"/>
<path d="M1138.41 173.324V154.663C1138.41 153.868 1137.79 153.236 1137.03 153.236C1136.27 153.236 1135.65 153.868 1135.65 154.663V173.324C1135.65 174.118 1136.27 174.751 1137.03 174.751C1137.79 174.751 1138.41 174.118 1138.41 173.324Z" fill="#FF623F" stroke="#FF623F" stroke-width="0.5"/>
</g>
<path d="M1226.09 195.686C1226.1 194.356 1225.39 193.125 1224.25 192.45L1177.04 164.577C1175.88 163.888 1174.41 164.729 1174.41 166.084V201.695C1174.41 203.025 1175.11 204.255 1176.25 204.928L1223.39 232.634C1224.56 233.319 1226.03 232.48 1226.03 231.129L1226.09 195.686Z" fill="#9286FF" fill-opacity="0.193018" stroke="#B399FF" stroke-width="0.5"/>
<path opacity="0.8" d="M1203.76 210.852C1204.92 213.787 1206.85 216.067 1209.03 217.385C1211.21 218.704 1213.62 219.053 1215.76 218.167C1217.89 217.28 1219.39 215.31 1220.07 212.809C1220.74 210.308 1220.59 207.29 1219.43 204.355C1218.28 201.419 1216.34 199.139 1214.17 197.821C1211.99 196.503 1209.58 196.153 1207.44 197.04C1205.3 197.927 1203.8 199.896 1203.13 202.397C1202.45 204.899 1202.61 207.916 1203.76 210.852Z" fill="#FF623F" stroke="#F8458D" stroke-width="0.5"/>
<path d="M1184.55 186.353C1185.69 189.261 1188.41 190.76 1190.56 189.869C1192.71 188.979 1193.65 185.963 1192.5 183.055C1191.36 180.146 1188.64 178.648 1186.49 179.538C1184.35 180.429 1183.4 183.444 1184.55 186.353Z" fill="#9286FF" fill-opacity="0.193018" stroke="#B399FF" stroke-width="0.5"/>
<path d="M1191.22 203.48C1191.55 204.328 1192.11 204.978 1192.74 205.35C1193.36 205.722 1194.04 205.809 1194.63 205.564C1195.22 205.319 1195.64 204.775 1195.84 204.063C1196.04 203.351 1196 202.484 1195.67 201.636C1195.33 200.788 1194.77 200.137 1194.15 199.765C1193.53 199.393 1192.85 199.307 1192.26 199.551C1191.67 199.796 1191.24 200.34 1191.05 201.052C1190.85 201.765 1190.89 202.632 1191.22 203.48Z" fill="#9286FF" fill-opacity="0.193018" stroke="#B399FF" stroke-width="0.5"/>
<path opacity="0.7" d="M1179.87 197.27C1180.21 198.118 1180.77 198.768 1181.39 199.14C1182.02 199.512 1182.69 199.599 1183.28 199.354C1183.87 199.109 1184.3 198.565 1184.5 197.853C1184.69 197.141 1184.65 196.274 1184.32 195.426C1183.99 194.578 1183.43 193.927 1182.8 193.555C1182.18 193.183 1181.5 193.097 1180.91 193.341C1180.32 193.586 1179.9 194.13 1179.7 194.842C1179.5 195.555 1179.54 196.422 1179.87 197.27Z" fill="#FF623F" stroke="#F8458D" stroke-width="0.5"/>
<mask id="path-27-inside-1" fill="white">
<path d="M1189.94 190.116L1192.22 199.403L1189.94 190.116Z"/>
</mask>
<path d="M1189.94 190.116L1192.22 199.403L1189.94 190.116Z" fill="#9286FF" fill-opacity="0.193018"/>
<path d="M1190.42 189.997L1192.7 199.284L1191.73 199.522L1189.45 190.235L1190.42 189.997Z" fill="#B399FF" mask="url(#path-27-inside-1)"/>
<mask id="path-29-inside-2" fill="white">
<path d="M1184.55 197.829L1190.82 202.084L1184.55 197.829Z"/>
</mask>
<path d="M1184.55 197.829L1190.82 202.084L1184.55 197.829Z" fill="#9286FF" fill-opacity="0.193018"/>
<path d="M1184.83 197.415L1191.1 201.671L1190.54 202.498L1184.26 198.243L1184.83 197.415Z" fill="#B399FF" mask="url(#path-29-inside-2)"/>
<path d="M1185.13 132.434C1185.01 132.367 1184.86 132.366 1184.74 132.431L1178.68 135.707L1179.6 145.524C1179.62 145.653 1179.69 145.768 1179.8 145.833L1217.45 167.571L1219.28 166.537V161.62L1223.84 159.242L1223.84 154.354C1223.84 154.209 1223.76 154.076 1223.64 154.005L1185.13 132.434Z" fill="#512BB5"/>
<path d="M1179.28 136.035C1179.01 135.888 1178.69 136.082 1178.69 136.387L1178.71 146.115C1178.71 146.26 1178.79 146.394 1178.92 146.464L1217.1 167.502C1217.37 167.65 1217.69 167.455 1217.69 167.15L1217.64 157.461C1217.64 157.316 1217.56 157.183 1217.43 157.113L1179.28 136.035Z" fill="#733DFF"/>
<path d="M1091.86 577.867C1074.32 577.239 1060.49 565.615 1060.95 551.904C1061.42 538.194 1076.01 527.589 1093.55 528.217C1111.08 528.846 1124.92 540.47 1124.45 554.18C1123.98 567.891 1109.39 578.496 1091.86 577.867Z" fill="black" fill-opacity="0.130299"/>
<path d="M929.229 586.406C911.694 585.778 897.858 574.154 898.324 560.443C898.791 546.733 913.384 536.128 930.919 536.756C948.454 537.384 962.29 549.008 961.824 562.719C961.357 576.429 946.764 587.035 929.229 586.406Z" fill="black" fill-opacity="0.130299"/>
<path d="M854.345 539.055C836.81 538.426 822.973 526.802 823.44 513.092C823.907 499.381 838.5 488.776 856.034 489.404C873.569 490.033 887.406 501.657 886.939 515.367C886.473 529.078 871.88 539.683 854.345 539.055Z" fill="black" fill-opacity="0.130299"/>
<path d="M864.935 438.141C847.4 437.513 833.564 425.889 834.03 412.178C834.497 398.468 849.09 387.862 866.625 388.491C884.16 389.119 897.996 400.743 897.53 414.454C897.063 428.164 882.47 438.769 864.935 438.141Z" fill="black" fill-opacity="0.130299"/>
<path d="M1059.94 321.359C1042.39 321.359 1028.17 313.365 1028.17 303.505C1028.17 293.644 1042.39 285.651 1059.94 285.651C1077.48 285.651 1091.71 293.644 1091.71 303.505C1091.71 313.365 1077.48 321.359 1059.94 321.359Z" fill="black" fill-opacity="0.130299"/>
<path d="M1311.77 461.428C1294.22 461.428 1280 453.435 1280 443.574C1280 433.714 1294.22 425.72 1311.77 425.72C1329.31 425.72 1343.54 433.714 1343.54 443.574C1343.54 453.435 1329.31 461.428 1311.77 461.428Z" fill="black" fill-opacity="0.130299"/>
<path d="M1295.19 367.954L1316.23 355.985V397.619C1316.23 404.838 1320.02 411.525 1326.22 415.224L1348.53 428.533L1330.25 439.113L1304.72 423.925C1298.81 420.41 1295.19 414.042 1295.19 407.166V367.954Z" fill="#F8FCFF" stroke="#D0D4FF"/>
<path d="M1312.35 411.451C1313.58 410.804 1315.05 410.834 1316.24 411.531L1341.56 426.304C1342.89 427.084 1342.88 429.02 1341.53 429.776L1332.45 434.862C1331.2 435.559 1329.68 435.541 1328.46 434.815L1303.08 419.804C1301.73 419.008 1301.78 417.046 1303.16 416.315L1312.35 411.451Z" fill="#1B215B"/>
<path d="M1288.48 364.776L1288.35 422.166C1288.33 430.624 1292.77 438.467 1300.02 442.812L1321.95 455.941C1329.19 460.278 1338.23 460.294 1345.49 455.983C1352.46 451.841 1356.73 444.328 1356.73 436.216L1356.7 378.541L1350.92 375.089L1328.28 387.462V427.876C1328.28 432.522 1323.22 435.405 1319.22 433.041L1304.52 424.346C1298.43 420.747 1294.69 414.201 1294.69 407.13V367.663L1316.73 355.126L1311.35 351.976L1288.48 364.776Z" fill="#D6D9FB"/>
<path d="M1327.27 458.303C1330.72 457.834 1333.62 455.118 1334.23 451.431C1334.31 450.965 1334.35 450.493 1334.35 450.021V391.881L1356.2 379.327L1356.23 438.551C1356.23 444.923 1352.98 450.815 1347.69 454.091C1347.69 454.091 1347.69 454.092 1347.68 454.092L1347.41 454.256L1347.41 454.259L1342.58 457.128C1337.88 459.92 1332.24 460.311 1327.27 458.303Z" fill="#F8FCFF" stroke="#D0D4FF"/>
<path d="M1304.45 380.204C1306.76 381.209 1309.68 379.464 1310.99 376.307C1312.3 373.15 1311.48 369.776 1309.18 368.771C1306.87 367.766 1303.94 369.51 1302.64 372.667C1301.33 375.824 1302.14 379.198 1304.45 380.204Z" fill="#1B215B"/>
<path d="M1305.89 378.098C1307.23 378.685 1308.92 377.72 1309.65 375.944C1310.39 374.168 1309.89 372.254 1308.55 371.667C1307.2 371.081 1305.51 372.045 1304.78 373.821C1304.04 375.597 1304.54 377.512 1305.89 378.098Z" fill="#FF623F"/>
<path d="M1304.45 397.281C1306.76 398.286 1309.68 396.542 1310.99 393.385C1312.3 390.228 1311.48 386.853 1309.18 385.848C1306.87 384.843 1303.94 386.588 1302.64 389.745C1301.33 392.902 1302.14 396.276 1304.45 397.281Z" fill="#1B215B"/>
<path d="M1305.89 395.176C1307.23 395.762 1308.92 394.798 1309.65 393.022C1310.39 391.246 1309.89 389.331 1308.55 388.745C1307.2 388.159 1305.51 389.123 1304.78 390.899C1304.04 392.675 1304.54 394.59 1305.89 395.176Z" fill="#FF623F"/>
<path d="M1311.35 419.324C1308.44 416.77 1305.9 416.77 1307.99 411.963C1310.07 407.155 1302.17 402.751 1305.34 398.092C1308.52 393.433 1303.33 387.149 1306.27 384.02C1309.21 380.891 1308.05 371.844 1311.35 372.301C1312.96 372.523 1313.59 379.135 1315.31 379.921C1317.03 380.707 1319 382.618 1317.89 385.581C1315.74 391.342 1321.2 392.119 1319.55 398.092C1317.89 404.064 1322.5 402.478 1321.58 408.557C1320.65 414.635 1319.55 417.57 1319.55 417.57C1319.55 417.57 1316.45 416.925 1315.83 418.313C1315.2 419.701 1314.26 421.879 1311.35 419.324Z" fill="#733DFF" stroke="#D0D4FF" stroke-width="0.5"/>
<path d="M1315.31 379.921C1316.99 380.69 1318.91 382.534 1317.96 385.385L1317.89 385.581C1315.78 391.239 1321.01 392.09 1319.63 397.777L1319.55 398.092C1317.89 404.064 1322.5 402.478 1321.57 408.557C1320.96 412.609 1320.28 415.614 1319.55 417.57C1317.48 417.14 1316.24 417.388 1315.82 418.313L1315.64 418.713C1315.04 420.001 1314.08 421.499 1311.7 419.618C1311.41 418.329 1311.49 416.901 1312.32 415.432L1312.44 415.222C1314.87 411.244 1309.04 409.173 1310.46 405.68C1311.86 402.256 1314.32 399.253 1312.55 396.668L1312.44 396.513C1310.46 393.893 1310.72 389.673 1313.28 386.357C1315.16 383.921 1314.17 381.047 1314.4 378.861C1314.67 379.381 1314.97 379.765 1315.31 379.921Z" fill="#3C1F86"/>
<path d="M1316.68 424.432C1315.45 422.902 1312.28 419.199 1314.71 415.222C1317.14 411.244 1311.31 409.173 1312.73 405.68C1314.15 402.188 1316.69 399.133 1314.71 396.513C1312.73 393.894 1312.99 389.673 1315.55 386.357C1318.11 383.042 1315.34 378.913 1317.59 376.816C1319.85 374.719 1319.56 381.217 1322.94 383.502C1326.31 385.787 1321.95 391.425 1325.13 392.995C1328.3 394.565 1322.61 402.152 1325.13 404.621C1327.65 407.09 1329.59 410.891 1327.58 414.405C1325.57 417.919 1327.37 420.79 1326.31 421.839C1325.25 422.888 1323.53 420.081 1322.04 422.512C1320.55 424.943 1317.91 425.961 1316.68 424.432Z" fill="#733DFF" stroke="#D0D4FF" stroke-width="0.5"/>
<path d="M1325 392.924L1325.13 392.995C1328.3 394.565 1322.61 402.152 1325.13 404.621C1325.43 404.918 1325.73 405.234 1326.01 405.567L1326.01 422.035C1324.97 422.415 1323.47 420.397 1322.14 422.364L1322.04 422.512C1321.5 423.397 1320.81 424.094 1320.08 424.55C1319.62 423.417 1319.69 422.112 1320.69 420.644L1320.82 420.46C1323.56 416.685 1317.69 414.828 1319.61 411.172L1319.73 410.971C1321.94 407.24 1317.59 401.61 1322.23 396.803L1322.46 396.579C1323.7 395.375 1324.28 393.996 1324.55 392.595C1324.68 392.717 1324.83 392.827 1325 392.924Z" fill="#3C1F86"/>
<path d="M1332.58 385.112L1328.28 387.462L1328.28 429.052C1327.89 428.963 1327.43 428.8 1326.9 428.54L1326.47 428.326C1323.58 426.822 1320.53 424.211 1322.97 420.636L1323.09 420.46C1325.83 416.685 1319.96 414.828 1321.88 411.172L1322 410.971C1324.21 407.24 1319.86 401.61 1324.5 396.803L1324.72 396.579C1329.73 391.724 1324.12 384.036 1329.94 383.42C1331.56 383.249 1332.29 383.958 1332.58 385.112Z" fill="#733DFF" stroke="#D0D4FF" stroke-width="0.5"/>
<path d="M1041.85 226.332L1062.88 214.364V255.997C1062.88 263.217 1066.68 269.904 1072.88 273.603L1095.19 286.911L1076.91 297.491L1051.38 282.303C1045.47 278.788 1041.85 272.42 1041.85 265.545V226.332Z" fill="#F8FCFF" stroke="#D0D4FF"/>
<path d="M1059.01 269.829C1060.23 269.182 1061.7 269.213 1062.9 269.91L1088.21 284.682C1089.55 285.462 1089.53 287.399 1088.18 288.155L1079.1 293.24C1077.86 293.937 1076.34 293.919 1075.11 293.193L1049.74 278.182C1048.39 277.386 1048.44 275.424 1049.82 274.693L1059.01 269.829Z" fill="#1B215B"/>
<path d="M1035.14 223.154L1035.01 280.545C1034.99 289.002 1039.42 296.845 1046.68 301.19L1068.61 314.32C1075.85 318.656 1084.88 318.672 1092.14 314.362C1099.12 310.219 1103.39 302.706 1103.38 294.594L1103.35 236.919L1097.58 233.467L1074.93 245.841V286.254C1074.93 290.9 1069.88 293.783 1065.88 291.419L1051.17 282.725C1045.08 279.126 1041.35 272.58 1041.35 265.508V226.041L1063.38 213.504L1058.01 210.354L1035.14 223.154Z" fill="#D6D9FB"/>
<path d="M1073.93 316.681C1077.38 316.212 1080.27 313.496 1080.89 309.809C1080.97 309.343 1081.01 308.872 1081.01 308.399V250.259L1102.85 237.705L1102.89 296.929C1102.89 303.301 1099.64 309.193 1094.34 312.469C1094.34 312.469 1094.34 312.47 1094.34 312.47L1094.07 312.634L1094.07 312.637L1089.24 315.506C1084.53 318.298 1078.89 318.689 1073.93 316.681Z" fill="#F8FCFF" stroke="#D0D4FF"/>
<path d="M1051.11 238.582C1053.41 239.587 1056.34 237.842 1057.65 234.685C1058.95 231.528 1058.14 228.154 1055.83 227.149C1053.53 226.144 1050.6 227.888 1049.29 231.045C1047.99 234.203 1048.8 237.577 1051.11 238.582Z" fill="#1B215B"/>
<path d="M1052.54 236.477C1053.89 237.063 1055.57 236.099 1056.31 234.323C1057.04 232.547 1056.55 230.632 1055.2 230.046C1053.86 229.459 1052.17 230.424 1051.44 232.2C1050.7 233.975 1051.2 235.89 1052.54 236.477Z" fill="#FF623F"/>
<path d="M1051.11 255.66C1053.41 256.665 1056.34 254.92 1057.65 251.763C1058.95 248.606 1058.14 245.232 1055.83 244.227C1053.53 243.222 1050.6 244.966 1049.29 248.123C1047.99 251.28 1048.8 254.655 1051.11 255.66Z" fill="#1B215B"/>
<path d="M1052.54 253.554C1053.89 254.141 1055.57 253.176 1056.31 251.4C1057.04 249.625 1056.55 247.71 1055.2 247.123C1053.86 246.537 1052.17 247.501 1051.44 249.277C1050.7 251.053 1051.2 252.968 1052.54 253.554Z" fill="#FF623F"/>
<path d="M1058.01 277.703C1055.1 275.148 1052.56 275.148 1054.64 270.341C1056.73 265.534 1048.82 261.129 1052 256.47C1055.18 251.811 1049.98 245.527 1052.93 242.398C1055.87 239.269 1054.7 230.222 1058.01 230.679C1059.61 230.901 1060.25 237.513 1061.97 238.299C1063.69 239.085 1065.66 240.996 1064.55 243.959C1062.4 249.721 1067.86 250.498 1066.21 256.47C1064.55 262.443 1069.15 260.857 1068.23 266.935C1067.31 273.014 1066.21 275.949 1066.21 275.949C1066.21 275.949 1063.1 275.304 1062.48 276.692C1061.86 278.08 1060.92 280.257 1058.01 277.703Z" fill="#733DFF" stroke="#D0D4FF" stroke-width="0.5"/>
<path d="M1061.97 238.299C1063.65 239.068 1065.57 240.912 1064.62 243.763L1064.55 243.959C1062.44 249.618 1067.67 250.468 1066.29 256.155L1066.21 256.47C1064.55 262.443 1069.16 260.857 1068.23 266.935C1067.62 270.988 1066.94 273.992 1066.21 275.949C1064.14 275.519 1062.9 275.766 1062.48 276.692L1062.3 277.091C1061.7 278.379 1060.74 279.878 1058.36 277.996C1058.07 276.707 1058.15 275.28 1058.97 273.81L1059.1 273.6C1061.53 269.622 1055.7 267.551 1057.12 264.059C1058.51 260.634 1060.97 257.632 1059.21 255.046L1059.1 254.892C1057.12 252.272 1057.38 248.051 1059.94 244.736C1061.82 242.3 1060.82 239.425 1061.06 237.24C1061.33 237.759 1061.63 238.144 1061.97 238.299Z" fill="#3C1F86"/>
<path d="M1063.34 282.81C1062.11 281.281 1058.94 277.577 1061.37 273.6C1063.79 269.622 1057.97 267.551 1059.39 264.059C1060.81 260.566 1063.34 257.512 1061.37 254.892C1059.39 252.272 1059.65 248.051 1062.21 244.736C1064.77 241.42 1062 237.291 1064.25 235.194C1066.5 233.098 1066.22 239.595 1069.59 241.88C1072.97 244.166 1068.61 249.803 1071.79 251.373C1074.96 252.943 1069.27 260.531 1071.79 262.999C1074.31 265.468 1076.25 269.269 1074.24 272.783C1072.23 276.297 1074.03 279.168 1072.97 280.217C1071.91 281.266 1070.19 278.459 1068.7 280.89C1067.21 283.321 1064.57 284.34 1063.34 282.81Z" fill="#733DFF" stroke="#D0D4FF" stroke-width="0.5"/>
<path d="M1071.65 251.303L1071.79 251.373C1074.96 252.943 1069.27 260.531 1071.79 262.999C1072.09 263.296 1072.38 263.613 1072.66 263.945L1072.66 280.413C1071.62 280.793 1070.13 278.776 1068.8 280.743L1068.7 280.89C1068.16 281.775 1067.46 282.473 1066.74 282.928C1066.28 281.796 1066.35 280.491 1067.35 279.023L1067.48 278.838C1070.22 275.064 1064.35 273.206 1066.27 269.551L1066.38 269.35C1068.6 265.618 1064.25 259.988 1068.89 255.182L1069.11 254.957C1070.35 253.753 1070.94 252.375 1071.21 250.973C1071.34 251.095 1071.48 251.205 1071.65 251.303Z" fill="#3C1F86"/>
<path d="M1079.24 243.49L1074.93 245.841L1074.93 287.43C1074.54 287.342 1074.09 287.178 1073.55 286.918L1073.13 286.704C1070.24 285.201 1067.18 282.59 1069.62 279.015L1069.75 278.838C1072.49 275.064 1066.62 273.206 1068.54 269.551L1068.65 269.35C1070.87 265.618 1066.52 259.988 1071.16 255.182L1071.38 254.957C1076.38 250.102 1070.77 242.414 1076.6 241.798C1078.22 241.627 1078.95 242.337 1079.24 243.49Z" fill="#733DFF" stroke="#D0D4FF" stroke-width="0.5"/>
<path d="M1161.97 508.628C1150.9 508.628 1141.92 503.415 1141.92 496.984C1141.92 490.554 1150.9 485.341 1161.97 485.341C1173.04 485.341 1182.01 490.554 1182.01 496.984C1182.01 503.415 1173.04 508.628 1161.97 508.628Z" fill="black" fill-opacity="0.130299"/>
<path d="M1146.08 371.231C1135.01 371.231 1126.04 366.017 1126.04 359.587C1126.04 353.156 1135.01 347.943 1146.08 347.943C1157.15 347.943 1166.13 353.156 1166.13 359.587C1166.13 366.017 1157.15 371.231 1146.08 371.231Z" fill="black" fill-opacity="0.130299"/>
<path d="M1124.5 239.826C1124.5 239.826 1128.01 239.328 1128.24 236.218C1128.46 233.108 1128.24 226.894 1128.24 226.894L1136.4 231.368C1136.4 231.368 1136.32 234.923 1136.83 236.575C1136.92 236.87 1138.26 236.687 1139.47 236.862C1140.82 237.057 1142.05 237.616 1142.26 238.108C1142.57 238.829 1139.47 240.484 1139.47 240.484L1137.89 246.13L1132.62 245.81L1124.5 239.826Z" fill="#FFAF8A"/>
<path d="M1134.05 236.618C1137.35 236.643 1138.21 233.23 1138.21 233.23L1127.7 231.219C1127.7 231.219 1127.46 238.431 1127.7 238.826C1127.94 239.226 1129.36 233.898 1129.56 234.112C1131.13 235.782 1132.38 236.605 1134.05 236.618Z" fill="black" fill-opacity="0.175153"/>
<path d="M1141.74 220.324C1141.74 220.324 1142.31 235.933 1143.49 236.9C1144.67 237.867 1136.66 237.506 1136.12 234.505C1135.32 231.009 1139.96 221.57 1139.96 221.57L1141.74 220.324Z" fill="#0D134E"/>
<path d="M1135.87 235.879C1139.74 235.635 1140.35 221.211 1140.35 221.211L1134 215.038L1128.04 220.199L1127.07 229.269C1127.07 229.269 1131.11 236.178 1135.87 235.879Z" fill="#FFAF8A"/>
<path fill-rule="evenodd" clip-rule="evenodd" d="M1141.32 236.97L1136.83 236.634C1137.52 237.717 1137.03 239.137 1135.02 239.581C1133.01 240.025 1128.25 239.391 1127.88 237.754L1127.86 237.759L1128.05 237.299L1126.87 237.709L1117.82 242.553C1117 242.994 1116.48 243.86 1116.45 244.813L1115.91 268.287C1115.9 268.915 1116.02 269.539 1116.26 270.116C1117.19 272.33 1119.69 273.352 1121.84 272.399L1124.62 271.174L1122.42 284.503L1122.41 284.578C1122.4 284.693 1122.41 284.805 1122.44 284.908C1121.61 288.216 1121.19 291.928 1121.19 296.044L1121.19 296.275C1121.22 300.752 1121.96 305.45 1123.41 313.472L1124.86 321.461C1124.07 338.305 1125.48 348.335 1125.89 349.346C1126.09 349.841 1126.35 349.955 1126.56 350.049C1126.78 350.147 1126.95 350.223 1126.96 350.682C1126.99 352.208 1126.97 354.362 1126.88 357.142L1126.83 358.592L1138.32 364.322L1137.81 362.431C1135.93 359.843 1134.49 357.9 1133.48 356.602L1133.01 356.006C1132.4 355.239 1132.19 353.802 1132.06 351.55V350.313C1132.06 350.193 1132.17 350.064 1132.3 349.907C1132.5 349.68 1132.74 349.395 1132.76 348.996C1132.8 348.365 1132.83 347.559 1132.87 346.576C1133.02 342.772 1133.28 336.318 1134.32 327.13L1135.02 321.01L1136.83 298.102C1137.9 301.034 1139.5 306.286 1140.83 310.673C1141.67 313.418 1142.4 315.824 1142.83 317.11L1143.37 318.722C1143.2 326.312 1146.38 339.191 1147.81 344.205C1148.03 344.978 1148.56 345.327 1148.94 345.576C1149.17 345.733 1149.35 345.849 1149.35 346.007L1150.09 352.132L1158.42 356.815L1160.28 355.806C1160.28 355.806 1157.57 353.903 1156.34 352.598C1155.11 351.294 1154.13 349.277 1154.13 349.277C1154.13 349.277 1154.37 346.895 1154.36 345.678C1154.36 345.344 1154.55 345.169 1154.75 344.988C1154.96 344.797 1155.17 344.6 1155.17 344.205C1155.12 338.43 1153.4 317.842 1153.4 317.842C1153.4 317.841 1153.37 317.657 1153.3 317.314C1152.45 312.926 1146.54 282.621 1146.54 281.075L1146.01 264.494L1148.19 259.571L1149.5 263.225C1149.61 263.517 1149.76 263.788 1149.95 264.028C1150.9 265.222 1152.62 265.397 1153.78 264.42L1170.55 250.332C1170.79 250.128 1170.93 249.821 1170.93 249.499C1170.89 247.752 1170.66 246.644 1170.23 246.175C1169.85 245.753 1169.27 245.339 1168.49 244.933C1168.16 244.764 1167.77 244.785 1167.47 244.988L1153.88 254.049L1148.02 239.264C1147.69 238.427 1146.96 237.825 1146.09 237.67C1143.85 237.271 1142.26 237.037 1141.32 236.97ZM1123.3 263.702L1123.36 256.51L1125.19 262.773L1123.3 263.702Z" fill="#380085"/>
<path d="M1137.01 298.602L1136.85 296.626L1137.68 298.384C1142.03 307.691 1144.2 313.424 1144.2 315.583C1144.2 316.808 1143.93 318.296 1143.38 320.047C1143.37 319.59 1143.36 319.148 1143.37 318.722L1142.71 316.731C1141.53 313.139 1138.71 303.411 1137.01 298.602Z" fill="black" fill-opacity="0.275213"/>
<path d="M1146.05 265.675L1146.19 270.159L1145.43 270.561C1145.27 270.643 1145.1 270.685 1144.92 270.685C1144.31 270.685 1143.81 270.176 1143.81 269.548C1143.81 268.435 1144.25 267.374 1145.03 266.603L1145.18 266.462L1146.05 265.675Z" fill="#733DFF"/>
<path d="M1138.82 236.783L1141.32 236.97C1141.83 237.006 1142.53 237.091 1143.42 237.225L1143.48 237.593C1143.67 238.806 1143.64 239.254 1143.58 239.525C1143.37 240.368 1140.32 241.497 1140.06 240.949L1140.03 240.884C1139.88 240.449 1139.28 238.27 1138.82 236.783Z" fill="#733DFF"/>
<path d="M1136.83 236.634L1141.32 236.97C1141.86 237.008 1142.6 237.099 1143.54 237.244C1143.71 237.576 1143.8 237.925 1143.8 238.284C1143.8 240.737 1139.65 242.756 1136.07 242.756C1134.39 242.756 1132.86 242.32 1131.71 241.604L1128.74 242.925L1128.74 238.72C1129.1 238.935 1129.56 239.116 1130.07 239.262L1130.33 239.332L1130.62 239.402L1130.93 239.467L1131.01 239.483C1131.2 239.52 1131.4 239.552 1131.59 239.58L1131.79 239.607C1131.99 239.633 1132.2 239.655 1132.4 239.672L1132.77 239.699L1132.7 239.694C1132.97 239.711 1133.23 239.719 1133.48 239.719C1133.63 239.719 1133.78 239.716 1133.92 239.71L1134.2 239.694L1134.38 239.679C1134.61 239.656 1134.83 239.624 1135.02 239.581C1137.03 239.137 1137.52 237.717 1136.83 236.634Z" fill="black" fill-opacity="0.275213"/>
<path d="M1126.52 239.955L1126.74 240.335C1127.95 242.503 1127.69 242.681 1127.69 243.063C1127.69 243.933 1124.56 245.786 1124.11 245.319L1124.09 245.286C1123.93 245.077 1124.13 244.811 1122.49 242.558C1122.19 242.155 1121.69 241.593 1120.97 240.871L1125.52 238.43L1125.81 238.84C1126.12 239.294 1126.36 239.666 1126.52 239.955Z" fill="#733DFF"/>
<path d="M1138.53 276.5L1138.89 276.491L1138.43 257.647L1138.22 257.685C1135.99 258.099 1133.29 257.817 1132.25 256.51C1131.19 255.17 1127.72 246.869 1126.29 243.473L1125.94 243.568C1127.43 247.212 1130.87 255.354 1131.97 256.744C1133.07 258.124 1135.83 258.456 1138.08 258.086L1138.53 276.5Z" fill="#733DFF"/>
<path d="M1141.5 240.418C1142.07 245.808 1143.45 249.597 1142.89 251.645C1142.33 253.675 1140.71 254.985 1138.43 256.51L1138.63 256.82C1140.97 255.249 1142.66 253.869 1143.24 251.745C1143.81 249.639 1142.43 245.813 1141.86 240.378L1141.5 240.418Z" fill="#733DFF"/>
<path d="M1124.26 272.902C1124.26 272.902 1135.05 276.841 1138.89 275.982C1144.41 274.748 1146.17 271.553 1146.17 271.553V274.161C1146.17 274.161 1144.4 277.553 1138.79 278.563C1134.75 279.291 1123.92 275.024 1123.92 275.024L1124.26 272.902Z" fill="#733DFF"/>
<path d="M1127.04 350.726C1127.04 350.726 1127.09 355.664 1126.76 356.918C1126.42 358.172 1126.46 359.142 1126.92 360.192C1127.38 361.242 1128.5 361.251 1129.3 361.887C1130.09 362.523 1132.4 365.75 1133.77 365.865C1135.13 365.98 1137.27 365.984 1138.39 365.511C1139.5 365.038 1140.64 364.045 1140.12 363.002C1139.61 361.958 1134.82 357.89 1134.04 357.05C1133.26 356.209 1132.61 353.34 1132.37 351.568C1132.13 349.796 1132.15 350.201 1132.15 350.201L1127.04 350.726Z" fill="#733DFF"/>
<path d="M1132.21 350.157C1132.21 350.157 1132.3 351.088 1132.37 351.568C1132.61 353.34 1133.26 356.209 1134.04 357.049C1134.82 357.89 1139.61 361.958 1140.12 363.002C1140.21 363.179 1140.25 363.356 1140.25 363.528L1139.56 363.17C1135.42 360.993 1133.62 359.336 1132.66 358.198C1131.72 357.087 1131.27 350.289 1131.27 350.289L1132.21 350.157Z" fill="black" fill-opacity="0.275213"/>
<path d="M1149.02 345.824C1149.02 345.824 1149.6 351.555 1149.42 352.689C1149.24 353.822 1149.01 356.002 1150.39 356.69C1151.77 357.378 1153.69 357.377 1154.58 358.149C1155.46 358.921 1155.67 360.946 1158.22 361.566C1160.77 362.187 1162.95 360.992 1163.04 359.819C1163.12 358.647 1162.89 358.086 1161.1 356.48C1159.31 354.873 1156.4 352.866 1155.38 351.163C1154.37 349.46 1154.36 345.678 1154.36 345.678C1154.36 345.678 1152.95 346.13 1151.96 346.157C1150.97 346.184 1149.02 345.824 1149.02 345.824Z" fill="#733DFF"/>
<path d="M1152.86 345.719L1154.36 345.678C1154.37 348.199 1154.7 350.028 1155.38 351.163C1156.4 352.866 1159.31 354.873 1161.1 356.48L1161.43 356.776C1162.76 358.01 1163.06 358.59 1163.05 359.479L1162.1 358.896C1157.55 356.101 1154.97 354.071 1154.35 352.806C1153.69 351.448 1153.19 349.086 1152.86 345.719Z" fill="black" fill-opacity="0.275213"/>
<path d="M1146.71 246.869L1147.15 247.514C1149.28 250.684 1150.44 253.06 1150.64 254.643C1150.82 256.015 1150.14 258.051 1148.61 260.751L1148.19 259.571L1148.18 259.582C1148.51 257.963 1148.67 256.55 1148.67 255.343C1148.67 253.409 1148.02 250.585 1146.71 246.869Z" fill="black" fill-opacity="0.275213"/>
<path d="M1127.72 269.645C1127.72 269.645 1128.1 270.307 1128.03 270.686C1127.68 272.389 1124.62 271.174 1124.62 271.174L1127.72 269.645Z" fill="#733DFF"/>
<path fill-rule="evenodd" clip-rule="evenodd" d="M1144.2 263.315L1142.72 246.869L1127.03 260.106L1123.43 256.766L1125.12 262.567L1131.89 259.77L1134.12 259.047L1135.44 263.702L1135.22 265.818L1124.61 271.202L1123.88 275.629L1144.2 263.315ZM1123.36 256.696L1123.3 256.646L1123.35 256.884L1123.36 256.696Z" fill="black" fill-opacity="0.275213"/>
<path d="M1131.98 248.122C1131.78 248.165 1131.63 248.337 1131.62 248.543L1131.11 260.224L1134.12 259.047L1135.4 263.442L1135.23 265.818L1132.43 267.114L1142.17 264.06C1142.35 264.004 1142.48 263.84 1142.49 263.651L1143.23 246.329C1143.24 246.035 1142.98 245.809 1142.69 245.869L1131.98 248.122Z" fill="#733DFF"/>
<path d="M1142.91 246.354C1143.06 246.361 1143.18 246.46 1143.22 246.593L1142.49 263.719C1142.48 263.846 1142.41 263.958 1142.3 264.014L1142.25 264.038L1135.74 266.076L1135.91 263.791L1134.64 259.396L1134.27 259.539L1134.12 259.047L1131.65 260.014L1132.14 248.816C1132.15 248.679 1132.23 248.56 1132.35 248.509L1132.41 248.49L1142.83 246.36C1142.86 246.355 1142.89 246.353 1142.91 246.354Z" fill="#D6D9FB"/>
<path fill-rule="evenodd" clip-rule="evenodd" d="M1141.36 248.07C1141.37 247.86 1141.53 247.687 1141.74 247.655L1142.02 247.611C1142.3 247.566 1142.56 247.797 1142.54 248.085L1142.43 249.772C1142.41 249.982 1142.26 250.154 1142.05 250.187L1141.77 250.231C1141.48 250.275 1141.23 250.045 1141.25 249.757L1141.36 248.07Z" fill="#ABBBD9"/>
<path d="M1141.19 248.07C1141.2 247.86 1141.36 247.687 1141.57 247.655L1141.85 247.611C1142.13 247.566 1142.39 247.797 1142.37 248.085L1142.26 249.772C1142.24 249.982 1142.09 250.154 1141.88 250.187L1141.6 250.231C1141.31 250.275 1141.06 250.045 1141.08 249.757L1141.19 248.07Z" fill="#733DFF"/>
<path fill-rule="evenodd" clip-rule="evenodd" d="M1141.89 248.828C1142.08 248.828 1142.23 248.661 1142.23 248.455C1142.23 248.25 1142.08 248.083 1141.89 248.083C1141.71 248.083 1141.55 248.25 1141.55 248.455C1141.55 248.661 1141.71 248.828 1141.89 248.828Z" fill="black"/>
<path fill-rule="evenodd" clip-rule="evenodd" d="M1141.89 249.852C1142.08 249.852 1142.23 249.685 1142.23 249.48C1142.23 249.274 1142.08 249.107 1141.89 249.107C1141.71 249.107 1141.55 249.274 1141.55 249.48C1141.55 249.685 1141.71 249.852 1141.89 249.852Z" fill="black"/>
<path opacity="0.212402" fill-rule="evenodd" clip-rule="evenodd" d="M1133.89 259.72L1136.35 256.543C1136.43 256.437 1136.5 256.327 1136.57 256.211C1136.8 255.807 1137.36 254.817 1137.53 254.508C1138.09 253.514 1139.34 252.605 1139.62 252.869C1139.9 253.133 1139.56 253.948 1139.11 254.883C1138.85 255.421 1139.1 256.12 1139.1 256.12L1141.67 255.272C1141.97 255.171 1142.28 255.416 1142.25 255.738L1141.88 259.752C1141.79 260.813 1141.09 261.728 1140.1 262.091L1138.56 262.654L1135.92 263.791L1135.83 263.48L1133.1 260.048L1133.89 259.72Z" fill="url(#paint1_linear)"/>
<path d="M1169.58 248.239C1168.7 247.734 1168.22 246.747 1168.36 245.746L1168.87 242.205C1168.96 241.583 1169.24 241.005 1169.68 240.552L1170.86 239.321C1171.04 239.135 1171.33 239.12 1171.53 239.287C1171.69 239.426 1171.75 239.655 1171.66 239.853L1171.19 240.954L1170.91 242.57L1173.34 240.747C1175.19 239.358 1177.84 240.68 1177.84 242.995C1177.84 243.429 1177.65 243.842 1177.32 244.129L1173.07 247.889C1172.1 248.742 1170.69 248.883 1169.58 248.239Z" fill="#FFAF8A"/>
<path d="M1135.39 221.847C1135.39 221.847 1137.02 225.136 1138.11 225.136C1139.21 225.136 1140.51 227.97 1140.51 227.97L1143.02 222.209L1134.27 216.855L1135.39 221.847Z" fill="black" fill-opacity="0.175153"/>
<path d="M1135.8 221.393C1135.8 221.393 1135.85 223.917 1134 224.869C1132.14 225.821 1130.71 228.407 1131.29 231.113C1131.88 233.819 1128.52 243.891 1128.52 243.891C1128.52 243.891 1127.9 240.328 1126.58 239.524C1125.25 238.72 1124.21 235.932 1123.98 233.949C1123.55 230.232 1124.72 219.579 1126.85 217.331C1128.98 215.083 1131.29 215.609 1131.29 215.609C1131.29 215.609 1135.38 214.317 1138.15 215.609C1140.92 216.9 1141.6 220.207 1142.81 221.098C1144.02 221.988 1141.43 226.018 1139.72 225.494C1138.01 224.97 1135.8 221.393 1135.8 221.393Z" fill="#0D134E"/>
<path d="M1134.91 259.021L1137.37 255.844C1137.45 255.739 1137.53 255.629 1137.59 255.513C1137.82 255.109 1138.38 254.119 1138.55 253.809C1139.11 252.816 1140.36 251.907 1140.64 252.171C1140.92 252.435 1140.58 253.249 1140.13 254.185C1139.87 254.722 1140.12 255.422 1140.12 255.422L1142.69 254.574C1142.99 254.473 1143.3 254.717 1143.27 255.039L1142.91 259.054C1142.81 260.115 1142.11 261.03 1141.12 261.393L1139.58 261.956L1136.55 263.188L1134.85 263.895L1134.12 259.35L1134.91 259.021Z" fill="#FFAF8A"/>
<path d="M873.795 318.277L876.609 316.284L872.859 314.141L872.763 314.086L872.699 313.995C872.509 313.725 872.187 313.583 871.859 313.641C871.78 313.655 871.702 313.681 871.629 313.717L845.703 326.746C845.403 326.896 845.207 327.218 845.215 327.575L847.111 412.324C847.119 412.707 847.327 413.049 847.644 413.227L870.853 426.197C871.116 426.344 871.435 426.339 871.693 426.182L904.931 406.012C905.192 405.853 905.359 405.56 905.359 405.236V398.552L884.923 385.228L884.739 385.108L884.703 384.892L873.591 318.768L873.539 318.459L873.795 318.277Z" fill="#F8FCFF" stroke="#E9EBFF"/>
<path d="M889.281 381.316L878.217 317.634C878.01 316.445 876.714 315.792 875.635 316.334L850.481 328.974C849.858 329.287 849.472 329.931 849.49 330.628L851.319 402.585L870.957 417.998C871.537 418.453 872.335 418.508 872.972 418.139L904.65 399.765C905.675 399.171 905.856 397.765 905.015 396.931L889.281 381.316Z" fill="#D6D9FB"/>
<path d="M887.424 366.856L887.379 366.814C887.114 366.588 886.731 366.604 886.484 366.837L886.421 366.906L872.514 384.124L851.889 385.06L852.573 408.811L852.294 409.156C852.085 409.415 852.087 409.786 852.288 410.041L852.348 410.108L881.066 438.206C881.474 438.605 882.077 438.702 882.581 438.461L882.687 438.404L919.475 416.558C919.509 416.538 919.542 416.517 919.573 416.494C920.134 416.092 920.309 415.334 920.012 414.725L916.905 382.109L898.396 382.949L887.503 366.952C887.48 366.918 887.453 366.886 887.424 366.856L887.379 366.814L887.424 366.856Z" fill="#5C66C0"/>
<path d="M883.334 401.492L881.804 438.928L851.319 416.029L851.061 384.827L883.334 401.492Z" fill="#4A529E"/>
<path d="M886.107 364.237C886.384 364.074 886.727 364.072 887.007 364.231L915.869 380.627C917.077 381.314 917.084 383.053 915.881 383.75L884.225 402.076C883.679 402.392 883.008 402.4 882.455 402.096L852.449 385.59C851.838 385.254 851.825 384.379 852.427 384.026L886.107 364.237Z" fill="#D6D9FB"/>
<path d="M882.318 366.648L874.329 325.111C874.172 324.29 873.272 323.847 872.526 324.223L854.907 333.09C854.45 333.321 854.177 333.804 854.217 334.315L857.933 381.598L882.318 394.453L905.859 381.209L882.318 366.648Z" fill="#0D134E"/>
<path d="M907.904 309.533C907.904 309.533 913.232 315.327 913.794 317.639C914.356 319.952 914.558 327.538 913.794 331.358C913.03 335.179 908.327 339.625 908.327 347.579C908.327 355.532 911.099 382.045 911.099 384.068C911.099 386.092 908.695 401.885 909.256 403.512C909.817 405.139 908.75 408.501 908.327 410.118C907.904 411.734 907.412 419.853 909.256 421.44C911.099 423.027 914.498 423.609 914.498 419.944C914.498 416.278 914.1 413.502 914.498 411.81C914.896 410.118 914.1 406.743 914.498 405.92C914.896 405.096 916.023 404.304 916.446 402.417C916.869 400.53 921.168 384.019 921.168 381.539C921.168 379.059 923.556 358.536 923.556 358.536C923.556 358.536 923.719 368.037 924.296 370.41C924.873 372.782 925.017 374.21 924.945 375.1C924.873 375.99 923.141 380.585 923.141 386.131C923.141 390.056 922.452 393.567 922.478 395.719C922.488 396.607 923.019 397.416 923.141 397.686C923.556 398.611 921.985 404.222 923.141 405.475C924.296 406.729 926.26 405.088 928.304 406.729C930.349 408.369 932.694 410.549 934.889 410.118C937.084 409.686 937.385 406.862 935.034 404.64C932.684 402.417 928.304 399.577 928.304 398.752C928.304 397.927 929.475 397.42 929.475 395.719C929.475 394.017 933.868 379.675 933.868 373.856C933.868 368.037 933.941 347.429 933.868 344.026C933.796 340.624 931.337 334.664 931.127 332.777C930.792 329.764 933.868 322.058 933.868 320.432C933.868 317.788 933.868 319.123 933.868 319.123C933.868 319.123 935.208 324.575 936.101 326.384C936.995 328.193 945.651 339.452 945.651 339.452L948.942 336.344C948.942 336.344 942.763 322.328 942.409 321.385C942.055 320.441 936.045 300.688 933.896 299.703C931.413 298.566 928.286 297.625 919.887 301.346C911.255 305.17 907.904 309.533 907.904 309.533Z" fill="#380085"/>
<path d="M933.896 310.986L941.973 334.632L940.498 332.668C938.017 329.345 936.563 327.271 936.134 326.446L936.102 326.384C935.526 325.218 934.812 322.917 933.958 319.483L933.869 319.123L933.896 310.986Z" fill="black" fill-opacity="0.275213"/>
<path d="M931.927 335.863L931.939 335.854L932.403 337.352C932.562 337.871 932.723 338.404 932.876 338.941C929.457 340.725 925.815 341.617 921.95 341.617C917.796 341.617 913.89 340.768 910.234 339.071C910.652 338.131 911.1 337.26 911.533 336.44C914.967 338.203 918.439 339.015 921.95 338.878C925.451 338.741 928.777 337.736 931.927 335.863Z" fill="#733DFF"/>
<path d="M914.499 314.834C918.361 319.534 921.843 324.659 924.946 330.21L926.505 332.99C928.797 337.065 931.258 341.387 933.889 345.958L933.896 347.598L911.862 335.824L912.376 334.855C913.036 333.594 913.576 332.451 913.795 331.359C914.558 327.538 914.356 319.952 913.795 317.639C913.775 317.557 913.75 317.472 913.721 317.383L914.499 314.834Z" fill="black" fill-opacity="0.275213"/>
<path d="M911.567 405.655C912.219 405.903 913.24 405.914 914.627 405.689C914.579 405.766 914.535 405.843 914.498 405.92C914.1 406.743 914.896 410.118 914.498 411.81C914.1 413.502 914.498 416.278 914.498 419.944C914.498 423.609 911.099 423.027 909.256 421.44C907.412 419.853 907.904 411.734 908.327 410.118L908.435 409.718C908.842 408.224 909.552 405.777 909.392 404.175C910.366 404.982 911.091 405.475 911.567 405.655Z" fill="#733DFF"/>
<path d="M926.066 398.683C926.762 398.776 927.516 398.734 928.327 398.558C928.312 398.621 928.305 398.686 928.305 398.752C928.305 399.577 932.684 402.417 935.035 404.64C937.386 406.862 937.085 409.686 934.89 410.118C932.695 410.549 930.35 408.369 928.305 406.729C926.26 405.088 924.297 406.729 923.141 405.475C922.033 404.273 923.432 399.065 923.183 397.823C924.135 398.268 925.097 398.554 926.066 398.683Z" fill="#733DFF"/>
<path d="M931.127 298.618C932.158 300.816 932.289 301.484 932.289 301.857C932.289 302.732 929.579 304.597 929.191 304.128C929.008 303.907 926.752 299.801 926.236 299.189C927.973 298.745 929.701 298.517 931.127 298.618Z" fill="#733DFF"/>
<path d="M919.887 301.346C925.005 299.078 928.166 298.542 930.416 298.726C930.86 299.421 931.107 300.192 931.107 301.003C931.107 304.089 927.531 306.592 923.119 306.592C919.889 306.592 917.107 305.25 915.849 303.32L916.094 303.188C917.26 302.564 918.524 301.95 919.887 301.346Z" fill="black" fill-opacity="0.275213"/>
<path d="M924.183 304.571C926.024 304.014 925.918 302.373 925.918 302.373V300.777C925.918 300.777 927.778 302.021 929.494 301.476C931.21 300.931 931.925 297.703 932.579 294.39C933.234 291.076 932.579 287.103 932.579 287.103L924.595 285.206L918.006 288.782C918.006 288.782 920.113 297.859 920.113 299.668C920.113 301.476 919.771 301.856 920.113 302.373C920.455 302.891 922.342 305.129 924.183 304.571Z" fill="#FFAF8A"/>
<path d="M924.595 285.206L932.579 287.103C932.692 287.786 932.775 288.454 932.83 289.108L931.415 289.83C928.027 291.572 925.752 292.824 924.59 293.586C922.535 294.933 923.95 299.635 923.243 301.239C922.93 301.948 922.344 302.8 921.485 303.797C920.79 303.258 920.276 302.62 920.113 302.373C919.784 301.876 920.088 301.506 920.112 299.87L920.113 299.668C920.113 298.563 919.523 295.422 918.342 290.245L918.006 288.782L924.595 285.206Z" fill="black" fill-opacity="0.175153"/>
<path d="M925.157 300.256C925.255 300.256 925.508 300.487 925.917 300.948L925.918 302.374C925.985 303.42 925.459 304.136 924.339 304.521L924.151 304.581L924.479 302.94C924.846 301.15 925.072 300.256 925.157 300.256Z" fill="black" fill-opacity="0.175153"/>
<path d="M928.956 288.56C929.751 288.115 930.663 290.373 932.906 290.373C935.149 290.373 936.845 287.313 935.826 285.951C934.806 284.59 933.492 284.807 932.542 283.303C931.593 281.799 931.298 280.301 929.493 280.005C927.688 279.71 925.897 280.965 924.594 280.965C923.29 280.965 922.01 279.275 919.695 280.481C917.379 281.687 917.75 287.576 916.446 288.56C915.141 289.543 911.333 292.767 912.653 295.208C913.973 297.649 917.088 296.619 915.794 299.439C914.499 302.259 915.151 304.685 915.151 304.685L919.695 301.951C919.695 301.951 922.001 302.685 922.001 301.136C922.001 299.586 920.692 298.176 922.001 296.952C923.311 295.729 921.285 294.156 922.001 292.897C922.718 291.637 926.744 292.552 927.688 291.666C928.632 290.78 928.16 289.004 928.956 288.56Z" fill="#380085"/>
<path d="M915.502 303.384L916.282 302.875L916.741 303.513C917.266 304.251 917.655 304.833 917.91 305.259L919.031 307.199C919.225 307.556 919.113 307.434 919.113 307.67C919.113 308.545 915.962 310.409 915.511 309.94L915.465 309.899C915.364 309.827 915.459 310.069 914.518 308.809L913.916 307.991C913.559 307.502 912.888 306.778 911.905 305.82C913.05 305.017 914.291 304.179 915.502 303.384Z" fill="#733DFF"/>
<path d="M927.86 323.061C927.86 324.98 927.449 330.17 926.627 338.621L926.988 338.658C927.811 330.192 928.223 324.998 928.223 323.061C928.223 321.111 927.656 318.3 926.524 314.622L926.478 314.473L926.328 314.493C923.109 314.914 920.983 314.454 919.939 313.142C919.394 312.457 917.541 309.704 917.284 309.354C917.157 309.181 917.066 309.051 917.012 308.963C916.99 308.927 916.975 308.901 916.968 308.885L916.97 308.89C916.994 308.95 916.995 309.007 916.887 309.072L916.704 308.75C916.576 308.827 916.586 308.916 916.633 309.03C916.649 309.066 916.672 309.109 916.706 309.163C916.766 309.261 916.862 309.398 916.994 309.578C917.254 309.932 919.11 312.689 919.658 313.378C920.783 314.791 922.975 315.283 926.223 314.882C927.315 318.454 927.86 321.183 927.86 323.061Z" fill="#733DFF"/>
<path d="M930.523 303.172C931.086 305.106 931.086 307.1 930.523 309.156C929.963 311.199 928.542 312.987 926.251 314.522L926.45 314.834C928.809 313.253 930.286 311.394 930.872 309.257C931.454 307.134 931.454 305.068 930.871 303.065L930.523 303.172Z" fill="#733DFF"/>
<path d="M931.796 342.114C931.796 342.114 935.743 349.528 930.889 346.216C930.668 346.064 930.21 345.751 930.21 345.751C930.21 345.751 914.277 334.902 913.196 332.777C912.116 330.653 905.621 311.225 907.904 309.532C910.188 307.84 914.635 310.589 915.281 313.253C915.928 315.917 918.77 326.604 919.84 327.217C920.909 327.83 931.796 342.114 931.796 342.114Z" fill="#380085"/>
<path d="M1140.16 419.541C1140.16 419.541 1137.09 418.406 1137.09 416.546C1137.09 414.686 1137.32 401.032 1138.01 399.447C1138.7 397.862 1143.44 379.817 1145.7 377.284C1147.95 374.751 1157.72 372.132 1162.22 372.132C1166.72 372.132 1178.07 376.423 1180.55 378.75C1183.03 381.076 1175.8 386.323 1175.8 391.224C1175.8 396.124 1174.25 406.501 1175.03 410.239C1175.8 413.978 1176.48 424.93 1176.48 424.93C1176.48 424.93 1175.96 449.432 1176.48 460.189C1176.57 461.986 1177.1 464.512 1177.26 466.364C1177.54 469.591 1178.41 476.622 1178.2 486.149C1178.17 487.525 1177.26 489.819 1177.26 489.819C1177.26 489.819 1175.09 490.534 1174.03 490.386C1172.97 490.238 1171.08 488.955 1171.08 488.955C1171.08 488.955 1170.15 487.087 1169.93 486.149C1167.35 475.144 1166.53 468.916 1166.53 467.694C1166.53 465.706 1166.53 461.178 1166.53 461.178L1161.84 433.457C1161.84 433.457 1158.49 452.727 1156.7 456.463C1156.11 457.708 1157.6 458.092 1157.38 462.638C1157.25 465.275 1156.13 475.154 1155.25 480.277C1155.02 481.582 1154.23 483.765 1154.23 483.765C1154.23 483.765 1151.94 485.229 1150.83 485.229C1149.72 485.229 1147.85 483.765 1147.85 483.765C1147.85 483.765 1147.02 482.423 1147.02 480.277C1147.02 478.131 1147.02 459.153 1147.02 456.463C1147.02 452.029 1149.7 410.606 1149.7 405.964C1149.7 401.321 1148.79 391.224 1148.79 391.224L1145.7 400.733C1145.7 400.733 1144.65 418.987 1143.55 418.987C1142.44 418.987 1140.16 419.541 1140.16 419.541Z" fill="#380085"/>
<path d="M1192.41 458.18C1193.1 457.774 1193.51 457.038 1193.51 456.242V433.377C1193.51 432.59 1193.1 431.86 1192.43 431.452L1187.69 428.568C1186.97 428.133 1186.08 428.13 1185.36 428.561L1165.66 440.387C1164.98 440.795 1164.57 441.528 1164.57 442.319V465.241C1164.57 466.043 1164.99 466.785 1165.69 467.188L1170.37 469.915C1171.08 470.325 1171.95 470.322 1172.66 469.905L1192.41 458.18Z" fill="#F8FCFF" stroke="#E9EBFF" stroke-width="0.6144"/>
<path d="M1170.52 444.363L1164.55 440.97C1164.38 441.251 1164.28 441.567 1164.26 441.899L1164.26 442.01V465.555C1164.26 466.233 1164.6 466.862 1165.15 467.226L1165.24 467.284L1170.56 470.375C1170.83 470.535 1171.13 470.621 1171.44 470.632L1171.52 446.108C1171.52 445.383 1171.14 444.714 1170.52 444.363Z" fill="#5C66C0"/>
<path d="M1185.65 428.035L1185.54 428.092L1165.22 440.294C1164.94 440.462 1164.71 440.696 1164.54 440.97L1170.24 444.118C1171.03 444.555 1172 444.542 1172.78 444.084L1192.15 432.693C1192.27 432.625 1192.37 432.533 1192.45 432.422C1192.75 432.003 1192.69 431.421 1192.31 431.084L1192.25 431.032L1191.9 430.771L1187.51 428.098C1186.97 427.771 1186.32 427.733 1185.75 427.985L1185.65 428.035Z" fill="#D0D4FF"/>
<path d="M1180.42 430.254C1180.84 430 1181.36 429.999 1181.77 430.253L1188.32 434.29C1189.07 434.756 1189.54 435.581 1189.54 436.469V438.852L1176.59 445.873C1176.15 446.115 1175.61 446.115 1175.16 445.872L1175.15 445.864C1174.67 445.607 1174.38 445.111 1174.38 444.572C1174.38 444.053 1174.1 443.573 1173.66 443.308L1167.05 439.387C1166.91 439.307 1166.74 439.333 1166.63 439.449L1166.98 438.881C1167.19 438.535 1167.48 438.244 1167.82 438.032L1180.42 430.254Z" fill="#380085"/>
<path d="M1181.4 429.729C1181.81 429.491 1182.32 429.497 1182.72 429.745L1189.29 433.793C1190.04 434.259 1190.5 435.084 1190.5 435.972V437.613C1190.5 438.072 1190.26 438.496 1189.86 438.724L1177.26 445.945C1176.41 446.434 1175.35 445.818 1175.35 444.834V444.695C1175.35 443.792 1174.87 442.956 1174.09 442.494L1168.44 439.133C1168.02 438.885 1167.5 438.894 1167.09 439.155L1166.63 439.449L1166.65 439.343C1166.79 438.62 1167.24 437.993 1167.88 437.622L1181.4 429.729Z" fill="#959FFA"/>
<path d="M1181.61 432.079L1181.56 432.108C1181.56 432.108 1171.56 437.853 1171.41 438.169C1171.29 438.395 1172.96 439.453 1173.91 440.034C1174.31 440.275 1174.8 440.274 1175.2 440.041L1184.86 434.393C1184.92 434.359 1184.97 434.313 1185.01 434.259C1185.16 434.05 1185.13 433.761 1184.94 433.594L1184.91 433.568L1184.74 433.438L1182.54 432.111C1182.27 431.948 1181.95 431.929 1181.67 432.054L1181.61 432.079Z" fill="#380085"/>
<path d="M1190.42 443.221L1176.1 451.364C1175.69 451.596 1175.18 451.445 1174.95 451.025C1174.72 450.605 1174.87 450.075 1175.28 449.843L1189.6 441.7C1190.01 441.467 1190.52 441.619 1190.75 442.039C1190.97 442.459 1190.83 442.988 1190.42 443.221Z" fill="#FF623F"/>
<path d="M1182.93 433.646V428.91C1182.93 427.923 1181.86 427.307 1181.01 427.803L1175.22 431.165C1174.44 431.623 1173.95 432.466 1173.95 433.378V438.653" stroke="#733DFF" stroke-width="2.88" stroke-linecap="round"/>
<path d="M1190.16 435.372L1175.75 443.801C1175.58 443.904 1175.36 443.842 1175.26 443.664C1175.16 443.485 1175.22 443.257 1175.39 443.155L1189.8 434.726C1189.97 434.623 1190.19 434.685 1190.29 434.864C1190.39 435.042 1190.33 435.27 1190.16 435.372Z" fill="#D0D4FF"/>
<path d="M1152.21 376.079L1153.22 378.172C1154.72 381.28 1157.81 383.247 1161.19 383.247H1161.68C1164.92 383.247 1167.89 381.448 1169.46 378.548L1170.79 376.087L1170.48 375.906L1169.15 378.367C1167.64 381.149 1164.78 382.874 1161.68 382.874H1161.19C1157.95 382.874 1154.99 380.988 1153.55 378.007L1152.54 375.914L1152.21 376.079Z" fill="#733DFF"/>
<path d="M1149.08 387.897L1148.8 391.279L1148.79 391.224L1145.7 400.733L1145.56 402.997C1145 412.191 1144.42 417.421 1143.83 418.685L1142.9 418.685L1143.43 407.939C1143.59 404.625 1143.69 402.38 1143.72 401.204L1143.74 400.48C1143.74 399.331 1145.22 395.73 1148.2 389.676L1149.08 387.897Z" fill="black" fill-opacity="0.275213"/>
<path d="M1140.8 416.119C1143.74 415.304 1146.94 420.961 1146.11 422.164C1145.28 423.368 1144.9 420.246 1143.53 420.246C1142.15 420.246 1142.69 424.763 1142.69 425.525C1142.69 426.288 1145.39 430.065 1144.46 430.516C1143.53 430.968 1140.8 426.232 1140.8 425.525C1140.8 424.818 1141.04 428.092 1141.61 429.304C1142.19 430.516 1141.58 431.263 1141.19 431.263C1140.8 431.263 1139.45 427.665 1139.13 426.124C1139.07 425.87 1139.22 427.332 1139.22 428.566C1139.22 428.958 1139.59 430.167 1139.59 430.516C1139.59 431.488 1139.05 431.82 1139.01 431.643C1138.94 431.273 1137.92 427.488 1137.7 426.124C1137.32 423.864 1137.7 421.679 1137.7 420.932C1137.7 419.247 1137.87 416.934 1140.8 416.119Z" fill="#FFAF8A"/>
<path d="M1174.86 490.253C1175.71 490.253 1176.51 490.111 1177.26 489.827L1177.56 490.618C1180.46 498.371 1181.7 503.002 1181.28 504.513C1180.63 506.855 1178.03 507.738 1175.75 505.327C1173.47 502.916 1173.43 501.25 1172.95 499.16C1172.47 497.069 1171.08 496.372 1170.93 495.064L1170.91 494.869C1170.84 493.919 1170.89 491.979 1171.07 489.049C1172.17 489.852 1173.43 490.253 1174.86 490.253Z" fill="#733DFF"/>
<path d="M1154.3 483.557L1154.23 483.765L1154.49 485.263C1154.97 488.062 1155.15 489.686 1155.02 490.135C1154.96 490.351 1154.44 490.935 1153.16 491.338C1152.3 491.61 1150.66 492.595 1150.16 493.443C1148.93 495.545 1147.15 496.756 1145.7 497.328L1145.45 497.422C1142.67 498.409 1137.21 498.751 1142.08 492.833L1142.24 492.646C1145.71 488.512 1147.58 485.579 1147.84 483.848C1148.69 484.431 1149.65 484.722 1150.7 484.722C1152.02 484.722 1153.22 484.334 1154.3 483.557Z" fill="#733DFF"/>
<path d="M1160.25 411.181C1166.06 411.629 1167.98 411.434 1174.99 410.082C1175 410.136 1175.01 410.189 1175.03 410.24C1175.2 411.073 1175.37 412.174 1175.53 413.544C1167.44 414.691 1162.98 414.61 1159.44 414.183C1155.06 413.655 1149.53 410.95 1149.53 410.95C1149.53 410.95 1149.61 408.958 1149.64 408.509C1152.7 410.082 1154.44 410.732 1160.25 411.181Z" fill="#733DFF"/>
<path d="M1149.53 402.366L1151 402.616C1152.24 402.828 1153.15 403.929 1153.15 405.219C1153.15 406.265 1152.32 407.113 1151.3 407.113C1151.2 407.113 1151.1 407.104 1151 407.087L1149.69 406.864L1149.69 406.276C1149.7 406.174 1149.7 406.07 1149.7 405.964L1149.69 405.524C1149.68 404.679 1149.62 403.627 1149.53 402.366Z" fill="#733DFF"/>
<path d="M1174.82 408.2L1172.81 408.2C1171.61 408.2 1170.63 407.199 1170.63 405.964C1170.63 404.773 1171.54 403.8 1172.68 403.732L1172.81 403.728L1174.94 403.728C1174.84 405.382 1174.78 406.925 1174.82 408.2Z" fill="#733DFF"/>
<path d="M1175.72 390.6L1175.8 391.116L1175.8 391.224C1175.8 396.03 1174.31 406.104 1174.98 410.016L1175.13 410.76C1175.59 413.274 1176.02 417.717 1176.43 424.087C1174.59 425.543 1171.29 414.816 1171.45 411.491C1171.61 408.165 1174.38 401.018 1175.65 391.107L1175.72 390.6Z" fill="black" fill-opacity="0.275213"/>
<path d="M1180.35 422.723C1179.45 422.353 1178.77 423.984 1177.85 424.415C1175.26 425.622 1174.23 428.567 1173.95 429.639C1173.81 430.191 1173.97 430.618 1173.97 430.618C1173.97 430.618 1176.04 429.289 1176.93 429.289C1177.76 429.289 1177.75 429.985 1177.5 430.876C1177.44 431.1 1176.74 431.952 1176.43 432.048C1176.26 432.101 1176.06 431.963 1175.85 432.048C1175.53 432.179 1175.22 432.546 1175.21 432.669C1175.18 432.909 1175.49 433.486 1176.43 433.627C1177.03 433.717 1177.49 433.717 1178.08 433.254C1178.66 432.805 1179.04 434.676 1180.35 433.254C1180.53 433.052 1181.32 433.442 1181.94 432.686C1182.11 432.473 1182.97 433.042 1183.07 431.893C1183.21 430.085 1182.99 429.162 1183.07 428.424C1183.26 426.551 1183.34 423.961 1180.35 422.723Z" fill="#FFAF8A"/>
<path d="M1153.72 373.556L1154.96 376.618C1155.43 377.767 1154.92 379.086 1153.81 379.592C1152.78 380.063 1151.58 379.624 1151.06 378.611L1150.98 378.437L1149.55 374.897C1150.83 374.406 1152.27 373.95 1153.72 373.556Z" fill="#733DFF"/>
<path d="M1173.88 375.238L1172.28 378.505C1171.73 379.623 1170.42 380.101 1169.31 379.592L1169.21 379.548C1168.23 379.038 1167.81 377.834 1168.24 376.809L1168.3 376.686L1169.74 373.741C1171.13 374.19 1172.55 374.702 1173.88 375.238Z" fill="#733DFF"/>
<path d="M1162.22 372.132C1164.57 372.132 1168.81 373.309 1172.66 374.764L1172.67 374.835L1172.67 374.965C1172.67 377.434 1168.77 379.436 1163.96 379.436C1159.15 379.436 1155.25 377.434 1155.25 374.965C1155.25 374.246 1155.58 373.567 1156.16 372.965C1158.46 372.448 1160.66 372.132 1162.22 372.132Z" fill="black" fill-opacity="0.275213"/>
<path d="M1175.38 388.894C1175.38 388.894 1178.82 401.493 1178.82 402.469C1178.82 403.445 1177.49 422.038 1177.36 423.864C1177.22 425.69 1180.61 425.5 1182.42 425.5C1184.23 425.5 1186.45 406.991 1187.2 404.357C1187.95 401.724 1181.07 379.531 1181.07 379.531L1175.38 388.894Z" fill="#380085"/>
<path d="M1161.32 383.041C1160.44 391.715 1160 398.008 1160 401.924V413.513H1160.36V401.924C1160.36 398.024 1160.8 391.741 1161.68 383.08L1161.32 383.041Z" fill="#733DFF"/>
<path d="M1160.32 375.674C1162.02 375.916 1164.46 374.591 1165.57 373.913C1165.93 373.695 1166.09 373.259 1165.98 372.852C1165.71 371.764 1165.27 369.606 1165.65 368.139C1166.17 366.105 1167.13 361.48 1167.13 361.48C1167.13 361.48 1167.28 353.814 1163.73 353.114C1160.18 352.414 1154.74 353.292 1153.88 356.86C1153.02 360.429 1154.54 368.33 1156.08 369.642C1157.27 370.656 1157.2 372.586 1157.1 373.41C1157.07 373.66 1157.12 373.917 1157.29 374.104C1157.71 374.574 1158.69 375.442 1160.32 375.674Z" fill="#FFAF8A"/>
<path d="M1163.43 368.038L1163.16 368.581C1161.67 371.48 1160.42 372.93 1159.4 372.93C1158.76 372.93 1158.03 372.789 1157.2 372.508C1157.22 371.723 1157.08 371.055 1156.78 370.502C1157.84 371.141 1158.71 371.346 1159.4 371.119C1160.38 370.798 1161.72 369.771 1163.43 368.038Z" fill="black" fill-opacity="0.175153"/>
<path d="M1153.42 360.282C1156.14 359.989 1159.39 356.483 1160.11 356.924C1160.82 357.364 1160.43 359.526 1162.05 359.352C1163.66 359.178 1164.34 358.279 1164.78 359.352C1165.22 360.424 1165.31 364.273 1165.88 364.211C1166.45 364.15 1166.34 359.534 1166.85 359.479C1167.36 359.424 1167.92 360.046 1167.92 360.046C1167.92 360.046 1167.92 357.452 1167.71 355.406C1167.5 353.359 1166.61 352.147 1164.68 351.285C1162.75 350.423 1158.25 351.979 1158.25 351.979C1158.25 351.979 1156.58 350.538 1155.12 350.696C1153.65 350.854 1152.22 354.247 1151.65 354.665C1151.08 355.084 1149.05 354.954 1148.83 355.462C1148.6 355.969 1150.69 360.576 1153.42 360.282Z" fill="#380085"/>
<path d="M1166.62 359.622C1166.62 359.622 1167.96 359.264 1168.23 359.953C1168.49 360.641 1168.01 363.676 1167.68 363.962C1167.35 364.249 1166.31 363.962 1166.31 363.962C1166.31 363.962 1166.23 362.161 1166.31 361.43C1166.38 360.699 1166.62 359.622 1166.62 359.622Z" fill="#FFAF8A"/>
<path fill-rule="evenodd" clip-rule="evenodd" d="M1036.47 513.984C1036.47 514.091 1036.41 514.19 1036.32 514.244L1029.96 518.022C1029.86 518.079 1029.74 518.079 1029.65 518.022L1023.27 514.244C1023.18 514.19 1023.13 514.091 1023.13 513.984V509.197C1023.13 509.089 1023.18 508.989 1023.28 508.935L1029.65 505.264C1029.74 505.21 1029.86 505.21 1029.95 505.264L1036.32 508.935C1036.41 508.989 1036.47 509.089 1036.47 509.197V513.984Z" fill="url(#paint2_linear)"/>
<path d="M1030.06 511.348C1029.92 511.431 1029.75 511.431 1029.61 511.348L1026.32 509.411C1026.21 509.344 1026.21 509.178 1026.32 509.11L1029.6 507.167C1029.75 507.083 1029.92 507.083 1030.06 507.167L1033.34 509.11C1033.46 509.178 1033.46 509.344 1033.34 509.411L1030.06 511.348Z" fill="#31347A"/>
<path d="M1029.68 519.408L1029.83 546.828" stroke="#5C66C0" stroke-width="7" stroke-linecap="round"/>
<path d="M1029.69 512.89L1023.13 509.109L1023.13 509.16V529.543C1023.13 529.611 1023.16 529.675 1023.2 529.719L1023.24 529.748L1029.94 533.55C1030 533.582 1030.07 533.588 1030.13 533.566L1030.17 533.546L1036.36 529.75C1036.41 529.716 1036.45 529.66 1036.47 529.597L1036.47 529.548V509.16C1036.47 509.126 1036.46 509.094 1036.45 509.065L1029.98 512.889C1029.89 512.941 1029.78 512.942 1029.69 512.89L1023.15 509.062L1029.69 512.89Z" fill="#F8FCFF"/>
<path d="M1029.69 512.89L1023.13 509.109L1023.13 509.16V529.543C1023.13 529.611 1023.16 529.675 1023.2 529.719L1023.25 529.748L1029.94 533.55C1029.98 533.569 1030.02 533.579 1030.05 533.579L1029.81 512.928C1029.77 512.925 1029.73 512.912 1029.69 512.89L1023.15 509.062L1029.69 512.89Z" fill="#D6D9FB"/>
<path fill-rule="evenodd" clip-rule="evenodd" d="M1113.62 465.856C1113.62 465.963 1113.57 466.061 1113.48 466.116L1107.11 469.894C1107.02 469.951 1106.9 469.951 1106.8 469.894L1100.43 466.116C1100.34 466.061 1100.28 465.963 1100.28 465.856V461.069C1100.28 460.961 1100.34 460.861 1100.43 460.807L1106.8 457.136C1106.89 457.082 1107.01 457.082 1107.1 457.136L1113.47 460.807C1113.57 460.861 1113.62 460.961 1113.62 461.069V465.856Z" fill="url(#paint3_linear)"/>
<path d="M1107.22 463.22C1107.08 463.303 1106.9 463.303 1106.76 463.22L1103.48 461.283C1103.36 461.216 1103.36 461.05 1103.48 460.982L1106.76 459.039C1106.9 458.955 1107.07 458.955 1107.21 459.039L1110.5 460.983C1110.61 461.05 1110.61 461.216 1110.5 461.283L1107.22 463.22Z" fill="#31347A"/>
<path d="M1106.84 471.28L1106.95 498.842" stroke="#5C66C0" stroke-width="7" stroke-linecap="round"/>
<path d="M1106.85 464.762L1100.29 460.981L1100.28 461.032V481.418C1100.28 481.485 1100.31 481.548 1100.36 481.592L1100.4 481.621L1106.84 485.443C1106.9 485.476 1106.97 485.483 1107.03 485.463L1107.07 485.443L1113.51 481.621C1113.57 481.587 1113.61 481.531 1113.62 481.467L1113.62 481.418V461.032C1113.62 460.998 1113.62 460.966 1113.61 460.936L1107.13 464.761C1107.04 464.813 1106.93 464.813 1106.85 464.762L1100.3 460.934L1106.85 464.762Z" fill="#F8FCFF"/>
<path d="M1106.84 464.762L1100.29 460.981L1100.28 461.032V481.418C1100.28 481.485 1100.31 481.548 1100.36 481.592L1100.4 481.621L1106.84 485.443C1106.88 485.465 1106.92 485.476 1106.97 485.474L1106.96 464.799C1106.92 464.794 1106.88 464.782 1106.84 464.762L1100.3 460.934L1106.84 464.762Z" fill="#D6D9FB"/>
<path fill-rule="evenodd" clip-rule="evenodd" d="M889.728 427.043C889.728 427.15 889.671 427.249 889.579 427.303L883.214 431.081C883.119 431.138 883 431.138 882.905 431.081L876.532 427.303C876.44 427.249 876.384 427.15 876.384 427.043V422.256C876.384 422.148 876.442 422.048 876.535 421.994L882.905 418.323C882.998 418.27 883.113 418.27 883.207 418.323L889.576 421.994C889.67 422.048 889.728 422.148 889.728 422.256V427.043Z" fill="url(#paint4_linear)"/>
<path d="M883.319 424.407C883.179 424.49 883.005 424.49 882.865 424.407L879.581 422.47C879.466 422.403 879.466 422.237 879.581 422.169L882.863 420.226C883.003 420.142 883.178 420.142 883.318 420.226L886.6 422.17C886.714 422.237 886.714 422.403 886.6 422.47L883.319 424.407Z" fill="#31347A"/>
<path d="M882.939 432.467V460.433" stroke="#5C66C0" stroke-width="7" stroke-linecap="round"/>
<path d="M882.949 425.949L876.39 422.169L876.385 422.219V442.605C876.385 442.672 876.413 442.735 876.46 442.779L876.499 442.808L882.946 446.63C883.002 446.664 883.07 446.67 883.131 446.65L883.175 446.63L889.614 442.808C889.671 442.775 889.71 442.718 889.723 442.654L889.728 442.605V422.219C889.728 422.186 889.722 422.153 889.709 422.124L883.233 425.948C883.145 426 883.037 426.001 882.949 425.949L876.405 422.121L882.949 425.949Z" fill="#F8FCFF"/>
<path d="M882.948 425.949L876.389 422.169L876.384 422.219V442.605C876.384 442.672 876.412 442.735 876.459 442.779L876.498 442.808L882.945 446.63C882.983 446.653 883.026 446.663 883.069 446.661L883.059 425.986C883.021 425.982 882.983 425.969 882.948 425.949L876.405 422.121L882.948 425.949Z" fill="#D6D9FB"/>
<path fill-rule="evenodd" clip-rule="evenodd" d="M953.304 380.468C953.304 380.574 953.36 380.673 953.452 380.728L959.818 384.506C959.913 384.562 960.031 384.562 960.126 384.506L966.499 380.728C966.591 380.673 966.647 380.574 966.647 380.468V375.681C966.647 375.573 966.59 375.473 966.496 375.419L960.127 371.748C960.033 371.694 959.918 371.694 959.825 371.748L953.455 375.419C953.361 375.473 953.304 375.573 953.304 375.681V380.468Z" fill="url(#paint5_linear)"/>
<path d="M959.713 377.832C959.853 377.915 960.027 377.915 960.167 377.832L963.451 375.895C963.566 375.828 963.566 375.662 963.451 375.594L960.17 373.65C960.029 373.567 959.854 373.567 959.714 373.65L956.432 375.594C956.318 375.662 956.318 375.828 956.432 375.895L959.713 377.832Z" fill="#31347A"/>
<path d="M960.094 385.892L959.337 422.453" stroke="#5C66C0" stroke-width="7" stroke-linecap="round"/>
<path d="M960.083 379.374L966.642 375.593L966.647 375.644V396.03C966.647 396.097 966.62 396.16 966.572 396.204L966.533 396.233L960.086 400.055C960.03 400.089 959.962 400.095 959.902 400.075L959.857 400.055L953.418 396.233C953.361 396.199 953.322 396.143 953.309 396.079L953.304 396.03V375.644C953.304 375.61 953.311 375.578 953.323 375.548L959.799 379.373C959.887 379.425 959.995 379.425 960.083 379.374L966.627 375.546L960.083 379.374Z" fill="#F8FCFF"/>
<path d="M960.084 379.374L966.643 375.593L966.648 375.644V396.03C966.648 396.097 966.62 396.16 966.573 396.204L966.534 396.233L960.087 400.055C960.049 400.078 960.006 400.088 959.963 400.086L959.973 379.411C960.011 379.406 960.049 379.394 960.084 379.374L966.627 375.546L960.084 379.374Z" fill="#D6D9FB"/>
<path d="M871.837 408.079C866.91 411.086 866.937 418.251 871.887 421.22L1020.16 510.169C1025 513.073 1031.04 513.087 1035.9 510.206L1117.24 461.938C1122.22 458.982 1122.26 451.787 1117.32 448.774L969.065 358.491C964.153 355.5 957.982 355.503 953.074 358.499L871.837 408.079Z" fill="#5C66C0"/>
<path d="M872.406 416.203C867.713 413.424 867.709 406.634 872.399 403.85L953.491 355.718C958.162 352.945 963.974 352.943 968.648 355.711L1116.81 443.46C1121.5 446.241 1121.5 453.038 1116.8 455.817L1035.59 503.863C1030.92 506.624 1025.12 506.623 1020.45 503.86L872.406 416.203Z" fill="#F8FCFF" stroke="#E9EBFF"/>
<path d="M1044.48 421.515C1044.79 421.332 1044.98 421.002 1044.98 420.644V402.921C1044.98 402.559 1044.78 402.225 1044.47 402.044L1012.62 383.689C1012.31 383.509 1011.92 383.509 1011.61 383.689L1011.36 383.257L1011.61 383.689L979.763 402.044C979.45 402.225 979.257 402.559 979.257 402.921V420.644C979.257 421.001 979.445 421.332 979.753 421.515L1011.62 440.406C1011.94 440.595 1012.33 440.595 1012.65 440.406L1044.48 421.515Z" fill="#F8FCFF" stroke="#D0D4FE"/>
<path d="M1011.32 421.816L979.257 403.055V420.828C979.257 421.048 979.36 421.249 979.523 421.373L979.594 421.42L1011.82 440.524C1011.99 440.627 1012.2 440.639 1012.38 440.561L1012.46 440.517L1044.65 421.414L1044.9 421.844L1044.65 421.414C1044.82 421.311 1044.94 421.127 1044.97 420.915L1044.97 420.889L1044.97 420.734L1044.97 420.146C1044.97 419.639 1044.97 418.914 1044.97 418.044C1044.96 416.304 1044.96 413.983 1044.95 411.657C1044.94 409.332 1044.93 407.002 1044.92 405.244C1044.91 404.372 1044.91 403.641 1044.9 403.123L1013.25 421.812C1012.66 422.164 1011.92 422.166 1011.32 421.816Z" fill="#F8FCFF" stroke="url(#paint6_linear)"/>
<path d="M1011.58 421.385L978.86 402.245C978.81 402.358 978.777 402.48 978.763 402.606L978.756 402.734V420.828C978.756 421.209 978.936 421.564 979.235 421.783L979.328 421.844L1011.56 440.954C1011.75 441.066 1011.96 441.118 1012.17 441.111L1012.14 421.57C1011.94 421.549 1011.75 421.487 1011.58 421.385L978.86 402.245L1011.58 421.385Z" fill="#D6D9FB"/>
<path fill-rule="evenodd" clip-rule="evenodd" d="M999.714 418.725C999.559 418.635 999.366 418.746 999.366 418.925V420.849C999.366 421.014 999.453 421.166 999.596 421.249L1007.53 425.866C1007.68 425.956 1007.87 425.845 1007.87 425.667V423.757C1007.87 423.592 1007.79 423.44 1007.64 423.357L999.714 418.725Z" fill="white"/>
<path d="M1000 418.893L1007.7 423.388C1007.79 423.441 1007.85 423.532 1007.87 423.636L1007.87 423.7L1007.87 425.379L1000.18 420.92C1000.09 420.867 1000.02 420.775 1000.01 420.671L1000 420.607L1000 418.893Z" fill="#959FFA"/>
<path fill-rule="evenodd" clip-rule="evenodd" d="M999.714 423.144C999.559 423.054 999.366 423.165 999.366 423.344V425.268C999.366 425.433 999.453 425.585 999.596 425.668L1007.53 430.285C1007.68 430.375 1007.87 430.264 1007.87 430.085V428.175C1007.87 428.011 1007.79 427.859 1007.64 427.776L999.714 423.144Z" fill="white"/>
<path d="M1000 423.312L1007.7 427.806C1007.79 427.86 1007.85 427.951 1007.87 428.055L1007.87 428.118L1007.87 429.798L1000.18 425.338C1000.09 425.285 1000.02 425.194 1000.01 425.089L1000 425.026L1000 423.312Z" fill="#959FFA"/>
<path d="M975.078 440.715C975.46 440.495 975.927 440.481 976.321 440.68L983.066 444.08V445.105C983.066 445.537 982.853 445.94 982.498 446.184L969.738 454.935C969.326 455.218 968.789 455.241 968.354 454.995L961.515 451.127C961.104 450.895 960.851 450.459 960.851 449.988V448.932L975.078 440.715Z" fill="#733DFF"/>
<path d="M974.993 439.784C975.419 439.515 975.961 439.514 976.387 439.782L982.632 443.701C983.13 444.013 983.145 444.733 982.66 445.065L969.749 453.911C969.331 454.197 968.786 454.217 968.348 453.961L961.303 449.837C960.775 449.528 960.762 448.77 961.28 448.443L974.993 439.784Z" fill="#D6D9FB"/>
<path d="M965.388 451.348C965.805 451.348 966.144 451.175 966.144 450.96C966.144 450.746 965.805 450.572 965.388 450.572C964.97 450.572 964.631 450.746 964.631 450.96C964.631 451.175 964.97 451.348 965.388 451.348Z" fill="#733DFF"/>
<path d="M974.916 440.519C975.303 440.27 975.801 440.27 976.188 440.519L981.068 443.65C981.556 443.963 981.571 444.67 981.098 445.004L971.209 451.975C970.83 452.242 970.328 452.262 969.929 452.025L964.351 448.712C963.83 448.402 963.817 447.651 964.327 447.324L974.916 440.519Z" fill="white"/>
<path d="M1005.13 484.528L980.684 470.03C980.684 470.619 980.987 471.156 981.477 471.433L1005.13 485.446C1005.64 485.741 1006.27 485.741 1006.75 485.446L1023.19 475.694C1023.68 475.4 1023.98 474.863 1023.98 474.291L1006.75 484.511C1006.25 484.823 1005.64 484.823 1005.13 484.528Z" fill="#733DFF"/>
<path d="M1023.98 474.356L1006.72 484.614C1006.21 484.91 1005.59 484.91 1005.1 484.614L980.611 470.062L998.677 459.334L1023.98 474.356Z" fill="#D6D9FB"/>
<path d="M1011.18 479.468L1020.85 473.748L999.168 460.882L989.501 466.585L1011.18 479.468Z" fill="#733DFF"/>
<path d="M997.968 478.181L1002.63 475.417L995.568 471.227L990.904 473.991L997.968 478.181Z" fill="#733DFF"/>
<path d="M1023.98 474.326V454.764C1023.98 454.227 1023.7 453.725 1023.26 453.465L999.077 439.131C998.925 439.044 998.74 439.148 998.74 439.339V459.369L1023.98 474.326Z" fill="#D6D9FB"/>
<path d="M999.743 458.727V440.818L1022.81 454.527V472.436L999.743 458.727Z" fill="white"/>
<path d="M1023.99 474.326C1024.42 474.014 1024.65 473.512 1024.65 472.976V454.363C1024.65 453.827 1024.37 453.325 1023.91 453.065L1000.26 439.11C999.836 438.868 999.329 438.868 998.906 439.11L1023.23 453.463C1023.69 453.74 1023.98 454.225 1023.98 454.762V474.326H1023.99Z" fill="#733DFF"/>
<path d="M944.622 430.19L920.171 415.692C920.171 416.281 920.475 416.818 920.964 417.095L944.622 431.108C945.129 431.403 945.753 431.403 946.242 431.108L962.678 421.356C963.168 421.062 963.471 420.525 963.471 419.953L946.242 430.173C945.736 430.485 945.129 430.485 944.622 430.19Z" fill="#733DFF"/>
<path d="M963.464 420.018L946.209 430.276C945.702 430.572 945.077 430.572 944.587 430.276L920.098 415.724L938.165 404.996L963.464 420.018Z" fill="#D6D9FB"/>
<path d="M950.672 425.13L960.339 419.41L938.656 406.544L928.989 412.246L950.672 425.13Z" fill="#733DFF"/>
<path d="M937.455 423.843L942.119 421.079L935.055 416.889L930.391 419.653L937.455 423.843Z" fill="#733DFF"/>
<path d="M963.472 419.988V400.425C963.472 399.889 963.185 399.387 962.746 399.127L938.564 384.793C938.413 384.706 938.227 384.81 938.227 385.001V405.03L963.472 419.988Z" fill="#D6D9FB"/>
<path d="M939.23 404.389V386.48L962.302 400.189V418.098L939.23 404.389Z" fill="white"/>
<path d="M963.481 419.988C963.903 419.676 964.14 419.174 964.14 418.637V400.025C964.14 399.489 963.853 398.986 963.396 398.727L939.746 384.772C939.324 384.529 938.816 384.529 938.394 384.772L962.72 399.125C963.176 399.402 963.464 399.887 963.464 400.423V419.988H963.481Z" fill="#733DFF"/>
<path d="M1028.93 500.252C1032.27 500.252 1034.98 498.515 1034.98 496.371C1034.98 494.227 1032.27 492.49 1028.93 492.49C1025.58 492.49 1022.87 494.227 1022.87 496.371C1022.87 498.515 1025.58 500.252 1028.93 500.252Z" fill="#FF623F"/>
<path d="M1107.59 452.124C1110.93 452.124 1113.64 450.387 1113.64 448.243C1113.64 446.1 1110.93 444.362 1107.59 444.362C1104.25 444.362 1101.54 446.1 1101.54 448.243C1101.54 450.387 1104.25 452.124 1107.59 452.124Z" fill="#FF623F"/>
<path d="M885.208 411.759C888.55 411.759 891.26 410.021 891.26 407.878C891.26 405.734 888.55 403.997 885.208 403.997C881.866 403.997 879.157 405.734 879.157 407.878C879.157 410.021 881.866 411.759 885.208 411.759Z" fill="#FF623F"/>
<path d="M963.874 363.631C967.216 363.631 969.926 361.893 969.926 359.75C969.926 357.606 967.216 355.868 963.874 355.868C960.532 355.868 957.823 357.606 957.823 359.75C957.823 361.893 960.532 363.631 963.874 363.631Z" fill="#FF623F"/>
<path d="M1112.04 545.096L1105.76 573.997L1068.67 551.089C1067.97 550.655 1067.6 549.832 1067.76 549.019L1072.65 522.897C1072.75 522.403 1073.02 521.962 1073.42 521.662L1073.84 521.348L1112.04 545.096Z" fill="#4A529E"/>
<path d="M1110.02 502.669C1109.03 502.131 1107.83 502.136 1106.85 502.681L1074.86 520.406C1073.5 521.162 1073.49 523.119 1074.84 523.892L1111.98 545.099L1119.22 507.676L1110.02 502.669Z" fill="#D6D9FB"/>
<path d="M1112.95 538.783L1084.04 522.007L1107.26 508.885L1117.94 514.43L1112.95 538.783Z" fill="#0D134E"/>
<path d="M1148.15 473.571C1147.7 473.291 1147.13 473.276 1146.65 473.531L1121.46 487.208C1121.05 487.428 1120.77 487.823 1120.69 488.278L1106.31 573.735L1111.34 576.586L1152.29 477.589C1152.57 476.908 1152.32 476.123 1151.69 475.737L1148.15 473.571Z" fill="#F8FCFF" stroke="#E9EBFF"/>
<path d="M1154.34 478.018C1154.37 476.471 1152.7 475.487 1151.35 476.252L1126.06 490.658C1125.53 490.959 1125.17 491.483 1125.07 492.083L1111.59 577.3L1150.19 553.929C1152.13 552.753 1153.33 550.661 1153.36 548.391L1154.34 478.018Z" fill="#5C66C0"/>
<path d="M948.095 335.686C949.254 335.988 950.037 336.348 950.392 336.756C950.531 336.915 951.25 337.539 951.686 338.134C952.361 339.054 952.766 340.024 952.431 340.024C952.174 340.024 951.835 339.795 951.226 339.271C951.005 339.081 950.668 338.824 950.401 338.565L950.248 338.416L952.354 342.981L952.513 343.735C952.76 344.944 952.843 345.572 952.761 345.619C952.648 345.685 952.254 345.06 951.581 343.745L951.491 343.57L950.106 341.485L950.392 342.452C951.193 345.202 951.471 346.577 951.226 346.577C950.953 346.577 950.246 345.08 949.105 342.087L949.254 342.856C949.799 345.727 949.946 347.162 949.693 347.162C949.419 347.162 948.887 345.748 948.095 342.919C948.374 345.748 948.374 347.162 948.095 347.162C947.689 347.162 947.566 344.681 946.871 343.068L946.805 342.919C946.302 341.85 945.744 340.743 945.133 338.565C945.133 338.565 945.427 336.658 946.291 336.246C947.155 335.833 948.095 335.686 948.095 335.686Z" fill="#FFAF8A"/>
<path d="M954.18 342.707L954.164 342.637C953.741 343.363 953.006 343.882 952.368 343.944L952.242 343.95C951.048 343.95 949.594 345.504 948.583 346.478L947.692 347.32C946.702 348.242 945.3 349.36 943.092 349.36C940.355 349.36 937.773 347.211 936.952 344.912C936.926 344.838 936.812 344.711 936.655 344.555C936.647 344.702 936.643 344.851 936.643 345.001C936.643 350.146 940.707 354.316 945.72 354.316C950.733 354.316 954.434 350.146 954.434 345.001C954.434 344.21 954.346 343.441 954.18 342.707L954.164 342.637L954.18 342.707Z" fill="#733DFF"/>
<path d="M953.536 341.162C952.243 339.308 949.248 339.004 947.826 339.889C946.404 340.774 945.977 342.131 943.83 342.131C941.683 342.131 935.913 342.702 936.735 345.001C937.556 347.3 940.356 349.36 943.093 349.36C945.831 349.36 947.33 347.642 948.34 346.708C949.351 345.774 951.326 343.992 952.62 343.992C953.913 343.992 954.83 343.017 953.536 341.162Z" fill="#1B215B"/>
<path d="M952.416 341.456C951.947 340.8 951.101 340.426 950.203 340.308C949.302 340.189 948.415 340.337 947.903 340.648C947.642 340.806 947.417 341.013 947.193 341.245C947.11 341.332 947.022 341.428 946.932 341.526C946.794 341.676 946.65 341.833 946.509 341.972C946.015 342.458 945.413 342.878 944.453 342.878C944.332 342.878 944.203 342.877 944.068 342.876C943.208 342.869 942.085 342.861 941.122 343.086C940.568 343.216 940.094 343.418 939.761 343.722C939.438 344.017 939.233 344.422 939.233 345.001C939.233 345.602 939.39 346.055 939.646 346.402C939.904 346.753 940.274 347.013 940.726 347.205C941.637 347.591 942.831 347.676 943.937 347.676C945.834 347.676 946.949 346.639 947.764 345.881C947.854 345.797 947.94 345.717 948.023 345.643C948.132 345.544 948.258 345.427 948.394 345.299C948.753 344.965 949.191 344.555 949.639 344.199C949.951 343.952 950.278 343.722 950.599 343.553C950.917 343.385 951.25 343.267 951.571 343.267C952.052 343.267 952.481 343.095 952.677 342.819C952.852 342.574 952.908 342.145 952.416 341.456Z" fill="#9286FF" fill-opacity="0.193018" stroke="#6262AD" stroke-width="0.5"/>
<path d="M936.894 345.001C936.894 350.014 940.852 354.066 945.721 354.066C950.59 354.066 954.548 350.014 954.548 345.001C954.548 339.988 950.59 335.936 945.721 335.936C940.852 335.936 936.894 339.988 936.894 345.001Z" fill="#9286FF" fill-opacity="0.193018" stroke="#F8F8F8" stroke-width="0.5"/>
<path d="M939.495 340.73C939.495 341.456 935.655 342.182 936.053 342.514L936.122 342.566C936.499 342.825 937.751 343.441 939.877 344.414C941.756 344.883 942.696 345.308 942.696 345.692C942.696 346.075 941.682 346.075 939.654 345.692L938.8 345.5L939.131 345.685C939.816 346.059 940.278 346.26 940.519 346.287L940.79 346.297C941.324 346.33 942.353 346.476 942.353 346.919C942.353 347.436 940.534 347.801 939.654 347.603C939.067 347.472 938.471 347.333 937.866 347.188C938.585 347.791 939.255 348.093 939.877 348.093L940.377 348.095C941.067 348.107 941.567 348.181 941.567 348.644C941.567 349.213 939.122 349.058 938.435 349.058C937.977 349.058 937.537 348.972 937.113 348.801C938.218 349.377 938.955 349.666 939.324 349.666L939.793 349.662C940.334 349.663 940.928 349.718 940.704 350.145C940.489 350.554 939.257 350.569 938.328 350.547L937.491 350.526C937.03 350.526 934.339 348.847 929.419 345.487C929.419 344.834 929.478 344.245 929.604 343.665C929.775 342.884 930.167 342.367 930.569 341.818L932.097 341.138C933.435 340.892 934.307 340.757 934.715 340.734L934.963 340.724C935.922 340.657 939.495 340.042 939.495 340.73Z" fill="#FFAF8A"/>
<path d="M915.375 489.793H922.161C922.53 489.793 922.891 489.906 923.193 490.118L924.391 490.956C925.352 491.628 925.421 493.02 924.503 493.751C923.495 494.554 922.211 495.528 921.072 496.242C920.029 496.896 917.443 498.335 914.92 499.718C912.297 501.154 909.137 499.125 909.33 496.14L909.696 490.493L915.375 489.793Z" fill="#733DFF"/>
<path d="M891.135 486.187C890.606 486.496 890.273 487.057 890.253 487.674L890.144 491.089L890.14 492.259C890.137 493.206 890.864 494.004 891.808 494.045C892.607 494.079 893.452 494.088 893.736 493.994C895.212 493.507 895.914 492.04 896.309 491.834C897.268 491.332 898.8 489.752 898.8 489.752L902.429 488.362C903.409 487.987 903.852 486.848 903.388 485.896L903.146 485.398C902.877 484.845 902.347 484.464 901.739 484.388L896.142 483.688C895.752 483.639 895.358 483.72 895.021 483.917L891.135 486.187Z" fill="#733DFF"/>
<path d="M897.242 384.215C897.242 384.215 898.127 381.83 898.823 378.518C899.519 375.206 896.692 366.934 896.692 366.934L909.921 361.957C909.921 361.957 910.194 368.643 910.194 372.078C910.194 374.76 908.952 376.767 908.406 377.519C908.249 377.735 908.017 377.88 907.76 377.95L905.958 378.445L906.898 384.215L904.395 386.67L897.242 384.215Z" fill="#FFAF8A"/>
<path d="M920.922 400.791L929.603 391.858C930.068 391.379 930.172 390.654 929.859 390.064L920.799 384.551C920.444 384.336 919.988 384.388 919.691 384.677L910.876 393.277L920.922 400.791Z" fill="#733DFF"/>
<path d="M919.818 384.553L911.31 392.853L920.921 400.043L929.787 390.919C929.927 390.775 929.994 390.585 929.988 390.398C929.969 390.324 929.945 390.253 929.915 390.183L929.858 390.064L920.643 384.457C920.378 384.296 920.041 384.335 919.818 384.553Z" fill="#D6D9FB"/>
<path d="M921.012 399.05L928.828 391.093C929.199 390.715 929.119 390.089 928.664 389.817L920.895 385.164C920.589 384.98 920.199 385.017 919.932 385.253L911.941 392.337L921.012 399.05Z" fill="white"/>
<path d="M920.046 385.152L911.942 392.337L921.012 399.05L921.896 398.151C922.802 394.031 923.258 390.176 923.267 386.583L920.763 385.084C920.534 384.947 920.246 384.975 920.046 385.152Z" fill="black" fill-opacity="0.169362"/>
<path d="M911.866 390.848L916.388 392.526C917.455 392.922 918.646 392.626 919.394 391.778C919.906 391.199 919.218 390.322 918.529 390.668C918.354 390.756 918.223 390.819 918.155 390.848C917.693 391.039 917.072 389.978 917.072 389.978L920.374 388.898C921.155 388.642 921.524 387.747 921.115 387.02C920.667 386.221 920.111 385.328 919.742 385.076C919.156 384.674 915.815 384.937 914.676 385.039C914.425 385.062 914.19 385.157 913.993 385.311L910.4 388.11L911.866 390.848Z" fill="#FFAF8A"/>
<mask id="mask0" mask-type="alpha" maskUnits="userSpaceOnUse" x="910" y="384" width="12" height="9">
<path d="M911.866 390.848L916.388 392.526C917.455 392.922 918.646 392.626 919.394 391.778C919.906 391.199 919.218 390.322 918.529 390.668C918.354 390.756 918.223 390.819 918.155 390.848C917.693 391.039 917.072 389.978 917.072 389.978L920.374 388.898C921.155 388.642 921.524 387.747 921.115 387.02C920.667 386.221 920.111 385.328 919.742 385.076C919.156 384.674 915.815 384.937 914.676 385.039C914.425 385.062 914.19 385.157 913.993 385.311L910.4 388.11L911.866 390.848Z" fill="white"/>
</mask>
<g mask="url(#mask0)">
</g>
<path d="M898.258 380.66L890.754 382.127C890.477 382.181 890.235 382.349 890.083 382.588L890.03 382.682L882.156 398.332C881.229 400.173 881.376 402.391 882.536 404.087C882.631 404.225 882.736 404.353 882.853 404.471C883.892 405.527 885.546 405.555 886.619 404.564L886.735 404.449L891.432 399.457L891.903 408.104C892.606 411.235 892.364 414.508 891.213 417.491L891.082 417.821C891.082 417.821 889.438 423.761 888.724 428.457C888.01 433.153 889.272 464.574 889.272 464.574L889.759 485.751C889.772 486.311 890.208 486.764 890.754 486.784L891.432 486.804C892.414 486.826 893.063 486.806 893.377 486.742C894.466 486.522 895.277 485.785 895.786 485.506L895.89 485.453C896.793 485.047 897.532 478.238 898.107 465.026L898.127 464.574C898.127 464.574 899.654 438.043 899.731 438.202L904.574 468.543L907.982 492.201C907.993 492.274 908.008 492.346 908.027 492.417C908.282 493.355 909.23 493.904 910.145 493.643L910.657 493.494C912.471 492.96 913.588 492.543 914.011 492.242C914.56 491.851 915.266 490.708 916.131 488.813C916.22 488.619 916.273 488.409 916.288 488.196L916.293 488.035L915.954 467.91C915.954 467.91 912.466 426.22 912.256 420.75C912.028 414.81 912.727 409.88 914.355 405.962L914.51 405.597L919.537 413.887C920.258 415.075 921.501 415.818 922.856 415.88L923.041 415.884H924.298C924.451 415.884 924.604 415.873 924.755 415.849C926.372 415.598 927.499 414.089 927.335 412.438L927.316 412.283L925 396.59L921.285 400.354L917.139 389.218C917.073 389.041 916.962 388.886 916.819 388.769L916.729 388.703L907.47 382.653C904.241 383.137 901.898 383.137 900.442 382.653C899.049 382.19 898.322 381.562 898.262 380.769L898.258 380.66Z" fill="#380085"/>
<path d="M892.044 414.517L892.406 414.589C893.329 414.773 894.222 414.155 894.401 413.208C894.573 412.302 894.029 411.424 893.174 411.188L893.056 411.16L892.284 411.006C892.332 412.182 892.251 413.36 892.044 414.517Z" fill="#733DFF"/>
<path d="M891.239 418.201L891.083 418.597C890.828 419.454 890.588 420.284 890.363 421.086C892.499 421.855 894.763 422.377 897.153 422.653C900.908 423.087 905.958 423.025 912.301 422.467L912.263 421.686L912.257 421.526C912.229 420.809 912.215 420.107 912.215 419.419L911.853 419.455C911.795 419.461 911.738 419.466 911.683 419.47C905.841 419.956 900.9 419.773 897.617 419.47C895.432 419.269 893.306 418.846 891.239 418.201Z" fill="#733DFF"/>
<path d="M912.643 412.37L909.574 412.372C908.634 412.372 907.872 413.154 907.872 414.118C907.872 415.043 908.572 415.799 909.457 415.861L909.574 415.865L912.29 415.864C912.36 414.647 912.477 413.483 912.643 412.37Z" fill="#733DFF"/>
<path d="M896.299 381.044L892.752 381.737C892.547 386.254 895.034 389.205 900.027 390.079C905.1 390.967 909.314 389.556 912.476 385.924L909.557 384.018C907.221 386.466 904.256 387.376 900.599 386.635C898.124 386.134 896.046 384.394 896.299 381.044Z" fill="#733DFF"/>
<path d="M891.415 393.55L886.033 404.978C886.241 404.869 886.438 404.731 886.619 404.564L886.735 404.449L891.415 399.474L891.415 393.55Z" fill="black" fill-opacity="0.275213"/>
<path d="M923.047 398.603L921.286 400.354L923.977 408.262L923.047 398.603Z" fill="black" fill-opacity="0.275213"/>
<path d="M912.459 399.594C912.329 399.649 912.246 399.779 912.247 399.923L912.369 411.797C912.372 412.061 912.468 412.301 912.626 412.485C912.975 410.083 913.545 407.923 914.337 406.005L914.51 405.598L916.787 409.35L912.908 399.784C912.836 399.604 912.634 399.519 912.459 399.594Z" fill="black" fill-opacity="0.275213"/>
<path d="M1060.17 479.607L1082.93 466.109C1082.93 466.658 1082.65 467.158 1082.2 467.416L1060.17 480.461C1059.7 480.736 1059.12 480.736 1058.66 480.461L1043.36 471.383C1042.9 471.108 1042.62 470.609 1042.62 470.076L1058.66 479.591C1059.13 479.881 1059.7 479.881 1060.17 479.607Z" fill="#733DFF"/>
<path d="M1042.63 470.137L1058.69 479.687C1059.17 479.962 1059.75 479.962 1060.2 479.687L1083 466.139L1066.18 456.152L1042.63 470.137Z" fill="#D6D9FB"/>
<path d="M1054.54 474.896L1045.54 469.571L1065.73 457.593L1074.73 462.902L1054.54 474.896Z" fill="#733DFF"/>
<path d="M1066.84 473.698L1062.5 471.124L1069.08 467.223L1073.42 469.797L1066.84 473.698Z" fill="#733DFF"/>
<path d="M1042.62 470.109V451.896C1042.62 451.397 1042.89 450.929 1043.3 450.688L1065.81 437.343C1065.95 437.262 1066.12 437.359 1066.12 437.536V456.184L1042.62 470.109Z" fill="#D6D9FB"/>
<path d="M1065.19 455.586V438.914L1043.71 451.677V468.349L1065.19 455.586Z" fill="white"/>
<path d="M1042.61 470.109C1042.22 469.819 1042 469.351 1042 468.852V451.524C1042 451.024 1042.27 450.557 1042.69 450.315L1064.71 437.323C1065.1 437.098 1065.58 437.098 1065.97 437.323L1043.32 450.686C1042.9 450.944 1042.63 451.395 1042.63 451.895V470.109H1042.61Z" fill="#733DFF"/>
<path d="M913.37 365.122C913.822 366.302 912.963 368.151 912.585 370.093C912.366 371.222 912.654 372.151 912.585 372.444C912.548 372.603 911.229 372.103 911.02 371.494C910.764 370.751 911.248 368.9 911.02 368.887C908.546 368.745 909.715 373.263 904.849 378.16C903.171 379.848 898.498 378.792 898.498 378.792C898.498 378.792 895.941 375.111 895.683 371.309C895.072 362.312 903.621 359.923 905.149 361.839C908.115 359.691 912.268 362.246 913.37 365.122Z" fill="#0D134E"/>
<path d="M897.007 367.047H897.401C898.688 367.047 899.73 368.089 899.73 369.375C899.73 370.662 898.688 371.704 897.401 371.704H897.007V367.047Z" fill="#5C66C0"/>
<path d="M898.078 370.581C895.511 371.98 893.852 374.665 894.498 377.516C894.752 378.639 895.12 379.898 895.652 381.218C897.486 385.768 894.65 395.991 894.65 395.991C894.65 395.991 893.024 389.117 891.167 387.061C889.31 385.006 888.305 382.898 887.437 379.506C887.189 378.536 886.96 376.284 886.759 373.56C886.305 367.418 893.594 364.058 898.126 368.23C898.126 368.23 898.853 368.507 898.853 369.39C898.853 370.273 898.078 370.581 898.078 370.581Z" fill="#0D134E"/>
<path d="M875.469 500.85L881.743 529.75L918.835 506.843C919.539 506.408 919.902 505.585 919.75 504.772L914.852 478.65C914.759 478.156 914.485 477.715 914.082 477.415L913.661 477.101L875.469 500.85Z" fill="#4A529E"/>
<path d="M877.489 458.422C878.477 457.884 879.672 457.889 880.656 458.434L912.641 476.159C914.005 476.915 914.018 478.872 912.663 479.645L875.522 500.852L868.289 463.429L877.489 458.422Z" fill="#D6D9FB"/>
<path d="M874.559 494.536L903.465 477.761L880.24 464.638L869.569 470.183L874.559 494.536Z" fill="#0D134E"/>
<path d="M839.351 429.324C839.808 429.044 840.38 429.029 840.851 429.284L866.05 442.962C866.455 443.182 866.737 443.576 866.813 444.031L881.192 529.488L876.165 532.339L835.217 433.342C834.936 432.661 835.191 431.876 835.819 431.491L839.351 429.324Z" fill="#F8FCFF" stroke="#E9EBFF"/>
<path d="M833.161 433.771C833.139 432.225 834.806 431.24 836.15 432.005L861.448 446.411C861.976 446.712 862.338 447.236 862.433 447.837L875.92 533.053L837.312 509.682C835.371 508.507 834.172 506.414 834.141 504.145L833.161 433.771Z" fill="#5C66C0"/>
<path d="M951.11 551.306L957.384 580.207L994.476 557.299C995.18 556.865 995.544 556.042 995.391 555.229L990.493 529.107C990.401 528.613 990.126 528.172 989.723 527.872L989.302 527.558L951.11 551.306Z" fill="#4A529E"/>
<path d="M953.13 508.879C954.118 508.341 955.313 508.345 956.297 508.891L988.282 526.616C989.646 527.372 989.659 529.329 988.304 530.102L951.163 551.309L943.93 513.886L953.13 508.879Z" fill="#D6D9FB"/>
<path d="M950.2 544.993L979.106 528.217L955.881 515.095L945.21 520.64L950.2 544.993Z" fill="#0D134E"/>
<path d="M914.993 479.781C915.449 479.501 916.021 479.485 916.492 479.741L941.691 493.418C942.096 493.638 942.378 494.033 942.454 494.488L956.833 579.945L951.806 582.795L910.859 483.799C910.577 483.118 910.832 482.333 911.46 481.947L914.993 479.781Z" fill="#F8FCFF" stroke="#E9EBFF"/>
<path d="M908.802 484.228C908.78 482.681 910.447 481.697 911.792 482.462L937.089 496.868C937.617 497.169 937.979 497.693 938.074 498.293L951.561 583.51L912.954 560.139C911.012 558.963 909.813 556.871 909.782 554.601L908.802 484.228Z" fill="#5C66C0"/>
<path d="M986.886 467.018C986.886 467.018 987.744 467.742 988.876 468.149C990.009 468.555 991.389 469.799 992.133 469.154C992.877 468.508 990.83 467.313 990.914 466.703C990.953 466.42 992.4 465.728 993.923 464.981C995.695 464.111 997.571 464.385 997.446 463.923C997.212 463.064 992.713 463.784 992.713 463.784C992.713 463.784 996.941 462.807 996.847 462.062C996.753 461.317 992.488 461.989 992.488 461.989C992.488 461.989 995.971 461.224 995.635 460.355C995.299 459.485 992.185 460.171 992.185 460.171C992.185 460.171 994.02 459.023 993.579 458.709C993.383 458.569 992.09 458.237 989.706 460.151C989.109 460.631 987.871 461.112 986.521 462.237C986.054 462.627 985.248 463.845 985.248 463.845L986.886 467.018Z" fill="#FFAF8A"/>
<path d="M949.59 473.909C954.883 468.734 961.342 474.849 968.203 472.499C975.064 470.149 982.914 462.519 985.375 463.539C987.837 464.56 988.863 466.572 987.19 468.7C985.516 470.827 974.916 479.487 972.337 481.063C969.758 482.639 952.154 485.861 952.154 485.861C952.154 485.861 944.298 479.084 949.59 473.909Z" fill="#380085"/>
<path d="M951.096 473.175C943.38 479.511 950.485 505.862 948.274 509.409C946.063 512.957 945.121 522.5 952.432 525.481C957.219 527.433 959.754 528.704 962.681 528.462C964.224 528.335 966.847 528.185 967.854 526.629C970.769 522.122 968.573 504.929 970.948 501.041C973.323 497.152 975.538 483.656 972.95 479.511C970.362 475.367 954.199 470.627 951.096 473.175Z" fill="#380085"/>
<path d="M965.546 473.971L965.516 473.909C969.053 475.699 971.967 477.936 972.951 479.511C975.502 483.596 973.387 496.763 971.052 500.866L970.949 501.041C969.894 502.769 969.741 507.122 969.641 511.823L967.854 512.78C969.265 500.443 969.265 490.205 967.854 482.065C967.3 478.866 966.576 476.266 965.681 474.267L965.516 473.909L965.546 473.971Z" fill="black" fill-opacity="0.28827"/>
<path d="M1005.49 544.215C1005.49 544.215 1005.24 546.591 1006.99 548.016C1008.74 549.442 1013.55 547.451 1015.96 550.126C1017.33 551.657 1015.06 553.934 1010.71 555.198C1007.46 556.14 1002.67 556.598 1001.11 556.22C998.653 555.626 999.887 544.871 999.887 544.871L1005.49 544.215Z" fill="#733DFF"/>
<path d="M970.407 510.96C970.407 510.96 952.328 516.888 956.04 525.789C958.513 531.719 976.43 526.873 988.947 520.872C989.898 520.416 990.637 521.825 990.637 524.374C990.637 526.924 996.747 543.711 997.492 546.27C998.238 548.828 1002.32 548.34 1003.46 547.97C1004.61 547.601 1006.96 546.883 1006.96 544.711C1006.96 542.538 1003.09 511.477 997.739 509.407C992.383 507.337 970.407 510.96 970.407 510.96Z" fill="#380085"/>
<path d="M968.919 502.138L964.177 502.565C963.241 502.649 962.548 503.496 962.63 504.457C962.708 505.378 963.47 506.069 964.357 506.051L964.474 506.044L967.896 505.789C968.406 505.751 968.807 505.334 968.825 504.823L968.88 503.267C968.901 502.667 968.393 502.186 967.796 502.239L964.177 502.565L968.919 502.138Z" fill="#733DFF"/>
<path d="M948.412 502.138L949.373 502.565C950.309 502.649 951.002 503.496 950.92 504.457C950.841 505.378 950.08 506.069 949.192 506.051L949.076 506.044L949.008 506.004C948.715 505.828 948.531 505.517 948.519 505.177L948.449 503.188C948.432 502.702 948.928 502.367 949.373 502.565L948.412 502.138Z" fill="#733DFF"/>
<path d="M948.505 511.861C954.466 513.544 960.088 514.153 969.126 511.965L969.055 508.664C969.055 508.664 957.616 510.294 949.376 508.616C949.096 508.558 948.58 508.464 948.58 508.464C948.58 508.464 948.114 509.314 947.973 509.832C947.782 510.534 947.395 511.393 947.395 511.393C947.395 511.393 948.173 511.768 948.505 511.861Z" fill="#733DFF"/>
<path d="M993.357 518.245C994.879 519.198 1002.32 529.196 1000.54 548.239C999.208 548.122 997.885 547.621 997.492 546.27C996.767 543.784 991.23 527.606 991.217 524.356L991.216 524.107C991.216 521.624 989.848 520.477 989.018 520.839L987.718 521.456L988.047 521.035C990.222 518.321 991.992 517.391 993.357 518.245Z" fill="black" fill-opacity="0.28827"/>
<path d="M1002.13 478.555C1002.13 478.555 1001.76 477.455 1001.79 476.206C1001.82 474.957 1001.15 473.158 1002.03 472.674C1002.92 472.19 1003.3 474.618 1003.9 474.762C1004.19 474.829 1005.37 473.679 1006.64 472.477C1008.11 471.078 1009.69 469.608 1010.08 469.901C1010.81 470.445 1007.33 474.092 1007.33 474.092C1007.33 474.092 1010.95 470.802 1011.62 471.169C1012.3 471.535 1008.94 474.973 1008.94 474.973C1008.94 474.973 1012.1 472.328 1012.8 472.975C1013.5 473.622 1010.55 475.939 1010.55 475.939C1010.55 475.939 1013.48 474.565 1013.62 475.11C1013.68 475.351 1012.35 476.744 1009.66 478.352C1008.99 478.755 1008.08 479.779 1006.52 480.674C1005.98 480.984 1004.53 481.317 1004.53 481.317L1002.13 478.555Z" fill="#FFAF8A"/>
<path d="M987.666 494.519C991.484 493.381 1004.94 484.161 1005.19 483.053C1005.44 481.944 1003.71 478.448 1001.56 478.483C999.418 478.519 987.788 486.374 984.919 485.695C982.993 485.238 971.602 474.756 966.587 475.389C965.545 475.521 966.487 477.531 965.841 478.705C960.446 488.515 983.848 495.658 987.666 494.519Z" fill="#380085"/>
<path d="M951.277 473.263L951.123 473.26C949.785 476.956 950.02 480.143 955.237 482.138C959.369 483.717 965.43 483.101 968.686 478.409L968.914 478.071C968.686 477.549 968.185 476.358 967.029 475.862C964.547 479.307 960.394 480.547 956.434 479.112C953.845 478.174 952.85 475.534 954.103 473.522L954.149 473.363C952.955 472.99 952.231 473.292 951.277 473.263L951.123 473.26L951.277 473.263Z" fill="#733DFF"/>
<path d="M956.976 472.829L957.346 469.123C957.346 469.123 953.816 458.319 955.423 454.943C957.03 451.567 966.804 449.582 968.295 453.851C969.787 458.12 970.883 469.875 968.295 470.932C965.708 471.989 965.465 471.356 965.465 471.356L964.555 474.403C964.555 474.403 962.718 475.517 960.237 474.814C957.756 474.111 956.976 472.829 956.976 472.829Z" fill="#FFAF8A"/>
<path d="M956.199 466.742C958.094 469.048 960.4 469.406 962.064 467.337C963.729 465.268 962.279 460.7 964.013 459.89C965.746 459.08 965.525 463.958 966.47 463.467C967.415 462.977 966.34 457.811 967.415 456.577C968.489 455.343 970.189 456.143 970.189 453.779C970.189 451.415 966.107 449.007 963.06 449.873C960.014 450.74 957.409 449.441 954.92 452.448C952.432 455.454 954.304 464.435 956.199 466.742Z" fill="#380085"/>
<path d="M1036 377.031C1036 375.923 1035.41 374.898 1034.45 374.341L988.536 347.677C987.584 347.124 986.391 347.809 986.388 348.91L986.255 397.332C986.252 398.451 986.851 399.485 987.822 400.04L1033.86 426.347C1034.81 426.891 1036 426.203 1036 425.105V377.031Z" fill="#FF623F" fill-opacity="0.280021" stroke="#FF623F" stroke-width="0.5"/>
<path d="M1015.06 369.89C1015.06 369.38 1014.79 368.909 1014.35 368.653L991.391 355.321C990.999 355.093 990.507 355.375 990.505 355.829L990.44 375.679C990.439 376.193 990.714 376.669 991.161 376.925L1014.18 390.078C1014.57 390.302 1015.06 390.018 1015.06 389.565V369.89Z" fill="#FF623F" fill-opacity="0.193018" stroke="#F8F8F8" stroke-width="0.5"/>
<path d="M1031.81 380.114C1031.81 379.034 1031.25 378.032 1030.33 377.466L1021.95 372.309C1021 371.724 1019.78 372.405 1019.77 373.522L1019.65 410.527C1019.64 411.641 1020.23 412.672 1021.2 413.23L1029.66 418.126C1030.62 418.677 1031.81 417.989 1031.81 416.888V380.114Z" fill="#FF623F" fill-opacity="0.193018" stroke="#F8F8F8" stroke-width="0.5"/>
<path d="M1012.44 405.668V397.817C1012.44 397.377 1012.09 397.02 1011.65 397.02C1011.21 397.02 1010.85 397.377 1010.85 397.817V405.668C1010.85 406.108 1011.21 406.465 1011.65 406.465C1012.09 406.465 1012.44 406.108 1012.44 405.668Z" fill="#FF623F" fill-opacity="0.280021" stroke="#FF623F" stroke-width="0.5"/>
<path d="M1008.26 403.575V399.911C1008.26 399.471 1007.9 399.114 1007.46 399.114C1007.02 399.114 1006.66 399.471 1006.66 399.911V403.575C1006.66 404.015 1007.02 404.371 1007.46 404.371C1007.9 404.371 1008.26 404.015 1008.26 403.575Z" fill="#FF623F" fill-opacity="0.280021" stroke="#FF623F" stroke-width="0.5"/>
<path d="M1004.07 401.481V395.724C1004.07 395.284 1003.71 394.927 1003.27 394.927C1002.83 394.927 1002.48 395.284 1002.48 395.724V401.481C1002.48 401.921 1002.83 402.278 1003.27 402.278C1003.71 402.278 1004.07 401.921 1004.07 401.481Z" fill="#FF623F" fill-opacity="0.280021" stroke="#FF623F" stroke-width="0.5"/>
<path d="M991.507 393.107V387.349C991.507 386.909 991.15 386.552 990.71 386.552C990.27 386.552 989.914 386.909 989.914 387.349V393.107C989.914 393.547 990.27 393.903 990.71 393.903C991.15 393.903 991.507 393.547 991.507 393.107Z" fill="#FF623F" fill-opacity="0.280021" stroke="#FF623F" stroke-width="0.5"/>
<path d="M995.694 395.2V391.536C995.694 391.096 995.338 390.74 994.897 390.74C994.457 390.74 994.101 391.096 994.101 391.536V395.2C994.101 395.64 994.457 395.997 994.897 395.997C995.338 395.997 995.694 395.64 995.694 395.2Z" fill="#FF623F" fill-opacity="0.280021" stroke="#FF623F" stroke-width="0.5"/>
<path d="M999.882 398.341V391.536C999.882 391.096 999.525 390.74 999.085 390.74C998.645 390.74 998.288 391.096 998.288 391.536V398.341C998.288 398.781 998.645 399.137 999.085 399.137C999.525 399.137 999.882 398.781 999.882 398.341Z" fill="#FF623F" fill-opacity="0.280021" stroke="#FF623F" stroke-width="0.5"/>
<defs>
<linearGradient id="paint0_linear" x1="2406.24" y1="287.942" x2="2287.91" y2="1039.02" gradientUnits="userSpaceOnUse">
<stop offset="0.0649817" stop-color="#A8A8A8"/>
<stop offset="1" stop-color="#F6F6F6"/>
</linearGradient>
<linearGradient id="paint1_linear" x1="1154.08" y1="240.573" x2="1121.68" y2="251.654" gradientUnits="userSpaceOnUse">
<stop stop-color="#3D3D70" stop-opacity="0.0452616"/>
<stop offset="1" stop-color="#272858"/>
</linearGradient>
<linearGradient id="paint2_linear" x1="1030.76" y1="516.504" x2="1020.68" y2="517.167" gradientUnits="userSpaceOnUse">
<stop stop-color="#F5F6F9"/>
<stop offset="1" stop-color="#E4E7EC"/>
</linearGradient>
<linearGradient id="paint3_linear" x1="1107.91" y1="468.376" x2="1097.84" y2="469.039" gradientUnits="userSpaceOnUse">
<stop stop-color="#F5F6F9"/>
<stop offset="1" stop-color="#E4E7EC"/>
</linearGradient>
<linearGradient id="paint4_linear" x1="884.016" y1="429.563" x2="873.939" y2="430.226" gradientUnits="userSpaceOnUse">
<stop stop-color="#F5F6F9"/>
<stop offset="1" stop-color="#E4E7EC"/>
</linearGradient>
<linearGradient id="paint5_linear" x1="959.015" y1="382.987" x2="969.092" y2="383.651" gradientUnits="userSpaceOnUse">
<stop stop-color="#F5F6F9"/>
<stop offset="1" stop-color="#E4E7EC"/>
</linearGradient>
<linearGradient id="paint6_linear" x1="1040.53" y1="410.15" x2="1047.09" y2="429.95" gradientUnits="userSpaceOnUse">
<stop stop-color="#EAECFF" stop-opacity="0.179168"/>
<stop offset="1" stop-color="#D0D4FE"/>
</linearGradient>
</defs>
</svg>
