<svg width="320" height="805" viewBox="0 0 320 805" fill="none" xmlns="http://www.w3.org/2000/svg">
<ellipse rx="3.89229" ry="3.81597" transform="matrix(1 0 0 -1 289.416 188.816)" fill="#CCCCCC" fill-opacity="0.3"/>
<path opacity="0.4" d="M265 365.391V313.027C265 312.234 265.468 311.516 266.194 311.196L288.097 301.555C288.823 301.235 289.292 300.517 289.292 299.724V193.326" stroke="#CCCCCC"/>
<ellipse rx="1.94192" ry="1.90385" transform="matrix(0 -1 -1 0 231.904 1.94199)" fill="#CCCCCC" fill-opacity="0.3"/>
<path opacity="0.4" d="M320 14.1232L294.528 14.1232C293.735 14.1232 293.017 13.6547 292.698 12.9289L288.414 3.19794C288.095 2.47218 287.377 2.00371 286.584 2.00371L234.154 2.00371" stroke="#CCCCCC"/>
<ellipse rx="1.94192" ry="1.90385" transform="matrix(0 1 1 0 88.0962 802.181)" fill="#CCCCCC" fill-opacity="0.3"/>
<path opacity="0.4" d="M0 790H25.4716C26.2646 790 26.9827 790.468 27.3022 791.194L31.5856 800.925C31.9051 801.651 32.6232 802.119 33.4161 802.119H85.8462" stroke="#CCCCCC"/>
</svg>
