<svg width="14" height="14" viewBox="0 0 14 14" fill="none" xmlns="http://www.w3.org/2000/svg">
<path d="M9.28024 7.07173L14 10.0555V3.96198L9.28024 7.07173Z" fill="#333333"/>
<path d="M0 3.96198V10.0555L4.71975 7.07173L0 3.96198Z" fill="#333333"/>
<path d="M13.125 2.1875H0.874995C0.43837 2.1875 0.0918701 2.513 0.0262451 2.93213L6.99999 7.52675L13.9737 2.93213C13.9081 2.513 13.5616 2.1875 13.125 2.1875Z" fill="#333333"/>
<path d="M8.47874 7.6003L7.24061 8.4158C7.16711 8.46393 7.08399 8.48755 6.99999 8.48755C6.91599 8.48755 6.83286 8.46393 6.75936 8.4158L5.52124 7.59943L0.0279846 11.074C0.0953596 11.4897 0.44011 11.8125 0.874985 11.8125H13.125C13.5599 11.8125 13.9046 11.4897 13.972 11.074L8.47874 7.6003Z" fill="#333333"/>
</svg>
