<svg width="1367" height="742" viewBox="0 0 1367 742" fill="none" xmlns="http://www.w3.org/2000/svg">
<path opacity="0.4" d="M133.562 392.651L133.562 270.879C133.562 270.076 134.042 269.351 134.781 269.038L190.136 245.547C190.875 245.233 191.355 244.508 191.355 243.705L191.355 -2.00024" stroke="#CCCCCC"/>
<circle cx="133.895" cy="397.105" r="3.89543" transform="rotate(-180 133.895 397.105)" fill="#CCCCCC" fill-opacity="0.3"/>
<path opacity="0.4" d="M1249.79 347.349V469.121C1249.79 469.924 1249.31 470.649 1248.57 470.962L1193.22 494.453C1192.48 494.767 1192 495.492 1192 496.295V742" stroke="#CCCCCC"/>
<circle cx="1249.46" cy="342.895" r="3.89543" fill="#CCCCCC" fill-opacity="0.3"/>
<path opacity="0.4" d="M465.16 676.637H321.395C320.592 676.637 319.867 676.157 319.554 675.418L291.681 609.738C291.368 608.999 290.643 608.519 289.84 608.519H6.29425e-05" stroke="#CCCCCC"/>
<circle cx="470.409" cy="676.244" r="4.59139" transform="rotate(90 470.409 676.244)" fill="#CCCCCC" fill-opacity="0.3"/>
<path opacity="0.4" d="M833.017 61.1274L1008.88 61.1274C1009.69 61.1274 1010.41 61.6073 1010.72 62.3461L1044.99 143.098C1045.31 143.837 1046.03 144.316 1046.83 144.316L1401.09 144.316" stroke="#CCCCCC"/>
<circle cx="826.607" cy="61.6071" r="5.60723" transform="rotate(-90 826.607 61.6071)" fill="#CCCCCC" fill-opacity="0.3"/>
</svg>
