<svg width="12" height="10" viewBox="0 0 12 10" fill="none" xmlns="http://www.w3.org/2000/svg">
<path d="M5.99989 3.36365C5.09715 3.36365 4.36353 4.09727 4.36353 5.00001C4.36353 5.90274 5.09715 6.63637 5.99989 6.63637C6.90262 6.63637 7.63625 5.90274 7.63625 5.00001C7.63625 4.09727 6.9026 3.36365 5.99989 3.36365Z" fill="#333333"/>
<path d="M6.00001 0.909058C3.27273 0.909058 0.943646 2.60541 0 4.99997C0.943646 7.39451 3.27273 9.09088 6.00001 9.09088C8.73001 9.09088 11.0564 7.39451 12 4.99997C11.0564 2.60541 8.73001 0.909058 6.00001 0.909058ZM6.00001 7.72723C4.49456 7.72723 3.27273 6.5054 3.27273 4.99994C3.27273 3.49449 4.49456 2.27269 6.00001 2.27269C7.50547 2.27269 8.7273 3.49451 8.7273 4.99997C8.7273 6.50543 7.50547 7.72723 6.00001 7.72723Z" fill="#333333"/>
</svg>
