<svg width="707" height="382" viewBox="0 0 707 382" fill="none" xmlns="http://www.w3.org/2000/svg">
<path d="M712 27.5V274.5V382H-0.000366211L712 27.5Z" fill="url(#paint0_linear)" fill-opacity="0.2"/>
<path d="M633.463 63.5674L656.026 119.189L664.07 116.442C667.895 115.167 670.152 111.145 669.171 107.123L660.931 72.6905C660.146 69.5514 657.595 67.197 654.456 66.7065L633.463 63.5674Z" fill="#959FFA"/>
<path d="M640.983 66.798L657.825 118.574L664.07 116.442C664.275 116.374 664.475 116.298 664.671 116.214C666.53 113.242 667.573 110.959 667.8 109.362C668.385 105.26 660.887 75.6851 659.459 72.6905C658.537 70.7565 652.728 68.8527 642.033 66.9792L640.983 66.798Z" fill="black" fill-opacity="0.28827"/>
<path d="M622.476 69.0608L615.707 100.55L628.264 110.654C628.754 114.48 628.754 117.717 628.264 120.366C627.479 124.29 638.172 161.665 641.311 164.804C644.45 167.943 650.336 166.766 652.592 164.804C654.064 163.529 660.244 159.115 671.329 151.757C671.329 153.131 671.133 154.014 670.74 154.21C670.152 154.602 667.994 155.779 667.994 156.76C667.994 157.643 669.367 159.409 671.329 159.409C673.291 159.409 679.863 158.134 680.943 155.387C681.531 153.817 681.825 144.4 681.335 142.34C680.943 140.182 679.177 138.514 677.705 138.907C677.313 139.005 675.645 139.593 672.8 140.574C672.408 140.77 671.133 139.986 670.74 140.182C668.19 141.163 661.912 143.91 652.004 148.618L654.162 125.467L661.323 120.366C659.459 116.05 658.086 110.851 657.105 104.768C656.124 98.6864 656.124 88.5823 657.105 74.4562C654.162 71.3171 642.771 68.0707 637.093 68.0799C631.415 68.089 630.315 68.0707 622.476 69.0608Z" fill="#733DFF"/>
<path d="M653.224 135.518L632.577 140.294C633.755 144.478 635.05 148.766 636.297 152.571C639.525 151.281 642.126 150.035 644.103 148.83L644.445 148.618C646.412 147.378 649.126 145.292 652.587 142.36L653.224 135.518Z" fill="black" fill-opacity="0.28827"/>
<path d="M620.355 78.9314L615.707 100.55L628.264 110.654C628.662 113.761 628.737 116.48 628.489 118.81C633.461 119.189 637.257 118.493 639.876 116.721L640.134 116.54C642.938 114.506 649.512 114.489 659.857 116.491C658.714 113.039 657.808 109.131 657.105 104.768C656.4 100.398 656.201 93.9504 656.51 85.426L651.432 82.8734C649.257 85.6884 647.256 86.6267 645.431 85.6884L644.58 85.2421C641.552 83.633 636.196 80.6286 634.896 80.6286L634.722 80.625C633.593 80.5836 630.492 80.1796 625.419 79.4131L620.355 78.9314Z" fill="black" fill-opacity="0.28827"/>
<path d="M635.523 103.788C635.131 101.727 634.444 100.256 633.463 99.3731C632.09 97.9998 618.945 97.8036 618.356 96.5283C617.767 95.253 620.809 85.149 621.79 83.187C622.476 81.9117 622.77 77.203 622.77 69.0609C621.888 68.7666 620.71 69.159 619.337 70.2381C617.179 71.9057 604.524 98.7846 604.034 101.433C603.543 103.984 604.524 105.946 607.565 108.202C610.606 110.458 626.204 112.911 627.97 113.303C629.147 113.597 630.03 113.499 630.716 112.911C630.03 112.322 629.539 111.832 629.343 111.439C629.049 110.949 627.087 110.458 627.087 109.281C627.087 108.202 627.97 105.357 629.637 104.474C630.815 104.18 632.678 103.886 635.523 103.788Z" fill="#380085"/>
<path d="M612.046 83.581C611.322 82.8065 611.745 80.303 612.99 77.9895C614.236 75.6759 615.832 74.4283 616.556 75.2028C617.279 75.9774 616.856 78.4808 615.611 80.7944C614.365 83.108 612.769 84.3556 612.046 83.581Z" fill="#959FFA"/>
<path d="M611.267 83.2722C610.544 82.4976 610.967 79.9942 612.212 77.6806C613.458 75.367 615.054 74.1194 615.777 74.894C616.501 75.6685 616.078 78.172 614.832 80.4855C613.587 82.7991 611.991 84.0467 611.267 83.2722Z" fill="#F8FCFF"/>
<path d="M635.523 104.585C635.523 104.585 640.983 105.381 640.983 107.152C640.983 108.924 639.125 109.362 639.125 109.362L635.523 104.585Z" fill="#5C66C0"/>
<path d="M630.815 113.009C633.789 116.093 641.115 112.322 640.232 109.281C639.643 107.319 638.074 105.455 635.523 103.886C635.523 103.788 635.523 103.788 635.523 103.689C632.678 103.689 630.52 103.997 629.539 104.585C627.773 105.468 626.903 108.283 626.903 109.362C626.903 110.441 629.009 111.094 629.303 111.683C629.401 112.075 630.161 112.332 630.815 113.009Z" fill="#959FFA"/>
<path d="M638.27 158.428C639.447 161.763 640.526 164.118 641.213 164.804C644.352 167.944 650.238 166.766 652.494 164.804C652.887 164.412 653.671 163.823 654.848 163.039C655.633 160.096 656.026 157.153 656.32 155.289C656.712 152.836 656.81 149.894 656.516 146.46C655.143 147.147 653.573 147.833 652.004 148.618L652.396 144.4C649.551 149.109 647.393 152.346 646.02 154.014C644.744 155.485 641.703 157.153 638.27 158.428Z" fill="#959FFA"/>
<path d="M671.133 151.757C671.133 153.131 670.937 153.915 670.544 154.21C669.956 154.602 667.797 155.779 667.797 156.76C667.797 157.643 669.171 159.409 671.133 159.409C673.095 159.409 679.667 158.134 680.746 155.387C681.335 153.817 681.629 144.4 681.139 142.34C680.746 140.182 678.981 138.514 677.509 138.906C677.117 139.005 675.449 139.593 672.604 140.574C672.506 140.574 672.408 140.574 672.212 140.574C672.604 141.948 672.702 143.419 672.506 145.087C672.31 147.049 671.819 149.305 671.133 151.757Z" fill="#959FFA"/>
<path d="M677.509 138.906L677.377 138.943C677.242 138.984 677.047 139.047 676.792 139.132C677.848 139.508 678.618 140.185 679.1 141.162C680.071 143.13 679.182 153.46 678.518 154.93C677.854 156.399 673.617 158.217 671.584 158.217C670.401 158.217 669.14 157.755 667.801 156.833L667.797 156.76C667.797 157.643 669.171 159.409 671.133 159.409L671.443 159.4C673.708 159.284 679.719 158.003 680.746 155.387C681.335 153.817 681.629 144.4 681.139 142.34C680.746 140.182 678.981 138.514 677.509 138.906Z" fill="#733DFF"/>
<path d="M645.627 87.8957L644.646 96.1359C644.646 96.8226 644.058 97.4112 643.371 97.4112C643.273 97.4112 643.175 97.4112 643.077 97.4112L623.261 92.1139C622.672 91.9177 622.28 91.4272 622.28 90.8386L623.261 83.0889C623.261 82.4022 623.85 81.8136 624.536 81.8136C624.634 81.8136 624.732 81.8136 624.831 81.8136L644.646 86.6204C645.137 86.8166 645.627 87.3071 645.627 87.8957Z" fill="#F8FCFF"/>
<path d="M635.523 81.7034C634.562 81.9086 634.083 84.6209 634.086 89.8404L644.058 92.5063H644.352C644.996 92.5063 645.553 91.9889 645.621 91.3585L645.627 91.231L645.626 87.806L642.152 86.1815C641.018 85.6595 640.091 85.6054 639.852 85.2247L639.52 84.6989C638.675 83.3855 637.195 81.3468 635.523 81.7034Z" fill="#D5D9FF"/>
<path d="M657.007 74.5056C654.75 75.2904 650.826 81.1269 650.826 83.3832C650.826 84.9527 651.513 88.4843 652.788 94.0758C646.51 89.269 642.979 86.9147 642.194 86.9147C640.919 86.9147 640.919 87.3071 640.428 87.209C639.938 87.209 639.643 87.0128 639.545 86.6204C639.251 85.9337 639.447 84.7565 638.859 84.168C637.583 82.8927 635.719 80.1459 634.052 80.1459C632.286 80.1459 625.91 78.7726 625.517 79.5574C625.125 80.3421 625.811 80.6364 626.204 80.8326C626.596 81.0288 631.207 82.5003 631.403 83.187C631.697 83.8737 630.618 89.0728 631.403 90.0538C632.188 91.0348 633.757 93.4873 634.64 93.4873C635.229 93.4873 636.112 93.0949 636.897 93.0949C637.289 93.0949 637.779 93.0949 637.878 93.4873C638.172 94.3701 637.878 95.4492 638.172 95.9397C638.466 96.5283 652.887 110.164 657.007 111.733C661.127 113.303 665.149 109.281 666.032 107.123C666.915 105.063 665.051 95.9397 663.383 90.0538C661.813 84.4622 659.165 73.7208 657.007 74.5056Z" fill="#380085"/>
<path d="M640.134 87.209C639.84 87.1109 639.643 87.0128 639.545 86.7185C639.251 86.0318 639.447 84.7566 638.859 84.168C637.583 82.8927 635.754 80.1245 634.086 80.1245C632.32 80.1245 625.944 78.7511 625.552 79.5359C625.159 80.3207 625.812 80.7346 626.204 80.9308C626.596 81.127 631.207 83.5794 631.403 84.2661C631.697 84.9528 630.618 89.171 631.403 90.152C632.188 91.1329 633.757 93.5854 634.64 93.5854C635.229 93.5854 636.112 93.193 636.897 93.193C637.191 93.193 637.583 93.193 637.779 93.3892C638.27 92.5063 638.76 91.6234 639.251 90.7405C639.741 89.8577 640.036 88.5824 640.134 87.209Z" fill="#959FFA"/>
<path fill-rule="evenodd" clip-rule="evenodd" d="M635.561 103.724C633.72 103.234 631.957 103.142 630.173 103.441C628.389 103.741 626.863 104.741 625.595 106.443L612.21 103.187C612.261 102.208 612.493 101.532 613.107 101.073C613.926 100.429 618.638 96.7463 621.283 96.8849C623.928 97.0235 633.606 97.9237 634.735 98.867C635.385 99.5886 635.695 101.177 635.561 103.724Z" fill="#BAC8FF"/>
<path d="M627.682 100.364C626.172 101.07 625.058 101.7 624.347 102.154C623.532 102.7 622.64 102.85 621.666 102.701L613.112 100.975C612.596 101.44 612.261 102.208 612.21 103.188L625.595 106.443C626.863 104.741 628.384 103.839 630.173 103.441C631.957 103.142 633.72 103.234 635.561 103.724C635.69 101.275 635.483 99.5938 634.735 98.867C632.178 98.9294 629.796 99.394 627.682 100.364Z" fill="#5C66C0"/>
<path d="M619.828 97.7054L598.736 90.8386C598.442 90.7405 598.148 90.4462 598.148 90.1519L594.028 59.3491C593.93 58.8587 594.322 58.4663 594.813 58.3682C594.911 58.3682 595.009 58.3682 595.107 58.3682L616.198 63.8616C616.59 63.9597 616.786 64.254 616.885 64.6464L621.005 96.8225C621.103 97.313 620.71 97.7054 620.22 97.8035C620.122 97.8035 620.024 97.8035 619.828 97.7054Z" fill="#FF623F" fill-opacity="0.3"/>
<path d="M619.982 97.23L620.018 97.2415L620.051 97.2582C620.119 97.2921 620.15 97.2993 620.159 97.3009C620.161 97.3015 620.164 97.302 620.168 97.3024C620.296 97.268 620.395 97.203 620.453 97.1348C620.512 97.0667 620.53 96.9991 620.514 96.9206L620.511 96.9034L620.509 96.886L616.393 64.741C616.319 64.4676 616.217 64.3817 616.077 64.3467L616.077 64.3467L616.072 64.3455L595.043 58.8682H595.042H595.042H595.041H595.041H595.04H595.04H595.039H595.038H595.038H595.037H595.037H595.036H595.036H595.035H595.034H595.034H595.033H595.033H595.032H595.032H595.031H595.03H595.03H595.029H595.029H595.028H595.028H595.027H595.026H595.026H595.025H595.025H595.024H595.024H595.023H595.022H595.022H595.021H595.021H595.02H595.019H595.019H595.018H595.018H595.017H595.017H595.016H595.015H595.015H595.014H595.014H595.013H595.013H595.012H595.011H595.011H595.01H595.01H595.009H595.009H595.008H595.007H595.007H595.006H595.006H595.005H595.005H595.004H595.003H595.003H595.002H595.002H595.001H595.001H595H594.999H594.999H594.998H594.998H594.997H594.996H594.996H594.995H594.995H594.994H594.994H594.993H594.992H594.992H594.991H594.991H594.99H594.99H594.989H594.988H594.988H594.987H594.987H594.986H594.986H594.985H594.984H594.984H594.983H594.983H594.982H594.982H594.981H594.98H594.98H594.979H594.979H594.978H594.978H594.977H594.976H594.976H594.975H594.975H594.974H594.974H594.973H594.972H594.972H594.971H594.971H594.97H594.969H594.969H594.968H594.968H594.967H594.967H594.966H594.965H594.965H594.964H594.964H594.963H594.963H594.962H594.961H594.961H594.96H594.96H594.959H594.959H594.958H594.957H594.957H594.956H594.956H594.955H594.955H594.954H594.953H594.953H594.952H594.952H594.951H594.951H594.95H594.949H594.949H594.948H594.948H594.947H594.946H594.946H594.945H594.945H594.944H594.944H594.943H594.942H594.942H594.941H594.941H594.94H594.94H594.939H594.938H594.938H594.937H594.937H594.936H594.936H594.935H594.934H594.934H594.933H594.933H594.932H594.932H594.931H594.93H594.93H594.929H594.929H594.928H594.928H594.927H594.926H594.926H594.925H594.925H594.924H594.924H594.923H594.922H594.922H594.921H594.921H594.92H594.919H594.919H594.918H594.918H594.917H594.917H594.916H594.915H594.915H594.914H594.914H594.913H594.913H594.912H594.911H594.911H594.91H594.91H594.909H594.909H594.908H594.907H594.907H594.906H594.906H594.905H594.905H594.904H594.903H594.903H594.902H594.902H594.901H594.901H594.9H594.899H594.899H594.898H594.898H594.897H594.896H594.896H594.895H594.895H594.894H594.894H594.893H594.892H594.892H594.891H594.891H594.89H594.89H594.889H594.888H594.888H594.887H594.887H594.886H594.886H594.885H594.884H594.884H594.883H594.883H594.882H594.882H594.881H594.88H594.88H594.879H594.879H594.878H594.878H594.877H594.876H594.876H594.875H594.875H594.874H594.873H594.873H594.872H594.872H594.871H594.871H594.87H594.869H594.869H594.869C594.739 58.9023 594.638 58.9679 594.579 59.0369C594.521 59.105 594.502 59.1726 594.518 59.2511L594.521 59.2669L594.523 59.2829L598.643 90.0856L598.648 90.1186L598.648 90.1475C598.648 90.1474 598.654 90.1795 598.703 90.2343C598.759 90.2964 598.834 90.3436 598.893 90.3638C598.894 90.3639 598.894 90.3641 598.895 90.3642L619.982 97.23Z" stroke="#FF623F" stroke-opacity="0.5"/>
<path d="M641.213 71.317L634.738 78.5763C634.542 78.7725 634.248 78.9687 633.954 78.8706L628.853 78.1839C628.362 78.0858 628.068 77.6934 628.068 77.2029C628.068 77.1048 628.166 77.0067 628.166 76.9086L629.637 72.4942C629.834 72.1999 630.128 72.0037 630.52 72.1018L640.624 69.8456C641.115 69.9437 641.409 70.3361 641.409 70.8266C641.409 71.1209 641.311 71.219 641.213 71.317Z" fill="#380085"/>
<path fill-rule="evenodd" clip-rule="evenodd" d="M640.886 70.656L634.738 77.5954C634.542 77.7916 634.248 77.9878 633.954 77.8897L628.853 77.203C628.362 77.1049 628.068 76.7125 628.068 76.222C628.068 76.1239 628.166 76.0259 628.166 75.9278L629.637 71.5133C629.834 71.2191 630.128 71.0229 630.52 71.121L638.664 68.9663C639.154 69.0644 641.017 69.7476 641.017 70.2381C641.017 70.5324 640.984 70.5579 640.886 70.656Z" fill="#BAC8FF"/>
<path d="M632.875 73.0829C630.814 72.6905 629.838 72.1638 629.74 71.2809L629.539 67.6876C628.558 67.8837 627.773 67.7857 627.283 67.2952C626.596 66.6085 625.419 64.4503 625.419 58.9568C625.419 53.4634 627.381 48.2642 628.264 47.2832C629.147 46.3022 631.795 42.4764 636.897 43.5555C641.9 44.7327 645.039 48.7547 644.254 54.3462C643.469 59.9378 640.428 62.9789 640.428 65.6275C640.428 67.3933 640.591 68.8824 640.983 70.1576C637.55 72.512 634.935 73.4753 632.875 73.0829Z" fill="#FFA877"/>
<path d="M634.248 66.775C632.993 67.2793 631.582 67.5766 630.014 67.6667L629.539 67.6875L629.622 69.6428C630.226 69.604 630.972 69.4269 631.858 69.1115C633.214 68.6296 634.01 67.8507 634.248 66.775Z" fill="black" fill-opacity="0.28827"/>
<path d="M631.159 49.8301C631.771 50.4414 634.485 54.2748 634.896 60.7626C635.191 65.3981 636.766 68.5542 637.583 68.9628C639.153 69.7475 641.9 68.6685 644.352 67.0008C646.804 65.3331 647.72 65.0389 647.72 63.5674C647.72 62.0959 647.001 50.7166 645.039 47.5774C643.175 44.4383 640.65 42.6725 636.236 42.6725C633.979 41.9859 631.894 42.0839 630.52 42.6725C629.147 43.2611 627.185 45.4193 625.811 47.9698C624.831 49.6375 623.184 56.7881 622.595 65.1264L626.219 65.4576C625.211 60.414 625.615 57.6815 625.91 56.9948C626.069 56.7287 626.537 54.8396 627.582 53.4804C628.464 52.3346 630.531 50.2339 631.159 49.8301Z" fill="#0D134E"/>
<path d="M629.245 127.723C619.926 135.081 615.021 139.103 614.628 139.691C613.942 140.574 613.157 147.833 614.628 151.561C616.1 155.289 617.571 182.658 616.787 183.639C616.002 184.62 604.328 194.92 603.543 196.49C602.759 198.06 607.369 199.825 611.489 198.746C615.609 197.667 624.732 192.468 625.517 190.31C626.302 188.152 626.008 184.718 625.517 183.639C625.027 182.56 625.027 176.674 625.517 174.81C626.008 173.045 629.245 168.336 629.245 161.175C629.245 156.368 628.754 152.738 627.872 150.286C638.172 147.343 645.235 144.694 649.159 142.34C653.083 139.986 657.105 135.767 661.323 129.783L659.459 123.603H638.172L629.245 127.723Z" fill="#733DFF"/>
<path d="M616.404 54.4443C616.404 65.0037 624.964 73.5639 635.523 73.5639C646.083 73.5639 654.643 65.0037 654.643 54.4443C654.643 43.8848 646.083 35.3247 635.523 35.3247C624.964 35.3247 616.404 43.8848 616.404 54.4443Z" fill="#9286FF" fill-opacity="0.193018" stroke="#ECEAFE"/>
<path opacity="0.504464" fill-rule="evenodd" clip-rule="evenodd" d="M647.271 52.047C646.812 50.2071 647.293 48.5031 648.344 48.241C649.396 47.9788 650.62 49.2579 651.078 51.0978C651.537 52.9377 651.057 54.6417 650.005 54.9038C648.954 55.166 647.73 53.8869 647.271 52.047Z" fill="white"/>
<path d="M662.402 123.701C662.402 125.663 662.01 127.723 661.323 129.784C656.81 127.233 652.102 125.958 647.393 125.958C642.586 125.958 636.602 126.546 629.245 127.625L629.049 126.742C635.327 121.739 641.017 118.993 646.02 118.306C651.023 117.619 655.731 117.325 660.146 117.325C661.617 119.679 662.402 121.739 662.402 123.701Z" fill="#959FFA"/>
<path d="M616.983 180.696C616.983 182.364 616.885 183.443 616.787 183.639C616.002 184.62 604.328 194.92 603.543 196.49C602.759 198.06 607.369 199.825 611.489 198.746C615.609 197.667 624.732 192.468 625.517 190.31C626.302 188.152 626.008 184.718 625.517 183.639C625.125 182.854 625.027 179.519 625.223 177.067C623.359 178.734 621.79 179.813 620.416 180.304C619.239 180.696 618.062 180.892 616.983 180.696Z" fill="#959FFA"/>
<path d="M610.42 197.429C608.895 197.691 606.738 197.194 603.948 195.936C603.746 196.172 603.608 196.361 603.543 196.49C602.759 198.059 607.369 199.825 611.489 198.746C615.609 197.667 624.732 192.468 625.517 190.31C625.66 189.918 625.766 189.485 625.843 189.032L624.085 190.125C616.687 194.7 612.132 197.135 610.42 197.429Z" fill="#733DFF"/>
<path d="M618.258 136.454C616.002 138.318 614.825 139.299 614.628 139.593C613.942 140.476 613.157 147.735 614.628 151.463C614.726 151.757 614.825 152.15 615.021 152.738C616.002 153.229 616.983 153.719 617.866 154.112C620.22 155.289 623.948 155.779 629.049 155.681C628.853 153.523 628.46 151.757 627.97 150.286C628.951 149.992 629.932 149.697 630.913 149.403C628.558 145.479 626.302 142.438 624.34 140.182C622.672 138.612 620.71 137.337 618.258 136.454Z" fill="#959FFA"/>
<path d="M652.429 92.08C652.429 92.08 661.698 100.665 660.778 102.625C659.857 104.585 652.788 94.0758 652.788 94.0758L652.429 92.08Z" fill="black" fill-opacity="0.28827"/>
<path d="M567.345 81.0682C574.722 81.0682 580.686 87.0326 580.686 94.488V163.784C580.686 166.374 579.823 168.885 578.175 170.847C575.193 174.536 571.191 176.341 566.246 176.341C561.302 176.341 557.3 174.536 554.318 170.847C552.67 168.885 551.806 166.374 551.806 163.784V94.488C551.806 87.1111 557.771 81.0682 565.148 81.0682H567.345V81.0682Z" fill="#733DFF"/>
<path d="M571.307 81.6653L565.735 84.4533C573.029 89.5122 576.676 94.0039 576.676 97.9283V135.061C576.676 141.732 578.172 153.553 576.168 153.553L575.784 153.559C573.944 153.609 568.463 153.957 559.34 154.602V164.598L580.459 166.062C580.585 165.442 580.659 164.809 580.68 164.169L580.686 163.784V94.4881C580.686 88.4275 576.745 83.3522 571.307 81.6653Z" fill="black" fill-opacity="0.28827"/>
<path fill-rule="evenodd" clip-rule="evenodd" d="M568.522 76.5165C569.229 76.5165 569.856 77.1443 569.856 77.8506V83.7365C569.856 84.4428 569.307 85.0706 568.522 85.0706H564.363C563.657 85.0706 563.029 84.4428 563.029 83.7365V77.8506C563.029 77.1443 563.578 76.5165 564.363 76.5165H568.522Z" fill="#94A5E5"/>
<path fill-rule="evenodd" clip-rule="evenodd" d="M562.95 78.086V77.8506C562.95 77.1443 563.578 76.5165 564.285 76.5165H568.444C569.15 76.5165 569.778 77.1443 569.778 77.8506V78.086C569.072 78.5569 567.816 78.8708 566.403 78.8708C564.991 78.8708 563.735 78.5569 562.95 78.086Z" fill="#BAC8FF"/>
<path d="M570.327 95.6652C571.269 95.6652 572.054 96.4499 572.054 97.3917V125.487C572.054 126.429 571.269 127.213 570.327 127.213C569.386 127.213 568.601 126.429 568.601 125.487V97.3917C568.601 96.3715 569.386 95.6652 570.327 95.6652Z" fill="#293181"/>
<path d="M568.601 100.688H572.054V125.409C572.054 126.35 571.269 127.135 570.327 127.135C569.386 127.135 568.601 126.35 568.601 125.409V100.688Z" fill="#FF623F"/>
<path d="M568.718 78.8709C579.705 82.01 587.063 88.0921 590.594 97.019C591.771 100.158 592.36 103.788 592.458 108.398C592.556 111.734 592.36 114.382 591.968 121.249C591.771 124.879 591.771 130.765 593.341 135.571C596.873 146.656 599.129 150.384 599.521 155.093C600.012 161.665 597.952 166.276 592.752 168.925C589.515 170.494 586.278 170.69 583.041 169.611C580.785 168.827 578.921 167.748 575.978 165.589C573.231 163.529 572.642 163.137 571.563 162.646C571.269 162.45 570.975 162.352 570.68 162.254C567.541 161.273 562.342 162.45 557.045 164.02L555.181 157.938C561.557 156.074 568.032 154.799 572.544 156.27C573.133 156.466 573.721 156.662 574.31 156.957C575.88 157.742 576.468 158.134 579.705 160.488C584.512 164.02 586.768 164.805 589.908 163.235C592.556 161.96 593.537 159.802 593.145 155.583C592.851 151.561 590.692 148.128 587.259 137.533C585.395 131.844 585.395 124.584 585.591 120.857C586.376 108.202 586.376 103.592 584.708 99.3733C581.962 92.4084 576.174 87.6997 567.051 85.051C565.874 83.8739 565.481 82.5005 565.972 81.029C566.364 79.4595 567.345 78.7728 568.718 78.8709Z" fill="#FF623F"/>
<path d="M485.728 40.0239L483.57 36.0019C481.51 32.2741 477.291 30.3122 473.073 31.1951L459.732 34.0399C455.71 34.9228 452.669 38.2581 452.178 42.3782L448.058 78.3801C447.568 82.7945 450.216 87.0128 454.337 88.5823L470.13 94.272L485.728 40.0239Z" fill="#959FFA"/>
<path d="M478.059 66.6978L475.973 31.2776L474.935 31.6571C464.71 35.426 459.01 38.395 457.835 40.5641L457.78 40.6719C456.199 43.9802 453.456 43.6012 452.686 49.641L451.584 59.0922C450.561 68.0543 449.372 79.8953 450.128 83.7493C450.283 84.5404 450.491 85.3588 450.753 86.2047C451.741 87.2335 452.956 88.0566 454.337 88.5824L461.203 91.0565L475.01 77.3031L478.059 66.6978Z" fill="black" fill-opacity="0.28827"/>
<path d="M474.054 34.138C471.798 35.2171 467.089 38.0619 460.026 42.6725C462.969 105.259 464.539 137.533 464.931 139.397C465.422 142.242 458.162 175.988 459.143 178.538C460.124 180.991 461.89 182.854 463.067 183.541C464.244 184.228 461.694 190.212 461.694 191.389C461.694 192.566 460.713 199.335 461.105 201.493C461.498 203.651 461.694 207.183 466.206 207.183C470.719 207.183 471.602 203.847 471.111 200.512C470.621 197.079 470.425 196.98 471.111 195.019C471.798 193.057 471.209 192.664 470.523 189.721C469.738 186.68 470.228 182.854 471.111 182.266C471.994 181.677 475.428 179.323 476.016 177.067C476.605 174.81 482.589 146.754 482.589 142.732C482.589 139.986 483.079 121.384 483.079 121.384C483.079 121.384 486.316 140.967 486.316 142.438C486.316 144.596 486.022 161.273 485.139 163.823C484.354 166.472 484.256 170.102 485.139 170.985C485.728 171.573 486.12 171.966 486.218 172.26C485.434 177.557 485.237 180.598 485.63 181.481C486.218 182.756 490.437 182.756 492.693 185.895C494.949 189.035 497.009 190.506 500.443 190.506C503.876 190.506 507.015 189.917 504.465 186.288C502.012 182.658 495.538 177.263 495.538 175.007V170.2C497.303 168.924 498.186 167.747 498.186 166.668C498.186 165.001 502.208 148.128 502.699 145.087C503.189 142.046 503.287 136.945 502.699 132.628C502.11 128.312 500.148 99.5693 498.775 95.9397C497.402 92.3101 496.617 92.0158 496.617 90.5443C496.617 89.0728 496.519 87.3071 497.009 86.6204C497.5 85.9337 498.284 85.1489 498.481 84.0698C498.677 82.9908 501.129 71.6114 500.344 60.7225C499.56 49.8337 493.968 37.081 491.81 35.8057C490.338 34.9228 488.278 34.4323 485.532 34.2361C480.234 33.0589 476.31 33.0589 474.054 34.138Z" fill="#733DFF"/>
<path d="M499.756 53.6741C499.756 53.6741 486.261 63.7823 481.117 62.7826C475.974 61.7828 470.081 51.6975 470.081 51.6975L460.73 77.6444L465.393 98.294C465.393 98.294 469.172 99.4413 470.081 95.8756C470.99 92.31 467.065 78.2048 470.081 76.0258C473.097 73.8468 475.484 85.3401 479.953 85.3401C484.421 85.3401 498.499 82.7516 498.499 82.7516L501.325 62.7826L499.756 53.6741Z" fill="black" fill-opacity="0.28827"/>
<path d="M485.928 139.753C486.026 141.127 486.238 142.042 486.238 142.336C486.238 143.023 486.042 144.989 486.238 147.834C488.691 148.422 490.829 149.207 495.44 147.834C497.892 147.147 501.718 145.283 503.189 144.4C503.287 141.948 503.582 138.841 503.189 136.291C503.091 135.506 503.091 133.535 502.503 132.04C498.579 133.021 493.968 134.983 492.595 135.768C491.123 136.748 489.95 137.497 485.928 139.753Z" fill="#959FFA"/>
<path d="M463.558 111.243C467.384 111.537 470.979 110.943 473.431 111.826C476.178 112.807 481.028 114.939 483.275 116.246C485.728 114.718 489.263 111.436 492.347 109.345C495.409 107.269 496.631 106.515 500.177 105.08C499.649 100.538 499.265 97.0188 498.775 95.9397C497.99 93.8797 497.487 93.193 497.094 92.4082C493.563 94.7626 490.927 96.9207 489.259 99.177C487.297 101.727 485.532 105.75 483.766 111.243C481.313 106.927 478.371 102.807 475.035 99.177C471.896 95.6454 467.678 93.3892 462.479 92.4082C463.067 99.4712 463.362 105.848 463.558 111.243Z" fill="#959FFA"/>
<path d="M461.694 102.022C461.792 102.12 461.792 102.218 461.89 102.414C462.773 104.67 461.596 104.867 461.203 107.025C460.811 109.281 462.236 118.461 463.707 119.933C463.707 121.907 467.257 123.319 467.846 123.711C468.434 124.103 470.327 124.486 471.504 124.192C472.681 123.898 469.346 112.813 470.228 112.126C471.013 111.439 473.368 114.284 474.447 114.873C475.526 115.363 476.212 113.695 474.937 111.635C473.76 109.575 470.039 103.493 469.254 102.414C468.469 101.335 470.032 95.8322 470.032 94.7531C470.032 94.4588 469.836 93.7816 470.032 93.3892C468.659 93.3892 467.384 93.3892 466.108 93.5854C464.931 93.8796 463.362 101.237 461.694 102.022Z" fill="black" fill-opacity="0.28827"/>
<path d="M486.218 172.064C486.316 172.064 486.316 172.064 486.218 172.064C485.434 177.459 485.237 180.5 485.63 181.383C486.218 182.658 490.437 182.658 492.693 185.797C494.949 188.936 497.009 190.408 500.443 190.408C503.876 190.408 507.015 189.819 504.465 186.19C502.012 182.56 495.538 177.165 495.538 174.908V170.2C493.87 170.788 492.202 171.279 490.633 171.573C489.161 171.867 487.69 172.064 486.218 172.064Z" fill="#959FFA"/>
<path d="M485.63 181.383C486.218 182.658 490.437 182.658 492.693 185.797C494.949 188.936 497.009 190.408 500.443 190.408L500.972 190.403C502.812 190.366 504.483 190.119 505.121 189.267C501.306 189.402 498.732 189.145 497.399 188.496C495.105 187.378 493.234 184.481 491.714 182.952C490.885 182.119 488.806 181.376 485.479 180.724C485.511 181.009 485.561 181.229 485.63 181.383Z" fill="#733DFF"/>
<path d="M461.105 203.455C461.498 205.613 462.871 208.54 466.215 208.54C469.3 208.54 471.494 206.166 471.179 203.024C470.909 205.34 469.561 207.183 466.206 207.183C461.694 207.183 461.498 203.651 461.105 201.493C461.076 201.333 461.055 201.147 461.04 200.94C460.994 201.977 461.001 202.88 461.105 203.455Z" fill="#733DFF"/>
<path d="M463.165 183.639C464.048 184.62 461.694 190.212 461.694 191.389C461.694 192.566 460.713 199.335 461.105 201.493C461.498 203.651 461.694 207.183 466.206 207.183C470.719 207.183 471.602 203.847 471.111 200.512C470.621 197.079 470.425 196.981 471.111 195.019C471.798 193.057 471.209 192.664 470.523 189.721C469.934 187.269 470.13 184.326 470.621 182.953C470.032 183.247 469.051 183.541 467.776 183.835C466.304 184.032 464.735 184.032 463.165 183.639Z" fill="#959FFA"/>
<path d="M464.931 139.593C465.029 140.672 464.441 144.4 463.656 149.011C467.089 150.188 470.13 150.776 472.681 150.776C475.526 150.776 478.469 150.384 481.608 149.697C482.196 146.264 482.589 143.615 482.589 142.634C482.589 142.046 482.589 141.163 482.589 140.084C479.352 139.495 476.409 139.201 473.858 139.201C471.602 139.201 468.659 139.299 464.931 139.593Z" fill="#959FFA"/>
<path d="M490.535 35.3152C493.38 36.0019 496.224 36.6886 497.303 37.2771C498.873 38.16 514.667 59.3492 515.648 63.2731C516.629 67.2951 515.844 71.5133 512.705 73.4753C509.566 75.4372 496.911 81.0288 494.753 80.1459C492.595 79.3611 493.183 78.9687 491.516 79.4592C489.848 79.9497 487.69 82.5003 485.139 83.4812C481.117 85.2808 475.231 77.4973 477.88 75.5353C478.665 74.3581 481.439 73.6714 482.224 73.4753C484.088 72.9848 485.139 73.4753 485.63 73.4753C486.807 73.4753 488.278 72.9848 488.278 72.2981C488.278 71.6114 488.278 70.6304 489.161 70.0418C490.044 69.5513 500.541 62.5864 500.541 62.0959C500.541 61.6054 499.493 54.981 497.335 48.997C494.49 40.8549 492.104 36.1981 490.535 35.3152Z" fill="#380085"/>
<path d="M486.022 73.6125C486.022 73.6125 483.479 72.0973 482.606 72.0973C481.732 72.0973 477.965 72.0152 477.706 72.6521C477.446 73.2891 479.32 75.5999 479.32 75.5999L486.022 73.6125Z" fill="#5C66C0"/>
<path d="M487.922 73.0374L487.777 72.9565C487.245 73.2772 486.378 73.4753 485.63 73.4753C485.163 73.4753 484.186 73.0304 482.484 73.4117L482.224 73.4753C481.439 73.6714 478.665 74.3581 477.88 75.5353C475.266 77.4718 480.966 85.0796 484.982 83.5465L485.139 83.4812C487.69 82.5003 489.848 79.9497 491.516 79.4592L491.851 79.3646C492.053 79.3109 492.213 79.2758 492.348 79.2576L492.238 78.8953C491.904 77.8297 491.531 76.8732 491.116 76.0258C490.591 74.9521 489.526 73.9559 487.922 73.0374L487.777 72.9565L487.922 73.0374Z" fill="#959FFA"/>
<path fill-rule="evenodd" clip-rule="evenodd" d="M486.709 72.7886C488.573 72.3962 490.338 72.3962 492.104 72.7886C493.87 73.181 495.341 74.26 496.519 76.0258L510.056 69.5513C510.056 68.5704 509.86 67.8837 509.271 67.3932C508.832 64.7406 503.974 62.7826 501.325 62.7826C498.677 62.7826 488.965 67.0989 487.788 67.9818C487.101 68.6685 486.709 70.238 486.709 72.7886Z" fill="#BAC8FF"/>
<path d="M498.316 72.0938L509.205 67.2933C509.695 67.7838 510.181 68.2387 510.056 69.5513L496.519 76.0258C495.341 74.26 493.87 73.447 492.104 72.9565C490.338 72.5641 488.573 72.5641 486.709 72.9565C486.709 70.5041 487.034 69.6477 487.819 68.961C494.442 67.841 497.335 72.1919 498.316 72.0938Z" fill="#5C66C0"/>
<path d="M504.764 57.7382L504.747 57.744L504.73 57.7523C504.647 57.7938 504.595 57.8097 504.56 57.8166C504.532 57.8222 504.509 57.8236 504.475 57.8239C504.076 57.7346 503.85 57.4392 503.91 57.1421L503.912 57.1335L503.913 57.1248L508.031 24.9638C508.117 24.629 508.267 24.4409 508.532 24.3747L508.532 24.375L508.545 24.3712L529.6 17.9077H529.6H529.601H529.602H529.602H529.603H529.603H529.604H529.604H529.605H529.606H529.606H529.607H529.607H529.608H529.608H529.609H529.61H529.61H529.611H529.611H529.612H529.612H529.613H529.614H529.614H529.615H529.615H529.616H529.617H529.617H529.618H529.618H529.619H529.619H529.62H529.621H529.621H529.622H529.622H529.623H529.623H529.624H529.625H529.625H529.626H529.626H529.627H529.627H529.628H529.629H529.629H529.63H529.63H529.631H529.631H529.632H529.633H529.633H529.634H529.634H529.635H529.635H529.636H529.637H529.637H529.638H529.638H529.639H529.639H529.64H529.641H529.641H529.642H529.642H529.643H529.644H529.644H529.645H529.645H529.646H529.646H529.647H529.648H529.648H529.649H529.649H529.65H529.65H529.651H529.652H529.652H529.653H529.653H529.654H529.654H529.655H529.656H529.656H529.657H529.657H529.658H529.658H529.659H529.66H529.66H529.661H529.661H529.662H529.662H529.663H529.664H529.664H529.665H529.665H529.666H529.667H529.667H529.668H529.668H529.669H529.669H529.67H529.671H529.671H529.672H529.672H529.673H529.673H529.674H529.675H529.675H529.676H529.676H529.677H529.677H529.678H529.679H529.679H529.68H529.68H529.681H529.681H529.682H529.683H529.683H529.684H529.684H529.685H529.685H529.686H529.687H529.687H529.688H529.688H529.689H529.69H529.69H529.691H529.691H529.692H529.692H529.693H529.694H529.694H529.695H529.695H529.696H529.696H529.697H529.698H529.698H529.699H529.699H529.7H529.7H529.701H529.702H529.702H529.703H529.703H529.704H529.704H529.705H529.706H529.706H529.707H529.707H529.708H529.708H529.709H529.71H529.71H529.711H529.711H529.712H529.712H529.713H529.714H529.714H529.715H529.715H529.716H529.717H529.717H529.718H529.718H529.719H529.719H529.72H529.721H529.721H529.722H529.722H529.723H529.723H529.724H529.725H529.725H529.726H529.726H529.727H529.727H529.728H529.729H529.729H529.73H529.73H529.731H529.731H529.732H529.733H529.733H529.734H529.734H529.735H529.735H529.736H529.737H529.737H529.738H529.738H529.739H529.74H529.74H529.741H529.741H529.742H529.742H529.743H529.744H529.744H529.745H529.745H529.746H529.746H529.747H529.748H529.748H529.749H529.749H529.75H529.75H529.751H529.752H529.752H529.753H529.753H529.754H529.754H529.755H529.756H529.756H529.757H529.757H529.758H529.758H529.759H529.76H529.76H529.761H529.761H529.762H529.763H529.763H529.764H529.764H529.765H529.765H529.766H529.767H529.767H529.768H529.768H529.769H529.769H529.77H529.771H529.771H529.772H529.772H529.773H529.773H529.774H529.775H529.775H529.776H529.776H529.777H529.777H529.778H529.779H529.779H529.78H529.78H529.781H529.781H529.782H529.783H529.783H529.784H529.784H529.785H529.785H529.786H529.787H529.787H529.788H529.788H529.789H529.79H529.79H529.791H529.791H529.792H529.792H529.793H529.794H529.794H529.795H529.795H529.796H529.796H529.797H529.798H529.798H529.799H529.799H529.8H529.8H529.801H529.802H529.802H529.803H529.803H529.804H529.804H529.805H529.806H529.806H529.807H529.807H529.808H529.808H529.809H529.81H529.81H529.811H529.811H529.812H529.813H529.813H529.814H529.814H529.815H529.815H529.816H529.817H529.817H529.818H529.818H529.819H529.819H529.82H529.821H529.821H529.822H529.822H529.823H529.823H529.824H529.825H529.825H529.826H529.826H529.827H529.827H529.828H529.829H529.829H529.83H529.83H529.831C530.23 17.9969 530.456 18.2925 530.396 18.5897L530.395 18.5981L530.394 18.6066L526.274 50.3903L526.271 50.4063V50.4224C526.271 50.4875 526.237 50.5776 526.152 50.6721C526.069 50.7645 525.958 50.8372 525.854 50.8717C525.854 50.8718 525.854 50.8719 525.854 50.8719L504.764 57.7382Z" fill="#FF623F" fill-opacity="0.280021" stroke="#FF623F" stroke-width="0.5"/>
<path d="M456.495 44.5366C457.966 42.8689 460.124 42.3784 461.89 42.3784C463.656 42.3784 471.7 45.4195 470.621 54.9349C469.542 64.5485 466.795 68.8648 466.795 72.7888C466.795 76.7127 467.58 79.1651 468.168 82.1081C468.757 85.051 469.346 94.1741 468.757 95.5475C468.168 96.9208 466.893 98.4904 466.893 99.4714C466.893 100.55 466.501 101.924 467.285 103.003C468.07 104.082 470.817 106.633 472.092 108.791C473.269 110.851 472.681 112.616 471.602 112.028C470.523 111.537 468.168 108.594 467.384 109.281C466.599 109.968 468.855 121.053 467.678 121.347C466.501 121.641 466.108 120.072 465.52 119.68C464.931 119.287 461.105 119.091 459.732 117.718C458.26 116.246 457.966 107.417 458.359 105.161C458.751 102.905 459.928 102.807 459.045 100.55C458.162 98.2942 456.2 98.2942 455.71 96.5284C455.219 94.7627 451.492 79.3613 451.982 75.9279C452.571 72.4945 453.454 62.1942 453.454 60.036C453.356 57.7798 455.023 46.2042 456.495 44.5366Z" fill="#380085"/>
<path d="M458.751 100.06C458.849 100.158 458.849 100.256 458.947 100.452C459.83 102.708 458.653 102.905 458.26 105.063C457.868 107.319 458.162 116.148 459.634 117.619C461.007 119.091 465.295 120.376 465.884 120.768C466.472 121.16 467.384 122.524 468.561 122.23C469.738 121.936 467.384 110.851 468.266 110.164C469.051 109.477 471.406 112.322 472.485 112.911C473.564 113.401 474.25 111.733 472.975 109.673C471.798 107.613 467.929 103.986 467.31 102.92C466.69 101.853 467.015 100.396 467.015 99.3172C467.015 99.0229 467.113 98.6306 467.31 98.2382C465.936 98.2382 464.441 98.294 463.165 98.4902C461.988 98.7845 460.419 99.275 458.751 100.06Z" fill="#959FFA"/>
<path d="M459.511 48.1998C461.777 48.3982 463.401 51.0091 463.136 54.0315C462.872 57.0539 460.82 59.3433 458.553 59.145C456.286 58.9467 454.663 56.3357 454.927 53.3133C455.192 50.2909 457.244 48.0015 459.511 48.1998Z" fill="#959FFA"/>
<path d="M458.259 48.0902C460.526 48.2885 462.149 50.8995 461.885 53.9219C461.62 56.9443 459.568 59.2337 457.302 59.0354C455.035 58.837 453.412 56.2261 453.676 53.2037C453.94 50.1813 455.992 47.8919 458.259 48.0902Z" fill="#F8FCFF"/>
<path d="M496.813 50.7165C496.715 50.226 496.322 49.9317 495.832 50.0298L472.681 53.5613C472.19 53.6594 471.896 54.0518 471.994 54.5423L473.466 65.0388C473.564 65.5292 473.956 65.8235 474.447 65.7254L497.794 61.8996C498.284 61.8015 498.579 61.4091 498.481 60.9186L496.813 50.7165Z" fill="#F8FCFF"/>
<path d="M484.892 33.8994L474.553 33.8401L473.186 34.5509L480.174 43.5557C480.37 43.85 480.665 44.0462 481.057 44.0462L486.415 43.163H486.513C487.003 43.0649 487.297 42.5744 487.101 42.0839L484.892 33.8994Z" fill="#380085"/>
<path fill-rule="evenodd" clip-rule="evenodd" d="M485.237 34.1382H474.152L480.921 42.5746C481.117 42.8689 481.412 43.0651 481.804 43.0651L486.415 42.1822H486.513C487.003 42.0841 487.297 41.5936 487.101 41.1031L485.237 34.1382Z" fill="#BAC8FF"/>
<path d="M481.117 35.3152C478.763 35.3152 476.507 34.9228 474.054 34.138C474.349 30.5084 474.349 27.5655 474.054 25.3092C473.662 21.9739 473.368 9.90784 478.174 8.63257C482.981 7.2592 488.965 9.22115 491.221 13.5375C494.557 19.8157 490.044 32.1761 488.082 32.5684C487.396 32.7646 486.415 32.6665 485.041 32.4703V34.8247C484.747 35.2171 483.472 35.3152 481.117 35.3152Z" fill="#FFA877"/>
<path d="M480.174 31.4614C480.995 32.7142 481.969 33.5072 483.097 33.8402C483.806 34.0496 484.455 34.1445 485.042 34.125L485.041 32.4704L485.256 32.5007L485.237 32.4685C484.346 32.4705 483.569 32.4058 482.908 32.2743C482.248 32.1429 481.336 31.8719 480.174 31.4614Z" fill="black" fill-opacity="0.28827"/>
<path d="M495.636 12.1641C496.322 13.5375 495.734 18.8348 492.497 18.8348C489.161 18.8348 484.649 15.4994 483.177 15.4994C481.804 15.4994 482.098 20.6005 481.117 20.8948C480.136 21.2872 481.51 18.05 479.94 17.4614C478.371 16.8728 477.488 17.7557 477.488 18.2462C477.488 18.7367 477.095 22.072 475.82 22.8568C474.937 23.3473 474.349 23.8378 474.054 24.4263C472.877 23.1511 472.19 21.7777 472.19 20.3062C472.19 18.05 472.19 13.1451 472.975 11.8698C473.564 10.9869 474.643 10.006 476.409 9.02498C477.095 6.67063 478.174 5.59155 479.45 5.59155C481.51 5.59155 484.158 7.35731 485.237 7.35731C486.317 7.35731 490.24 7.16112 491.418 8.2402C492.595 9.41737 491.516 11.2812 492.006 11.5755C492.497 11.8698 494.949 10.7907 495.636 12.1641Z" fill="#380085"/>
<path d="M462.881 19.7177C462.881 30.3313 471.485 38.9353 482.098 38.9353C492.712 38.9353 501.316 30.3313 501.316 19.7177C501.316 9.10404 492.712 0.5 482.098 0.5C471.485 0.5 462.881 9.10404 462.881 19.7177Z" fill="#9286FF" fill-opacity="0.193018" stroke="#ECEAFE"/>
<path opacity="0.504464" fill-rule="evenodd" clip-rule="evenodd" d="M493.744 13.4015C493.003 11.656 493.211 9.89782 494.209 9.47444C495.206 9.05106 496.615 10.1228 497.356 11.8683C498.097 13.6138 497.889 15.372 496.892 15.7954C495.894 16.2188 494.485 15.147 493.744 13.4015Z" fill="white"/>
<path fill-rule="evenodd" clip-rule="evenodd" d="M505.317 190.25L505.121 176.026C505.121 175.339 505.513 174.75 506.102 174.456L524.74 164.941C525.133 164.744 525.525 164.744 525.917 164.744L560.35 172.004L506.102 191.721C505.611 191.525 505.317 190.937 505.317 190.25Z" fill="#BAC8FF"/>
<path d="M505.317 190.25L505.121 176.026C505.121 175.339 505.513 174.75 506.102 174.456L524.74 164.941C525.133 164.744 525.525 164.744 525.917 164.744L560.35 172.004L594.88 202.12C595.273 202.414 595.469 202.904 595.469 203.395V217.227C595.469 217.815 595.175 218.404 594.586 218.698L573.789 230.862C573.201 231.157 572.612 231.157 572.023 230.862L506.102 191.721C505.611 191.525 505.317 190.937 505.317 190.25Z" fill="#959FFA"/>
<path d="M505.317 190.25L505.121 176.026C505.121 175.339 505.513 174.75 506.102 174.456L524.74 164.941C525.133 164.744 525.525 164.744 525.917 164.744L560.35 172.004L506.102 191.721C505.611 191.525 505.317 190.937 505.317 190.25Z" fill="#D0D4FF"/>
<path d="M521.994 176.516C525.244 176.516 527.879 175.74 527.879 173.573C527.879 171.406 525.637 169.709 522.386 169.709C519.135 169.709 516.892 171.445 516.892 173.143C516.892 174.84 518.743 176.516 521.994 176.516Z" fill="#5C66C0"/>
<path d="M522.19 176.908C524.899 176.908 527.095 175.591 527.095 173.966C527.095 172.34 524.899 171.023 522.19 171.023C519.481 171.023 517.253 172.34 517.253 173.966C517.253 175.591 519.481 176.908 522.19 176.908Z" fill="#F8FCFF"/>
<path d="M520.659 172.29L519.974 172.534L523.214 175.405L523.739 174.989L520.659 172.29Z" fill="#A4B6C5"/>
<path d="M572.906 231.157V217.325C572.906 216.246 572.416 215.167 571.533 214.578L536.806 188.092L505.219 175.633C505.219 175.829 505.121 175.928 505.121 176.124L505.317 190.348C505.317 190.937 505.611 191.525 506.2 191.819L572.122 230.96C572.318 231.059 572.612 231.157 572.906 231.157Z" fill="#5C66C0"/>
<path d="M587.188 189.392V175.854C587.188 175.265 586.894 174.677 586.306 174.383L568.803 164.842C568.411 164.646 567.92 164.548 567.528 164.646L535.295 170.459L497.135 202.144C496.742 202.439 496.546 203.027 496.546 203.518L496.742 217.251C496.742 217.84 497.037 218.429 497.625 218.723L518.324 230.691C518.912 230.985 519.501 230.985 520.09 230.691L586.404 190.961C586.894 190.569 587.188 190.078 587.188 189.392Z" fill="#F8FCFF"/>
<path d="M567.797 175.988C571.048 175.988 573.82 174.819 573.82 172.652C573.82 170.485 571.577 168.789 568.326 168.789C565.076 168.789 562.833 170.525 562.833 172.222C562.833 173.919 564.546 175.988 567.797 175.988Z" fill="#5C66C0"/>
<path d="M568.13 175.988C570.839 175.988 573.035 174.67 573.035 173.045C573.035 171.419 570.839 170.102 568.13 170.102C565.421 170.102 563.193 171.419 563.193 173.045C563.193 174.67 565.421 175.988 568.13 175.988Z" fill="#F8FCFF"/>
<path d="M566.364 172.985V173.633L570.42 173.143V172.573L566.364 172.985Z" fill="#A4B6C5"/>
<path d="M535.295 170.459L497.135 202.144C496.742 202.439 496.546 203.027 496.546 203.518L496.742 217.251C496.742 217.84 497.037 218.428 497.625 218.723L518.324 230.691C518.912 230.985 519.501 230.985 520.09 230.691L545.371 197.177L535.295 170.459Z" fill="#D0D4FF"/>
<path d="M517.413 206.006C513.35 206.006 510.056 203.81 510.056 201.101C510.056 198.392 513.35 196.196 517.413 196.196C521.477 196.196 524.771 198.392 524.771 201.101C524.771 203.81 521.477 206.006 517.413 206.006Z" fill="#5C66C0"/>
<path d="M517.413 206.006C513.892 206.006 511.037 204.468 511.037 202.572C511.037 200.676 513.892 199.139 517.413 199.139C520.935 199.139 523.79 200.676 523.79 202.572C523.79 204.468 520.935 206.006 517.413 206.006Z" fill="#F8FCFF"/>
<path d="M520.354 201.101L520.847 201.75L513.216 203.414L512.937 202.719L520.354 201.101Z" fill="#A4B6C5"/>
<path d="M497.135 202.144C496.742 202.537 496.448 203.027 496.448 203.518L496.644 217.153C496.644 217.742 496.939 218.33 497.527 218.625L518.226 230.593C518.52 230.789 518.912 230.887 519.305 230.789V216.467C519.305 215.191 518.618 214.014 517.539 213.426L497.135 202.144Z" fill="#5C66C0"/>
<path d="M586.992 175.167L562.768 182.755L519.893 214.014C519.501 214.308 519.305 214.799 519.305 215.387V230.887C519.501 230.887 519.795 230.789 519.991 230.691L586.306 191.942C586.894 191.648 587.189 191.059 587.189 190.471V175.952C587.189 175.658 587.09 175.364 586.992 175.167Z" fill="#959FFA"/>
<path d="M560.35 172.004L594.88 202.12C595.273 202.414 595.469 202.904 595.469 203.395L572.906 216.486L545.884 215.731L545.371 194.055L560.35 172.004Z" fill="#F8FCFF"/>
<path d="M573.329 205.025C569.266 205.025 565.972 202.829 565.972 200.12C565.972 197.411 569.266 195.215 573.329 195.215C577.392 195.215 580.686 197.411 580.686 200.12C580.686 202.829 577.392 205.025 573.329 205.025Z" fill="#5C66C0"/>
<path d="M573.329 205.025C569.808 205.025 566.953 203.487 566.953 201.591C566.953 199.695 569.808 198.158 573.329 198.158C576.851 198.158 579.705 199.695 579.705 201.591C579.705 203.487 576.851 205.025 573.329 205.025Z" fill="#F8FCFF"/>
<rect width="0.980979" height="4.90489" transform="matrix(-1 0 0 1 573.82 199.139)" fill="#A4B6C5"/>
<path d="M572.906 231.157V217.325C572.906 216.246 572.416 215.167 571.533 214.578L544.979 195.59L545.868 215.763L572.121 230.96C572.318 231.059 572.612 231.157 572.906 231.157Z" fill="#5C66C0"/>
<path d="M522.692 164.659L523.245 181.02C523.323 189.075 533.532 195.59 546.114 195.59C558.744 195.59 568.982 189.025 568.982 180.928C568.982 180.418 568.942 179.914 568.862 179.417L568.521 164.659H522.692Z" fill="#959FFA"/>
<path d="M522.692 164.659L523.245 181.02C523.28 184.632 525.352 187.934 528.761 190.478L528.762 164.658L522.692 164.659Z" fill="#5C66C0"/>
<path d="M545.972 178.832C533.14 178.832 522.692 172.484 522.692 164.608C522.692 156.732 533.14 150.384 545.972 150.384C558.805 150.384 568.798 156.732 568.798 164.608C568.798 172.484 558.805 178.832 545.972 178.832Z" fill="#F8FCFF"/>
<path d="M550.344 157.349L530.705 153.868C525.799 156.472 522.692 160.313 522.692 164.608C522.692 168.276 524.958 171.612 528.675 174.13L550.344 157.349L530.705 153.868L550.344 157.349Z" fill="#D0D4FF"/>
<path d="M545.469 169.906C538.697 169.906 533.207 166.831 533.207 163.039C533.207 159.246 538.697 156.172 545.469 156.172C552.241 156.172 557.731 159.246 557.731 163.039C557.731 166.831 552.241 169.906 545.469 169.906Z" fill="#FF623F" fill-opacity="0.2"/>
<path d="M570.75 135.467C570.75 134.359 570.16 133.334 569.202 132.778L522.538 105.677C521.586 105.124 520.393 105.809 520.39 106.91L520.255 156.13C520.252 157.249 520.851 158.284 521.822 158.839L568.611 185.576C569.564 186.121 570.75 185.432 570.75 184.334V135.467Z" fill="#FF623F" fill-opacity="0.280021" stroke="#FF623F" stroke-width="0.5"/>
<path d="M549.5 128.233C549.5 127.724 549.229 127.253 548.788 126.997L525.456 113.446C525.063 113.218 524.571 113.501 524.569 113.955L524.503 134.138C524.502 134.653 524.777 135.129 525.224 135.384L548.617 148.752C549.011 148.977 549.5 148.693 549.5 148.24V128.233Z" fill="#FF623F" fill-opacity="0.193018" stroke="#F8F8F8" stroke-width="0.5"/>
<path d="M566.5 138.597C566.5 137.518 565.94 136.515 565.02 135.949L556.456 130.676C555.506 130.091 554.281 130.773 554.277 131.889L554.146 169.524C554.142 170.638 554.734 171.669 555.699 172.227L564.354 177.232C565.307 177.783 566.5 177.095 566.5 175.994V138.597Z" fill="#FF623F" fill-opacity="0.193018" stroke="#F8F8F8" stroke-width="0.5"/>
<path d="M546.844 164.562V156.594C546.844 156.145 546.48 155.781 546.031 155.781C545.583 155.781 545.219 156.145 545.219 156.594V164.562C545.219 165.011 545.583 165.375 546.031 165.375C546.48 165.375 546.844 165.011 546.844 164.562Z" fill="#FF623F" fill-opacity="0.280021" stroke="#FF623F" stroke-width="0.5"/>
<path d="M542.594 162.438V158.719C542.594 158.27 542.23 157.906 541.781 157.906C541.333 157.906 540.969 158.27 540.969 158.719V162.438C540.969 162.886 541.333 163.25 541.781 163.25C542.23 163.25 542.594 162.886 542.594 162.438Z" fill="#FF623F" fill-opacity="0.280021" stroke="#FF623F" stroke-width="0.5"/>
<path d="M538.344 160.313V154.469C538.344 154.02 537.98 153.656 537.531 153.656C537.083 153.656 536.719 154.02 536.719 154.469V160.313C536.719 160.761 537.083 161.125 537.531 161.125C537.98 161.125 538.344 160.761 538.344 160.313Z" fill="#FF623F" fill-opacity="0.280021" stroke="#FF623F" stroke-width="0.5"/>
<path d="M525.594 151.813V145.969C525.594 145.52 525.23 145.156 524.781 145.156C524.333 145.156 523.969 145.52 523.969 145.969V151.813C523.969 152.261 524.333 152.625 524.781 152.625C525.23 152.625 525.594 152.261 525.594 151.813Z" fill="#FF623F" fill-opacity="0.280021" stroke="#FF623F" stroke-width="0.5"/>
<path d="M529.844 153.938V150.219C529.844 149.77 529.48 149.406 529.031 149.406C528.583 149.406 528.219 149.77 528.219 150.219V153.938C528.219 154.386 528.583 154.75 529.031 154.75C529.48 154.75 529.844 154.386 529.844 153.938Z" fill="#FF623F" fill-opacity="0.280021" stroke="#FF623F" stroke-width="0.5"/>
<path d="M534.094 157.125V150.219C534.094 149.77 533.73 149.406 533.281 149.406C532.833 149.406 532.469 149.77 532.469 150.219V157.125C532.469 157.574 532.833 157.938 533.281 157.938C533.73 157.938 534.094 157.574 534.094 157.125Z" fill="#FF623F" fill-opacity="0.280021" stroke="#FF623F" stroke-width="0.5"/>
<path d="M404.432 230.428C403.736 230.025 403.307 229.282 403.307 228.478V198.225C403.307 197.429 403.727 196.692 404.412 196.287L411.504 192.084C412.208 191.667 413.084 191.665 413.79 192.078L440.662 207.797C441.353 208.201 441.777 208.941 441.777 209.742V240.074C441.777 240.885 441.341 241.634 440.635 242.034L433.608 246.016C432.913 246.41 432.061 246.406 431.369 246.006L404.432 230.428Z" fill="#F8FCFF" stroke="#E9EBFF" stroke-width="0.6144"/>
<path d="M433.81 212.773L441.706 208.402C441.927 208.764 442.056 209.172 442.08 209.599L442.084 209.742V240.074C442.084 240.947 441.639 241.757 440.91 242.226L440.786 242.301L433.759 246.283C433.396 246.489 432.995 246.599 432.591 246.614L432.489 215.021C432.486 214.087 432.992 213.225 433.81 212.773Z" fill="#5C66C0"/>
<path d="M413.81 191.739L413.945 191.813L440.817 207.532C441.187 207.748 441.489 208.049 441.706 208.402L433.736 212.692C432.958 213.112 432.018 213.099 431.25 212.66L405.206 197.74C405.053 197.652 404.919 197.533 404.814 197.391C404.414 196.851 404.502 196.1 404.999 195.666L405.081 195.6L405.535 195.263L411.348 191.82C412.059 191.399 412.924 191.35 413.671 191.674L413.81 191.739Z" fill="#D0D4FF"/>
<path d="M420.483 194.46C420.078 194.216 419.571 194.215 419.165 194.459L409.909 200.017C409.139 200.48 408.667 201.313 408.667 202.211V205.674L425.797 214.729C426.377 215.035 427.072 215.035 427.652 214.728L427.712 214.696C428.324 214.372 428.706 213.736 428.706 213.043C428.706 212.376 429.062 211.759 429.641 211.424L438.398 206.362C438.577 206.258 438.804 206.292 438.946 206.443L438.393 205.556C438.179 205.213 437.886 204.925 437.54 204.717L420.483 194.46Z" fill="#380085"/>
<path d="M419.194 193.793C418.793 193.565 418.299 193.57 417.903 193.808L408.629 199.377C407.859 199.84 407.387 200.673 407.387 201.572V204.283C407.387 204.746 407.638 205.174 408.043 205.4L425.522 215.163C426.375 215.639 427.426 215.023 427.426 214.045V212.8C427.426 211.887 427.913 211.043 428.704 210.585L436.792 205.901C437.202 205.664 437.71 205.672 438.111 205.923L438.946 206.443L438.854 205.987C438.709 205.259 438.255 204.631 437.61 204.264L419.194 193.793Z" fill="#959FFA"/>
<path d="M419.141 196.949L419.208 196.986C419.208 196.986 432.426 204.387 432.636 204.794C432.795 205.103 430.303 206.619 429.101 207.327C428.711 207.556 428.231 207.555 427.839 207.331L414.842 199.93C414.765 199.886 414.698 199.827 414.646 199.757C414.446 199.488 414.49 199.116 414.738 198.9L414.779 198.867L415.006 198.7L417.91 196.99C418.266 196.78 418.698 196.756 419.071 196.917L419.141 196.949Z" fill="#380085"/>
<path d="M407.5 211.302L426.428 221.792C426.969 222.091 427.651 221.896 427.95 221.355C428.25 220.814 428.055 220.132 427.514 219.832L408.586 209.343C408.045 209.043 407.363 209.238 407.063 209.779C406.764 210.32 406.959 211.002 407.5 211.302Z" fill="#FF623F"/>
<path d="M417.4 198.967V192.196C417.4 191.215 418.458 190.599 419.311 191.082L427.973 195.989C428.776 196.443 429.272 197.294 429.272 198.216V205.418" stroke="#733DFF" stroke-width="2.88" stroke-linecap="round"/>
<path d="M407.844 201.191L426.89 212.05C427.12 212.182 427.413 212.102 427.545 211.872C427.677 211.642 427.597 211.349 427.367 211.217L408.321 200.358C408.092 200.226 407.798 200.306 407.666 200.536C407.534 200.766 407.614 201.059 407.844 201.191Z" fill="#D0D4FF"/>
<defs>
<linearGradient id="paint0_linear" x1="1471.24" y1="116.833" x2="1397.9" y2="586.498" gradientUnits="userSpaceOnUse">
<stop stop-color="#A8A8A8"/>
<stop offset="1" stop-color="#F6F6F6"/>
</linearGradient>
</defs>
</svg>
