<svg width="707" height="411" viewBox="0 0 707 411" fill="none" xmlns="http://www.w3.org/2000/svg">
<path d="M822 0L972 255.414V411H-6.10352e-05L822 0Z" fill="url(#paint0_linear)" fill-opacity="0.2"/>
<path d="M633.463 92.5674L656.026 148.189L664.07 145.442C667.895 144.167 670.152 140.145 669.171 136.123L660.931 101.69C660.146 98.5514 657.595 96.197 654.456 95.7065L633.463 92.5674Z" fill="#959FFA"/>
<path d="M640.983 95.798L657.825 147.574L664.07 145.442C664.275 145.374 664.475 145.298 664.671 145.214C666.53 142.242 667.573 139.959 667.8 138.362C668.385 134.26 660.887 104.685 659.459 101.691C658.537 99.7565 652.728 97.8527 642.033 95.9792L640.983 95.798Z" fill="black" fill-opacity="0.28827"/>
<path d="M622.476 98.0608L615.707 129.55L628.264 139.654C628.754 143.48 628.754 146.717 628.264 149.366C627.479 153.29 638.172 190.665 641.311 193.804C644.45 196.943 650.336 195.766 652.592 193.804C654.064 192.529 660.244 188.115 671.329 180.757C671.329 182.131 671.133 183.014 670.74 183.21C670.152 183.602 667.994 184.779 667.994 185.76C667.994 186.643 669.367 188.409 671.329 188.409C673.291 188.409 679.863 187.134 680.943 184.387C681.531 182.817 681.825 173.4 681.335 171.34C680.943 169.182 679.177 167.514 677.705 167.907C677.313 168.005 675.645 168.593 672.8 169.574C672.408 169.77 671.133 168.986 670.74 169.182C668.19 170.163 661.912 172.91 652.004 177.618L654.162 154.467L661.323 149.366C659.459 145.05 658.086 139.851 657.105 133.768C656.124 127.686 656.124 117.582 657.105 103.456C654.162 100.317 642.771 97.0707 637.093 97.0799C631.415 97.089 630.315 97.0707 622.476 98.0608Z" fill="#733DFF"/>
<path d="M653.224 164.518L632.577 169.294C633.755 173.478 635.05 177.766 636.297 181.571C639.525 180.281 642.126 179.035 644.103 177.83L644.445 177.618C646.412 176.378 649.126 174.292 652.587 171.36L653.224 164.518Z" fill="black" fill-opacity="0.28827"/>
<path d="M620.355 107.931L615.707 129.55L628.264 139.654C628.662 142.761 628.737 145.48 628.489 147.81C633.461 148.189 637.257 147.493 639.876 145.721L640.134 145.54C642.938 143.506 649.512 143.489 659.857 145.491C658.714 142.039 657.808 138.131 657.105 133.768C656.4 129.398 656.201 122.95 656.51 114.426L651.432 111.873C649.257 114.688 647.256 115.627 645.431 114.688L644.58 114.242C641.552 112.633 636.196 109.629 634.896 109.629L634.722 109.625C633.593 109.584 630.492 109.18 625.419 108.413L620.355 107.931Z" fill="black" fill-opacity="0.28827"/>
<path d="M635.523 132.788C635.131 130.727 634.444 129.256 633.463 128.373C632.09 127 618.945 126.804 618.356 125.528C617.767 124.253 620.809 114.149 621.79 112.187C622.476 110.912 622.77 106.203 622.77 98.0609C621.888 97.7666 620.71 98.159 619.337 99.2381C617.179 100.906 604.524 127.785 604.034 130.433C603.543 132.984 604.524 134.946 607.565 137.202C610.606 139.458 626.204 141.911 627.97 142.303C629.147 142.597 630.03 142.499 630.716 141.911C630.03 141.322 629.539 140.832 629.343 140.439C629.049 139.949 627.087 139.458 627.087 138.281C627.087 137.202 627.97 134.357 629.637 133.474C630.815 133.18 632.678 132.886 635.523 132.788Z" fill="#380085"/>
<path d="M612.046 112.581C611.322 111.806 611.745 109.303 612.99 106.989C614.236 104.676 615.832 103.428 616.556 104.203C617.279 104.977 616.856 107.481 615.611 109.794C614.365 112.108 612.769 113.356 612.046 112.581Z" fill="#959FFA"/>
<path d="M611.267 112.272C610.544 111.498 610.967 108.994 612.212 106.681C613.458 104.367 615.054 103.119 615.777 103.894C616.501 104.669 616.078 107.172 614.832 109.486C613.587 111.799 611.991 113.047 611.267 112.272Z" fill="#F8FCFF"/>
<path d="M635.523 133.585C635.523 133.585 640.983 134.381 640.983 136.152C640.983 137.924 639.125 138.362 639.125 138.362L635.523 133.585Z" fill="#5C66C0"/>
<path d="M630.815 142.009C633.789 145.093 641.115 141.322 640.232 138.281C639.643 136.319 638.074 134.455 635.523 132.886C635.523 132.788 635.523 132.788 635.523 132.689C632.678 132.689 630.52 132.997 629.539 133.585C627.773 134.468 626.903 137.283 626.903 138.362C626.903 139.441 629.009 140.094 629.303 140.683C629.401 141.075 630.161 141.332 630.815 142.009Z" fill="#959FFA"/>
<path d="M638.27 187.428C639.447 190.763 640.526 193.118 641.213 193.804C644.352 196.944 650.238 195.766 652.494 193.804C652.887 193.412 653.671 192.823 654.848 192.039C655.633 189.096 656.026 186.153 656.32 184.289C656.712 181.836 656.81 178.894 656.516 175.46C655.143 176.147 653.573 176.833 652.004 177.618L652.396 173.4C649.551 178.109 647.393 181.346 646.02 183.014C644.744 184.485 641.703 186.153 638.27 187.428Z" fill="#959FFA"/>
<path d="M671.133 180.757C671.133 182.131 670.937 182.915 670.544 183.21C669.956 183.602 667.797 184.779 667.797 185.76C667.797 186.643 669.171 188.409 671.133 188.409C673.095 188.409 679.667 187.134 680.746 184.387C681.335 182.817 681.629 173.4 681.139 171.34C680.746 169.182 678.981 167.514 677.509 167.906C677.117 168.005 675.449 168.593 672.604 169.574C672.506 169.574 672.408 169.574 672.212 169.574C672.604 170.948 672.702 172.419 672.506 174.087C672.31 176.049 671.819 178.305 671.133 180.757Z" fill="#959FFA"/>
<path d="M677.509 167.906L677.377 167.943C677.242 167.984 677.047 168.047 676.792 168.132C677.848 168.508 678.618 169.185 679.1 170.162C680.071 172.13 679.182 182.46 678.518 183.93C677.854 185.399 673.617 187.217 671.584 187.217C670.401 187.217 669.14 186.755 667.801 185.833L667.797 185.76C667.797 186.643 669.171 188.409 671.133 188.409L671.443 188.4C673.708 188.284 679.719 187.003 680.746 184.387C681.335 182.817 681.629 173.4 681.139 171.34C680.746 169.182 678.981 167.514 677.509 167.906Z" fill="#733DFF"/>
<path d="M645.627 116.896L644.646 125.136C644.646 125.823 644.058 126.411 643.371 126.411C643.273 126.411 643.175 126.411 643.077 126.411L623.261 121.114C622.672 120.918 622.28 120.427 622.28 119.839L623.261 112.089C623.261 111.402 623.85 110.814 624.536 110.814C624.634 110.814 624.732 110.814 624.831 110.814L644.646 115.62C645.137 115.817 645.627 116.307 645.627 116.896Z" fill="#F8FCFF"/>
<path d="M635.523 110.703C634.562 110.909 634.083 113.621 634.086 118.84L644.058 121.506H644.352C644.996 121.506 645.553 120.989 645.621 120.358L645.627 120.231L645.626 116.806L642.152 115.181C641.018 114.659 640.091 114.605 639.852 114.225L639.52 113.699C638.675 112.386 637.195 110.347 635.523 110.703Z" fill="#D5D9FF"/>
<path d="M657.007 103.506C654.75 104.29 650.826 110.127 650.826 112.383C650.826 113.953 651.513 117.484 652.788 123.076C646.51 118.269 642.979 115.915 642.194 115.915C640.919 115.915 640.919 116.307 640.428 116.209C639.938 116.209 639.643 116.013 639.545 115.62C639.251 114.934 639.447 113.757 638.859 113.168C637.583 111.893 635.719 109.146 634.052 109.146C632.286 109.146 625.91 107.773 625.517 108.557C625.125 109.342 625.811 109.636 626.204 109.833C626.596 110.029 631.207 111.5 631.403 112.187C631.697 112.874 630.618 118.073 631.403 119.054C632.188 120.035 633.757 122.487 634.64 122.487C635.229 122.487 636.112 122.095 636.897 122.095C637.289 122.095 637.779 122.095 637.878 122.487C638.172 123.37 637.878 124.449 638.172 124.94C638.466 125.528 652.887 139.164 657.007 140.733C661.127 142.303 665.149 138.281 666.032 136.123C666.915 134.063 665.051 124.94 663.383 119.054C661.813 113.462 659.165 102.721 657.007 103.506Z" fill="#380085"/>
<path d="M640.134 116.209C639.84 116.111 639.643 116.013 639.545 115.719C639.251 115.032 639.447 113.757 638.859 113.168C637.583 111.893 635.754 109.125 634.086 109.125C632.32 109.125 625.944 107.751 625.552 108.536C625.159 109.321 625.812 109.735 626.204 109.931C626.596 110.127 631.207 112.579 631.403 113.266C631.697 113.953 630.618 118.171 631.403 119.152C632.188 120.133 633.757 122.585 634.64 122.585C635.229 122.585 636.112 122.193 636.897 122.193C637.191 122.193 637.583 122.193 637.779 122.389C638.27 121.506 638.76 120.623 639.251 119.741C639.741 118.858 640.036 117.582 640.134 116.209Z" fill="#959FFA"/>
<path fill-rule="evenodd" clip-rule="evenodd" d="M635.561 132.724C633.72 132.234 631.957 132.142 630.173 132.441C628.389 132.741 626.863 133.741 625.595 135.443L612.21 132.187C612.261 131.208 612.493 130.532 613.107 130.073C613.926 129.429 618.638 125.746 621.283 125.885C623.928 126.024 633.606 126.924 634.735 127.867C635.385 128.589 635.695 130.177 635.561 132.724Z" fill="#BAC8FF"/>
<path d="M627.682 129.364C626.172 130.07 625.058 130.7 624.347 131.154C623.532 131.7 622.64 131.85 621.666 131.701L613.112 129.975C612.596 130.44 612.261 131.208 612.21 132.188L625.595 135.443C626.863 133.741 628.384 132.839 630.173 132.441C631.957 132.142 633.72 132.234 635.561 132.724C635.69 130.275 635.483 128.594 634.735 127.867C632.178 127.929 629.796 128.394 627.682 129.364Z" fill="#5C66C0"/>
<path d="M619.828 126.705L598.736 119.839C598.442 119.74 598.148 119.446 598.148 119.152L594.028 88.3491C593.93 87.8587 594.322 87.4663 594.813 87.3682C594.911 87.3682 595.009 87.3682 595.107 87.3682L616.198 92.8616C616.59 92.9597 616.786 93.254 616.885 93.6464L621.005 125.823C621.103 126.313 620.71 126.705 620.22 126.804C620.122 126.804 620.024 126.804 619.828 126.705Z" fill="#FF623F" fill-opacity="0.3"/>
<path d="M619.982 126.23L620.018 126.242L620.051 126.258C620.119 126.292 620.15 126.299 620.159 126.301C620.161 126.302 620.164 126.302 620.168 126.302C620.296 126.268 620.395 126.203 620.453 126.135C620.512 126.067 620.53 125.999 620.514 125.921L620.511 125.903L620.509 125.886L616.393 93.741C616.319 93.4676 616.217 93.3817 616.077 93.3467L616.077 93.3467L616.072 93.3455L595.043 87.8682H595.042H595.042H595.041H595.041H595.04H595.04H595.039H595.038H595.038H595.037H595.037H595.036H595.036H595.035H595.034H595.034H595.033H595.033H595.032H595.032H595.031H595.03H595.03H595.029H595.029H595.028H595.028H595.027H595.026H595.026H595.025H595.025H595.024H595.024H595.023H595.022H595.022H595.021H595.021H595.02H595.019H595.019H595.018H595.018H595.017H595.017H595.016H595.015H595.015H595.014H595.014H595.013H595.013H595.012H595.011H595.011H595.01H595.01H595.009H595.009H595.008H595.007H595.007H595.006H595.006H595.005H595.005H595.004H595.003H595.003H595.002H595.002H595.001H595.001H595H594.999H594.999H594.998H594.998H594.997H594.996H594.996H594.995H594.995H594.994H594.994H594.993H594.992H594.992H594.991H594.991H594.99H594.99H594.989H594.988H594.988H594.987H594.987H594.986H594.986H594.985H594.984H594.984H594.983H594.983H594.982H594.982H594.981H594.98H594.98H594.979H594.979H594.978H594.978H594.977H594.976H594.976H594.975H594.975H594.974H594.974H594.973H594.972H594.972H594.971H594.971H594.97H594.969H594.969H594.968H594.968H594.967H594.967H594.966H594.965H594.965H594.964H594.964H594.963H594.963H594.962H594.961H594.961H594.96H594.96H594.959H594.959H594.958H594.957H594.957H594.956H594.956H594.955H594.955H594.954H594.953H594.953H594.952H594.952H594.951H594.951H594.95H594.949H594.949H594.948H594.948H594.947H594.946H594.946H594.945H594.945H594.944H594.944H594.943H594.942H594.942H594.941H594.941H594.94H594.94H594.939H594.938H594.938H594.937H594.937H594.936H594.936H594.935H594.934H594.934H594.933H594.933H594.932H594.932H594.931H594.93H594.93H594.929H594.929H594.928H594.928H594.927H594.926H594.926H594.925H594.925H594.924H594.924H594.923H594.922H594.922H594.921H594.921H594.92H594.919H594.919H594.918H594.918H594.917H594.917H594.916H594.915H594.915H594.914H594.914H594.913H594.913H594.912H594.911H594.911H594.91H594.91H594.909H594.909H594.908H594.907H594.907H594.906H594.906H594.905H594.905H594.904H594.903H594.903H594.902H594.902H594.901H594.901H594.9H594.899H594.899H594.898H594.898H594.897H594.896H594.896H594.895H594.895H594.894H594.894H594.893H594.892H594.892H594.891H594.891H594.89H594.89H594.889H594.888H594.888H594.887H594.887H594.886H594.886H594.885H594.884H594.884H594.883H594.883H594.882H594.882H594.881H594.88H594.88H594.879H594.879H594.878H594.878H594.877H594.876H594.876H594.875H594.875H594.874H594.873H594.873H594.872H594.872H594.871H594.871H594.87H594.869H594.869H594.869C594.739 87.9023 594.638 87.9679 594.579 88.0369C594.521 88.105 594.502 88.1726 594.518 88.2511L594.521 88.2669L594.523 88.2829L598.643 119.086L598.648 119.119L598.648 119.147C598.648 119.147 598.654 119.18 598.703 119.234C598.759 119.296 598.834 119.344 598.893 119.364C598.894 119.364 598.894 119.364 598.895 119.364L619.982 126.23Z" stroke="#FF623F" stroke-opacity="0.5"/>
<path d="M641.213 100.317L634.738 107.576C634.542 107.772 634.248 107.969 633.954 107.871L628.853 107.184C628.362 107.086 628.068 106.693 628.068 106.203C628.068 106.105 628.166 106.007 628.166 105.909L629.637 101.494C629.834 101.2 630.128 101.004 630.52 101.102L640.624 98.8456C641.115 98.9437 641.409 99.3361 641.409 99.8266C641.409 100.121 641.311 100.219 641.213 100.317Z" fill="#380085"/>
<path fill-rule="evenodd" clip-rule="evenodd" d="M640.886 99.656L634.738 106.595C634.542 106.792 634.248 106.988 633.954 106.89L628.853 106.203C628.362 106.105 628.068 105.713 628.068 105.222C628.068 105.124 628.166 105.026 628.166 104.928L629.637 100.513C629.834 100.219 630.128 100.023 630.52 100.121L638.664 97.9663C639.154 98.0644 641.017 98.7476 641.017 99.2381C641.017 99.5324 640.984 99.5579 640.886 99.656Z" fill="#BAC8FF"/>
<path d="M632.875 102.083C630.814 101.691 629.838 101.164 629.74 100.281L629.539 96.6876C628.558 96.8837 627.773 96.7857 627.283 96.2952C626.596 95.6085 625.419 93.4503 625.419 87.9568C625.419 82.4634 627.381 77.2642 628.264 76.2832C629.147 75.3022 631.795 71.4764 636.897 72.5555C641.9 73.7327 645.039 77.7547 644.254 83.3462C643.469 88.9378 640.428 91.9789 640.428 94.6275C640.428 96.3933 640.591 97.8824 640.983 99.1576C637.55 101.512 634.935 102.475 632.875 102.083Z" fill="#FFA877"/>
<path d="M634.248 95.775C632.993 96.2793 631.582 96.5766 630.014 96.6667L629.539 96.6875L629.622 98.6428C630.226 98.604 630.972 98.4269 631.858 98.1115C633.214 97.6296 634.01 96.8507 634.248 95.775Z" fill="black" fill-opacity="0.28827"/>
<path d="M631.159 78.8301C631.771 79.4414 634.485 83.2748 634.896 89.7626C635.191 94.3981 636.766 97.5542 637.583 97.9628C639.153 98.7475 641.9 97.6685 644.352 96.0008C646.804 94.3331 647.72 94.0389 647.72 92.5674C647.72 91.0959 647.001 79.7166 645.039 76.5774C643.175 73.4383 640.65 71.6725 636.236 71.6725C633.979 70.9859 631.894 71.0839 630.52 71.6725C629.147 72.2611 627.185 74.4193 625.811 76.9698C624.831 78.6375 623.184 85.7881 622.595 94.1264L626.219 94.4576C625.211 89.414 625.615 86.6815 625.91 85.9948C626.069 85.7287 626.537 83.8396 627.582 82.4804C628.464 81.3346 630.531 79.2339 631.159 78.8301Z" fill="#0D134E"/>
<path d="M629.245 156.723C619.926 164.081 615.021 168.103 614.628 168.691C613.942 169.574 613.157 176.833 614.628 180.561C616.1 184.289 617.571 211.658 616.787 212.639C616.002 213.62 604.328 223.92 603.543 225.49C602.759 227.06 607.369 228.825 611.489 227.746C615.609 226.667 624.732 221.468 625.517 219.31C626.302 217.152 626.008 213.718 625.517 212.639C625.027 211.56 625.027 205.674 625.517 203.81C626.008 202.045 629.245 197.336 629.245 190.175C629.245 185.368 628.754 181.738 627.872 179.286C638.172 176.343 645.235 173.694 649.159 171.34C653.083 168.986 657.105 164.767 661.323 158.783L659.459 152.603H638.172L629.245 156.723Z" fill="#733DFF"/>
<path d="M616.404 83.4443C616.404 94.0037 624.964 102.564 635.523 102.564C646.083 102.564 654.643 94.0037 654.643 83.4443C654.643 72.8848 646.083 64.3247 635.523 64.3247C624.964 64.3247 616.404 72.8848 616.404 83.4443Z" fill="#9286FF" fill-opacity="0.193018" stroke="#ECEAFE"/>
<path opacity="0.504464" fill-rule="evenodd" clip-rule="evenodd" d="M647.271 81.047C646.812 79.2071 647.293 77.5031 648.344 77.241C649.396 76.9788 650.62 78.2579 651.078 80.0978C651.537 81.9377 651.057 83.6417 650.005 83.9038C648.954 84.166 647.73 82.8869 647.271 81.047Z" fill="white"/>
<path d="M662.402 152.701C662.402 154.663 662.01 156.723 661.323 158.784C656.81 156.233 652.102 154.958 647.393 154.958C642.586 154.958 636.602 155.546 629.245 156.625L629.049 155.742C635.327 150.739 641.017 147.993 646.02 147.306C651.023 146.619 655.731 146.325 660.146 146.325C661.617 148.679 662.402 150.739 662.402 152.701Z" fill="#959FFA"/>
<path d="M616.983 209.696C616.983 211.364 616.885 212.443 616.787 212.639C616.002 213.62 604.328 223.92 603.543 225.49C602.759 227.06 607.369 228.825 611.489 227.746C615.609 226.667 624.732 221.468 625.517 219.31C626.302 217.152 626.008 213.718 625.517 212.639C625.125 211.854 625.027 208.519 625.223 206.067C623.359 207.734 621.79 208.813 620.416 209.304C619.239 209.696 618.062 209.892 616.983 209.696Z" fill="#959FFA"/>
<path d="M610.42 226.429C608.895 226.691 606.738 226.194 603.948 224.936C603.746 225.172 603.608 225.361 603.543 225.49C602.759 227.059 607.369 228.825 611.489 227.746C615.609 226.667 624.732 221.468 625.517 219.31C625.66 218.918 625.766 218.485 625.843 218.032L624.085 219.125C616.687 223.7 612.132 226.135 610.42 226.429Z" fill="#733DFF"/>
<path d="M618.258 165.454C616.002 167.318 614.825 168.299 614.628 168.593C613.942 169.476 613.157 176.735 614.628 180.463C614.726 180.757 614.825 181.15 615.021 181.738C616.002 182.229 616.983 182.719 617.866 183.112C620.22 184.289 623.948 184.779 629.049 184.681C628.853 182.523 628.46 180.757 627.97 179.286C628.951 178.992 629.932 178.697 630.913 178.403C628.558 174.479 626.302 171.438 624.34 169.182C622.672 167.612 620.71 166.337 618.258 165.454Z" fill="#959FFA"/>
<path d="M652.429 121.08C652.429 121.08 661.698 129.665 660.778 131.625C659.857 133.585 652.788 123.076 652.788 123.076L652.429 121.08Z" fill="black" fill-opacity="0.28827"/>
<path d="M567.345 110.068C574.722 110.068 580.686 116.033 580.686 123.488V192.784C580.686 195.374 579.823 197.885 578.175 199.847C575.193 203.536 571.191 205.341 566.246 205.341C561.302 205.341 557.3 203.536 554.318 199.847C552.67 197.885 551.806 195.374 551.806 192.784V123.488C551.806 116.111 557.771 110.068 565.148 110.068H567.345V110.068Z" fill="#733DFF"/>
<path d="M571.307 110.665L565.735 113.453C573.029 118.512 576.676 123.004 576.676 126.928V164.061C576.676 170.732 578.172 182.553 576.168 182.553L575.784 182.559C573.944 182.609 568.463 182.957 559.34 183.602V193.598L580.459 195.062C580.585 194.442 580.659 193.809 580.68 193.169L580.686 192.784V123.488C580.686 117.427 576.745 112.352 571.307 110.665Z" fill="black" fill-opacity="0.28827"/>
<path fill-rule="evenodd" clip-rule="evenodd" d="M568.522 105.516C569.229 105.516 569.856 106.144 569.856 106.851V112.736C569.856 113.443 569.307 114.071 568.522 114.071H564.363C563.657 114.071 563.029 113.443 563.029 112.736V106.851C563.029 106.144 563.578 105.516 564.363 105.516H568.522Z" fill="#94A5E5"/>
<path fill-rule="evenodd" clip-rule="evenodd" d="M562.95 107.086V106.851C562.95 106.144 563.578 105.516 564.285 105.516H568.444C569.15 105.516 569.778 106.144 569.778 106.851V107.086C569.072 107.557 567.816 107.871 566.403 107.871C564.991 107.871 563.735 107.557 562.95 107.086Z" fill="#BAC8FF"/>
<path d="M570.327 124.665C571.269 124.665 572.054 125.45 572.054 126.392V154.487C572.054 155.429 571.269 156.213 570.327 156.213C569.386 156.213 568.601 155.429 568.601 154.487V126.392C568.601 125.371 569.386 124.665 570.327 124.665Z" fill="#293181"/>
<path d="M568.601 129.688H572.054V154.409C572.054 155.35 571.269 156.135 570.327 156.135C569.386 156.135 568.601 155.35 568.601 154.409V129.688Z" fill="#FF623F"/>
<path d="M568.718 107.871C579.705 111.01 587.063 117.092 590.594 126.019C591.771 129.158 592.36 132.788 592.458 137.398C592.556 140.734 592.36 143.382 591.968 150.249C591.771 153.879 591.771 159.765 593.341 164.571C596.873 175.656 599.129 179.384 599.521 184.093C600.012 190.665 597.952 195.276 592.752 197.925C589.515 199.494 586.278 199.69 583.041 198.611C580.785 197.827 578.921 196.748 575.978 194.589C573.231 192.529 572.642 192.137 571.563 191.646C571.269 191.45 570.975 191.352 570.68 191.254C567.541 190.273 562.342 191.45 557.045 193.02L555.181 186.938C561.557 185.074 568.032 183.799 572.544 185.27C573.133 185.466 573.721 185.662 574.31 185.957C575.88 186.742 576.468 187.134 579.705 189.488C584.512 193.02 586.768 193.805 589.908 192.235C592.556 190.96 593.537 188.802 593.145 184.583C592.851 180.561 590.692 177.128 587.259 166.533C585.395 160.844 585.395 153.584 585.591 149.857C586.376 137.202 586.376 132.592 584.708 128.373C581.962 121.408 576.174 116.7 567.051 114.051C565.874 112.874 565.481 111.5 565.972 110.029C566.364 108.459 567.345 107.773 568.718 107.871Z" fill="#FF623F"/>
<path d="M485.728 69.0239L483.57 65.0019C481.51 61.2741 477.291 59.3122 473.073 60.1951L459.732 63.0399C455.71 63.9228 452.669 67.2581 452.178 71.3782L448.058 107.38C447.568 111.795 450.216 116.013 454.337 117.582L470.13 123.272L485.728 69.0239Z" fill="#959FFA"/>
<path d="M478.059 95.6978L475.973 60.2776L474.935 60.6571C464.71 64.426 459.01 67.395 457.835 69.5641L457.78 69.6719C456.199 72.9802 453.456 72.6012 452.686 78.641L451.584 88.0922C450.561 97.0543 449.372 108.895 450.128 112.749C450.283 113.54 450.491 114.359 450.753 115.205C451.741 116.233 452.956 117.057 454.337 117.582L461.203 120.056L475.01 106.303L478.059 95.6978Z" fill="black" fill-opacity="0.28827"/>
<path d="M474.054 63.138C471.798 64.2171 467.089 67.0619 460.026 71.6725C462.969 134.259 464.539 166.533 464.931 168.397C465.422 171.242 458.162 204.988 459.143 207.538C460.124 209.991 461.89 211.854 463.067 212.541C464.244 213.228 461.694 219.212 461.694 220.389C461.694 221.566 460.713 228.335 461.105 230.493C461.498 232.651 461.694 236.183 466.206 236.183C470.719 236.183 471.602 232.847 471.111 229.512C470.621 226.079 470.425 225.98 471.111 224.019C471.798 222.057 471.209 221.664 470.523 218.721C469.738 215.68 470.228 211.854 471.111 211.266C471.994 210.677 475.428 208.323 476.016 206.067C476.605 203.81 482.589 175.754 482.589 171.732C482.589 168.986 483.079 150.384 483.079 150.384C483.079 150.384 486.316 169.967 486.316 171.438C486.316 173.596 486.022 190.273 485.139 192.823C484.354 195.472 484.256 199.102 485.139 199.985C485.728 200.573 486.12 200.966 486.218 201.26C485.434 206.557 485.237 209.598 485.63 210.481C486.218 211.756 490.437 211.756 492.693 214.895C494.949 218.035 497.009 219.506 500.443 219.506C503.876 219.506 507.015 218.917 504.465 215.288C502.012 211.658 495.538 206.263 495.538 204.007V199.2C497.303 197.924 498.186 196.747 498.186 195.668C498.186 194.001 502.208 177.128 502.699 174.087C503.189 171.046 503.287 165.945 502.699 161.628C502.11 157.312 500.148 128.569 498.775 124.94C497.402 121.31 496.617 121.016 496.617 119.544C496.617 118.073 496.519 116.307 497.009 115.62C497.5 114.934 498.284 114.149 498.481 113.07C498.677 111.991 501.129 100.611 500.344 89.7225C499.56 78.8337 493.968 66.081 491.81 64.8057C490.338 63.9228 488.278 63.4323 485.532 63.2361C480.234 62.0589 476.31 62.0589 474.054 63.138Z" fill="#733DFF"/>
<path d="M499.756 82.6741C499.756 82.6741 486.261 92.7823 481.117 91.7826C475.974 90.7828 470.081 80.6975 470.081 80.6975L460.73 106.644L465.393 127.294C465.393 127.294 469.172 128.441 470.081 124.876C470.99 121.31 467.065 107.205 470.081 105.026C473.097 102.847 475.484 114.34 479.953 114.34C484.421 114.34 498.499 111.752 498.499 111.752L501.325 91.7826L499.756 82.6741Z" fill="black" fill-opacity="0.28827"/>
<path d="M485.928 168.753C486.026 170.127 486.238 171.042 486.238 171.336C486.238 172.023 486.042 173.989 486.238 176.834C488.691 177.422 490.829 178.207 495.44 176.834C497.892 176.147 501.718 174.283 503.189 173.4C503.287 170.948 503.582 167.841 503.189 165.291C503.091 164.506 503.091 162.535 502.503 161.04C498.579 162.021 493.968 163.983 492.595 164.768C491.123 165.748 489.95 166.497 485.928 168.753Z" fill="#959FFA"/>
<path d="M463.558 140.243C467.384 140.537 470.979 139.943 473.431 140.826C476.178 141.807 481.028 143.939 483.275 145.246C485.728 143.718 489.263 140.436 492.347 138.345C495.409 136.269 496.631 135.515 500.177 134.08C499.649 129.538 499.265 126.019 498.775 124.94C497.99 122.88 497.487 122.193 497.094 121.408C493.563 123.763 490.927 125.921 489.259 128.177C487.297 130.727 485.532 134.75 483.766 140.243C481.313 135.927 478.371 131.807 475.035 128.177C471.896 124.645 467.678 122.389 462.479 121.408C463.067 128.471 463.362 134.848 463.558 140.243Z" fill="#959FFA"/>
<path d="M461.694 131.022C461.792 131.12 461.792 131.218 461.89 131.414C462.773 133.67 461.596 133.867 461.203 136.025C460.811 138.281 462.236 147.461 463.707 148.933C463.707 150.907 467.257 152.319 467.846 152.711C468.434 153.103 470.327 153.486 471.504 153.192C472.681 152.898 469.346 141.813 470.228 141.126C471.013 140.439 473.368 143.284 474.447 143.873C475.526 144.363 476.212 142.695 474.937 140.635C473.76 138.575 470.039 132.493 469.254 131.414C468.469 130.335 470.032 124.832 470.032 123.753C470.032 123.459 469.836 122.782 470.032 122.389C468.659 122.389 467.384 122.389 466.108 122.585C464.931 122.88 463.362 130.237 461.694 131.022Z" fill="black" fill-opacity="0.28827"/>
<path d="M486.218 201.064C486.316 201.064 486.316 201.064 486.218 201.064C485.434 206.459 485.237 209.5 485.63 210.383C486.218 211.658 490.437 211.658 492.693 214.797C494.949 217.936 497.009 219.408 500.443 219.408C503.876 219.408 507.015 218.819 504.465 215.19C502.012 211.56 495.538 206.165 495.538 203.908V199.2C493.87 199.788 492.202 200.279 490.633 200.573C489.161 200.867 487.69 201.064 486.218 201.064Z" fill="#959FFA"/>
<path d="M485.63 210.383C486.218 211.658 490.437 211.658 492.693 214.797C494.949 217.936 497.009 219.408 500.443 219.408L500.972 219.403C502.812 219.366 504.483 219.119 505.121 218.267C501.306 218.402 498.732 218.145 497.399 217.496C495.105 216.378 493.234 213.481 491.714 211.952C490.885 211.119 488.806 210.376 485.479 209.724C485.511 210.009 485.561 210.229 485.63 210.383Z" fill="#733DFF"/>
<path d="M461.105 232.455C461.498 234.613 462.871 237.54 466.215 237.54C469.3 237.54 471.494 235.166 471.179 232.024C470.909 234.34 469.561 236.183 466.206 236.183C461.694 236.183 461.498 232.651 461.105 230.493C461.076 230.333 461.055 230.147 461.04 229.94C460.994 230.977 461.001 231.88 461.105 232.455Z" fill="#733DFF"/>
<path d="M463.165 212.639C464.048 213.62 461.694 219.212 461.694 220.389C461.694 221.566 460.713 228.335 461.105 230.493C461.498 232.651 461.694 236.183 466.206 236.183C470.719 236.183 471.602 232.847 471.111 229.512C470.621 226.079 470.425 225.981 471.111 224.019C471.798 222.057 471.209 221.664 470.523 218.721C469.934 216.269 470.13 213.326 470.621 211.953C470.032 212.247 469.051 212.541 467.776 212.835C466.304 213.032 464.735 213.032 463.165 212.639Z" fill="#959FFA"/>
<path d="M464.931 168.593C465.029 169.672 464.441 173.4 463.656 178.011C467.089 179.188 470.13 179.776 472.681 179.776C475.526 179.776 478.469 179.384 481.608 178.697C482.196 175.264 482.589 172.615 482.589 171.634C482.589 171.046 482.589 170.163 482.589 169.084C479.352 168.495 476.409 168.201 473.858 168.201C471.602 168.201 468.659 168.299 464.931 168.593Z" fill="#959FFA"/>
<path d="M490.535 64.3152C493.38 65.0019 496.224 65.6886 497.303 66.2771C498.873 67.16 514.667 88.3492 515.648 92.2731C516.629 96.2951 515.844 100.513 512.705 102.475C509.566 104.437 496.911 110.029 494.753 109.146C492.595 108.361 493.183 107.969 491.516 108.459C489.848 108.95 487.69 111.5 485.139 112.481C481.117 114.281 475.231 106.497 477.88 104.535C478.665 103.358 481.439 102.671 482.224 102.475C484.088 101.985 485.139 102.475 485.63 102.475C486.807 102.475 488.278 101.985 488.278 101.298C488.278 100.611 488.278 99.6304 489.161 99.0418C490.044 98.5513 500.541 91.5864 500.541 91.0959C500.541 90.6054 499.493 83.981 497.335 77.997C494.49 69.8549 492.104 65.1981 490.535 64.3152Z" fill="#380085"/>
<path d="M486.022 102.612C486.022 102.612 483.479 101.097 482.606 101.097C481.732 101.097 477.965 101.015 477.706 101.652C477.446 102.289 479.32 104.6 479.32 104.6L486.022 102.612Z" fill="#5C66C0"/>
<path d="M487.922 102.037L487.777 101.957C487.245 102.277 486.378 102.475 485.63 102.475C485.163 102.475 484.186 102.03 482.484 102.412L482.224 102.475C481.439 102.671 478.665 103.358 477.88 104.535C475.266 106.472 480.966 114.08 484.982 112.547L485.139 112.481C487.69 111.5 489.848 108.95 491.516 108.459L491.851 108.365C492.053 108.311 492.213 108.276 492.348 108.258L492.238 107.895C491.904 106.83 491.531 105.873 491.116 105.026C490.591 103.952 489.526 102.956 487.922 102.037L487.777 101.957L487.922 102.037Z" fill="#959FFA"/>
<path fill-rule="evenodd" clip-rule="evenodd" d="M486.709 101.789C488.573 101.396 490.338 101.396 492.104 101.789C493.87 102.181 495.341 103.26 496.519 105.026L510.056 98.5513C510.056 97.5704 509.86 96.8837 509.271 96.3932C508.832 93.7406 503.974 91.7826 501.325 91.7826C498.677 91.7826 488.965 96.0989 487.788 96.9818C487.101 97.6685 486.709 99.238 486.709 101.789Z" fill="#BAC8FF"/>
<path d="M498.316 101.094L509.205 96.2933C509.695 96.7838 510.181 97.2387 510.056 98.5513L496.519 105.026C495.341 103.26 493.87 102.447 492.104 101.957C490.338 101.564 488.573 101.564 486.709 101.957C486.709 99.5041 487.034 98.6477 487.819 97.961C494.442 96.841 497.335 101.192 498.316 101.094Z" fill="#5C66C0"/>
<path d="M504.764 86.7382L504.747 86.744L504.73 86.7523C504.647 86.7938 504.595 86.8097 504.56 86.8166C504.532 86.8222 504.509 86.8236 504.475 86.8239C504.076 86.7346 503.85 86.4392 503.91 86.1421L503.912 86.1335L503.913 86.1248L508.031 53.9638C508.117 53.629 508.267 53.4409 508.532 53.3747L508.532 53.375L508.545 53.3712L529.6 46.9077H529.6H529.601H529.602H529.602H529.603H529.603H529.604H529.604H529.605H529.606H529.606H529.607H529.607H529.608H529.608H529.609H529.61H529.61H529.611H529.611H529.612H529.612H529.613H529.614H529.614H529.615H529.615H529.616H529.617H529.617H529.618H529.618H529.619H529.619H529.62H529.621H529.621H529.622H529.622H529.623H529.623H529.624H529.625H529.625H529.626H529.626H529.627H529.627H529.628H529.629H529.629H529.63H529.63H529.631H529.631H529.632H529.633H529.633H529.634H529.634H529.635H529.635H529.636H529.637H529.637H529.638H529.638H529.639H529.639H529.64H529.641H529.641H529.642H529.642H529.643H529.644H529.644H529.645H529.645H529.646H529.646H529.647H529.648H529.648H529.649H529.649H529.65H529.65H529.651H529.652H529.652H529.653H529.653H529.654H529.654H529.655H529.656H529.656H529.657H529.657H529.658H529.658H529.659H529.66H529.66H529.661H529.661H529.662H529.662H529.663H529.664H529.664H529.665H529.665H529.666H529.667H529.667H529.668H529.668H529.669H529.669H529.67H529.671H529.671H529.672H529.672H529.673H529.673H529.674H529.675H529.675H529.676H529.676H529.677H529.677H529.678H529.679H529.679H529.68H529.68H529.681H529.681H529.682H529.683H529.683H529.684H529.684H529.685H529.685H529.686H529.687H529.687H529.688H529.688H529.689H529.69H529.69H529.691H529.691H529.692H529.692H529.693H529.694H529.694H529.695H529.695H529.696H529.696H529.697H529.698H529.698H529.699H529.699H529.7H529.7H529.701H529.702H529.702H529.703H529.703H529.704H529.704H529.705H529.706H529.706H529.707H529.707H529.708H529.708H529.709H529.71H529.71H529.711H529.711H529.712H529.712H529.713H529.714H529.714H529.715H529.715H529.716H529.717H529.717H529.718H529.718H529.719H529.719H529.72H529.721H529.721H529.722H529.722H529.723H529.723H529.724H529.725H529.725H529.726H529.726H529.727H529.727H529.728H529.729H529.729H529.73H529.73H529.731H529.731H529.732H529.733H529.733H529.734H529.734H529.735H529.735H529.736H529.737H529.737H529.738H529.738H529.739H529.74H529.74H529.741H529.741H529.742H529.742H529.743H529.744H529.744H529.745H529.745H529.746H529.746H529.747H529.748H529.748H529.749H529.749H529.75H529.75H529.751H529.752H529.752H529.753H529.753H529.754H529.754H529.755H529.756H529.756H529.757H529.757H529.758H529.758H529.759H529.76H529.76H529.761H529.761H529.762H529.763H529.763H529.764H529.764H529.765H529.765H529.766H529.767H529.767H529.768H529.768H529.769H529.769H529.77H529.771H529.771H529.772H529.772H529.773H529.773H529.774H529.775H529.775H529.776H529.776H529.777H529.777H529.778H529.779H529.779H529.78H529.78H529.781H529.781H529.782H529.783H529.783H529.784H529.784H529.785H529.785H529.786H529.787H529.787H529.788H529.788H529.789H529.79H529.79H529.791H529.791H529.792H529.792H529.793H529.794H529.794H529.795H529.795H529.796H529.796H529.797H529.798H529.798H529.799H529.799H529.8H529.8H529.801H529.802H529.802H529.803H529.803H529.804H529.804H529.805H529.806H529.806H529.807H529.807H529.808H529.808H529.809H529.81H529.81H529.811H529.811H529.812H529.813H529.813H529.814H529.814H529.815H529.815H529.816H529.817H529.817H529.818H529.818H529.819H529.819H529.82H529.821H529.821H529.822H529.822H529.823H529.823H529.824H529.825H529.825H529.826H529.826H529.827H529.827H529.828H529.829H529.829H529.83H529.83H529.831C530.23 46.9969 530.456 47.2925 530.396 47.5897L530.395 47.5981L530.394 47.6066L526.274 79.3903L526.271 79.4063V79.4224C526.271 79.4875 526.237 79.5776 526.152 79.6721C526.069 79.7645 525.958 79.8372 525.854 79.8717C525.854 79.8718 525.854 79.8719 525.854 79.8719L504.764 86.7382Z" fill="#FF623F" fill-opacity="0.280021" stroke="#FF623F" stroke-width="0.5"/>
<path d="M456.495 73.5366C457.966 71.8689 460.124 71.3784 461.89 71.3784C463.656 71.3784 471.7 74.4195 470.621 83.9349C469.542 93.5485 466.795 97.8648 466.795 101.789C466.795 105.713 467.58 108.165 468.168 111.108C468.757 114.051 469.346 123.174 468.757 124.547C468.168 125.921 466.893 127.49 466.893 128.471C466.893 129.55 466.501 130.924 467.285 132.003C468.07 133.082 470.817 135.633 472.092 137.791C473.269 139.851 472.681 141.616 471.602 141.028C470.523 140.537 468.168 137.594 467.384 138.281C466.599 138.968 468.855 150.053 467.678 150.347C466.501 150.641 466.108 149.072 465.52 148.68C464.931 148.287 461.105 148.091 459.732 146.718C458.26 145.246 457.966 136.417 458.359 134.161C458.751 131.905 459.928 131.807 459.045 129.55C458.162 127.294 456.2 127.294 455.71 125.528C455.219 123.763 451.492 108.361 451.982 104.928C452.571 101.494 453.454 91.1942 453.454 89.036C453.356 86.7798 455.023 75.2042 456.495 73.5366Z" fill="#380085"/>
<path d="M458.751 129.06C458.849 129.158 458.849 129.256 458.947 129.452C459.83 131.708 458.653 131.905 458.26 134.063C457.868 136.319 458.162 145.148 459.634 146.619C461.007 148.091 465.295 149.376 465.884 149.768C466.472 150.16 467.384 151.524 468.561 151.23C469.738 150.936 467.384 139.851 468.266 139.164C469.051 138.477 471.406 141.322 472.485 141.911C473.564 142.401 474.25 140.733 472.975 138.673C471.798 136.613 467.929 132.986 467.31 131.92C466.69 130.853 467.015 129.396 467.015 128.317C467.015 128.023 467.113 127.631 467.31 127.238C465.936 127.238 464.441 127.294 463.165 127.49C461.988 127.785 460.419 128.275 458.751 129.06Z" fill="#959FFA"/>
<path d="M459.511 77.1998C461.777 77.3982 463.401 80.0091 463.136 83.0315C462.872 86.0539 460.82 88.3433 458.553 88.145C456.286 87.9467 454.663 85.3357 454.927 82.3133C455.192 79.2909 457.244 77.0015 459.511 77.1998Z" fill="#959FFA"/>
<path d="M458.259 77.0902C460.526 77.2885 462.149 79.8995 461.885 82.9219C461.62 85.9443 459.568 88.2337 457.302 88.0354C455.035 87.837 453.412 85.2261 453.676 82.2037C453.94 79.1813 455.992 76.8919 458.259 77.0902Z" fill="#F8FCFF"/>
<path d="M496.813 79.7165C496.715 79.226 496.322 78.9317 495.832 79.0298L472.681 82.5613C472.19 82.6594 471.896 83.0518 471.994 83.5423L473.466 94.0388C473.564 94.5292 473.956 94.8235 474.447 94.7254L497.794 90.8996C498.284 90.8015 498.579 90.4091 498.481 89.9186L496.813 79.7165Z" fill="#F8FCFF"/>
<path d="M484.892 62.8994L474.553 62.8401L473.186 63.5509L480.174 72.5557C480.37 72.85 480.665 73.0462 481.057 73.0462L486.415 72.163H486.513C487.003 72.0649 487.297 71.5744 487.101 71.0839L484.892 62.8994Z" fill="#380085"/>
<path fill-rule="evenodd" clip-rule="evenodd" d="M485.237 63.1382H474.152L480.921 71.5746C481.117 71.8689 481.412 72.0651 481.804 72.0651L486.415 71.1822H486.513C487.003 71.0841 487.297 70.5936 487.101 70.1031L485.237 63.1382Z" fill="#BAC8FF"/>
<path d="M481.117 64.3152C478.763 64.3152 476.507 63.9228 474.054 63.138C474.349 59.5084 474.349 56.5655 474.054 54.3092C473.662 50.9739 473.368 38.9078 478.174 37.6326C482.981 36.2592 488.965 38.2212 491.221 42.5375C494.557 48.8157 490.044 61.1761 488.082 61.5684C487.396 61.7646 486.415 61.6665 485.041 61.4703V63.8247C484.747 64.2171 483.472 64.3152 481.117 64.3152Z" fill="#FFA877"/>
<path d="M480.174 60.4614C480.995 61.7142 481.969 62.5072 483.097 62.8402C483.806 63.0496 484.455 63.1445 485.042 63.125L485.041 61.4704L485.256 61.5007L485.237 61.4685C484.346 61.4705 483.569 61.4058 482.908 61.2743C482.248 61.1429 481.336 60.8719 480.174 60.4614Z" fill="black" fill-opacity="0.28827"/>
<path d="M495.636 41.1641C496.322 42.5375 495.734 47.8348 492.497 47.8348C489.161 47.8348 484.649 44.4994 483.177 44.4994C481.804 44.4994 482.098 49.6005 481.117 49.8948C480.136 50.2872 481.51 47.05 479.94 46.4614C478.371 45.8728 477.488 46.7557 477.488 47.2462C477.488 47.7367 477.095 51.072 475.82 51.8568C474.937 52.3473 474.349 52.8378 474.054 53.4263C472.877 52.1511 472.19 50.7777 472.19 49.3062C472.19 47.05 472.19 42.1451 472.975 40.8698C473.564 39.9869 474.643 39.006 476.409 38.025C477.095 35.6706 478.174 34.5916 479.45 34.5916C481.51 34.5916 484.158 36.3573 485.237 36.3573C486.317 36.3573 490.24 36.1611 491.418 37.2402C492.595 38.4174 491.516 40.2812 492.006 40.5755C492.497 40.8698 494.949 39.7907 495.636 41.1641Z" fill="#380085"/>
<path d="M462.881 48.7177C462.881 59.3313 471.485 67.9353 482.098 67.9353C492.712 67.9353 501.316 59.3313 501.316 48.7177C501.316 38.104 492.712 29.5 482.098 29.5C471.485 29.5 462.881 38.104 462.881 48.7177Z" fill="#9286FF" fill-opacity="0.193018" stroke="#ECEAFE"/>
<path opacity="0.504464" fill-rule="evenodd" clip-rule="evenodd" d="M493.744 42.4015C493.003 40.656 493.211 38.8978 494.209 38.4744C495.206 38.0511 496.615 39.1228 497.356 40.8683C498.097 42.6138 497.889 44.372 496.892 44.7954C495.894 45.2188 494.485 44.147 493.744 42.4015Z" fill="white"/>
<path fill-rule="evenodd" clip-rule="evenodd" d="M505.317 219.25L505.121 205.026C505.121 204.339 505.513 203.75 506.102 203.456L524.74 193.941C525.133 193.744 525.525 193.744 525.917 193.744L560.35 201.004L506.102 220.721C505.611 220.525 505.317 219.937 505.317 219.25Z" fill="#BAC8FF"/>
<path d="M505.317 219.25L505.121 205.026C505.121 204.339 505.513 203.75 506.102 203.456L524.74 193.941C525.133 193.744 525.525 193.744 525.917 193.744L560.35 201.004L594.88 231.12C595.273 231.414 595.469 231.904 595.469 232.395V246.227C595.469 246.815 595.175 247.404 594.586 247.698L573.789 259.862C573.201 260.157 572.612 260.157 572.023 259.862L506.102 220.721C505.611 220.525 505.317 219.937 505.317 219.25Z" fill="#959FFA"/>
<path d="M505.317 219.25L505.121 205.026C505.121 204.339 505.513 203.75 506.102 203.456L524.74 193.941C525.133 193.744 525.525 193.744 525.917 193.744L560.35 201.004L506.102 220.721C505.611 220.525 505.317 219.937 505.317 219.25Z" fill="#D0D4FF"/>
<path d="M521.994 205.516C525.244 205.516 527.879 204.74 527.879 202.573C527.879 200.406 525.637 198.709 522.386 198.709C519.135 198.709 516.892 200.445 516.892 202.143C516.892 203.84 518.743 205.516 521.994 205.516Z" fill="#5C66C0"/>
<path d="M522.19 205.908C524.899 205.908 527.095 204.591 527.095 202.966C527.095 201.34 524.899 200.023 522.19 200.023C519.481 200.023 517.253 201.34 517.253 202.966C517.253 204.591 519.481 205.908 522.19 205.908Z" fill="#F8FCFF"/>
<path d="M520.659 201.29L519.974 201.534L523.214 204.405L523.739 203.989L520.659 201.29Z" fill="#A4B6C5"/>
<path d="M572.906 260.157V246.325C572.906 245.246 572.416 244.167 571.533 243.578L536.806 217.092L505.219 204.633C505.219 204.829 505.121 204.928 505.121 205.124L505.317 219.348C505.317 219.937 505.611 220.525 506.2 220.819L572.122 259.96C572.318 260.059 572.612 260.157 572.906 260.157Z" fill="#5C66C0"/>
<path d="M587.188 218.392V204.854C587.188 204.265 586.894 203.677 586.306 203.383L568.803 193.842C568.411 193.646 567.92 193.548 567.528 193.646L535.295 199.459L497.135 231.144C496.742 231.439 496.546 232.027 496.546 232.518L496.742 246.251C496.742 246.84 497.037 247.429 497.625 247.723L518.324 259.691C518.912 259.985 519.501 259.985 520.09 259.691L586.404 219.961C586.894 219.569 587.188 219.078 587.188 218.392Z" fill="#F8FCFF"/>
<path d="M567.797 204.988C571.048 204.988 573.82 203.819 573.82 201.652C573.82 199.485 571.577 197.789 568.326 197.789C565.076 197.789 562.833 199.525 562.833 201.222C562.833 202.919 564.546 204.988 567.797 204.988Z" fill="#5C66C0"/>
<path d="M568.13 204.988C570.839 204.988 573.035 203.67 573.035 202.045C573.035 200.419 570.839 199.102 568.13 199.102C565.421 199.102 563.193 200.419 563.193 202.045C563.193 203.67 565.421 204.988 568.13 204.988Z" fill="#F8FCFF"/>
<path d="M566.364 201.985V202.633L570.42 202.143V201.573L566.364 201.985Z" fill="#A4B6C5"/>
<path d="M535.295 199.459L497.135 231.144C496.742 231.439 496.546 232.027 496.546 232.518L496.742 246.251C496.742 246.84 497.037 247.428 497.625 247.723L518.324 259.691C518.912 259.985 519.501 259.985 520.09 259.691L545.371 226.177L535.295 199.459Z" fill="#D0D4FF"/>
<path d="M517.413 235.006C513.35 235.006 510.056 232.81 510.056 230.101C510.056 227.392 513.35 225.196 517.413 225.196C521.477 225.196 524.771 227.392 524.771 230.101C524.771 232.81 521.477 235.006 517.413 235.006Z" fill="#5C66C0"/>
<path d="M517.413 235.006C513.892 235.006 511.037 233.468 511.037 231.572C511.037 229.676 513.892 228.139 517.413 228.139C520.935 228.139 523.79 229.676 523.79 231.572C523.79 233.468 520.935 235.006 517.413 235.006Z" fill="#F8FCFF"/>
<path d="M520.354 230.101L520.847 230.75L513.216 232.414L512.937 231.719L520.354 230.101Z" fill="#A4B6C5"/>
<path d="M497.135 231.144C496.742 231.537 496.448 232.027 496.448 232.518L496.644 246.153C496.644 246.742 496.939 247.33 497.527 247.625L518.226 259.593C518.52 259.789 518.912 259.887 519.305 259.789V245.467C519.305 244.191 518.618 243.014 517.539 242.426L497.135 231.144Z" fill="#5C66C0"/>
<path d="M586.992 204.167L562.768 211.755L519.893 243.014C519.501 243.308 519.305 243.799 519.305 244.387V259.887C519.501 259.887 519.795 259.789 519.991 259.691L586.306 220.942C586.894 220.648 587.189 220.059 587.189 219.471V204.952C587.189 204.658 587.09 204.364 586.992 204.167Z" fill="#959FFA"/>
<path d="M560.35 201.004L594.88 231.12C595.273 231.414 595.469 231.904 595.469 232.395L572.906 245.486L545.884 244.731L545.371 223.055L560.35 201.004Z" fill="#F8FCFF"/>
<path d="M573.329 234.025C569.266 234.025 565.972 231.829 565.972 229.12C565.972 226.411 569.266 224.215 573.329 224.215C577.392 224.215 580.686 226.411 580.686 229.12C580.686 231.829 577.392 234.025 573.329 234.025Z" fill="#5C66C0"/>
<path d="M573.329 234.025C569.808 234.025 566.953 232.487 566.953 230.591C566.953 228.695 569.808 227.158 573.329 227.158C576.851 227.158 579.705 228.695 579.705 230.591C579.705 232.487 576.851 234.025 573.329 234.025Z" fill="#F8FCFF"/>
<rect width="0.980979" height="4.90489" transform="matrix(-1 0 0 1 573.82 228.139)" fill="#A4B6C5"/>
<path d="M572.906 260.157V246.325C572.906 245.246 572.416 244.167 571.533 243.578L544.979 224.59L545.868 244.763L572.121 259.96C572.318 260.059 572.612 260.157 572.906 260.157Z" fill="#5C66C0"/>
<path d="M522.692 193.659L523.245 210.02C523.323 218.075 533.532 224.59 546.114 224.59C558.744 224.59 568.982 218.025 568.982 209.928C568.982 209.418 568.942 208.914 568.862 208.417L568.521 193.659H522.692Z" fill="#959FFA"/>
<path d="M522.692 193.659L523.245 210.02C523.28 213.632 525.352 216.934 528.761 219.478L528.762 193.658L522.692 193.659Z" fill="#5C66C0"/>
<path d="M545.972 207.832C533.14 207.832 522.692 201.484 522.692 193.608C522.692 185.732 533.14 179.384 545.972 179.384C558.805 179.384 568.798 185.732 568.798 193.608C568.798 201.484 558.805 207.832 545.972 207.832Z" fill="#F8FCFF"/>
<path d="M550.344 186.349L530.705 182.868C525.799 185.472 522.692 189.313 522.692 193.608C522.692 197.276 524.958 200.612 528.675 203.13L550.344 186.349L530.705 182.868L550.344 186.349Z" fill="#D0D4FF"/>
<path d="M545.469 198.906C538.697 198.906 533.207 195.831 533.207 192.039C533.207 188.246 538.697 185.172 545.469 185.172C552.241 185.172 557.731 188.246 557.731 192.039C557.731 195.831 552.241 198.906 545.469 198.906Z" fill="#FF623F" fill-opacity="0.2"/>
<path d="M570.75 164.467C570.75 163.359 570.16 162.334 569.202 161.778L522.538 134.677C521.586 134.124 520.393 134.809 520.39 135.91L520.255 185.13C520.252 186.249 520.851 187.284 521.822 187.839L568.611 214.576C569.564 215.121 570.75 214.432 570.75 213.334V164.467Z" fill="#FF623F" fill-opacity="0.280021" stroke="#FF623F" stroke-width="0.5"/>
<path d="M549.5 157.233C549.5 156.724 549.229 156.253 548.788 155.997L525.456 142.446C525.063 142.218 524.571 142.501 524.569 142.955L524.503 163.138C524.502 163.653 524.777 164.129 525.224 164.384L548.617 177.752C549.011 177.977 549.5 177.693 549.5 177.24V157.233Z" fill="#FF623F" fill-opacity="0.193018" stroke="#F8F8F8" stroke-width="0.5"/>
<path d="M566.5 167.597C566.5 166.518 565.94 165.515 565.02 164.949L556.456 159.676C555.506 159.091 554.281 159.773 554.277 160.889L554.146 198.524C554.142 199.638 554.734 200.669 555.699 201.227L564.354 206.232C565.307 206.783 566.5 206.095 566.5 204.994V167.597Z" fill="#FF623F" fill-opacity="0.193018" stroke="#F8F8F8" stroke-width="0.5"/>
<path d="M546.844 193.562V185.594C546.844 185.145 546.48 184.781 546.031 184.781C545.583 184.781 545.219 185.145 545.219 185.594V193.562C545.219 194.011 545.583 194.375 546.031 194.375C546.48 194.375 546.844 194.011 546.844 193.562Z" fill="#FF623F" fill-opacity="0.280021" stroke="#FF623F" stroke-width="0.5"/>
<path d="M542.594 191.438V187.719C542.594 187.27 542.23 186.906 541.781 186.906C541.333 186.906 540.969 187.27 540.969 187.719V191.438C540.969 191.886 541.333 192.25 541.781 192.25C542.23 192.25 542.594 191.886 542.594 191.438Z" fill="#FF623F" fill-opacity="0.280021" stroke="#FF623F" stroke-width="0.5"/>
<path d="M538.344 189.313V183.469C538.344 183.02 537.98 182.656 537.531 182.656C537.083 182.656 536.719 183.02 536.719 183.469V189.313C536.719 189.761 537.083 190.125 537.531 190.125C537.98 190.125 538.344 189.761 538.344 189.313Z" fill="#FF623F" fill-opacity="0.280021" stroke="#FF623F" stroke-width="0.5"/>
<path d="M525.594 180.813V174.969C525.594 174.52 525.23 174.156 524.781 174.156C524.333 174.156 523.969 174.52 523.969 174.969V180.813C523.969 181.261 524.333 181.625 524.781 181.625C525.23 181.625 525.594 181.261 525.594 180.813Z" fill="#FF623F" fill-opacity="0.280021" stroke="#FF623F" stroke-width="0.5"/>
<path d="M529.844 182.938V179.219C529.844 178.77 529.48 178.406 529.031 178.406C528.583 178.406 528.219 178.77 528.219 179.219V182.938C528.219 183.386 528.583 183.75 529.031 183.75C529.48 183.75 529.844 183.386 529.844 182.938Z" fill="#FF623F" fill-opacity="0.280021" stroke="#FF623F" stroke-width="0.5"/>
<path d="M534.094 186.125V179.219C534.094 178.77 533.73 178.406 533.281 178.406C532.833 178.406 532.469 178.77 532.469 179.219V186.125C532.469 186.574 532.833 186.938 533.281 186.938C533.73 186.938 534.094 186.574 534.094 186.125Z" fill="#FF623F" fill-opacity="0.280021" stroke="#FF623F" stroke-width="0.5"/>
<path d="M404.432 259.428C403.736 259.025 403.307 258.282 403.307 257.478V227.225C403.307 226.429 403.727 225.692 404.412 225.287L411.504 221.084C412.208 220.667 413.084 220.665 413.79 221.078L440.662 236.797C441.353 237.201 441.777 237.941 441.777 238.742V269.074C441.777 269.885 441.341 270.634 440.635 271.034L433.608 275.016C432.913 275.41 432.061 275.406 431.369 275.006L404.432 259.428Z" fill="#F8FCFF" stroke="#E9EBFF" stroke-width="0.6144"/>
<path d="M433.81 241.773L441.706 237.402C441.927 237.764 442.056 238.172 442.08 238.599L442.084 238.742V269.074C442.084 269.947 441.639 270.757 440.91 271.226L440.786 271.301L433.759 275.283C433.396 275.489 432.995 275.599 432.591 275.614L432.489 244.021C432.486 243.087 432.992 242.225 433.81 241.773Z" fill="#5C66C0"/>
<path d="M413.81 220.739L413.945 220.813L440.817 236.532C441.187 236.748 441.489 237.049 441.706 237.402L433.736 241.692C432.958 242.112 432.018 242.099 431.25 241.66L405.206 226.74C405.053 226.652 404.919 226.533 404.814 226.391C404.414 225.851 404.502 225.1 404.999 224.666L405.081 224.6L405.535 224.263L411.348 220.82C412.059 220.399 412.924 220.35 413.671 220.674L413.81 220.739Z" fill="#D0D4FF"/>
<path d="M420.483 223.46C420.078 223.216 419.571 223.215 419.165 223.459L409.909 229.017C409.139 229.48 408.667 230.313 408.667 231.211V234.674L425.797 243.729C426.377 244.035 427.072 244.035 427.652 243.728L427.712 243.696C428.324 243.372 428.706 242.736 428.706 242.043C428.706 241.376 429.062 240.759 429.641 240.424L438.398 235.362C438.577 235.258 438.804 235.292 438.946 235.443L438.393 234.556C438.179 234.213 437.886 233.925 437.54 233.717L420.483 223.46Z" fill="#380085"/>
<path d="M419.194 222.793C418.793 222.565 418.299 222.57 417.903 222.808L408.629 228.377C407.859 228.84 407.387 229.673 407.387 230.572V233.283C407.387 233.746 407.638 234.174 408.043 234.4L425.522 244.163C426.375 244.639 427.426 244.023 427.426 243.045V241.8C427.426 240.887 427.913 240.043 428.704 239.585L436.792 234.901C437.202 234.664 437.71 234.672 438.111 234.923L438.946 235.443L438.854 234.987C438.709 234.259 438.255 233.631 437.61 233.264L419.194 222.793Z" fill="#959FFA"/>
<path d="M419.141 225.949L419.208 225.986C419.208 225.986 432.426 233.387 432.636 233.794C432.795 234.103 430.303 235.619 429.101 236.327C428.711 236.556 428.231 236.555 427.839 236.331L414.842 228.93C414.765 228.886 414.698 228.827 414.646 228.757C414.446 228.488 414.49 228.116 414.738 227.9L414.779 227.867L415.006 227.7L417.91 225.99C418.266 225.78 418.698 225.756 419.071 225.917L419.141 225.949Z" fill="#380085"/>
<path d="M407.5 240.302L426.428 250.792C426.969 251.091 427.651 250.896 427.95 250.355C428.25 249.814 428.055 249.132 427.514 248.832L408.586 238.343C408.045 238.043 407.363 238.238 407.063 238.779C406.764 239.32 406.959 240.002 407.5 240.302Z" fill="#FF623F"/>
<path d="M417.4 227.967V221.196C417.4 220.215 418.458 219.599 419.311 220.082L427.973 224.989C428.776 225.443 429.272 226.294 429.272 227.216V234.418" stroke="#733DFF" stroke-width="2.88" stroke-linecap="round"/>
<path d="M407.844 230.191L426.89 241.05C427.12 241.182 427.413 241.102 427.545 240.872C427.677 240.642 427.597 240.349 427.367 240.217L408.321 229.358C408.092 229.226 407.798 229.306 407.666 229.536C407.534 229.766 407.614 230.059 407.844 230.191Z" fill="#D0D4FF"/>
<defs>
<linearGradient id="paint0_linear" x1="1471.24" y1="145.833" x2="1397.9" y2="615.498" gradientUnits="userSpaceOnUse">
<stop stop-color="#A8A8A8"/>
<stop offset="1" stop-color="#F6F6F6"/>
</linearGradient>
</defs>
</svg>
