<svg width="707" height="597" viewBox="0 0 707 597" fill="none" xmlns="http://www.w3.org/2000/svg">
<path d="M712 242.5V489.5V597H-0.000366211L712 242.5Z" fill="url(#paint0_linear)" fill-opacity="0.2"/>
<path d="M633.463 278.567L656.026 334.189L664.07 331.442C667.895 330.167 670.152 326.145 669.171 322.123L660.931 287.69C660.146 284.551 657.595 282.197 654.456 281.707L633.463 278.567Z" fill="#959FFA"/>
<path d="M640.983 281.798L657.825 333.574L664.07 331.442C664.275 331.374 664.475 331.298 664.671 331.214C666.53 328.242 667.573 325.959 667.8 324.362C668.385 320.26 660.887 290.685 659.459 287.691C658.537 285.757 652.728 283.853 642.033 281.979L640.983 281.798Z" fill="black" fill-opacity="0.28827"/>
<path d="M622.476 284.061L615.707 315.55L628.264 325.654C628.754 329.48 628.754 332.717 628.264 335.366C627.479 339.29 638.172 376.665 641.311 379.804C644.45 382.943 650.336 381.766 652.592 379.804C654.064 378.529 660.244 374.115 671.329 366.757C671.329 368.131 671.133 369.014 670.74 369.21C670.152 369.602 667.994 370.779 667.994 371.76C667.994 372.643 669.367 374.409 671.329 374.409C673.291 374.409 679.863 373.134 680.943 370.387C681.531 368.817 681.825 359.4 681.335 357.34C680.943 355.182 679.177 353.514 677.705 353.907C677.313 354.005 675.645 354.593 672.8 355.574C672.408 355.77 671.133 354.986 670.74 355.182C668.19 356.163 661.912 358.91 652.004 363.618L654.162 340.467L661.323 335.366C659.459 331.05 658.086 325.851 657.105 319.768C656.124 313.686 656.124 303.582 657.105 289.456C654.162 286.317 642.771 283.071 637.093 283.08C631.415 283.089 630.315 283.071 622.476 284.061Z" fill="#733DFF"/>
<path d="M653.224 350.518L632.577 355.294C633.755 359.478 635.05 363.766 636.297 367.571C639.525 366.281 642.126 365.035 644.103 363.83L644.445 363.618C646.412 362.378 649.126 360.292 652.587 357.36L653.224 350.518Z" fill="black" fill-opacity="0.28827"/>
<path d="M620.355 293.931L615.707 315.55L628.264 325.654C628.662 328.761 628.737 331.48 628.489 333.81C633.461 334.189 637.257 333.493 639.876 331.721L640.134 331.54C642.938 329.506 649.512 329.489 659.857 331.491C658.714 328.039 657.808 324.131 657.105 319.768C656.4 315.398 656.201 308.95 656.51 300.426L651.432 297.873C649.257 300.688 647.256 301.627 645.431 300.688L644.58 300.242C641.552 298.633 636.196 295.629 634.896 295.629L634.722 295.625C633.593 295.584 630.492 295.18 625.419 294.413L620.355 293.931Z" fill="black" fill-opacity="0.28827"/>
<path d="M635.523 318.788C635.131 316.727 634.444 315.256 633.463 314.373C632.09 313 618.945 312.804 618.356 311.528C617.767 310.253 620.809 300.149 621.79 298.187C622.476 296.912 622.77 292.203 622.77 284.061C621.888 283.767 620.71 284.159 619.337 285.238C617.179 286.906 604.524 313.785 604.034 316.433C603.543 318.984 604.524 320.946 607.565 323.202C610.606 325.458 626.204 327.911 627.97 328.303C629.147 328.597 630.03 328.499 630.716 327.911C630.03 327.322 629.539 326.832 629.343 326.439C629.049 325.949 627.087 325.458 627.087 324.281C627.087 323.202 627.97 320.357 629.637 319.474C630.815 319.18 632.678 318.886 635.523 318.788Z" fill="#380085"/>
<path d="M612.046 298.581C611.322 297.806 611.745 295.303 612.99 292.989C614.236 290.676 615.832 289.428 616.556 290.203C617.279 290.977 616.856 293.481 615.611 295.794C614.365 298.108 612.769 299.356 612.046 298.581Z" fill="#959FFA"/>
<path d="M611.267 298.272C610.544 297.498 610.967 294.994 612.212 292.681C613.458 290.367 615.054 289.119 615.777 289.894C616.501 290.669 616.078 293.172 614.832 295.486C613.587 297.799 611.991 299.047 611.267 298.272Z" fill="#F8FCFF"/>
<path d="M635.523 319.585C635.523 319.585 640.983 320.381 640.983 322.152C640.983 323.924 639.125 324.362 639.125 324.362L635.523 319.585Z" fill="#5C66C0"/>
<path d="M630.815 328.009C633.789 331.093 641.115 327.322 640.232 324.281C639.643 322.319 638.074 320.455 635.523 318.886C635.523 318.788 635.523 318.788 635.523 318.689C632.678 318.689 630.52 318.997 629.539 319.585C627.773 320.468 626.903 323.283 626.903 324.362C626.903 325.441 629.009 326.094 629.303 326.683C629.401 327.075 630.161 327.332 630.815 328.009Z" fill="#959FFA"/>
<path d="M638.27 373.428C639.447 376.763 640.526 379.118 641.213 379.804C644.352 382.944 650.238 381.766 652.494 379.804C652.887 379.412 653.671 378.823 654.848 378.039C655.633 375.096 656.026 372.153 656.32 370.289C656.712 367.836 656.81 364.894 656.516 361.46C655.143 362.147 653.573 362.833 652.004 363.618L652.396 359.4C649.551 364.109 647.393 367.346 646.02 369.014C644.744 370.485 641.703 372.153 638.27 373.428Z" fill="#959FFA"/>
<path d="M671.133 366.757C671.133 368.131 670.937 368.915 670.544 369.21C669.956 369.602 667.797 370.779 667.797 371.76C667.797 372.643 669.171 374.409 671.133 374.409C673.095 374.409 679.667 373.134 680.746 370.387C681.335 368.817 681.629 359.4 681.139 357.34C680.746 355.182 678.981 353.514 677.509 353.906C677.117 354.005 675.449 354.593 672.604 355.574C672.506 355.574 672.408 355.574 672.212 355.574C672.604 356.948 672.702 358.419 672.506 360.087C672.31 362.049 671.819 364.305 671.133 366.757Z" fill="#959FFA"/>
<path d="M677.509 353.906L677.377 353.943C677.242 353.984 677.047 354.047 676.792 354.132C677.848 354.508 678.618 355.185 679.1 356.162C680.071 358.13 679.182 368.46 678.518 369.93C677.854 371.399 673.617 373.217 671.584 373.217C670.401 373.217 669.14 372.755 667.801 371.833L667.797 371.76C667.797 372.643 669.171 374.409 671.133 374.409L671.443 374.4C673.708 374.284 679.719 373.003 680.746 370.387C681.335 368.817 681.629 359.4 681.139 357.34C680.746 355.182 678.981 353.514 677.509 353.906Z" fill="#733DFF"/>
<path d="M645.627 302.896L644.646 311.136C644.646 311.823 644.058 312.411 643.371 312.411C643.273 312.411 643.175 312.411 643.077 312.411L623.261 307.114C622.672 306.918 622.28 306.427 622.28 305.839L623.261 298.089C623.261 297.402 623.85 296.814 624.536 296.814C624.634 296.814 624.732 296.814 624.831 296.814L644.646 301.62C645.137 301.817 645.627 302.307 645.627 302.896Z" fill="#F8FCFF"/>
<path d="M635.523 296.703C634.562 296.909 634.083 299.621 634.086 304.84L644.058 307.506H644.352C644.996 307.506 645.553 306.989 645.621 306.358L645.627 306.231L645.626 302.806L642.152 301.181C641.018 300.659 640.091 300.605 639.852 300.225L639.52 299.699C638.675 298.386 637.195 296.347 635.523 296.703Z" fill="#D5D9FF"/>
<path d="M657.007 289.506C654.75 290.29 650.826 296.127 650.826 298.383C650.826 299.953 651.513 303.484 652.788 309.076C646.51 304.269 642.979 301.915 642.194 301.915C640.919 301.915 640.919 302.307 640.428 302.209C639.938 302.209 639.643 302.013 639.545 301.62C639.251 300.934 639.447 299.757 638.859 299.168C637.583 297.893 635.719 295.146 634.052 295.146C632.286 295.146 625.91 293.773 625.517 294.557C625.125 295.342 625.811 295.636 626.204 295.833C626.596 296.029 631.207 297.5 631.403 298.187C631.697 298.874 630.618 304.073 631.403 305.054C632.188 306.035 633.757 308.487 634.64 308.487C635.229 308.487 636.112 308.095 636.897 308.095C637.289 308.095 637.779 308.095 637.878 308.487C638.172 309.37 637.878 310.449 638.172 310.94C638.466 311.528 652.887 325.164 657.007 326.733C661.127 328.303 665.149 324.281 666.032 322.123C666.915 320.063 665.051 310.94 663.383 305.054C661.813 299.462 659.165 288.721 657.007 289.506Z" fill="#380085"/>
<path d="M640.134 302.209C639.84 302.111 639.643 302.013 639.545 301.719C639.251 301.032 639.447 299.757 638.859 299.168C637.583 297.893 635.754 295.125 634.086 295.125C632.32 295.125 625.944 293.751 625.552 294.536C625.159 295.321 625.812 295.735 626.204 295.931C626.596 296.127 631.207 298.579 631.403 299.266C631.697 299.953 630.618 304.171 631.403 305.152C632.188 306.133 633.757 308.585 634.64 308.585C635.229 308.585 636.112 308.193 636.897 308.193C637.191 308.193 637.583 308.193 637.779 308.389C638.27 307.506 638.76 306.623 639.251 305.741C639.741 304.858 640.036 303.582 640.134 302.209Z" fill="#959FFA"/>
<path fill-rule="evenodd" clip-rule="evenodd" d="M635.561 318.724C633.72 318.234 631.957 318.142 630.173 318.441C628.389 318.741 626.863 319.741 625.595 321.443L612.21 318.187C612.261 317.208 612.493 316.532 613.107 316.073C613.926 315.429 618.638 311.746 621.283 311.885C623.928 312.024 633.606 312.924 634.735 313.867C635.385 314.589 635.695 316.177 635.561 318.724Z" fill="#BAC8FF"/>
<path d="M627.682 315.364C626.172 316.07 625.058 316.7 624.347 317.154C623.532 317.7 622.64 317.85 621.666 317.701L613.112 315.975C612.596 316.44 612.261 317.208 612.21 318.188L625.595 321.443C626.863 319.741 628.384 318.839 630.173 318.441C631.957 318.142 633.72 318.234 635.561 318.724C635.69 316.275 635.483 314.594 634.735 313.867C632.178 313.929 629.796 314.394 627.682 315.364Z" fill="#5C66C0"/>
<path d="M619.828 312.705L598.736 305.839C598.442 305.74 598.148 305.446 598.148 305.152L594.028 274.349C593.93 273.859 594.322 273.466 594.813 273.368C594.911 273.368 595.009 273.368 595.107 273.368L616.198 278.862C616.59 278.96 616.786 279.254 616.885 279.646L621.005 311.823C621.103 312.313 620.71 312.705 620.22 312.804C620.122 312.804 620.024 312.804 619.828 312.705Z" fill="#FF623F" fill-opacity="0.3"/>
<path d="M619.982 312.23L620.018 312.242L620.051 312.258C620.119 312.292 620.15 312.299 620.159 312.301C620.161 312.302 620.164 312.302 620.168 312.302C620.296 312.268 620.395 312.203 620.453 312.135C620.512 312.067 620.53 311.999 620.514 311.921L620.511 311.903L620.509 311.886L616.393 279.741C616.319 279.468 616.217 279.382 616.077 279.347L616.077 279.347L616.072 279.345L595.043 273.868H595.042H595.042H595.041H595.041H595.04H595.04H595.039H595.038H595.038H595.037H595.037H595.036H595.036H595.035H595.034H595.034H595.033H595.033H595.032H595.032H595.031H595.03H595.03H595.029H595.029H595.028H595.028H595.027H595.026H595.026H595.025H595.025H595.024H595.024H595.023H595.022H595.022H595.021H595.021H595.02H595.019H595.019H595.018H595.018H595.017H595.017H595.016H595.015H595.015H595.014H595.014H595.013H595.013H595.012H595.011H595.011H595.01H595.01H595.009H595.009H595.008H595.007H595.007H595.006H595.006H595.005H595.005H595.004H595.003H595.003H595.002H595.002H595.001H595.001H595H594.999H594.999H594.998H594.998H594.997H594.996H594.996H594.995H594.995H594.994H594.994H594.993H594.992H594.992H594.991H594.991H594.99H594.99H594.989H594.988H594.988H594.987H594.987H594.986H594.986H594.985H594.984H594.984H594.983H594.983H594.982H594.982H594.981H594.98H594.98H594.979H594.979H594.978H594.978H594.977H594.976H594.976H594.975H594.975H594.974H594.974H594.973H594.972H594.972H594.971H594.971H594.97H594.969H594.969H594.968H594.968H594.967H594.967H594.966H594.965H594.965H594.964H594.964H594.963H594.963H594.962H594.961H594.961H594.96H594.96H594.959H594.959H594.958H594.957H594.957H594.956H594.956H594.955H594.955H594.954H594.953H594.953H594.952H594.952H594.951H594.951H594.95H594.949H594.949H594.948H594.948H594.947H594.946H594.946H594.945H594.945H594.944H594.944H594.943H594.942H594.942H594.941H594.941H594.94H594.94H594.939H594.938H594.938H594.937H594.937H594.936H594.936H594.935H594.934H594.934H594.933H594.933H594.932H594.932H594.931H594.93H594.93H594.929H594.929H594.928H594.928H594.927H594.926H594.926H594.925H594.925H594.924H594.924H594.923H594.922H594.922H594.921H594.921H594.92H594.919H594.919H594.918H594.918H594.917H594.917H594.916H594.915H594.915H594.914H594.914H594.913H594.913H594.912H594.911H594.911H594.91H594.91H594.909H594.909H594.908H594.907H594.907H594.906H594.906H594.905H594.905H594.904H594.903H594.903H594.902H594.902H594.901H594.901H594.9H594.899H594.899H594.898H594.898H594.897H594.896H594.896H594.895H594.895H594.894H594.894H594.893H594.892H594.892H594.891H594.891H594.89H594.89H594.889H594.888H594.888H594.887H594.887H594.886H594.886H594.885H594.884H594.884H594.883H594.883H594.882H594.882H594.881H594.88H594.88H594.879H594.879H594.878H594.878H594.877H594.876H594.876H594.875H594.875H594.874H594.873H594.873H594.872H594.872H594.871H594.871H594.87H594.869H594.869H594.869C594.739 273.902 594.638 273.968 594.579 274.037C594.521 274.105 594.502 274.173 594.518 274.251L594.521 274.267L594.523 274.283L598.643 305.086L598.648 305.119L598.648 305.147C598.648 305.147 598.654 305.18 598.703 305.234C598.759 305.296 598.834 305.344 598.893 305.364C598.894 305.364 598.894 305.364 598.895 305.364L619.982 312.23Z" stroke="#FF623F" stroke-opacity="0.5"/>
<path d="M641.213 286.317L634.738 293.576C634.542 293.772 634.248 293.969 633.954 293.871L628.853 293.184C628.362 293.086 628.068 292.693 628.068 292.203C628.068 292.105 628.166 292.007 628.166 291.909L629.637 287.494C629.834 287.2 630.128 287.004 630.52 287.102L640.624 284.846C641.115 284.944 641.409 285.336 641.409 285.827C641.409 286.121 641.311 286.219 641.213 286.317Z" fill="#380085"/>
<path fill-rule="evenodd" clip-rule="evenodd" d="M640.886 285.656L634.738 292.595C634.542 292.792 634.248 292.988 633.954 292.89L628.853 292.203C628.362 292.105 628.068 291.713 628.068 291.222C628.068 291.124 628.166 291.026 628.166 290.928L629.637 286.513C629.834 286.219 630.128 286.023 630.52 286.121L638.664 283.966C639.154 284.064 641.017 284.748 641.017 285.238C641.017 285.532 640.984 285.558 640.886 285.656Z" fill="#BAC8FF"/>
<path d="M632.875 288.083C630.814 287.691 629.838 287.164 629.74 286.281L629.539 282.688C628.558 282.884 627.773 282.786 627.283 282.295C626.596 281.608 625.419 279.45 625.419 273.957C625.419 268.463 627.381 263.264 628.264 262.283C629.147 261.302 631.795 257.476 636.897 258.555C641.9 259.733 645.039 263.755 644.254 269.346C643.469 274.938 640.428 277.979 640.428 280.627C640.428 282.393 640.591 283.882 640.983 285.158C637.55 287.512 634.935 288.475 632.875 288.083Z" fill="#FFA877"/>
<path d="M634.248 281.775C632.993 282.279 631.582 282.577 630.014 282.667L629.539 282.687L629.622 284.643C630.226 284.604 630.972 284.427 631.858 284.112C633.214 283.63 634.01 282.851 634.248 281.775Z" fill="black" fill-opacity="0.28827"/>
<path d="M631.159 264.83C631.771 265.441 634.485 269.275 634.896 275.763C635.191 280.398 636.766 283.554 637.583 283.963C639.153 284.748 641.9 283.668 644.352 282.001C646.804 280.333 647.72 280.039 647.72 278.567C647.72 277.096 647.001 265.717 645.039 262.577C643.175 259.438 640.65 257.673 636.236 257.673C633.979 256.986 631.894 257.084 630.52 257.673C629.147 258.261 627.185 260.419 625.811 262.97C624.831 264.637 623.184 271.788 622.595 280.126L626.219 280.458C625.211 275.414 625.615 272.682 625.91 271.995C626.069 271.729 626.537 269.84 627.582 268.48C628.464 267.335 630.531 265.234 631.159 264.83Z" fill="#0D134E"/>
<path d="M629.245 342.723C619.926 350.081 615.021 354.103 614.628 354.691C613.942 355.574 613.157 362.833 614.628 366.561C616.1 370.289 617.571 397.658 616.787 398.639C616.002 399.62 604.328 409.92 603.543 411.49C602.759 413.06 607.369 414.825 611.489 413.746C615.609 412.667 624.732 407.468 625.517 405.31C626.302 403.152 626.008 399.718 625.517 398.639C625.027 397.56 625.027 391.674 625.517 389.81C626.008 388.045 629.245 383.336 629.245 376.175C629.245 371.368 628.754 367.738 627.872 365.286C638.172 362.343 645.235 359.694 649.159 357.34C653.083 354.986 657.105 350.767 661.323 344.783L659.459 338.603H638.172L629.245 342.723Z" fill="#733DFF"/>
<path d="M616.404 269.444C616.404 280.004 624.964 288.564 635.523 288.564C646.083 288.564 654.643 280.004 654.643 269.444C654.643 258.885 646.083 250.325 635.523 250.325C624.964 250.325 616.404 258.885 616.404 269.444Z" fill="#9286FF" fill-opacity="0.193018" stroke="#ECEAFE"/>
<path opacity="0.504464" fill-rule="evenodd" clip-rule="evenodd" d="M647.271 267.047C646.812 265.207 647.293 263.503 648.344 263.241C649.396 262.979 650.62 264.258 651.078 266.098C651.537 267.938 651.057 269.642 650.005 269.904C648.954 270.166 647.73 268.887 647.271 267.047Z" fill="white"/>
<path d="M662.402 338.701C662.402 340.663 662.01 342.723 661.323 344.784C656.81 342.233 652.102 340.958 647.393 340.958C642.586 340.958 636.602 341.546 629.245 342.625L629.049 341.742C635.327 336.739 641.017 333.993 646.02 333.306C651.023 332.619 655.731 332.325 660.146 332.325C661.617 334.679 662.402 336.739 662.402 338.701Z" fill="#959FFA"/>
<path d="M616.983 395.696C616.983 397.364 616.885 398.443 616.787 398.639C616.002 399.62 604.328 409.92 603.543 411.49C602.759 413.06 607.369 414.825 611.489 413.746C615.609 412.667 624.732 407.468 625.517 405.31C626.302 403.152 626.008 399.718 625.517 398.639C625.125 397.854 625.027 394.519 625.223 392.067C623.359 393.734 621.79 394.813 620.416 395.304C619.239 395.696 618.062 395.892 616.983 395.696Z" fill="#959FFA"/>
<path d="M610.42 412.429C608.895 412.691 606.738 412.194 603.948 410.936C603.746 411.172 603.608 411.361 603.543 411.49C602.759 413.059 607.369 414.825 611.489 413.746C615.609 412.667 624.732 407.468 625.517 405.31C625.66 404.918 625.766 404.485 625.843 404.032L624.085 405.125C616.687 409.7 612.132 412.135 610.42 412.429Z" fill="#733DFF"/>
<path d="M618.258 351.454C616.002 353.318 614.825 354.299 614.628 354.593C613.942 355.476 613.157 362.735 614.628 366.463C614.726 366.757 614.825 367.15 615.021 367.738C616.002 368.229 616.983 368.719 617.866 369.112C620.22 370.289 623.948 370.779 629.049 370.681C628.853 368.523 628.46 366.757 627.97 365.286C628.951 364.992 629.932 364.697 630.913 364.403C628.558 360.479 626.302 357.438 624.34 355.182C622.672 353.612 620.71 352.337 618.258 351.454Z" fill="#959FFA"/>
<path d="M652.429 307.08C652.429 307.08 661.698 315.665 660.778 317.625C659.857 319.585 652.788 309.076 652.788 309.076L652.429 307.08Z" fill="black" fill-opacity="0.28827"/>
<path d="M567.345 296.068C574.722 296.068 580.686 302.033 580.686 309.488V378.784C580.686 381.374 579.823 383.885 578.175 385.847C575.193 389.536 571.191 391.341 566.246 391.341C561.302 391.341 557.3 389.536 554.318 385.847C552.67 383.885 551.806 381.374 551.806 378.784V309.488C551.806 302.111 557.771 296.068 565.148 296.068H567.345V296.068Z" fill="#733DFF"/>
<path d="M571.307 296.665L565.735 299.453C573.029 304.512 576.676 309.004 576.676 312.928V350.061C576.676 356.732 578.172 368.553 576.168 368.553L575.784 368.559C573.944 368.609 568.463 368.957 559.34 369.602V379.598L580.459 381.062C580.585 380.442 580.659 379.809 580.68 379.169L580.686 378.784V309.488C580.686 303.427 576.745 298.352 571.307 296.665Z" fill="black" fill-opacity="0.28827"/>
<path fill-rule="evenodd" clip-rule="evenodd" d="M568.522 291.516C569.229 291.516 569.856 292.144 569.856 292.851V298.736C569.856 299.443 569.307 300.071 568.522 300.071H564.363C563.657 300.071 563.029 299.443 563.029 298.736V292.851C563.029 292.144 563.578 291.516 564.363 291.516H568.522Z" fill="#94A5E5"/>
<path fill-rule="evenodd" clip-rule="evenodd" d="M562.95 293.086V292.851C562.95 292.144 563.578 291.516 564.285 291.516H568.444C569.15 291.516 569.778 292.144 569.778 292.851V293.086C569.072 293.557 567.816 293.871 566.403 293.871C564.991 293.871 563.735 293.557 562.95 293.086Z" fill="#BAC8FF"/>
<path d="M570.327 310.665C571.269 310.665 572.054 311.45 572.054 312.392V340.487C572.054 341.429 571.269 342.213 570.327 342.213C569.386 342.213 568.601 341.429 568.601 340.487V312.392C568.601 311.371 569.386 310.665 570.327 310.665Z" fill="#293181"/>
<path d="M568.601 315.688H572.054V340.409C572.054 341.35 571.269 342.135 570.327 342.135C569.386 342.135 568.601 341.35 568.601 340.409V315.688Z" fill="#FF623F"/>
<path d="M568.718 293.871C579.705 297.01 587.063 303.092 590.594 312.019C591.771 315.158 592.36 318.788 592.458 323.398C592.556 326.734 592.36 329.382 591.968 336.249C591.771 339.879 591.771 345.765 593.341 350.571C596.873 361.656 599.129 365.384 599.521 370.093C600.012 376.665 597.952 381.276 592.752 383.925C589.515 385.494 586.278 385.69 583.041 384.611C580.785 383.827 578.921 382.748 575.978 380.589C573.231 378.529 572.642 378.137 571.563 377.646C571.269 377.45 570.975 377.352 570.68 377.254C567.541 376.273 562.342 377.45 557.045 379.02L555.181 372.938C561.557 371.074 568.032 369.799 572.544 371.27C573.133 371.466 573.721 371.662 574.31 371.957C575.88 372.742 576.468 373.134 579.705 375.488C584.512 379.02 586.768 379.805 589.908 378.235C592.556 376.96 593.537 374.802 593.145 370.583C592.851 366.561 590.692 363.128 587.259 352.533C585.395 346.844 585.395 339.584 585.591 335.857C586.376 323.202 586.376 318.592 584.708 314.373C581.962 307.408 576.174 302.7 567.051 300.051C565.874 298.874 565.481 297.5 565.972 296.029C566.364 294.459 567.345 293.773 568.718 293.871Z" fill="#FF623F"/>
<path d="M485.728 255.024L483.57 251.002C481.51 247.274 477.291 245.312 473.073 246.195L459.732 249.04C455.71 249.923 452.669 253.258 452.178 257.378L448.058 293.38C447.568 297.795 450.216 302.013 454.337 303.582L470.13 309.272L485.728 255.024Z" fill="#959FFA"/>
<path d="M478.059 281.698L475.973 246.278L474.935 246.657C464.71 250.426 459.01 253.395 457.835 255.564L457.78 255.672C456.199 258.98 453.456 258.601 452.686 264.641L451.584 274.092C450.561 283.054 449.372 294.895 450.128 298.749C450.283 299.54 450.491 300.359 450.753 301.205C451.741 302.233 452.956 303.057 454.337 303.582L461.203 306.056L475.01 292.303L478.059 281.698Z" fill="black" fill-opacity="0.28827"/>
<path d="M474.054 249.138C471.798 250.217 467.089 253.062 460.026 257.673C462.969 320.259 464.539 352.533 464.931 354.397C465.422 357.242 458.162 390.988 459.143 393.538C460.124 395.991 461.89 397.854 463.067 398.541C464.244 399.228 461.694 405.212 461.694 406.389C461.694 407.566 460.713 414.335 461.105 416.493C461.498 418.651 461.694 422.183 466.206 422.183C470.719 422.183 471.602 418.847 471.111 415.512C470.621 412.079 470.425 411.98 471.111 410.019C471.798 408.057 471.209 407.664 470.523 404.721C469.738 401.68 470.228 397.854 471.111 397.266C471.994 396.677 475.428 394.323 476.016 392.067C476.605 389.81 482.589 361.754 482.589 357.732C482.589 354.986 483.079 336.384 483.079 336.384C483.079 336.384 486.316 355.967 486.316 357.438C486.316 359.596 486.022 376.273 485.139 378.823C484.354 381.472 484.256 385.102 485.139 385.985C485.728 386.573 486.12 386.966 486.218 387.26C485.434 392.557 485.237 395.598 485.63 396.481C486.218 397.756 490.437 397.756 492.693 400.895C494.949 404.035 497.009 405.506 500.443 405.506C503.876 405.506 507.015 404.917 504.465 401.288C502.012 397.658 495.538 392.263 495.538 390.007V385.2C497.303 383.924 498.186 382.747 498.186 381.668C498.186 380.001 502.208 363.128 502.699 360.087C503.189 357.046 503.287 351.945 502.699 347.628C502.11 343.312 500.148 314.569 498.775 310.94C497.402 307.31 496.617 307.016 496.617 305.544C496.617 304.073 496.519 302.307 497.009 301.62C497.5 300.934 498.284 300.149 498.481 299.07C498.677 297.991 501.129 286.611 500.344 275.723C499.56 264.834 493.968 252.081 491.81 250.806C490.338 249.923 488.278 249.432 485.532 249.236C480.234 248.059 476.31 248.059 474.054 249.138Z" fill="#733DFF"/>
<path d="M499.756 268.674C499.756 268.674 486.261 278.782 481.117 277.783C475.974 276.783 470.081 266.698 470.081 266.698L460.73 292.644L465.393 313.294C465.393 313.294 469.172 314.441 470.081 310.876C470.99 307.31 467.065 293.205 470.081 291.026C473.097 288.847 475.484 300.34 479.953 300.34C484.421 300.34 498.499 297.752 498.499 297.752L501.325 277.783L499.756 268.674Z" fill="black" fill-opacity="0.28827"/>
<path d="M485.928 354.753C486.026 356.127 486.238 357.042 486.238 357.336C486.238 358.023 486.042 359.989 486.238 362.834C488.691 363.422 490.829 364.207 495.44 362.834C497.892 362.147 501.718 360.283 503.189 359.4C503.287 356.948 503.582 353.841 503.189 351.291C503.091 350.506 503.091 348.535 502.503 347.04C498.579 348.021 493.968 349.983 492.595 350.768C491.123 351.748 489.95 352.497 485.928 354.753Z" fill="#959FFA"/>
<path d="M463.558 326.243C467.384 326.537 470.979 325.943 473.431 326.826C476.178 327.807 481.028 329.939 483.275 331.246C485.728 329.718 489.263 326.436 492.347 324.345C495.409 322.269 496.631 321.515 500.177 320.08C499.649 315.538 499.265 312.019 498.775 310.94C497.99 308.88 497.487 308.193 497.094 307.408C493.563 309.763 490.927 311.921 489.259 314.177C487.297 316.727 485.532 320.75 483.766 326.243C481.313 321.927 478.371 317.807 475.035 314.177C471.896 310.645 467.678 308.389 462.479 307.408C463.067 314.471 463.362 320.848 463.558 326.243Z" fill="#959FFA"/>
<path d="M461.694 317.022C461.792 317.12 461.792 317.218 461.89 317.414C462.773 319.67 461.596 319.867 461.203 322.025C460.811 324.281 462.236 333.461 463.707 334.933C463.707 336.907 467.257 338.319 467.846 338.711C468.434 339.103 470.327 339.486 471.504 339.192C472.681 338.898 469.346 327.813 470.228 327.126C471.013 326.439 473.368 329.284 474.447 329.873C475.526 330.363 476.212 328.695 474.937 326.635C473.76 324.575 470.039 318.493 469.254 317.414C468.469 316.335 470.032 310.832 470.032 309.753C470.032 309.459 469.836 308.782 470.032 308.389C468.659 308.389 467.384 308.389 466.108 308.585C464.931 308.88 463.362 316.237 461.694 317.022Z" fill="black" fill-opacity="0.28827"/>
<path d="M486.218 387.064C486.316 387.064 486.316 387.064 486.218 387.064C485.434 392.459 485.237 395.5 485.63 396.383C486.218 397.658 490.437 397.658 492.693 400.797C494.949 403.936 497.009 405.408 500.443 405.408C503.876 405.408 507.015 404.819 504.465 401.19C502.012 397.56 495.538 392.165 495.538 389.908V385.2C493.87 385.788 492.202 386.279 490.633 386.573C489.161 386.867 487.69 387.064 486.218 387.064Z" fill="#959FFA"/>
<path d="M485.63 396.383C486.218 397.658 490.437 397.658 492.693 400.797C494.949 403.936 497.009 405.408 500.443 405.408L500.972 405.403C502.812 405.366 504.483 405.119 505.121 404.267C501.306 404.402 498.732 404.145 497.399 403.496C495.105 402.378 493.234 399.481 491.714 397.952C490.885 397.119 488.806 396.376 485.479 395.724C485.511 396.009 485.561 396.229 485.63 396.383Z" fill="#733DFF"/>
<path d="M461.105 418.455C461.498 420.613 462.871 423.54 466.215 423.54C469.3 423.54 471.494 421.166 471.179 418.024C470.909 420.34 469.561 422.183 466.206 422.183C461.694 422.183 461.498 418.651 461.105 416.493C461.076 416.333 461.055 416.147 461.04 415.94C460.994 416.977 461.001 417.88 461.105 418.455Z" fill="#733DFF"/>
<path d="M463.165 398.639C464.048 399.62 461.694 405.212 461.694 406.389C461.694 407.566 460.713 414.335 461.105 416.493C461.498 418.651 461.694 422.183 466.206 422.183C470.719 422.183 471.602 418.847 471.111 415.512C470.621 412.079 470.425 411.981 471.111 410.019C471.798 408.057 471.209 407.664 470.523 404.721C469.934 402.269 470.13 399.326 470.621 397.953C470.032 398.247 469.051 398.541 467.776 398.835C466.304 399.032 464.735 399.032 463.165 398.639Z" fill="#959FFA"/>
<path d="M464.931 354.593C465.029 355.672 464.441 359.4 463.656 364.011C467.089 365.188 470.13 365.776 472.681 365.776C475.526 365.776 478.469 365.384 481.608 364.697C482.196 361.264 482.589 358.615 482.589 357.634C482.589 357.046 482.589 356.163 482.589 355.084C479.352 354.495 476.409 354.201 473.858 354.201C471.602 354.201 468.659 354.299 464.931 354.593Z" fill="#959FFA"/>
<path d="M490.535 250.315C493.38 251.002 496.224 251.689 497.303 252.277C498.873 253.16 514.667 274.349 515.648 278.273C516.629 282.295 515.844 286.513 512.705 288.475C509.566 290.437 496.911 296.029 494.753 295.146C492.595 294.361 493.183 293.969 491.516 294.459C489.848 294.95 487.69 297.5 485.139 298.481C481.117 300.281 475.231 292.497 477.88 290.535C478.665 289.358 481.439 288.671 482.224 288.475C484.088 287.985 485.139 288.475 485.63 288.475C486.807 288.475 488.278 287.985 488.278 287.298C488.278 286.611 488.278 285.63 489.161 285.042C490.044 284.551 500.541 277.586 500.541 277.096C500.541 276.605 499.493 269.981 497.335 263.997C494.49 255.855 492.104 251.198 490.535 250.315Z" fill="#380085"/>
<path d="M486.022 288.612C486.022 288.612 483.479 287.097 482.606 287.097C481.732 287.097 477.965 287.015 477.706 287.652C477.446 288.289 479.32 290.6 479.32 290.6L486.022 288.612Z" fill="#5C66C0"/>
<path d="M487.922 288.037L487.777 287.957C487.245 288.277 486.378 288.475 485.63 288.475C485.163 288.475 484.186 288.03 482.484 288.412L482.224 288.475C481.439 288.671 478.665 289.358 477.88 290.535C475.266 292.472 480.966 300.08 484.982 298.547L485.139 298.481C487.69 297.5 489.848 294.95 491.516 294.459L491.851 294.365C492.053 294.311 492.213 294.276 492.348 294.258L492.238 293.895C491.904 292.83 491.531 291.873 491.116 291.026C490.591 289.952 489.526 288.956 487.922 288.037L487.777 287.957L487.922 288.037Z" fill="#959FFA"/>
<path fill-rule="evenodd" clip-rule="evenodd" d="M486.709 287.789C488.573 287.396 490.338 287.396 492.104 287.789C493.87 288.181 495.341 289.26 496.519 291.026L510.056 284.551C510.056 283.57 509.86 282.884 509.271 282.393C508.832 279.741 503.974 277.783 501.325 277.783C498.677 277.783 488.965 282.099 487.788 282.982C487.101 283.668 486.709 285.238 486.709 287.789Z" fill="#BAC8FF"/>
<path d="M498.316 287.094L509.205 282.293C509.695 282.784 510.181 283.239 510.056 284.551L496.519 291.026C495.341 289.26 493.87 288.447 492.104 287.957C490.338 287.564 488.573 287.564 486.709 287.957C486.709 285.504 487.034 284.648 487.819 283.961C494.442 282.841 497.335 287.192 498.316 287.094Z" fill="#5C66C0"/>
<path d="M504.764 272.738L504.747 272.744L504.73 272.752C504.647 272.794 504.595 272.81 504.56 272.817C504.532 272.822 504.509 272.824 504.475 272.824C504.076 272.735 503.85 272.439 503.91 272.142L503.912 272.133L503.913 272.125L508.031 239.964C508.117 239.629 508.267 239.441 508.532 239.375L508.532 239.375L508.545 239.371L529.6 232.908H529.6H529.601H529.602H529.602H529.603H529.603H529.604H529.604H529.605H529.606H529.606H529.607H529.607H529.608H529.608H529.609H529.61H529.61H529.611H529.611H529.612H529.612H529.613H529.614H529.614H529.615H529.615H529.616H529.617H529.617H529.618H529.618H529.619H529.619H529.62H529.621H529.621H529.622H529.622H529.623H529.623H529.624H529.625H529.625H529.626H529.626H529.627H529.627H529.628H529.629H529.629H529.63H529.63H529.631H529.631H529.632H529.633H529.633H529.634H529.634H529.635H529.635H529.636H529.637H529.637H529.638H529.638H529.639H529.639H529.64H529.641H529.641H529.642H529.642H529.643H529.644H529.644H529.645H529.645H529.646H529.646H529.647H529.648H529.648H529.649H529.649H529.65H529.65H529.651H529.652H529.652H529.653H529.653H529.654H529.654H529.655H529.656H529.656H529.657H529.657H529.658H529.658H529.659H529.66H529.66H529.661H529.661H529.662H529.662H529.663H529.664H529.664H529.665H529.665H529.666H529.667H529.667H529.668H529.668H529.669H529.669H529.67H529.671H529.671H529.672H529.672H529.673H529.673H529.674H529.675H529.675H529.676H529.676H529.677H529.677H529.678H529.679H529.679H529.68H529.68H529.681H529.681H529.682H529.683H529.683H529.684H529.684H529.685H529.685H529.686H529.687H529.687H529.688H529.688H529.689H529.69H529.69H529.691H529.691H529.692H529.692H529.693H529.694H529.694H529.695H529.695H529.696H529.696H529.697H529.698H529.698H529.699H529.699H529.7H529.7H529.701H529.702H529.702H529.703H529.703H529.704H529.704H529.705H529.706H529.706H529.707H529.707H529.708H529.708H529.709H529.71H529.71H529.711H529.711H529.712H529.712H529.713H529.714H529.714H529.715H529.715H529.716H529.717H529.717H529.718H529.718H529.719H529.719H529.72H529.721H529.721H529.722H529.722H529.723H529.723H529.724H529.725H529.725H529.726H529.726H529.727H529.727H529.728H529.729H529.729H529.73H529.73H529.731H529.731H529.732H529.733H529.733H529.734H529.734H529.735H529.735H529.736H529.737H529.737H529.738H529.738H529.739H529.74H529.74H529.741H529.741H529.742H529.742H529.743H529.744H529.744H529.745H529.745H529.746H529.746H529.747H529.748H529.748H529.749H529.749H529.75H529.75H529.751H529.752H529.752H529.753H529.753H529.754H529.754H529.755H529.756H529.756H529.757H529.757H529.758H529.758H529.759H529.76H529.76H529.761H529.761H529.762H529.763H529.763H529.764H529.764H529.765H529.765H529.766H529.767H529.767H529.768H529.768H529.769H529.769H529.77H529.771H529.771H529.772H529.772H529.773H529.773H529.774H529.775H529.775H529.776H529.776H529.777H529.777H529.778H529.779H529.779H529.78H529.78H529.781H529.781H529.782H529.783H529.783H529.784H529.784H529.785H529.785H529.786H529.787H529.787H529.788H529.788H529.789H529.79H529.79H529.791H529.791H529.792H529.792H529.793H529.794H529.794H529.795H529.795H529.796H529.796H529.797H529.798H529.798H529.799H529.799H529.8H529.8H529.801H529.802H529.802H529.803H529.803H529.804H529.804H529.805H529.806H529.806H529.807H529.807H529.808H529.808H529.809H529.81H529.81H529.811H529.811H529.812H529.813H529.813H529.814H529.814H529.815H529.815H529.816H529.817H529.817H529.818H529.818H529.819H529.819H529.82H529.821H529.821H529.822H529.822H529.823H529.823H529.824H529.825H529.825H529.826H529.826H529.827H529.827H529.828H529.829H529.829H529.83H529.83H529.831C530.23 232.997 530.456 233.292 530.396 233.59L530.395 233.598L530.394 233.607L526.274 265.39L526.271 265.406V265.422C526.271 265.487 526.237 265.578 526.152 265.672C526.069 265.764 525.958 265.837 525.854 265.872C525.854 265.872 525.854 265.872 525.854 265.872L504.764 272.738Z" fill="#FF623F" fill-opacity="0.280021" stroke="#FF623F" stroke-width="0.5"/>
<path d="M456.495 259.537C457.966 257.869 460.124 257.378 461.89 257.378C463.656 257.378 471.7 260.419 470.621 269.935C469.542 279.549 466.795 283.865 466.795 287.789C466.795 291.713 467.58 294.165 468.168 297.108C468.757 300.051 469.346 309.174 468.757 310.547C468.168 311.921 466.893 313.49 466.893 314.471C466.893 315.55 466.501 316.924 467.285 318.003C468.07 319.082 470.817 321.633 472.092 323.791C473.269 325.851 472.681 327.616 471.602 327.028C470.523 326.537 468.168 323.594 467.384 324.281C466.599 324.968 468.855 336.053 467.678 336.347C466.501 336.641 466.108 335.072 465.52 334.68C464.931 334.287 461.105 334.091 459.732 332.718C458.26 331.246 457.966 322.417 458.359 320.161C458.751 317.905 459.928 317.807 459.045 315.55C458.162 313.294 456.2 313.294 455.71 311.528C455.219 309.763 451.492 294.361 451.982 290.928C452.571 287.494 453.454 277.194 453.454 275.036C453.356 272.78 455.023 261.204 456.495 259.537Z" fill="#380085"/>
<path d="M458.751 315.06C458.849 315.158 458.849 315.256 458.947 315.452C459.83 317.708 458.653 317.905 458.26 320.063C457.868 322.319 458.162 331.148 459.634 332.619C461.007 334.091 465.295 335.376 465.884 335.768C466.472 336.16 467.384 337.524 468.561 337.23C469.738 336.936 467.384 325.851 468.266 325.164C469.051 324.477 471.406 327.322 472.485 327.911C473.564 328.401 474.25 326.733 472.975 324.673C471.798 322.613 467.929 318.986 467.31 317.92C466.69 316.853 467.015 315.396 467.015 314.317C467.015 314.023 467.113 313.631 467.31 313.238C465.936 313.238 464.441 313.294 463.165 313.49C461.988 313.785 460.419 314.275 458.751 315.06Z" fill="#959FFA"/>
<path d="M459.511 263.2C461.777 263.398 463.401 266.009 463.136 269.032C462.872 272.054 460.82 274.343 458.553 274.145C456.286 273.947 454.663 271.336 454.927 268.313C455.192 265.291 457.244 263.002 459.511 263.2Z" fill="#959FFA"/>
<path d="M458.259 263.09C460.526 263.289 462.149 265.899 461.885 268.922C461.62 271.944 459.568 274.234 457.302 274.035C455.035 273.837 453.412 271.226 453.676 268.204C453.94 265.181 455.992 262.892 458.259 263.09Z" fill="#F8FCFF"/>
<path d="M496.813 265.716C496.715 265.226 496.322 264.932 495.832 265.03L472.681 268.561C472.19 268.659 471.896 269.052 471.994 269.542L473.466 280.039C473.564 280.529 473.956 280.824 474.447 280.725L497.794 276.9C498.284 276.802 498.579 276.409 498.481 275.919L496.813 265.716Z" fill="#F8FCFF"/>
<path d="M484.892 248.899L474.553 248.84L473.186 249.551L480.174 258.556C480.37 258.85 480.665 259.046 481.057 259.046L486.415 258.163H486.513C487.003 258.065 487.297 257.574 487.101 257.084L484.892 248.899Z" fill="#380085"/>
<path fill-rule="evenodd" clip-rule="evenodd" d="M485.237 249.138H474.152L480.921 257.575C481.117 257.869 481.412 258.065 481.804 258.065L486.415 257.182H486.513C487.003 257.084 487.297 256.594 487.101 256.103L485.237 249.138Z" fill="#BAC8FF"/>
<path d="M481.117 250.315C478.763 250.315 476.507 249.923 474.054 249.138C474.349 245.508 474.349 242.565 474.054 240.309C473.662 236.974 473.368 224.908 478.174 223.633C482.981 222.259 488.965 224.221 491.221 228.537C494.557 234.816 490.044 247.176 488.082 247.568C487.396 247.765 486.415 247.667 485.041 247.47V249.825C484.747 250.217 483.472 250.315 481.117 250.315Z" fill="#FFA877"/>
<path d="M480.174 246.461C480.995 247.714 481.969 248.507 483.097 248.84C483.806 249.05 484.455 249.145 485.042 249.125L485.041 247.47L485.256 247.501L485.237 247.469C484.346 247.471 483.569 247.406 482.908 247.274C482.248 247.143 481.336 246.872 480.174 246.461Z" fill="black" fill-opacity="0.28827"/>
<path d="M495.636 227.164C496.322 228.537 495.734 233.835 492.497 233.835C489.161 233.835 484.649 230.499 483.177 230.499C481.804 230.499 482.098 235.601 481.117 235.895C480.136 236.287 481.51 233.05 479.94 232.461C478.371 231.873 477.488 232.756 477.488 233.246C477.488 233.737 477.095 237.072 475.82 237.857C474.937 238.347 474.349 238.838 474.054 239.426C472.877 238.151 472.19 236.778 472.19 235.306C472.19 233.05 472.19 228.145 472.975 226.87C473.564 225.987 474.643 225.006 476.409 224.025C477.095 221.671 478.174 220.592 479.45 220.592C481.51 220.592 484.158 222.357 485.237 222.357C486.317 222.357 490.24 222.161 491.418 223.24C492.595 224.417 491.516 226.281 492.006 226.576C492.497 226.87 494.949 225.791 495.636 227.164Z" fill="#380085"/>
<path d="M462.881 234.718C462.881 245.331 471.485 253.935 482.098 253.935C492.712 253.935 501.316 245.331 501.316 234.718C501.316 224.104 492.712 215.5 482.098 215.5C471.485 215.5 462.881 224.104 462.881 234.718Z" fill="#9286FF" fill-opacity="0.193018" stroke="#ECEAFE"/>
<path opacity="0.504464" fill-rule="evenodd" clip-rule="evenodd" d="M493.744 228.402C493.003 226.656 493.211 224.898 494.209 224.474C495.206 224.051 496.615 225.123 497.356 226.868C498.097 228.614 497.889 230.372 496.892 230.795C495.894 231.219 494.485 230.147 493.744 228.402Z" fill="white"/>
<path fill-rule="evenodd" clip-rule="evenodd" d="M505.317 405.25L505.121 391.026C505.121 390.339 505.513 389.75 506.102 389.456L524.74 379.941C525.133 379.744 525.525 379.744 525.917 379.744L560.35 387.004L506.102 406.721C505.611 406.525 505.317 405.937 505.317 405.25Z" fill="#BAC8FF"/>
<path d="M505.317 405.25L505.121 391.026C505.121 390.339 505.513 389.75 506.102 389.456L524.74 379.941C525.133 379.744 525.525 379.744 525.917 379.744L560.35 387.004L594.88 417.12C595.273 417.414 595.469 417.904 595.469 418.395V432.227C595.469 432.815 595.175 433.404 594.586 433.698L573.789 445.862C573.201 446.157 572.612 446.157 572.023 445.862L506.102 406.721C505.611 406.525 505.317 405.937 505.317 405.25Z" fill="#959FFA"/>
<path d="M505.317 405.25L505.121 391.026C505.121 390.339 505.513 389.75 506.102 389.456L524.74 379.941C525.133 379.744 525.525 379.744 525.917 379.744L560.35 387.004L506.102 406.721C505.611 406.525 505.317 405.937 505.317 405.25Z" fill="#D0D4FF"/>
<path d="M521.994 391.516C525.244 391.516 527.879 390.74 527.879 388.573C527.879 386.406 525.637 384.709 522.386 384.709C519.135 384.709 516.892 386.445 516.892 388.143C516.892 389.84 518.743 391.516 521.994 391.516Z" fill="#5C66C0"/>
<path d="M522.19 391.908C524.899 391.908 527.095 390.591 527.095 388.966C527.095 387.34 524.899 386.023 522.19 386.023C519.481 386.023 517.253 387.34 517.253 388.966C517.253 390.591 519.481 391.908 522.19 391.908Z" fill="#F8FCFF"/>
<path d="M520.659 387.29L519.974 387.534L523.214 390.405L523.739 389.989L520.659 387.29Z" fill="#A4B6C5"/>
<path d="M572.906 446.157V432.325C572.906 431.246 572.416 430.167 571.533 429.578L536.806 403.092L505.219 390.633C505.219 390.829 505.121 390.928 505.121 391.124L505.317 405.348C505.317 405.937 505.611 406.525 506.2 406.819L572.122 445.96C572.318 446.059 572.612 446.157 572.906 446.157Z" fill="#5C66C0"/>
<path d="M587.188 404.392V390.854C587.188 390.265 586.894 389.677 586.306 389.383L568.803 379.842C568.411 379.646 567.92 379.548 567.528 379.646L535.295 385.459L497.135 417.144C496.742 417.439 496.546 418.027 496.546 418.518L496.742 432.251C496.742 432.84 497.037 433.429 497.625 433.723L518.324 445.691C518.912 445.985 519.501 445.985 520.09 445.691L586.404 405.961C586.894 405.569 587.188 405.078 587.188 404.392Z" fill="#F8FCFF"/>
<path d="M567.797 390.988C571.048 390.988 573.82 389.819 573.82 387.652C573.82 385.485 571.577 383.789 568.326 383.789C565.076 383.789 562.833 385.525 562.833 387.222C562.833 388.919 564.546 390.988 567.797 390.988Z" fill="#5C66C0"/>
<path d="M568.13 390.988C570.839 390.988 573.035 389.67 573.035 388.045C573.035 386.419 570.839 385.102 568.13 385.102C565.421 385.102 563.193 386.419 563.193 388.045C563.193 389.67 565.421 390.988 568.13 390.988Z" fill="#F8FCFF"/>
<path d="M566.364 387.985V388.633L570.42 388.143V387.573L566.364 387.985Z" fill="#A4B6C5"/>
<path d="M535.295 385.459L497.135 417.144C496.742 417.439 496.546 418.027 496.546 418.518L496.742 432.251C496.742 432.84 497.037 433.428 497.625 433.723L518.324 445.691C518.912 445.985 519.501 445.985 520.09 445.691L545.371 412.177L535.295 385.459Z" fill="#D0D4FF"/>
<path d="M517.413 421.006C513.35 421.006 510.056 418.81 510.056 416.101C510.056 413.392 513.35 411.196 517.413 411.196C521.477 411.196 524.771 413.392 524.771 416.101C524.771 418.81 521.477 421.006 517.413 421.006Z" fill="#5C66C0"/>
<path d="M517.413 421.006C513.892 421.006 511.037 419.468 511.037 417.572C511.037 415.676 513.892 414.139 517.413 414.139C520.935 414.139 523.79 415.676 523.79 417.572C523.79 419.468 520.935 421.006 517.413 421.006Z" fill="#F8FCFF"/>
<path d="M520.354 416.101L520.847 416.75L513.216 418.414L512.937 417.719L520.354 416.101Z" fill="#A4B6C5"/>
<path d="M497.135 417.144C496.742 417.537 496.448 418.027 496.448 418.518L496.644 432.153C496.644 432.742 496.939 433.33 497.527 433.625L518.226 445.593C518.52 445.789 518.912 445.887 519.305 445.789V431.467C519.305 430.191 518.618 429.014 517.539 428.426L497.135 417.144Z" fill="#5C66C0"/>
<path d="M586.992 390.167L562.768 397.755L519.893 429.014C519.501 429.308 519.305 429.799 519.305 430.387V445.887C519.501 445.887 519.795 445.789 519.991 445.691L586.306 406.942C586.894 406.648 587.189 406.059 587.189 405.471V390.952C587.189 390.658 587.09 390.364 586.992 390.167Z" fill="#959FFA"/>
<path d="M560.35 387.004L594.88 417.12C595.273 417.414 595.469 417.904 595.469 418.395L572.906 431.486L545.884 430.731L545.371 409.055L560.35 387.004Z" fill="#F8FCFF"/>
<path d="M573.329 420.025C569.266 420.025 565.972 417.829 565.972 415.12C565.972 412.411 569.266 410.215 573.329 410.215C577.392 410.215 580.686 412.411 580.686 415.12C580.686 417.829 577.392 420.025 573.329 420.025Z" fill="#5C66C0"/>
<path d="M573.329 420.025C569.808 420.025 566.953 418.487 566.953 416.591C566.953 414.695 569.808 413.158 573.329 413.158C576.851 413.158 579.705 414.695 579.705 416.591C579.705 418.487 576.851 420.025 573.329 420.025Z" fill="#F8FCFF"/>
<rect width="0.980979" height="4.90489" transform="matrix(-1 0 0 1 573.82 414.139)" fill="#A4B6C5"/>
<path d="M572.906 446.157V432.325C572.906 431.246 572.416 430.167 571.533 429.578L544.979 410.59L545.868 430.763L572.121 445.96C572.318 446.059 572.612 446.157 572.906 446.157Z" fill="#5C66C0"/>
<path d="M522.692 379.659L523.245 396.02C523.323 404.075 533.532 410.59 546.114 410.59C558.744 410.59 568.982 404.025 568.982 395.928C568.982 395.418 568.942 394.914 568.862 394.417L568.521 379.659H522.692Z" fill="#959FFA"/>
<path d="M522.692 379.659L523.245 396.02C523.28 399.632 525.352 402.934 528.761 405.478L528.762 379.658L522.692 379.659Z" fill="#5C66C0"/>
<path d="M545.972 393.832C533.14 393.832 522.692 387.484 522.692 379.608C522.692 371.732 533.14 365.384 545.972 365.384C558.805 365.384 568.798 371.732 568.798 379.608C568.798 387.484 558.805 393.832 545.972 393.832Z" fill="#F8FCFF"/>
<path d="M550.344 372.349L530.705 368.868C525.799 371.472 522.692 375.313 522.692 379.608C522.692 383.276 524.958 386.612 528.675 389.13L550.344 372.349L530.705 368.868L550.344 372.349Z" fill="#D0D4FF"/>
<path d="M545.469 384.906C538.697 384.906 533.207 381.831 533.207 378.039C533.207 374.246 538.697 371.172 545.469 371.172C552.241 371.172 557.731 374.246 557.731 378.039C557.731 381.831 552.241 384.906 545.469 384.906Z" fill="#FF623F" fill-opacity="0.2"/>
<path d="M570.75 350.467C570.75 349.359 570.16 348.334 569.202 347.778L522.538 320.677C521.586 320.124 520.393 320.809 520.39 321.91L520.255 371.13C520.252 372.249 520.851 373.284 521.822 373.839L568.611 400.576C569.564 401.121 570.75 400.432 570.75 399.334V350.467Z" fill="#FF623F" fill-opacity="0.280021" stroke="#FF623F" stroke-width="0.5"/>
<path d="M549.5 343.233C549.5 342.724 549.229 342.253 548.788 341.997L525.456 328.446C525.063 328.218 524.571 328.501 524.569 328.955L524.503 349.138C524.502 349.653 524.777 350.129 525.224 350.384L548.617 363.752C549.011 363.977 549.5 363.693 549.5 363.24V343.233Z" fill="#FF623F" fill-opacity="0.193018" stroke="#F8F8F8" stroke-width="0.5"/>
<path d="M566.5 353.597C566.5 352.518 565.94 351.515 565.02 350.949L556.456 345.676C555.506 345.091 554.281 345.773 554.277 346.889L554.146 384.524C554.142 385.638 554.734 386.669 555.699 387.227L564.354 392.232C565.307 392.783 566.5 392.095 566.5 390.994V353.597Z" fill="#FF623F" fill-opacity="0.193018" stroke="#F8F8F8" stroke-width="0.5"/>
<path d="M546.844 379.562V371.594C546.844 371.145 546.48 370.781 546.031 370.781C545.583 370.781 545.219 371.145 545.219 371.594V379.562C545.219 380.011 545.583 380.375 546.031 380.375C546.48 380.375 546.844 380.011 546.844 379.562Z" fill="#FF623F" fill-opacity="0.280021" stroke="#FF623F" stroke-width="0.5"/>
<path d="M542.594 377.438V373.719C542.594 373.27 542.23 372.906 541.781 372.906C541.333 372.906 540.969 373.27 540.969 373.719V377.438C540.969 377.886 541.333 378.25 541.781 378.25C542.23 378.25 542.594 377.886 542.594 377.438Z" fill="#FF623F" fill-opacity="0.280021" stroke="#FF623F" stroke-width="0.5"/>
<path d="M538.344 375.313V369.469C538.344 369.02 537.98 368.656 537.531 368.656C537.083 368.656 536.719 369.02 536.719 369.469V375.313C536.719 375.761 537.083 376.125 537.531 376.125C537.98 376.125 538.344 375.761 538.344 375.313Z" fill="#FF623F" fill-opacity="0.280021" stroke="#FF623F" stroke-width="0.5"/>
<path d="M525.594 366.813V360.969C525.594 360.52 525.23 360.156 524.781 360.156C524.333 360.156 523.969 360.52 523.969 360.969V366.813C523.969 367.261 524.333 367.625 524.781 367.625C525.23 367.625 525.594 367.261 525.594 366.813Z" fill="#FF623F" fill-opacity="0.280021" stroke="#FF623F" stroke-width="0.5"/>
<path d="M529.844 368.938V365.219C529.844 364.77 529.48 364.406 529.031 364.406C528.583 364.406 528.219 364.77 528.219 365.219V368.938C528.219 369.386 528.583 369.75 529.031 369.75C529.48 369.75 529.844 369.386 529.844 368.938Z" fill="#FF623F" fill-opacity="0.280021" stroke="#FF623F" stroke-width="0.5"/>
<path d="M534.094 372.125V365.219C534.094 364.77 533.73 364.406 533.281 364.406C532.833 364.406 532.469 364.77 532.469 365.219V372.125C532.469 372.574 532.833 372.938 533.281 372.938C533.73 372.938 534.094 372.574 534.094 372.125Z" fill="#FF623F" fill-opacity="0.280021" stroke="#FF623F" stroke-width="0.5"/>
<path d="M404.432 445.428C403.736 445.025 403.307 444.282 403.307 443.478V413.225C403.307 412.429 403.727 411.692 404.412 411.287L411.504 407.084C412.208 406.667 413.084 406.665 413.79 407.078L440.662 422.797C441.353 423.201 441.777 423.941 441.777 424.742V455.074C441.777 455.885 441.341 456.634 440.635 457.034L433.608 461.016C432.913 461.41 432.061 461.406 431.369 461.006L404.432 445.428Z" fill="#F8FCFF" stroke="#E9EBFF" stroke-width="0.6144"/>
<path d="M433.81 427.773L441.706 423.402C441.927 423.764 442.056 424.172 442.08 424.599L442.084 424.742V455.074C442.084 455.947 441.639 456.757 440.91 457.226L440.786 457.301L433.759 461.283C433.396 461.489 432.995 461.599 432.591 461.614L432.489 430.021C432.486 429.087 432.992 428.225 433.81 427.773Z" fill="#5C66C0"/>
<path d="M413.81 406.739L413.945 406.813L440.817 422.532C441.187 422.748 441.489 423.049 441.706 423.402L433.736 427.692C432.958 428.112 432.018 428.099 431.25 427.66L405.206 412.74C405.053 412.652 404.919 412.533 404.814 412.391C404.414 411.851 404.502 411.1 404.999 410.666L405.081 410.6L405.535 410.263L411.348 406.82C412.059 406.399 412.924 406.35 413.671 406.674L413.81 406.739Z" fill="#D0D4FF"/>
<path d="M420.483 409.46C420.078 409.216 419.571 409.215 419.165 409.459L409.909 415.017C409.139 415.48 408.667 416.313 408.667 417.211V420.674L425.797 429.729C426.377 430.035 427.072 430.035 427.652 429.728L427.712 429.696C428.324 429.372 428.706 428.736 428.706 428.043C428.706 427.376 429.062 426.759 429.641 426.424L438.398 421.362C438.577 421.258 438.804 421.292 438.946 421.443L438.393 420.556C438.179 420.213 437.886 419.925 437.54 419.717L420.483 409.46Z" fill="#380085"/>
<path d="M419.194 408.793C418.793 408.565 418.299 408.57 417.903 408.808L408.629 414.377C407.859 414.84 407.387 415.673 407.387 416.572V419.283C407.387 419.746 407.638 420.174 408.043 420.4L425.522 430.163C426.375 430.639 427.426 430.023 427.426 429.045V427.8C427.426 426.887 427.913 426.043 428.704 425.585L436.792 420.901C437.202 420.664 437.71 420.672 438.111 420.923L438.946 421.443L438.854 420.987C438.709 420.259 438.255 419.631 437.61 419.264L419.194 408.793Z" fill="#959FFA"/>
<path d="M419.141 411.949L419.208 411.986C419.208 411.986 432.426 419.387 432.636 419.794C432.795 420.103 430.303 421.619 429.101 422.327C428.711 422.556 428.231 422.555 427.839 422.331L414.842 414.93C414.765 414.886 414.698 414.827 414.646 414.757C414.446 414.488 414.49 414.116 414.738 413.9L414.779 413.867L415.006 413.7L417.91 411.99C418.266 411.78 418.698 411.756 419.071 411.917L419.141 411.949Z" fill="#380085"/>
<path d="M407.5 426.302L426.428 436.792C426.969 437.091 427.651 436.896 427.95 436.355C428.25 435.814 428.055 435.132 427.514 434.832L408.586 424.343C408.045 424.043 407.363 424.238 407.063 424.779C406.764 425.32 406.959 426.002 407.5 426.302Z" fill="#FF623F"/>
<path d="M417.4 413.967V407.196C417.4 406.215 418.458 405.599 419.311 406.082L427.973 410.989C428.776 411.443 429.272 412.294 429.272 413.216V420.418" stroke="#733DFF" stroke-width="2.88" stroke-linecap="round"/>
<path d="M407.844 416.191L426.89 427.05C427.12 427.182 427.413 427.102 427.545 426.872C427.677 426.642 427.597 426.349 427.367 426.217L408.321 415.358C408.092 415.226 407.798 415.306 407.666 415.536C407.534 415.766 407.614 416.059 407.844 416.191Z" fill="#D0D4FF"/>
<circle cx="415.452" cy="536.01" r="6.45192" transform="rotate(90 415.452 536.01)" fill="#CCCCCC" fill-opacity="0.3"/>
<path opacity="0.4" d="M714 495.538H624.552C623.764 495.538 623.05 496.001 622.727 496.719L605.708 534.624C605.386 535.342 604.672 535.805 603.884 535.805H423.077" stroke="#CCCCCC"/>
<path d="M454 -58L457.73 140.866C457.744 141.613 458.173 142.29 458.842 142.621L571.923 198.572C573.252 199.229 574.81 198.262 574.81 196.779V113.915C574.81 112.499 576.24 111.532 577.554 112.058L710 165.157" stroke="#CCCCCC" stroke-opacity="0.5"/>
<defs>
<linearGradient id="paint0_linear" x1="1471.24" y1="331.833" x2="1397.9" y2="801.498" gradientUnits="userSpaceOnUse">
<stop stop-color="#A8A8A8"/>
<stop offset="1" stop-color="#F6F6F6"/>
</linearGradient>
</defs>
</svg>
