<svg width="20" height="21" viewBox="0 0 20 21" fill="none" xmlns="http://www.w3.org/2000/svg">
<g clip-path="url(#clip0)">
<path d="M14.5863 0H5.41393C2.42871 0 0.00012207 2.55001 0.00012207 5.6845V15.3156C0.00012207 18.4499 2.42871 21 5.41393 21H14.5864C17.5715 21 20.0001 18.4499 20.0001 15.3156V5.6845C20.0001 2.55001 17.5715 0 14.5863 0V0ZM10.0001 16.242C6.98467 16.242 4.53152 13.6662 4.53152 10.5C4.53152 7.33377 6.98467 4.75796 10.0001 4.75796C13.0155 4.75796 15.4687 7.33377 15.4687 10.5C15.4687 13.6662 13.0155 16.242 10.0001 16.242ZM15.5995 6.11212C14.7083 6.11212 13.9836 5.35109 13.9836 4.41542C13.9836 3.47975 14.7083 2.71856 15.5995 2.71856C16.4906 2.71856 17.2155 3.47975 17.2155 4.41542C17.2155 5.35109 16.4906 6.11212 15.5995 6.11212Z" fill="#333333"/>
<path d="M10.0001 5.98926C7.63131 5.98926 5.70398 8.0128 5.70398 10.5002C5.70398 12.9874 7.63131 15.0111 10.0001 15.0111C12.369 15.0111 14.2962 12.9874 14.2962 10.5002C14.2962 8.0128 12.369 5.98926 10.0001 5.98926Z" fill="#333333"/>
<path d="M15.5994 3.94971C15.355 3.94971 15.156 4.15863 15.156 4.4153C15.156 4.67197 15.355 4.88089 15.5994 4.88089C15.844 4.88089 16.043 4.67213 16.043 4.4153C16.043 4.15847 15.844 3.94971 15.5994 3.94971Z" fill="#333333"/>
</g>
<defs>
<clipPath id="clip0">
<rect width="20" height="21" fill="white" transform="translate(0.00012207)"/>
</clipPath>
</defs>
</svg>
