<svg width="1364" height="664" viewBox="0 0 1364 664" fill="none" xmlns="http://www.w3.org/2000/svg">
<path opacity="0.4" d="M687.293 99.9502L896.73 99.9502C897.533 99.9502 898.258 99.4704 898.571 98.7315L939.528 2.21871C939.842 1.47984 940.567 1.00001 941.369 1.00001L1363 1.00001" stroke="#CCCCCC"/>
<circle r="6.6696" transform="matrix(0 1 1 0 679.669 99.3793)" fill="#CCCCCC" fill-opacity="0.3"/>
<path opacity="0.4" d="M238.946 133.991H165.74C164.937 133.991 164.212 133.511 163.899 132.772L150.084 100.219C149.77 99.4798 149.046 98.9999 148.243 98.9999L0.000210285 98.9999" stroke="#CCCCCC"/>
<circle cx="241.642" cy="133.789" r="2.35853" transform="rotate(90 241.642 133.789)" fill="#CCCCCC" fill-opacity="0.3"/>
<path opacity="0.4" d="M1124.08 628.165H1197.59C1198.39 628.165 1199.11 628.645 1199.43 629.384L1213.3 662.081C1213.62 662.82 1214.34 663.3 1215.14 663.3H1364" stroke="#CCCCCC"/>
<circle cx="1121.37" cy="628.368" r="2.36819" transform="rotate(-90 1121.37 628.368)" fill="#CCCCCC" fill-opacity="0.3"/>
</svg>
