<svg width="768" height="565" viewBox="0 0 768 565" fill="none" xmlns="http://www.w3.org/2000/svg">
<circle cx="579.188" cy="560.273" r="4.18846" transform="rotate(90 579.188 560.273)" fill="#CCCCCC" fill-opacity="0.3"/>
<path opacity="0.4" d="M773 534H715.386C714.599 534 713.884 534.462 713.562 535.181L702.885 558.959C702.563 559.678 701.848 560.14 701.061 560.14H584.138" stroke="#CCCCCC"/>
<circle r="5.90193" transform="matrix(0 -1 -1 0 494.902 6.36357)" fill="#CCCCCC" fill-opacity="0.3"/>
<path opacity="0.4" d="M768 43.3847L686.287 43.3847C685.5 43.3847 684.785 42.9224 684.463 42.2039L668.985 7.73182C668.662 7.01329 667.948 6.55102 667.16 6.55102L501.877 6.55102" stroke="#CCCCCC"/>
<circle cx="157.51" cy="73.4904" r="3.49039" transform="rotate(-90 157.51 73.4904)" fill="#CCCCCC" fill-opacity="0.3"/>
<path opacity="0.4" d="M-4 95.3847L43.7959 95.3847C44.5835 95.3847 45.2978 94.9224 45.6204 94.2039L54.3406 74.7821C54.6633 74.0636 55.3775 73.6013 56.1652 73.6013L153.385 73.6013" stroke="#CCCCCC"/>
</svg>
