<svg width="457" height="425" viewBox="0 0 457 425" fill="none" xmlns="http://www.w3.org/2000/svg">
<g opacity="0.04">
<path fill-rule="evenodd" clip-rule="evenodd" d="M381.007 296.641L382.79 282.087L370.448 289.208L381.007 296.641Z" stroke="#467FFF" stroke-width="0.5"/>
<path fill-rule="evenodd" clip-rule="evenodd" d="M362.665 231.964L372.493 242.646L368.619 251.697L360.741 243.359L362.665 231.964Z" stroke="#467FFF" stroke-width="0.5"/>
<path d="M411.673 218.017C422.582 214.886 434.333 217.767 442.557 225.589L443.795 226.767C452.18 234.742 455.606 246.623 452.754 257.838L452.277 259.714C449.48 270.714 441.066 279.41 430.164 282.566L396.43 292.333L388.855 284.083L373.526 288.887L381.007 296.641L373.089 299.092L345.144 271.902L354.813 234.204L362.664 231.964L360.74 243.359L375.632 239.375L377.749 227.756L411.673 218.017Z" fill="#733DFF"/>
<path d="M398.681 221.747L410.653 218.311C416.453 216.645 422.48 216.587 428.144 217.992C424.456 224.16 423.1 232.912 424.076 244.249C425.116 256.333 428.68 268.468 434.767 280.653C432.947 281.564 431.031 282.316 429.036 282.893L405.39 289.739L398.681 221.747Z" fill="black" fill-opacity="0.275213"/>
<path d="M427.2 257.047C422.994 252.985 421.296 246.905 422.724 241.23C425.783 229.075 440.863 224.534 449.911 233.173C454.183 237.251 455.904 243.397 454.436 249.124C451.323 261.274 436.206 265.744 427.2 257.047Z" fill="#F8FCFF" stroke="#E9EBFF"/>
<path d="M430.284 253.91C426.943 250.684 425.596 245.91 426.757 241.414L426.906 240.836C429.367 231.305 441.171 227.937 448.291 234.734C451.684 237.973 453.05 242.8 451.858 247.336L451.706 247.914C449.202 257.441 437.37 260.753 430.284 253.91Z" fill="#0D134E" stroke="#959FFA" stroke-width="1.5"/>
<path fill-rule="evenodd" clip-rule="evenodd" d="M386.6 236.242L383.766 249.37L413.048 232.262L386.6 236.242Z" stroke="#467FFF" stroke-width="0.5"/>
<path fill-rule="evenodd" clip-rule="evenodd" d="M398.286 282.268L390.17 271.569L422.202 267.652L398.286 282.268Z" stroke="#467FFF" stroke-width="0.5"/>
<path fill-rule="evenodd" clip-rule="evenodd" d="M373.725 288.299L354.938 269.289L360.147 243.002L375.209 238.862L370.95 263.485L388.972 283.828L373.725 288.299Z" stroke="#467FFF" stroke-width="0.5"/>
<path fill-rule="evenodd" clip-rule="evenodd" d="M365.125 241.612L360.857 267.668L379.352 286.652L373.725 288.299L354.938 269.289L360.147 243.002L365.125 241.612Z" stroke="#467FFF" stroke-width="0.5"/>
<path d="M305.106 27.6075L309.74 41.3633L302.519 48.0564L298.714 37.2342L305.106 27.6075Z" fill="#D0D4FF"/>
<path fill-rule="evenodd" clip-rule="evenodd" d="M297.212 92.9055L304.76 80.3352L290.589 81.8198L297.212 92.9055Z" stroke="#467FFF" stroke-width="0.5"/>
<path d="M356.369 33.4351C368.127 35.0839 378.132 42.8374 382.663 53.8119C387.282 65.0015 385.465 77.8587 377.968 87.3635C370.572 96.7405 358.727 101.543 346.896 99.911L313.054 95.2439L309.49 84.6253L293.531 82.7787L297.212 92.9055L288.982 91.9241L274.512 55.7187L297.965 26.1121C298.407 25.555 299.11 25.2739 299.814 25.3738L303.623 25.9145C305.079 26.1212 305.822 27.7758 305.008 29.001L300.37 35.9868L315.594 38.4047L321.554 29.6764C321.983 29.0485 322.731 28.718 323.484 28.8236L356.369 33.4351Z" fill="#733DFF"/>
<path d="M296.347 83.6267L286.482 58.7867L301.548 36.6245L317.03 38.6994L303.489 59.7009L312.13 85.468L296.347 83.6267Z" fill="black" fill-opacity="0.275213"/>
<path d="M289 37.4891L364.371 53.84L378.501 86.6788L378.068 87.2367C370.588 96.7198 358.644 101.531 346.679 99.881L313.054 95.2438L309.49 84.6252L293.531 82.7786L297.212 92.9053L288.982 91.924L274.512 55.7186L288.907 37.546L289 37.4891Z" fill="black" fill-opacity="0.275213"/>
<path d="M357.329 80.1571C353.992 71.8966 355.352 62.4465 360.853 55.4363C367.277 47.2509 380.181 48.9861 384.13 58.6032L385.934 62.9981C388.179 68.4641 387.298 74.716 383.63 79.3486L380.366 83.4709C373.957 91.5652 361.197 89.7297 357.329 80.1571Z" fill="#F8FCFF" stroke="#E9EBFF"/>
<path d="M359.327 74.3005C357.587 69.9946 358.298 65.0856 361.188 61.4501L361.559 60.9827C367.684 53.2768 379.837 55.001 383.577 64.1066C385.359 68.4457 384.644 73.4105 381.71 77.0702L381.336 77.536C375.173 85.2214 363.017 83.4343 359.327 74.3005Z" fill="#0D134E" stroke="#959FFA" stroke-width="1.5"/>
<path fill-rule="evenodd" clip-rule="evenodd" d="M318.843 86.8036L315.78 73.7276L346.636 83.1784L318.843 86.8036Z" stroke="#467FFF" stroke-width="0.5"/>
<path d="M305.086 36.1744L290.589 58.2421L299.764 83.1069L293.953 82.3235L284.523 57.3151L299.973 35.4193L305.086 36.1744Z" fill="#FF3F87"/>
<path d="M143.467 83.2148L120.747 239.093L244.447 361.916L407.448 272.593L402.425 138.914L337.655 67.3001L259.368 46.8682L143.467 83.2148Z" fill="#0D124E"/>
<path d="M205.762 285.492C261.619 285.492 306.9 240.21 306.9 184.353C306.9 128.496 261.619 83.2148 205.762 83.2148C149.904 83.2148 104.623 128.496 104.623 184.353C104.623 240.21 149.904 285.492 205.762 285.492Z" fill="black" fill-opacity="0.161932"/>
<path d="M276.204 149.892L398.877 219.242L422.399 196.652L419.863 182.967L304.139 116.927L276.204 149.892Z" fill="white"/>
<path d="M309.303 130.852L340.564 151.148" stroke="#467FFF" stroke-width="3.5"/>
<path d="M358.498 162.136L376.521 172.538C377.766 173.257 379.356 172.875 380.139 171.669C380.871 170.541 380.551 169.034 379.423 168.302L379.315 168.235L361.291 157.833C360.046 157.114 358.456 157.496 357.673 158.702C356.941 159.83 357.262 161.337 358.389 162.069L358.498 162.136Z" fill="#FF3F87"/>
<path d="M347.318 77.2139C347.318 77.2139 354.811 102.454 357.969 118.393C361.127 134.332 362.661 150.547 362.661 150.547L407.447 177.776L395.14 129.839L347.318 77.2139Z" fill="#D0D4FF"/>
<path d="M351.716 74.2825C351.716 74.2825 359.208 99.5226 362.366 115.462C365.524 131.401 367.058 147.616 367.058 147.616L411.845 174.844L399.537 126.907L351.716 74.2825Z" fill="#BBBEFB"/>
<path d="M376.149 106.094L380.038 130.523C380.162 131.302 379.379 131.911 378.655 131.599L370.773 128.202C370.055 127.892 369.276 128.489 369.387 129.262L372.53 151.148" stroke="white" stroke-width="0.5"/>
<path d="M297.489 53.8992C297.489 53.8992 303.509 71.6729 306.667 87.6119C309.825 103.551 310.052 118.908 310.052 118.908L356.145 146.995C356.145 146.995 354.098 132.093 350.181 111.797C346.265 91.5015 338.208 71.7791 338.208 71.7791L297.489 53.8992Z" fill="#D0D4FF"/>
<path d="M303.969 61.2283C303.969 61.2283 308.783 78.4319 311.308 91.2307C313.834 104.029 314.015 116.361 314.015 116.361L350.874 138.914C350.874 138.914 349.237 126.948 346.105 110.651C342.973 94.354 336.53 75.5856 336.53 75.5856L303.969 61.2283Z" fill="#BBBEFB"/>
<path d="M314.567 62.4524L317.105 86.0577C317.203 86.969 317.908 87.6971 318.816 87.8245L331.324 89.5792C332.227 89.7058 332.93 90.4267 333.034 91.3323L338.208 136.519" stroke="white" stroke-width="0.5"/>
<path d="M325.956 97.8723C338.098 97.8723 347.942 107.716 347.942 119.859C347.942 123.803 346.904 127.505 345.085 130.705L345.359 130.852C347.832 131.722 349.67 133.055 350.874 134.85L351.062 135.149C352.916 138.219 363.155 157.448 381.78 192.836L371.752 196.642L337.241 168.085L329.875 141.497C328.603 141.726 327.293 141.845 325.956 141.845C313.813 141.845 303.969 132.002 303.969 119.859C303.969 107.716 313.813 97.8723 325.956 97.8723Z" fill="black" fill-opacity="0.161932"/>
<path d="M283.106 83.4046C282.848 83.2852 282.549 83.2946 282.299 83.4299L237.056 107.937C236.744 108.106 236.56 108.442 236.587 108.796L244.509 214.688C244.531 214.986 244.699 215.253 244.958 215.402L319.52 258.192L333.406 316.478L358.55 300.71L354.068 283.388L357.296 281.104L388.957 262.26L411.775 274.234L420.941 264.361L394.218 200.01L332.922 164.847L294.962 89.1118C294.871 88.9298 294.72 88.784 294.536 88.6984L283.106 83.4046Z" fill="#F8FCFF"/>
<path d="M255.304 208.811V249.58L338.208 307.714L322.707 249.036L255.304 208.811Z" fill="#5C66C0"/>
<path fill-rule="evenodd" clip-rule="evenodd" d="M263.974 229.748L244.447 241.981V270.629L301.622 302.837V251.268L263.974 229.748Z" stroke="#467FFF" stroke-width="0.5"/>
<path fill-rule="evenodd" clip-rule="evenodd" d="M280.424 233.48L269.546 249.776C269.36 250.054 269.256 250.378 269.244 250.712L267.629 296.365C267.606 297.023 267.944 297.641 268.51 297.976L312.353 323.973C312.9 324.297 313.578 324.309 314.136 324.003L334.933 312.619L320.959 257.471L280.424 233.48Z" stroke="#467FFF" stroke-width="0.5"/>
<path d="M257.503 114.868C257.173 115.054 256.994 115.426 257.055 115.799L270.983 200.462C271.074 201.015 271.393 201.504 271.862 201.811L324.855 236.458L346.083 308.514L358.615 301.07L340.508 226.955L283.382 192.201C282.941 191.933 282.622 191.505 282.489 191.007L264.315 122.799C264.081 121.92 264.469 120.994 265.26 120.545L292.601 105.03C293.642 104.439 294.966 104.889 295.431 105.992L322.738 170.73C322.905 171.127 323.197 171.46 323.569 171.678L384.145 207.191L411.775 274.234L420.941 262.915L394.218 200.01L333.412 165.128C333.092 164.944 332.828 164.675 332.651 164.35L294.4 94.1453L257.503 114.868Z" fill="#5C66C0"/>
<path d="M243.139 122.791C256.496 122.791 267.325 133.619 267.325 146.976C267.325 155.337 263.082 162.708 256.631 167.051L267.986 203.228L328.548 238.411L313.187 254.558L245.151 215.513C244.819 215.322 244.589 214.998 244.514 214.628L244.492 214.467L237.68 123.409C239.435 123.005 241.262 122.791 243.139 122.791Z" fill="black" fill-opacity="0.161932"/>
<path d="M388.957 262.393L367.593 209.502L322.996 171.342L295.431 105.992C294.966 104.889 293.642 104.439 292.601 105.03L265.26 120.545C264.469 120.994 264.081 121.92 264.315 122.799L282.696 191.783L340.508 226.955L354.067 283.388L388.957 262.393Z" fill="#1B215B"/>
<path d="M299.448 98.0647L332.922 164.847L364.534 182.981L377.257 194.761L323.647 217.823L299.186 201.764L291.7 180.134C286.548 180.486 283.526 179.588 282.632 177.439L282.553 177.227C281.827 175.086 278.058 157.025 271.248 123.045L269.674 115.177L285.661 132.46L300.188 126.544C297.044 122.462 295.174 117.348 295.174 111.798C295.174 106.697 296.753 101.966 299.448 98.0647Z" fill="black" fill-opacity="0.219542"/>
<path fill-rule="evenodd" clip-rule="evenodd" d="M394.935 206.007L409.915 214.055L400.19 219.081L394.935 206.007Z" stroke="#467FFF" stroke-width="0.5"/>
<path d="M346.101 138.243C344.608 138.282 343.682 139.884 344.395 141.197L349.159 149.968C349.857 151.253 351.654 151.379 352.524 150.203L353.323 149.122C353.794 148.486 353.845 147.631 353.454 146.943L349.06 139.222C348.695 138.581 348.007 138.193 347.27 138.212L346.101 138.243Z" fill="#959FFA"/>
<path d="M352.872 148.818L347.317 138.859C348.122 138.992 348.841 139.456 349.293 140.147L349.42 140.361L352.693 146.437C353.094 147.181 353.149 148.047 352.872 148.818L347.317 138.859L352.872 148.818Z" fill="#F8FCFF"/>
<path d="M351.827 186.721C353.802 188.721 372.194 199.996 374.401 199.996C376.607 199.996 378.852 200.162 378.852 200.742C378.852 201.322 379.608 207.496 380.87 208.706C382.131 209.915 383.818 211.383 383.818 209.73C383.818 208.076 383.042 204.318 383.818 203.384C384.594 202.449 395.138 207.306 397.611 207.306C400.084 207.306 403.906 202.942 401.308 199.631C398.711 196.321 388.462 193.55 386.721 193.55C384.98 193.55 383.125 191.625 382.352 190.648C381.579 189.671 362.467 176.745 361.215 173.586C359.963 170.428 345.437 135.249 340.585 133.762C335.732 132.275 332.839 132.304 332.839 132.304C332.839 132.304 338.14 152.43 340.585 159.896C345.498 174.903 350.948 185.831 351.827 186.721Z" fill="#380085"/>
<path d="M338.208 137.542C343.392 142.245 347.932 150.205 351.827 161.422C353.342 165.784 352.836 173.344 350.308 184.1L349.662 182.804C347.483 178.329 344.066 170.393 340.84 160.668L340.585 159.897C340.316 159.074 340.021 158.137 339.7 157.084L338.208 137.542Z" fill="black" fill-opacity="0.275213"/>
<path fill-rule="evenodd" clip-rule="evenodd" d="M378.182 200.29L384.693 192.836C385.258 193.202 385.865 193.474 386.465 193.537L386.721 193.55C388.462 193.55 398.711 196.321 401.309 199.632C403.906 202.942 400.084 207.306 397.611 207.306C395.138 207.306 384.595 202.449 383.818 203.384C383.042 204.318 383.818 208.076 383.818 209.73C383.818 211.384 382.132 209.915 380.87 208.706C379.609 207.496 378.852 201.322 378.852 200.742C378.852 200.548 378.6 200.4 378.182 200.29L384.693 192.836L378.182 200.29Z" stroke="#467FFF" stroke-width="0.5"/>
<path d="M290.776 139.256C287.932 147.234 296.055 180.898 300.251 197.077C301.506 201.914 306.501 204.709 311.304 203.333L344.505 193.817C344.505 193.817 335.805 132.093 330.523 127.999C325.24 123.905 294.557 128.653 290.776 139.256Z" fill="#959FFA"/>
<path d="M325.254 126.673L325.393 126.622C327.74 126.797 329.557 127.25 330.523 127.999C332.143 129.255 334.005 134.577 336.107 143.966L329.588 198.091L315.312 202.183L315.168 202.222C311.685 203.135 308.162 202.568 305.267 200.909L302.713 191.579C300.172 182.208 298.43 175.477 297.489 171.386C297.303 170.58 295.787 170.887 293.898 171.52L293.47 169.529C291.741 161.356 290.665 154.713 290.243 149.599C292.049 146.051 293.772 143.482 294.336 142.498L294.401 142.383C296.234 139.032 305.436 134.202 322.009 127.893L325.393 126.622L325.254 126.673Z" fill="black" fill-opacity="0.275213"/>
<path d="M322.959 131.593C322.959 131.593 334.222 131.78 336.275 132.807C338.328 133.833 347.902 156.361 347.902 162.355C347.902 165.37 346.182 180.062 347.213 188.178C348.232 196.196 351.991 197.642 354.098 200.084C358.338 204.998 380.08 216.014 380.08 216.014L342.676 236.09L340.563 227.39C340.563 227.39 307.137 208.136 307.442 206.773C308.866 200.396 309.674 196.628 307.957 191.143C305.55 183.451 294.4 146.178 294.4 146.178C294.4 146.178 298.534 142.297 301.122 140.18C303.71 138.062 314.466 132.807 314.466 132.807L322.959 131.593Z" fill="#733DFF"/>
<path d="M347.213 188.178C348.21 196.018 351.825 197.575 353.955 199.923L354.098 200.084C354.742 200.831 355.69 201.684 356.941 202.642L352.678 208.811L333.776 211.321L347.149 187.637L347.213 188.178Z" fill="black" fill-opacity="0.275213"/>
<path d="M318.375 132.248L322.96 131.593L324.879 131.632C330.625 131.776 334.282 132.11 335.85 132.635C335.925 132.801 335.979 132.974 336.014 133.152C336.554 135.933 332.161 139.127 326.201 140.285C320.241 141.444 314.972 140.128 314.431 137.347C314.093 135.609 315.682 133.711 318.375 132.248Z" fill="black" fill-opacity="0.275213"/>
<path d="M354.098 200.084C355.206 201.368 357.21 202.964 360.11 204.873C356.791 207.288 354.214 209.502 352.376 211.516C350.188 213.914 347.259 217.988 343.591 223.738L343.18 224.384L332.84 222.62C327.686 219.887 323.045 217.233 318.918 214.657L317.454 213.733C314.732 212.001 311.372 209.783 307.376 207.08L307.878 204.799C307.976 204.347 308.069 203.907 308.156 203.479C314.204 204.13 318.901 205.079 322.247 206.329C326.772 208.018 332.883 211.247 340.581 216.014L341.177 214.614C343.139 210.06 344.854 206.631 346.32 204.325C347.662 202.215 349.682 199.654 352.38 196.642C352.904 198.173 353.476 199.364 354.098 200.084Z" fill="#959FFA"/>
<path d="M298.199 158.865L305.289 151.509L306.152 154.526C311.669 173.991 314.473 187.284 314.565 194.404L314.567 194.761C314.567 202.141 320.664 209.778 332.857 217.671L331.482 222.126L326.318 219.093C313.58 211.568 307.288 207.461 307.442 206.773L307.862 204.873C309.006 199.598 309.496 196.061 307.957 191.143L304.283 179.1C302.693 173.835 300.665 167.09 298.199 158.865Z" fill="black" fill-opacity="0.275213"/>
<path d="M314.466 132.807L322.96 131.593L325.249 131.642C326.464 131.675 327.582 131.716 328.603 131.766C328.904 132.38 329.057 133.073 329.057 133.842C329.057 137.484 325.601 141.446 319.53 141.446C314.151 141.446 310.368 139.128 309.576 136.066L314.466 132.807Z" fill="#380085"/>
<path d="M303.88 155.88C302.194 159.281 290.32 171.369 283.619 169.92C278.028 168.712 271.45 144.172 268.392 133.05C267.784 130.84 268.836 129.535 268.392 128.636C265.712 123.217 276.144 123.441 277.334 126.799C277.552 127.415 279.43 127.948 280.027 129.311C281.604 132.908 288.717 148.37 288.717 148.37C288.717 148.37 298.356 140.521 303.88 138.327C309.404 136.134 305.566 152.479 303.88 155.88Z" fill="#380085"/>
<path d="M305.289 151.509L305.315 151.6C304.82 153.486 304.288 155.06 303.881 155.881C302.527 158.611 294.609 166.938 288.072 169.368L305.289 151.509Z" fill="black" fill-opacity="0.275213"/>
<path d="M279.051 128.253L280.335 130.007L284.022 138.137C285.308 140.95 286.873 144.361 288.717 148.37C289.747 147.532 290.741 146.742 291.7 146.001L285.661 155.257L279.051 128.253Z" fill="black" fill-opacity="0.275213"/>
<path d="M274.025 107.052L274.343 107.956C275.79 111.965 277.361 115.102 277.361 116.136C277.361 118.612 275.845 122.783 276.917 125.806L276.96 125.878C276.001 126.26 275.022 126.524 274.025 126.668C272.601 126.875 270.607 126.915 268.044 126.791L267.993 126.653L267.068 124.765C264.998 120.471 263.288 116.179 265.317 113.867C267.645 111.216 269.566 110.133 269.566 107.904L269.555 107.529C269.42 104.786 268.07 96.3218 269.566 95.6287C270.432 95.227 272.153 101.602 274.025 107.052Z" fill="#959FFA"/>
<path d="M275.326 110.533L276.205 112.698C276.33 113.504 276.302 114.424 276.122 115.455C275.629 118.294 272.49 121.143 266.706 124.002L266.357 123.248C264.646 119.486 263.527 115.907 265.317 113.867C267.489 111.394 269.306 110.286 269.54 108.338C272.342 108.421 274.271 109.154 275.326 110.533Z" fill="black" fill-opacity="0.275213"/>
<path d="M269.564 109.344C272.838 110.203 274.621 111.216 274.911 112.384C275.348 114.136 270.699 121.256 268.975 121.58C267.825 121.795 267.13 121.695 266.89 121.279L266.442 122.972L266.17 122.834L265.848 122.091C264.446 118.763 263.712 115.696 265.317 113.867C267.064 111.878 268.581 110.771 269.23 109.402L269.564 109.344Z" fill="#959FFA"/>
<path d="M272.536 110.376C271.874 112.172 275.761 114.154 276.114 115.748C276.316 116.66 274.682 119.069 275.187 120.516C275.565 121.598 276.882 121.793 277.152 121.378C278.401 119.455 280.391 115.562 279.607 114.72C278.428 113.455 273.198 108.58 272.536 110.376Z" fill="#959FFA"/>
<path d="M312.963 130.021C312.963 130.021 310.318 132.459 306.63 132.459C302.942 132.459 302.44 132.055 302.44 132.055C302.44 132.055 304.806 124.651 303.004 120.183C300.106 112.996 304.002 97.3136 314.569 99.6352C317.885 97.3136 320.724 97.3136 324.252 99.6352C327.78 101.957 330.919 108.513 330.335 115.359C329.752 122.205 332.627 126.523 332.627 126.523C332.627 126.523 326.703 129.424 323.346 130.021C319.988 130.619 312.963 130.021 312.963 130.021Z" fill="#380085"/>
<path d="M320.164 139.271C324.174 139.271 326.582 135.435 326.582 135.435C326.582 135.435 325.296 133.974 325.296 130.784C325.296 127.593 325.957 119.779 325.957 119.779C325.957 119.779 327.335 120.324 328.046 119.508C328.758 118.692 329.784 116.089 328.602 114.078C328.309 113.581 326.582 113.209 326.582 113.209C326.582 113.209 323.768 113.608 321.125 112.701C318.482 111.795 314.386 105.917 314.386 105.917C314.386 105.917 313.46 107.155 310.525 110.185C307.589 113.215 306.63 115.218 306.63 117.49C306.63 119.762 309.576 128.253 311.125 129.753C312.675 131.253 313.943 131.796 313.943 134.295C313.943 136.794 313.903 136.573 313.903 136.573C313.903 136.573 316.155 139.271 320.164 139.271Z" fill="#FFAF8A"/>
<path d="M323.768 126.192C322.736 130.284 320.699 132.567 317.656 133.041C316.121 133.28 314.755 133.119 313.559 132.557C313.312 132.019 312.968 131.567 312.61 131.18C313.952 131.776 315.492 131.913 317.228 131.593C319.94 131.093 322.12 129.292 323.768 126.192Z" fill="black" fill-opacity="0.175153"/>
<path d="M241.093 68.4836C240.846 67.4985 241.486 66.5106 242.487 66.3345L309.982 54.446C310.84 54.295 311.677 54.7969 311.949 55.6239L322.871 88.9097C323.185 89.8648 322.631 90.887 321.66 91.1462L253.19 109.42C252.246 109.672 251.279 109.102 251.041 108.155L241.093 68.4836Z" fill="#FF3F87" fill-opacity="0.280021" stroke="#F8458D" stroke-width="0.5"/>
<path d="M310.29 158.303C310.039 158.553 309.94 158.917 310.028 159.259L312.495 168.841C312.64 169.406 313.236 169.727 313.788 169.541C316.602 168.59 324.574 165.933 329.569 164.62C335.025 163.186 342.386 161.9 343.976 161.628C344.182 161.593 344.367 161.496 344.514 161.349L345.259 160.604C345.556 160.307 345.636 159.857 345.459 159.476L341.659 151.276C341.466 150.86 341.02 150.628 340.57 150.715C338.338 151.145 331.652 152.452 326.663 153.632C323.3 154.429 313.403 156.758 311.626 157.176C311.445 157.219 311.282 157.31 311.151 157.442L310.29 158.303Z" fill="#959FFA"/>
<path d="M312.225 156.947C311.729 157.113 311.452 157.632 311.583 158.138L313.96 167.375C314.106 167.94 314.701 168.261 315.254 168.075C318.068 167.124 326.04 164.467 331.035 163.154C335.858 161.886 342.171 160.734 344.668 160.296C345.25 160.194 345.62 159.616 345.467 159.045L343.037 149.999C342.902 149.494 342.404 149.178 341.89 149.277C339.525 149.733 333.014 151.01 328.129 152.167C323.099 153.357 314.898 156.054 312.225 156.947Z" fill="#F8FCFF"/>
<path d="M261.501 68.5828C261.256 67.599 261.895 66.6133 262.893 66.4364L294.151 60.898C295.01 60.7459 295.85 61.2493 296.12 62.0785L300.89 76.7002C301.201 77.6537 300.648 78.673 299.68 78.9331L268.035 87.4289C267.089 87.6827 266.12 87.1118 265.883 86.162L261.501 68.5828Z" fill="#9286FF" fill-opacity="0.193018" stroke="#F8F8F8" stroke-width="0.5"/>
<path d="M256.043 95.6263C255.815 94.6634 256.43 93.7031 257.4 93.5076L276.396 89.6789C277.275 89.5018 278.146 90.0173 278.413 90.873L279.639 94.8018C279.941 95.7701 279.36 96.7917 278.373 97.0259L259.249 101.564C258.308 101.788 257.364 101.206 257.142 100.265L256.043 95.6263Z" fill="#FF3F87" fill-opacity="0.280021" stroke="#F8458D" stroke-width="0.5"/>
<path d="M292.44 88.5443C292.067 87.5399 292.676 86.4393 293.725 86.2218L312.601 82.3084C313.399 82.143 314.205 82.55 314.546 83.29L315.611 85.6027C316.069 86.5966 315.512 87.762 314.452 88.031L295.684 92.791C294.817 93.0108 293.924 92.5419 293.613 91.7036L292.44 88.5443Z" fill="#FF3F87" fill-opacity="0.280021" stroke="#F8458D" stroke-width="0.5"/>
<path d="M317.773 139.256V141.867L322.641 147.623C322.877 147.902 323.246 148.03 323.604 147.957L328.94 146.874C329.402 146.781 329.736 146.376 329.741 145.904L329.746 145.35C329.748 145.166 329.699 144.985 329.605 144.827L325.254 137.542C325.254 137.542 323.815 137.829 322.415 138.328C321.016 138.826 317.773 139.256 317.773 139.256Z" fill="#380085"/>
<path d="M325.321 137.181L329.49 144.738C329.41 144.784 329.325 144.823 329.236 144.853L329.099 144.893L324.516 145.984C324.058 146.092 323.581 145.975 323.228 145.675L323.102 145.554L317.794 139.83L317.773 139.256C319.769 138.992 321.241 138.708 322.189 138.404L322.415 138.328C323.115 138.078 323.835 137.801 324.574 137.496L325.321 137.181Z" fill="#959FFA"/>
<path d="M340.113 116.195C340.113 129.276 329.509 139.88 316.428 139.88C303.347 139.88 292.743 129.276 292.743 116.195C292.743 103.114 303.347 92.5093 316.428 92.5093C329.509 92.5093 340.113 103.114 340.113 116.195Z" fill="#9286FF" fill-opacity="0.193018" stroke="#ECEAFE"/>
<path opacity="0.504464" fill-rule="evenodd" clip-rule="evenodd" d="M301.731 108.111C302.605 106.051 302.201 103.908 300.827 103.325C299.454 102.742 297.632 103.94 296.757 106C295.883 108.06 296.287 110.203 297.661 110.786C299.034 111.369 300.856 110.172 301.731 108.111Z" fill="white"/>
<path d="M193.681 128.838C193.43 128.721 193.14 128.727 192.894 128.852L147.622 151.937C147.321 152.091 147.131 152.4 147.131 152.739L147.131 254.577C147.131 254.897 147.301 255.193 147.577 255.354L230.108 303.631L243.994 361.916L269.137 346.149L264.655 328.827L267.884 326.543L299.545 307.699L322.363 319.672L332.516 312.934L304.806 245.448L243.51 210.285L205.55 134.551C205.459 134.368 205.308 134.223 205.123 134.137L193.681 128.838Z" fill="#F8FCFF"/>
<path d="M165.892 254.25V290.112L244.398 337.029L233.295 294.475L165.892 254.25Z" fill="#5C66C0"/>
<path fill-rule="evenodd" clip-rule="evenodd" d="M191.012 278.918L231.546 302.91L238.252 329.373L180.407 294.804L191.012 278.918Z" stroke="#467FFF" stroke-width="0.5"/>
<path fill-rule="evenodd" clip-rule="evenodd" d="M174.562 275.186L155.035 287.419V316.068L212.21 348.275V296.706L174.562 275.186Z" stroke="#467FFF" stroke-width="0.5"/>
<path fill-rule="evenodd" clip-rule="evenodd" d="M191.012 278.918L180.133 295.214C179.948 295.492 179.843 295.816 179.831 296.15L178.217 341.803C178.194 342.461 178.531 343.079 179.098 343.415L222.941 369.411C223.488 369.735 224.165 369.747 224.723 369.442L245.521 358.058L231.546 302.91L191.012 278.918Z" stroke="#467FFF" stroke-width="0.5"/>
<path fill-rule="evenodd" clip-rule="evenodd" d="M231.704 303.538L245.52 358.058L225.142 369.212C224.862 369.366 224.561 369.464 224.254 369.509L224.254 318.438C224.254 318.097 224.32 317.761 224.448 317.447L224.555 317.216L231.704 303.538Z" stroke="#467FFF" stroke-width="0.5"/>
<path d="M245.521 219.242L248.814 239.093L279.497 266.292L301.622 251.267L245.521 219.242Z" fill="#D0D4FF"/>
<path d="M167.204 159.562C166.425 159.98 166.013 160.86 166.191 161.726L183.459 245.974C183.563 246.485 183.864 246.935 184.296 247.228L235.443 281.897L256.671 353.953L269.203 346.509L251.096 272.394L193.284 237.222L174.903 168.238C174.669 167.359 175.057 166.432 175.848 165.983L203.189 150.468C204.23 149.878 205.554 150.328 206.019 151.431L233.584 216.78L294.733 252.629L322.363 319.672L332.516 312.934L304.806 245.448L243.51 210.285L205.762 138.859L167.204 159.562Z" fill="#5C66C0"/>
<path d="M156.857 185.936C161.214 229.309 174.241 258.091 236.354 294.533L240.238 296.801C271.995 315.52 269.585 321.854 233.011 315.803L230.108 303.631L147.784 255.475C147.43 255.268 147.196 254.911 147.142 254.511L147.131 254.337V152.995C147.131 152.555 147.351 152.147 147.71 151.904L147.851 151.82L161.573 144.823C157.008 158.089 155.436 171.794 156.857 185.936Z" fill="black" fill-opacity="0.161932"/>
<path d="M299.545 307.831L278.181 254.941L233.584 216.78L206.019 151.431C205.554 150.328 204.23 149.878 203.189 150.469L175.848 165.983C175.057 166.432 174.668 167.359 174.902 168.238L193.283 237.222L251.095 272.394L264.655 328.827L299.545 307.831Z" fill="#1B215B"/>
<path d="M206.951 137.346L243.238 209.739C243.32 215.659 243.173 222.196 242.798 229.347L242.649 232.014L209.284 247.448L200.461 241.541C198.074 239.942 196.273 237.607 195.334 234.892L194.66 232.933C186.817 209.976 183.457 194.878 184.579 187.637C185.455 181.981 193.852 175.222 203.721 170.862C200.412 166.726 198.434 161.479 198.434 155.77C198.434 148.39 201.739 141.782 206.951 137.346Z" fill="black" fill-opacity="0.219542"/>
<path d="M187.51 186.918C185.681 198.721 196.453 241.315 204.088 244.518C211.723 247.721 241.183 236.411 241.183 236.411C241.183 236.411 244.252 184.46 231.888 174.042C219.524 163.623 189.338 175.114 187.51 186.918Z" fill="#959FFA"/>
<path d="M207.465 174.259L208.708 171.285C213.305 170.111 218.067 169.648 222.348 170.199L216.015 244.111L209.116 245.217C207.182 245.268 205.613 245.076 204.408 244.642L204.17 244.55L203.38 242.685C190.907 213.077 186.43 194.559 189.946 187.132C191.629 183.578 197.244 179.4 206.793 174.595L207.465 174.259L208.708 171.285L207.465 174.259Z" fill="black" fill-opacity="0.275213"/>
<path d="M247.654 176.341C246.161 176.38 245.235 177.982 245.948 179.295L250.711 188.066C251.41 189.352 253.207 189.477 254.077 188.301L254.876 187.22C255.347 186.584 255.398 185.73 255.007 185.042L250.613 177.321C250.248 176.68 249.56 176.292 248.823 176.311L247.654 176.341Z" fill="#959FFA"/>
<path d="M254.386 187.132L248.715 176.966C249.519 177.087 250.242 177.538 250.703 178.218L250.833 178.428L254.257 184.519C254.714 185.332 254.751 186.301 254.386 187.132L248.715 176.966L254.386 187.132Z" fill="#F8FCFF"/>
<path d="M238.526 173.09C238.526 173.09 245.947 174.548 247.377 176.854C248.808 179.16 267.74 205.116 269.538 206.641C271.335 208.166 287.937 221.046 288.961 223.83C289.986 226.615 291.864 228.088 291.864 228.088C291.864 228.088 283.732 235.519 282.68 234.95C281.628 234.381 279.944 235.806 275.009 232.978C270.074 230.151 255.376 216.788 255.376 216.788L247.036 206.291L238.526 173.09Z" fill="#380085"/>
<path d="M240.578 181.1L241.793 177.227L243.067 180.304C248.161 192.506 251.92 200.288 254.343 203.65L255.289 204.914C258.074 208.697 264.167 217.749 273.568 232.07L273.01 231.685C269.36 229.123 263.481 224.157 255.375 216.788L247.036 206.291L240.578 181.1Z" fill="black" fill-opacity="0.275213"/>
<path d="M218.953 172.038C218.953 172.038 194.485 184.535 194.485 188.734C194.485 192.933 206.719 222.814 206.719 228.266C206.719 230.9 206.308 236.256 205.486 244.333C205.313 246.031 251.095 272.394 251.095 272.394L252.859 284.436L259.634 281.9L251.531 266.859L267.324 274.842L297.488 258.375C297.488 258.375 254.186 242.67 252.859 239.342C251.531 236.015 254.291 234.948 254.291 233.392C254.291 231.837 244.094 175.685 240.201 173.861C236.309 172.038 218.953 172.038 218.953 172.038Z" fill="#733DFF"/>
<path d="M218.954 172.038L220.613 172.042C227.667 172.079 232.919 172.361 236.369 172.887C236.682 173.5 236.85 174.151 236.85 174.825C236.85 178.468 231.928 181.421 225.857 181.421C219.786 181.421 214.864 178.468 214.864 174.825C214.864 174.59 214.884 174.357 214.925 174.127L216.894 173.098C217.565 172.749 218.252 172.396 218.954 172.038Z" fill="black" fill-opacity="0.275213"/>
<path d="M250.67 264.93L274.15 271.115L267.324 274.842L251.531 266.859L250.67 264.93Z" fill="black" fill-opacity="0.275213"/>
<path d="M253.115 239.803C253.115 239.803 249.72 240.485 247.33 242.175C244.94 243.865 241.183 248.238 241.183 248.238C241.183 248.238 227.961 247.044 221.886 247.325C215.81 247.607 212.21 249.58 212.21 249.58L221.434 255.094C221.434 255.094 222.509 251.972 227.365 251.534C232.221 251.095 243.139 254.101 243.139 254.101C243.139 254.101 248.725 249.432 251.934 247.325C255.143 245.219 259.49 243.369 259.49 243.369L253.115 239.803Z" fill="#959FFA"/>
<path d="M204.754 194.761C210.751 208.302 217.901 219.065 226.201 227.05L226.916 227.728C235.521 235.778 241.195 243.291 243.939 250.268L249.814 271.656L238.999 265.392C216.558 252.324 205.387 245.304 205.486 244.333L205.894 240.197C206.445 234.398 206.72 230.421 206.72 228.266C206.72 225.978 204.565 219.386 202.064 212.196L204.754 194.761Z" fill="black" fill-opacity="0.275213"/>
<path d="M218.954 172.038C225.575 172.038 230.726 172.237 234.408 172.635C233.848 177.295 230.743 180.382 225.095 181.896C219.885 183.293 214.34 181.878 208.459 177.65C211.469 175.944 214.968 174.073 218.954 172.038Z" fill="#380085"/>
<path d="M232.752 266.41C231.712 266.905 231.217 268.107 231.606 269.192L245.667 308.384L230.054 315.981L223.454 267.267C223.3 266.129 223.949 265.034 225.021 264.623L250.395 254.894C251.083 254.63 251.858 254.941 252.173 255.607C252.504 256.309 252.205 257.147 251.505 257.48L232.752 266.41Z" fill="#1B215B" stroke="#E5EAED" stroke-width="0.514585"/>
<path d="M194.486 188.584C194.486 188.584 199.44 188.012 202.656 190.395C205.872 192.778 213.097 220.222 218.954 227.113C224.81 234.004 239.921 241.669 241.171 247.031C242.42 252.392 247.255 252.615 249.228 254.101C251.201 255.587 252.728 263.413 250.978 264.682C249.228 265.951 238.723 269.692 237.349 269.193C235.975 268.694 233.321 266.809 233.321 266.809C233.321 266.809 233.868 266.231 234.499 265.869C235.131 265.507 236.397 264.963 236.397 264.963C236.397 264.963 236.736 263.472 236.397 262.51C236.059 261.548 235.231 261.049 235.09 260.889C234.754 260.509 233.321 261.3 233.321 261.3C233.321 261.3 233.171 255.587 232.167 255.587C231.163 255.587 227.46 255.488 225.537 253.319C223.614 251.15 204.398 238.604 202.656 234.004C200.914 229.405 189.946 202.628 189.946 196.512C189.946 190.395 194.486 188.584 194.486 188.584Z" fill="#380085"/>
<path d="M209.202 232.824L209.948 233.385C213.427 236.067 222.048 243.581 235.81 255.927L232.824 256.466C232.649 255.88 232.43 255.587 232.167 255.587L231.89 255.584C230.657 255.56 227.583 255.341 225.767 253.56L225.537 253.319C223.615 251.15 204.398 238.604 202.656 234.004L201.691 231.53C199.175 225.141 193.372 210.53 190.992 201.932L192.193 204.305C200.729 221.112 206.399 230.617 209.202 232.824Z" fill="black" fill-opacity="0.275213"/>
<path d="M249.228 254.101C251.201 255.586 252.728 263.413 250.978 264.682C249.228 265.951 238.724 269.692 237.35 269.193C236.434 268.86 235.091 268.065 233.321 266.809C233.686 266.423 234.079 266.11 234.5 265.869C234.921 265.627 235.554 265.326 236.398 264.963C236.623 263.969 236.623 263.151 236.398 262.51C236.087 261.628 235.366 261.135 235.139 260.936L235.09 260.889C234.866 260.636 234.277 260.773 233.321 261.3L233.293 260.438C233.185 257.821 232.919 256.263 232.494 255.763L232.534 255.687C233.341 253.716 234.838 251.91 237.025 250.268C238.11 249.453 239.599 248.732 241.492 248.105C243.1 252.43 247.397 252.722 249.228 254.101Z" fill="#959FFA"/>
<path d="M212.944 202.134C212.701 202.376 212.6 202.726 212.675 203.061L215.033 213.52C215.165 214.107 215.779 214.447 216.346 214.245C219.372 213.166 228.127 210.086 233.025 208.785C238.368 207.366 246.132 205.891 247.746 205.589C247.946 205.552 248.123 205.457 248.267 205.313L249.034 204.547C249.323 204.257 249.407 203.821 249.246 203.445L245.814 195.445C245.64 195.039 245.22 194.796 244.782 194.85C242.73 195.105 236.775 195.894 231.644 197.051C228.224 197.822 216.255 200.548 214.293 200.996C214.109 201.037 213.949 201.128 213.816 201.262L212.944 202.134Z" fill="#959FFA"/>
<path d="M214.894 200.783C214.399 200.938 214.107 201.447 214.221 201.953L216.498 212.054C216.631 212.641 217.244 212.981 217.811 212.779C220.838 211.7 229.593 208.62 234.491 207.319C239.257 206.053 245.95 204.743 248.485 204.261C249.047 204.154 249.403 203.602 249.273 203.046L247.189 194.162C247.074 193.668 246.61 193.339 246.107 193.402C243.935 193.674 238.128 194.454 233.11 195.585C227.789 196.784 217.882 199.848 214.894 200.783Z" fill="#F8FCFF"/>
<path d="M221.886 179.761L220.832 182.416L226.709 189.53C226.968 189.842 227.389 189.968 227.776 189.848L232.286 188.453C232.702 188.325 232.987 187.943 232.991 187.508L232.998 186.772C233 186.653 232.98 186.536 232.94 186.424L229.567 177.024C229.567 177.024 227.927 178.334 226.528 178.833C225.129 179.331 221.886 179.761 221.886 179.761Z" fill="#380085"/>
<path d="M229.221 176.28L233.13 186.456C233.013 186.559 232.879 186.645 232.73 186.707L232.577 186.762L228.777 187.892C228.255 188.047 227.695 187.899 227.318 187.519L227.2 187.384L221.913 180.549L221.885 179.761L222.84 179.627C224.357 179.401 225.511 179.162 226.301 178.909L226.528 178.833C227.383 178.528 228.208 177.788 229.004 176.611L229.221 176.28Z" fill="#959FFA"/>
<path d="M214.588 176.984C214.588 176.984 218.106 179.792 220.92 180.103C223.734 180.415 230.375 178.301 229.081 174.685C227.787 171.07 228.628 171.288 228.628 171.288C228.628 171.288 231.526 171.646 233.337 169.931C235.147 168.216 235.472 162.534 234.404 160.072C233.337 157.609 228.995 146.709 227.114 144.942C225.234 143.174 222.502 142.181 219.385 143.005C216.268 143.829 207.269 145.787 206.677 152.062C206.085 158.338 215.01 166.819 215.01 170.377C215.01 173.936 214.588 176.984 214.588 176.984Z" fill="#FFAF8A"/>
<path d="M221.885 169.184L223.109 169.694C224.098 170.097 225.015 170.445 225.857 170.738C226.906 171.102 227.752 171.288 228.396 171.294L228.457 171.291C228.114 171.432 228.322 172.563 229.081 174.685C229.326 175.371 229.287 176.002 229.042 176.573C227.82 176.224 226.52 175.293 225.14 173.778L224.501 173.061C223.087 171.435 222.216 170.143 221.885 169.184Z" fill="black" fill-opacity="0.175153"/>
<path d="M214.83 168.502C214.83 168.502 211.819 167.108 209.274 164.984C206.729 162.86 202.149 153.755 203.329 151.636C204.508 149.518 206.773 149.328 206.773 147.282C206.773 145.236 211.542 141.234 215.494 140.231C219.446 139.228 220.873 135.185 222.348 135.185C223.823 135.185 227.319 143.847 225.784 145.08C224.25 146.314 214.665 149.983 214.665 151.636C214.665 153.29 218.741 159.724 217.579 160.229C216.418 160.733 211.98 154.245 210.866 156.915C209.274 160.733 214.83 163.13 214.83 164.439C214.83 165.748 214.83 168.502 214.83 168.502Z" fill="#380085"/>
<path d="M243.372 157.236C243.372 170.317 232.768 180.922 219.687 180.922C206.606 180.922 196.002 170.317 196.002 157.236C196.002 144.155 206.606 133.551 219.687 133.551C232.768 133.551 243.372 144.155 243.372 157.236Z" fill="#9286FF" fill-opacity="0.193018" stroke="#ECEAFE"/>
<path opacity="0.504464" fill-rule="evenodd" clip-rule="evenodd" d="M204.99 150.619C205.864 148.559 205.46 146.416 204.086 145.833C202.713 145.25 200.89 146.447 200.016 148.508C199.141 150.568 199.546 152.711 200.919 153.294C202.293 153.877 204.115 152.679 204.99 150.619Z" fill="white"/>
<path d="M229.7 305.131L239.378 283.122L400.282 190.824L420.941 206.551L418.103 251.512L263.917 344.855L229.7 305.131Z" fill="#D0D4FF"/>
<path d="M341.57 246.639L300.128 272.328C299.517 272.706 299.493 273.585 300.081 273.997L306.007 278.146C306.611 278.569 306.565 279.478 305.921 279.838L261.728 304.546" stroke="white" stroke-width="0.5"/>
<path d="M364.241 255.909L343.186 269.586C342.899 269.773 342.536 269.799 342.225 269.656L334.145 265.953C333.84 265.814 333.486 265.836 333.201 266.012L320.608 273.818C320.009 274.19 319.972 275.049 320.538 275.47L328.061 281.07C328.642 281.503 328.584 282.391 327.952 282.745L283.714 307.478" stroke="white" stroke-width="0.5"/>
<path d="M400.282 190.824L420.941 206.551L418.103 251.512L263.917 344.855L229.7 305.131L231.873 300.196C284.259 306.385 325.949 289.743 356.942 250.268C370.641 232.819 379.977 215.937 384.95 199.62L400.282 190.824Z" fill="#9593F3" fill-opacity="0.33143"/>
<path d="M289.063 225.578L289.442 225.84L290.369 225.379C293.826 223.697 296.16 222.964 297.373 223.182L297.678 223.248C299.953 223.817 305.96 226.642 304.657 227.364C303.746 227.868 301.781 228.16 298.76 228.237L299.598 228.573C303.228 230.074 304.914 231.387 304.657 232.514L304.595 232.734C303.849 235.07 298.36 245.217 294.737 242.937C292.235 241.363 288.947 238.69 284.874 234.917L283.839 234.528C284.498 232.984 285.162 231.541 285.83 230.2C286.531 228.793 287.609 227.252 289.063 225.578Z" fill="#959FFA"/>
<path d="M303.016 227.872L302.818 227.91C301.791 228.085 300.438 228.194 298.76 228.237C300.2 228.798 301.377 229.335 302.291 229.846L293.708 241.971L292.847 241.648C291.166 240.425 289.216 238.824 286.996 236.846L287.727 235.73C291.672 229.742 294.395 226.297 295.895 225.395C297.57 224.386 299.944 225.211 303.016 227.872Z" fill="black" fill-opacity="0.275213"/>
<path d="M298.082 226.556C298.374 226.088 298.991 225.946 299.46 226.238L300.25 226.732C300.718 227.025 300.861 227.642 300.568 228.11L299.544 229.748L297.058 228.194L298.082 226.556Z" fill="#FF3F87"/>
<path d="M295.591 227.966C296.109 227.17 297.17 226.935 297.975 227.439L299.555 228.426C300.382 228.942 300.624 230.037 300.092 230.854L288.38 248.855C287.862 249.651 286.802 249.886 285.996 249.383L284.416 248.396C283.59 247.879 283.348 246.784 283.879 245.967L295.591 227.966Z" fill="#1B215B" stroke="#E5EAED" stroke-width="0.514585"/>
<path d="M287.338 248.834C286.401 248.248 286.116 247.015 286.701 246.078L290.019 240.769C290.604 239.832 291.838 239.547 292.775 240.132L297.294 242.956L291.857 251.658L287.338 248.834Z" fill="#B0C1E9"/>
<path d="M290.839 250.902C292.181 251.807 294.554 250.637 296.138 248.288C297.723 245.939 297.919 243.301 296.577 242.396C295.234 241.49 292.862 242.66 291.278 245.009C289.693 247.358 289.497 249.996 290.839 250.902Z" fill="#1B215B"/>
<path d="M293.146 248.846C292.234 248.25 291.966 247.035 292.543 246.112L292.775 245.741C293.361 244.804 294.594 244.519 295.531 245.105L300.345 248.113L296.272 250.889L293.146 248.846Z" fill="#5C66C0"/>
<path d="M304.702 232.022C304.702 232.022 292.971 225.709 294.401 229.748C296.196 234.818 292.948 237.609 292.719 238.574C292.201 240.756 296.756 242.767 296.756 242.767C296.756 242.767 299.289 241.678 301.262 238.574C303.236 235.47 304.702 232.022 304.702 232.022Z" fill="#959FFA"/>
<path d="M304.086 231.98C304.203 232.041 304.302 232.093 304.38 232.134C304.339 232.229 304.283 232.354 304.214 232.506C304.047 232.876 303.803 233.401 303.498 234.024C302.887 235.269 302.032 236.898 301.051 238.44C300.083 239.962 298.979 240.989 298.119 241.635C297.689 241.958 297.32 242.185 297.06 242.331C296.931 242.404 296.828 242.456 296.759 242.49C296.758 242.491 296.756 242.491 296.755 242.492C296.731 242.48 296.702 242.467 296.67 242.451C296.549 242.393 296.376 242.308 296.17 242.198C295.757 241.979 295.215 241.665 294.69 241.286C294.163 240.906 293.666 240.468 293.335 240.004C293.003 239.541 292.856 239.08 292.962 238.631C292.981 238.552 293.038 238.432 293.145 238.254C293.223 238.125 293.317 237.98 293.426 237.813C293.462 237.757 293.501 237.698 293.541 237.637C293.851 237.157 294.232 236.544 294.549 235.798C295.186 234.297 295.558 232.267 294.637 229.665C294.467 229.186 294.528 228.958 294.623 228.849C294.729 228.726 294.966 228.638 295.401 228.649C296.251 228.672 297.546 229.066 298.924 229.603C300.292 230.136 301.707 230.796 302.781 231.323C303.318 231.586 303.769 231.816 304.086 231.98Z" stroke="white" stroke-opacity="0.264751" stroke-width="0.5"/>
<path d="M367.509 261.976L323.647 235.354L323.768 210.469L380.08 177.227L417.799 219.08L367.509 261.976Z" fill="#D0D4FF"/>
<path d="M349.302 194.761L384.39 231.422" stroke="white" stroke-width="0.5"/>
<path d="M398.19 224.798L378.294 202.667C377.745 202.055 377.625 201.169 377.994 200.434L381.879 192.679C382.254 191.93 382.123 191.027 381.55 190.416L373.492 181.819" stroke="white" stroke-width="0.5"/>
<path d="M383.121 251.44L360.244 227.468C359.996 227.208 359.629 227.101 359.28 227.187L355.227 228.191C354.887 228.275 354.528 228.175 354.28 227.928L332.345 206.05" stroke="white" stroke-width="0.5"/>
<path d="M388.09 186.116L417.799 219.08L367.508 261.976L354.067 253.819C355.034 252.661 355.992 251.477 356.942 250.268C374.457 227.959 384.84 206.575 388.09 186.116Z" fill="#9593F3" fill-opacity="0.33143"/>
<path d="M323.763 211.321L368.28 261.334L367.509 261.976L323.647 235.354L323.763 211.321Z" fill="#1B215B"/>
<mask id="path-129-inside-1" fill="white">
<path fill-rule="evenodd" clip-rule="evenodd" d="M428.559 220.264C428.559 121.098 348.168 40.7073 249.002 40.7073C149.835 40.7073 69.4446 121.098 69.4446 220.264C69.4446 319.431 149.835 399.822 249.002 399.822C348.168 399.822 428.559 319.431 428.559 220.264ZM147.131 182.154C147.131 113.749 202.584 58.2962 270.989 58.2962C339.393 58.2962 394.846 113.749 394.846 182.154C394.846 250.559 339.393 306.012 270.989 306.012C202.584 306.012 147.131 250.559 147.131 182.154Z"/>
</mask>
<path fill-rule="evenodd" clip-rule="evenodd" d="M428.559 220.264C428.559 121.098 348.168 40.7073 249.002 40.7073C149.835 40.7073 69.4446 121.098 69.4446 220.264C69.4446 319.431 149.835 399.822 249.002 399.822C348.168 399.822 428.559 319.431 428.559 220.264ZM147.131 182.154C147.131 113.749 202.584 58.2962 270.989 58.2962C339.393 58.2962 394.846 113.749 394.846 182.154C394.846 250.559 339.393 306.012 270.989 306.012C202.584 306.012 147.131 250.559 147.131 182.154Z" fill="#F8FCFF"/>
<path d="M249.002 41.7073C347.616 41.7073 427.559 121.65 427.559 220.264H429.559C429.559 120.545 348.721 39.7073 249.002 39.7073V41.7073ZM70.4446 220.264C70.4446 121.65 150.387 41.7073 249.002 41.7073V39.7073C149.283 39.7073 68.4446 120.545 68.4446 220.264H70.4446ZM249.002 398.822C150.387 398.822 70.4446 318.879 70.4446 220.264H68.4446C68.4446 319.983 149.283 400.822 249.002 400.822V398.822ZM427.559 220.264C427.559 318.879 347.616 398.822 249.002 398.822V400.822C348.721 400.822 429.559 319.983 429.559 220.264H427.559ZM270.989 57.2962C202.032 57.2962 146.131 113.197 146.131 182.154H148.131C148.131 114.302 203.136 59.2962 270.989 59.2962V57.2962ZM395.846 182.154C395.846 113.197 339.946 57.2962 270.989 57.2962V59.2962C338.841 59.2962 393.846 114.302 393.846 182.154H395.846ZM270.989 307.012C339.946 307.012 395.846 251.111 395.846 182.154H393.846C393.846 250.007 338.841 305.012 270.989 305.012V307.012ZM146.131 182.154C146.131 251.111 202.032 307.012 270.989 307.012V305.012C203.136 305.012 148.131 250.007 148.131 182.154H146.131Z" fill="#E9EBFF" mask="url(#path-129-inside-1)"/>
<path d="M394.114 276.697C401.026 276.697 406.873 281.253 408.817 287.526L417.681 281.956C392.519 350.733 326.493 399.822 249.002 399.822C246.269 399.822 243.549 399.76 240.845 399.64L243.168 398.602C259.256 391.376 271.705 384.997 280.516 379.459C290.006 373.496 298.315 366.599 305.444 358.769C300.238 356.3 296.64 350.998 296.64 344.855C296.64 336.355 303.53 329.464 312.03 329.464C320.003 329.464 326.56 335.527 327.343 343.293C341.213 339.301 352.135 334.164 360.11 327.881C368.115 321.574 376.635 313.933 385.67 304.958C381.486 302.206 378.723 297.469 378.723 292.087C378.723 283.587 385.614 276.697 394.114 276.697Z" fill="#9593F3" fill-opacity="0.33143"/>
<path d="M312.031 357.314C318.912 357.314 324.49 351.736 324.49 344.855C324.49 337.974 318.912 332.396 312.031 332.396C305.15 332.396 299.572 337.974 299.572 344.855C299.572 351.736 305.15 357.314 312.031 357.314Z" fill="#733DFF"/>
<path d="M394.114 304.546C400.995 304.546 406.573 298.968 406.573 292.087C406.573 285.206 400.995 279.628 394.114 279.628C387.233 279.628 381.655 285.206 381.655 292.087C381.655 298.968 387.233 304.546 394.114 304.546Z" fill="#733DFF"/>
<path fill-rule="evenodd" clip-rule="evenodd" d="M406.572 184.353C406.572 109.067 345.541 48.0361 270.255 48.0361C194.97 48.0361 133.938 109.067 133.938 184.353C133.938 259.639 194.97 320.67 270.255 320.67C345.541 320.67 406.572 259.639 406.572 184.353ZM147.131 182.154C147.131 113.749 202.584 58.2964 270.989 58.2964C339.393 58.2964 394.846 113.749 394.846 182.154C394.846 250.559 339.393 306.012 270.989 306.012C202.584 306.012 147.131 250.559 147.131 182.154Z" fill="#733DFF"/>
<path d="M255.438 283.139C254.339 282.622 254.277 281.083 255.33 280.479L320.711 243.032C321.213 242.745 321.836 242.772 322.311 243.101L327.888 246.969C328.187 247.176 328.171 247.625 327.856 247.81L263.033 285.985C262.606 286.237 262.082 286.261 261.634 286.05L255.438 283.139Z" fill="#FF3F87" stroke="white"/>
<path d="M394.347 182.154C394.347 250.283 339.117 305.512 270.989 305.512C202.86 305.512 147.631 250.283 147.631 182.154C147.631 114.026 202.86 58.7966 270.989 58.7966C339.117 58.7966 394.347 114.026 394.347 182.154Z" fill="#9286FF" fill-opacity="0.193018" stroke="#ECEAFE"/>
<path d="M120.747 181.418C120.747 208.074 87.1002 225.604 89.8744 249.58L90.073 251.212C93.0547 274.571 101.814 296.212 112.924 302.837C124.293 309.615 143.863 307.625 158.025 325.088C165.533 334.346 173.04 354.752 180.547 386.304C115.336 359.397 69.4446 295.19 69.4446 220.265C69.4446 184.738 79.7624 151.621 97.5649 123.747C113.021 147.08 120.747 166.303 120.747 181.418Z" fill="#9593F3" fill-opacity="0.33143"/>
<path d="M313.496 352.917C317.948 352.917 321.558 349.308 321.558 344.855C321.558 340.403 317.948 336.793 313.496 336.793C309.044 336.793 305.434 340.403 305.434 344.855C305.434 349.308 309.044 352.917 313.496 352.917Z" fill="#1B215B"/>
<path d="M395.579 300.149C400.032 300.149 403.641 296.54 403.641 292.087C403.641 287.635 400.032 284.026 395.579 284.026C391.127 284.026 387.518 287.635 387.518 292.087C387.518 296.54 391.127 300.149 395.579 300.149Z" fill="#1B215B"/>
<path d="M319.342 344.855C319.342 348.893 316.069 352.167 312.031 352.167C307.993 352.167 304.719 348.893 304.719 344.855C304.719 340.817 307.993 337.543 312.031 337.543C316.069 337.543 319.342 340.817 319.342 344.855Z" fill="#0D134E" stroke="#959FFA" stroke-width="1.5"/>
<path d="M401.426 292.087C401.426 296.125 398.152 299.399 394.114 299.399C390.076 299.399 386.802 296.125 386.802 292.087C386.802 288.049 390.076 284.776 394.114 284.776C398.152 284.776 401.426 288.049 401.426 292.087Z" fill="#0D134E" stroke="#959FFA" stroke-width="1.5"/>
<path d="M33.6132 206.389L39.8061 193.099L25.8677 196.056L33.6132 206.389Z" fill="#D0D4FF"/>
<path d="M36.1547 140.676L42.2015 153.872L35.7197 161.283L30.8039 150.918L36.1547 140.676Z" fill="#D0D4FF"/>
<path d="M89.1617 142.526C101.028 142.937 111.788 149.602 117.441 160.043C123.205 170.689 122.742 183.665 116.279 193.902C109.904 204.001 98.6255 210.014 86.6888 209.628L53.784 208.564C53.0248 208.54 52.3451 208.087 52.0295 207.397L47.89 198.337L31.8261 198.168L35.122 204.934C35.7746 206.273 34.7859 207.83 33.2961 207.809L29.445 207.756C28.7129 207.745 28.0449 207.336 27.7035 206.688L10.6223 174.27C10.2882 173.635 10.3189 172.871 10.7028 172.266L30.3123 141.348C30.693 140.748 31.3636 140.395 32.0738 140.421L35.9184 140.561C37.3881 140.614 38.2995 142.182 37.6185 143.485L33.7356 150.918L49.1293 151.731L54.1446 142.428C54.5053 141.758 55.2144 141.351 55.9742 141.378L89.1617 142.526Z" fill="#733DFF"/>
<path d="M37.8406 173.855L59.5486 174.168C71.4372 174.34 81.7831 182.344 84.9345 193.809C86.5264 199.6 84.7003 205.525 80.6771 209.435" stroke="#491A9C"/>
<path d="M92.6785 184.525C89.9332 179.361 90.1971 173.055 93.3094 168.098C99.9743 157.484 115.72 157.825 121.656 168.837C124.458 174.036 124.195 180.413 121.03 185.406C114.315 195.999 98.5561 195.579 92.6785 184.525Z" fill="#F8FCFF" stroke="#E9EBFF"/>
<path d="M96.3747 182.859C94.1944 178.758 94.3882 173.802 96.8822 169.884L97.2028 169.38C102.489 161.076 114.755 161.521 119.427 170.186C121.653 174.315 121.46 179.327 118.924 183.273L118.602 183.776C113.276 192.063 100.999 191.557 96.3747 182.859Z" fill="#0D134E" stroke="#959FFA" stroke-width="1.5"/>
<path d="M32.1971 197.671L20.6808 174.733C20.3832 174.141 20.3988 173.439 20.7225 172.86L33.2817 150.395L48.8857 151.112L37.2268 173.214L48.0802 198.13L32.1971 197.671Z" fill="black" fill-opacity="0.275213"/>
<path d="M38.4453 150.611L26.798 173.177C26.5069 173.741 26.5008 174.409 26.7815 174.979L38.0583 197.843L32.1971 197.671L20.6808 174.733C20.3832 174.141 20.3988 173.439 20.7225 172.86L33.2817 150.395L38.4453 150.611Z" fill="#FF3F87"/>
<path d="M105.712 400.173L103.667 385.654L93.5884 395.726L105.712 400.173Z" fill="#D0D4FF"/>
<path d="M71.2549 343.914L83.5133 351.687L82.1136 361.433L72.3457 355.418L71.2549 343.914Z" fill="#D0D4FF"/>
<path d="M117.191 316.727C127.366 310.609 140.021 310.338 150.448 316.016C161.08 321.804 167.759 332.94 167.915 345.045C168.068 356.987 161.884 368.173 151.663 374.35L123.487 391.379C122.837 391.772 122.021 391.763 121.38 391.355L112.974 386.012L99.4098 394.619L105.859 398.498C107.136 399.266 107.154 401.111 105.894 401.904L102.635 403.957C102.015 404.347 101.232 404.367 100.593 404.01L68.6107 386.125C67.9852 385.775 67.5947 385.117 67.587 384.401L67.194 347.791C67.1864 347.08 67.5565 346.419 68.1662 346.054L71.4666 344.077C72.7282 343.321 74.3465 344.14 74.4853 345.604L75.2769 353.952L88.63 346.25L87.7691 335.716C87.7072 334.958 88.0803 334.231 88.7319 333.839L117.191 316.727Z" fill="#733DFF"/>
<path d="M90.7635 370.44L110.472 358.042C119.847 352.145 131.926 352.823 140.581 359.732C146.009 364.066 147.708 371.338 145.221 377.461" stroke="#491A9C"/>
<path d="M143.014 349.973C137.899 347.138 134.686 341.705 134.596 335.853C134.405 323.321 147.796 315.031 158.772 321.034C163.954 323.868 167.207 329.359 167.271 335.27C167.409 347.812 153.964 356.042 143.014 349.973Z" fill="#F8FCFF" stroke="#E9EBFF"/>
<path d="M145.181 346.145C141.119 343.893 138.583 339.631 138.54 334.987L138.535 334.39C138.446 324.547 148.975 318.238 157.612 322.961C161.728 325.212 164.297 329.52 164.319 334.211L164.322 334.808C164.369 344.659 153.797 350.921 145.181 346.145Z" fill="#0D134E" stroke="#959FFA" stroke-width="1.5"/>
<path d="M99.4507 394.001L76.3843 380.5L74.6117 353.76L88.0892 345.864L90.3487 370.75L113.021 385.735L99.4507 394.001Z" fill="black" fill-opacity="0.275213"/>
<path d="M79.0602 351.13L81.6822 377.402L104.46 390.952L99.4507 394.001L76.3843 380.5L74.6117 353.76L79.0602 351.13Z" fill="#FF3F87"/>
</g>
</svg>
