<svg width="1351" height="751" viewBox="0 0 1351 751" fill="none" xmlns="http://www.w3.org/2000/svg">
<circle r="5.22504" transform="matrix(1 0 0 -1 1317.77 508.225)" fill="#CCCCCC" fill-opacity="0.3"/>
<path opacity="0.4" d="M1284.99 750.001V677.809C1284.99 677.021 1285.46 676.307 1286.18 675.984L1316.42 662.403C1317.14 662.08 1317.6 661.366 1317.6 660.579V514.4" stroke="#CCCCCC"/>
<path opacity="0.4" d="M1.00012 0V232.997C1.00012 233.591 1.26415 234.154 1.7207 234.534L56.2795 279.943C56.7361 280.323 57.0001 280.886 57.0001 281.48V750" stroke="#CCCCCC"/>
<circle cx="894.849" cy="101.784" r="9.84956" transform="rotate(90 894.849 101.784)" fill="#CCCCCC" fill-opacity="0.3"/>
<path opacity="0.4" d="M1350.62 40L1213.38 40C1212.59 40 1211.88 40.4623 1211.56 41.1808L1185.02 100.29C1184.69 101.008 1183.98 101.471 1183.19 101.471L906.49 101.471" stroke="#CCCCCC"/>
</svg>
