<svg width="22" height="21" viewBox="0 0 22 21" fill="none" xmlns="http://www.w3.org/2000/svg">
<g clip-path="url(#clip0)">
<path d="M19.5816 3.45557H16.7846C16.3095 3.45557 15.924 3.83357 15.924 4.29932C15.924 4.76507 16.3095 5.14308 16.7846 5.14308H19.3665V15.2681H2.15388V5.14308H4.73577C5.21084 5.14308 5.5964 4.76507 5.5964 4.29932C5.5964 3.83357 5.21084 3.45557 4.73577 3.45557H1.93872C1.10735 3.45557 0.432617 4.11707 0.432617 4.93214V15.4791C0.432617 16.2941 1.10735 16.9557 1.93872 16.9557H9.03892V18.6432H7.31766C6.84259 18.6432 6.45703 19.0212 6.45703 19.4869C6.45703 19.9527 6.84259 20.3307 7.31766 20.3307H14.2027C14.6786 20.3307 15.0633 19.9527 15.0633 19.4869C15.0633 19.0212 14.6786 18.6432 14.2027 18.6432H12.4814V16.9557H19.5816C20.413 16.9557 21.0877 16.2941 21.0877 15.4791V4.93214C21.0877 4.11707 20.413 3.45557 19.5816 3.45557Z" fill="#333333"/>
<path d="M13.947 4.69458C13.9634 4.56379 13.9875 4.4347 13.9875 4.29886C13.9875 4.16301 13.9634 4.03392 13.947 3.90313L14.7225 3.32769C14.8954 3.19944 14.9436 2.96488 14.8352 2.7801L14.139 1.59884C14.0305 1.4149 13.799 1.33812 13.5993 1.42081L12.7069 1.78953C12.4891 1.62668 12.2576 1.48324 12.002 1.37862L11.8832 0.449643C11.8557 0.238704 11.6732 0.0800781 11.4564 0.0800781H10.0647C9.84785 0.0800781 9.66453 0.238704 9.63785 0.449643L9.51909 1.37862C9.26262 1.48324 9.03111 1.62753 8.81337 1.78953L7.92175 1.42081C7.72123 1.33812 7.48972 1.41406 7.38128 1.59884L6.68589 2.7801C6.57745 2.96403 6.62565 3.1986 6.79863 3.32769L7.57406 3.90313C7.55685 4.03392 7.53275 4.16301 7.53275 4.29886C7.53275 4.4347 7.55685 4.56379 7.5732 4.69458L6.79863 5.27002C6.62565 5.39827 6.57659 5.63283 6.68589 5.81762L7.38128 6.99887C7.48972 7.18365 7.72123 7.25959 7.92175 7.17691L8.81423 6.80734C9.03197 6.97018 9.26348 7.11362 9.51909 7.21825L9.63785 8.14722C9.66453 8.35901 9.84699 8.51763 10.0639 8.51763H11.4555C11.6724 8.51763 11.8557 8.35901 11.8824 8.14807L12.0011 7.21909C12.2568 7.11447 12.4891 6.97018 12.706 6.80818L13.5985 7.17691C13.799 7.25959 14.0305 7.18365 14.139 6.99887L14.8343 5.81762C14.9428 5.63368 14.8946 5.39911 14.7216 5.27002L13.947 4.69458ZM10.7601 5.98637C9.80912 5.98637 9.03885 5.23121 9.03885 4.29886C9.03885 3.36651 9.80912 2.61134 10.7601 2.61134C11.7111 2.61134 12.4814 3.36651 12.4814 4.29886C12.4814 5.23121 11.7111 5.98637 10.7601 5.98637Z" fill="#333333"/>
</g>
<defs>
<clipPath id="clip0">
<rect width="20.6551" height="20.2501" fill="white" transform="translate(0.432617 0.0800781)"/>
</clipPath>
</defs>
</svg>
