<svg width="21" height="21" viewBox="0 0 21 21" fill="none" xmlns="http://www.w3.org/2000/svg">
<path d="M18.4127 0.894043H2.73072C1.66414 0.894043 0.796387 1.74478 0.796387 2.79045V18.165C0.796387 19.2106 1.66414 20.0614 2.73072 20.0614H18.4127C19.4793 20.0614 20.347 19.2106 20.347 18.165V2.79045C20.347 1.74478 19.4793 0.894043 18.4127 0.894043V0.894043ZM2.73072 2.01713H18.4127C18.8476 2.01713 19.2015 2.36405 19.2015 2.79045V5.01202H1.94193V2.79045C1.94193 2.36405 2.29579 2.01713 2.73072 2.01713ZM18.4127 18.9383H2.73072C2.29579 18.9383 1.94193 18.5914 1.94193 18.165V6.13511H19.2015V18.165C19.2015 18.5914 18.8476 18.9383 18.4127 18.9383Z" fill="#333333"/>
<path d="M3.51769 4.09232H4.62368C4.94 4.09232 5.19645 3.8409 5.19645 3.53078C5.19645 3.22066 4.94 2.96924 4.62368 2.96924H3.51769C3.20137 2.96924 2.94492 3.22066 2.94492 3.53078C2.94492 3.8409 3.20133 4.09232 3.51769 4.09232Z" fill="#333333"/>
<path d="M6.5201 4.09232H7.62609C7.94241 4.09232 8.19886 3.8409 8.19886 3.53078C8.19886 3.22066 7.94241 2.96924 7.62609 2.96924H6.5201C6.20378 2.96924 5.94733 3.22066 5.94733 3.53078C5.94733 3.8409 6.20378 4.09232 6.5201 4.09232Z" fill="#333333"/>
<path d="M9.5367 4.09232H10.6427C10.959 4.09232 11.2155 3.8409 11.2155 3.53078C11.2155 3.22066 10.959 2.96924 10.6427 2.96924H9.5367C9.22038 2.96924 8.96393 3.22066 8.96393 3.53078C8.96393 3.8409 9.22038 4.09232 9.5367 4.09232Z" fill="#333333"/>
<path d="M10.5717 7.18555C7.52068 7.18555 5.03851 9.61901 5.03851 12.6102C5.03851 15.6014 7.52068 18.0348 10.5717 18.0348C13.6226 18.0348 16.1048 15.6013 16.1048 12.6102C16.1048 9.61905 13.6226 7.18555 10.5717 7.18555ZM14.922 12.0486H13.5229C13.4602 10.8769 13.2019 9.78481 12.7799 8.92738C12.7723 8.9118 12.7645 8.89634 12.7568 8.88096C13.9149 9.53579 14.7411 10.6941 14.922 12.0486ZM9.99888 8.56462V12.0486H8.76788C8.86812 10.3944 9.40079 9.09296 9.99888 8.56462ZM9.99888 13.1717V16.6557C9.40079 16.1274 8.86812 14.826 8.76788 13.1717H9.99888ZM11.1444 16.6557V13.1717H12.3754C12.2752 14.826 11.7425 16.1274 11.1444 16.6557ZM11.1444 12.0486V8.56462C11.7425 9.09296 12.2752 10.3944 12.3754 12.0486H11.1444ZM8.38653 8.88099C8.37878 8.89638 8.37106 8.91184 8.36339 8.92741C7.94141 9.78481 7.68312 10.8769 7.62042 12.0487H6.22129C6.40221 10.6941 7.22842 9.53579 8.38653 8.88099ZM6.22129 13.1717H7.62042C7.68312 14.3434 7.94141 15.4355 8.36339 16.2929C8.37106 16.3085 8.37878 16.324 8.38653 16.3394C7.22842 15.6846 6.40221 14.5263 6.22129 13.1717ZM12.7568 16.3394C12.7645 16.324 12.7723 16.3085 12.7799 16.2929C13.2019 15.4355 13.4602 14.3434 13.5229 13.1717H14.922C14.7411 14.5263 13.9149 15.6846 12.7568 16.3394Z" fill="#333333"/>
</svg>
