<svg width="1342" height="727" viewBox="0 0 1342 727" fill="none" xmlns="http://www.w3.org/2000/svg">
<ellipse cx="897.582" cy="61.8722" rx="9.77312" ry="9.58149" transform="rotate(90 897.582 61.8722)" fill="#CCCCCC" fill-opacity="0.3"/>
<path opacity="0.4" d="M1340.94 0.567871L1207.49 0.567871C1206.7 0.567871 1205.98 1.03635 1205.66 1.7621L1179.86 60.3673C1179.54 61.093 1178.82 61.5615 1178.03 61.5615L908.905 61.5615" stroke="#CCCCCC"/>
<path d="M1306.79 49.1486C1306.79 49.1486 1310.02 43.6933 1310.32 42.0202C1310.63 40.3471 1311.1 37.3954 1312.27 36.1591C1312.85 35.5438 1315.87 33.8725 1319.78 33.4182C1321.02 33.2738 1322.15 31.969 1323.3 31.5205C1325.69 30.5881 1327.47 31.3387 1328.53 31.9147C1331.76 33.6651 1327.8 38.2061 1325.74 39.5353C1323.68 40.8645 1318.49 43.5541 1317.52 45.714C1316.54 47.874 1313.97 53.3386 1313.97 53.3386L1306.79 49.1486Z" fill="#959FFA"/>
<path d="M1328.53 31.9148C1329.93 32.6765 1329.98 33.9666 1329.41 35.2906C1326.7 37.8617 1317.7 42.8249 1312.98 39.4365C1311.64 38.4712 1311.78 37.1218 1313.4 35.3883C1314.73 34.656 1317.04 33.7372 1319.78 33.4182C1321.02 33.2738 1322.15 31.969 1323.3 31.5206C1325.69 30.5881 1327.47 31.3387 1328.53 31.9148Z" fill="#733DFF"/>
<path d="M1328.53 31.9149C1331.7 33.6341 1327.93 38.045 1325.85 39.4613L1325.74 39.5355C1323.68 40.8647 1318.49 43.5543 1317.52 45.7142L1316.88 47.1168C1316.19 48.6025 1315.23 50.6765 1313.97 53.3388L1311.68 52.0021L1311.3 49.6774C1314.17 44.314 1316.34 41.0336 1317.83 39.8362L1328.46 31.8801L1328.53 31.9149Z" fill="black" fill-opacity="0.489401"/>
<path d="M1328.53 31.9147C1328.84 32.0833 1329.08 32.2777 1329.27 32.4927C1329.16 33.0259 1328.98 33.5298 1328.75 34.0056C1327.74 36.0156 1317.57 41.0776 1314.52 38.8838C1313.13 37.8779 1313.09 36.5442 1314.42 34.8827C1315.77 34.2789 1317.64 33.6666 1319.78 33.4181C1321.02 33.2737 1322.15 31.9689 1323.3 31.5205C1325.69 30.588 1327.47 31.3386 1328.53 31.9147Z" fill="#380085"/>
<path d="M1284.6 36.76C1284.6 36.76 1286.83 29.8106 1287.4 27.692C1287.78 26.2559 1287.86 25.2035 1287.96 24.6097C1288.37 22.4052 1300.7 18.2875 1302.3 18.571C1305.53 19.1417 1304.35 22.9141 1303.39 24.3548C1302.43 25.7954 1295.96 29.7081 1295.42 30.2014C1293.97 31.5435 1291.41 39.1202 1291.41 39.1202L1284.6 36.76Z" fill="#959FFA"/>
<path d="M1302.3 18.5711C1303.84 18.8423 1304.37 19.8362 1304.42 20.9594C1304.27 21.0711 1304.12 21.181 1303.96 21.2888L1300.89 23.3023C1299.48 24.2411 1298.07 25.1974 1297.37 25.7682L1297.12 25.9751C1295.12 27.7918 1289.94 27.4911 1287.76 25.9988L1287.83 25.5203C1287.88 25.1483 1287.92 24.8435 1287.96 24.6098C1288.37 22.4053 1300.7 18.2876 1302.3 18.5711Z" fill="#733DFF"/>
<path d="M1303.39 24.355C1302.43 25.7957 1295.96 29.7083 1295.42 30.2016C1294.46 31.0837 1293.15 33.9857 1291.48 38.9076L1290.71 38.8776L1289.88 38.5895L1291.96 27.2798C1292.32 25.2858 1296.19 22.555 1303.55 19.0873C1305.15 20.3172 1304.19 23.1507 1303.39 24.355Z" fill="black" fill-opacity="0.489401"/>
<path d="M1302.3 18.5711C1303.27 18.742 1303.84 19.2001 1304.14 19.7968C1303.96 19.9228 1303.77 20.0529 1303.57 20.1868C1301.73 21.4044 1298 23.1125 1296.86 24.032L1296.74 24.1309C1294.71 25.9795 1289.89 26.4666 1287.89 25.089L1287.94 24.7533C1287.95 24.7028 1287.96 24.655 1287.96 24.6098C1288.37 22.4053 1300.7 18.2876 1302.3 18.5711Z" fill="#380085"/>
<path d="M1248.62 76.989C1248.62 76.989 1264.67 63.9878 1268.16 62.0249C1271.66 60.0619 1273.31 59.5784 1273.48 58.6778C1273.64 57.7772 1275.21 54.7886 1276.05 50.2304C1276.88 45.6721 1282.86 35.3437 1285.44 35.2506C1288.03 35.1575 1291.66 36.2501 1291.86 37.5389C1292.07 38.8277 1288.03 66.3678 1284.85 69.377C1281.67 72.3861 1275.68 76.5648 1275.68 76.5648C1275.68 76.5648 1287.58 74.6072 1289.19 72.5173C1290.79 70.4275 1290.87 68.3307 1292.41 65.3138C1293.94 62.2969 1304.82 48.0751 1307.29 47.6905C1309.77 47.3059 1313.75 50.2444 1314.5 52.6151C1315.25 54.9858 1303.27 81.8905 1300.59 84.1554C1297.9 86.4202 1292.04 90.2953 1284.88 91.8244C1281.25 92.6009 1277.05 93.7174 1270.79 94.7307C1268.83 95.0476 1263.78 95.4945 1263.78 95.4945L1248.62 76.989Z" fill="#733DFF"/>
<path d="M1274.16 56.7578L1274.23 56.5792C1276.24 57.023 1278.15 57.5716 1279.97 58.225C1282.11 58.9934 1284.55 60.7285 1287.28 63.4302L1287.1 64.1018C1286.34 66.7334 1285.57 68.6914 1284.85 69.3768C1283.71 70.4531 1282.3 71.6416 1280.63 72.9424C1279.5 70.0462 1278.39 67.6007 1277.32 65.6048C1276.27 63.6783 1274.08 62.027 1270.73 60.6511L1271.84 60.0775C1272.8 59.5658 1273.32 59.2124 1273.45 58.7678L1273.48 58.6776C1273.52 58.448 1273.65 58.0828 1273.84 57.5905L1274.23 56.5792L1274.16 56.7578Z" fill="#959FFA"/>
<path d="M1291.86 37.5386C1292.07 38.8273 1288.03 66.3675 1284.85 69.3766C1282.74 71.3656 1279.72 73.7378 1275.78 76.4933L1275.63 76.555L1276.39 75.6731C1279.98 71.4743 1282.34 68.193 1283.47 65.8293C1284.72 63.234 1287.26 46.8068 1289.68 35.9235C1290.87 36.3432 1291.76 36.9182 1291.86 37.5386Z" fill="black" fill-opacity="0.489401"/>
<path d="M1290.52 70.0754L1290.62 69.8095C1293.05 70.8153 1295.29 71.9517 1297.35 73.2187C1299.27 74.4042 1301.28 76.5922 1303.38 79.7827L1303.07 80.3593C1302 82.3237 1301.11 83.7119 1300.59 84.1554C1298.77 85.6835 1295.82 87.5328 1292.68 89.0532C1292.71 85.2462 1292.44 82.3728 1291.88 80.4322C1291.26 78.3021 1289.75 76.0702 1287.35 73.7365C1288.26 73.3339 1288.87 72.9275 1289.19 72.5173C1289.8 71.7212 1290.19 70.9241 1290.52 70.0754L1290.62 69.8095L1290.52 70.0754Z" fill="#959FFA"/>
<path d="M1314.5 52.6147C1315.25 54.9855 1303.27 81.8902 1300.59 84.1551C1297.97 86.3647 1292.32 90.1069 1285.41 91.708L1283.4 92.1517C1280.22 92.8678 1276.52 93.779 1271.41 94.6287L1270.79 94.7304C1270.36 94.8009 1269.8 94.8763 1269.14 94.9565L1272.87 83.4319C1283.06 83.4625 1290.39 82.1557 1294.86 79.5114C1300.05 76.4395 1307.33 58.7674 1311.43 49.0435C1312.88 50.0344 1314.11 51.3992 1314.5 52.6147Z" fill="black" fill-opacity="0.489401"/>
<path d="M1265.05 95.6677L1271.69 94.7247C1271.69 94.7247 1276.28 82.0337 1269.88 76.9584C1263.48 71.883 1257.56 69.9812 1257.56 69.9812L1248.72 76.5087L1263.78 95.4944L1265.05 95.6677Z" fill="#6970B1"/>
<path d="M1198.73 90.6324C1198.73 90.6324 1192.57 103.461 1190.03 104.213C1187.49 104.965 1187.33 105.386 1187.33 105.386L1181.03 112.733L1179.51 110.847L1179.48 109.492C1179.48 109.492 1178.51 108.923 1178.36 107.585C1178.22 106.248 1179.71 105.478 1181.12 103.968C1182.53 102.459 1180.33 101.476 1181.55 98.2318C1182.77 94.9876 1190.4 81.3924 1193.13 80.4595C1195.87 79.5265 1207.3 80.5361 1213.32 81.5991C1219.33 82.662 1250.56 72.1252 1250.56 72.1252L1267.48 84.1449C1267.48 84.1449 1268.35 93.5737 1264.15 96.4654C1259.95 99.357 1239.71 110.004 1232.59 108.747C1225.48 107.49 1212.02 101.043 1210.25 98.247C1209.02 96.2903 1210.14 93.6937 1208.05 92.2789C1206.56 91.2691 1198.73 90.6324 1198.73 90.6324Z" fill="#733DFF"/>
<path d="M1264.15 96.4655L1263.84 96.6703C1259.09 99.8017 1239.85 109.82 1232.76 108.774C1235.13 106.769 1236.05 104.501 1235.54 101.97C1235.01 99.3688 1232.13 97.2492 1226.9 95.6113C1222.05 93.376 1223.72 91.2017 1231.89 89.0884L1232.8 88.8607C1240.81 86.9116 1252.39 85.5987 1267.55 84.9221C1267.96 90.7707 1266.83 94.6184 1264.15 96.4655Z" fill="black" fill-opacity="0.489401"/>
<path d="M1223.79 73.8611L1222.5 80.8732C1222.38 81.5286 1222.6 82.1991 1223.1 82.6538L1238.65 96.903C1239.19 97.3912 1239.95 97.5563 1240.64 97.3338L1270.93 87.6085C1271.76 87.3428 1272.32 86.5823 1272.31 85.7283C1272.29 83.9226 1271.58 82.2792 1270.17 80.7981L1269.88 80.4992C1266.79 77.4478 1256.57 69.8063 1251.2 68.8569C1247.61 68.2222 1238.98 69.3677 1225.33 72.2934C1224.54 72.4626 1223.93 73.0812 1223.79 73.8611Z" fill="#959FFA"/>
<path d="M1240.15 84.7937L1267.55 78.4414L1268.1 78.9024C1268.99 79.6525 1269.71 80.3066 1270.17 80.7982C1271.58 82.2794 1272.29 83.9228 1272.31 85.7284C1272.32 86.529 1271.83 87.2475 1271.09 87.5531L1270.93 87.6087L1240.64 97.3339C1240.44 97.3991 1240.23 97.431 1240.02 97.4313L1240.5 96.4155C1240.73 95.9359 1240.97 95.4186 1241.22 94.8638C1242.8 91.3909 1242.51 88.1294 1240.36 85.079L1240.15 84.7937Z" fill="black" fill-opacity="0.489401"/>
<path d="M1251.2 68.8569C1256.76 69.839 1267.5 77.9828 1270.17 80.7981C1270.45 81.0931 1270.7 81.4115 1270.92 81.7534L1243.47 88.8868C1243.21 88.9544 1242.93 88.9158 1242.71 88.7834L1242.6 88.7094L1223.73 74.1487L1223.79 73.8611C1223.92 73.1332 1224.46 72.5458 1225.17 72.3332L1225.33 72.2934L1226.59 72.0243C1239.52 69.2978 1247.72 68.242 1251.2 68.8569Z" fill="#F8FCFF"/>
<path d="M1241.63 74.7815L1253.4 69.4975C1257.71 71.1396 1263.54 75.1881 1267.24 78.1847L1244.91 79.7852C1244.54 79.8121 1244.16 79.7347 1243.83 79.5638L1243.67 79.4707L1241.38 78.0036C1241.09 77.8131 1240.85 77.544 1240.7 77.2275C1240.29 76.3497 1240.64 75.3206 1241.48 74.854L1241.63 74.7815L1253.4 69.4975L1241.63 74.7815Z" fill="#380085"/>
<path d="M1251.2 68.857C1254.18 69.3833 1258.65 71.967 1262.56 74.685C1259.66 80.7146 1248.08 83.7028 1235.16 81.4188C1230.68 80.6264 1226.57 79.2946 1223.1 77.6156L1223.79 73.8612C1223.93 73.0813 1224.54 72.4627 1225.33 72.2935L1226.59 72.0244C1239.52 69.2979 1247.72 68.2421 1251.2 68.857Z" fill="#9593F3" fill-opacity="0.33143"/>
<path d="M1209.59 94.5822L1209.41 94.6488C1209.26 93.7351 1208.96 92.8952 1208.05 92.2793C1207.06 91.606 1203.95 91.0572 1198.73 90.6327L1198.31 91.5181C1194.42 99.4977 1191.66 103.729 1190.03 104.213C1188.33 104.715 1187.43 105.106 1187.33 105.386L1184.51 108.672L1179.86 105.041C1180.3 104.721 1180.74 104.373 1181.12 103.969C1182.53 102.459 1180.33 101.476 1181.55 98.2321L1181.68 97.9039C1183.24 94.1633 1190.48 81.3641 1193.13 80.4598C1195.87 79.5269 1207.3 80.5364 1213.32 81.5994C1214.56 81.8195 1216.62 81.6666 1219.48 81.1407L1219.03 82.0508C1215.35 89.3559 1212.2 93.5331 1209.59 94.5822Z" fill="#380085"/>
<path d="M1219.58 102.575C1223.66 103.295 1227.56 100.64 1228.3 96.6432C1229.03 92.6467 1226.32 88.8229 1222.25 88.1024C1218.17 87.3819 1214.27 90.0377 1213.53 94.0341C1212.8 98.0306 1215.51 101.854 1219.58 102.575Z" fill="#380085"/>
<path fill-rule="evenodd" clip-rule="evenodd" d="M1219.41 100.771C1223.21 101.443 1226.52 98.9059 1227.2 95.1758C1227.89 91.4458 1225.56 88.6879 1221.75 88.0155C1217.95 87.3431 1213.66 90.1496 1213.62 93.5518C1213.58 96.954 1215.6 100.098 1219.41 100.771Z" fill="#C5876A"/>
<path d="M1223.96 100.764L1222.25 104.286C1221.79 105.241 1220.63 105.663 1219.65 105.242L1216.05 103.708C1215.33 103.4 1214.85 102.703 1214.85 101.93L1214.81 98.4189C1216.14 99.0456 1217.4 99.5108 1218.59 99.8146C1219.77 100.118 1221.56 100.435 1223.96 100.764Z" fill="#380085"/>
<path d="M1214.82 98.3872L1215.13 98.4658L1215.26 98.5354C1216.44 99.1228 1217.55 99.5493 1218.59 99.8149C1219.58 100.07 1221.04 100.312 1222.95 100.539L1220.88 105.349C1220.48 105.441 1220.04 105.41 1219.63 105.236L1216.05 103.709C1215.33 103.4 1214.86 102.703 1214.85 101.929L1214.82 98.3872Z" fill="#959FFA"/>
<path d="M1184.86 103.299C1185.79 103.721 1186.76 104.3 1187.76 105.037C1187.51 105.168 1187.37 105.284 1187.33 105.386L1187.04 106.432C1186.6 107.959 1186.24 109.023 1185.95 109.624C1185.45 110.677 1184 111.922 1183.61 112.322L1183.55 112.381C1183.46 112.481 1182.58 113.176 1183 112.132L1183.24 111.542C1183.72 110.327 1184.14 108.794 1183.39 109.67C1182.47 110.737 1181.68 111.758 1181.03 112.733L1180.51 113.362C1179.15 114.994 1178.29 115.686 1177.95 115.438C1177.57 115.159 1178.09 113.629 1179.51 110.847L1179.48 109.491L1178.92 108.977C1178.11 108.237 1178.07 106.996 1178.82 106.205L1178.93 106.104L1179.55 105.53C1180.15 104.97 1180.67 104.449 1181.12 103.968C1181.6 103.459 1181.66 103.01 1181.59 102.514C1182.7 102.557 1183.8 102.819 1184.86 103.299Z" fill="#959FFA"/>
<path d="M1207.01 118.089C1207 116.905 1206.84 115.611 1206.52 114.205C1206.26 114.401 1206.06 114.494 1205.93 114.484L1204.65 114.284C1202.77 114.003 1201.43 113.865 1200.64 113.872C1199.25 113.883 1197.19 114.801 1196.56 115.019L1196.47 115.049C1196.32 115.094 1195.13 115.682 1196.47 115.754L1197.23 115.784C1198.79 115.872 1200.66 116.178 1199.34 116.54C1197.74 116.982 1196.24 117.31 1194.86 117.525L1193.92 117.759C1191.48 118.401 1190.31 118.96 1190.42 119.437C1190.54 119.97 1192.46 120.17 1196.18 120.034L1197.64 120.719L1197.93 121.558C1198.35 122.763 1199.68 123.41 1200.91 123.003L1201.07 122.943L1202 122.569C1202.9 122.214 1203.72 121.918 1204.46 121.68C1205.25 121.43 1205.77 121.58 1206.27 121.9C1206.77 120.706 1207.01 119.435 1207.01 118.089Z" fill="#959FFA"/>
<path d="M1202.67 118.004C1202.99 119.771 1204.81 122.253 1206.4 122.534C1207.98 122.815 1226.17 124.592 1228.17 123.606C1230.16 122.62 1239.94 111.984 1241.96 108.908C1243.97 105.832 1242.49 100.996 1237.51 100.874C1232.53 100.752 1223.75 113.199 1221.2 113.691C1218.64 114.183 1206.83 111.835 1204.54 113.372C1202.24 114.909 1202.35 116.238 1202.67 118.004Z" fill="#380085"/>
<path d="M1234.52 108.412C1233.19 111.118 1233.92 114.162 1236.15 115.211C1238.37 116.26 1241.25 114.917 1242.58 112.212C1243.91 109.507 1243.18 106.463 1240.95 105.414C1238.73 104.365 1235.85 105.707 1234.52 108.412Z" fill="#5C66C0"/>
<path d="M1236.12 109.213C1234.79 111.765 1235.21 114.591 1237.07 115.526C1238.92 116.461 1241.51 115.15 1242.85 112.598C1244.18 110.046 1243.76 107.219 1241.9 106.284C1240.05 105.349 1237.46 106.66 1236.12 109.213Z" fill="#F8FCFF"/>
<path d="M1210.87 86.238C1210.79 89.9907 1212.27 93.9201 1213.53 95.6904C1214.79 97.4607 1216.68 99.1575 1219.48 99.1326C1222.28 99.1076 1225.39 97.5018 1227 92.4052C1228.61 87.3087 1213.51 76.8422 1213.51 76.8422C1213.51 76.8422 1210.94 82.4853 1210.87 86.238Z" fill="#FFAF8A"/>
<path fill-rule="evenodd" clip-rule="evenodd" d="M1219.33 96.1865C1218.53 96.5233 1217.77 96.6441 1217.05 96.5521C1216.91 96.5348 1216.79 96.6296 1216.77 96.7638C1216.75 96.8981 1216.85 97.021 1216.98 97.0383C1217.8 97.1421 1218.65 97.007 1219.52 96.6363C1219.65 96.5825 1219.71 96.4382 1219.65 96.314C1219.6 96.1898 1219.45 96.1327 1219.33 96.1865Z" fill="#D28A62"/>
<path d="M1214.18 82.7454C1214.18 82.7454 1212.61 85.3112 1212.1 86.7663C1211.59 88.2214 1211.38 90.6779 1211.38 90.6779C1211.38 90.6779 1212.19 93.5581 1212.91 94.8622C1213.64 96.1663 1214.27 96.8766 1214.27 96.8766C1214.27 96.8766 1210.85 96.5972 1209.47 92.8745C1208.09 89.1519 1208.06 85.9601 1208.64 82.7962C1209.22 79.6323 1211.57 74.2297 1213.5 74.0913C1215.44 73.9529 1219.25 71.4584 1222.3 72.5607C1225.36 73.663 1226.75 74.7937 1227.89 76.6338C1229.03 78.4739 1229.79 82.9184 1231.8 85.181C1233.81 87.4436 1234.13 88.404 1233.14 90.4856C1232.16 92.5673 1225.29 97.0492 1225.29 97.0492C1225.29 97.0492 1225.8 91.3771 1224.54 90.82C1223.27 90.2629 1220.07 87.1554 1219.31 85.5375C1218.55 83.9196 1214.18 82.7454 1214.18 82.7454Z" fill="#0D134E"/>
<path d="M1209.96 88.5232C1209.96 88.5232 1210.37 92.6565 1211.38 93.3044C1212.39 93.9524 1213.57 94.3192 1214.25 93.8124C1214.94 93.3056 1215.67 92.0055 1215.67 92.0055C1215.67 92.0055 1217.56 93.6981 1219.15 93.9786C1220.74 94.2591 1225.76 90.8775 1225.76 90.8775L1222.38 87.4074C1222.38 87.4074 1218.63 89.2144 1215.71 89.5394C1212.78 89.8644 1209.96 88.5232 1209.96 88.5232Z" fill="#F8FCFF"/>
<path d="M1237.18 87.8403C1235.41 97.4182 1226.06 103.798 1216.27 102.067C1206.48 100.337 1199.99 91.1565 1201.75 81.5786C1203.51 72.0008 1212.86 65.6211 1222.65 67.3517C1232.45 69.0823 1238.94 78.2624 1237.18 87.8403Z" fill="#9286FF" fill-opacity="0.193018" stroke="#ECEAFE"/>
<path opacity="0.504464" fill-rule="evenodd" clip-rule="evenodd" d="M1211.03 75.9775C1211.94 74.6186 1211.93 73.0361 1211.01 72.4428C1210.08 71.8495 1208.6 72.4702 1207.69 73.8291C1206.78 75.188 1206.79 76.7706 1207.72 77.3639C1208.64 77.9571 1210.13 77.3364 1211.03 75.9775Z" fill="white"/>
<ellipse cx="7.57304" cy="382.581" rx="7.57308" ry="7.42458" transform="rotate(-180 7.57304 382.581)" fill="#CCCCCC" fill-opacity="0.3"/>
<path opacity="0.4" d="M55.0768 726.137L55.0768 623.02C55.0768 622.227 54.6083 621.509 53.8826 621.189L9.00777 601.436C8.28201 601.116 7.81354 600.398 7.81354 599.605L7.81354 391.356" stroke="#CCCCCC"/>
<ellipse rx="5.62029" ry="5.73269" transform="matrix(0 -1 -1 0 1090.73 658.758)" fill="#CCCCCC" fill-opacity="0.3"/>
<path opacity="0.4" d="M1356 694.012H1276.66C1275.87 694.012 1275.16 693.556 1274.84 692.845L1259.84 660.103C1259.52 659.392 1258.81 658.936 1258.03 658.936H1097.51" stroke="#CCCCCC"/>
</svg>
