<svg width="23" height="24" viewBox="0 0 23 24" fill="none" xmlns="http://www.w3.org/2000/svg">
<path d="M20.6875 0.549316H2.27155C1.01903 0.549316 0 1.54837 0 2.77633V20.8312C0 22.0591 1.01903 23.0582 2.27155 23.0582H20.6875C21.94 23.0582 22.959 22.0591 22.959 20.8311V2.77633C22.959 1.54837 21.94 0.549316 20.6875 0.549316V0.549316ZM2.27155 1.86819H20.6875C21.1982 1.86819 21.6138 2.27559 21.6138 2.77633V5.3852H1.34525V2.77633C1.34525 2.27559 1.7608 1.86819 2.27155 1.86819ZM20.6875 21.7393H2.27155C1.7608 21.7393 1.34525 21.3319 1.34525 20.8311V6.70408H21.6138V20.8311C21.6138 21.3319 21.1982 21.7393 20.6875 21.7393Z" fill="url(#paint0_linear)"/>
<path d="M3.1957 4.3052H4.4945C4.86597 4.3052 5.16712 4.00995 5.16712 3.64577C5.16712 3.28158 4.86597 2.98633 4.4945 2.98633H3.1957C2.82423 2.98633 2.52307 3.28158 2.52307 3.64577C2.52307 4.00995 2.82418 4.3052 3.1957 4.3052Z" fill="url(#paint1_linear)"/>
<path d="M6.72158 4.3052H8.02037C8.39184 4.3052 8.693 4.00995 8.693 3.64577C8.693 3.28158 8.39184 2.98633 8.02037 2.98633H6.72158C6.35011 2.98633 6.04895 3.28158 6.04895 3.64577C6.04895 4.00995 6.35011 4.3052 6.72158 4.3052Z" fill="url(#paint2_linear)"/>
<path d="M10.2641 4.3052H11.5629C11.9343 4.3052 12.2355 4.00995 12.2355 3.64577C12.2355 3.28158 11.9343 2.98633 11.5629 2.98633H10.2641C9.89259 2.98633 9.59143 3.28158 9.59143 3.64577C9.59143 4.00995 9.89259 4.3052 10.2641 4.3052Z" fill="url(#paint3_linear)"/>
<path d="M11.4795 7.9375C7.89659 7.9375 4.98169 10.7952 4.98169 14.3078C4.98169 17.8205 7.89659 20.6782 11.4795 20.6782C15.0623 20.6782 17.9772 17.8205 17.9772 14.3078C17.9772 10.7952 15.0623 7.9375 11.4795 7.9375ZM16.5882 13.6484H14.9452C14.8716 12.2724 14.5682 10.9899 14.0727 9.98299C14.0637 9.9647 14.0546 9.94654 14.0455 9.92848C15.4055 10.6975 16.3758 12.0577 16.5882 13.6484ZM10.8068 9.55699V13.6484H9.36121C9.47892 11.7058 10.1045 10.1774 10.8068 9.55699ZM10.8068 14.9672V19.0587C10.1045 18.4382 9.47892 16.9099 9.36121 14.9672H10.8068ZM12.1521 19.0587V14.9672H13.5977C13.48 16.9099 12.8544 18.4382 12.1521 19.0587ZM12.1521 13.6484V9.55699C12.8544 10.1774 13.48 11.7058 13.5977 13.6484H12.1521ZM8.91338 9.92852C8.90427 9.94659 8.89522 9.96475 8.8862 9.98303C8.39066 10.9899 8.08735 12.2724 8.01372 13.6484H6.37067C6.58313 12.0577 7.55337 10.6975 8.91338 9.92852ZM6.37067 14.9672H8.01372C8.08735 16.3432 8.39066 17.6257 8.8862 18.6326C8.89522 18.6509 8.90427 18.6691 8.91338 18.6871C7.55337 17.9182 6.58313 16.558 6.37067 14.9672ZM14.0455 18.6871C14.0546 18.6691 14.0637 18.6509 14.0727 18.6326C14.5682 17.6257 14.8716 16.3432 14.9452 14.9672H16.5882C16.3758 16.558 15.4055 17.9182 14.0455 18.6871Z" fill="url(#paint4_linear)"/>
<defs>
<linearGradient id="paint0_linear" x1="-0.394687" y1="0.198074" x2="27.1635" y2="8.77827" gradientUnits="userSpaceOnUse">
<stop stop-color="#363844"/>
<stop offset="1" stop-color="#11141C"/>
</linearGradient>
<linearGradient id="paint1_linear" x1="2.47762" y1="2.96575" x2="5.01049" y2="4.51572" gradientUnits="userSpaceOnUse">
<stop stop-color="#363844"/>
<stop offset="1" stop-color="#11141C"/>
</linearGradient>
<linearGradient id="paint2_linear" x1="6.0035" y1="2.96575" x2="8.53636" y2="4.51572" gradientUnits="userSpaceOnUse">
<stop stop-color="#363844"/>
<stop offset="1" stop-color="#11141C"/>
</linearGradient>
<linearGradient id="paint3_linear" x1="9.54598" y1="2.96575" x2="12.0788" y2="4.51572" gradientUnits="userSpaceOnUse">
<stop stop-color="#363844"/>
<stop offset="1" stop-color="#11141C"/>
</linearGradient>
<linearGradient id="paint4_linear" x1="4.75828" y1="7.73869" x2="20.3571" y2="12.5954" gradientUnits="userSpaceOnUse">
<stop stop-color="#363844"/>
<stop offset="1" stop-color="#11141C"/>
</linearGradient>
</defs>
</svg>
