<svg width="453" height="144" viewBox="0 0 453 144" fill="none" xmlns="http://www.w3.org/2000/svg">
<ellipse cx="9.58165" cy="61.8722" rx="9.77312" ry="9.58149" transform="rotate(90 9.58165 61.8722)" fill="#CCCCCC" fill-opacity="0.3"/>
<path opacity="0.4" d="M452.943 0.567871L319.49 0.567871C318.697 0.567871 317.979 1.03635 317.66 1.7621L291.862 60.3673C291.543 61.093 290.825 61.5615 290.032 61.5615L20.905 61.5615" stroke="#CCCCCC"/>
<path d="M418.789 49.1486C418.789 49.1486 422.017 43.6933 422.325 42.0202C422.632 40.3471 423.102 37.3954 424.27 36.1591C424.851 35.5438 427.873 33.8725 431.778 33.4182C433.019 33.2738 434.153 31.969 435.302 31.5205C437.692 30.5881 439.466 31.3387 440.529 31.9147C443.759 33.6651 439.795 38.2061 437.736 39.5353C435.677 40.8645 430.491 43.5541 429.517 45.714C428.543 47.874 425.973 53.3386 425.973 53.3386L418.789 49.1486Z" fill="#959FFA"/>
<path d="M440.528 31.9148C441.934 32.6765 441.978 33.9666 441.408 35.2906C438.699 37.8617 429.701 42.8249 424.982 39.4365C423.638 38.4712 423.777 37.1218 425.398 35.3883C426.73 34.656 429.036 33.7372 431.778 33.4182C433.019 33.2738 434.152 31.969 435.302 31.5206C437.691 30.5881 439.465 31.3387 440.528 31.9148Z" fill="#733DFF"/>
<path d="M440.529 31.9149C443.702 33.6341 439.935 38.045 437.848 39.4613L437.736 39.5355C435.677 40.8647 430.491 43.5543 429.517 45.7142L428.877 47.1168C428.193 48.6025 427.225 50.6765 425.973 53.3388L423.683 52.0021L423.303 49.6774C426.171 44.314 428.345 41.0336 429.825 39.8362L440.463 31.8801L440.529 31.9149Z" fill="black" fill-opacity="0.489401"/>
<path d="M440.529 31.9147C440.84 32.0833 441.084 32.2777 441.27 32.4927C441.159 33.0259 440.984 33.5298 440.745 34.0056C439.737 36.0156 429.566 41.0776 426.525 38.8838C425.13 37.8779 425.095 36.5442 426.419 34.8827C427.771 34.2789 429.642 33.6666 431.778 33.4181C433.019 33.2737 434.152 31.9689 435.302 31.5205C437.691 30.588 439.465 31.3386 440.529 31.9147Z" fill="#380085"/>
<path d="M396.601 36.76C396.601 36.76 398.827 29.8106 399.398 27.692C399.785 26.2559 399.855 25.2035 399.965 24.6097C400.37 22.4052 412.697 18.2875 414.301 18.571C417.53 19.1417 416.352 22.9141 415.392 24.3548C414.432 25.7954 407.959 29.7081 407.423 30.2014C405.965 31.5435 403.405 39.1202 403.405 39.1202L396.601 36.76Z" fill="#959FFA"/>
<path d="M414.301 18.5711C415.835 18.8423 416.374 19.8362 416.415 20.9594C416.272 21.0711 416.119 21.181 415.956 21.2888L412.894 23.3023C411.479 24.2411 410.073 25.1974 409.367 25.7682L409.123 25.9751C407.123 27.7918 401.941 27.4911 399.757 25.9988L399.831 25.5203C399.885 25.1483 399.922 24.8435 399.964 24.6098C400.37 22.4053 412.697 18.2876 414.301 18.5711Z" fill="#733DFF"/>
<path d="M415.392 24.355C414.432 25.7957 407.958 29.7083 407.423 30.2016C406.465 31.0837 405.15 33.9857 403.477 38.9076L402.705 38.8776L401.875 38.5895L403.956 27.2798C404.322 25.2858 408.188 22.555 415.552 19.0873C417.149 20.3172 416.195 23.1507 415.392 24.355Z" fill="black" fill-opacity="0.489401"/>
<path d="M414.301 18.5711C415.268 18.742 415.84 19.2001 416.14 19.7968C415.964 19.9228 415.775 20.0529 415.572 20.1868C413.728 21.4044 410.003 23.1125 408.86 24.032L408.744 24.1309C406.708 25.9795 401.891 26.4666 399.891 25.089L399.94 24.7533C399.948 24.7028 399.956 24.655 399.964 24.6098C400.37 22.4053 412.697 18.2876 414.301 18.5711Z" fill="#380085"/>
<path d="M360.619 76.989C360.619 76.989 376.668 63.9878 380.163 62.0249C383.657 60.0619 385.311 59.5784 385.476 58.6778C385.642 57.7772 387.208 54.7886 388.046 50.2304C388.884 45.6721 394.855 35.3437 397.441 35.2506C400.026 35.1575 403.656 36.2501 403.861 37.5389C404.067 38.8277 400.031 66.3678 396.848 69.377C393.665 72.3861 387.679 76.5648 387.679 76.5648C387.679 76.5648 399.58 74.6072 401.186 72.5173C402.792 70.4275 402.873 68.3307 404.408 65.3138C405.943 62.2969 416.817 48.0751 419.292 47.6905C421.768 47.3059 425.745 50.2444 426.497 52.6151C427.248 54.9858 415.275 81.8905 412.587 84.1554C409.9 86.4202 404.041 90.2953 396.884 91.8244C393.249 92.6009 389.054 93.7174 382.791 94.7307C380.833 95.0476 375.778 95.4945 375.778 95.4945L360.619 76.989Z" fill="#733DFF"/>
<path d="M386.161 56.7578L386.229 56.5792C388.24 57.023 390.155 57.5716 391.974 58.225C394.113 58.9934 396.55 60.7285 399.284 63.4302L399.096 64.1018C398.342 66.7334 397.573 68.6914 396.848 69.3768C395.71 70.4531 394.302 71.6416 392.626 72.9424C391.498 70.0462 390.395 67.6007 389.316 65.6048C388.274 63.6783 386.08 62.027 382.733 60.6511L383.837 60.0775C384.795 59.5658 385.319 59.2124 385.454 58.7678L385.476 58.6776C385.518 58.448 385.652 58.0828 385.841 57.5905L386.229 56.5792L386.161 56.7578Z" fill="#959FFA"/>
<path d="M403.861 37.5386C404.067 38.8273 400.031 66.3675 396.848 69.3766C394.744 71.3656 391.722 73.7378 387.781 76.4933L387.626 76.555L388.386 75.6731C391.976 71.4743 394.339 68.193 395.474 65.8293C396.72 63.234 399.261 46.8068 401.682 35.9235C402.87 36.3432 403.762 36.9182 403.861 37.5386Z" fill="black" fill-opacity="0.489401"/>
<path d="M402.522 70.0754L402.624 69.8095C405.047 70.8153 407.288 71.9517 409.346 73.2187C411.273 74.4042 413.284 76.5922 415.381 79.7827L415.069 80.3593C413.995 82.3237 413.113 83.7119 412.587 84.1554C410.774 85.6835 407.823 87.5328 404.678 89.0532C404.709 85.2462 404.442 82.3728 403.877 80.4322C403.258 78.3021 401.747 76.0702 399.346 73.7365C400.258 73.3339 400.87 72.9275 401.186 72.5173C401.797 71.7212 402.188 70.9241 402.522 70.0754L402.624 69.8095L402.522 70.0754Z" fill="#959FFA"/>
<path d="M426.496 52.6147C427.247 54.9855 415.274 81.8902 412.587 84.1551C409.965 86.3647 404.325 90.1069 397.405 91.708L395.396 92.1517C392.221 92.8678 388.516 93.779 383.41 94.6287L382.791 94.7304C382.355 94.8009 381.804 94.8763 381.138 94.9565L384.869 83.4319C395.058 83.4625 402.387 82.1557 406.858 79.5114C412.051 76.4395 419.333 58.7674 423.434 49.0435C424.878 50.0344 426.111 51.3992 426.496 52.6147Z" fill="black" fill-opacity="0.489401"/>
<path d="M377.049 95.6677L383.685 94.7247C383.685 94.7247 388.276 82.0337 381.88 76.9584C375.485 71.883 369.558 69.9812 369.558 69.9812L360.72 76.5087L375.777 95.4944L377.049 95.6677Z" fill="#6970B1"/>
<path d="M310.735 90.6324C310.735 90.6324 304.572 103.461 302.03 104.213C299.488 104.965 299.33 105.386 299.33 105.386L293.028 112.733L291.508 110.847L291.482 109.492C291.482 109.492 290.512 108.923 290.365 107.585C290.217 106.248 291.713 105.478 293.122 103.968C294.53 102.459 292.332 101.476 293.552 98.2318C294.773 94.9876 302.396 81.3924 305.131 80.4595C307.866 79.5265 319.302 80.5361 325.316 81.5991C331.33 82.662 362.563 72.1252 362.563 72.1252L379.483 84.1449C379.483 84.1449 380.345 93.5737 376.148 96.4654C371.95 99.357 351.706 110.004 344.593 108.747C337.479 107.49 324.018 101.043 322.255 98.247C321.02 96.2903 322.14 93.6937 320.051 92.2789C318.56 91.2691 310.735 90.6324 310.735 90.6324Z" fill="#733DFF"/>
<path d="M376.148 96.4655L375.843 96.6703C371.091 99.8017 351.849 109.82 344.756 108.774C347.128 106.769 348.054 104.501 347.538 101.97C347.007 99.3688 344.129 97.2492 338.905 95.6113C334.052 93.376 335.716 91.2017 343.895 89.0884L344.803 88.8607C352.811 86.9116 364.391 85.5987 379.545 84.9221C379.962 90.7707 378.829 94.6184 376.148 96.4655Z" fill="black" fill-opacity="0.489401"/>
<path d="M335.786 73.8611L334.497 80.8732C334.376 81.5286 334.603 82.1991 335.099 82.6538L350.654 96.903C351.187 97.3912 351.948 97.5563 352.642 97.3338L382.933 87.6085C383.761 87.3428 384.318 86.5823 384.311 85.7283C384.295 83.9226 383.583 82.2792 382.174 80.7981L381.88 80.4992C378.786 77.4478 368.571 69.8063 363.2 68.8569C359.609 68.2222 350.984 69.3677 337.327 72.2934C336.538 72.4626 335.929 73.0812 335.786 73.8611Z" fill="#959FFA"/>
<path d="M352.154 84.7937L379.551 78.4414L380.105 78.9024C380.993 79.6525 381.707 80.3066 382.174 80.7982C383.583 82.2794 384.295 83.9228 384.311 85.7284C384.318 86.529 383.829 87.2475 383.085 87.5531L382.933 87.6087L352.642 97.3339C352.439 97.3991 352.23 97.431 352.023 97.4313L352.503 96.4155C352.727 95.9359 352.966 95.4186 353.218 94.8638C354.799 91.3909 354.514 88.1294 352.362 85.079L352.154 84.7937Z" fill="black" fill-opacity="0.489401"/>
<path d="M363.2 68.8569C368.756 69.839 379.497 77.9828 382.174 80.7981C382.455 81.0931 382.704 81.4115 382.923 81.7534L355.47 88.8868C355.21 88.9544 354.935 88.9158 354.706 88.7834L354.596 88.7094L335.733 74.1487L335.786 73.8611C335.92 73.1332 336.459 72.5458 337.172 72.3332L337.327 72.2934L338.593 72.0243C351.518 69.2978 359.721 68.242 363.2 68.8569Z" fill="#F8FCFF"/>
<path d="M353.629 74.7815L365.398 69.4975C369.706 71.1396 375.541 75.1881 379.236 78.1847L356.911 79.7852C356.536 79.8121 356.163 79.7347 355.832 79.5638L355.671 79.4707L353.383 78.0036C353.086 77.8131 352.849 77.544 352.702 77.2275C352.292 76.3497 352.643 75.3206 353.484 74.854L353.629 74.7815L365.398 69.4975L353.629 74.7815Z" fill="#380085"/>
<path d="M363.2 68.857C366.178 69.3833 370.645 71.967 374.562 74.685C371.665 80.7146 360.083 83.7028 347.16 81.4188C342.676 80.6264 338.57 79.2946 335.095 77.6156L335.786 73.8612C335.929 73.0813 336.537 72.4627 337.327 72.2935L338.593 72.0244C351.518 69.2979 359.721 68.2421 363.2 68.857Z" fill="#9593F3" fill-opacity="0.33143"/>
<path d="M321.591 94.5822L321.414 94.6488C321.261 93.7351 320.96 92.8952 320.051 92.2793C319.057 91.606 315.951 91.0572 310.735 90.6327L310.307 91.5181C306.424 99.4977 303.665 103.729 302.029 104.213C300.335 104.715 299.435 105.106 299.33 105.386L296.511 108.672L291.864 105.041C292.304 104.721 292.745 104.373 293.122 103.969C294.53 102.459 292.331 101.476 293.552 98.2321L293.683 97.9039C295.237 94.1633 302.48 81.3641 305.131 80.4598C307.866 79.5269 319.302 80.5364 325.316 81.5994C326.561 81.8195 328.617 81.6666 331.484 81.1407L331.031 82.0508C327.349 89.3559 324.202 93.5331 321.591 94.5822Z" fill="#380085"/>
<path d="M331.584 102.575C335.66 103.295 339.561 100.64 340.296 96.6432C341.031 92.6467 338.322 88.8229 334.245 88.1024C330.169 87.3819 326.269 90.0377 325.534 94.0341C324.799 98.0306 327.508 101.854 331.584 102.575Z" fill="#380085"/>
<path fill-rule="evenodd" clip-rule="evenodd" d="M331.408 100.771C335.213 101.443 338.516 98.9059 339.202 95.1758C339.888 91.4458 337.558 88.6879 333.754 88.0155C329.949 87.3431 325.663 90.1496 325.623 93.5518C325.583 96.954 327.603 100.098 331.408 100.771Z" fill="#C5876A"/>
<path d="M335.959 100.764L334.25 104.286C333.786 105.241 332.635 105.663 331.646 105.242L328.049 103.708C327.326 103.4 326.855 102.703 326.847 101.93L326.81 98.4189C328.142 99.0456 329.401 99.5108 330.586 99.8146C331.771 100.118 333.562 100.435 335.959 100.764Z" fill="#380085"/>
<path d="M326.816 98.3872L327.126 98.4658L327.261 98.5354C328.441 99.1228 329.55 99.5493 330.586 99.8149C331.583 100.07 333.038 100.312 334.952 100.539L332.878 105.349C332.475 105.441 332.04 105.41 331.633 105.236L328.051 103.709C327.326 103.4 326.855 102.703 326.848 101.929L326.816 98.3872Z" fill="#959FFA"/>
<path d="M296.857 103.299C297.791 103.721 298.758 104.3 299.758 105.037C299.511 105.168 299.368 105.284 299.33 105.386L299.037 106.432C298.598 107.959 298.237 109.023 297.952 109.624C297.454 110.677 296.003 111.922 295.608 112.322L295.553 112.381C295.464 112.481 294.581 113.176 294.996 112.132L295.241 111.542C295.719 110.327 296.137 108.794 295.386 109.67C294.471 110.737 293.685 111.758 293.028 112.733L292.514 113.362C291.146 114.994 290.292 115.686 289.953 115.438C289.572 115.159 290.091 113.629 291.507 110.847L291.482 109.491L290.92 108.977C290.113 108.237 290.07 106.996 290.824 106.205L290.928 106.104L291.551 105.53C292.15 104.97 292.673 104.449 293.122 103.968C293.597 103.459 293.661 103.01 293.585 102.514C294.705 102.557 295.796 102.819 296.857 103.299Z" fill="#959FFA"/>
<path d="M319.007 118.089C319 116.905 318.837 115.611 318.518 114.205C318.256 114.401 318.06 114.494 317.93 114.484L316.648 114.284C314.769 114.003 313.433 113.865 312.64 113.872C311.249 113.883 309.187 114.801 308.559 115.019L308.468 115.049C308.316 115.094 307.13 115.682 308.469 115.754L309.232 115.784C310.789 115.872 312.664 116.178 311.344 116.54C309.736 116.982 308.241 117.31 306.859 117.525L305.923 117.759C303.479 118.401 302.31 118.96 302.417 119.437C302.536 119.97 304.456 120.17 308.178 120.034L309.644 120.719L309.933 121.558C310.348 122.763 311.68 123.41 312.909 123.003L313.07 122.943L313.998 122.569C314.9 122.214 315.722 121.918 316.464 121.68C317.249 121.43 317.77 121.58 318.275 121.9C318.771 120.706 319.014 119.435 319.007 118.089Z" fill="#959FFA"/>
<path d="M314.67 118.004C314.995 119.771 316.809 122.253 318.397 122.534C319.985 122.815 338.174 124.592 340.169 123.606C342.164 122.62 351.936 111.984 353.956 108.908C355.975 105.832 354.485 100.996 349.505 100.874C344.525 100.752 335.751 113.199 333.196 113.691C330.642 114.183 318.831 111.835 316.537 113.372C314.243 114.909 314.346 116.238 314.67 118.004Z" fill="#380085"/>
<path d="M346.518 108.412C345.192 111.118 345.921 114.162 348.146 115.211C350.372 116.26 353.252 114.917 354.579 112.212C355.906 109.507 355.177 106.463 352.951 105.414C350.725 104.365 347.845 105.707 346.518 108.412Z" fill="#5C66C0"/>
<path d="M348.122 109.213C346.786 111.765 347.208 114.591 349.066 115.526C350.923 116.461 353.512 115.15 354.849 112.598C356.185 110.046 355.762 107.219 353.905 106.284C352.047 105.349 349.458 106.66 348.122 109.213Z" fill="#F8FCFF"/>
<path d="M322.865 86.238C322.788 89.9907 324.266 93.9201 325.529 95.6904C326.792 97.4607 328.683 99.1575 331.483 99.1326C334.283 99.1076 337.39 97.5018 338.998 92.4052C340.607 87.3087 325.513 76.8422 325.513 76.8422C325.513 76.8422 322.942 82.4853 322.865 86.238Z" fill="#FFAF8A"/>
<path fill-rule="evenodd" clip-rule="evenodd" d="M331.325 96.1865C330.532 96.5233 329.774 96.6441 329.048 96.5521C328.911 96.5348 328.785 96.6296 328.768 96.7638C328.75 96.8981 328.847 97.021 328.984 97.0383C329.803 97.1421 330.651 97.007 331.524 96.6363C331.651 96.5825 331.709 96.4382 331.654 96.314C331.599 96.1898 331.452 96.1327 331.325 96.1865Z" fill="#D28A62"/>
<path d="M326.183 82.7454C326.183 82.7454 324.614 85.3112 324.101 86.7663C323.587 88.2214 323.381 90.6779 323.381 90.6779C323.381 90.6779 324.189 93.5581 324.914 94.8622C325.639 96.1663 326.269 96.8766 326.269 96.8766C326.269 96.8766 322.849 96.5972 321.47 92.8745C320.092 89.1519 320.056 85.9601 320.638 82.7962C321.22 79.6323 323.565 74.2297 325.505 74.0913C327.444 73.9529 331.248 71.4584 334.304 72.5607C337.36 73.663 338.749 74.7937 339.89 76.6338C341.031 78.4739 341.786 82.9184 343.8 85.181C345.815 87.4436 346.132 88.404 345.144 90.4856C344.157 92.5673 337.288 97.0492 337.288 97.0492C337.288 97.0492 337.8 91.3771 336.537 90.82C335.273 90.2629 332.066 87.1554 331.31 85.5375C330.553 83.9196 326.183 82.7454 326.183 82.7454Z" fill="#0D134E"/>
<path d="M321.957 88.5232C321.957 88.5232 322.369 92.6565 323.379 93.3044C324.39 93.9524 325.568 94.3192 326.254 93.8124C326.939 93.3056 327.675 92.0055 327.675 92.0055C327.675 92.0055 329.564 93.6981 331.151 93.9786C332.738 94.2591 337.761 90.8775 337.761 90.8775L334.383 87.4074C334.383 87.4074 330.633 89.2144 327.706 89.5394C324.78 89.8644 321.957 88.5232 321.957 88.5232Z" fill="#F8FCFF"/>
<path d="M349.176 87.8403C347.415 97.4182 338.062 103.798 328.27 102.067C318.478 100.337 311.987 91.1565 313.748 81.5786C315.509 72.0008 324.862 65.6211 334.654 67.3517C344.446 69.0823 350.937 78.2624 349.176 87.8403Z" fill="#9286FF" fill-opacity="0.193018" stroke="#ECEAFE"/>
<path opacity="0.504464" fill-rule="evenodd" clip-rule="evenodd" d="M323.035 75.9775C323.942 74.6186 323.929 73.0361 323.005 72.4428C322.081 71.8495 320.596 72.4702 319.688 73.8291C318.781 75.188 318.794 76.7706 319.718 77.3639C320.642 77.9571 322.127 77.3364 323.035 75.9775Z" fill="white"/>
</svg>
