<svg width="12" height="12" viewBox="0 0 12 12" fill="none" xmlns="http://www.w3.org/2000/svg">
<g clip-path="url(#clip0)">
<path d="M11.0986 9.99516C11.0986 9.10867 10.38 8.39002 9.49351 8.39002C8.60702 8.39002 7.88846 9.10867 7.88846 9.99516C7.88846 10.8816 8.60702 11.6002 9.49351 11.6002C10.38 11.6002 11.0986 10.8816 11.0986 9.99516Z" fill="#333333"/>
<path d="M9.49354 8.01957C8.40403 8.01957 7.51808 8.90561 7.51808 9.99512C7.51808 11.0845 8.40403 11.9706 9.49354 11.9706C10.5831 11.9706 11.469 11.0845 11.469 9.99512C11.469 8.90561 10.5831 8.01957 9.49354 8.01957ZM9.49354 11.2298C8.81251 11.2298 8.25889 10.6756 8.25889 9.99512C8.25889 9.31454 8.81251 8.76038 9.49354 8.76038C10.1746 8.76038 10.7282 9.31454 10.7282 9.99512C10.7282 10.6756 10.1746 11.2298 9.49354 11.2298Z" fill="#333333"/>
<path d="M11.0986 2.0931C11.0986 1.20669 10.38 0.488041 9.49351 0.488041C8.60702 0.488041 7.88846 1.20669 7.88846 2.0931C7.88846 2.97959 8.60702 3.69824 9.49351 3.69824C10.38 3.69824 11.0986 2.97959 11.0986 2.0931Z" fill="#333333"/>
<path d="M9.49354 0.117712C8.40403 0.117712 7.51808 1.00375 7.51808 2.09317C7.51808 3.18268 8.40403 4.06873 9.49354 4.06873C10.5831 4.06873 11.469 3.18268 11.469 2.09317C11.469 1.00375 10.5831 0.117712 9.49354 0.117712ZM9.49354 3.32792C8.81251 3.32792 8.25889 2.77376 8.25889 2.09317C8.25889 1.41268 8.81251 0.858522 9.49354 0.858522C10.1746 0.858522 10.7282 1.41268 10.7282 2.09317C10.7282 2.77376 10.1746 3.32792 9.49354 3.32792Z" fill="#333333"/>
<path d="M4.18437 6.04411C4.18437 5.15762 3.46572 4.43906 2.57922 4.43906C1.69282 4.43906 0.974167 5.15762 0.974167 6.04411C0.974167 6.93061 1.69282 7.64917 2.57922 7.64917C3.46572 7.64917 4.18437 6.93061 4.18437 6.04411Z" fill="#333333"/>
<path d="M2.57923 4.06861C1.48982 4.06861 0.603775 4.95456 0.603775 6.04407C0.603775 7.13358 1.48982 8.01953 2.57923 8.01953C3.66874 8.01953 4.55479 7.13358 4.55479 6.04407C4.55479 4.95456 3.66874 4.06861 2.57923 4.06861ZM2.57923 7.27872C1.8982 7.27872 1.34458 6.72465 1.34458 6.04407C1.34458 5.36349 1.8982 4.80942 2.57923 4.80942C3.26036 4.80942 3.81398 5.36349 3.81398 6.04407C3.81398 6.72465 3.26036 7.27872 2.57923 7.27872Z" fill="#333333"/>
<path d="M3.74528 6.28124C3.57337 6.28124 3.40644 6.37068 3.31555 6.53065C3.18072 6.76722 3.26374 7.06899 3.5003 7.20436L8.08288 9.81691C8.31945 9.95273 8.62122 9.86972 8.75659 9.63225C8.89143 9.39568 8.80841 9.09391 8.57184 8.95854L3.98917 6.34599C3.91213 6.30204 3.82821 6.28124 3.74528 6.28124Z" fill="#333333"/>
<path d="M8.32742 2.20663C8.2444 2.20663 8.16048 2.22743 8.08344 2.27138L3.50077 4.88393C3.2642 5.01876 3.18128 5.32053 3.31611 5.55764C3.4504 5.79466 3.75262 5.87812 3.98973 5.7423L8.57239 3.12975C8.80896 2.99491 8.89189 2.69315 8.75705 2.45604C8.66572 2.29606 8.49878 2.20663 8.32742 2.20663Z" fill="#333333"/>
</g>
<defs>
<clipPath id="clip0">
<rect width="11.8529" height="11.8529" fill="white" transform="matrix(1 0 0 -1 0.117615 11.9706)"/>
</clipPath>
</defs>
</svg>
