<svg width="18" height="17" viewBox="0 0 18 17" fill="none" xmlns="http://www.w3.org/2000/svg">
<path d="M15.4375 8.50048H17.8125V5.53173C17.8125 5.19923 17.5513 4.93798 17.2188 4.93798H16.0312V3.15673C16.0312 2.82423 15.77 2.56298 15.4375 2.56298H14.0244L13.0031 0.520483C12.8488 0.223608 12.4925 0.104858 12.2075 0.247358L10.83 0.936108L10.6281 0.520483C10.4738 0.223608 10.1175 0.104858 9.8325 0.247358L5.20125 2.56298H1.78125C0.795625 2.56298 0 3.35861 0 4.34423V15.0317C0 16.0174 0.795625 16.813 1.78125 16.813H17.2188C17.5513 16.813 17.8125 16.5517 17.8125 16.2192V13.2505H15.4375C14.1313 13.2505 13.0625 12.1817 13.0625 10.8755C13.0625 9.56923 14.1313 8.50048 15.4375 8.50048ZM14.8438 3.75048V4.20173L14.6181 3.75048H14.8438ZM1.22312 4.54611C1.19937 4.48673 1.1875 4.41548 1.1875 4.34423C1.1875 4.01173 1.44875 3.75048 1.78125 3.75048H2.82625L1.22312 4.54611ZM3.11125 4.93798L9.8325 1.57736L11.5069 4.93798H3.11125ZM12.8369 4.93798L11.3644 1.99298L12.2075 1.57736L13.8819 4.93798H12.8369Z" fill="#333333"/>
</svg>
