<svg width="18" height="18" viewBox="0 0 18 18" fill="none" xmlns="http://www.w3.org/2000/svg">
<g clip-path="url(#clip0)">
<path d="M14.25 9C13.8352 9 13.5 9.336 13.5 9.75V15.75C13.5 16.1633 13.164 16.5 12.75 16.5H2.25C1.836 16.5 1.5 16.1633 1.5 15.75V5.25C1.5 4.83675 1.836 4.5 2.25 4.5H8.25C8.66475 4.5 9 4.164 9 3.75C9 3.336 8.66475 3 8.25 3H2.25C1.0095 3 0 4.0095 0 5.25V15.75C0 16.9905 1.0095 18 2.25 18H12.75C13.9905 18 15 16.9905 15 15.75V9.75C15 9.33525 14.6647 9 14.25 9Z" fill="#333333"/>
<path d="M7.03201 8.31681C6.97951 8.36931 6.94426 8.43606 6.92926 8.50806L6.39901 11.1601C6.37426 11.2831 6.41326 11.4098 6.50176 11.4991C6.57301 11.5703 6.66901 11.6086 6.76726 11.6086C6.79126 11.6086 6.81601 11.6063 6.84076 11.6011L9.49201 11.0708C9.56551 11.0558 9.63226 11.0206 9.68401 10.9681L15.618 5.03406L12.9668 2.38281L7.03201 8.31681Z" fill="#333333"/>
<path d="M17.4509 0.54917C16.7197 -0.18208 15.5302 -0.18208 14.7997 0.54917L13.7617 1.58717L16.4129 4.23842L17.4509 3.20042C17.8049 2.84717 17.9999 2.37617 17.9999 1.87517C17.9999 1.37417 17.8049 0.90317 17.4509 0.54917Z" fill="#333333"/>
</g>
<defs>
<clipPath id="clip0">
<rect width="18" height="18" fill="white"/>
</clipPath>
</defs>
</svg>
