<svg width="20" height="20" viewBox="0 0 20 20" fill="none" xmlns="http://www.w3.org/2000/svg">
<g clip-path="url(#clip0)">
<path d="M12.2115 15.3452C11.7791 15.3452 11.4282 15.6962 11.4282 16.1286V16.9119C11.4282 17.3443 11.0773 17.6952 10.6449 17.6952H2.81155C2.37915 17.6952 2.02821 17.3443 2.02821 16.9119V2.81191C2.02821 2.37951 2.37915 2.02858 2.81155 2.02858H3.20321C3.63875 2.02858 3.99203 2.38421 3.98655 2.82131C3.98106 3.25058 4.33513 3.59525 4.7644 3.59525H8.30272C9.12052 3.59525 9.47458 3.25058 9.46988 2.82131C9.4644 2.38421 9.81768 2.02858 10.2532 2.02858H10.6449C11.0773 2.02858 11.4282 2.37951 11.4282 2.81191V3.59525C11.4282 4.02765 11.7791 4.37858 12.2115 4.37858C12.6439 4.37858 12.9949 4.02765 12.9949 3.59525V2.81191C12.9949 1.51393 11.9429 0.461914 10.6449 0.461914H2.81155C1.51356 0.461914 0.461548 1.51393 0.461548 2.81191V16.9119C0.461548 18.2099 1.51356 19.2619 2.81155 19.2619H10.6449C11.9429 19.2619 12.9949 18.2099 12.9949 16.9119V16.1286C12.9949 15.6962 12.6439 15.3452 12.2115 15.3452Z" fill="url(#paint0_linear)"/>
<path d="M19.2615 7.51198C19.2615 6.64796 18.5589 5.94531 17.6949 5.94531H9.86153C8.99751 5.94531 8.29486 6.64796 8.29486 7.51198V12.212C8.29486 13.076 8.99751 13.7786 9.86153 13.7786H17.6949C18.5589 13.7786 19.2615 13.076 19.2615 12.212V7.51198ZM17.6949 9.07865L14.0289 10.7863C13.9505 10.8255 13.8644 10.8411 13.7782 10.8411C13.692 10.8411 13.6059 10.8255 13.5275 10.7863L9.86153 9.07865V7.77831L13.7782 9.60348L17.6949 7.77831V9.07865Z" fill="url(#paint1_linear)"/>
</g>
<defs>
<linearGradient id="paint0_linear" x1="0.246088" y1="0.168547" x2="16.0923" y2="3.39317" gradientUnits="userSpaceOnUse">
<stop stop-color="#363844"/>
<stop offset="1" stop-color="#11141C"/>
</linearGradient>
<linearGradient id="paint1_linear" x1="8.10633" y1="5.82308" x2="20.3162" y2="11.0408" gradientUnits="userSpaceOnUse">
<stop stop-color="#363844"/>
<stop offset="1" stop-color="#11141C"/>
</linearGradient>
<clipPath id="clip0">
<rect width="18.8" height="18.8" fill="white" transform="translate(0.461548 0.461914)"/>
</clipPath>
</defs>
</svg>
