<svg width="625" height="512" viewBox="0 0 625 512" fill="none" xmlns="http://www.w3.org/2000/svg">
<path d="M331.351 500.016L352.925 505.705L518.528 409.688L349.996 360.577L282.601 396.484L331.351 500.016Z" fill="black" fill-opacity="0.130299"/>
<path d="M469.12 275.6L490 287.5L511.5 302.5L550.12 327.231L588.5 350.5L592 313L624.5 307.746L494.829 235.24L469.12 275.6Z" fill="black" fill-opacity="0.130299"/>
<path d="M12.6257 305.21L26.9454 314.718L60.4979 319.651L199.832 253.468L226.702 247.458L246.042 274.656L310.391 255.137L245.935 217.639L305.126 185.496L391.238 237.035L429.468 231.361L442.828 220.833L456.825 206.446L286.406 152.286L12.6257 293.62V305.21Z" fill="black" fill-opacity="0.130299"/>
<path d="M199.832 422.504C211.416 422.504 220.807 417.188 220.807 410.631C220.807 404.074 211.416 398.758 199.832 398.758C188.248 398.758 178.857 404.074 178.857 410.631C178.857 417.188 188.248 422.504 199.832 422.504Z" fill="black" fill-opacity="0.130299"/>
<path d="M63.6171 494.588C73.9117 481.913 71.0566 462.54 57.24 451.319C43.4235 440.097 23.8775 441.275 13.583 453.95C3.28838 466.625 15.6266 483.366 29.4432 494.588C43.2597 505.809 53.3226 507.263 63.6171 494.588Z" fill="black" fill-opacity="0.130299"/>
<path d="M510.807 375.971C519.987 375.971 527.429 371.718 527.429 366.472C527.429 361.227 519.987 356.974 510.807 356.974C501.627 356.974 494.185 361.227 494.185 366.472C494.185 371.718 501.627 375.971 510.807 375.971Z" fill="black" fill-opacity="0.130299"/>
<path d="M393.358 355.225C402.538 355.225 409.98 350.972 409.98 345.727C409.98 340.481 402.538 336.228 393.358 336.228C384.178 336.228 376.736 340.481 376.736 345.727C376.736 350.972 384.178 355.225 393.358 355.225Z" fill="black" fill-opacity="0.130299"/>
<path d="M183.91 305.539C183.91 305.539 189.45 311.41 190.034 313.753C190.618 316.096 189.436 332.36 188.641 336.232C187.847 340.103 185.752 344.089 185.752 352.148C185.752 360.208 184.857 379.014 184.857 381.065C184.857 383.115 182.357 399.118 182.94 400.766C183.238 401.606 185.228 403.52 187.093 404.026C188.888 404.513 190.563 403.616 190.766 403.206C191.18 402.371 192.352 401.569 192.792 399.657C193.232 397.745 197.702 381.712 198.311 378.291C198.919 374.871 200.466 361.808 200.466 361.808C200.466 361.808 200.846 364.423 200.955 366.702C201.143 370.611 201.57 372.394 201.538 372.774C201.464 373.676 200.466 376.822 200.466 382.442C200.466 386.42 201.174 390.689 201.201 392.87C201.212 393.77 201.764 394.59 201.891 394.863C202.323 395.8 200.689 401.486 201.891 402.756C203.092 404.026 205.134 402.364 207.26 404.026C209.386 405.688 211.825 407.897 214.108 407.46C216.39 407.023 216.703 404.161 214.259 401.909C211.814 399.657 207.26 396.78 207.26 395.944C207.26 395.108 208.477 394.594 208.477 392.87C208.477 391.145 210.909 376.613 210.909 370.717C210.909 364.821 212.197 333.05 212.122 329.602C212.046 326.154 210.909 319.262 210.909 316.583C210.909 313.904 211.379 311.547 211.379 311.547C211.379 311.547 213.058 320.025 213.986 321.858C214.915 323.692 222.407 332.835 222.407 332.835L225.79 330.441C225.79 330.441 220.158 318.504 219.79 317.548C219.422 316.592 214.206 296.442 211.971 295.444C209.389 294.292 205.104 293.473 196.37 297.243C187.394 301.119 183.91 305.539 183.91 305.539Z" fill="#380085"/>
<path d="M210.083 339.93L211.85 340.197L211.121 361.914C211.007 365.583 210.925 368.599 210.911 370.26L210.909 370.717C210.909 376.613 208.477 391.145 208.477 392.87C208.477 394.594 207.26 395.108 207.26 395.944C207.26 396.176 207.611 396.565 208.17 397.054L206.987 397.054L207.882 385.527C208.399 379.036 208.733 375.254 208.883 374.181L208.936 373.848C209.082 372.704 209.334 366.018 209.694 353.789L210.083 339.93Z" fill="black" fill-opacity="0.275213"/>
<path d="M201.064 354.544L202.65 371.186L199.741 384.077L199.751 383.618L199.754 383.154C199.754 377.535 201.464 373.676 201.538 372.774L201.54 372.705C201.527 372.233 201.175 370.601 200.986 367.286L200.955 366.702C200.882 365.182 200.719 363.551 200.466 361.808L199.787 367.444C199.129 372.804 198.644 376.377 198.333 378.164L198.311 378.291C197.702 381.712 193.232 397.745 192.792 399.657C192.352 401.569 191.18 402.371 190.766 403.206C190.712 403.316 190.679 403.471 190.662 403.661C190.489 402.453 190.569 400.985 190.901 399.258C192.186 392.578 196.39 381.194 197.05 372.736L197.086 372.211C197.433 366.541 198.759 360.652 201.064 354.544Z" fill="black" fill-opacity="0.275213"/>
<path d="M211.94 308.292L212.15 309.252C213.487 315.233 214.964 319.423 216.581 321.822L219.408 326.041C220.579 327.796 221.923 329.817 223.439 332.104L222.407 332.835L220.169 330.085C216.567 325.626 214.506 322.884 213.987 321.858C213.384 320.668 212.543 317.376 211.466 311.982L211.528 311.368C211.618 310.558 211.755 309.532 211.94 308.292Z" fill="black" fill-opacity="0.275213"/>
<path d="M190.08 318.962L191.581 313.353L191.769 314.172C193.247 320.485 194.764 324.329 196.321 325.706L196.57 325.919C199.561 328.409 212.327 337.215 209.328 340.33C207.396 342.337 200.229 341.482 187.826 337.765C187.948 337.088 188.071 336.45 188.19 335.849L188.451 334.559C188.993 331.918 189.804 324.289 190.08 318.962Z" fill="black" fill-opacity="0.275213"/>
<path d="M225.767 330.394L225.79 330.441C227.727 330.518 228.793 330.824 228.988 331.361L229.007 331.426C229.203 332.292 231.374 334.837 230.745 334.837C230.346 334.837 229.576 334.346 228.434 333.366L228.251 333.207L230.657 337.832L230.845 338.626C231.122 339.832 231.214 340.459 231.122 340.506C230.992 340.572 230.543 339.939 229.773 338.607L229.671 338.429L228.088 336.317L228.35 337.099C229.315 340.018 229.654 341.477 229.367 341.477C229.056 341.477 228.248 339.96 226.945 336.927L227.173 337.979C227.748 340.706 227.896 342.07 227.617 342.07C227.304 342.07 226.695 340.637 225.79 337.77L225.871 338.539C226.106 340.893 226.079 342.07 225.79 342.07C225.326 342.07 225.186 339.555 224.392 337.921L224.316 337.77C223.742 336.687 223.105 335.042 222.407 332.835L222.248 332.641C222.83 331.881 223.381 331.332 223.9 330.996C224.304 330.734 224.926 330.534 225.767 330.394Z" fill="#FFAF8A"/>
<path d="M226.945 335.037C226.694 335.757 225.955 336.997 224.727 338.757C224.61 338.409 224.476 338.071 224.316 337.77C223.742 336.687 223.105 335.042 222.407 332.835L222.248 332.641C222.83 331.881 223.381 331.332 223.9 330.996C223.992 330.936 224.097 330.879 224.212 330.826C226.294 332.888 227.204 334.292 226.945 335.037Z" fill="black" fill-opacity="0.175153"/>
<path d="M186.926 403.73C187.605 403.981 188.667 403.992 190.11 403.763C190.059 403.841 190.014 403.919 189.975 403.998C189.575 404.804 190.333 408.019 190.013 409.783L189.975 409.966C189.561 411.68 189.975 414.494 189.975 418.208C189.975 421.922 185.649 421.332 183.732 419.724C181.815 418.116 182.327 409.889 182.766 408.251L183.203 406.68C183.645 405.046 184.116 402.989 183.788 401.742L184.248 402.077C185.508 402.985 186.401 403.536 186.926 403.73Z" fill="#733DFF"/>
<path d="M190.11 403.763C190.059 403.841 190.013 403.919 189.975 403.998C189.575 404.804 190.333 408.019 190.013 409.783L189.975 409.966C189.561 411.68 189.975 414.494 189.975 418.208C189.975 418.904 189.823 419.449 189.563 419.864L189.417 418.952C188.737 414.622 188.489 411.414 188.672 409.326C188.853 407.27 189.146 405.442 189.551 403.842C189.731 403.82 189.917 403.794 190.11 403.763Z" fill="black" fill-opacity="0.275213"/>
<path d="M204.932 395.873C205.656 395.967 206.439 395.925 207.283 395.747C207.268 395.811 207.26 395.876 207.26 395.944C207.26 396.78 211.814 399.657 214.259 401.909C216.703 404.161 216.39 407.023 214.108 407.46C211.825 407.897 209.387 405.688 207.26 404.026C205.134 402.364 203.092 404.026 201.891 402.756C200.738 401.538 202.194 396.258 201.934 395.001C202.925 395.453 203.924 395.743 204.932 395.873Z" fill="#733DFF"/>
<path d="M207.283 395.747C207.268 395.811 207.26 395.876 207.26 395.944C207.26 396.78 211.814 399.657 214.259 401.909C215.152 402.732 215.677 403.636 215.872 404.474L215.882 404.52L212.523 402.15C209.306 399.868 207.46 398.513 206.987 398.085C206.418 397.572 206.295 396.83 206.617 395.861C206.834 395.833 207.057 395.795 207.283 395.747Z" fill="black" fill-opacity="0.275213"/>
<path d="M209.943 323.601L211.427 322.298L211.663 324.304C211.765 325.195 211.862 326.073 211.94 326.896L210.206 327.781C210.043 327.864 209.862 327.908 209.679 327.908C209.038 327.908 208.518 327.388 208.518 326.748C208.518 325.614 208.978 324.531 209.787 323.745L209.943 323.601Z" fill="#733DFF"/>
<path d="M208.059 294.479C209.13 296.707 209.267 297.383 209.267 297.762C209.267 298.648 206.449 300.537 206.045 300.062C205.855 299.838 203.51 295.677 202.973 295.057C204.779 294.608 206.576 294.376 208.059 294.479Z" fill="#733DFF"/>
<path d="M191.858 299.497L192.763 298.983L193.227 299.616C193.708 300.28 194.07 300.81 194.314 301.208L194.384 301.323C195.912 303.901 195.609 304.081 195.609 304.492C195.609 305.378 192.332 307.268 191.863 306.792L191.833 306.758C191.671 306.545 191.879 306.274 190.161 303.977C189.785 303.474 189.074 302.728 188.029 301.738C189.248 301.001 190.571 300.232 191.858 299.497Z" fill="#733DFF"/>
<path d="M203.378 335.037L203.756 335.028L203.275 315.813L203.058 315.852C200.722 316.275 199.023 315.814 197.935 314.482C196.819 313.116 195.075 309.237 194.135 305.701L193.77 305.798C194.722 309.382 196.485 313.304 197.643 314.721C198.792 316.128 200.556 316.638 202.908 316.261L203.378 335.037Z" fill="#733DFF"/>
<path d="M207.424 299.06C208.017 304.556 208.017 308.355 207.43 310.443C206.848 312.513 205.371 314.325 202.989 315.88L203.195 316.196C205.649 314.594 207.185 312.71 207.794 310.545C208.398 308.397 208.398 304.561 207.8 299.019L207.424 299.06Z" fill="#733DFF"/>
<path d="M196.37 297.244C201.842 294.881 205.568 294.32 208.223 294.514C209.349 295.269 210.083 296.214 210.083 297.244C210.083 299.746 205.75 301.804 201.997 301.804C198.482 301.804 195.591 300.026 195.237 297.745C195.607 297.577 195.985 297.41 196.37 297.244Z" fill="black" fill-opacity="0.275213"/>
<path d="M190.436 331.751C190.436 331.751 198.479 335.374 203.567 333.839C208.655 332.303 212.122 329.092 212.122 329.092V331.751C212.122 331.751 208.378 335.096 203.567 336.585C198.756 338.074 190.081 333.914 190.081 333.914L190.436 331.751Z" fill="#733DFF"/>
<path d="M208.753 338.553L207.945 342.631C207.945 342.631 187.408 333.701 186.284 331.548C185.161 329.395 181.535 307.254 183.91 305.539C186.284 303.824 190.908 309.236 191.581 311.936C192.253 314.635 191.807 325.428 192.919 326.05C194.031 326.671 208.753 338.553 208.753 338.553Z" fill="#380085"/>
<path d="M220.246 328.589C220.111 328.634 220.005 328.74 219.96 328.876L214.677 344.923C214.418 345.711 215.175 346.454 215.957 346.18L226.284 342.569C226.418 342.523 226.522 342.416 226.564 342.282L231.928 325.479C232.039 325.129 231.707 324.8 231.358 324.915L220.246 328.589Z" fill="#733DFF"/>
<path d="M231.886 325.359C232.03 325.407 232.123 325.539 232.129 325.682L226.576 342.257C226.535 342.379 226.432 342.468 226.308 342.493L226.245 342.5L215.556 346.412C215.163 346.555 214.778 346.181 214.91 345.784L220.358 329.414C220.402 329.281 220.52 329.189 220.656 329.174L220.724 329.173L231.802 325.342C231.831 325.344 231.859 325.35 231.886 325.359Z" fill="#F8FCFF"/>
<path fill-rule="evenodd" clip-rule="evenodd" d="M229.894 327.241C229.94 327.113 230.041 327.013 230.17 326.969L230.363 326.902C230.72 326.779 231.061 327.124 230.933 327.48L230.421 328.899C230.375 329.027 230.273 329.127 230.145 329.172L229.952 329.238C229.594 329.362 229.254 329.016 229.382 328.661L229.894 327.241Z" fill="#ABBBD9"/>
<path d="M229.723 327.192C229.769 327.064 229.871 326.964 230 326.92L230.193 326.853C230.55 326.73 230.891 327.075 230.763 327.431L230.251 328.85C230.204 328.978 230.103 329.078 229.974 329.123L229.781 329.19C229.424 329.313 229.083 328.967 229.211 328.612L229.723 327.192Z" fill="#733DFF"/>
<path fill-rule="evenodd" clip-rule="evenodd" d="M230.159 327.914C230.348 327.968 230.548 327.849 230.606 327.647C230.664 327.445 230.557 327.238 230.368 327.184C230.179 327.13 229.979 327.249 229.921 327.451C229.863 327.652 229.97 327.86 230.159 327.914Z" fill="black"/>
<path fill-rule="evenodd" clip-rule="evenodd" d="M229.871 328.918C230.06 328.972 230.26 328.853 230.318 328.651C230.376 328.449 230.27 328.242 230.08 328.188C229.891 328.133 229.691 328.253 229.633 328.455C229.576 328.656 229.682 328.864 229.871 328.918Z" fill="black"/>
<path d="M217.079 337.817C217.079 338.553 214.187 339.288 214.602 339.625L214.677 339.679C215.073 339.943 216.373 340.567 218.578 341.55C220.532 342.025 221.509 342.456 221.509 342.845C221.509 343.233 220.455 343.233 218.346 342.845L217.458 342.651C218.421 343.184 219.035 343.451 219.299 343.451L219.44 343.454C219.961 343.476 221.153 343.615 221.153 344.088C221.153 344.612 219.261 344.982 218.346 344.782C217.736 344.648 217.116 344.508 216.487 344.361C217.234 344.972 217.931 345.278 218.578 345.278L219.123 345.28C219.827 345.293 220.336 345.372 220.336 345.836C220.336 346.413 217.793 346.255 217.079 346.255C216.603 346.255 216.144 346.169 215.704 345.995L216.117 346.201C217.039 346.648 217.667 346.871 218.003 346.871L218.513 346.867C219.069 346.871 219.668 346.93 219.438 347.357C219.132 347.925 216.845 347.744 216.097 347.744C215.617 347.744 212.82 346.042 207.704 342.638C207.794 342.086 207.906 341.515 208.038 340.927C208.215 340.137 208.466 339.343 208.79 338.545L209.793 338.357C211.661 338.012 212.822 337.832 213.273 337.818L213.328 337.817C214.041 337.817 217.079 337.081 217.079 337.817Z" fill="#FFAF8A"/>
<path d="M192.2 281.337C192.2 284.53 194.16 290.259 194.16 291.918C194.16 293.577 194.16 298.824 194.16 298.824C194.16 298.824 197.744 301.803 200.725 299.878C203.707 297.952 202.504 294.692 202.504 294.692C202.504 294.692 204.515 294.548 205.635 292.973C206.755 291.398 206.158 280.617 206.158 280.617C206.158 280.617 204.2 277.415 200.725 277.595C197.25 277.774 192.2 278.144 192.2 281.337Z" fill="#FFAF8A"/>
<path d="M193.644 289.871C193.644 289.871 191.796 287.749 191.455 285.977C191.114 284.205 190.709 280.546 191.455 279.428C192.2 278.31 193.278 277.986 193.278 277.986C193.278 277.986 193.274 276.93 194.834 275.875C196.395 274.819 205.483 273.764 207.049 275.875C208.615 277.986 206.588 281.244 205.635 281.754C204.682 282.263 199.72 280.927 198.74 281.986C197.759 283.045 197.145 288.127 196.48 288.127C195.814 288.127 195.948 283.947 194.077 284.494C192.206 285.041 193.644 289.871 193.644 289.871Z" fill="#380085"/>
<path d="M202.504 294.692H198.496C198.496 294.692 199.264 295.92 200.374 297.028C201.485 298.136 202.504 298.428 202.504 298.428C202.504 298.428 202.863 297.246 202.863 296.56C202.863 295.874 202.504 294.692 202.504 294.692Z" fill="black" fill-opacity="0.175153"/>
<path fill-rule="evenodd" clip-rule="evenodd" d="M383.624 402.233C383.624 403.043 383.193 403.791 382.492 404.197L332.427 433.151C331.725 433.557 330.859 433.558 330.157 433.152L280.034 404.196C279.333 403.791 278.901 403.043 278.901 402.233V365.61C278.901 364.79 279.343 364.034 280.058 363.632L330.152 335.5C330.842 335.113 331.683 335.113 332.373 335.5L382.467 363.632C383.182 364.034 383.624 364.79 383.624 365.61V402.233Z" fill="url(#paint0_linear)"/>
<path d="M330.416 393.859L279.065 364.584C278.985 364.757 278.933 364.944 278.912 365.138L278.901 365.333V402.505C278.901 403.088 279.184 403.631 279.652 403.966L279.798 404.06L330.394 433.289C330.894 433.578 331.499 433.606 332.02 433.375L332.19 433.288L382.728 404.06C383.233 403.768 383.561 403.252 383.616 402.679L383.625 402.506V365.333C383.625 365.079 383.571 364.833 383.472 364.608L332.646 393.855C331.956 394.252 331.107 394.253 330.416 393.859L279.065 364.584L330.416 393.859Z" fill="#C8CBED"/>
<path d="M330.416 393.859L279.064 364.585C278.985 364.758 278.933 364.944 278.912 365.138L278.901 365.333V402.505C278.901 403.088 279.184 403.631 279.652 403.966L279.798 404.06L330.394 433.289C330.689 433.459 331.022 433.539 331.352 433.528L331.294 394.141C330.99 394.11 330.69 394.015 330.416 393.859L279.064 364.585L330.416 393.859Z" fill="#C8CBED"/>
<path d="M318.588 378.798C318.479 378.736 318.345 378.738 318.238 378.802L315.826 380.25C315.371 380.524 315.379 381.187 315.841 381.449L327.986 388.34C328.094 388.401 328.227 388.4 328.334 388.336L330.74 386.908C331.197 386.636 331.191 385.971 330.729 385.708L318.588 378.798Z" fill="#D6D9FB"/>
<path d="M315.964 381.519L317.737 380.455C318.107 380.232 318.559 380.203 318.951 380.368L319.096 380.439L330.603 386.988L328.298 388.358C328.234 388.395 328.159 388.405 328.09 388.388L328.022 388.36L315.964 381.519L317.737 380.455L315.964 381.519Z" fill="#733DFF"/>
<path d="M361.785 372.044C361.269 372.34 360.635 372.34 360.119 372.045L346.899 364.479C346.46 364.228 346.459 363.594 346.898 363.342L360.109 355.749C360.626 355.452 361.262 355.452 361.779 355.749L374.99 363.343C375.428 363.595 375.428 364.228 374.989 364.479L361.785 372.044Z" fill="#FF623F"/>
<path d="M375.197 363.462L361.606 355.65C361.242 355.441 360.804 355.418 360.423 355.58L360.284 355.65L346.692 363.462C346.613 363.508 346.546 363.574 346.501 363.654C346.376 363.871 346.427 364.141 346.608 364.3L346.693 364.361L349.001 365.681L360.707 359.225C360.87 359.135 361.063 359.12 361.235 359.181L361.336 359.226L372.912 365.67L375.197 364.362C375.25 364.331 375.297 364.292 375.336 364.245L375.388 364.17C375.513 363.953 375.463 363.683 375.283 363.523L375.197 363.462L361.606 355.65L375.197 363.462Z" fill="#D6D9FB"/>
<path fill-rule="evenodd" clip-rule="evenodd" d="M311.769 390.963C311.538 390.831 311.25 390.998 311.25 391.264V394.23C311.25 394.48 311.385 394.71 311.602 394.834L324.086 401.917C324.318 402.048 324.605 401.881 324.605 401.615V398.671C324.605 398.422 324.471 398.192 324.254 398.068L311.769 390.963Z" fill="white"/>
<path d="M312.247 391.235L324.327 398.11C324.47 398.191 324.567 398.331 324.596 398.49L324.605 398.587L324.604 401.156L312.526 394.335C312.383 394.254 312.285 394.114 312.256 393.954L312.247 393.857L312.247 391.235Z" fill="#959FFA"/>
<path fill-rule="evenodd" clip-rule="evenodd" d="M311.769 397.721C311.538 397.589 311.25 397.756 311.25 398.022V400.988C311.25 401.238 311.385 401.468 311.602 401.592L324.086 408.675C324.318 408.806 324.605 408.639 324.605 408.373V405.429C324.605 405.18 324.471 404.95 324.254 404.826L311.769 397.721Z" fill="white"/>
<path d="M312.247 397.993L324.327 404.868C324.47 404.949 324.567 405.089 324.596 405.248L324.605 405.345L324.604 407.914L312.526 401.093C312.383 401.012 312.285 400.872 312.256 400.712L312.247 400.615L312.247 397.993Z" fill="#959FFA"/>
<path d="M374.959 380.47C375.247 380.279 375.633 380.485 375.633 380.832V383.307C375.633 383.601 375.484 383.874 375.238 384.034L373.149 385.391C372.86 385.579 372.479 385.372 372.479 385.028V382.584C372.479 382.293 372.624 382.022 372.866 381.861L374.959 380.47Z" fill="#733DFF"/>
<path d="M374.96 386.327C375.248 386.136 375.633 386.342 375.633 386.688V389.164C375.633 389.458 375.485 389.731 375.238 389.891L373.149 391.248C372.861 391.436 372.479 391.229 372.479 390.885V388.44C372.479 388.15 372.624 387.879 372.866 387.718L374.96 386.327Z" fill="#FF623F"/>
<path d="M367.857 384.474C368.089 384.342 368.377 384.509 368.377 384.775V387.741C368.377 387.99 368.243 388.22 368.027 388.343L343.915 402.122C343.684 402.254 343.396 402.087 343.396 401.82V398.878C343.396 398.629 343.529 398.399 343.745 398.276L367.857 384.474Z" fill="#D6D9FB"/>
<path d="M367.38 384.748L343.672 398.317C343.53 398.399 343.433 398.539 343.404 398.697L343.396 398.794L343.396 401.359L367.102 387.845C367.245 387.763 367.342 387.623 367.371 387.465L367.38 387.368L367.38 384.748Z" fill="#733DFF"/>
<path d="M367.857 390.782C368.089 390.649 368.377 390.816 368.377 391.083V394.048C368.377 394.297 368.243 394.527 368.027 394.651L343.915 408.429C343.684 408.562 343.396 408.395 343.396 408.128V405.185C343.396 404.937 343.529 404.707 343.745 404.583L367.857 390.782Z" fill="#D6D9FB"/>
<path d="M367.38 391.056L343.672 404.625C343.53 404.706 343.433 404.846 343.404 405.005L343.396 405.102L343.396 407.667L367.102 394.152C367.245 394.071 367.342 393.931 367.371 393.772L367.38 393.675L367.38 391.056Z" fill="#FF623F"/>
<path fill-rule="evenodd" clip-rule="evenodd" d="M326.635 435.477C326.635 436.287 326.203 437.035 325.503 437.44L275.437 466.395C274.735 466.801 273.87 466.801 273.167 466.396L223.045 437.44C222.344 437.035 221.912 436.286 221.912 435.476V398.854C221.912 398.034 222.354 397.278 223.069 396.876L273.163 368.744C273.853 368.356 274.694 368.356 275.384 368.744L325.478 396.876C326.193 397.278 326.635 398.034 326.635 398.854V435.477Z" fill="url(#paint1_linear)" stroke="#D0D4FE" stroke-width="1.5"/>
<path d="M273.427 427.103L222.076 397.827C221.996 398.001 221.944 398.188 221.923 398.381L221.912 398.577V435.749C221.912 436.332 222.195 436.875 222.663 437.21L222.809 437.304L273.405 466.532C273.905 466.821 274.51 466.85 275.031 466.619L275.201 466.532L325.739 437.304C326.243 437.012 326.572 436.496 326.627 435.923L326.635 435.75V398.577C326.635 398.323 326.582 398.076 326.482 397.851L275.657 427.098C274.967 427.495 274.118 427.497 273.427 427.103L222.076 397.827L273.427 427.103Z" fill="#C8CBED"/>
<path fill-rule="evenodd" clip-rule="evenodd" d="M273.427 427.103L222.075 397.829C221.996 398.002 221.944 398.188 221.923 398.382L221.912 398.577V435.749C221.912 436.332 222.195 436.875 222.663 437.21L222.809 437.304L273.404 466.532C273.7 466.703 274.033 466.783 274.363 466.772L274.305 427.385C274.001 427.353 273.701 427.259 273.427 427.103L222.075 397.829L273.427 427.103Z" fill="url(#paint2_linear)"/>
<path d="M261.599 412.042C261.49 411.98 261.356 411.982 261.249 412.046L258.837 413.494C258.381 413.768 258.39 414.431 258.852 414.693L270.997 421.583C271.105 421.645 271.238 421.644 271.345 421.58L273.751 420.151C274.208 419.88 274.202 419.215 273.74 418.952L261.599 412.042Z" fill="#D6D9FB"/>
<path d="M258.975 414.763L260.748 413.699C261.118 413.476 261.57 413.447 261.962 413.612L262.107 413.683L273.614 420.231L271.309 421.601C271.245 421.639 271.17 421.649 271.101 421.631L271.033 421.604L258.975 414.763L260.748 413.699L258.975 414.763Z" fill="#733DFF"/>
<path d="M304.797 405.288C304.281 405.584 303.647 405.584 303.131 405.288L289.911 397.723C289.472 397.471 289.471 396.838 289.91 396.586L303.121 388.993C303.638 388.696 304.274 388.696 304.791 388.993L318.002 396.586C318.441 396.839 318.44 397.472 318.001 397.723L304.797 405.288Z" fill="#FF623F"/>
<path d="M318.208 396.706L304.616 388.894C304.253 388.685 303.814 388.662 303.434 388.824L303.295 388.894L289.703 396.705C289.623 396.751 289.557 396.818 289.512 396.897C289.387 397.115 289.438 397.385 289.619 397.544L289.704 397.605L292.012 398.924L303.718 392.468C303.881 392.379 304.073 392.364 304.246 392.424L304.347 392.47L315.923 398.914L318.207 397.605C318.261 397.575 318.308 397.535 318.347 397.489L318.399 397.414C318.524 397.196 318.474 396.927 318.293 396.767L318.208 396.706L304.616 388.894L318.208 396.706Z" fill="#D6D9FB"/>
<path d="M254.78 424.206C254.549 424.075 254.261 424.242 254.261 424.508V427.474C254.261 427.724 254.395 427.954 254.613 428.077L267.097 435.16C267.329 435.292 267.616 435.125 267.616 434.859V431.915C267.616 431.666 267.482 431.435 267.265 431.312L254.78 424.206Z" fill="#D6D9FB"/>
<path d="M255.257 424.479L267.338 431.354C267.481 431.435 267.578 431.575 267.607 431.734L267.615 431.831L267.615 434.4L255.537 427.579C255.394 427.498 255.296 427.357 255.267 427.198L255.258 427.101L255.257 424.479Z" fill="#959FFA"/>
<path d="M317.97 413.714C318.259 413.522 318.644 413.729 318.644 414.075V416.551C318.644 416.844 318.495 417.118 318.249 417.278L316.16 418.635C315.871 418.823 315.49 418.616 315.49 418.272V415.827C315.49 415.537 315.635 415.266 315.877 415.105L317.97 413.714Z" fill="#733DFF"/>
<path d="M317.97 419.571C318.259 419.379 318.644 419.586 318.644 419.932V422.408C318.644 422.701 318.496 422.975 318.249 423.135L316.16 424.492C315.871 424.68 315.49 424.473 315.49 424.128V421.684C315.49 421.394 315.635 421.123 315.877 420.962L317.97 419.571Z" fill="#FF623F"/>
<path d="M310.868 417.718C311.1 417.585 311.388 417.752 311.388 418.019V420.984C311.388 421.233 311.254 421.463 311.038 421.587L286.926 435.365C286.695 435.498 286.407 435.331 286.407 435.064V432.122C286.407 431.873 286.54 431.643 286.756 431.519L310.868 417.718Z" fill="#D6D9FB"/>
<path d="M310.391 417.992L286.683 431.561C286.541 431.642 286.444 431.782 286.415 431.941L286.407 432.038L286.407 434.603L310.113 421.089C310.256 421.007 310.353 420.867 310.382 420.708L310.391 420.611L310.391 417.992Z" fill="#733DFF"/>
<path d="M310.868 424.025C311.1 423.893 311.388 424.06 311.388 424.327V427.292C311.388 427.541 311.254 427.771 311.038 427.895L286.926 441.673C286.695 441.805 286.407 441.638 286.407 441.372V438.429C286.407 438.18 286.54 437.95 286.756 437.827L310.868 424.025Z" fill="#D6D9FB"/>
<path d="M310.391 424.299L286.683 437.868C286.541 437.95 286.444 438.09 286.415 438.248L286.407 438.345L286.407 440.91L310.113 427.396C310.256 427.315 310.353 427.175 310.382 427.016L310.391 426.919L310.391 424.299Z" fill="#FF623F"/>
<path fill-rule="evenodd" clip-rule="evenodd" d="M440.613 435.477C440.613 436.287 440.182 437.035 439.481 437.44L389.416 466.395C388.714 466.801 387.848 466.801 387.146 466.396L337.023 437.44C336.322 437.035 335.89 436.286 335.89 435.476V398.854C335.89 398.034 336.332 397.278 337.047 396.876L387.141 368.744C387.831 368.356 388.673 368.356 389.362 368.744L439.456 396.876C440.171 397.278 440.613 398.034 440.613 398.854V435.477Z" fill="url(#paint3_linear)" stroke="#D0D4FE" stroke-width="1.5"/>
<path d="M387.405 427.103L336.054 397.827C335.974 398.001 335.922 398.188 335.901 398.381L335.89 398.577V435.749C335.89 436.332 336.173 436.875 336.641 437.21L336.787 437.304L387.383 466.532C387.883 466.821 388.488 466.85 389.009 466.619L389.18 466.532L439.717 437.304C440.222 437.012 440.55 436.496 440.605 435.923L440.614 435.75V398.577C440.614 398.323 440.56 398.076 440.461 397.851L389.636 427.098C388.945 427.495 388.097 427.497 387.405 427.103L336.054 397.827L387.405 427.103Z" fill="#D6D9FB"/>
<path d="M387.405 427.103L336.054 397.829C335.974 398.002 335.922 398.188 335.901 398.382L335.89 398.577V435.749C335.89 436.332 336.173 436.875 336.641 437.21L336.787 437.304L387.383 466.532C387.679 466.703 388.011 466.783 388.341 466.772L388.283 427.385C387.979 427.353 387.68 427.259 387.405 427.103L336.054 397.829L387.405 427.103Z" fill="#C8CBED"/>
<path d="M375.577 412.042C375.468 411.98 375.334 411.982 375.227 412.046L372.815 413.494C372.36 413.768 372.368 414.431 372.83 414.693L384.975 421.583C385.083 421.645 385.216 421.644 385.323 421.58L387.729 420.151C388.187 419.88 388.18 419.215 387.718 418.952L375.577 412.042Z" fill="#D6D9FB"/>
<path d="M372.953 414.763L374.726 413.699C375.096 413.476 375.548 413.447 375.941 413.612L376.085 413.683L387.592 420.231L385.287 421.601C385.224 421.639 385.148 421.649 385.079 421.631L385.011 421.604L372.953 414.763L374.726 413.699L372.953 414.763Z" fill="#733DFF"/>
<path d="M418.774 405.288C418.258 405.584 417.624 405.584 417.108 405.288L403.888 397.723C403.449 397.471 403.448 396.838 403.887 396.586L417.098 388.993C417.615 388.696 418.251 388.696 418.768 388.993L431.979 396.586C432.418 396.839 432.417 397.472 431.978 397.723L418.774 405.288Z" fill="#FF623F"/>
<path d="M432.186 396.706L418.595 388.894C418.231 388.685 417.793 388.662 417.412 388.824L417.273 388.894L403.682 396.705C403.602 396.751 403.536 396.818 403.49 396.897C403.365 397.115 403.416 397.385 403.597 397.544L403.682 397.605L405.991 398.924L417.697 392.468C417.86 392.379 418.052 392.364 418.224 392.424L418.325 392.47L429.901 398.914L432.186 397.605C432.239 397.575 432.286 397.535 432.325 397.489L432.378 397.414C432.502 397.196 432.453 396.927 432.272 396.767L432.186 396.706L418.595 388.894L432.186 396.706Z" fill="#D6D9FB"/>
<path fill-rule="evenodd" clip-rule="evenodd" d="M368.758 424.206C368.527 424.075 368.24 424.242 368.24 424.508V427.474C368.24 427.724 368.374 427.954 368.591 428.077L381.076 435.16C381.307 435.292 381.594 435.125 381.594 434.859V431.915C381.594 431.666 381.46 431.435 381.243 431.312L368.758 424.206Z" fill="white"/>
<path d="M369.236 424.479L381.316 431.354C381.459 431.435 381.556 431.575 381.585 431.734L381.594 431.831L381.593 434.4L369.516 427.579C369.372 427.498 369.274 427.357 369.245 427.198L369.236 427.101L369.236 424.479Z" fill="#959FFA"/>
<path fill-rule="evenodd" clip-rule="evenodd" d="M368.758 430.965C368.527 430.833 368.24 431 368.24 431.266V434.232C368.24 434.482 368.374 434.712 368.591 434.835L381.076 441.919C381.307 442.05 381.594 441.883 381.594 441.617V438.673C381.594 438.424 381.46 438.193 381.243 438.07L368.758 430.965Z" fill="white"/>
<path d="M369.236 431.237L381.316 438.112C381.459 438.193 381.556 438.333 381.585 438.492L381.594 438.589L381.593 441.158L369.516 434.337C369.372 434.256 369.274 434.115 369.245 433.956L369.236 433.859L369.236 431.237Z" fill="#959FFA"/>
<path d="M431.949 413.714C432.237 413.522 432.622 413.729 432.622 414.075V416.551C432.622 416.844 432.474 417.118 432.227 417.278L430.138 418.635C429.85 418.823 429.468 418.616 429.468 418.272V415.827C429.468 415.537 429.613 415.266 429.855 415.105L431.949 413.714Z" fill="#733DFF"/>
<path d="M431.949 419.571C432.237 419.379 432.622 419.586 432.622 419.932V422.408C432.622 422.701 432.474 422.975 432.228 423.135L430.138 424.492C429.85 424.68 429.468 424.473 429.468 424.128V421.684C429.468 421.394 429.614 421.123 429.856 420.962L431.949 419.571Z" fill="#FF623F"/>
<path d="M424.847 417.718C425.078 417.585 425.366 417.752 425.366 418.019V420.984C425.366 421.233 425.232 421.463 425.016 421.587L400.904 435.365C400.673 435.498 400.385 435.331 400.385 435.064V432.122C400.385 431.873 400.518 431.643 400.734 431.519L424.847 417.718Z" fill="#D6D9FB"/>
<path d="M424.369 417.992L400.661 431.561C400.519 431.642 400.422 431.782 400.393 431.941L400.385 432.038L400.385 434.603L424.091 421.089C424.234 421.007 424.332 420.867 424.36 420.708L424.369 420.611L424.369 417.992Z" fill="#733DFF"/>
<path d="M424.847 424.025C425.078 423.893 425.366 424.06 425.366 424.327V427.292C425.366 427.541 425.232 427.771 425.016 427.895L400.904 441.673C400.673 441.805 400.385 441.638 400.385 441.372V438.429C400.385 438.18 400.518 437.95 400.734 437.827L424.847 424.025Z" fill="#D6D9FB"/>
<path d="M424.369 424.299L400.661 437.868C400.519 437.95 400.422 438.09 400.393 438.248L400.385 438.345L400.385 440.91L424.091 427.396C424.234 427.315 424.332 427.175 424.36 427.016L424.369 426.919L424.369 424.299Z" fill="#FF623F"/>
<path fill-rule="evenodd" clip-rule="evenodd" d="M383.624 468.721C383.624 469.53 383.193 470.279 382.492 470.684L332.427 499.639C331.725 500.045 330.859 500.045 330.157 499.639L280.034 470.684C279.333 470.279 278.901 469.53 278.901 468.72V432.097C278.901 431.277 279.343 430.521 280.058 430.12L330.152 401.987C330.842 401.6 331.683 401.6 332.373 401.987L382.467 430.12C383.182 430.521 383.624 431.277 383.624 432.097V468.721Z" fill="url(#paint4_linear)" stroke="#D0D4FE" stroke-width="1.5"/>
<path d="M330.416 460.347L279.065 431.071C278.985 431.245 278.933 431.431 278.912 431.625L278.901 431.821V468.993C278.901 469.576 279.184 470.119 279.652 470.453L279.798 470.547L330.394 499.776C330.894 500.065 331.499 500.094 332.02 499.863L332.19 499.776L382.728 470.548C383.233 470.256 383.561 469.74 383.616 469.167L383.625 468.994V431.821C383.625 431.567 383.571 431.32 383.472 431.095L332.646 460.342C331.956 460.739 331.107 460.741 330.416 460.347L279.065 431.071L330.416 460.347Z" fill="#D6D9FB"/>
<path fill-rule="evenodd" clip-rule="evenodd" d="M330.416 460.346L279.064 431.072C278.985 431.246 278.933 431.432 278.912 431.625L278.901 431.821V468.993C278.901 469.576 279.184 470.118 279.652 470.453L279.798 470.547L330.394 499.776C330.689 499.947 331.022 500.027 331.352 500.016L331.294 460.629C330.99 460.597 330.69 460.503 330.416 460.346L279.064 431.072L330.416 460.346Z" fill="url(#paint5_linear)"/>
<path d="M318.588 445.286C318.479 445.224 318.345 445.226 318.238 445.29L315.826 446.738C315.371 447.012 315.379 447.674 315.841 447.937L327.986 454.827C328.094 454.889 328.227 454.887 328.334 454.824L330.74 453.395C331.197 453.123 331.191 452.459 330.729 452.195L318.588 445.286Z" fill="#D6D9FB"/>
<path d="M315.964 448.007L317.737 446.942C318.107 446.72 318.559 446.69 318.951 446.856L319.096 446.927L330.603 453.475L328.298 454.845C328.234 454.883 328.159 454.893 328.09 454.875L328.022 454.848L315.964 448.007L317.737 446.942L315.964 448.007Z" fill="#733DFF"/>
<path d="M361.785 438.532C361.269 438.827 360.635 438.828 360.119 438.532L346.899 430.967C346.46 430.715 346.459 430.082 346.898 429.83L360.109 422.237C360.626 421.94 361.262 421.94 361.779 422.237L374.99 429.83C375.428 430.082 375.428 430.715 374.989 430.967L361.785 438.532Z" fill="#FF623F"/>
<path d="M375.197 429.949L361.606 422.138C361.242 421.929 360.804 421.905 360.423 422.068L360.284 422.138L346.692 429.949C346.613 429.995 346.546 430.061 346.501 430.141C346.376 430.359 346.427 430.629 346.608 430.788L346.693 430.849L349.001 432.168L360.707 425.712C360.87 425.622 361.063 425.608 361.235 425.668L361.336 425.713L372.912 432.158L375.197 430.849C375.25 430.819 375.297 430.779 375.336 430.732L375.388 430.658C375.513 430.44 375.463 430.17 375.283 430.011L375.197 429.949L361.606 422.138L375.197 429.949Z" fill="#D6D9FB"/>
<path d="M311.769 457.45C311.538 457.319 311.25 457.486 311.25 457.752V460.718C311.25 460.967 311.385 461.198 311.602 461.321L324.086 468.404C324.318 468.536 324.605 468.369 324.605 468.103V465.159C324.605 464.909 324.471 464.679 324.254 464.556L311.769 457.45Z" fill="#D6D9FB"/>
<path d="M312.247 457.723L324.327 464.597C324.47 464.679 324.567 464.819 324.596 464.978L324.605 465.075L324.604 467.644L312.526 460.823C312.383 460.742 312.285 460.601 312.256 460.442L312.247 460.345L312.247 457.723Z" fill="#959FFA"/>
<path d="M374.959 446.958C375.247 446.766 375.633 446.973 375.633 447.319V449.795C375.633 450.088 375.484 450.362 375.238 450.522L373.149 451.879C372.86 452.066 372.479 451.859 372.479 451.515V449.071C372.479 448.781 372.624 448.509 372.866 448.349L374.959 446.958Z" fill="#733DFF"/>
<path d="M374.96 452.815C375.248 452.623 375.633 452.83 375.633 453.176V455.651C375.633 455.945 375.485 456.219 375.238 456.379L373.149 457.736C372.861 457.923 372.479 457.716 372.479 457.372V454.928C372.479 454.638 372.624 454.366 372.866 454.205L374.96 452.815Z" fill="#FF623F"/>
<path d="M367.857 450.962C368.089 450.829 368.377 450.996 368.377 451.263V454.228C368.377 454.477 368.243 454.707 368.027 454.831L343.915 468.609C343.684 468.742 343.396 468.574 343.396 468.308V465.365C343.396 465.117 343.529 464.887 343.745 464.763L367.857 450.962Z" fill="#D6D9FB"/>
<path d="M367.38 451.236L343.672 464.805C343.53 464.886 343.433 465.026 343.404 465.185L343.396 465.281L343.396 467.847L367.102 454.332C367.245 454.251 367.342 454.111 367.371 453.952L367.38 453.855L367.38 451.236Z" fill="#733DFF"/>
<path d="M367.857 457.269C368.089 457.137 368.377 457.304 368.377 457.571V460.536C368.377 460.785 368.243 461.015 368.027 461.138L343.915 474.917C343.684 475.049 343.396 474.882 343.396 474.616V471.673C343.396 471.424 343.529 471.194 343.745 471.071L367.857 457.269Z" fill="#D6D9FB"/>
<path d="M367.38 457.543L343.672 471.112C343.53 471.194 343.433 471.334 343.404 471.492L343.396 471.589L343.396 474.154L367.102 460.64C367.245 460.559 367.342 460.419 367.371 460.26L367.38 460.163L367.38 457.543Z" fill="#FF623F"/>
<path d="M224.194 377.19C222.94 376.465 222.168 375.126 222.168 373.677V338.778C222.168 337.31 222.96 335.958 224.239 335.239L330.438 275.598C331.672 274.905 333.178 274.905 334.412 275.598L440.611 335.239C441.89 335.958 442.682 337.31 442.682 338.778V373.676C442.682 375.125 441.909 376.465 440.654 377.19L334.394 438.575C333.138 439.301 331.589 439.301 330.333 438.574L224.194 377.19Z" fill="#F8FCFF" stroke="#D0D4FF" stroke-width="1.5"/>
<path d="M334.221 398.666L443.085 336.602C443.272 337.011 443.388 337.454 443.422 337.913L443.432 338.191V374.254C443.432 375.534 442.79 376.721 441.733 377.424L441.53 377.55L334.268 439.515C333.163 440.153 331.817 440.192 330.683 439.633L330.459 439.514L223.318 377.55C222.211 376.91 221.505 375.76 221.425 374.494L221.418 374.255V338.191C221.418 337.653 221.532 337.131 221.742 336.655L329.492 398.656C330.955 399.498 332.754 399.502 334.221 398.666L443.085 336.602L334.221 398.666Z" fill="#F8FCFF"/>
<path d="M334.221 398.666L443.085 336.602C443.272 337.011 443.388 337.454 443.422 337.913L443.432 338.191V374.254C443.432 375.534 442.79 376.721 441.733 377.424L441.53 377.55L334.268 439.515C333.641 439.877 332.936 440.046 332.236 440.023L332.357 399.265C333.003 399.198 333.638 398.998 334.221 398.666Z" fill="#D6D9FB"/>
<path d="M328.66 373.475C330.847 374.728 333.534 374.729 335.721 373.477L391.775 341.399C393.637 340.333 393.64 337.648 391.779 336.579L335.766 304.385C333.574 303.125 330.877 303.125 328.685 304.385L272.67 336.58C270.81 337.649 270.812 340.333 272.673 341.399L328.66 373.475Z" fill="#BFC1F8"/>
<path d="M271.795 337.083L329.423 303.961C331.072 303.013 333.081 302.966 334.765 303.819L335.028 303.961L392.655 337.082C392.994 337.276 393.274 337.557 393.468 337.896C394.039 338.895 393.741 340.153 392.812 340.796L392.652 340.897L382.868 346.495L333.232 319.117C332.466 318.695 331.549 318.664 330.761 319.024L330.567 319.122L281.485 346.447L271.797 340.897C271.515 340.736 271.273 340.514 271.088 340.249L270.984 340.085C270.411 339.088 270.706 337.829 271.634 337.185L271.795 337.083L329.423 303.961L271.795 337.083Z" fill="#D6D9FB"/>
<path d="M312.252 297.912C312.251 296.568 312.968 295.327 314.132 294.657L360.566 267.941C361.732 267.27 363.188 268.112 363.188 269.458V333.263C363.188 334.607 362.469 335.849 361.302 336.517L314.941 363.07C313.775 363.738 312.322 362.897 312.321 361.554L312.252 297.912Z" fill="#FF623F" fill-opacity="0.280021" stroke="#ED7F3F" stroke-width="0.5"/>
<path d="M325.668 344.499V334.435C325.668 333.832 326.157 333.343 326.76 333.343C327.363 333.343 327.852 333.832 327.852 334.435V344.499C327.852 345.102 327.363 345.591 326.76 345.591C326.157 345.591 325.668 345.102 325.668 344.499Z" fill="#FF623F" fill-opacity="0.280021" stroke="#ED7F3F" stroke-width="0.5"/>
<path d="M331.036 341.816V337.119C331.036 336.516 331.525 336.027 332.128 336.027C332.731 336.027 333.22 336.516 333.22 337.119V341.816C333.22 342.419 332.731 342.907 332.128 342.907C331.525 342.907 331.036 342.419 331.036 341.816Z" fill="#FF623F" fill-opacity="0.280021" stroke="#ED7F3F" stroke-width="0.5"/>
<path d="M336.404 339.132V331.752C336.404 331.149 336.892 330.66 337.495 330.66C338.098 330.66 338.587 331.149 338.587 331.752V339.132C338.587 339.735 338.098 340.224 337.495 340.224C336.892 340.224 336.404 339.735 336.404 339.132Z" fill="#FF623F" fill-opacity="0.280021" stroke="#ED7F3F" stroke-width="0.5"/>
<path d="M352.506 328.397V321.017C352.506 320.414 352.995 319.925 353.598 319.925C354.201 319.925 354.689 320.414 354.689 321.017V328.397C354.689 329 354.201 329.489 353.598 329.489C352.995 329.489 352.506 329 352.506 328.397Z" fill="#FF623F" fill-opacity="0.280021" stroke="#ED7F3F" stroke-width="0.5"/>
<path d="M347.138 331.081V326.384C347.138 325.781 347.627 325.292 348.23 325.292C348.833 325.292 349.321 325.781 349.321 326.384V331.081C349.321 331.684 348.833 332.173 348.23 332.173C347.627 332.173 347.138 331.684 347.138 331.081Z" fill="#FF623F" fill-opacity="0.280021" stroke="#ED7F3F" stroke-width="0.5"/>
<path d="M341.771 335.106V326.384C341.771 325.781 342.26 325.292 342.863 325.292C343.466 325.292 343.955 325.781 343.955 326.384V335.106C343.955 335.709 343.466 336.198 342.863 336.198C342.26 336.198 341.771 335.709 341.771 335.106Z" fill="#FF623F" fill-opacity="0.280021" stroke="#ED7F3F" stroke-width="0.5"/>
<path d="M349.108 292.26L349.096 292.276L349.085 292.293L340.057 308.027C339.479 309.033 338.213 309.408 337.181 308.879L329.411 304.896L329.2 304.788L329.081 304.993L318.342 323.429C317.945 324.11 317.072 324.341 316.39 323.944C315.709 323.547 315.479 322.673 315.876 321.992L327.059 302.793C327.64 301.795 328.9 301.426 329.927 301.953L337.692 305.933L337.905 306.042L338.023 305.835L346.736 290.653L356.009 279.275C356.507 278.664 357.406 278.572 358.017 279.07C358.628 279.568 358.719 280.467 358.221 281.078L349.108 292.26Z" fill="#9286FF" fill-opacity="0.193018" stroke="#F8F8F8" stroke-width="0.5"/>
<path fill-rule="evenodd" clip-rule="evenodd" d="M373.752 385.402C374.242 385.123 374.851 385.477 374.851 386.041V392.329C374.851 392.858 374.567 393.347 374.106 393.608L347.639 408.625C347.148 408.903 346.54 408.549 346.54 407.985V401.744C346.54 401.215 346.824 400.727 347.284 400.466L373.752 385.402Z" fill="white"/>
<path d="M372.738 385.979L347.129 400.554C346.805 400.738 346.592 401.064 346.548 401.428L346.54 401.566L346.54 407.009L372.145 392.552C372.471 392.368 372.685 392.041 372.729 391.676L372.737 391.538L372.738 385.979Z" fill="#959FFA"/>
<path d="M242.868 365.408C242.378 365.132 241.772 365.486 241.772 366.049V372.339C241.772 372.871 242.059 373.361 242.522 373.622L305.607 409.072C306.097 409.348 306.703 408.993 306.703 408.431V402.189C306.703 401.658 306.416 401.168 305.953 400.907L242.868 365.408Z" fill="#D6D9FB"/>
<path d="M243.885 365.981L306.109 400.995C306.435 401.178 306.651 401.505 306.695 401.871L306.703 402.01L306.702 407.457L244.48 372.566C244.154 372.382 243.938 372.055 243.894 371.689L243.885 371.55L243.885 365.981Z" fill="#733DFF"/>
<path d="M291.899 182.283L292.138 182.143L292.379 182.279L388.357 236.77L444.631 203.791V90.9005L287.135 0.553832L0.104126 166.321V285.741L59.2434 318.937L291.899 182.283Z" fill="#F8FCFF" stroke="#E9EBFF" stroke-width="0.96"/>
<path d="M287.659 73.9148L307.431 30.8312L287.573 19.2644L268.525 30.4063L287.659 73.9148Z" fill="#9593F3" fill-opacity="0.33143"/>
<path d="M287.673 19.3235L287.967 73.2459L307.431 30.8311L287.673 19.3235Z" fill="#9593F3" fill-opacity="0.33143"/>
<path d="M98.578 184.495L83.892 176.525L82.5803 139.537L98.578 184.495Z" fill="black" fill-opacity="0.275213"/>
<path d="M83.8921 176.525L22.4651 213.226L13.0303 174.473L82.5803 133.082L83.8921 176.525Z" fill="#733DFF"/>
<path d="M31.0876 223.655L35.1736 221.32L18.8019 176.525L13.9681 176.579L31.0876 223.655Z" fill="#BFC1F8"/>
<path d="M287.134 0L-0.375885 166.044L-0.375122 166.22L15.9861 177.745L287.573 19.2644L431.758 101.494L445.111 97.1165V90.6225L287.134 0Z" fill="#BFC1F8"/>
<path d="M33.8696 163.12V158.205C33.8696 156.17 32.7812 154.289 31.016 153.276L23.8063 149.135C22.0204 148.109 19.8193 148.129 18.0527 149.188L7.54285 155.485C5.82886 156.513 4.77987 158.364 4.77987 160.362V165.209L16.1986 173.128L33.8696 163.12Z" fill="#FF623F"/>
<path d="M33.87 159.842L16.303 169.767L4.78042 162.207L4.7799 165.209L16.1986 173.128L33.8697 163.12L33.87 159.842Z" fill="#F8FCFF"/>
<path d="M411.363 85.395V80.4801C411.363 78.4444 412.451 76.5641 414.216 75.5502L421.426 71.4093C423.212 70.3836 425.413 70.4039 427.18 71.4625L437.69 77.7601C439.404 78.7872 440.453 80.6386 440.453 82.6368V87.4841L429.034 95.4024L411.363 85.395Z" fill="#FF623F"/>
<path d="M411.363 82.1169L428.93 92.0414L440.452 84.4816L440.453 87.484L429.034 95.4023L411.363 85.3949L411.363 82.1169Z" fill="#F8FCFF"/>
<path d="M420.362 151.633L287.659 73.9148L98.5652 184.885L24.3737 227.493L56.9319 262.007L290.991 129.045L388.863 188.231L420.362 151.633Z" fill="#9593F3" fill-opacity="0.33143"/>
<path d="M217.073 121.018L242.579 142.195C243.198 142.709 244.073 142.776 244.763 142.363L278.957 121.894C279.52 121.557 279.578 120.762 279.069 120.347L253.331 99.3728L217.073 121.018Z" fill="#733DFF"/>
<path d="M271.335 113.54L235.944 137.008" stroke="#3C1F86" stroke-width="1.5792"/>
<path d="M261.215 105.253L225.905 128.673" stroke="#3C1F86" stroke-width="1.5792"/>
<path d="M228.58 114.143L255.146 136.109" stroke="#3C1F86" stroke-width="1.5792"/>
<path d="M241.588 106.356L268.165 128.329" stroke="#3C1F86" stroke-width="1.5792"/>
<path d="M287.659 73.9148L290.991 122.347L335.297 155.838L388.863 188.231L420.362 151.633L287.659 73.9148Z" fill="#9593F3" fill-opacity="0.33143"/>
<path d="M412.389 148.252L412.365 148.312L412.325 148.363L389.343 178.363V235.721L390.28 235.643L444.631 203.791V91.3053L432.003 100.159L412.389 148.252Z" fill="#F8FCFF" stroke="#E9EBFF" stroke-width="0.96"/>
<path d="M429.489 198.283C429.1 198.097 428.655 198.065 428.258 198.235C426.997 198.777 424.179 200.282 423.164 203.239C421.84 207.098 423.688 210.451 423.688 210.451L429.722 213.114C430.958 213.66 431.755 214.884 431.755 216.235V220.652C431.755 220.652 434.942 223.583 438.859 222.984C442.776 222.385 443.484 219.263 443.484 219.263V209.262C443.484 206.633 441.972 204.237 439.599 203.105L429.489 198.283Z" fill="#733DFF"/>
<path d="M423.393 202.645L433.659 207.541C435.475 208.407 436.654 210.208 436.73 212.207L436.734 212.415L436.734 223.044C435.037 222.868 433.455 222.14 431.986 220.859L431.755 220.652V215.772C431.755 214.753 431.183 213.826 430.283 213.367L430.146 213.302L423.688 210.451C422.456 208.216 422.282 205.812 423.164 203.239C423.234 203.036 423.31 202.838 423.393 202.645Z" fill="#293181"/>
<path d="M415.99 207.283C415.6 207.097 415.156 207.064 414.759 207.235C413.497 207.777 410.68 209.281 409.665 212.239C408.341 216.098 410.189 219.451 410.189 219.451L416.222 222.114C417.458 222.66 418.256 223.884 418.256 225.235V229.652C418.256 229.652 421.443 232.583 425.36 231.984C429.276 231.385 429.985 228.263 429.985 228.263V218.262C429.985 215.632 428.473 213.237 426.099 212.105L415.99 207.283Z" fill="#733DFF"/>
<path d="M409.893 211.645L420.16 216.541C421.976 217.407 423.154 219.208 423.231 221.207L423.235 221.415L423.234 232.044C421.538 231.868 419.955 231.14 418.487 229.859L418.256 229.652V224.771C418.256 223.753 417.684 222.826 416.784 222.367L416.646 222.301L410.189 219.451C408.957 217.216 408.782 214.812 409.665 212.239C409.735 212.036 409.811 211.838 409.893 211.645Z" fill="#293181"/>
<path d="M291.899 182.283L292.138 182.142L292.38 182.279L388.357 236.769L388.383 236.754V179.076L290.991 122.901L47.3529 263.294V312.262L59.2436 318.937L291.899 182.283Z" fill="#F8FCFF" stroke="#E9EBFF" stroke-width="0.96"/>
<path d="M290.991 122.347V183.232L291.1 183.31L292.143 182.697L388.361 237.324L388.863 237.029V178.799L290.991 122.347Z" fill="#9593F3" fill-opacity="0.33143"/>
<path d="M-0.375698 166.044V286.022L58.1233 318.859L58.1226 256.868L31.1836 223.909L13.968 175.636L-0.375698 166.044Z" fill="#BFC1F8"/>
<path d="M44.8729 213.494C41.1451 213.494 38.1231 211.479 38.1231 208.994C38.1231 206.509 41.1451 204.494 44.8729 204.494C48.6007 204.494 51.6227 206.509 51.6227 208.994C51.6227 211.479 48.6007 213.494 44.8729 213.494Z" fill="#3C1F86"/>
<path d="M49.8915 224.967L66.1903 240.419" stroke="#3C1F86" stroke-width="1.5792"/>
<path d="M55.6283 224.766L55.6779 226.186L49.1948 230.353L47.2908 228.724L47.2333 227.076L53.3816 222.856L55.6283 224.766Z" fill="#F8FCFF"/>
<path d="M53.3817 222.856L47.3601 226.989L49.2846 228.654L55.4656 224.628L53.3817 222.856Z" fill="#FF623F"/>
<path d="M17.4961 281.531C17.8858 281.345 18.3304 281.312 18.7271 281.483C19.9885 282.024 22.8064 283.529 23.821 286.487C25.145 290.346 23.2973 293.699 23.2973 293.699L17.2637 296.362C16.0275 296.908 15.23 298.131 15.23 299.483V303.9C15.23 303.9 12.043 306.831 8.12641 306.232C4.20978 305.633 3.50136 302.511 3.50136 302.511V292.51C3.50136 289.88 5.01301 287.484 7.38675 286.352L17.4961 281.531Z" fill="#733DFF"/>
<path d="M23.5924 285.892L13.3263 290.789C11.51 291.655 10.3314 293.456 10.2549 295.455L10.2509 295.663L10.2513 306.292C11.9481 306.116 13.5306 305.388 14.9989 304.107L15.2297 303.9V299.019C15.2297 298.001 15.8023 297.074 16.702 296.615L16.8394 296.549L23.297 293.699C24.5288 291.463 24.7034 289.059 23.8207 286.487C23.751 286.283 23.6749 286.085 23.5924 285.892Z" fill="#293181"/>
<path d="M30.9952 290.531C31.3849 290.345 31.8295 290.312 32.2262 290.482C33.4877 291.024 36.3055 292.529 37.3201 295.486C38.6441 299.345 36.7964 302.699 36.7964 302.699L30.7628 305.362C29.5267 305.907 28.7291 307.131 28.7291 308.482V312.9C28.7291 312.9 25.5422 315.83 21.6256 315.231C17.7089 314.632 17.0005 311.51 17.0005 311.51V301.51C17.0005 298.88 18.5122 296.484 20.8859 295.352L30.9952 290.531Z" fill="#733DFF"/>
<path d="M37.0922 294.892L26.8261 299.788C25.0099 300.655 23.8313 302.455 23.7548 304.455L23.7508 304.662L23.7512 315.291C25.448 315.116 27.0305 314.388 28.4987 313.107L28.7296 312.9V308.019C28.7296 307 29.3022 306.073 30.2019 305.614L30.3393 305.549L36.7969 302.699C38.0287 300.463 38.2033 298.059 37.3206 295.486C37.2509 295.283 37.1747 295.085 37.0922 294.892Z" fill="#293181"/>
<path d="M263.858 151.461C263.486 151.475 263.124 151.578 262.802 151.765L106.885 242.116C105.496 242.921 104.641 244.405 104.641 246.01L104.641 292.828L267.124 197.391L266.179 153.638C266.139 152.397 265.1 151.422 263.858 151.461Z" fill="#9593F3" fill-opacity="0.33143"/>
<path d="M393.001 143.538C395.535 144.899 396.22 148.22 394.433 150.473L383.835 163.836C382.332 165.731 379.651 166.204 377.59 164.939C375.116 163.421 374.556 160.064 376.403 157.825L387.256 144.667C388.657 142.969 391.062 142.496 393.001 143.538Z" fill="#9593F3" fill-opacity="0.33143"/>
<path d="M391.685 148.172L380.57 162.255C380.142 162.797 379.356 162.89 378.814 162.462C378.273 162.034 378.18 161.248 378.608 160.706L389.723 146.623C390.151 146.081 390.937 145.988 391.479 146.416C392.021 146.844 392.113 147.63 391.685 148.172Z" fill="#3C1F86"/>
<path d="M391.011 150.796L386.129 147.855V143.996L389.547 140.814L394.459 143.634V147.251L391.011 150.796Z" fill="#FF623F"/>
<path d="M394.459 144.022L390.987 147.059L386.129 144.238L386.129 147.855L391.011 150.796L394.459 147.251L394.459 144.022Z" fill="#F8FCFF"/>
<path d="M377.252 134.538C379.785 135.899 380.471 139.22 378.684 141.473L368.086 154.836C366.583 156.731 363.902 157.204 361.841 155.939C359.366 154.421 358.806 151.064 360.654 148.825L371.506 135.667C372.907 133.969 375.312 133.496 377.252 134.538Z" fill="#9593F3" fill-opacity="0.33143"/>
<path d="M375.936 139.172L364.821 153.255C364.393 153.797 363.607 153.89 363.065 153.462C362.523 153.034 362.43 152.248 362.858 151.707L373.974 137.623C374.401 137.081 375.187 136.989 375.729 137.416C376.271 137.844 376.364 138.63 375.936 139.172Z" fill="#3C1F86"/>
<path d="M375.262 141.796L370.379 138.856V134.996L373.797 131.814L378.709 134.634V138.252L375.262 141.796Z" fill="#FF623F"/>
<path d="M378.71 135.022L375.238 138.06L370.38 135.239L370.379 138.856L375.262 141.796L378.709 138.252L378.71 135.022Z" fill="#F8FCFF"/>
<path d="M171.022 154.691C168.575 155.787 167.871 158.929 169.618 160.964C170.876 162.43 172.999 162.791 174.671 161.824L175.762 161.193C177.928 159.94 178.396 157.012 176.727 155.146C175.582 153.865 173.74 153.473 172.171 154.175L171.022 154.691Z" fill="#733DFF"/>
<path d="M182.271 147.941C179.824 149.037 179.121 152.179 180.867 154.214C182.125 155.68 184.249 156.041 185.921 155.074L187.012 154.443C189.178 153.19 189.646 150.262 187.977 148.396C186.832 147.115 184.989 146.723 183.421 147.425L182.271 147.941Z" fill="#733DFF"/>
<path d="M193.521 141.191C191.074 142.287 190.371 145.43 192.117 147.464C193.375 148.93 195.499 149.292 197.171 148.324L198.261 147.693C200.428 146.44 200.895 143.512 199.227 141.647C198.082 140.366 196.239 139.973 194.671 140.676L193.521 141.191Z" fill="#733DFF"/>
<path d="M180.021 161.44C177.574 162.537 176.871 165.679 178.617 167.714C179.875 169.18 181.999 169.541 183.671 168.574L184.761 167.943C186.928 166.689 187.395 163.762 185.727 161.896C184.582 160.615 182.739 160.222 181.171 160.925L180.021 161.44Z" fill="#733DFF"/>
<path d="M191.271 154.691C188.824 155.787 188.121 158.929 189.867 160.964C191.125 162.43 193.249 162.791 194.921 161.824L196.011 161.193C198.178 159.94 198.645 157.012 196.977 155.146C195.831 153.865 193.989 153.473 192.421 154.175L191.271 154.691Z" fill="#733DFF"/>
<path d="M202.521 147.941C200.074 149.037 199.371 152.179 201.117 154.214C202.375 155.68 204.499 156.041 206.17 155.074L207.261 154.443C209.427 153.19 209.895 150.262 208.227 148.396C207.081 147.115 205.239 146.723 203.671 147.425L202.521 147.941Z" fill="#733DFF"/>
<path d="M152.803 164.203C150.254 165.81 149.985 169.424 152.267 171.392L165.076 182.435C166.705 183.839 169.083 183.948 170.833 182.697C173.326 180.916 173.454 177.256 171.091 175.305L158.051 164.538C156.558 163.304 154.441 163.169 152.803 164.203Z" fill="#9593F3" fill-opacity="0.33143"/>
<path d="M154.465 168.435L168.261 180.011C168.789 180.455 169.578 180.386 170.022 179.857C170.465 179.328 170.396 178.54 169.867 178.096L156.071 166.52C155.543 166.076 154.754 166.145 154.31 166.674C153.867 167.203 153.936 167.991 154.465 168.435Z" fill="#3C1F86"/>
<path d="M154.836 171.593L159.502 168.319L159.233 164.469L155.601 161.533L150.898 164.689L151.15 168.298L154.836 171.593Z" fill="#FF623F"/>
<path d="M150.924 165.076L154.6 167.864L159.249 164.711L159.502 168.319L154.837 171.593L151.15 168.298L150.924 165.076Z" fill="#F8FCFF"/>
<path d="M206.492 130.806C204.001 132.502 203.858 136.123 206.208 138.01L219.393 148.599C221.07 149.946 223.451 149.971 225.156 148.661C227.586 146.794 227.586 143.131 225.157 141.264L211.748 130.958C210.213 129.778 208.093 129.716 206.492 130.806Z" fill="#9593F3" fill-opacity="0.33143"/>
<path d="M208.3 134.978L222.492 146.066C223.036 146.491 223.822 146.394 224.247 145.85C224.672 145.306 224.575 144.521 224.031 144.096L209.839 133.008C209.295 132.583 208.51 132.68 208.085 133.224C207.66 133.768 207.756 134.553 208.3 134.978Z" fill="#3C1F86"/>
<path d="M208.782 138.121L213.331 134.686L212.927 130.848L209.196 128.04L204.605 131.359L204.983 134.956L208.782 138.121Z" fill="#FF623F"/>
<path d="M204.645 131.744L208.415 134.402L212.952 131.089L213.331 134.686L208.782 138.121L204.983 134.956L204.645 131.744Z" fill="#F8FCFF"/>
<path d="M419.946 102.657C422.449 104.049 423.526 107.087 422.458 109.745L412.884 133.578C411.582 136.819 407.693 138.13 404.694 136.34L382.045 122.815C379.659 121.39 378.652 118.449 379.665 115.861L388.741 92.6801C389.996 89.4746 393.79 88.1112 396.798 89.7843L419.946 102.657Z" fill="#733DFF"/>
<path d="M372.577 102.763C375.041 104.155 376.106 107.147 375.075 109.782L374.595 111.012C373.317 114.28 369.414 115.622 366.397 113.831L336.909 96.3229C334.542 94.9176 333.522 92.0184 334.488 89.4406L334.691 88.8978C335.916 85.6275 339.772 84.2242 342.812 85.9422L372.577 102.763Z" fill="#9593F3" fill-opacity="0.33143"/>
<path d="M362.969 125.492C365.416 126.588 366.119 129.73 364.373 131.765C363.115 133.231 360.991 133.592 359.319 132.625L358.229 131.994C356.062 130.741 355.595 127.813 357.263 125.947C358.408 124.666 360.251 124.274 361.819 124.976L362.969 125.492Z" fill="#733DFF"/>
<path d="M351.719 118.742C354.166 119.838 354.869 122.98 353.123 125.015C351.865 126.481 349.741 126.842 348.069 125.875L346.979 125.244C344.812 123.991 344.345 121.063 346.013 119.197C347.159 117.916 349.001 117.524 350.569 118.226L351.719 118.742Z" fill="#733DFF"/>
<path d="M340.469 111.992C342.916 113.088 343.619 116.231 341.873 118.266C340.615 119.731 338.491 120.093 336.82 119.125L335.729 118.494C333.563 117.241 333.095 114.313 334.763 112.448C335.909 111.167 337.751 110.774 339.319 111.477L340.469 111.992Z" fill="#733DFF"/>
<path d="M353.969 132.241C356.416 133.338 357.119 136.48 355.373 138.515C354.115 139.981 351.991 140.342 350.319 139.375L349.229 138.744C347.063 137.49 346.595 134.563 348.263 132.697C349.409 131.416 351.251 131.023 352.819 131.726L353.969 132.241Z" fill="#733DFF"/>
<path d="M342.719 125.492C345.166 126.588 345.87 129.73 344.123 131.765C342.865 133.231 340.742 133.592 339.07 132.625L337.979 131.994C335.813 130.741 335.345 127.813 337.014 125.947C338.159 124.666 340.001 124.274 341.57 124.976L342.719 125.492Z" fill="#733DFF"/>
<path d="M331.47 118.742C333.917 119.838 334.62 122.98 332.874 125.015C331.616 126.481 329.492 126.842 327.82 125.875L326.729 125.244C324.563 123.991 324.096 121.063 325.764 119.197C326.909 117.916 328.752 117.524 330.32 118.226L331.47 118.742Z" fill="#733DFF"/>
<path d="M336.928 55.3359C339.451 56.7311 340.531 59.7939 339.44 62.4625L329.659 86.3826C328.343 89.6025 324.469 90.8956 321.482 89.1121L298.903 75.6291C296.471 74.1768 295.479 71.1554 296.577 68.5441L306.244 45.5579C307.554 42.4421 311.278 41.151 314.236 42.7868L336.928 55.3359Z" fill="#733DFF"/>
<path d="M210.186 95.7211C207.587 97.1927 206.57 100.424 207.857 103.119L210.166 107.952C211.603 110.958 215.304 112.091 218.176 110.403L275.797 76.5529C278.395 75.0268 279.351 71.7389 277.976 69.0577L276.023 65.2473C274.548 62.3708 270.975 61.3009 268.163 62.8936L210.186 95.7211Z" fill="#9593F3" fill-opacity="0.33143"/>
<path d="M122.541 120.412C119.9 121.907 118.899 125.214 120.268 127.923L132.297 151.734C133.777 154.663 137.422 155.735 140.251 154.073L197.958 120.172C200.568 118.638 201.519 115.328 200.12 112.643L188.292 89.9435C186.806 87.0902 183.249 86.0381 180.449 87.6234L122.541 120.412Z" fill="#FF623F"/>
<path d="M109.592 139.907C107.392 141.09 106.507 143.791 107.582 146.046L115.522 162.7C116.752 165.278 119.945 166.223 122.379 164.729C124.498 163.429 125.276 160.728 124.176 158.5L116.005 141.958C114.832 139.584 111.925 138.654 109.592 139.907Z" fill="#3C1F86"/>
<path d="M96.343 148.907C94.1426 150.089 93.2578 152.791 94.3328 155.046L102.273 171.699C103.502 174.278 106.695 175.223 109.13 173.729C111.248 172.428 112.027 169.728 110.926 167.5L102.755 150.958C101.583 148.584 98.6757 147.654 96.343 148.907Z" fill="#3C1F86"/>
<path d="M259.492 62.9982C253.9 62.9982 249.367 58.4652 249.367 52.8735C249.367 47.2818 253.9 42.7488 259.492 42.7488C265.083 42.7488 269.616 47.2818 269.616 52.8735C269.616 58.4652 265.083 62.9982 259.492 62.9982Z" fill="#733DFF"/>
<path d="M234.742 76.4977C229.151 76.4977 224.618 71.9647 224.618 66.373C224.618 60.7813 229.151 56.2483 234.742 56.2483C240.334 56.2483 244.867 60.7813 244.867 66.373C244.867 71.9647 240.334 76.4977 234.742 76.4977Z" fill="#733DFF"/>
<path d="M209.993 89.9975C204.401 89.9975 199.869 85.4645 199.869 79.8728C199.869 74.281 204.401 69.748 209.993 69.748C215.585 69.748 220.118 74.281 220.118 79.8728C220.118 85.4645 215.585 89.9975 209.993 89.9975Z" fill="#733DFF"/>
<path d="M294.711 84.3726L331.529 107L323.97 113.54L295.746 96.2009L294.711 84.3726Z" fill="#9593F3" fill-opacity="0.33143"/>
<path d="M63.2738 216.088L79.2496 230.294" stroke="#3C1F86" stroke-width="1.5792"/>
<path d="M69.0062 215.788L69.0806 217.207L62.6712 221.486L60.7391 219.89L60.6528 218.244L66.7265 213.917L69.0062 215.788Z" fill="#F8FCFF"/>
<path d="M66.7265 213.917L60.778 218.155L62.7312 219.786L68.841 215.652L66.7265 213.917Z" fill="#FF623F"/>
<path d="M73.8025 205.62C72.0937 206.628 71.917 209.033 73.4602 210.28L79.7211 215.339C81.5623 216.827 84.1328 217.018 86.1739 215.819L146.716 180.252C148.459 179.228 148.606 176.764 146.997 175.539L140.344 170.477C138.505 169.078 136.003 168.931 134.013 170.104L73.8025 205.62Z" fill="#733DFF"/>
<path d="M149.245 188.994C147.381 188.994 145.87 187.987 145.87 186.745C145.87 185.502 147.381 184.495 149.245 184.495C151.109 184.495 152.62 185.502 152.62 186.745C152.62 187.987 151.109 188.994 149.245 188.994Z" fill="#FF623F"/>
<path d="M137.995 195.744C136.131 195.744 134.62 194.737 134.62 193.494C134.62 192.252 136.131 191.244 137.995 191.244C139.859 191.244 141.37 192.252 141.37 193.494C141.37 194.737 139.859 195.744 137.995 195.744Z" fill="#FF623F"/>
<path d="M126.745 202.494C124.882 202.494 123.371 201.487 123.371 200.244C123.371 199.001 124.882 197.994 126.745 197.994C128.609 197.994 130.12 199.001 130.12 200.244C130.12 201.487 128.609 202.494 126.745 202.494Z" fill="#FF623F"/>
<path d="M115.496 209.244C113.632 209.244 112.121 208.237 112.121 206.994C112.121 205.751 113.632 204.744 115.496 204.744C117.36 204.744 118.871 205.751 118.871 206.994C118.871 208.237 117.36 209.244 115.496 209.244Z" fill="#FF623F"/>
<path d="M104.246 215.994C102.383 215.994 100.872 214.986 100.872 213.744C100.872 212.501 102.383 211.494 104.246 211.494C106.11 211.494 107.621 212.501 107.621 213.744C107.621 214.986 106.11 215.994 104.246 215.994Z" fill="#FF623F"/>
<path d="M92.9967 222.744C91.1328 222.744 89.6218 221.736 89.6218 220.494C89.6218 219.251 91.1328 218.244 92.9967 218.244C94.8606 218.244 96.3716 219.251 96.3716 220.494C96.3716 221.736 94.8606 222.744 92.9967 222.744Z" fill="#FF623F"/>
<path d="M78.122 193.494C74.3942 193.494 71.3722 191.48 71.3722 188.994C71.3722 186.509 74.3942 184.495 78.122 184.495C81.8498 184.495 84.8718 186.509 84.8718 188.994C84.8718 191.48 81.8498 193.494 78.122 193.494Z" fill="#3C1F86"/>
<path d="M358.081 184.704L314.626 160.35L316.276 157.406L359.731 181.76L358.081 184.704Z" fill="#3C1F86"/>
<path d="M358.081 195.954L314.626 171.6L316.276 168.656L359.731 193.01L358.081 195.954Z" fill="#3C1F86"/>
<path d="M358.081 207.203L314.626 182.849L316.276 179.905L359.731 204.259L358.081 207.203Z" fill="#3C1F86"/>
<mask id="path-206-inside-1" fill="white">
<path d="M263.18 199.45L262.283 157.78L108.801 245.79V290.244"/>
</mask>
<path d="M263.18 199.45L262.283 157.78L108.801 245.79V290.244" fill="#F8FCFF"/>
<path d="M262.283 157.78L261.805 156.947L263.208 156.143L263.243 157.759L262.283 157.78ZM108.801 245.79H107.841V245.234L108.323 244.957L108.801 245.79ZM262.221 199.471L261.323 157.801L263.243 157.759L264.14 199.429L262.221 199.471ZM262.76 158.613L109.279 246.623L108.323 244.957L261.805 156.947L262.76 158.613ZM109.761 245.79V290.244H107.841V245.79H109.761Z" fill="#E9EBFF" mask="url(#path-206-inside-1)"/>
<path d="M258.367 166.495C257.124 166.495 256.117 165.488 256.117 164.245C256.117 163.003 257.124 161.995 258.367 161.995C259.609 161.995 260.617 163.003 260.617 164.245C260.617 165.488 259.609 166.495 258.367 166.495Z" fill="#1B215B"/>
<path d="M113.295 250.797C112.053 250.797 111.046 249.79 111.046 248.547C111.046 247.304 112.053 246.297 113.295 246.297C114.538 246.297 115.545 247.304 115.545 248.547C115.545 249.79 114.538 250.797 113.295 250.797Z" fill="#1B215B"/>
<path d="M224.703 236.665C224.703 236.665 224.788 239.099 222.861 240.422C220.934 241.744 213.917 239.249 213.075 240.422C211.911 242.044 214.194 248.069 219.066 246.84C221.503 246.225 222.652 248.71 224.512 249.195C226.24 249.646 227.618 249.326 228.418 249.195C231.025 248.771 230.767 238.136 230.767 238.136L224.703 236.665Z" fill="#733DFF"/>
<path d="M219.14 247.061C221.577 246.447 222.652 248.71 224.512 249.195C226.24 249.646 227.618 249.326 228.418 249.195C229.161 249.074 229.729 248.332 230.123 246.968C228.129 247.82 226.511 248.135 225.267 247.913C223.062 247.518 222.701 245.799 219.952 245.987L219.687 246.011C217.795 246.213 215.443 244.958 212.631 242.246C213.312 244.753 215.768 247.912 219.14 247.061Z" fill="#733DFF"/>
<path d="M251.307 205.534C251.307 205.534 264.412 214.684 256.649 221.539C253.762 224.088 247.616 220.799 234.518 214.68C233.523 214.215 234.518 215.379 234.518 217.978C234.518 220.578 233.392 234.38 232.612 236.989C231.832 239.597 227.564 239.1 226.363 238.723C225.161 238.346 222.705 237.615 222.705 235.399C222.705 233.184 218.834 201.512 224.439 199.402C230.043 197.291 251.307 205.534 251.307 205.534Z" fill="#380085"/>
<path d="M231.484 199.38L231.485 207.105L221.773 205.849C220.575 215.703 222.663 233.393 222.704 235.345L222.705 235.399C222.705 237.289 224.491 238.099 225.763 238.53L226.362 238.723C227.564 239.1 231.832 239.598 232.612 236.989C233.379 234.424 234.48 221.035 234.516 218.118L234.517 217.978C234.517 215.379 233.523 214.215 234.517 214.68L241.013 217.728C241.663 218.031 242.29 218.321 242.894 218.599L241.01 201.852C237.457 200.714 234.414 199.914 231.88 199.45L231.484 199.38Z" fill="black" fill-opacity="0.28827"/>
<path d="M244.759 240.439L242.525 247.458L218.387 232.657C215.826 231.087 214.654 227.983 215.537 225.112L216.522 221.91L244.759 240.439Z" fill="#532CB9"/>
<path d="M252.089 201.371C251.061 200.807 249.811 200.833 248.807 201.439L218.672 219.632C216.534 220.923 216.557 224.033 218.716 225.291L244.704 240.441L256.214 203.632L252.089 201.371Z" fill="#3C1F86"/>
<path d="M220.619 145.68C220.619 145.68 219.48 146.004 218.21 145.904C216.941 145.803 215.074 146.401 214.628 145.457C214.182 144.513 216.673 144.251 216.852 143.627C216.935 143.339 215.827 142.044 214.671 140.664C213.325 139.057 211.912 137.334 212.231 136.944C212.823 136.219 216.351 140.038 216.351 140.038C216.351 140.038 213.195 136.09 213.603 135.413C214.011 134.737 217.334 138.408 217.334 138.408C217.334 138.408 214.808 134.987 215.503 134.296C216.198 133.605 218.402 136.789 218.402 136.789C218.402 136.789 217.634 133.716 218.196 133.605C218.444 133.556 219.316 134.97 220.81 137.847C221.185 138.567 222.179 139.568 223.008 141.237C223.295 141.815 223.557 143.337 223.557 143.337L220.619 145.68Z" fill="#FFAF8A"/>
<path d="M255.402 169.523C255.402 169.523 243.212 161.156 237.453 156.245C231.694 151.334 226.808 143.371 224.03 143.371C221.252 143.371 219.488 144.871 220.299 147.538C221.11 150.206 228.272 160.22 230.171 162.721C232.071 165.222 247.031 177.371 247.031 177.371L255.402 169.523Z" fill="#380085"/>
<path d="M257.306 170.607C263.072 177.599 255.656 203.599 257.97 207.216C260.284 210.833 261.269 220.564 253.619 223.603C248.61 225.594 245.957 226.89 242.894 226.643C241.28 226.513 238.535 226.36 237.482 224.774C234.431 220.178 236.729 202.648 234.244 198.683C231.759 194.718 229.44 180.956 232.148 176.73C234.857 172.504 251.539 163.616 257.306 170.607Z" fill="#380085"/>
<path d="M239.897 171.081L239.928 171.018C236.227 172.843 233.178 175.123 232.148 176.73C229.479 180.895 231.692 194.321 234.136 198.504L234.244 198.683C235.348 200.444 235.508 204.884 235.612 209.677L237.482 210.653C236.006 198.073 236.006 187.634 237.482 179.334C238.062 176.072 238.82 173.421 239.756 171.383L239.928 171.018L239.897 171.081Z" fill="black" fill-opacity="0.28827"/>
<path d="M206.017 244.289C206.017 244.289 206.272 246.711 204.442 248.165C202.612 249.619 197.575 247.588 195.061 250.316C193.621 251.877 195.998 254.199 200.55 255.488C203.947 256.449 208.96 256.915 210.598 256.53C213.168 255.924 211.876 244.958 211.876 244.958L206.017 244.289Z" fill="#733DFF"/>
<path d="M195.061 250.315C193.621 251.877 195.998 254.199 200.55 255.487C203.947 256.449 208.96 256.915 210.598 256.53C211.095 256.412 211.484 256.004 211.765 255.305C204.962 255.292 197.48 253.205 195.855 251.555C195.465 251.159 195.215 250.73 195.105 250.27L195.061 250.315Z" fill="#733DFF"/>
<path d="M234.81 208.797C234.81 208.797 253.729 214.842 249.844 223.918C247.256 229.964 228.508 225.022 215.41 218.904C214.415 218.439 215.41 219.603 215.41 222.202C215.41 224.802 215.163 242.192 214.383 244.801C213.603 247.41 209.336 246.912 208.134 246.535C206.932 246.158 204.476 245.427 204.476 243.211C204.476 240.996 200.605 209.324 206.21 207.214C211.814 205.103 234.81 208.797 234.81 208.797Z" fill="#380085"/>
<path d="M283.511 214.933C283.595 215.411 283.693 215.882 283.797 216.354L282.556 216.595C281.591 216.783 280.656 216.153 280.468 215.187C280.289 214.264 280.858 213.368 281.753 213.128L281.877 213.099L283.183 212.844C283.278 213.529 283.387 214.229 283.511 214.933Z" fill="#733DFF"/>
<path d="M236.366 199.802L241.329 200.237C242.309 200.322 243.034 201.186 242.948 202.166C242.866 203.105 242.069 203.81 241.141 203.791L241.019 203.785L237.393 203.522C236.884 203.485 236.485 203.07 236.466 202.56L236.407 200.933C236.386 200.332 236.895 199.848 237.494 199.901L241.329 200.237L236.366 199.802Z" fill="#733DFF"/>
<path d="M258.521 210.507C252.283 212.223 246.4 212.844 236.942 210.613L237.017 207.247C237.017 207.247 248.987 208.91 257.609 207.198C266.231 205.486 260.986 209.829 258.521 210.507Z" fill="#733DFF"/>
<path d="M210.795 216.225C209.202 217.197 209.336 227.391 211.195 246.809C212.587 246.69 213.971 246.178 214.383 244.801C215.141 242.266 215.395 225.77 215.409 222.456L215.41 222.202C215.41 219.671 214.467 218.501 215.335 218.87L216.696 219.499L216.351 219.07C214.075 216.302 212.223 215.354 210.795 216.225Z" fill="black" fill-opacity="0.28827"/>
<path d="M200.34 171.955C200.34 171.955 200.969 170.95 201.224 169.702C201.48 168.454 202.577 166.824 201.786 166.135C200.996 165.447 200.052 167.769 199.398 167.769C199.096 167.769 198.151 166.347 197.135 164.855C195.954 163.118 194.678 161.286 194.213 161.484C193.347 161.854 196.063 166.298 196.063 166.298C196.063 166.298 193.118 162.175 192.35 162.381C191.582 162.588 194.213 166.793 194.213 166.793C194.213 166.793 191.603 163.422 190.742 163.9C189.88 164.378 192.35 167.373 192.35 167.373C192.35 167.373 189.676 165.318 189.413 165.828C189.296 166.053 190.335 167.751 192.705 169.98C193.299 170.539 193.991 171.771 195.377 173.027C195.856 173.462 197.256 174.134 197.256 174.134L200.34 171.955Z" fill="#FFAF8A"/>
<path d="M212.536 189.836C208.904 187.805 197.299 175.478 197.299 174.318C197.299 173.158 199.864 170.092 202.044 170.632C204.224 171.172 214.279 181.715 217.361 181.715C219.43 181.715 233.448 173.981 238.416 175.791C239.448 176.167 238.027 177.943 238.416 179.261C241.667 190.277 216.168 191.866 212.536 189.836Z" fill="#380085"/>
<path d="M254.828 170.359L254.99 170.356C256.39 174.125 256.144 177.375 250.684 179.408C246.36 181.019 240.019 180.39 236.612 175.606L236.373 175.262C236.612 174.73 237.136 173.515 238.345 173.01C240.943 176.522 245.288 177.786 249.432 176.323C252.142 175.367 253.182 172.675 251.872 170.623L251.823 170.461C253.072 170.08 253.831 170.389 254.828 170.359L254.99 170.356L254.828 170.359Z" fill="#733DFF"/>
<path d="M248.865 169.916L248.478 166.137C248.478 166.137 252.171 155.122 250.489 151.679C248.808 148.237 238.581 146.212 237.02 150.565C235.458 154.918 234.312 166.904 237.02 167.982C239.727 169.06 239.981 168.415 239.981 168.415L240.933 171.522C240.933 171.522 242.856 172.657 245.452 171.941C248.048 171.224 248.865 169.916 248.865 169.916Z" fill="#FFAF8A"/>
<path d="M249.677 163.709C247.695 166.061 245.281 166.426 243.54 164.317C241.798 162.207 243.315 157.549 241.501 156.723C239.687 155.897 239.918 160.871 238.93 160.371C237.941 159.871 239.066 154.603 237.941 153.345C236.817 152.086 235.038 152.903 235.038 150.492C235.038 148.081 239.31 145.626 242.497 146.509C245.685 147.393 248.411 146.069 251.015 149.134C253.619 152.2 251.66 161.358 249.677 163.709Z" fill="#380085"/>
<path d="M287.196 170.165C289.479 168.949 292.263 169.182 294.311 170.763L296.196 172.218L247.308 268.806L221.132 255.703L239.647 245.712L242.484 247.187L261.475 186.029C261.988 184.374 263.135 182.989 264.664 182.174L287.196 170.165Z" fill="#F8FCFF"/>
<path d="M297.328 175.675C297.562 173.004 294.674 171.19 292.37 172.56L268.481 186.759C267.763 187.185 267.235 187.868 267.002 188.669L244.167 267.301L225.639 253.352L222.9 254.781C221.813 255.348 221.132 256.472 221.132 257.698V260.49C221.132 261.709 221.805 262.827 222.882 263.398L244.268 274.722C246.287 275.792 248.717 275.737 250.686 274.577L287.799 252.721C289.631 251.642 290.829 249.744 291.015 247.626L297.328 175.675Z" fill="#532CB9"/>
<path d="M242.484 247.187L239.697 245.685L225.423 253.388C224.969 253.633 224.598 254.007 224.357 254.463C223.71 255.689 224.138 257.198 225.31 257.906L225.443 257.982L233.402 262.187L238.21 264.589L242.484 247.187Z" fill="#3C1F86"/>
<path d="M474.043 179.72V223.122C474.043 230.246 477.832 236.832 483.992 240.413L508.358 254.577L488.194 265.95L460.958 250.16C454.787 246.583 450.989 239.99 450.989 232.858V192.504L474.043 179.72Z" fill="#D6D9FB"/>
<path d="M469.599 237.085C470.801 236.465 472.234 236.495 473.409 237.163L500.068 252.321C501.43 253.095 501.413 255.064 500.038 255.815L490.363 261.097C489.139 261.764 487.657 261.747 486.449 261.051L459.723 245.646C458.352 244.856 458.398 242.861 459.805 242.136L469.599 237.085Z" fill="#1B215B"/>
<path d="M450.746 192.067L450.489 192.209V192.504V232.821C450.489 240.152 454.403 246.925 460.756 250.584L476.886 259.876C481.219 262.372 486.63 259.244 486.63 254.243V212.993L509.819 200.648L515.368 203.883L515.403 261.898C515.408 270.289 510.916 278.06 503.653 282.264C496.345 286.493 487.309 286.489 480.017 282.235L456.509 268.519C449.274 264.297 444.832 256.543 444.852 248.166L444.989 189.857L468.415 177.081L473.024 179.714L450.746 192.067Z" fill="#F8FCFF" stroke="#D0D4FF"/>
<path d="M515.799 203.555L515.868 203.596L515.905 264.785C515.909 271.456 512.415 277.631 506.716 281.065L506.424 281.238L501.365 284.166C495.612 287.495 488.551 287.57 482.741 284.395L483.044 284.436C487.236 284.92 491.124 282.045 491.847 277.835C491.924 277.387 491.962 276.934 491.962 276.48V216.903L515.799 203.555Z" fill="#D6D9FB"/>
<path d="M461.197 205.291C463.611 206.316 466.676 204.537 468.043 201.318C469.409 198.099 468.56 194.658 466.145 193.633C463.731 192.609 460.666 194.387 459.3 197.607C457.933 200.826 458.783 204.266 461.197 205.291Z" fill="#1B215B"/>
<path d="M462.32 203.137C463.729 203.734 465.493 202.751 466.262 200.94C467.031 199.13 466.512 197.177 465.104 196.579C463.695 195.981 461.931 196.965 461.162 198.776C460.393 200.586 460.912 202.539 462.32 203.137Z" fill="#FF623F"/>
<path d="M461.197 222.705C463.611 223.729 466.676 221.951 468.043 218.731C469.409 215.512 468.56 212.072 466.145 211.047C463.731 210.022 460.666 211.801 459.3 215.02C457.933 218.239 458.783 221.68 461.197 222.705Z" fill="#1B215B"/>
<path d="M462.32 220.55C463.729 221.148 465.493 220.164 466.262 218.354C467.031 216.543 466.512 214.59 465.104 213.993C463.695 213.395 461.931 214.378 461.162 216.189C460.393 218 460.912 219.952 462.32 220.55Z" fill="#FF3F87"/>
<path d="M467.629 245.37C466.524 246.463 457.614 230.404 460.952 218.459C464.29 206.513 463.873 198.919 463.873 198.919C463.873 198.919 472.769 211.702 472.769 218.459C472.769 225.216 471.526 243.719 471.526 243.719C471.526 243.719 470.851 244.351 470.558 244.428C469.188 244.786 468.235 244.77 467.629 245.37Z" fill="#733DFF" stroke="#D0D4FF" stroke-width="0.5"/>
<path d="M472.769 218.459L472.766 219.152C472.727 223.801 472.314 231.99 471.526 243.719C471.076 244.14 470.754 244.377 470.558 244.428C469.188 244.786 468.235 244.77 467.629 245.37C467.367 245.629 466.665 244.924 465.793 243.537C464.9 238.796 464.207 231.476 465.19 225.896C465.941 221.639 467.841 216.665 470.889 210.975C472.143 213.894 472.769 216.388 472.769 218.459Z" fill="#3C1F86"/>
<path d="M471.149 248.288C470.109 247.283 464.108 237.277 467.629 225.397C471.149 213.518 478.46 204.752 478.46 204.752C478.46 204.752 477.46 216.788 479.868 223.554C482.276 230.32 478.46 245.37 478.46 245.37C478.46 245.37 477.642 246.911 477.053 247.145C475.965 247.576 475.105 246.911 474.053 247.145C472.51 247.487 471.544 248.67 471.149 248.288Z" fill="#733DFF" stroke="#D0D4FF" stroke-width="0.5"/>
<path d="M479.731 223.156L479.868 223.554C481.473 228.065 481.004 235.337 478.46 245.37C477.915 246.397 477.446 246.989 477.053 247.144C475.965 247.576 475.106 246.911 474.054 247.144C473.878 247.184 473.709 247.234 473.548 247.291L473.331 246.51C471.549 239.961 469.334 228.318 473.736 223.543C475.739 221.37 477.254 218.531 478.281 215.024C478.486 218.164 478.97 220.875 479.731 223.156Z" fill="#3C1F86"/>
<path d="M484.746 247.328C483.915 248.422 483.227 249.074 482.681 249.282L482.08 249.511C481.766 249.624 481.559 249.665 480.567 249.878C478.735 250.272 477.612 251.934 477.186 251.163L477.153 251.093C476.492 249.59 470.069 230.097 476.111 223.543C480.221 219.085 482.276 211.817 482.276 201.74C484.551 205.276 486.29 208.685 487.493 211.968L486.13 212.693" fill="#733DFF"/>
<path d="M484.746 247.328C483.915 248.422 483.227 249.074 482.681 249.282L482.08 249.511C481.766 249.624 481.559 249.665 480.567 249.878C478.735 250.272 477.612 251.934 477.186 251.163L477.153 251.093C476.492 249.59 470.069 230.097 476.111 223.543C480.221 219.085 482.276 211.817 482.276 201.74C484.551 205.276 486.29 208.685 487.493 211.968L486.13 212.693" stroke="#D0D4FF" stroke-width="0.5"/>
<path d="M484.547 220.509L484.547 247.586C483.805 248.525 483.183 249.091 482.681 249.282L482.08 249.511L481.903 249.57C481.684 249.638 481.431 249.693 480.82 249.824L480.675 249.143C479.523 243.62 478.564 236.373 479.63 233.262L479.688 233.102C480.594 230.742 480.045 226.711 478.04 221.008C478.839 219.738 479.524 218.313 480.097 216.734C481.743 218.017 483.226 219.276 484.547 220.509Z" fill="#3C1F86"/>
<path d="M486.13 254.644C485.149 255.046 484.548 256.375 484.298 256.183C483.368 255.47 479.417 238.501 481.213 233.262L481.271 233.102C482.562 229.739 480.897 222.979 476.276 212.824C480.208 215.484 483.492 218.046 486.13 220.509" fill="#733DFF"/>
<path d="M486.13 254.644C485.149 255.046 484.548 256.375 484.298 256.183C483.368 255.47 479.417 238.501 481.213 233.262L481.271 233.102C482.562 229.739 480.897 222.979 476.276 212.824C480.208 215.484 483.492 218.046 486.13 220.509" stroke="#D0D4FF" stroke-width="0.5"/>
<path d="M471.168 249.824C471.168 249.824 471.057 247.782 471.827 246.821C472.597 245.86 475.124 246.315 475.124 246.315L477.259 252.582C477.259 252.582 476.95 249.824 478.642 249.824C480.334 249.824 481.208 247.578 481.616 248.701C482.023 249.824 483.484 257.252 483.484 257.252H484.866C484.866 257.252 483.624 255.929 484.547 254.256C485.469 252.582 486.13 252.926 486.13 252.926V256.608L484.866 258.581L471.168 249.824Z" fill="#1B215B"/>
<path d="M518.628 361.348H525.767C526.129 361.348 526.482 361.457 526.781 361.661L528.085 362.549C529.069 363.22 529.138 364.64 528.197 365.37C527.139 366.192 525.788 367.192 524.589 367.924C523.456 368.617 520.579 370.174 517.844 371.632C515.218 373.032 512.092 370.996 512.289 368.028L512.685 362.062L518.628 361.348Z" fill="#733DFF"/>
<path d="M493.249 357.679C492.704 357.989 492.36 358.559 492.34 359.185L492.225 362.67L492.221 363.911C492.218 364.851 492.94 365.638 493.879 365.68C494.741 365.718 495.676 365.731 495.985 365.632C497.529 365.135 498.263 363.639 498.677 363.429C499.68 362.917 501.283 361.306 501.283 361.306L505.109 359.878C506.112 359.504 506.569 358.344 506.091 357.386L505.811 356.827C505.541 356.287 505.018 355.918 504.418 355.844L498.464 355.119C498.08 355.072 497.692 355.15 497.356 355.341L493.249 357.679Z" fill="#733DFF"/>
<path d="M499.654 253.694C499.654 253.694 500.58 251.263 501.309 247.886C502.037 244.509 499.079 236.074 499.079 236.074L512.922 230.999C512.922 230.999 513.207 237.816 513.207 241.319C513.207 244.071 511.891 246.125 511.326 246.881C511.168 247.092 510.938 247.233 510.682 247.301L508.774 247.811L509.758 253.694L507.139 256.197L499.654 253.694Z" fill="#FFAF8A"/>
<path d="M524.433 270.596L533.522 261.482C534.004 260.999 534.111 260.257 533.785 259.658L524.265 254.015C523.915 253.807 523.47 253.857 523.175 254.138L513.921 262.935L524.433 270.596Z" fill="#733DFF"/>
<path d="M523.279 254.039L514.375 262.502L524.433 269.833L533.711 260.53C533.857 260.384 533.927 260.19 533.92 259.999C533.901 259.924 533.875 259.851 533.844 259.78L533.785 259.658L524.142 253.941C523.865 253.777 523.512 253.817 523.279 254.039Z" fill="#D6D9FB"/>
<path d="M524.528 268.821L532.712 260.702C533.093 260.323 533.012 259.685 532.548 259.414L524.372 254.642C524.07 254.466 523.689 254.501 523.424 254.73L515.036 261.976L524.528 268.821Z" fill="white"/>
<path d="M523.517 254.65L515.036 261.976L524.528 268.821L525.453 267.904C526.4 263.704 526.878 259.772 526.887 256.11L524.267 254.581C524.028 254.441 523.726 254.469 523.517 254.65Z" fill="black" fill-opacity="0.169362"/>
<path d="M514.956 260.457L519.725 262.182C520.821 262.579 522.049 262.273 522.832 261.409C523.371 260.814 522.673 259.91 521.953 260.263C521.758 260.358 521.612 260.427 521.538 260.457C521.055 260.653 520.404 259.57 520.404 259.57L523.883 258.462C524.682 258.207 525.063 257.298 524.645 256.57C524.174 255.752 523.587 254.831 523.198 254.572C522.582 254.16 519.054 254.433 517.879 254.537C517.629 254.559 517.393 254.652 517.193 254.804L513.423 257.666L514.956 260.457Z" fill="#FFAF8A"/>
<mask id="mask0" mask-type="alpha" maskUnits="userSpaceOnUse" x="513" y="254" width="12" height="9">
<path d="M514.956 260.457L519.725 262.182C520.821 262.579 522.049 262.273 522.832 261.409C523.371 260.814 522.673 259.91 521.953 260.263C521.758 260.358 521.612 260.427 521.538 260.457C521.055 260.653 520.404 259.57 520.404 259.57L523.883 258.462C524.682 258.207 525.063 257.298 524.645 256.57C524.174 255.752 523.587 254.831 523.198 254.572C522.582 254.16 519.054 254.433 517.879 254.537C517.629 254.559 517.393 254.652 517.193 254.804L513.423 257.666L514.956 260.457Z" fill="white"/>
</mask>
<g mask="url(#mask0)">
</g>
<path d="M500.717 250.07L492.865 251.566C492.575 251.621 492.322 251.792 492.163 252.036L492.108 252.131L483.867 268.089C482.898 269.967 483.051 272.228 484.266 273.958C484.364 274.098 484.475 274.229 484.597 274.349C485.685 275.425 487.415 275.454 488.538 274.443L488.66 274.326L493.574 269.236L494.067 278.053C494.803 281.245 494.55 284.583 493.346 287.624L493.208 287.961C493.208 287.961 491.488 294.018 490.741 298.806C489.994 303.594 491.314 335.633 491.314 335.633L491.824 357.226C491.837 357.798 492.294 358.259 492.865 358.28L493.574 358.3C494.603 358.323 495.281 358.302 495.61 358.237C496.75 358.013 497.598 357.262 498.13 356.976L498.239 356.923C499.184 356.508 499.958 349.566 500.56 336.095L500.58 335.633C500.58 335.633 502.178 308.581 502.258 308.743L507.327 339.68L510.893 363.803C510.904 363.877 510.92 363.951 510.94 364.023C511.207 364.98 512.199 365.54 513.156 365.273L513.692 365.122C515.59 364.577 516.759 364.152 517.201 363.845C517.776 363.447 518.515 362.281 519.42 360.349C519.513 360.15 519.568 359.937 519.585 359.719L519.589 359.555L519.235 339.035C519.235 339.035 515.584 296.525 515.365 290.948C515.126 284.891 515.858 279.864 517.561 275.869L517.724 275.497L522.984 283.95C523.738 285.161 525.039 285.919 526.457 285.982L526.651 285.987H527.966C528.126 285.987 528.286 285.975 528.445 285.951C530.136 285.694 531.315 284.156 531.144 282.472L531.124 282.314L528.7 266.312L524.814 270.151L520.475 258.796C520.406 258.616 520.29 258.458 520.14 258.338L520.046 258.271L510.357 252.101C506.978 252.595 504.527 252.595 503.003 252.101C501.545 251.629 500.785 250.989 500.721 250.181L500.717 250.07Z" fill="#380085"/>
<path d="M494.215 284.592L494.594 284.666C495.559 284.854 496.494 284.223 496.682 283.257C496.861 282.334 496.292 281.439 495.397 281.198L495.273 281.169L494.466 281.012C494.516 282.211 494.431 283.412 494.215 284.592Z" fill="#733DFF"/>
<path d="M493.372 288.349L493.208 288.753C492.942 289.626 492.69 290.472 492.455 291.29C494.69 292.074 497.059 292.607 499.561 292.889C503.49 293.331 508.774 293.267 515.412 292.699L515.372 291.902L515.365 291.74C515.336 291.008 515.321 290.292 515.321 289.59L514.942 289.628C514.882 289.633 514.823 289.638 514.765 289.643C508.652 290.139 503.481 289.952 500.046 289.643C497.759 289.437 495.535 289.006 493.372 288.349Z" fill="#733DFF"/>
<path d="M515.769 282.403L512.558 282.405C511.575 282.405 510.777 283.202 510.777 284.186C510.777 285.128 511.51 285.9 512.436 285.962L512.558 285.967L515.4 285.966C515.473 284.725 515.596 283.538 515.769 282.403Z" fill="#733DFF"/>
<path d="M498.668 250.461L494.957 251.168C494.742 255.773 497.344 258.782 502.569 259.673C507.878 260.579 512.288 259.14 515.596 255.436L512.542 253.494C510.097 255.99 506.995 256.918 503.168 256.162C500.578 255.651 498.403 253.877 498.668 250.461Z" fill="#733DFF"/>
<path d="M493.556 263.213L487.925 274.865C488.143 274.754 488.349 274.613 488.538 274.443L488.66 274.326L493.557 269.254L493.556 263.213Z" fill="black" fill-opacity="0.275213"/>
<path d="M526.656 268.365L524.814 270.151L527.63 278.214L526.656 268.365Z" fill="black" fill-opacity="0.275213"/>
<path d="M515.577 269.375C515.442 269.432 515.354 269.565 515.356 269.711L515.484 281.819C515.487 282.088 515.587 282.332 515.752 282.52C516.117 280.071 516.714 277.869 517.543 275.913L517.724 275.497L520.106 279.324L516.048 269.569C515.971 269.386 515.761 269.299 515.577 269.375Z" fill="black" fill-opacity="0.275213"/>
<path d="M516.531 234.227C517.004 235.43 516.105 237.315 515.71 239.294C515.48 240.447 515.782 241.393 515.71 241.692C515.671 241.854 514.291 241.344 514.071 240.723C513.804 239.966 514.31 238.078 514.071 238.065C511.482 237.921 512.706 242.527 507.614 247.52C505.858 249.242 500.968 248.165 500.968 248.165C500.968 248.165 498.293 244.412 498.023 240.535C497.383 231.361 506.33 228.925 507.928 230.879C511.031 228.689 515.378 231.293 516.531 234.227Z" fill="#0D134E"/>
<path d="M499.409 236.189H499.884C501.195 236.189 502.258 237.252 502.258 238.563C502.258 239.875 501.195 240.938 499.884 240.938H499.409V236.189Z" fill="#5C66C0"/>
<path d="M500.53 239.792C497.848 241.217 496.106 244.002 496.805 246.958C497.07 248.079 497.45 249.329 497.991 250.639C499.91 255.278 496.943 265.702 496.943 265.702C496.943 265.702 495.241 258.693 493.297 256.597C491.354 254.501 490.303 252.352 489.394 248.893C489.142 247.933 488.909 245.739 488.703 243.07C488.208 236.653 495.789 233.098 500.58 237.395C500.58 237.395 501.34 237.677 501.34 238.578C501.34 239.478 500.53 239.792 500.53 239.792Z" fill="#0D134E"/>
<path d="M542.255 165.352C541.87 165.134 541.398 165.132 541.011 165.349L539.136 166.399L533.391 231.795C533.35 232.26 533.569 232.71 533.96 232.966L575.777 260.33L578.04 258.987C578.381 258.784 578.607 258.434 578.652 258.04L586.236 191.17C586.294 190.666 586.044 190.175 585.602 189.925L542.255 165.352Z" fill="#733DFF"/>
<path d="M555.284 226.456L573.544 331.285" stroke="#512BB5" stroke-width="4.4" stroke-linecap="round"/>
<path d="M554.557 225.708L532.857 308.81" stroke="#512BB5" stroke-width="4.4" stroke-linecap="round"/>
<path d="M553.347 231.172L586.331 300.003" stroke="#512BB5" stroke-width="4.4" stroke-linecap="round"/>
<path d="M540.191 166.931C539.597 166.588 538.847 166.968 538.771 167.65L531.406 234.086C531.365 234.461 531.55 234.826 531.877 235.014L574.887 259.74C575.481 260.081 576.231 259.701 576.306 259.02L583.601 192.675C583.642 192.301 583.458 191.937 583.132 191.749L540.191 166.931Z" fill="#F8FCFF" stroke="#D0D4FF" stroke-width="0.6336"/>
<path d="M568.809 227.135C568.931 226.216 568.487 225.315 567.684 224.852L544.062 211.261C543.434 210.9 542.641 211.292 542.546 212.011L540.302 229.116C540.181 230.034 540.627 230.935 541.431 231.395L565.019 244.905C565.646 245.264 566.437 244.873 566.533 244.157L568.809 227.135Z" fill="#9286FF" fill-opacity="0.193018" stroke="#B399FF" stroke-width="0.5"/>
<path d="M562.056 238.371V238.351L562.06 238.331L563.73 228.06C563.72 227.745 563.461 227.492 563.143 227.492C562.819 227.492 562.556 227.755 562.556 228.079V228.099L562.553 228.119L560.883 238.39C560.892 238.705 561.151 238.958 561.469 238.958C561.793 238.958 562.056 238.695 562.056 238.371Z" fill="#ED7F3F" stroke="#FF623F" stroke-width="0.5"/>
<path d="M558.708 236.697V236.679L558.711 236.66L559.766 229.648C559.757 229.332 559.498 229.078 559.179 229.078C558.997 229.078 558.92 229.119 558.858 229.187C558.776 229.276 558.699 229.433 558.586 229.729L557.535 236.714C557.544 237.031 557.803 237.284 558.121 237.284C558.446 237.284 558.708 237.022 558.708 236.697Z" fill="#ED7F3F" stroke="#FF623F" stroke-width="0.5"/>
<path d="M555.36 235.023V235.001L555.364 234.98L556.875 226.525C556.864 226.21 556.606 225.958 556.288 225.958C556.118 225.958 555.977 226.014 555.862 226.12C555.745 226.228 555.642 226.4 555.576 226.651L554.187 235.042C554.197 235.358 554.456 235.61 554.773 235.61C555.098 235.61 555.36 235.348 555.36 235.023Z" fill="#ED7F3F" stroke="#FF623F" stroke-width="0.5"/>
<path d="M545.317 228.328V228.307L545.32 228.288L546.673 219.943C546.663 219.628 546.404 219.375 546.086 219.375C545.762 219.375 545.499 219.638 545.499 219.962V219.982L545.496 220.002L544.143 228.346C544.153 228.662 544.412 228.915 544.73 228.915C545.054 228.915 545.317 228.652 545.317 228.328Z" fill="#ED7F3F" stroke="#FF623F" stroke-width="0.5"/>
<path d="M548.672 229.935L549.824 222.938C549.821 222.762 549.768 222.622 549.69 222.529C549.614 222.437 549.503 222.377 549.344 222.377C549.138 222.377 549.038 222.409 548.959 222.476C548.868 222.552 548.769 222.702 548.643 223.024L547.491 230.021C547.494 230.213 547.535 230.34 547.593 230.414C547.643 230.48 547.727 230.534 547.894 230.534C548.103 230.534 548.235 230.503 548.341 230.43C548.446 230.357 548.558 230.219 548.672 229.935Z" fill="#ED7F3F" stroke="#FF623F" stroke-width="0.5"/>
<path d="M552.012 232.512V232.488L552.017 232.464L553.867 223.181C553.855 222.867 553.597 222.617 553.28 222.617C552.956 222.617 552.693 222.879 552.693 223.204V223.228L552.688 223.253L550.839 232.535C550.851 232.849 551.109 233.099 551.425 233.099C551.75 233.099 552.012 232.837 552.012 232.512Z" fill="#ED7F3F" stroke="#FF623F" stroke-width="0.5"/>
<path d="M573.071 201.173C573.194 200.255 572.749 199.353 571.946 198.89L548.324 185.3C547.696 184.938 546.903 185.331 546.809 186.049L544.564 203.154C544.443 204.072 544.889 204.973 545.693 205.433L569.281 218.943C569.908 219.302 570.699 218.912 570.795 218.195L573.071 201.173Z" fill="#9286FF" fill-opacity="0.193018" stroke="#B399FF" stroke-width="0.5"/>
<path d="M559.868 206.665C560.03 208.211 560.657 209.551 561.528 210.47C562.399 211.388 563.502 211.876 564.632 211.757C565.762 211.638 566.74 210.932 567.401 209.853C568.062 208.773 568.396 207.332 568.234 205.785C568.071 204.239 567.444 202.899 566.573 201.98C565.703 201.062 564.599 200.574 563.469 200.693C562.339 200.812 561.361 201.518 560.701 202.598C560.04 203.677 559.705 205.118 559.868 206.665Z" fill="#ED7F3F" stroke="#FF623F" stroke-width="0.5"/>
<path d="M551.47 195.959C552.041 197.37 553.372 198.055 554.389 197.644C555.406 197.234 555.888 195.815 555.318 194.404C554.748 192.993 553.416 192.308 552.399 192.719C551.382 193.13 550.9 194.548 551.47 195.959Z" fill="#9286FF" fill-opacity="0.193018" stroke="#B399FF" stroke-width="0.5"/>
<path d="M554.888 204.508C555.22 205.331 555.957 205.687 556.473 205.479C556.988 205.271 557.271 204.502 556.939 203.68C556.607 202.857 555.869 202.501 555.354 202.709C554.838 202.917 554.555 203.686 554.888 204.508Z" fill="#9286FF" fill-opacity="0.193018" stroke="#B399FF" stroke-width="0.5"/>
<path d="M549.075 201.408C549.407 202.231 550.145 202.587 550.66 202.379C551.176 202.171 551.459 201.402 551.126 200.58C550.794 199.757 550.057 199.401 549.541 199.609C549.025 199.817 548.743 200.586 549.075 201.408Z" fill="#FF623F" stroke="#F8458D" stroke-width="0.5"/>
<mask id="path-290-inside-2" fill="white">
<path d="M554.116 197.883L555.284 202.519L554.116 197.883Z"/>
</mask>
<path d="M554.116 197.883L555.284 202.519L554.116 197.883Z" fill="#9286FF" fill-opacity="0.193018"/>
<path d="M554.601 197.761L555.769 202.397L554.799 202.641L553.631 198.005L554.601 197.761Z" fill="#B399FF" mask="url(#path-290-inside-2)"/>
<mask id="path-292-inside-3" fill="white">
<path d="M551.355 201.733L554.568 203.858L551.355 201.733Z"/>
</mask>
<path d="M551.355 201.733L554.568 203.858L551.355 201.733Z" fill="#9286FF" fill-opacity="0.193018"/>
<path d="M551.631 201.316L554.844 203.441L554.292 204.275L551.079 202.15L551.631 201.316Z" fill="#B399FF" mask="url(#path-292-inside-3)"/>
<path d="M567.161 255.54L564.414 256.561L538.843 242.137L539.621 237.577C539.724 236.975 540.394 236.658 540.924 236.96L565.056 250.716C565.36 250.889 565.533 251.227 565.495 251.575L565.181 254.469L567.161 255.54Z" fill="#733DFF"/>
<path d="M553.224 169.489C553.15 169.448 553.06 169.448 552.984 169.487L549.902 171.111L550.37 175.982C550.378 176.065 550.426 176.138 550.498 176.179L569.761 187.017L570.699 186.501V184.046L573.034 182.859L573.034 180.453C573.034 180.36 572.983 180.275 572.902 180.23L553.224 169.489Z" fill="#512BB5"/>
<path d="M550.277 171.313C550.108 171.222 549.903 171.345 549.904 171.537L549.918 176.273C549.918 176.366 549.97 176.452 550.052 176.496L569.512 186.945C569.681 187.036 569.886 186.913 569.885 186.72L569.858 182.004C569.857 181.911 569.806 181.826 569.725 181.782L550.277 171.313Z" fill="#733DFF"/>
<path d="M81 468.4V487L80.9845 487C80.4832 496.663 67.9221 504.4 52.5 504.4C37.0779 504.4 24.5168 496.663 24.0155 487L24 487V468.4H81Z" fill="#F8FCFF"/>
<path d="M81 468.4V487L80.9845 487C80.5711 494.969 71.9571 501.627 60.3005 503.717L59.442 468.4H81Z" fill="#D6D9FB"/>
<path d="M52.5 487C68.2401 487 81 478.941 81 469C81 459.059 68.2401 451 52.5 451C36.7599 451 24 459.059 24 469C24 478.941 36.7599 487 52.5 487Z" fill="#D6D9FB"/>
<path d="M52.2 481C63.4667 481 72.6 475.224 72.6 468.1C72.6 460.975 63.4667 455.2 52.2 455.2C40.9334 455.2 31.8 460.975 31.8 468.1C31.8 475.224 40.9334 481 52.2 481Z" fill="#1B215B"/>
<path d="M51.5 468.5C51.5 468.5 51.8015 450.002 47.0368 425.455C42.272 400.908 34.8943 386.595 34.8943 386.595C34.8943 386.595 41.8913 419.93 43.2061 428.882C44.521 437.834 48.3064 468.4 48.3064 468.4L51.5 468.5Z" fill="#733DFF"/>
<path d="M44.999 416.249L44.9668 415.792C45.6936 418.869 46.3836 422.09 47.0368 425.455C50.1377 441.43 51.6293 455.483 51.5115 467.616L51.5 468.5L49.7116 468.445L49.5744 467.665C48.7464 462.768 47.8356 453.986 46.842 441.319L46.278 433.895C45.9982 430.142 45.7035 426.107 45.3939 421.791L44.9668 415.792L44.999 416.249Z" fill="black" fill-opacity="0.275213"/>
<path d="M56.2399 468C56.2399 468 55.2726 464.678 58.2059 450.143C61.1391 435.609 64 431 64 431C64 431 62.155 439.241 61.3456 444.542C60.5362 449.842 58.2059 467.941 58.2059 467.941L56.2399 468Z" fill="#733DFF"/>
<path d="M57.159 467.971L56.2399 468C55.595 465.785 56.2504 459.833 58.2059 450.143L58.5127 448.649C59.2793 444.981 60.0423 441.823 60.8015 439.175L59.2906 450.932C58.662 455.895 57.9515 461.574 57.159 467.971Z" fill="black" fill-opacity="0.275213"/>
<path d="M52.9123 468.5C52.9123 468.5 51.3411 462.889 56.1058 438.342C60.8706 413.795 65.5179 406.012 65.5179 406.012C65.5179 406.012 62.521 419.93 61.2061 428.882C59.8913 437.834 56.1058 468.4 56.1058 468.4L52.9123 468.5Z" fill="#733DFF"/>
<path d="M47.7602 468C47.7602 468 48.7274 464.678 45.7942 450.143C42.8609 435.609 37.6765 422.199 37.6765 422.199C37.6765 422.199 41.845 439.241 42.6544 444.542C43.4638 449.842 45.7942 467.941 45.7942 467.941L47.7602 468Z" fill="#733DFF"/>
<path d="M49.9123 468.5C49.9123 468.5 50.6107 429.002 55.3755 404.455C60.1403 379.908 67.5179 365.595 67.5179 365.595C67.5179 365.595 60.521 398.93 59.2061 407.882C57.8913 416.834 53.1058 468.4 53.1058 468.4L49.9123 468.5Z" fill="#733DFF"/>
<path d="M54.1681 438.142L54.2 438.44C54.5567 441.828 54.7855 445.49 54.8863 449.429L54.0308 458.486C53.7341 461.648 53.4258 464.952 53.1059 468.4L51.7116 468.445L51.6066 467.853C51.1669 465.3 50.7038 461.646 50.2172 456.89C50.6314 445.137 51.3497 434.503 52.3718 424.986L52.9596 428.958C53.524 432.854 53.9269 435.915 54.1681 438.142Z" fill="black" fill-opacity="0.275213"/>
<path d="M50.817 469C50.817 469 49.3892 461.734 47.6199 438.44C45.8505 415.146 43.2062 375.399 43.2062 375.399C43.2062 375.399 51.8774 425.88 53.2 438.44C54.5227 451 53.5 468.606 53.5 468.606L50.817 469Z" fill="#733DFF"/>
<path d="M72.1 354.1C72.1 357.43 69.9642 360.519 66.3578 362.799C62.7577 365.076 57.7535 366.5 52.2 366.5C46.6466 366.5 41.6424 365.076 38.0423 362.799C34.4359 360.519 32.3 357.43 32.3 354.1C32.3 350.769 34.4359 347.681 38.0423 345.401C41.6424 343.124 46.6466 341.7 52.2 341.7C57.7535 341.7 62.7577 343.124 66.3578 345.401C69.9642 347.681 72.1 350.769 72.1 354.1Z" fill="#9286FF" fill-opacity="0.193018" stroke="#ECEAFE"/>
<path d="M52.2 340.5C58.3494 340.5 63.9 342.058 67.9245 344.559C71.9545 347.062 74.3933 350.465 74.4966 354.154C74.4966 354.155 74.4967 354.157 74.4967 354.158L74.5 354.4V354.404V468.6C74.4144 472.299 71.9819 475.713 67.9504 478.225C63.9236 480.735 58.3624 482.3 52.2 482.3C46.1177 482.3 40.6207 480.776 36.6071 478.322C32.5914 475.868 30.1203 472.528 29.9141 468.897L29.9 354.403L29.9035 354.154C30.0067 350.465 32.4455 347.063 36.4755 344.559C40.5 342.058 46.0507 340.5 52.2 340.5Z" fill="#9286FF" fill-opacity="0.193018" stroke="#ECEAFE"/>
<defs>
<linearGradient id="paint0_linear" x1="338.801" y1="421.495" x2="259.735" y2="426.838" gradientUnits="userSpaceOnUse">
<stop stop-color="#F5F6F9"/>
<stop offset="1" stop-color="#E4E7EC"/>
</linearGradient>
<linearGradient id="paint1_linear" x1="281.812" y1="454.739" x2="202.746" y2="460.082" gradientUnits="userSpaceOnUse">
<stop stop-color="#F5F6F9"/>
<stop offset="1" stop-color="#E4E7EC"/>
</linearGradient>
<linearGradient id="paint2_linear" x1="251.913" y1="458.341" x2="212.225" y2="460.258" gradientUnits="userSpaceOnUse">
<stop stop-color="#F5F6F9"/>
<stop offset="1" stop-color="#E4E7EC"/>
</linearGradient>
<linearGradient id="paint3_linear" x1="395.79" y1="454.739" x2="316.724" y2="460.082" gradientUnits="userSpaceOnUse">
<stop stop-color="#F5F6F9"/>
<stop offset="1" stop-color="#E4E7EC"/>
</linearGradient>
<linearGradient id="paint4_linear" x1="338.801" y1="487.983" x2="259.735" y2="493.326" gradientUnits="userSpaceOnUse">
<stop stop-color="#F5F6F9"/>
<stop offset="1" stop-color="#E4E7EC"/>
</linearGradient>
<linearGradient id="paint5_linear" x1="308.902" y1="491.585" x2="269.214" y2="493.502" gradientUnits="userSpaceOnUse">
<stop stop-color="#F5F6F9"/>
<stop offset="1" stop-color="#E4E7EC"/>
</linearGradient>
</defs>
</svg>
