<svg width="1364" height="739" viewBox="0 0 1364 739" fill="none" xmlns="http://www.w3.org/2000/svg">
<path d="M208 0.567871V194.484C208 195.274 207.535 195.991 206.813 196.312L104.16 241.964C102.838 242.552 101.348 241.584 101.348 240.137V162.501C101.348 161.066 99.8817 160.098 98.5622 160.662L-18 210.445" stroke="#CCCCCC" stroke-opacity="0.5"/>
<circle r="5.22504" transform="matrix(1 0 0 -1 1336.77 496.225)" fill="#CCCCCC" fill-opacity="0.3"/>
<path opacity="0.4" d="M1304 738.002V665.809C1304 665.021 1304.46 664.307 1305.18 663.985L1335.43 650.404C1336.14 650.081 1336.61 649.367 1336.61 648.579V502.4" stroke="#CCCCCC"/>
<circle cx="1013.53" cy="95.2385" r="7.53077" transform="rotate(90 1013.53 95.2385)" fill="#CCCCCC" fill-opacity="0.3"/>
<path opacity="0.4" d="M1362 48L1257.38 48C1256.59 48 1255.88 48.4623 1255.56 49.1808L1235.51 93.8184C1235.19 94.5369 1234.48 94.9992 1233.69 94.9992L1022.43 94.9992" stroke="#CCCCCC"/>
<path d="M291.5 341L-3 501.182V737H1378L828.5 555.054L291.5 341Z" fill="url(#paint0_linear)" fill-opacity="0.2"/>
<path d="M331.351 711.016L352.925 716.705L518.528 620.688L349.996 571.577L282.601 607.484L331.351 711.016Z" fill="black" fill-opacity="0.130299"/>
<path d="M469.12 486.6L490 498.5L511.5 513.5L550.12 538.231L588.5 561.5L592 524L624.5 518.746L494.829 446.24L469.12 486.6Z" fill="black" fill-opacity="0.130299"/>
<path d="M12.6257 516.21L26.9454 525.718L60.4979 530.651L199.832 464.468L226.702 458.458L246.042 485.656L310.391 466.137L245.935 428.639L305.126 396.496L391.238 448.035L429.468 442.361L442.828 431.833L456.825 417.446L286.406 363.286L12.6257 504.62V516.21Z" fill="black" fill-opacity="0.130299"/>
<path d="M199.832 633.504C211.416 633.504 220.807 628.188 220.807 621.631C220.807 615.074 211.416 609.758 199.832 609.758C188.248 609.758 178.857 615.074 178.857 621.631C178.857 628.188 188.248 633.504 199.832 633.504Z" fill="black" fill-opacity="0.130299"/>
<path d="M63.6171 705.588C73.9117 692.913 71.0566 673.54 57.24 662.319C43.4235 651.097 23.8775 652.275 13.583 664.95C3.28838 677.625 15.6266 694.366 29.4432 705.588C43.2597 716.809 53.3226 718.263 63.6171 705.588Z" fill="black" fill-opacity="0.130299"/>
<path d="M510.807 586.971C519.987 586.971 527.429 582.718 527.429 577.472C527.429 572.227 519.987 567.974 510.807 567.974C501.627 567.974 494.185 572.227 494.185 577.472C494.185 582.718 501.627 586.971 510.807 586.971Z" fill="black" fill-opacity="0.130299"/>
<path d="M393.358 566.225C402.538 566.225 409.98 561.972 409.98 556.727C409.98 551.481 402.538 547.228 393.358 547.228C384.178 547.228 376.736 551.481 376.736 556.727C376.736 561.972 384.178 566.225 393.358 566.225Z" fill="black" fill-opacity="0.130299"/>
<path d="M183.91 516.539C183.91 516.539 189.45 522.41 190.034 524.753C190.618 527.096 189.436 543.36 188.641 547.232C187.847 551.103 185.752 555.089 185.752 563.148C185.752 571.208 184.857 590.014 184.857 592.065C184.857 594.115 182.357 610.118 182.94 611.766C183.238 612.606 185.228 614.52 187.093 615.026C188.888 615.513 190.563 614.616 190.766 614.206C191.18 613.371 192.352 612.569 192.792 610.657C193.232 608.745 197.702 592.712 198.311 589.291C198.919 585.871 200.466 572.808 200.466 572.808C200.466 572.808 200.846 575.423 200.955 577.702C201.143 581.611 201.57 583.394 201.538 583.774C201.464 584.676 200.466 587.822 200.466 593.442C200.466 597.42 201.174 601.689 201.201 603.87C201.212 604.77 201.764 605.59 201.891 605.863C202.323 606.8 200.689 612.486 201.891 613.756C203.092 615.026 205.134 613.364 207.26 615.026C209.386 616.688 211.825 618.897 214.108 618.46C216.39 618.023 216.703 615.161 214.259 612.909C211.814 610.657 207.26 607.78 207.26 606.944C207.26 606.108 208.477 605.594 208.477 603.87C208.477 602.145 210.909 587.613 210.909 581.717C210.909 575.821 212.197 544.05 212.122 540.602C212.046 537.154 210.909 530.262 210.909 527.583C210.909 524.904 211.379 522.547 211.379 522.547C211.379 522.547 213.058 531.025 213.986 532.858C214.915 534.692 222.407 543.835 222.407 543.835L225.79 541.441C225.79 541.441 220.158 529.504 219.79 528.548C219.422 527.592 214.206 507.442 211.971 506.444C209.389 505.292 205.104 504.473 196.37 508.243C187.394 512.119 183.91 516.539 183.91 516.539Z" fill="#380085"/>
<path d="M210.083 550.93L211.85 551.197L211.121 572.914C211.007 576.583 210.925 579.599 210.911 581.26L210.909 581.717C210.909 587.613 208.477 602.145 208.477 603.87C208.477 605.594 207.26 606.108 207.26 606.944C207.26 607.176 207.611 607.565 208.17 608.054L206.987 608.054L207.882 596.527C208.399 590.036 208.733 586.254 208.883 585.181L208.936 584.848C209.082 583.704 209.334 577.018 209.694 564.789L210.083 550.93Z" fill="black" fill-opacity="0.275213"/>
<path d="M201.064 565.544L202.65 582.186L199.741 595.077L199.751 594.618L199.754 594.154C199.754 588.535 201.464 584.676 201.538 583.774L201.54 583.705C201.527 583.233 201.175 581.601 200.986 578.286L200.955 577.702C200.882 576.182 200.719 574.551 200.466 572.808L199.787 578.444C199.129 583.804 198.644 587.377 198.333 589.164L198.311 589.291C197.702 592.712 193.232 608.745 192.792 610.657C192.352 612.569 191.18 613.371 190.766 614.206C190.712 614.316 190.679 614.471 190.662 614.661C190.489 613.453 190.569 611.985 190.901 610.258C192.186 603.578 196.39 592.194 197.05 583.736L197.086 583.211C197.433 577.541 198.759 571.652 201.064 565.544Z" fill="black" fill-opacity="0.275213"/>
<path d="M211.94 519.292L212.15 520.252C213.487 526.233 214.964 530.423 216.581 532.822L219.408 537.041C220.579 538.796 221.923 540.817 223.439 543.104L222.407 543.835L220.169 541.085C216.567 536.626 214.506 533.884 213.987 532.858C213.384 531.668 212.543 528.376 211.466 522.982L211.528 522.368C211.618 521.558 211.755 520.532 211.94 519.292Z" fill="black" fill-opacity="0.275213"/>
<path d="M190.08 529.962L191.581 524.353L191.769 525.172C193.247 531.485 194.764 535.329 196.321 536.706L196.57 536.919C199.561 539.409 212.327 548.215 209.328 551.33C207.396 553.337 200.229 552.482 187.826 548.765C187.948 548.088 188.071 547.45 188.19 546.849L188.451 545.559C188.993 542.918 189.804 535.289 190.08 529.962Z" fill="black" fill-opacity="0.275213"/>
<path d="M225.767 541.394L225.79 541.441C227.727 541.518 228.793 541.824 228.988 542.361L229.007 542.426C229.203 543.292 231.374 545.837 230.745 545.837C230.346 545.837 229.576 545.346 228.434 544.366L228.251 544.207L230.657 548.832L230.845 549.626C231.122 550.832 231.214 551.459 231.122 551.506C230.992 551.572 230.543 550.939 229.773 549.607L229.671 549.429L228.088 547.317L228.35 548.099C229.315 551.018 229.654 552.477 229.367 552.477C229.056 552.477 228.248 550.96 226.945 547.927L227.173 548.979C227.748 551.706 227.896 553.07 227.617 553.07C227.304 553.07 226.695 551.637 225.79 548.77L225.871 549.539C226.106 551.893 226.079 553.07 225.79 553.07C225.326 553.07 225.186 550.555 224.392 548.921L224.316 548.77C223.742 547.687 223.105 546.042 222.407 543.835L222.248 543.641C222.83 542.881 223.381 542.332 223.9 541.996C224.304 541.734 224.926 541.534 225.767 541.394Z" fill="#FFAF8A"/>
<path d="M226.945 546.037C226.694 546.757 225.955 547.997 224.727 549.757C224.61 549.409 224.476 549.071 224.316 548.77C223.742 547.687 223.105 546.042 222.407 543.835L222.248 543.641C222.83 542.881 223.381 542.332 223.9 541.996C223.992 541.936 224.097 541.879 224.212 541.826C226.294 543.888 227.204 545.292 226.945 546.037Z" fill="black" fill-opacity="0.175153"/>
<path d="M186.926 614.73C187.605 614.981 188.667 614.992 190.11 614.763C190.059 614.841 190.014 614.919 189.975 614.998C189.575 615.804 190.333 619.019 190.013 620.783L189.975 620.966C189.561 622.68 189.975 625.494 189.975 629.208C189.975 632.922 185.649 632.332 183.732 630.724C181.815 629.116 182.327 620.889 182.766 619.251L183.203 617.68C183.645 616.046 184.116 613.989 183.788 612.742L184.248 613.077C185.508 613.985 186.401 614.536 186.926 614.73Z" fill="#733DFF"/>
<path d="M190.11 614.763C190.059 614.841 190.013 614.919 189.975 614.998C189.575 615.804 190.333 619.019 190.013 620.783L189.975 620.966C189.561 622.68 189.975 625.494 189.975 629.208C189.975 629.904 189.823 630.449 189.563 630.864L189.417 629.952C188.737 625.622 188.489 622.414 188.672 620.326C188.853 618.27 189.146 616.442 189.551 614.842C189.731 614.82 189.917 614.794 190.11 614.763Z" fill="black" fill-opacity="0.275213"/>
<path d="M204.932 606.873C205.656 606.967 206.439 606.925 207.283 606.747C207.268 606.811 207.26 606.876 207.26 606.944C207.26 607.78 211.814 610.657 214.259 612.909C216.703 615.161 216.39 618.023 214.108 618.46C211.825 618.897 209.387 616.688 207.26 615.026C205.134 613.364 203.092 615.026 201.891 613.756C200.738 612.538 202.194 607.258 201.934 606.001C202.925 606.453 203.924 606.743 204.932 606.873Z" fill="#733DFF"/>
<path d="M207.283 606.747C207.268 606.811 207.26 606.876 207.26 606.944C207.26 607.78 211.814 610.657 214.259 612.909C215.152 613.732 215.677 614.636 215.872 615.474L215.882 615.52L212.523 613.15C209.306 610.868 207.46 609.513 206.987 609.085C206.418 608.572 206.295 607.83 206.617 606.861C206.834 606.833 207.057 606.795 207.283 606.747Z" fill="black" fill-opacity="0.275213"/>
<path d="M209.943 534.601L211.427 533.298L211.663 535.304C211.765 536.195 211.862 537.073 211.94 537.896L210.206 538.781C210.043 538.864 209.862 538.908 209.679 538.908C209.038 538.908 208.518 538.388 208.518 537.748C208.518 536.614 208.978 535.531 209.787 534.745L209.943 534.601Z" fill="#733DFF"/>
<path d="M208.059 505.479C209.13 507.707 209.267 508.383 209.267 508.762C209.267 509.648 206.449 511.537 206.045 511.062C205.855 510.838 203.51 506.677 202.973 506.057C204.779 505.608 206.576 505.376 208.059 505.479Z" fill="#733DFF"/>
<path d="M191.858 510.497L192.763 509.983L193.227 510.616C193.708 511.28 194.07 511.81 194.314 512.208L194.384 512.323C195.912 514.901 195.609 515.081 195.609 515.492C195.609 516.378 192.332 518.268 191.863 517.792L191.833 517.758C191.671 517.545 191.879 517.274 190.161 514.977C189.785 514.474 189.074 513.728 188.029 512.738C189.248 512.001 190.571 511.232 191.858 510.497Z" fill="#733DFF"/>
<path d="M203.378 546.037L203.756 546.028L203.275 526.813L203.058 526.852C200.722 527.275 199.023 526.814 197.935 525.482C196.819 524.116 195.075 520.237 194.135 516.701L193.77 516.798C194.722 520.382 196.485 524.304 197.643 525.721C198.792 527.128 200.556 527.638 202.908 527.261L203.378 546.037Z" fill="#733DFF"/>
<path d="M207.424 510.06C208.017 515.556 208.017 519.355 207.43 521.443C206.848 523.513 205.371 525.325 202.989 526.88L203.195 527.196C205.649 525.594 207.185 523.71 207.794 521.545C208.398 519.397 208.398 515.561 207.8 510.019L207.424 510.06Z" fill="#733DFF"/>
<path d="M196.37 508.244C201.842 505.881 205.568 505.32 208.223 505.514C209.349 506.269 210.083 507.214 210.083 508.244C210.083 510.746 205.75 512.804 201.997 512.804C198.482 512.804 195.591 511.026 195.237 508.745C195.607 508.577 195.985 508.41 196.37 508.244Z" fill="black" fill-opacity="0.275213"/>
<path d="M190.436 542.751C190.436 542.751 198.479 546.374 203.567 544.839C208.655 543.303 212.122 540.092 212.122 540.092V542.751C212.122 542.751 208.378 546.096 203.567 547.585C198.756 549.074 190.081 544.914 190.081 544.914L190.436 542.751Z" fill="#733DFF"/>
<path d="M208.753 549.553L207.945 553.631C207.945 553.631 187.408 544.701 186.284 542.548C185.161 540.395 181.535 518.254 183.91 516.539C186.284 514.824 190.908 520.236 191.581 522.936C192.253 525.635 191.807 536.428 192.919 537.05C194.031 537.671 208.753 549.553 208.753 549.553Z" fill="#380085"/>
<path d="M220.246 539.589C220.111 539.634 220.005 539.74 219.96 539.876L214.677 555.923C214.418 556.711 215.175 557.454 215.957 557.18L226.284 553.569C226.418 553.523 226.522 553.416 226.564 553.282L231.928 536.479C232.039 536.129 231.707 535.8 231.358 535.915L220.246 539.589Z" fill="#733DFF"/>
<path d="M231.886 536.359C232.03 536.407 232.123 536.539 232.129 536.682L226.576 553.257C226.535 553.379 226.432 553.468 226.308 553.493L226.245 553.5L215.556 557.412C215.163 557.555 214.778 557.181 214.91 556.784L220.358 540.414C220.402 540.281 220.52 540.189 220.656 540.174L220.724 540.173L231.802 536.342C231.831 536.344 231.859 536.35 231.886 536.359Z" fill="#F8FCFF"/>
<path fill-rule="evenodd" clip-rule="evenodd" d="M229.894 538.241C229.94 538.113 230.041 538.013 230.17 537.969L230.363 537.902C230.72 537.779 231.061 538.124 230.933 538.48L230.421 539.899C230.375 540.027 230.273 540.127 230.145 540.172L229.952 540.238C229.594 540.362 229.254 540.016 229.382 539.661L229.894 538.241Z" fill="#ABBBD9"/>
<path d="M229.723 538.192C229.769 538.064 229.871 537.964 230 537.92L230.193 537.853C230.55 537.73 230.891 538.075 230.763 538.431L230.251 539.85C230.204 539.978 230.103 540.078 229.974 540.123L229.781 540.19C229.424 540.313 229.083 539.967 229.211 539.612L229.723 538.192Z" fill="#733DFF"/>
<path fill-rule="evenodd" clip-rule="evenodd" d="M230.159 538.914C230.348 538.968 230.548 538.849 230.606 538.647C230.664 538.445 230.557 538.238 230.368 538.184C230.179 538.13 229.979 538.249 229.921 538.451C229.863 538.652 229.97 538.86 230.159 538.914Z" fill="black"/>
<path fill-rule="evenodd" clip-rule="evenodd" d="M229.871 539.918C230.06 539.972 230.26 539.853 230.318 539.651C230.376 539.449 230.27 539.242 230.08 539.188C229.891 539.133 229.691 539.253 229.633 539.455C229.576 539.656 229.682 539.864 229.871 539.918Z" fill="black"/>
<path d="M217.079 548.817C217.079 549.553 214.187 550.288 214.602 550.625L214.677 550.679C215.073 550.943 216.373 551.567 218.578 552.55C220.532 553.025 221.509 553.456 221.509 553.845C221.509 554.233 220.455 554.233 218.346 553.845L217.458 553.651C218.421 554.184 219.035 554.451 219.299 554.451L219.44 554.454C219.961 554.476 221.153 554.615 221.153 555.088C221.153 555.612 219.261 555.982 218.346 555.782C217.736 555.648 217.116 555.508 216.487 555.361C217.234 555.972 217.931 556.278 218.578 556.278L219.123 556.28C219.827 556.293 220.336 556.372 220.336 556.836C220.336 557.413 217.793 557.255 217.079 557.255C216.603 557.255 216.144 557.169 215.704 556.995L216.117 557.201C217.039 557.648 217.667 557.871 218.003 557.871L218.513 557.867C219.069 557.871 219.668 557.93 219.438 558.357C219.132 558.925 216.845 558.744 216.097 558.744C215.617 558.744 212.82 557.042 207.704 553.638C207.794 553.086 207.906 552.515 208.038 551.927C208.215 551.137 208.466 550.343 208.79 549.545L209.793 549.357C211.661 549.012 212.822 548.832 213.273 548.818L213.328 548.817C214.041 548.817 217.079 548.081 217.079 548.817Z" fill="#FFAF8A"/>
<path d="M192.2 492.337C192.2 495.53 194.16 501.259 194.16 502.918C194.16 504.577 194.16 509.824 194.16 509.824C194.16 509.824 197.744 512.803 200.725 510.878C203.707 508.952 202.504 505.692 202.504 505.692C202.504 505.692 204.515 505.548 205.635 503.973C206.755 502.398 206.158 491.617 206.158 491.617C206.158 491.617 204.2 488.415 200.725 488.595C197.25 488.774 192.2 489.144 192.2 492.337Z" fill="#FFAF8A"/>
<path d="M193.644 500.871C193.644 500.871 191.796 498.749 191.455 496.977C191.114 495.205 190.709 491.546 191.455 490.428C192.2 489.31 193.278 488.986 193.278 488.986C193.278 488.986 193.274 487.93 194.834 486.875C196.395 485.819 205.483 484.764 207.049 486.875C208.615 488.986 206.588 492.244 205.635 492.754C204.682 493.263 199.72 491.927 198.74 492.986C197.759 494.045 197.145 499.127 196.48 499.127C195.814 499.127 195.948 494.947 194.077 495.494C192.206 496.041 193.644 500.871 193.644 500.871Z" fill="#380085"/>
<path d="M202.504 505.692H198.496C198.496 505.692 199.264 506.92 200.374 508.028C201.485 509.136 202.504 509.428 202.504 509.428C202.504 509.428 202.863 508.246 202.863 507.56C202.863 506.874 202.504 505.692 202.504 505.692Z" fill="black" fill-opacity="0.175153"/>
<path fill-rule="evenodd" clip-rule="evenodd" d="M383.624 613.233C383.624 614.043 383.193 614.791 382.492 615.197L332.427 644.151C331.725 644.557 330.859 644.558 330.157 644.152L280.034 615.196C279.333 614.791 278.901 614.043 278.901 613.233V576.61C278.901 575.79 279.343 575.034 280.058 574.632L330.152 546.5C330.842 546.113 331.683 546.113 332.373 546.5L382.467 574.632C383.182 575.034 383.624 575.79 383.624 576.61V613.233Z" fill="url(#paint1_linear)"/>
<path d="M330.416 604.859L279.065 575.584C278.985 575.757 278.933 575.944 278.912 576.138L278.901 576.333V613.505C278.901 614.088 279.184 614.631 279.652 614.966L279.798 615.06L330.394 644.289C330.894 644.578 331.499 644.606 332.02 644.375L332.19 644.288L382.728 615.06C383.233 614.768 383.561 614.252 383.616 613.679L383.625 613.506V576.333C383.625 576.079 383.571 575.833 383.472 575.608L332.646 604.855C331.956 605.252 331.107 605.253 330.416 604.859L279.065 575.584L330.416 604.859Z" fill="#C8CBED"/>
<path d="M330.416 604.859L279.064 575.585C278.985 575.758 278.933 575.944 278.912 576.138L278.901 576.333V613.505C278.901 614.088 279.184 614.631 279.652 614.966L279.798 615.06L330.394 644.289C330.689 644.459 331.022 644.539 331.352 644.528L331.294 605.141C330.99 605.11 330.69 605.015 330.416 604.859L279.064 575.585L330.416 604.859Z" fill="#C8CBED"/>
<path d="M318.588 589.798C318.479 589.736 318.345 589.738 318.238 589.802L315.826 591.25C315.371 591.524 315.379 592.187 315.841 592.449L327.986 599.34C328.094 599.401 328.227 599.4 328.334 599.336L330.74 597.908C331.197 597.636 331.191 596.971 330.729 596.708L318.588 589.798Z" fill="#D6D9FB"/>
<path d="M315.964 592.519L317.737 591.455C318.107 591.232 318.559 591.203 318.951 591.368L319.096 591.439L330.603 597.988L328.298 599.358C328.234 599.395 328.159 599.405 328.09 599.388L328.022 599.36L315.964 592.519L317.737 591.455L315.964 592.519Z" fill="#733DFF"/>
<path d="M361.785 583.044C361.269 583.34 360.635 583.34 360.119 583.045L346.899 575.479C346.46 575.228 346.459 574.594 346.898 574.342L360.109 566.749C360.626 566.452 361.262 566.452 361.779 566.749L374.99 574.343C375.428 574.595 375.428 575.228 374.989 575.479L361.785 583.044Z" fill="#FF623F"/>
<path d="M375.197 574.462L361.606 566.65C361.242 566.441 360.804 566.418 360.423 566.58L360.284 566.65L346.692 574.462C346.613 574.508 346.546 574.574 346.501 574.654C346.376 574.871 346.427 575.141 346.608 575.3L346.693 575.361L349.001 576.681L360.707 570.225C360.87 570.135 361.063 570.12 361.235 570.181L361.336 570.226L372.912 576.67L375.197 575.362C375.25 575.331 375.297 575.292 375.336 575.245L375.388 575.17C375.513 574.953 375.463 574.683 375.283 574.523L375.197 574.462L361.606 566.65L375.197 574.462Z" fill="#D6D9FB"/>
<path fill-rule="evenodd" clip-rule="evenodd" d="M311.769 601.963C311.538 601.831 311.25 601.998 311.25 602.264V605.23C311.25 605.48 311.385 605.71 311.602 605.834L324.086 612.917C324.318 613.048 324.605 612.881 324.605 612.615V609.671C324.605 609.422 324.471 609.192 324.254 609.068L311.769 601.963Z" fill="white"/>
<path d="M312.247 602.235L324.327 609.11C324.47 609.191 324.567 609.331 324.596 609.49L324.605 609.587L324.604 612.156L312.526 605.335C312.383 605.254 312.285 605.114 312.256 604.954L312.247 604.857L312.247 602.235Z" fill="#959FFA"/>
<path fill-rule="evenodd" clip-rule="evenodd" d="M311.769 608.721C311.538 608.589 311.25 608.756 311.25 609.022V611.988C311.25 612.238 311.385 612.468 311.602 612.592L324.086 619.675C324.318 619.806 324.605 619.639 324.605 619.373V616.429C324.605 616.18 324.471 615.95 324.254 615.826L311.769 608.721Z" fill="white"/>
<path d="M312.247 608.993L324.327 615.868C324.47 615.949 324.567 616.089 324.596 616.248L324.605 616.345L324.604 618.914L312.526 612.093C312.383 612.012 312.285 611.872 312.256 611.712L312.247 611.615L312.247 608.993Z" fill="#959FFA"/>
<path d="M374.959 591.47C375.247 591.279 375.633 591.485 375.633 591.832V594.307C375.633 594.601 375.484 594.874 375.238 595.034L373.149 596.391C372.86 596.579 372.479 596.372 372.479 596.028V593.584C372.479 593.293 372.624 593.022 372.866 592.861L374.959 591.47Z" fill="#733DFF"/>
<path d="M374.96 597.327C375.248 597.136 375.633 597.342 375.633 597.688V600.164C375.633 600.458 375.485 600.731 375.238 600.891L373.149 602.248C372.861 602.436 372.479 602.229 372.479 601.885V599.44C372.479 599.15 372.624 598.879 372.866 598.718L374.96 597.327Z" fill="#FF623F"/>
<path d="M367.857 595.474C368.089 595.342 368.377 595.509 368.377 595.775V598.741C368.377 598.99 368.243 599.22 368.027 599.343L343.915 613.122C343.684 613.254 343.396 613.087 343.396 612.82V609.878C343.396 609.629 343.529 609.399 343.745 609.276L367.857 595.474Z" fill="#D6D9FB"/>
<path d="M367.38 595.748L343.672 609.317C343.53 609.399 343.433 609.539 343.404 609.697L343.396 609.794L343.396 612.359L367.102 598.845C367.245 598.763 367.342 598.623 367.371 598.465L367.38 598.368L367.38 595.748Z" fill="#733DFF"/>
<path d="M367.857 601.782C368.089 601.649 368.377 601.816 368.377 602.083V605.048C368.377 605.297 368.243 605.527 368.027 605.651L343.915 619.429C343.684 619.562 343.396 619.395 343.396 619.128V616.185C343.396 615.937 343.529 615.707 343.745 615.583L367.857 601.782Z" fill="#D6D9FB"/>
<path d="M367.38 602.056L343.672 615.625C343.53 615.706 343.433 615.846 343.404 616.005L343.396 616.102L343.396 618.667L367.102 605.152C367.245 605.071 367.342 604.931 367.371 604.772L367.38 604.675L367.38 602.056Z" fill="#FF623F"/>
<path fill-rule="evenodd" clip-rule="evenodd" d="M326.635 646.477C326.635 647.287 326.203 648.035 325.503 648.44L275.437 677.395C274.735 677.801 273.87 677.801 273.167 677.396L223.045 648.44C222.344 648.035 221.912 647.286 221.912 646.476V609.854C221.912 609.034 222.354 608.278 223.069 607.876L273.163 579.744C273.853 579.356 274.694 579.356 275.384 579.744L325.478 607.876C326.193 608.278 326.635 609.034 326.635 609.854V646.477Z" fill="url(#paint2_linear)" stroke="#D0D4FE" stroke-width="1.5"/>
<path d="M273.427 638.103L222.076 608.827C221.996 609.001 221.944 609.188 221.923 609.381L221.912 609.577V646.749C221.912 647.332 222.195 647.875 222.663 648.21L222.809 648.304L273.405 677.532C273.905 677.821 274.51 677.85 275.031 677.619L275.201 677.532L325.739 648.304C326.243 648.012 326.572 647.496 326.627 646.923L326.635 646.75V609.577C326.635 609.323 326.582 609.076 326.482 608.851L275.657 638.098C274.967 638.495 274.118 638.497 273.427 638.103L222.076 608.827L273.427 638.103Z" fill="#C8CBED"/>
<path fill-rule="evenodd" clip-rule="evenodd" d="M273.427 638.103L222.075 608.829C221.996 609.002 221.944 609.188 221.923 609.382L221.912 609.577V646.749C221.912 647.332 222.195 647.875 222.663 648.21L222.809 648.304L273.404 677.532C273.7 677.703 274.033 677.783 274.363 677.772L274.305 638.385C274.001 638.353 273.701 638.259 273.427 638.103L222.075 608.829L273.427 638.103Z" fill="url(#paint3_linear)"/>
<path d="M261.599 623.042C261.49 622.98 261.356 622.982 261.249 623.046L258.837 624.494C258.381 624.768 258.39 625.431 258.852 625.693L270.997 632.583C271.105 632.645 271.238 632.644 271.345 632.58L273.751 631.151C274.208 630.88 274.202 630.215 273.74 629.952L261.599 623.042Z" fill="#D6D9FB"/>
<path d="M258.975 625.763L260.748 624.699C261.118 624.476 261.57 624.447 261.962 624.612L262.107 624.683L273.614 631.231L271.309 632.601C271.245 632.639 271.17 632.649 271.101 632.631L271.033 632.604L258.975 625.763L260.748 624.699L258.975 625.763Z" fill="#733DFF"/>
<path d="M304.797 616.288C304.281 616.584 303.647 616.584 303.131 616.288L289.911 608.723C289.472 608.471 289.471 607.838 289.91 607.586L303.121 599.993C303.638 599.696 304.274 599.696 304.791 599.993L318.002 607.586C318.441 607.839 318.44 608.472 318.001 608.723L304.797 616.288Z" fill="#FF623F"/>
<path d="M318.208 607.706L304.616 599.894C304.253 599.685 303.814 599.662 303.434 599.824L303.295 599.894L289.703 607.705C289.623 607.751 289.557 607.818 289.512 607.897C289.387 608.115 289.438 608.385 289.619 608.544L289.704 608.605L292.012 609.924L303.718 603.468C303.881 603.379 304.073 603.364 304.246 603.424L304.347 603.47L315.923 609.914L318.207 608.605C318.261 608.575 318.308 608.535 318.347 608.489L318.399 608.414C318.524 608.196 318.474 607.927 318.293 607.767L318.208 607.706L304.616 599.894L318.208 607.706Z" fill="#D6D9FB"/>
<path d="M254.78 635.206C254.549 635.075 254.261 635.242 254.261 635.508V638.474C254.261 638.724 254.395 638.954 254.613 639.077L267.097 646.16C267.329 646.292 267.616 646.125 267.616 645.859V642.915C267.616 642.666 267.482 642.435 267.265 642.312L254.78 635.206Z" fill="#D6D9FB"/>
<path d="M255.257 635.479L267.338 642.354C267.481 642.435 267.578 642.575 267.607 642.734L267.615 642.831L267.615 645.4L255.537 638.579C255.394 638.498 255.296 638.357 255.267 638.198L255.258 638.101L255.257 635.479Z" fill="#959FFA"/>
<path d="M317.97 624.714C318.259 624.522 318.644 624.729 318.644 625.075V627.551C318.644 627.844 318.495 628.118 318.249 628.278L316.16 629.635C315.871 629.823 315.49 629.616 315.49 629.272V626.827C315.49 626.537 315.635 626.266 315.877 626.105L317.97 624.714Z" fill="#733DFF"/>
<path d="M317.97 630.571C318.259 630.379 318.644 630.586 318.644 630.932V633.408C318.644 633.701 318.496 633.975 318.249 634.135L316.16 635.492C315.871 635.68 315.49 635.473 315.49 635.128V632.684C315.49 632.394 315.635 632.123 315.877 631.962L317.97 630.571Z" fill="#FF623F"/>
<path d="M310.868 628.718C311.1 628.585 311.388 628.752 311.388 629.019V631.984C311.388 632.233 311.254 632.463 311.038 632.587L286.926 646.365C286.695 646.498 286.407 646.331 286.407 646.064V643.122C286.407 642.873 286.54 642.643 286.756 642.519L310.868 628.718Z" fill="#D6D9FB"/>
<path d="M310.391 628.992L286.683 642.561C286.541 642.642 286.444 642.782 286.415 642.941L286.407 643.038L286.407 645.603L310.113 632.089C310.256 632.007 310.353 631.867 310.382 631.708L310.391 631.611L310.391 628.992Z" fill="#733DFF"/>
<path d="M310.868 635.025C311.1 634.893 311.388 635.06 311.388 635.327V638.292C311.388 638.541 311.254 638.771 311.038 638.895L286.926 652.673C286.695 652.805 286.407 652.638 286.407 652.372V649.429C286.407 649.18 286.54 648.95 286.756 648.827L310.868 635.025Z" fill="#D6D9FB"/>
<path d="M310.391 635.299L286.683 648.868C286.541 648.95 286.444 649.09 286.415 649.248L286.407 649.345L286.407 651.91L310.113 638.396C310.256 638.315 310.353 638.175 310.382 638.016L310.391 637.919L310.391 635.299Z" fill="#FF623F"/>
<path fill-rule="evenodd" clip-rule="evenodd" d="M440.613 646.477C440.613 647.287 440.182 648.035 439.481 648.44L389.416 677.395C388.714 677.801 387.848 677.801 387.146 677.396L337.023 648.44C336.322 648.035 335.89 647.286 335.89 646.476V609.854C335.89 609.034 336.332 608.278 337.047 607.876L387.141 579.744C387.831 579.356 388.673 579.356 389.362 579.744L439.456 607.876C440.171 608.278 440.613 609.034 440.613 609.854V646.477Z" fill="url(#paint4_linear)" stroke="#D0D4FE" stroke-width="1.5"/>
<path d="M387.405 638.103L336.054 608.827C335.974 609.001 335.922 609.188 335.901 609.381L335.89 609.577V646.749C335.89 647.332 336.173 647.875 336.641 648.21L336.787 648.304L387.383 677.532C387.883 677.821 388.488 677.85 389.009 677.619L389.18 677.532L439.717 648.304C440.222 648.012 440.55 647.496 440.605 646.923L440.614 646.75V609.577C440.614 609.323 440.56 609.076 440.461 608.851L389.636 638.098C388.945 638.495 388.097 638.497 387.405 638.103L336.054 608.827L387.405 638.103Z" fill="#D6D9FB"/>
<path d="M387.405 638.103L336.054 608.829C335.974 609.002 335.922 609.188 335.901 609.382L335.89 609.577V646.749C335.89 647.332 336.173 647.875 336.641 648.21L336.787 648.304L387.383 677.532C387.679 677.703 388.011 677.783 388.341 677.772L388.283 638.385C387.979 638.353 387.68 638.259 387.405 638.103L336.054 608.829L387.405 638.103Z" fill="#C8CBED"/>
<path d="M375.577 623.042C375.468 622.98 375.334 622.982 375.227 623.046L372.815 624.494C372.36 624.768 372.368 625.431 372.83 625.693L384.975 632.583C385.083 632.645 385.216 632.644 385.323 632.58L387.729 631.151C388.187 630.88 388.18 630.215 387.718 629.952L375.577 623.042Z" fill="#D6D9FB"/>
<path d="M372.953 625.763L374.726 624.699C375.096 624.476 375.548 624.447 375.941 624.612L376.085 624.683L387.592 631.231L385.287 632.601C385.224 632.639 385.148 632.649 385.079 632.631L385.011 632.604L372.953 625.763L374.726 624.699L372.953 625.763Z" fill="#733DFF"/>
<path d="M418.774 616.288C418.258 616.584 417.624 616.584 417.108 616.288L403.888 608.723C403.449 608.471 403.448 607.838 403.887 607.586L417.098 599.993C417.615 599.696 418.251 599.696 418.768 599.993L431.979 607.586C432.418 607.839 432.417 608.472 431.978 608.723L418.774 616.288Z" fill="#FF623F"/>
<path d="M432.186 607.706L418.595 599.894C418.231 599.685 417.793 599.662 417.412 599.824L417.273 599.894L403.682 607.705C403.602 607.751 403.536 607.818 403.49 607.897C403.365 608.115 403.416 608.385 403.597 608.544L403.682 608.605L405.991 609.924L417.697 603.468C417.86 603.379 418.052 603.364 418.224 603.424L418.325 603.47L429.901 609.914L432.186 608.605C432.239 608.575 432.286 608.535 432.325 608.489L432.378 608.414C432.502 608.196 432.453 607.927 432.272 607.767L432.186 607.706L418.595 599.894L432.186 607.706Z" fill="#D6D9FB"/>
<path fill-rule="evenodd" clip-rule="evenodd" d="M368.758 635.206C368.527 635.075 368.24 635.242 368.24 635.508V638.474C368.24 638.724 368.374 638.954 368.591 639.077L381.076 646.16C381.307 646.292 381.594 646.125 381.594 645.859V642.915C381.594 642.666 381.46 642.435 381.243 642.312L368.758 635.206Z" fill="white"/>
<path d="M369.236 635.479L381.316 642.354C381.459 642.435 381.556 642.575 381.585 642.734L381.594 642.831L381.593 645.4L369.516 638.579C369.372 638.498 369.274 638.357 369.245 638.198L369.236 638.101L369.236 635.479Z" fill="#959FFA"/>
<path fill-rule="evenodd" clip-rule="evenodd" d="M368.758 641.965C368.527 641.833 368.24 642 368.24 642.266V645.232C368.24 645.482 368.374 645.712 368.591 645.835L381.076 652.919C381.307 653.05 381.594 652.883 381.594 652.617V649.673C381.594 649.424 381.46 649.193 381.243 649.07L368.758 641.965Z" fill="white"/>
<path d="M369.236 642.237L381.316 649.112C381.459 649.193 381.556 649.333 381.585 649.492L381.594 649.589L381.593 652.158L369.516 645.337C369.372 645.256 369.274 645.115 369.245 644.956L369.236 644.859L369.236 642.237Z" fill="#959FFA"/>
<path d="M431.949 624.714C432.237 624.522 432.622 624.729 432.622 625.075V627.551C432.622 627.844 432.474 628.118 432.227 628.278L430.138 629.635C429.85 629.823 429.468 629.616 429.468 629.272V626.827C429.468 626.537 429.613 626.266 429.855 626.105L431.949 624.714Z" fill="#733DFF"/>
<path d="M431.949 630.571C432.237 630.379 432.622 630.586 432.622 630.932V633.408C432.622 633.701 432.474 633.975 432.228 634.135L430.138 635.492C429.85 635.68 429.468 635.473 429.468 635.128V632.684C429.468 632.394 429.614 632.123 429.856 631.962L431.949 630.571Z" fill="#FF623F"/>
<path d="M424.847 628.718C425.078 628.585 425.366 628.752 425.366 629.019V631.984C425.366 632.233 425.232 632.463 425.016 632.587L400.904 646.365C400.673 646.498 400.385 646.331 400.385 646.064V643.122C400.385 642.873 400.518 642.643 400.734 642.519L424.847 628.718Z" fill="#D6D9FB"/>
<path d="M424.369 628.992L400.661 642.561C400.519 642.642 400.422 642.782 400.393 642.941L400.385 643.038L400.385 645.603L424.091 632.089C424.234 632.007 424.332 631.867 424.36 631.708L424.369 631.611L424.369 628.992Z" fill="#733DFF"/>
<path d="M424.847 635.025C425.078 634.893 425.366 635.06 425.366 635.327V638.292C425.366 638.541 425.232 638.771 425.016 638.895L400.904 652.673C400.673 652.805 400.385 652.638 400.385 652.372V649.429C400.385 649.18 400.518 648.95 400.734 648.827L424.847 635.025Z" fill="#D6D9FB"/>
<path d="M424.369 635.299L400.661 648.868C400.519 648.95 400.422 649.09 400.393 649.248L400.385 649.345L400.385 651.91L424.091 638.396C424.234 638.315 424.332 638.175 424.36 638.016L424.369 637.919L424.369 635.299Z" fill="#FF623F"/>
<path fill-rule="evenodd" clip-rule="evenodd" d="M383.624 679.721C383.624 680.53 383.193 681.279 382.492 681.684L332.427 710.639C331.725 711.045 330.859 711.045 330.157 710.639L280.034 681.684C279.333 681.279 278.901 680.53 278.901 679.72V643.097C278.901 642.277 279.343 641.521 280.058 641.12L330.152 612.987C330.842 612.6 331.683 612.6 332.373 612.987L382.467 641.12C383.182 641.521 383.624 642.277 383.624 643.097V679.721Z" fill="url(#paint5_linear)" stroke="#D0D4FE" stroke-width="1.5"/>
<path d="M330.416 671.347L279.065 642.071C278.985 642.245 278.933 642.431 278.912 642.625L278.901 642.821V679.993C278.901 680.576 279.184 681.119 279.652 681.453L279.798 681.547L330.394 710.776C330.894 711.065 331.499 711.094 332.02 710.863L332.19 710.776L382.728 681.548C383.233 681.256 383.561 680.74 383.616 680.167L383.625 679.994V642.821C383.625 642.567 383.571 642.32 383.472 642.095L332.646 671.342C331.956 671.739 331.107 671.741 330.416 671.347L279.065 642.071L330.416 671.347Z" fill="#D6D9FB"/>
<path fill-rule="evenodd" clip-rule="evenodd" d="M330.416 671.346L279.064 642.072C278.985 642.246 278.933 642.432 278.912 642.625L278.901 642.821V679.993C278.901 680.576 279.184 681.118 279.652 681.453L279.798 681.547L330.394 710.776C330.689 710.947 331.022 711.027 331.352 711.016L331.294 671.629C330.99 671.597 330.69 671.503 330.416 671.346L279.064 642.072L330.416 671.346Z" fill="url(#paint6_linear)"/>
<path d="M318.588 656.286C318.479 656.224 318.345 656.226 318.238 656.29L315.826 657.738C315.371 658.012 315.379 658.674 315.841 658.937L327.986 665.827C328.094 665.889 328.227 665.887 328.334 665.824L330.74 664.395C331.197 664.123 331.191 663.459 330.729 663.195L318.588 656.286Z" fill="#D6D9FB"/>
<path d="M315.964 659.007L317.737 657.942C318.107 657.72 318.559 657.69 318.951 657.856L319.096 657.927L330.603 664.475L328.298 665.845C328.234 665.883 328.159 665.893 328.09 665.875L328.022 665.848L315.964 659.007L317.737 657.942L315.964 659.007Z" fill="#733DFF"/>
<path d="M361.785 649.532C361.269 649.827 360.635 649.828 360.119 649.532L346.899 641.967C346.46 641.715 346.459 641.082 346.898 640.83L360.109 633.237C360.626 632.94 361.262 632.94 361.779 633.237L374.99 640.83C375.428 641.082 375.428 641.715 374.989 641.967L361.785 649.532Z" fill="#FF623F"/>
<path d="M375.197 640.949L361.606 633.138C361.242 632.929 360.804 632.905 360.423 633.068L360.284 633.138L346.692 640.949C346.613 640.995 346.546 641.061 346.501 641.141C346.376 641.359 346.427 641.629 346.608 641.788L346.693 641.849L349.001 643.168L360.707 636.712C360.87 636.622 361.063 636.608 361.235 636.668L361.336 636.713L372.912 643.158L375.197 641.849C375.25 641.819 375.297 641.779 375.336 641.732L375.388 641.658C375.513 641.44 375.463 641.17 375.283 641.011L375.197 640.949L361.606 633.138L375.197 640.949Z" fill="#D6D9FB"/>
<path d="M311.769 668.45C311.538 668.319 311.25 668.486 311.25 668.752V671.718C311.25 671.967 311.385 672.198 311.602 672.321L324.086 679.404C324.318 679.536 324.605 679.369 324.605 679.103V676.159C324.605 675.909 324.471 675.679 324.254 675.556L311.769 668.45Z" fill="#D6D9FB"/>
<path d="M312.247 668.723L324.327 675.597C324.47 675.679 324.567 675.819 324.596 675.978L324.605 676.075L324.604 678.644L312.526 671.823C312.383 671.742 312.285 671.601 312.256 671.442L312.247 671.345L312.247 668.723Z" fill="#959FFA"/>
<path d="M374.959 657.958C375.247 657.766 375.633 657.973 375.633 658.319V660.795C375.633 661.088 375.484 661.362 375.238 661.522L373.149 662.879C372.86 663.066 372.479 662.859 372.479 662.515V660.071C372.479 659.781 372.624 659.509 372.866 659.349L374.959 657.958Z" fill="#733DFF"/>
<path d="M374.96 663.815C375.248 663.623 375.633 663.83 375.633 664.176V666.651C375.633 666.945 375.485 667.219 375.238 667.379L373.149 668.736C372.861 668.923 372.479 668.716 372.479 668.372V665.928C372.479 665.638 372.624 665.366 372.866 665.205L374.96 663.815Z" fill="#FF623F"/>
<path d="M367.857 661.962C368.089 661.829 368.377 661.996 368.377 662.263V665.228C368.377 665.477 368.243 665.707 368.027 665.831L343.915 679.609C343.684 679.742 343.396 679.574 343.396 679.308V676.365C343.396 676.117 343.529 675.887 343.745 675.763L367.857 661.962Z" fill="#D6D9FB"/>
<path d="M367.38 662.236L343.672 675.805C343.53 675.886 343.433 676.026 343.404 676.185L343.396 676.281L343.396 678.847L367.102 665.332C367.245 665.251 367.342 665.111 367.371 664.952L367.38 664.855L367.38 662.236Z" fill="#733DFF"/>
<path d="M367.857 668.269C368.089 668.137 368.377 668.304 368.377 668.571V671.536C368.377 671.785 368.243 672.015 368.027 672.138L343.915 685.917C343.684 686.049 343.396 685.882 343.396 685.616V682.673C343.396 682.424 343.529 682.194 343.745 682.071L367.857 668.269Z" fill="#D6D9FB"/>
<path d="M367.38 668.543L343.672 682.112C343.53 682.194 343.433 682.334 343.404 682.492L343.396 682.589L343.396 685.154L367.102 671.64C367.245 671.559 367.342 671.419 367.371 671.26L367.38 671.163L367.38 668.543Z" fill="#FF623F"/>
<path d="M224.194 588.19C222.94 587.465 222.168 586.126 222.168 584.677V549.778C222.168 548.31 222.96 546.958 224.239 546.239L330.438 486.598C331.672 485.905 333.178 485.905 334.412 486.598L440.611 546.239C441.89 546.958 442.682 548.31 442.682 549.778V584.676C442.682 586.125 441.909 587.465 440.654 588.19L334.394 649.575C333.138 650.301 331.589 650.301 330.333 649.574L224.194 588.19Z" fill="#F8FCFF" stroke="#D0D4FF" stroke-width="1.5"/>
<path d="M334.221 609.666L443.085 547.602C443.272 548.011 443.388 548.454 443.422 548.913L443.432 549.191V585.254C443.432 586.534 442.79 587.721 441.733 588.424L441.53 588.55L334.268 650.515C333.163 651.153 331.817 651.192 330.683 650.633L330.459 650.514L223.318 588.55C222.211 587.91 221.505 586.76 221.425 585.494L221.418 585.255V549.191C221.418 548.653 221.532 548.131 221.742 547.655L329.492 609.656C330.955 610.498 332.754 610.502 334.221 609.666L443.085 547.602L334.221 609.666Z" fill="#F8FCFF"/>
<path d="M334.221 609.666L443.085 547.602C443.272 548.011 443.388 548.454 443.422 548.913L443.432 549.191V585.254C443.432 586.534 442.79 587.721 441.733 588.424L441.53 588.55L334.268 650.515C333.641 650.877 332.936 651.046 332.236 651.023L332.357 610.265C333.003 610.198 333.638 609.998 334.221 609.666Z" fill="#D6D9FB"/>
<path d="M328.66 584.475C330.847 585.728 333.534 585.729 335.721 584.477L391.775 552.399C393.637 551.333 393.64 548.648 391.779 547.579L335.766 515.385C333.574 514.125 330.877 514.125 328.685 515.385L272.67 547.58C270.81 548.649 270.812 551.333 272.673 552.399L328.66 584.475Z" fill="#BFC1F8"/>
<path d="M271.795 548.083L329.423 514.961C331.072 514.013 333.081 513.966 334.765 514.819L335.028 514.961L392.655 548.082C392.994 548.276 393.274 548.557 393.468 548.896C394.039 549.895 393.741 551.153 392.812 551.796L392.652 551.897L382.868 557.495L333.232 530.117C332.466 529.695 331.549 529.664 330.761 530.024L330.567 530.122L281.485 557.447L271.797 551.897C271.515 551.736 271.273 551.514 271.088 551.249L270.984 551.085C270.411 550.088 270.706 548.829 271.634 548.185L271.795 548.083L329.423 514.961L271.795 548.083Z" fill="#D6D9FB"/>
<path d="M312.252 508.912C312.251 507.568 312.968 506.327 314.132 505.657L360.566 478.941C361.732 478.27 363.188 479.112 363.188 480.458V544.263C363.188 545.607 362.469 546.849 361.302 547.517L314.941 574.07C313.775 574.738 312.322 573.897 312.321 572.554L312.252 508.912Z" fill="#FF623F" fill-opacity="0.280021" stroke="#ED7F3F" stroke-width="0.5"/>
<path d="M325.668 555.499V545.435C325.668 544.832 326.157 544.343 326.76 544.343C327.363 544.343 327.852 544.832 327.852 545.435V555.499C327.852 556.102 327.363 556.591 326.76 556.591C326.157 556.591 325.668 556.102 325.668 555.499Z" fill="#FF623F" fill-opacity="0.280021" stroke="#ED7F3F" stroke-width="0.5"/>
<path d="M331.036 552.816V548.119C331.036 547.516 331.525 547.027 332.128 547.027C332.731 547.027 333.22 547.516 333.22 548.119V552.816C333.22 553.419 332.731 553.907 332.128 553.907C331.525 553.907 331.036 553.419 331.036 552.816Z" fill="#FF623F" fill-opacity="0.280021" stroke="#ED7F3F" stroke-width="0.5"/>
<path d="M336.404 550.132V542.752C336.404 542.149 336.892 541.66 337.495 541.66C338.098 541.66 338.587 542.149 338.587 542.752V550.132C338.587 550.735 338.098 551.224 337.495 551.224C336.892 551.224 336.404 550.735 336.404 550.132Z" fill="#FF623F" fill-opacity="0.280021" stroke="#ED7F3F" stroke-width="0.5"/>
<path d="M352.506 539.397V532.017C352.506 531.414 352.995 530.925 353.598 530.925C354.201 530.925 354.689 531.414 354.689 532.017V539.397C354.689 540 354.201 540.489 353.598 540.489C352.995 540.489 352.506 540 352.506 539.397Z" fill="#FF623F" fill-opacity="0.280021" stroke="#ED7F3F" stroke-width="0.5"/>
<path d="M347.138 542.081V537.384C347.138 536.781 347.627 536.292 348.23 536.292C348.833 536.292 349.321 536.781 349.321 537.384V542.081C349.321 542.684 348.833 543.173 348.23 543.173C347.627 543.173 347.138 542.684 347.138 542.081Z" fill="#FF623F" fill-opacity="0.280021" stroke="#ED7F3F" stroke-width="0.5"/>
<path d="M341.771 546.106V537.384C341.771 536.781 342.26 536.292 342.863 536.292C343.466 536.292 343.955 536.781 343.955 537.384V546.106C343.955 546.709 343.466 547.198 342.863 547.198C342.26 547.198 341.771 546.709 341.771 546.106Z" fill="#FF623F" fill-opacity="0.280021" stroke="#ED7F3F" stroke-width="0.5"/>
<path d="M349.108 503.26L349.096 503.276L349.085 503.293L340.057 519.027C339.479 520.033 338.213 520.408 337.181 519.879L329.411 515.896L329.2 515.788L329.081 515.993L318.342 534.429C317.945 535.11 317.072 535.341 316.39 534.944C315.709 534.547 315.479 533.673 315.876 532.992L327.059 513.793C327.64 512.795 328.9 512.426 329.927 512.953L337.692 516.933L337.905 517.042L338.023 516.835L346.736 501.653L356.009 490.275C356.507 489.664 357.406 489.572 358.017 490.07C358.628 490.568 358.719 491.467 358.221 492.078L349.108 503.26Z" fill="#9286FF" fill-opacity="0.193018" stroke="#F8F8F8" stroke-width="0.5"/>
<path fill-rule="evenodd" clip-rule="evenodd" d="M373.752 596.402C374.242 596.123 374.851 596.477 374.851 597.041V603.329C374.851 603.858 374.567 604.347 374.106 604.608L347.639 619.625C347.148 619.903 346.54 619.549 346.54 618.985V612.744C346.54 612.215 346.824 611.727 347.284 611.466L373.752 596.402Z" fill="white"/>
<path d="M372.738 596.979L347.129 611.554C346.805 611.738 346.592 612.064 346.548 612.428L346.54 612.566L346.54 618.009L372.145 603.552C372.471 603.368 372.685 603.041 372.729 602.676L372.737 602.538L372.738 596.979Z" fill="#959FFA"/>
<path d="M242.868 576.408C242.378 576.132 241.772 576.486 241.772 577.049V583.339C241.772 583.871 242.059 584.361 242.522 584.622L305.607 620.072C306.097 620.348 306.703 619.993 306.703 619.431V613.189C306.703 612.658 306.416 612.168 305.953 611.907L242.868 576.408Z" fill="#D6D9FB"/>
<path d="M243.885 576.981L306.109 611.995C306.435 612.178 306.651 612.505 306.695 612.871L306.703 613.01L306.702 618.457L244.48 583.566C244.154 583.382 243.938 583.055 243.894 582.689L243.885 582.55L243.885 576.981Z" fill="#733DFF"/>
<path d="M291.899 393.283L292.138 393.143L292.379 393.279L388.357 447.77L444.631 414.791V301.9L287.135 211.554L0.104126 377.321V496.741L59.2434 529.937L291.899 393.283Z" fill="#F8FCFF" stroke="#E9EBFF" stroke-width="0.96"/>
<path d="M287.659 284.915L307.431 241.831L287.573 230.264L268.525 241.406L287.659 284.915Z" fill="#9593F3" fill-opacity="0.33143"/>
<path d="M287.673 230.323L287.967 284.246L307.431 241.831L287.673 230.323Z" fill="#9593F3" fill-opacity="0.33143"/>
<path d="M98.578 395.495L83.892 387.525L82.5803 350.537L98.578 395.495Z" fill="black" fill-opacity="0.275213"/>
<path d="M83.8921 387.525L22.4651 424.226L13.0303 385.473L82.5803 344.082L83.8921 387.525Z" fill="#733DFF"/>
<path d="M31.0876 434.655L35.1736 432.32L18.8019 387.525L13.9681 387.579L31.0876 434.655Z" fill="#BFC1F8"/>
<path d="M287.134 211L-0.375885 377.044L-0.375122 377.22L15.9861 388.745L287.573 230.264L431.758 312.494L445.111 308.116V301.622L287.134 211Z" fill="#BFC1F8"/>
<path d="M33.8696 374.12V369.205C33.8696 367.17 32.7812 365.289 31.016 364.276L23.8063 360.135C22.0204 359.109 19.8193 359.129 18.0527 360.188L7.54285 366.485C5.82886 367.513 4.77987 369.364 4.77987 371.362V376.209L16.1986 384.128L33.8696 374.12Z" fill="#FF623F"/>
<path d="M33.87 370.842L16.303 380.767L4.78042 373.207L4.7799 376.209L16.1986 384.128L33.8697 374.12L33.87 370.842Z" fill="#F8FCFF"/>
<path d="M411.363 296.395V291.48C411.363 289.444 412.451 287.564 414.216 286.55L421.426 282.409C423.212 281.384 425.413 281.404 427.18 282.463L437.69 288.76C439.404 289.787 440.453 291.639 440.453 293.637V298.484L429.034 306.402L411.363 296.395Z" fill="#FF623F"/>
<path d="M411.363 293.117L428.93 303.041L440.452 295.482L440.453 298.484L429.034 306.402L411.363 296.395L411.363 293.117Z" fill="#F8FCFF"/>
<path d="M420.362 362.633L287.659 284.915L98.5652 395.885L24.3737 438.493L56.9319 473.007L290.991 340.045L388.863 399.231L420.362 362.633Z" fill="#9593F3" fill-opacity="0.33143"/>
<path d="M217.073 332.018L242.579 353.195C243.198 353.709 244.073 353.776 244.763 353.363L278.957 332.894C279.52 332.557 279.578 331.762 279.069 331.347L253.331 310.373L217.073 332.018Z" fill="#733DFF"/>
<path d="M271.335 324.54L235.944 348.008" stroke="#3C1F86" stroke-width="1.5792"/>
<path d="M261.215 316.253L225.905 339.673" stroke="#3C1F86" stroke-width="1.5792"/>
<path d="M228.58 325.143L255.146 347.109" stroke="#3C1F86" stroke-width="1.5792"/>
<path d="M241.588 317.356L268.165 339.329" stroke="#3C1F86" stroke-width="1.5792"/>
<path d="M287.659 284.915L290.991 333.347L335.297 366.838L388.863 399.231L420.362 362.633L287.659 284.915Z" fill="#9593F3" fill-opacity="0.33143"/>
<path d="M412.389 359.252L412.365 359.312L412.325 359.363L389.343 389.363V446.721L390.28 446.643L444.631 414.791V302.305L432.003 311.159L412.389 359.252Z" fill="#F8FCFF" stroke="#E9EBFF" stroke-width="0.96"/>
<path d="M429.489 409.283C429.1 409.097 428.655 409.065 428.258 409.235C426.997 409.777 424.179 411.282 423.164 414.239C421.84 418.098 423.688 421.451 423.688 421.451L429.722 424.114C430.958 424.66 431.755 425.884 431.755 427.235V431.652C431.755 431.652 434.942 434.583 438.859 433.984C442.776 433.385 443.484 430.263 443.484 430.263V420.262C443.484 417.633 441.972 415.237 439.599 414.105L429.489 409.283Z" fill="#733DFF"/>
<path d="M423.393 413.645L433.659 418.541C435.475 419.407 436.654 421.208 436.73 423.207L436.734 423.415L436.734 434.044C435.037 433.868 433.455 433.14 431.986 431.859L431.755 431.652V426.772C431.755 425.753 431.183 424.826 430.283 424.367L430.146 424.302L423.688 421.451C422.456 419.216 422.282 416.812 423.164 414.239C423.234 414.036 423.31 413.838 423.393 413.645Z" fill="#293181"/>
<path d="M415.99 418.283C415.6 418.097 415.156 418.064 414.759 418.235C413.497 418.777 410.68 420.281 409.665 423.239C408.341 427.098 410.189 430.451 410.189 430.451L416.222 433.114C417.458 433.66 418.256 434.884 418.256 436.235V440.652C418.256 440.652 421.443 443.583 425.36 442.984C429.276 442.385 429.985 439.263 429.985 439.263V429.262C429.985 426.632 428.473 424.237 426.099 423.105L415.99 418.283Z" fill="#733DFF"/>
<path d="M409.893 422.645L420.16 427.541C421.976 428.407 423.154 430.208 423.231 432.207L423.235 432.415L423.234 443.044C421.538 442.868 419.955 442.14 418.487 440.859L418.256 440.652V435.771C418.256 434.753 417.684 433.826 416.784 433.367L416.646 433.301L410.189 430.451C408.957 428.216 408.782 425.812 409.665 423.239C409.735 423.036 409.811 422.838 409.893 422.645Z" fill="#293181"/>
<path d="M291.899 393.283L292.138 393.142L292.38 393.279L388.357 447.769L388.383 447.754V390.076L290.991 333.901L47.3529 474.294V523.262L59.2436 529.937L291.899 393.283Z" fill="#F8FCFF" stroke="#E9EBFF" stroke-width="0.96"/>
<path d="M290.991 333.347V394.232L291.1 394.31L292.143 393.697L388.361 448.324L388.863 448.029V389.799L290.991 333.347Z" fill="#9593F3" fill-opacity="0.33143"/>
<path d="M-0.375698 377.044V497.022L58.1233 529.859L58.1226 467.868L31.1836 434.909L13.968 386.636L-0.375698 377.044Z" fill="#BFC1F8"/>
<path d="M44.8729 424.494C41.1451 424.494 38.1231 422.479 38.1231 419.994C38.1231 417.509 41.1451 415.494 44.8729 415.494C48.6007 415.494 51.6227 417.509 51.6227 419.994C51.6227 422.479 48.6007 424.494 44.8729 424.494Z" fill="#3C1F86"/>
<path d="M49.8915 435.967L66.1903 451.419" stroke="#3C1F86" stroke-width="1.5792"/>
<path d="M55.6283 435.766L55.6779 437.186L49.1948 441.353L47.2908 439.724L47.2333 438.076L53.3816 433.856L55.6283 435.766Z" fill="#F8FCFF"/>
<path d="M53.3817 433.856L47.3601 437.989L49.2846 439.654L55.4656 435.628L53.3817 433.856Z" fill="#FF623F"/>
<path d="M17.4961 492.531C17.8858 492.345 18.3304 492.312 18.7271 492.483C19.9885 493.024 22.8064 494.529 23.821 497.487C25.145 501.346 23.2973 504.699 23.2973 504.699L17.2637 507.362C16.0275 507.908 15.23 509.131 15.23 510.483V514.9C15.23 514.9 12.043 517.831 8.12641 517.232C4.20978 516.633 3.50136 513.511 3.50136 513.511V503.51C3.50136 500.88 5.01301 498.484 7.38675 497.352L17.4961 492.531Z" fill="#733DFF"/>
<path d="M23.5924 496.892L13.3263 501.789C11.51 502.655 10.3314 504.456 10.2549 506.455L10.2509 506.663L10.2513 517.292C11.9481 517.116 13.5306 516.388 14.9989 515.107L15.2297 514.9V510.019C15.2297 509.001 15.8023 508.074 16.702 507.615L16.8394 507.549L23.297 504.699C24.5288 502.463 24.7034 500.059 23.8207 497.487C23.751 497.283 23.6749 497.085 23.5924 496.892Z" fill="#293181"/>
<path d="M30.9952 501.531C31.3849 501.345 31.8295 501.312 32.2262 501.482C33.4877 502.024 36.3055 503.529 37.3201 506.486C38.6441 510.345 36.7964 513.699 36.7964 513.699L30.7628 516.362C29.5267 516.907 28.7291 518.131 28.7291 519.482V523.9C28.7291 523.9 25.5422 526.83 21.6256 526.231C17.7089 525.632 17.0005 522.51 17.0005 522.51V512.51C17.0005 509.88 18.5122 507.484 20.8859 506.352L30.9952 501.531Z" fill="#733DFF"/>
<path d="M37.0922 505.892L26.8261 510.788C25.0099 511.655 23.8313 513.455 23.7548 515.455L23.7508 515.662L23.7512 526.291C25.448 526.116 27.0305 525.388 28.4987 524.107L28.7296 523.9V519.019C28.7296 518 29.3022 517.073 30.2019 516.614L30.3393 516.549L36.7969 513.699C38.0287 511.463 38.2033 509.059 37.3206 506.486C37.2509 506.283 37.1747 506.085 37.0922 505.892Z" fill="#293181"/>
<path d="M263.858 362.461C263.486 362.475 263.124 362.578 262.802 362.765L106.885 453.116C105.496 453.921 104.641 455.405 104.641 457.01L104.641 503.828L267.124 408.391L266.179 364.638C266.139 363.397 265.1 362.422 263.858 362.461Z" fill="#9593F3" fill-opacity="0.33143"/>
<path d="M393.001 354.538C395.535 355.899 396.22 359.22 394.433 361.473L383.835 374.836C382.332 376.731 379.651 377.204 377.59 375.939C375.116 374.421 374.556 371.064 376.403 368.825L387.256 355.667C388.657 353.969 391.062 353.496 393.001 354.538Z" fill="#9593F3" fill-opacity="0.33143"/>
<path d="M391.685 359.172L380.57 373.255C380.142 373.797 379.356 373.89 378.814 373.462C378.273 373.034 378.18 372.248 378.608 371.706L389.723 357.623C390.151 357.081 390.937 356.988 391.479 357.416C392.021 357.844 392.113 358.63 391.685 359.172Z" fill="#3C1F86"/>
<path d="M391.011 361.796L386.129 358.855V354.996L389.547 351.814L394.459 354.634V358.251L391.011 361.796Z" fill="#FF623F"/>
<path d="M394.459 355.022L390.987 358.059L386.129 355.238L386.129 358.855L391.011 361.796L394.459 358.251L394.459 355.022Z" fill="#F8FCFF"/>
<path d="M377.252 345.538C379.785 346.899 380.471 350.22 378.684 352.473L368.086 365.836C366.583 367.731 363.902 368.204 361.841 366.939C359.366 365.421 358.806 362.064 360.654 359.825L371.506 346.667C372.907 344.969 375.312 344.496 377.252 345.538Z" fill="#9593F3" fill-opacity="0.33143"/>
<path d="M375.936 350.172L364.821 364.255C364.393 364.797 363.607 364.89 363.065 364.462C362.523 364.034 362.43 363.248 362.858 362.707L373.974 348.623C374.401 348.081 375.187 347.989 375.729 348.416C376.271 348.844 376.364 349.63 375.936 350.172Z" fill="#3C1F86"/>
<path d="M375.262 352.796L370.379 349.856V345.996L373.797 342.814L378.709 345.634V349.252L375.262 352.796Z" fill="#FF623F"/>
<path d="M378.71 346.022L375.238 349.06L370.38 346.239L370.379 349.856L375.262 352.796L378.709 349.252L378.71 346.022Z" fill="#F8FCFF"/>
<path d="M171.022 365.691C168.575 366.787 167.871 369.929 169.618 371.964C170.876 373.43 172.999 373.791 174.671 372.824L175.762 372.193C177.928 370.94 178.396 368.012 176.727 366.146C175.582 364.865 173.74 364.473 172.171 365.175L171.022 365.691Z" fill="#733DFF"/>
<path d="M182.271 358.941C179.824 360.037 179.121 363.179 180.867 365.214C182.125 366.68 184.249 367.041 185.921 366.074L187.012 365.443C189.178 364.19 189.646 361.262 187.977 359.396C186.832 358.115 184.989 357.723 183.421 358.425L182.271 358.941Z" fill="#733DFF"/>
<path d="M193.521 352.191C191.074 353.287 190.371 356.43 192.117 358.464C193.375 359.93 195.499 360.292 197.171 359.324L198.261 358.693C200.428 357.44 200.895 354.512 199.227 352.647C198.082 351.366 196.239 350.973 194.671 351.676L193.521 352.191Z" fill="#733DFF"/>
<path d="M180.021 372.44C177.574 373.537 176.871 376.679 178.617 378.714C179.875 380.18 181.999 380.541 183.671 379.574L184.761 378.943C186.928 377.689 187.395 374.762 185.727 372.896C184.582 371.615 182.739 371.222 181.171 371.925L180.021 372.44Z" fill="#733DFF"/>
<path d="M191.271 365.691C188.824 366.787 188.121 369.929 189.867 371.964C191.125 373.43 193.249 373.791 194.921 372.824L196.011 372.193C198.178 370.94 198.645 368.012 196.977 366.146C195.831 364.865 193.989 364.473 192.421 365.175L191.271 365.691Z" fill="#733DFF"/>
<path d="M202.521 358.941C200.074 360.037 199.371 363.179 201.117 365.214C202.375 366.68 204.499 367.041 206.17 366.074L207.261 365.443C209.427 364.19 209.895 361.262 208.227 359.396C207.081 358.115 205.239 357.723 203.671 358.425L202.521 358.941Z" fill="#733DFF"/>
<path d="M152.803 375.203C150.254 376.81 149.985 380.424 152.267 382.392L165.076 393.435C166.705 394.839 169.083 394.948 170.833 393.697C173.326 391.916 173.454 388.256 171.091 386.305L158.051 375.538C156.558 374.304 154.441 374.169 152.803 375.203Z" fill="#9593F3" fill-opacity="0.33143"/>
<path d="M154.465 379.435L168.261 391.011C168.789 391.455 169.578 391.386 170.022 390.857C170.465 390.328 170.396 389.54 169.867 389.096L156.071 377.52C155.543 377.076 154.754 377.145 154.31 377.674C153.867 378.203 153.936 378.991 154.465 379.435Z" fill="#3C1F86"/>
<path d="M154.836 382.593L159.502 379.319L159.233 375.469L155.601 372.533L150.898 375.689L151.15 379.298L154.836 382.593Z" fill="#FF623F"/>
<path d="M150.924 376.076L154.6 378.864L159.249 375.711L159.502 379.319L154.837 382.593L151.15 379.298L150.924 376.076Z" fill="#F8FCFF"/>
<path d="M206.492 341.806C204.001 343.502 203.858 347.123 206.208 349.01L219.393 359.599C221.07 360.946 223.451 360.971 225.156 359.661C227.586 357.794 227.586 354.131 225.157 352.264L211.748 341.958C210.213 340.778 208.093 340.716 206.492 341.806Z" fill="#9593F3" fill-opacity="0.33143"/>
<path d="M208.3 345.978L222.492 357.066C223.036 357.491 223.822 357.394 224.247 356.85C224.672 356.306 224.575 355.521 224.031 355.096L209.839 344.008C209.295 343.583 208.51 343.68 208.085 344.224C207.66 344.768 207.756 345.553 208.3 345.978Z" fill="#3C1F86"/>
<path d="M208.782 349.121L213.331 345.686L212.927 341.848L209.196 339.04L204.605 342.359L204.983 345.956L208.782 349.121Z" fill="#FF623F"/>
<path d="M204.645 342.744L208.415 345.402L212.952 342.089L213.331 345.686L208.782 349.121L204.983 345.956L204.645 342.744Z" fill="#F8FCFF"/>
<path d="M419.946 313.657C422.449 315.049 423.526 318.087 422.458 320.745L412.884 344.578C411.582 347.819 407.693 349.13 404.694 347.34L382.045 333.815C379.659 332.39 378.652 329.449 379.665 326.861L388.741 303.68C389.996 300.475 393.79 299.111 396.798 300.784L419.946 313.657Z" fill="#733DFF"/>
<path d="M372.577 313.763C375.041 315.155 376.106 318.147 375.075 320.782L374.595 322.012C373.317 325.28 369.414 326.622 366.397 324.831L336.909 307.323C334.542 305.918 333.522 303.018 334.488 300.441L334.691 299.898C335.916 296.628 339.772 295.224 342.812 296.942L372.577 313.763Z" fill="#9593F3" fill-opacity="0.33143"/>
<path d="M362.969 336.492C365.416 337.588 366.119 340.73 364.373 342.765C363.115 344.231 360.991 344.592 359.319 343.625L358.229 342.994C356.062 341.741 355.595 338.813 357.263 336.947C358.408 335.666 360.251 335.274 361.819 335.976L362.969 336.492Z" fill="#733DFF"/>
<path d="M351.719 329.742C354.166 330.838 354.869 333.98 353.123 336.015C351.865 337.481 349.741 337.842 348.069 336.875L346.979 336.244C344.812 334.991 344.345 332.063 346.013 330.197C347.159 328.916 349.001 328.524 350.569 329.226L351.719 329.742Z" fill="#733DFF"/>
<path d="M340.469 322.992C342.916 324.088 343.619 327.231 341.873 329.266C340.615 330.731 338.491 331.093 336.82 330.125L335.729 329.494C333.563 328.241 333.095 325.313 334.763 323.448C335.909 322.167 337.751 321.774 339.319 322.477L340.469 322.992Z" fill="#733DFF"/>
<path d="M353.969 343.241C356.416 344.338 357.119 347.48 355.373 349.515C354.115 350.981 351.991 351.342 350.319 350.375L349.229 349.744C347.063 348.49 346.595 345.563 348.263 343.697C349.409 342.416 351.251 342.023 352.819 342.726L353.969 343.241Z" fill="#733DFF"/>
<path d="M342.719 336.492C345.166 337.588 345.87 340.73 344.123 342.765C342.865 344.231 340.742 344.592 339.07 343.625L337.979 342.994C335.813 341.741 335.345 338.813 337.014 336.947C338.159 335.666 340.001 335.274 341.57 335.976L342.719 336.492Z" fill="#733DFF"/>
<path d="M331.47 329.742C333.917 330.838 334.62 333.98 332.874 336.015C331.616 337.481 329.492 337.842 327.82 336.875L326.729 336.244C324.563 334.991 324.096 332.063 325.764 330.197C326.909 328.916 328.752 328.524 330.32 329.226L331.47 329.742Z" fill="#733DFF"/>
<path d="M336.928 266.336C339.451 267.731 340.531 270.794 339.44 273.463L329.659 297.383C328.343 300.603 324.469 301.896 321.482 300.112L298.903 286.629C296.471 285.177 295.479 282.155 296.577 279.544L306.244 256.558C307.554 253.442 311.278 252.151 314.236 253.787L336.928 266.336Z" fill="#733DFF"/>
<path d="M210.186 306.721C207.587 308.193 206.57 311.424 207.857 314.119L210.166 318.952C211.603 321.958 215.304 323.091 218.176 321.403L275.797 287.553C278.395 286.027 279.351 282.739 277.976 280.058L276.023 276.247C274.548 273.371 270.975 272.301 268.163 273.894L210.186 306.721Z" fill="#9593F3" fill-opacity="0.33143"/>
<path d="M122.541 331.412C119.9 332.907 118.899 336.214 120.268 338.923L132.297 362.734C133.777 365.663 137.422 366.735 140.251 365.073L197.958 331.172C200.568 329.638 201.519 326.328 200.12 323.643L188.292 300.944C186.806 298.09 183.249 297.038 180.449 298.623L122.541 331.412Z" fill="#FF623F"/>
<path d="M109.592 350.907C107.392 352.09 106.507 354.791 107.582 357.046L115.522 373.7C116.752 376.278 119.945 377.223 122.379 375.729C124.498 374.429 125.276 371.728 124.176 369.5L116.005 352.958C114.832 350.584 111.925 349.654 109.592 350.907Z" fill="#3C1F86"/>
<path d="M96.343 359.907C94.1426 361.089 93.2578 363.791 94.3328 366.046L102.273 382.699C103.502 385.278 106.695 386.223 109.13 384.729C111.248 383.428 112.027 380.728 110.926 378.5L102.755 361.958C101.583 359.584 98.6757 358.654 96.343 359.907Z" fill="#3C1F86"/>
<path d="M259.492 273.998C253.9 273.998 249.367 269.465 249.367 263.873C249.367 258.282 253.9 253.749 259.492 253.749C265.083 253.749 269.616 258.282 269.616 263.873C269.616 269.465 265.083 273.998 259.492 273.998Z" fill="#733DFF"/>
<path d="M234.742 287.498C229.151 287.498 224.618 282.965 224.618 277.373C224.618 271.781 229.151 267.248 234.742 267.248C240.334 267.248 244.867 271.781 244.867 277.373C244.867 282.965 240.334 287.498 234.742 287.498Z" fill="#733DFF"/>
<path d="M209.993 300.997C204.401 300.997 199.869 296.464 199.869 290.873C199.869 285.281 204.401 280.748 209.993 280.748C215.585 280.748 220.118 285.281 220.118 290.873C220.118 296.464 215.585 300.997 209.993 300.997Z" fill="#733DFF"/>
<path d="M294.711 295.373L331.529 318L323.97 324.54L295.746 307.201L294.711 295.373Z" fill="#9593F3" fill-opacity="0.33143"/>
<path d="M63.2738 427.088L79.2496 441.294" stroke="#3C1F86" stroke-width="1.5792"/>
<path d="M69.0062 426.788L69.0806 428.207L62.6712 432.486L60.7391 430.89L60.6528 429.244L66.7265 424.917L69.0062 426.788Z" fill="#F8FCFF"/>
<path d="M66.7265 424.917L60.778 429.155L62.7312 430.786L68.841 426.652L66.7265 424.917Z" fill="#FF623F"/>
<path d="M73.8025 416.62C72.0937 417.628 71.917 420.033 73.4602 421.28L79.7211 426.339C81.5623 427.827 84.1328 428.018 86.1739 426.819L146.716 391.252C148.459 390.228 148.606 387.764 146.997 386.539L140.344 381.477C138.505 380.078 136.003 379.931 134.013 381.104L73.8025 416.62Z" fill="#733DFF"/>
<path d="M149.245 399.994C147.381 399.994 145.87 398.987 145.87 397.745C145.87 396.502 147.381 395.495 149.245 395.495C151.109 395.495 152.62 396.502 152.62 397.745C152.62 398.987 151.109 399.994 149.245 399.994Z" fill="#FF623F"/>
<path d="M137.995 406.744C136.131 406.744 134.62 405.737 134.62 404.494C134.62 403.252 136.131 402.244 137.995 402.244C139.859 402.244 141.37 403.252 141.37 404.494C141.37 405.737 139.859 406.744 137.995 406.744Z" fill="#FF623F"/>
<path d="M126.745 413.494C124.882 413.494 123.371 412.487 123.371 411.244C123.371 410.001 124.882 408.994 126.745 408.994C128.609 408.994 130.12 410.001 130.12 411.244C130.12 412.487 128.609 413.494 126.745 413.494Z" fill="#FF623F"/>
<path d="M115.496 420.244C113.632 420.244 112.121 419.237 112.121 417.994C112.121 416.751 113.632 415.744 115.496 415.744C117.36 415.744 118.871 416.751 118.871 417.994C118.871 419.237 117.36 420.244 115.496 420.244Z" fill="#FF623F"/>
<path d="M104.246 426.994C102.383 426.994 100.872 425.986 100.872 424.744C100.872 423.501 102.383 422.494 104.246 422.494C106.11 422.494 107.621 423.501 107.621 424.744C107.621 425.986 106.11 426.994 104.246 426.994Z" fill="#FF623F"/>
<path d="M92.9967 433.744C91.1328 433.744 89.6218 432.736 89.6218 431.494C89.6218 430.251 91.1328 429.244 92.9967 429.244C94.8606 429.244 96.3716 430.251 96.3716 431.494C96.3716 432.736 94.8606 433.744 92.9967 433.744Z" fill="#FF623F"/>
<path d="M78.122 404.494C74.3942 404.494 71.3722 402.48 71.3722 399.994C71.3722 397.509 74.3942 395.495 78.122 395.495C81.8498 395.495 84.8718 397.509 84.8718 399.994C84.8718 402.48 81.8498 404.494 78.122 404.494Z" fill="#3C1F86"/>
<path d="M358.081 395.704L314.626 371.35L316.276 368.406L359.731 392.76L358.081 395.704Z" fill="#3C1F86"/>
<path d="M358.081 406.954L314.626 382.6L316.276 379.656L359.731 404.01L358.081 406.954Z" fill="#3C1F86"/>
<path d="M358.081 418.203L314.626 393.849L316.276 390.905L359.731 415.259L358.081 418.203Z" fill="#3C1F86"/>
<mask id="path-212-inside-1" fill="white">
<path d="M263.18 410.45L262.283 368.78L108.801 456.79V501.244"/>
</mask>
<path d="M263.18 410.45L262.283 368.78L108.801 456.79V501.244" fill="#F8FCFF"/>
<path d="M262.283 368.78L261.805 367.947L263.208 367.143L263.243 368.759L262.283 368.78ZM108.801 456.79H107.841V456.234L108.323 455.957L108.801 456.79ZM262.221 410.471L261.323 368.801L263.243 368.759L264.14 410.429L262.221 410.471ZM262.76 369.613L109.279 457.623L108.323 455.957L261.805 367.947L262.76 369.613ZM109.761 456.79V501.244H107.841V456.79H109.761Z" fill="#E9EBFF" mask="url(#path-212-inside-1)"/>
<path d="M258.367 377.495C257.124 377.495 256.117 376.488 256.117 375.245C256.117 374.003 257.124 372.995 258.367 372.995C259.609 372.995 260.617 374.003 260.617 375.245C260.617 376.488 259.609 377.495 258.367 377.495Z" fill="#1B215B"/>
<path d="M113.295 461.797C112.053 461.797 111.046 460.79 111.046 459.547C111.046 458.304 112.053 457.297 113.295 457.297C114.538 457.297 115.545 458.304 115.545 459.547C115.545 460.79 114.538 461.797 113.295 461.797Z" fill="#1B215B"/>
<path d="M224.703 447.665C224.703 447.665 224.788 450.099 222.861 451.422C220.934 452.744 213.917 450.249 213.075 451.422C211.911 453.044 214.194 459.069 219.066 457.84C221.503 457.225 222.652 459.71 224.512 460.195C226.24 460.646 227.618 460.326 228.418 460.195C231.025 459.771 230.767 449.136 230.767 449.136L224.703 447.665Z" fill="#733DFF"/>
<path d="M219.14 458.061C221.577 457.447 222.652 459.71 224.512 460.195C226.24 460.646 227.618 460.326 228.418 460.195C229.161 460.074 229.729 459.332 230.123 457.968C228.129 458.82 226.511 459.135 225.267 458.913C223.062 458.518 222.701 456.799 219.952 456.987L219.687 457.011C217.795 457.213 215.443 455.958 212.631 453.246C213.312 455.753 215.768 458.912 219.14 458.061Z" fill="#733DFF"/>
<path d="M251.307 416.534C251.307 416.534 264.412 425.684 256.649 432.539C253.762 435.088 247.616 431.799 234.518 425.68C233.523 425.215 234.518 426.379 234.518 428.978C234.518 431.578 233.392 445.38 232.612 447.989C231.832 450.597 227.564 450.1 226.363 449.723C225.161 449.346 222.705 448.615 222.705 446.399C222.705 444.184 218.834 412.512 224.439 410.402C230.043 408.291 251.307 416.534 251.307 416.534Z" fill="#380085"/>
<path d="M231.484 410.38L231.485 418.105L221.773 416.849C220.575 426.703 222.663 444.393 222.704 446.345L222.705 446.399C222.705 448.289 224.491 449.099 225.763 449.53L226.362 449.723C227.564 450.1 231.832 450.598 232.612 447.989C233.379 445.424 234.48 432.035 234.516 429.118L234.517 428.978C234.517 426.379 233.523 425.215 234.517 425.68L241.013 428.728C241.663 429.031 242.29 429.321 242.894 429.599L241.01 412.852C237.457 411.714 234.414 410.914 231.88 410.45L231.484 410.38Z" fill="black" fill-opacity="0.28827"/>
<path d="M244.759 451.439L242.525 458.458L218.387 443.657C215.826 442.087 214.654 438.983 215.537 436.112L216.522 432.91L244.759 451.439Z" fill="#532CB9"/>
<path d="M252.089 412.371C251.061 411.807 249.811 411.833 248.807 412.439L218.672 430.632C216.534 431.923 216.557 435.033 218.716 436.291L244.704 451.441L256.214 414.632L252.089 412.371Z" fill="#3C1F86"/>
<path d="M220.619 356.68C220.619 356.68 219.48 357.004 218.21 356.904C216.941 356.803 215.074 357.401 214.628 356.457C214.182 355.513 216.673 355.251 216.852 354.627C216.935 354.339 215.827 353.044 214.671 351.664C213.325 350.057 211.912 348.334 212.231 347.944C212.823 347.219 216.351 351.038 216.351 351.038C216.351 351.038 213.195 347.09 213.603 346.413C214.011 345.737 217.334 349.408 217.334 349.408C217.334 349.408 214.808 345.987 215.503 345.296C216.198 344.605 218.402 347.789 218.402 347.789C218.402 347.789 217.634 344.716 218.196 344.605C218.444 344.556 219.316 345.97 220.81 348.847C221.185 349.567 222.179 350.568 223.008 352.237C223.295 352.815 223.557 354.337 223.557 354.337L220.619 356.68Z" fill="#FFAF8A"/>
<path d="M255.402 380.523C255.402 380.523 243.212 372.156 237.453 367.245C231.694 362.334 226.808 354.371 224.03 354.371C221.252 354.371 219.488 355.871 220.299 358.538C221.11 361.206 228.272 371.22 230.171 373.721C232.071 376.222 247.031 388.371 247.031 388.371L255.402 380.523Z" fill="#380085"/>
<path d="M257.306 381.607C263.072 388.599 255.656 414.599 257.97 418.216C260.284 421.833 261.269 431.564 253.619 434.603C248.61 436.594 245.957 437.89 242.894 437.643C241.28 437.513 238.535 437.36 237.482 435.774C234.431 431.178 236.729 413.648 234.244 409.683C231.759 405.718 229.44 391.956 232.148 387.73C234.857 383.504 251.539 374.616 257.306 381.607Z" fill="#380085"/>
<path d="M239.897 382.081L239.928 382.018C236.227 383.843 233.178 386.123 232.148 387.73C229.479 391.895 231.692 405.321 234.136 409.504L234.244 409.683C235.348 411.444 235.508 415.884 235.612 420.677L237.482 421.653C236.006 409.073 236.006 398.634 237.482 390.334C238.062 387.072 238.82 384.421 239.756 382.383L239.928 382.018L239.897 382.081Z" fill="black" fill-opacity="0.28827"/>
<path d="M206.017 455.289C206.017 455.289 206.272 457.711 204.442 459.165C202.612 460.619 197.575 458.588 195.061 461.316C193.621 462.877 195.998 465.199 200.55 466.488C203.947 467.449 208.96 467.915 210.598 467.53C213.168 466.924 211.876 455.958 211.876 455.958L206.017 455.289Z" fill="#733DFF"/>
<path d="M195.061 461.315C193.621 462.877 195.998 465.199 200.55 466.487C203.947 467.449 208.96 467.915 210.598 467.53C211.095 467.412 211.484 467.004 211.765 466.305C204.962 466.292 197.48 464.205 195.855 462.555C195.465 462.159 195.215 461.73 195.105 461.27L195.061 461.315Z" fill="#733DFF"/>
<path d="M234.81 419.797C234.81 419.797 253.729 425.842 249.844 434.918C247.256 440.964 228.508 436.022 215.41 429.904C214.415 429.439 215.41 430.603 215.41 433.202C215.41 435.802 215.163 453.192 214.383 455.801C213.603 458.41 209.336 457.912 208.134 457.535C206.932 457.158 204.476 456.427 204.476 454.211C204.476 451.996 200.605 420.324 206.21 418.214C211.814 416.103 234.81 419.797 234.81 419.797Z" fill="#380085"/>
<path d="M283.511 425.933C283.595 426.411 283.693 426.882 283.797 427.354L282.556 427.595C281.591 427.783 280.656 427.153 280.468 426.187C280.289 425.264 280.858 424.368 281.753 424.128L281.877 424.099L283.183 423.844C283.278 424.529 283.387 425.229 283.511 425.933Z" fill="#733DFF"/>
<path d="M236.366 410.802L241.329 411.237C242.309 411.322 243.034 412.186 242.948 413.166C242.866 414.105 242.069 414.81 241.141 414.791L241.019 414.785L237.393 414.522C236.884 414.485 236.485 414.07 236.466 413.56L236.407 411.933C236.386 411.332 236.895 410.848 237.494 410.901L241.329 411.237L236.366 410.802Z" fill="#733DFF"/>
<path d="M258.521 421.507C252.283 423.223 246.4 423.844 236.942 421.613L237.017 418.247C237.017 418.247 248.987 419.91 257.609 418.198C266.231 416.486 260.986 420.829 258.521 421.507Z" fill="#733DFF"/>
<path d="M210.795 427.225C209.202 428.197 209.336 438.391 211.195 457.809C212.587 457.69 213.971 457.178 214.383 455.801C215.141 453.266 215.395 436.77 215.409 433.456L215.41 433.202C215.41 430.671 214.467 429.501 215.335 429.87L216.696 430.499L216.351 430.07C214.075 427.302 212.223 426.354 210.795 427.225Z" fill="black" fill-opacity="0.28827"/>
<path d="M200.34 382.955C200.34 382.955 200.969 381.95 201.224 380.702C201.48 379.454 202.577 377.824 201.786 377.135C200.996 376.447 200.052 378.769 199.398 378.769C199.096 378.769 198.151 377.347 197.135 375.855C195.954 374.118 194.678 372.286 194.213 372.484C193.347 372.854 196.063 377.298 196.063 377.298C196.063 377.298 193.118 373.175 192.35 373.381C191.582 373.588 194.213 377.793 194.213 377.793C194.213 377.793 191.603 374.422 190.742 374.9C189.88 375.378 192.35 378.373 192.35 378.373C192.35 378.373 189.676 376.318 189.413 376.828C189.296 377.053 190.335 378.751 192.705 380.98C193.299 381.539 193.991 382.771 195.377 384.027C195.856 384.462 197.256 385.134 197.256 385.134L200.34 382.955Z" fill="#FFAF8A"/>
<path d="M212.536 400.836C208.904 398.805 197.299 386.478 197.299 385.318C197.299 384.158 199.864 381.092 202.044 381.632C204.224 382.172 214.279 392.715 217.361 392.715C219.43 392.715 233.448 384.981 238.416 386.791C239.448 387.167 238.027 388.943 238.416 390.261C241.667 401.277 216.168 402.866 212.536 400.836Z" fill="#380085"/>
<path d="M254.828 381.359L254.99 381.356C256.39 385.125 256.144 388.375 250.684 390.408C246.36 392.019 240.019 391.39 236.612 386.606L236.373 386.262C236.612 385.73 237.136 384.515 238.345 384.01C240.943 387.522 245.288 388.786 249.432 387.323C252.142 386.367 253.182 383.675 251.872 381.623L251.823 381.461C253.072 381.08 253.831 381.389 254.828 381.359L254.99 381.356L254.828 381.359Z" fill="#733DFF"/>
<path d="M248.865 380.916L248.478 377.137C248.478 377.137 252.171 366.122 250.489 362.679C248.808 359.237 238.581 357.212 237.02 361.565C235.458 365.918 234.312 377.904 237.02 378.982C239.727 380.06 239.981 379.415 239.981 379.415L240.933 382.522C240.933 382.522 242.856 383.657 245.452 382.941C248.048 382.224 248.865 380.916 248.865 380.916Z" fill="#FFAF8A"/>
<path d="M249.677 374.709C247.695 377.061 245.281 377.426 243.54 375.317C241.798 373.207 243.315 368.549 241.501 367.723C239.687 366.897 239.918 371.871 238.93 371.371C237.941 370.871 239.066 365.603 237.941 364.345C236.817 363.086 235.038 363.903 235.038 361.492C235.038 359.081 239.31 356.626 242.497 357.509C245.685 358.393 248.411 357.069 251.015 360.134C253.619 363.2 251.66 372.358 249.677 374.709Z" fill="#380085"/>
<path d="M287.196 381.165C289.479 379.949 292.263 380.182 294.311 381.763L296.196 383.218L247.308 479.806L221.132 466.703L239.647 456.712L242.484 458.187L261.475 397.029C261.988 395.374 263.135 393.989 264.664 393.174L287.196 381.165Z" fill="#F8FCFF"/>
<path d="M297.328 386.675C297.562 384.004 294.674 382.19 292.37 383.56L268.481 397.759C267.763 398.185 267.235 398.868 267.002 399.669L244.167 478.301L225.639 464.352L222.9 465.781C221.813 466.348 221.132 467.472 221.132 468.698V471.49C221.132 472.709 221.805 473.827 222.882 474.398L244.268 485.722C246.287 486.792 248.717 486.737 250.686 485.577L287.799 463.721C289.631 462.642 290.829 460.744 291.015 458.626L297.328 386.675Z" fill="#532CB9"/>
<path d="M242.484 458.187L239.697 456.685L225.423 464.388C224.969 464.633 224.598 465.007 224.357 465.463C223.71 466.689 224.138 468.198 225.31 468.906L225.443 468.982L233.402 473.187L238.21 475.589L242.484 458.187Z" fill="#3C1F86"/>
<path d="M474.043 390.72V434.122C474.043 441.246 477.832 447.832 483.992 451.413L508.358 465.577L488.194 476.95L460.958 461.16C454.787 457.583 450.989 450.99 450.989 443.858V403.504L474.043 390.72Z" fill="#D6D9FB"/>
<path d="M469.599 448.085C470.801 447.465 472.234 447.495 473.409 448.163L500.068 463.321C501.43 464.095 501.413 466.064 500.038 466.815L490.363 472.097C489.139 472.764 487.657 472.747 486.449 472.051L459.723 456.646C458.352 455.856 458.398 453.861 459.805 453.136L469.599 448.085Z" fill="#1B215B"/>
<path d="M450.746 403.067L450.489 403.209V403.504V443.821C450.489 451.152 454.403 457.925 460.756 461.584L476.886 470.876C481.219 473.372 486.63 470.244 486.63 465.243V423.993L509.819 411.648L515.368 414.883L515.403 472.898C515.408 481.289 510.916 489.06 503.653 493.264C496.345 497.493 487.309 497.489 480.017 493.235L456.509 479.519C449.274 475.297 444.832 467.543 444.852 459.166L444.989 400.857L468.415 388.081L473.024 390.714L450.746 403.067Z" fill="#F8FCFF" stroke="#D0D4FF"/>
<path d="M515.799 414.555L515.868 414.596L515.905 475.785C515.909 482.456 512.415 488.631 506.716 492.065L506.424 492.238L501.365 495.166C495.612 498.495 488.551 498.57 482.741 495.395L483.044 495.436C487.236 495.92 491.124 493.045 491.847 488.835C491.924 488.387 491.962 487.934 491.962 487.48V427.903L515.799 414.555Z" fill="#D6D9FB"/>
<path d="M461.197 416.291C463.611 417.316 466.676 415.537 468.043 412.318C469.409 409.099 468.56 405.658 466.145 404.633C463.731 403.609 460.666 405.387 459.3 408.607C457.933 411.826 458.783 415.266 461.197 416.291Z" fill="#1B215B"/>
<path d="M462.32 414.137C463.729 414.734 465.493 413.751 466.262 411.94C467.031 410.13 466.512 408.177 465.104 407.579C463.695 406.981 461.931 407.965 461.162 409.776C460.393 411.586 460.912 413.539 462.32 414.137Z" fill="#FF623F"/>
<path d="M461.197 433.705C463.611 434.729 466.676 432.951 468.043 429.731C469.409 426.512 468.56 423.072 466.145 422.047C463.731 421.022 460.666 422.801 459.3 426.02C457.933 429.239 458.783 432.68 461.197 433.705Z" fill="#1B215B"/>
<path d="M462.32 431.55C463.729 432.148 465.493 431.164 466.262 429.354C467.031 427.543 466.512 425.59 465.104 424.993C463.695 424.395 461.931 425.378 461.162 427.189C460.393 429 460.912 430.952 462.32 431.55Z" fill="#FF3F87"/>
<path d="M467.629 456.37C466.524 457.463 457.614 441.404 460.952 429.459C464.29 417.513 463.873 409.919 463.873 409.919C463.873 409.919 472.769 422.702 472.769 429.459C472.769 436.216 471.526 454.719 471.526 454.719C471.526 454.719 470.851 455.351 470.558 455.428C469.188 455.786 468.235 455.77 467.629 456.37Z" fill="#733DFF" stroke="#D0D4FF" stroke-width="0.5"/>
<path d="M472.769 429.459L472.766 430.152C472.727 434.801 472.314 442.99 471.526 454.719C471.076 455.14 470.754 455.377 470.558 455.428C469.188 455.786 468.235 455.77 467.629 456.37C467.367 456.629 466.665 455.924 465.793 454.537C464.9 449.796 464.207 442.476 465.19 436.896C465.941 432.639 467.841 427.665 470.889 421.975C472.143 424.894 472.769 427.388 472.769 429.459Z" fill="#3C1F86"/>
<path d="M471.149 459.288C470.109 458.283 464.108 448.277 467.629 436.397C471.149 424.518 478.46 415.752 478.46 415.752C478.46 415.752 477.46 427.788 479.868 434.554C482.276 441.32 478.46 456.37 478.46 456.37C478.46 456.37 477.642 457.911 477.053 458.145C475.965 458.576 475.105 457.911 474.053 458.145C472.51 458.487 471.544 459.67 471.149 459.288Z" fill="#733DFF" stroke="#D0D4FF" stroke-width="0.5"/>
<path d="M479.731 434.156L479.868 434.554C481.473 439.065 481.004 446.337 478.46 456.37C477.915 457.397 477.446 457.989 477.053 458.144C475.965 458.576 475.106 457.911 474.054 458.144C473.878 458.184 473.709 458.234 473.548 458.291L473.331 457.51C471.549 450.961 469.334 439.318 473.736 434.543C475.739 432.37 477.254 429.531 478.281 426.024C478.486 429.164 478.97 431.875 479.731 434.156Z" fill="#3C1F86"/>
<path d="M484.746 458.328C483.915 459.422 483.227 460.074 482.681 460.282L482.08 460.511C481.766 460.624 481.559 460.665 480.567 460.878C478.735 461.272 477.612 462.934 477.186 462.163L477.153 462.093C476.492 460.59 470.069 441.097 476.111 434.543C480.221 430.085 482.276 422.817 482.276 412.74C484.551 416.276 486.29 419.685 487.493 422.968L486.13 423.693" fill="#733DFF"/>
<path d="M484.746 458.328C483.915 459.422 483.227 460.074 482.681 460.282L482.08 460.511C481.766 460.624 481.559 460.665 480.567 460.878C478.735 461.272 477.612 462.934 477.186 462.163L477.153 462.093C476.492 460.59 470.069 441.097 476.111 434.543C480.221 430.085 482.276 422.817 482.276 412.74C484.551 416.276 486.29 419.685 487.493 422.968L486.13 423.693" stroke="#D0D4FF" stroke-width="0.5"/>
<path d="M484.547 431.509L484.547 458.586C483.805 459.525 483.183 460.091 482.681 460.282L482.08 460.511L481.903 460.57C481.684 460.638 481.431 460.693 480.82 460.824L480.675 460.143C479.523 454.62 478.564 447.373 479.63 444.262L479.688 444.102C480.594 441.742 480.045 437.711 478.04 432.008C478.839 430.738 479.524 429.313 480.097 427.734C481.743 429.017 483.226 430.276 484.547 431.509Z" fill="#3C1F86"/>
<path d="M486.13 465.644C485.149 466.046 484.548 467.375 484.298 467.183C483.368 466.47 479.417 449.501 481.213 444.262L481.271 444.102C482.562 440.739 480.897 433.979 476.276 423.824C480.208 426.484 483.492 429.046 486.13 431.509" fill="#733DFF"/>
<path d="M486.13 465.644C485.149 466.046 484.548 467.375 484.298 467.183C483.368 466.47 479.417 449.501 481.213 444.262L481.271 444.102C482.562 440.739 480.897 433.979 476.276 423.824C480.208 426.484 483.492 429.046 486.13 431.509" stroke="#D0D4FF" stroke-width="0.5"/>
<path d="M471.168 460.824C471.168 460.824 471.057 458.782 471.827 457.821C472.597 456.86 475.124 457.315 475.124 457.315L477.259 463.582C477.259 463.582 476.95 460.824 478.642 460.824C480.334 460.824 481.208 458.578 481.616 459.701C482.023 460.824 483.484 468.252 483.484 468.252H484.866C484.866 468.252 483.624 466.929 484.547 465.256C485.469 463.582 486.13 463.926 486.13 463.926V467.608L484.866 469.581L471.168 460.824Z" fill="#1B215B"/>
<path d="M518.628 572.348H525.767C526.129 572.348 526.482 572.457 526.781 572.661L528.085 573.549C529.069 574.22 529.138 575.64 528.197 576.37C527.139 577.192 525.788 578.192 524.589 578.924C523.456 579.617 520.579 581.174 517.844 582.632C515.218 584.032 512.092 581.996 512.289 579.028L512.685 573.062L518.628 572.348Z" fill="#733DFF"/>
<path d="M493.249 568.679C492.704 568.989 492.36 569.559 492.34 570.185L492.225 573.67L492.221 574.911C492.218 575.851 492.94 576.638 493.879 576.68C494.741 576.718 495.676 576.731 495.985 576.632C497.529 576.135 498.263 574.639 498.677 574.429C499.68 573.917 501.283 572.306 501.283 572.306L505.109 570.878C506.112 570.504 506.569 569.344 506.091 568.386L505.811 567.827C505.541 567.287 505.018 566.918 504.418 566.844L498.464 566.119C498.08 566.072 497.692 566.15 497.356 566.341L493.249 568.679Z" fill="#733DFF"/>
<path d="M499.654 464.694C499.654 464.694 500.58 462.263 501.309 458.886C502.037 455.509 499.079 447.074 499.079 447.074L512.922 441.999C512.922 441.999 513.207 448.816 513.207 452.319C513.207 455.071 511.891 457.125 511.326 457.881C511.168 458.092 510.938 458.233 510.682 458.301L508.774 458.811L509.758 464.694L507.139 467.197L499.654 464.694Z" fill="#FFAF8A"/>
<path d="M524.433 481.596L533.522 472.482C534.004 471.999 534.111 471.257 533.785 470.658L524.265 465.015C523.915 464.807 523.47 464.857 523.175 465.138L513.921 473.935L524.433 481.596Z" fill="#733DFF"/>
<path d="M523.279 465.039L514.375 473.502L524.433 480.833L533.711 471.53C533.857 471.384 533.927 471.19 533.92 470.999C533.901 470.924 533.875 470.851 533.844 470.78L533.785 470.658L524.142 464.941C523.865 464.777 523.512 464.817 523.279 465.039Z" fill="#D6D9FB"/>
<path d="M524.528 479.821L532.712 471.702C533.093 471.323 533.012 470.685 532.548 470.414L524.372 465.642C524.07 465.466 523.689 465.501 523.424 465.73L515.036 472.976L524.528 479.821Z" fill="white"/>
<path d="M523.517 465.65L515.036 472.976L524.528 479.821L525.453 478.904C526.4 474.704 526.878 470.772 526.887 467.11L524.267 465.581C524.028 465.441 523.726 465.469 523.517 465.65Z" fill="black" fill-opacity="0.169362"/>
<path d="M514.956 471.457L519.725 473.182C520.821 473.579 522.049 473.273 522.832 472.409C523.371 471.814 522.673 470.91 521.953 471.263C521.758 471.358 521.612 471.427 521.538 471.457C521.055 471.653 520.404 470.57 520.404 470.57L523.883 469.462C524.682 469.207 525.063 468.298 524.645 467.57C524.174 466.752 523.587 465.831 523.198 465.572C522.582 465.16 519.054 465.433 517.879 465.537C517.629 465.559 517.393 465.652 517.193 465.804L513.423 468.666L514.956 471.457Z" fill="#FFAF8A"/>
<mask id="mask0" mask-type="alpha" maskUnits="userSpaceOnUse" x="513" y="465" width="12" height="9">
<path d="M514.956 471.457L519.725 473.182C520.821 473.579 522.049 473.273 522.832 472.409C523.371 471.814 522.673 470.91 521.953 471.263C521.758 471.358 521.612 471.427 521.538 471.457C521.055 471.653 520.404 470.57 520.404 470.57L523.883 469.462C524.682 469.207 525.063 468.298 524.645 467.57C524.174 466.752 523.587 465.831 523.198 465.572C522.582 465.16 519.054 465.433 517.879 465.537C517.629 465.559 517.393 465.652 517.193 465.804L513.423 468.666L514.956 471.457Z" fill="white"/>
</mask>
<g mask="url(#mask0)">
</g>
<path d="M500.717 461.07L492.865 462.566C492.575 462.621 492.322 462.792 492.163 463.036L492.108 463.131L483.867 479.089C482.898 480.967 483.051 483.228 484.266 484.958C484.364 485.098 484.475 485.229 484.597 485.349C485.685 486.425 487.415 486.454 488.538 485.443L488.66 485.326L493.574 480.236L494.067 489.053C494.803 492.245 494.55 495.583 493.346 498.624L493.208 498.961C493.208 498.961 491.488 505.018 490.741 509.806C489.994 514.594 491.314 546.633 491.314 546.633L491.824 568.226C491.837 568.798 492.294 569.259 492.865 569.28L493.574 569.3C494.603 569.323 495.281 569.302 495.61 569.237C496.75 569.013 497.598 568.262 498.13 567.976L498.239 567.923C499.184 567.508 499.958 560.566 500.56 547.095L500.58 546.633C500.58 546.633 502.178 519.581 502.258 519.743L507.327 550.68L510.893 574.803C510.904 574.877 510.92 574.951 510.94 575.023C511.207 575.98 512.199 576.54 513.156 576.273L513.692 576.122C515.59 575.577 516.759 575.152 517.201 574.845C517.776 574.447 518.515 573.281 519.42 571.349C519.513 571.15 519.568 570.937 519.585 570.719L519.589 570.555L519.235 550.035C519.235 550.035 515.584 507.525 515.365 501.948C515.126 495.891 515.858 490.864 517.561 486.869L517.724 486.497L522.984 494.95C523.738 496.161 525.039 496.919 526.457 496.982L526.651 496.987H527.966C528.126 496.987 528.286 496.975 528.445 496.951C530.136 496.694 531.315 495.156 531.144 493.472L531.124 493.314L528.7 477.312L524.814 481.151L520.475 469.796C520.406 469.616 520.29 469.458 520.14 469.338L520.046 469.271L510.357 463.101C506.978 463.595 504.527 463.595 503.003 463.101C501.545 462.629 500.785 461.989 500.721 461.181L500.717 461.07Z" fill="#380085"/>
<path d="M494.215 495.592L494.594 495.666C495.559 495.854 496.494 495.223 496.682 494.257C496.861 493.334 496.292 492.439 495.397 492.198L495.273 492.169L494.466 492.012C494.516 493.211 494.431 494.412 494.215 495.592Z" fill="#733DFF"/>
<path d="M493.372 499.349L493.208 499.753C492.942 500.626 492.69 501.472 492.455 502.29C494.69 503.074 497.059 503.607 499.561 503.889C503.49 504.331 508.774 504.267 515.412 503.699L515.372 502.902L515.365 502.74C515.336 502.008 515.321 501.292 515.321 500.59L514.942 500.628C514.882 500.633 514.823 500.638 514.765 500.643C508.652 501.139 503.481 500.952 500.046 500.643C497.759 500.437 495.535 500.006 493.372 499.349Z" fill="#733DFF"/>
<path d="M515.769 493.403L512.558 493.405C511.575 493.405 510.777 494.202 510.777 495.186C510.777 496.128 511.51 496.9 512.436 496.962L512.558 496.967L515.4 496.966C515.473 495.725 515.596 494.538 515.769 493.403Z" fill="#733DFF"/>
<path d="M498.668 461.461L494.957 462.168C494.742 466.773 497.344 469.782 502.569 470.673C507.878 471.579 512.288 470.14 515.596 466.436L512.542 464.494C510.097 466.99 506.995 467.918 503.168 467.162C500.578 466.651 498.403 464.877 498.668 461.461Z" fill="#733DFF"/>
<path d="M493.556 474.213L487.925 485.865C488.143 485.754 488.349 485.613 488.538 485.443L488.66 485.326L493.557 480.254L493.556 474.213Z" fill="black" fill-opacity="0.275213"/>
<path d="M526.656 479.365L524.814 481.151L527.63 489.214L526.656 479.365Z" fill="black" fill-opacity="0.275213"/>
<path d="M515.577 480.375C515.442 480.432 515.354 480.565 515.356 480.711L515.484 492.819C515.487 493.088 515.587 493.332 515.752 493.52C516.117 491.071 516.714 488.869 517.543 486.913L517.724 486.497L520.106 490.324L516.048 480.569C515.971 480.386 515.761 480.299 515.577 480.375Z" fill="black" fill-opacity="0.275213"/>
<path d="M516.531 445.227C517.004 446.43 516.105 448.315 515.71 450.294C515.48 451.447 515.782 452.393 515.71 452.692C515.671 452.854 514.291 452.344 514.071 451.723C513.804 450.966 514.31 449.078 514.071 449.065C511.482 448.921 512.706 453.527 507.614 458.52C505.858 460.242 500.968 459.165 500.968 459.165C500.968 459.165 498.293 455.412 498.023 451.535C497.383 442.361 506.33 439.925 507.928 441.879C511.031 439.689 515.378 442.293 516.531 445.227Z" fill="#0D134E"/>
<path d="M499.409 447.189H499.884C501.195 447.189 502.258 448.252 502.258 449.563C502.258 450.875 501.195 451.938 499.884 451.938H499.409V447.189Z" fill="#5C66C0"/>
<path d="M500.53 450.792C497.848 452.217 496.106 455.002 496.805 457.958C497.07 459.079 497.45 460.329 497.991 461.639C499.91 466.278 496.943 476.702 496.943 476.702C496.943 476.702 495.241 469.693 493.297 467.597C491.354 465.501 490.303 463.352 489.394 459.893C489.142 458.933 488.909 456.739 488.703 454.07C488.208 447.653 495.789 444.098 500.58 448.395C500.58 448.395 501.34 448.677 501.34 449.578C501.34 450.478 500.53 450.792 500.53 450.792Z" fill="#0D134E"/>
<path d="M542.255 376.352C541.87 376.134 541.398 376.132 541.011 376.349L539.136 377.399L533.391 442.795C533.35 443.26 533.569 443.71 533.96 443.966L575.777 471.33L578.04 469.987C578.381 469.784 578.607 469.434 578.652 469.04L586.236 402.17C586.294 401.666 586.044 401.175 585.602 400.925L542.255 376.352Z" fill="#733DFF"/>
<path d="M555.284 437.456L573.544 542.285" stroke="#512BB5" stroke-width="4.4" stroke-linecap="round"/>
<path d="M554.557 436.708L532.857 519.81" stroke="#512BB5" stroke-width="4.4" stroke-linecap="round"/>
<path d="M553.347 442.172L586.331 511.003" stroke="#512BB5" stroke-width="4.4" stroke-linecap="round"/>
<path d="M540.191 377.931C539.597 377.588 538.847 377.968 538.771 378.65L531.406 445.086C531.365 445.461 531.55 445.826 531.877 446.014L574.887 470.74C575.481 471.081 576.231 470.701 576.306 470.02L583.601 403.675C583.642 403.301 583.458 402.937 583.132 402.749L540.191 377.931Z" fill="#F8FCFF" stroke="#D0D4FF" stroke-width="0.6336"/>
<path d="M568.809 438.135C568.931 437.216 568.487 436.315 567.684 435.852L544.062 422.261C543.434 421.9 542.641 422.292 542.546 423.011L540.302 440.116C540.181 441.034 540.627 441.935 541.431 442.395L565.019 455.905C565.646 456.264 566.437 455.873 566.533 455.157L568.809 438.135Z" fill="#9286FF" fill-opacity="0.193018" stroke="#B399FF" stroke-width="0.5"/>
<path d="M562.056 449.371V449.351L562.06 449.331L563.73 439.06C563.72 438.745 563.461 438.492 563.143 438.492C562.819 438.492 562.556 438.755 562.556 439.079V439.099L562.553 439.119L560.883 449.39C560.892 449.705 561.151 449.958 561.469 449.958C561.793 449.958 562.056 449.695 562.056 449.371Z" fill="#ED7F3F" stroke="#FF623F" stroke-width="0.5"/>
<path d="M558.708 447.697V447.679L558.711 447.66L559.766 440.648C559.757 440.332 559.498 440.078 559.179 440.078C558.997 440.078 558.92 440.119 558.858 440.187C558.776 440.276 558.699 440.433 558.586 440.729L557.535 447.714C557.544 448.031 557.803 448.284 558.121 448.284C558.446 448.284 558.708 448.022 558.708 447.697Z" fill="#ED7F3F" stroke="#FF623F" stroke-width="0.5"/>
<path d="M555.36 446.023V446.001L555.364 445.98L556.875 437.525C556.864 437.21 556.606 436.958 556.288 436.958C556.118 436.958 555.977 437.014 555.862 437.12C555.745 437.228 555.642 437.4 555.576 437.651L554.187 446.042C554.197 446.358 554.456 446.61 554.773 446.61C555.098 446.61 555.36 446.348 555.36 446.023Z" fill="#ED7F3F" stroke="#FF623F" stroke-width="0.5"/>
<path d="M545.317 439.328V439.307L545.32 439.288L546.673 430.943C546.663 430.628 546.404 430.375 546.086 430.375C545.762 430.375 545.499 430.638 545.499 430.962V430.982L545.496 431.002L544.143 439.346C544.153 439.662 544.412 439.915 544.73 439.915C545.054 439.915 545.317 439.652 545.317 439.328Z" fill="#ED7F3F" stroke="#FF623F" stroke-width="0.5"/>
<path d="M548.672 440.935L549.824 433.938C549.821 433.762 549.768 433.622 549.69 433.529C549.614 433.437 549.503 433.377 549.344 433.377C549.138 433.377 549.038 433.409 548.959 433.476C548.868 433.552 548.769 433.702 548.643 434.024L547.491 441.021C547.494 441.213 547.535 441.34 547.593 441.414C547.643 441.48 547.727 441.534 547.894 441.534C548.103 441.534 548.235 441.503 548.341 441.43C548.446 441.357 548.558 441.219 548.672 440.935Z" fill="#ED7F3F" stroke="#FF623F" stroke-width="0.5"/>
<path d="M552.012 443.512V443.488L552.017 443.464L553.867 434.181C553.855 433.867 553.597 433.617 553.28 433.617C552.956 433.617 552.693 433.879 552.693 434.204V434.228L552.688 434.253L550.839 443.535C550.851 443.849 551.109 444.099 551.425 444.099C551.75 444.099 552.012 443.837 552.012 443.512Z" fill="#ED7F3F" stroke="#FF623F" stroke-width="0.5"/>
<path d="M573.071 412.173C573.194 411.255 572.749 410.353 571.946 409.89L548.324 396.3C547.696 395.938 546.903 396.331 546.809 397.049L544.564 414.154C544.443 415.072 544.889 415.973 545.693 416.433L569.281 429.943C569.908 430.302 570.699 429.912 570.795 429.195L573.071 412.173Z" fill="#9286FF" fill-opacity="0.193018" stroke="#B399FF" stroke-width="0.5"/>
<path d="M559.868 417.665C560.03 419.211 560.657 420.551 561.528 421.47C562.399 422.388 563.502 422.876 564.632 422.757C565.762 422.638 566.74 421.932 567.401 420.853C568.062 419.773 568.396 418.332 568.234 416.785C568.071 415.239 567.444 413.899 566.573 412.98C565.703 412.062 564.599 411.574 563.469 411.693C562.339 411.812 561.361 412.518 560.701 413.598C560.04 414.677 559.705 416.118 559.868 417.665Z" fill="#ED7F3F" stroke="#FF623F" stroke-width="0.5"/>
<path d="M551.47 406.959C552.041 408.37 553.372 409.055 554.389 408.644C555.406 408.234 555.888 406.815 555.318 405.404C554.748 403.993 553.416 403.308 552.399 403.719C551.382 404.13 550.9 405.548 551.47 406.959Z" fill="#9286FF" fill-opacity="0.193018" stroke="#B399FF" stroke-width="0.5"/>
<path d="M554.888 415.508C555.22 416.331 555.957 416.687 556.473 416.479C556.988 416.271 557.271 415.502 556.939 414.68C556.607 413.857 555.869 413.501 555.354 413.709C554.838 413.917 554.555 414.686 554.888 415.508Z" fill="#9286FF" fill-opacity="0.193018" stroke="#B399FF" stroke-width="0.5"/>
<path d="M549.075 412.408C549.407 413.231 550.145 413.587 550.66 413.379C551.176 413.171 551.459 412.402 551.126 411.58C550.794 410.757 550.057 410.401 549.541 410.609C549.025 410.817 548.743 411.586 549.075 412.408Z" fill="#FF623F" stroke="#F8458D" stroke-width="0.5"/>
<mask id="path-296-inside-2" fill="white">
<path d="M554.116 408.883L555.284 413.519L554.116 408.883Z"/>
</mask>
<path d="M554.116 408.883L555.284 413.519L554.116 408.883Z" fill="#9286FF" fill-opacity="0.193018"/>
<path d="M554.601 408.761L555.769 413.397L554.799 413.641L553.631 409.005L554.601 408.761Z" fill="#B399FF" mask="url(#path-296-inside-2)"/>
<mask id="path-298-inside-3" fill="white">
<path d="M551.355 412.733L554.568 414.858L551.355 412.733Z"/>
</mask>
<path d="M551.355 412.733L554.568 414.858L551.355 412.733Z" fill="#9286FF" fill-opacity="0.193018"/>
<path d="M551.631 412.316L554.844 414.441L554.292 415.275L551.079 413.15L551.631 412.316Z" fill="#B399FF" mask="url(#path-298-inside-3)"/>
<path d="M567.161 466.54L564.414 467.561L538.843 453.137L539.621 448.577C539.724 447.975 540.394 447.658 540.924 447.96L565.056 461.716C565.36 461.889 565.533 462.227 565.495 462.575L565.181 465.469L567.161 466.54Z" fill="#733DFF"/>
<path d="M553.224 380.489C553.15 380.448 553.06 380.448 552.984 380.487L549.902 382.111L550.37 386.982C550.378 387.065 550.426 387.138 550.498 387.179L569.761 398.017L570.699 397.501V395.046L573.034 393.859L573.034 391.453C573.034 391.36 572.983 391.275 572.902 391.23L553.224 380.489Z" fill="#512BB5"/>
<path d="M550.277 382.313C550.108 382.222 549.903 382.345 549.904 382.537L549.918 387.273C549.918 387.366 549.97 387.452 550.052 387.496L569.512 397.945C569.681 398.036 569.886 397.913 569.885 397.72L569.858 393.004C569.857 392.911 569.806 392.826 569.725 392.782L550.277 382.313Z" fill="#733DFF"/>
<path d="M81 679.4V698L80.9845 698C80.4832 707.663 67.9221 715.4 52.5 715.4C37.0779 715.4 24.5168 707.663 24.0155 698L24 698V679.4H81Z" fill="#F8FCFF"/>
<path d="M81 679.4V698L80.9845 698C80.5711 705.969 71.9571 712.627 60.3005 714.717L59.442 679.4H81Z" fill="#D6D9FB"/>
<path d="M52.5 698C68.2401 698 81 689.941 81 680C81 670.059 68.2401 662 52.5 662C36.7599 662 24 670.059 24 680C24 689.941 36.7599 698 52.5 698Z" fill="#D6D9FB"/>
<path d="M52.2 692C63.4667 692 72.6 686.224 72.6 679.1C72.6 671.975 63.4667 666.2 52.2 666.2C40.9334 666.2 31.8 671.975 31.8 679.1C31.8 686.224 40.9334 692 52.2 692Z" fill="#1B215B"/>
<path d="M51.5 679.5C51.5 679.5 51.8015 661.002 47.0368 636.455C42.272 611.908 34.8943 597.595 34.8943 597.595C34.8943 597.595 41.8913 630.93 43.2061 639.882C44.521 648.834 48.3064 679.4 48.3064 679.4L51.5 679.5Z" fill="#733DFF"/>
<path d="M44.999 627.249L44.9668 626.792C45.6936 629.869 46.3836 633.09 47.0368 636.455C50.1377 652.43 51.6293 666.483 51.5115 678.616L51.5 679.5L49.7116 679.445L49.5744 678.665C48.7464 673.768 47.8356 664.986 46.842 652.319L46.278 644.895C45.9982 641.142 45.7035 637.107 45.3939 632.791L44.9668 626.792L44.999 627.249Z" fill="black" fill-opacity="0.275213"/>
<path d="M56.2399 679C56.2399 679 55.2726 675.678 58.2059 661.143C61.1391 646.609 64 642 64 642C64 642 62.155 650.241 61.3456 655.542C60.5362 660.842 58.2059 678.941 58.2059 678.941L56.2399 679Z" fill="#733DFF"/>
<path d="M57.159 678.971L56.2399 679C55.595 676.785 56.2504 670.833 58.2059 661.143L58.5127 659.649C59.2793 655.981 60.0423 652.823 60.8015 650.175L59.2906 661.932C58.662 666.895 57.9515 672.574 57.159 678.971Z" fill="black" fill-opacity="0.275213"/>
<path d="M52.9123 679.5C52.9123 679.5 51.3411 673.889 56.1058 649.342C60.8706 624.795 65.5179 617.012 65.5179 617.012C65.5179 617.012 62.521 630.93 61.2061 639.882C59.8913 648.834 56.1058 679.4 56.1058 679.4L52.9123 679.5Z" fill="#733DFF"/>
<path d="M47.7602 679C47.7602 679 48.7274 675.678 45.7942 661.143C42.8609 646.609 37.6765 633.199 37.6765 633.199C37.6765 633.199 41.845 650.241 42.6544 655.542C43.4638 660.842 45.7942 678.941 45.7942 678.941L47.7602 679Z" fill="#733DFF"/>
<path d="M49.9123 679.5C49.9123 679.5 50.6107 640.002 55.3755 615.455C60.1403 590.908 67.5179 576.595 67.5179 576.595C67.5179 576.595 60.521 609.93 59.2061 618.882C57.8913 627.834 53.1058 679.4 53.1058 679.4L49.9123 679.5Z" fill="#733DFF"/>
<path d="M54.1681 649.142L54.2 649.44C54.5567 652.828 54.7855 656.49 54.8863 660.429L54.0308 669.486C53.7341 672.648 53.4258 675.952 53.1059 679.4L51.7116 679.445L51.6066 678.853C51.1669 676.3 50.7038 672.646 50.2172 667.89C50.6314 656.137 51.3497 645.503 52.3718 635.986L52.9596 639.958C53.524 643.854 53.9269 646.915 54.1681 649.142Z" fill="black" fill-opacity="0.275213"/>
<path d="M50.817 680C50.817 680 49.3892 672.734 47.6199 649.44C45.8505 626.146 43.2062 586.399 43.2062 586.399C43.2062 586.399 51.8774 636.88 53.2 649.44C54.5227 662 53.5 679.606 53.5 679.606L50.817 680Z" fill="#733DFF"/>
<path d="M72.1 565.1C72.1 568.43 69.9642 571.519 66.3578 573.799C62.7577 576.076 57.7535 577.5 52.2 577.5C46.6466 577.5 41.6424 576.076 38.0423 573.799C34.4359 571.519 32.3 568.43 32.3 565.1C32.3 561.769 34.4359 558.681 38.0423 556.401C41.6424 554.124 46.6466 552.7 52.2 552.7C57.7535 552.7 62.7577 554.124 66.3578 556.401C69.9642 558.681 72.1 561.769 72.1 565.1Z" fill="#9286FF" fill-opacity="0.193018" stroke="#ECEAFE"/>
<path d="M52.2 551.5C58.3494 551.5 63.9 553.058 67.9245 555.559C71.9545 558.062 74.3933 561.465 74.4966 565.154C74.4966 565.155 74.4967 565.157 74.4967 565.158L74.5 565.4V565.404V679.6C74.4144 683.299 71.9819 686.713 67.9504 689.225C63.9236 691.735 58.3624 693.3 52.2 693.3C46.1177 693.3 40.6207 691.776 36.6071 689.322C32.5914 686.868 30.1203 683.528 29.9141 679.897L29.9 565.403L29.9035 565.154C30.0067 561.465 32.4455 558.063 36.4755 555.559C40.5 553.058 46.0507 551.5 52.2 551.5Z" fill="#9286FF" fill-opacity="0.193018" stroke="#ECEAFE"/>
<defs>
<linearGradient id="paint0_linear" x1="-712.31" y1="335.094" x2="-594.112" y2="1044.62" gradientUnits="userSpaceOnUse">
<stop stop-color="#A8A8A8"/>
<stop offset="1" stop-color="#F6F6F6"/>
</linearGradient>
<linearGradient id="paint1_linear" x1="338.801" y1="632.495" x2="259.735" y2="637.838" gradientUnits="userSpaceOnUse">
<stop stop-color="#F5F6F9"/>
<stop offset="1" stop-color="#E4E7EC"/>
</linearGradient>
<linearGradient id="paint2_linear" x1="281.812" y1="665.739" x2="202.746" y2="671.082" gradientUnits="userSpaceOnUse">
<stop stop-color="#F5F6F9"/>
<stop offset="1" stop-color="#E4E7EC"/>
</linearGradient>
<linearGradient id="paint3_linear" x1="251.913" y1="669.341" x2="212.225" y2="671.258" gradientUnits="userSpaceOnUse">
<stop stop-color="#F5F6F9"/>
<stop offset="1" stop-color="#E4E7EC"/>
</linearGradient>
<linearGradient id="paint4_linear" x1="395.79" y1="665.739" x2="316.724" y2="671.082" gradientUnits="userSpaceOnUse">
<stop stop-color="#F5F6F9"/>
<stop offset="1" stop-color="#E4E7EC"/>
</linearGradient>
<linearGradient id="paint5_linear" x1="338.801" y1="698.983" x2="259.735" y2="704.326" gradientUnits="userSpaceOnUse">
<stop stop-color="#F5F6F9"/>
<stop offset="1" stop-color="#E4E7EC"/>
</linearGradient>
<linearGradient id="paint6_linear" x1="308.902" y1="702.585" x2="269.214" y2="704.502" gradientUnits="userSpaceOnUse">
<stop stop-color="#F5F6F9"/>
<stop offset="1" stop-color="#E4E7EC"/>
</linearGradient>
</defs>
</svg>
