<svg width="133" height="192" viewBox="0 0 133 192" fill="none" xmlns="http://www.w3.org/2000/svg">
<path d="M121.503 112.259V136.157L68.8705 167.42L76.3144 139.064L121.503 112.259Z" fill="#1B215B"/>
<path d="M11.6455 150.562L27.891 110.39L17.8511 115.753L17.7912 115.79C17.6814 115.866 17.5898 115.966 17.5237 116.083L1.66696 144.117L11.6455 150.562Z" fill="#5C66C0"/>
<path d="M11.6455 150.562L27.891 110.39L17.8502 115.753L17.7652 115.807C17.6681 115.877 17.586 115.967 17.5242 116.07L0.782536 144.117L11.6455 150.562Z" fill="#5C66C0"/>
<path d="M77.9672 145.925L78.0186 145.725L78.1963 145.619L125.614 117.47L125.87 117.9L125.614 117.47C126.03 117.224 126.301 116.793 126.343 116.312L132.167 49.8824C132.354 47.7491 131.286 45.7012 129.43 44.6339L106.336 31.3573C104.856 30.5061 103.063 30.391 101.486 31.0459L95.5406 33.5143C95.4312 33.5597 95.3415 33.6424 95.2875 33.7477L94.8426 33.5194L95.2875 33.7478L69.9111 83.1911L69.8431 83.3235L69.7139 83.3972L29.2157 106.489C28.926 106.654 28.6997 106.911 28.5723 107.219L10.8951 150.009C10.6179 150.68 10.8612 151.453 11.4728 151.845L16.1257 154.823C16.5818 155.115 17.1599 155.139 17.6381 154.885L31.6645 147.434L31.9122 147.302L32.1536 147.445L53.3798 160.002L53.3967 160.012L53.4128 160.023L55.5774 161.545L55.9081 161.778L55.75 162.15L50.7816 173.838C50.486 174.534 50.7539 175.341 51.4069 175.721L58.0373 179.584L68.4946 182.832L77.9672 145.925Z" fill="#F8FCFF" stroke="#E9EBFF"/>
<path d="M104.143 45.1055L108.931 41.1618C109.598 40.6125 110.542 40.5536 111.272 41.0158L124.856 49.6155C125.504 50.026 125.861 50.7713 125.773 51.5336L118.79 112.302C118.717 112.946 118.336 113.513 117.769 113.826L102.267 122.372C101.629 122.724 101.232 123.395 101.232 124.123V132.702" stroke="#5C66C0" stroke-width="0.5"/>
<path d="M66.3016 89.2518L59.9013 92.0453L58.124 99.6833L26.8693 123.836L18.7734 154.847L24.7256 151.686L77.1885 103.397L66.3016 89.2518Z" fill="black" fill-opacity="0.275213"/>
<path d="M116.289 127.255C116.935 126.922 117.71 126.967 118.314 127.37L127.893 133.768C128.449 134.139 128.783 134.763 128.783 135.431V152.28C128.783 153.004 128.391 153.671 127.76 154.025L90.4508 174.914V140.55L116.289 127.255Z" fill="#733DFF"/>
<path d="M127.996 133.837L118.201 127.295C117.708 126.965 117.085 126.907 116.543 127.131L116.409 127.193L93.2467 139.11L102.793 148.182L128.41 134.505L128.545 134.426C128.438 134.238 128.298 134.072 128.128 133.934L127.996 133.837L118.201 127.295L127.996 133.837Z" fill="black" fill-opacity="0.489401"/>
<path d="M124.744 141.765C125.268 141.471 125.916 141.85 125.916 142.451C125.916 142.738 125.761 143.001 125.51 143.14L102.793 155.717V154.097L124.744 141.765Z" fill="#0D124E"/>
<path d="M124.744 147.957C125.268 147.662 125.916 148.041 125.916 148.643C125.916 148.929 125.761 149.192 125.51 149.331L102.793 161.908V160.288L124.744 147.957Z" fill="#0D124E"/>
<path d="M106.394 133.689C105.334 132.235 103.343 131.822 101.792 132.735L77.9202 146.778L68.6943 182.966L81.8917 190.948C82.3677 191.236 82.964 191.237 83.4408 190.95L115.084 171.927C115.6 171.617 115.88 171.03 115.797 170.434L111.72 141.29C111.686 141.045 111.592 140.813 111.446 140.613L106.394 133.689Z" fill="#F8FCFF" stroke="#E9EBFF"/>
<path d="M104.808 142.802C104.808 142.802 105.619 143.679 105.619 144.382C105.619 144.986 106.818 161.692 107.158 166.417C107.212 167.18 106.827 167.895 106.166 168.279L94.7852 174.884C94.23 175.207 93.8632 175.776 93.7992 176.415L92.8098 186.286" stroke="#5C66C0" stroke-width="0.5"/>
<path d="M105.73 131.932C105.124 131.1 103.986 130.864 103.099 131.386L78.2051 146.031C77.7455 146.301 77.4129 146.744 77.2812 147.26L68.118 183.201L81.7845 191.521C82.1237 191.706 82.5077 191.771 82.8783 191.719L88.681 153.379C88.7703 152.789 89.1183 152.27 89.6302 151.963L110.991 139.158L105.73 131.932Z" fill="#5C66C0"/>
<path d="M117.614 50.376C118.345 50.7925 118.737 51.6225 118.595 52.4521L109.617 104.791C109.517 105.374 109.164 105.883 108.653 106.181L71.5811 127.802C71.1386 128.06 70.812 128.478 70.6686 128.97L56.7313 176.781C56.368 178.027 54.9318 178.603 53.8085 177.952L50.9401 176.29C50.1452 175.829 49.7663 174.886 50.0215 174.003L64.3803 124.349L103.139 100.912L114.907 57.0124C115.388 55.2182 114.571 53.329 112.934 52.4513L99.7069 45.3608C97.6647 44.266 95.1224 45.1301 94.1703 47.2426L76.1207 87.2908L35.1248 111.179L17.2696 154.242C16.8866 155.165 15.8802 155.664 14.9132 155.41L14.0597 155.185C12.8885 154.877 12.2578 153.607 12.7202 152.487L30.1658 110.258C30.3334 109.853 30.6298 109.513 31.0093 109.293L71.3969 85.8224L94.9769 39.8881C95.4969 38.8752 96.7564 38.5001 97.7458 39.0634L117.614 50.376Z" fill="#5C66C0"/>
<path d="M31.899 147.963L46.2217 112.719L76.1209 87.2909L95.034 44.6935C95.5142 43.6119 96.8235 43.1815 97.8518 43.7673L113.045 52.4211C114.626 53.3215 115.4 55.1753 114.929 56.9325L103.139 100.912L64.3805 124.349L53.7518 161.749L31.899 147.963Z" fill="#1B215B"/>
<path d="M90.8863 53.8672L88.9271 57.1157L76.1209 87.2911L46.2218 112.719L31.8991 147.964L53.7519 161.75L64.3806 124.35L97.6572 104.223L97.6491 101.446C97.576 87.5594 97.0169 79.3501 95.972 76.8179L95.8144 76.4482C94.6354 73.5723 93.0893 66.6082 91.1761 55.5558L90.8863 53.8672Z" fill="black" fill-opacity="0.275213"/>
<path d="M36.7615 118.85L43.0196 122.604C43.7729 123.055 44.6969 123.103 45.4883 122.741L45.6558 122.657L50.8135 119.842L43.61 114.949L42.5908 115.507C40.2671 116.784 38.324 117.898 36.7615 118.85Z" fill="black" fill-opacity="0.275213"/>
<path d="M87.2963 117.634L86.8774 131.63C86.8574 132.3 86.5036 132.915 85.9349 133.268L76.0221 139.437C75.6052 139.696 75.2983 140.1 75.1599 140.571L63.0899 181.643" stroke="#5C66C0" stroke-width="0.5"/>
<path d="M59.9018 106.488C59.9018 106.488 35.5771 118.73 32.4213 121.901C29.7806 124.554 23.2326 152.229 22.3888 157.512C22.0697 159.509 22.9085 162.536 22.3888 162.792C19.2051 164.357 16.4699 168.954 18.4903 169.77C20.5108 170.586 23.0436 171.098 25.0851 170.409C27.1266 169.72 26.0864 166.116 27.5973 163.32C27.9603 162.649 30.0058 161.541 31.1655 160.283C34.641 156.513 37.3826 147.748 38.5801 143.663C40.1565 138.285 41.3999 134.102 43.5666 133.082C45.7332 132.062 67.6162 117.632 67.6162 117.632L59.9018 106.488Z" fill="#733DFF"/>
<path d="M22.3888 157.511C22.1763 158.842 22.4774 160.629 22.5487 161.75C22.6834 161.556 22.7907 161.356 22.8706 161.151C23.8661 158.596 25.0834 151.386 26.5226 139.52L26.0934 141.191C24.2898 148.284 22.7669 155.145 22.3888 157.511Z" fill="black" fill-opacity="0.275213"/>
<path d="M32.4214 121.9C31.5296 122.797 30.192 126.547 28.779 131.325C30.2293 132.466 31.5642 133.42 32.7837 134.188L33.3012 134.508C35.0054 135.541 37.3318 136.777 40.2805 138.216C41.1842 135.691 42.1371 133.864 43.4122 133.161L43.8241 132.951C44.2294 132.734 44.8834 132.348 45.7861 131.793L44.7276 130.612C42.2222 127.801 40.3169 125.536 39.0119 123.817C37.9004 122.354 36.8966 120.854 36.0004 119.319L35.429 119.68C33.963 120.618 32.9606 121.359 32.4214 121.9Z" fill="#959FFA"/>
<path d="M66.4877 116.002L66.1764 115.552L64.1456 116.515C47.0399 124.661 38.0855 129.921 37.2825 132.295L37.198 132.562C36.517 134.85 35.2859 141.97 33.5049 153.923L32.9182 157.897C35.3061 153.992 37.2045 148.243 38.2748 144.69L39.1958 141.58C40.4708 137.337 41.6279 134.134 43.4234 133.155L43.789 132.97C45.688 131.964 53.4579 126.965 67.0989 117.973L66.4877 116.002Z" fill="black" fill-opacity="0.275213"/>
<path d="M20.764 162.223C17.3803 165.621 7.15732 165.229 6.0751 167.301C4.99289 169.373 6.1717 170.335 7.14578 170.882C8.11987 171.428 13.9151 172.18 15.3905 171.7L15.7603 171.583C17.1205 171.164 18.5438 170.901 20.4785 171.7L21.6167 172.176C22.9901 172.739 23.8926 172.971 25.5988 172.383C27.7315 171.647 26.6448 165.909 28.2231 162.924C28.3906 162.607 28.9009 162.2 29.5228 161.728L28.7913 161.579C27.0222 161.208 25.7026 160.849 24.8323 160.501C23.5374 159.983 22.7817 159.115 22.5652 157.897L22.5531 157.816C22.0628 159.745 21.1295 161.856 20.764 162.223Z" fill="#959FFA"/>
<path d="M22.5529 157.817C22.0626 159.745 21.1293 161.856 20.7638 162.223C18.3617 164.635 12.5129 165.137 8.93446 165.967L9.77427 165.885C16.5133 165.218 20.3275 164.633 21.2173 164.13C22.127 163.615 22.8219 162.061 23.302 159.468C22.919 159.033 22.6738 158.51 22.565 157.897L22.5529 157.817Z" fill="black" fill-opacity="0.275213"/>
<path d="M6.72683 171.031C7.71236 171.541 13.9652 172.216 15.4579 171.768L15.8484 171.654C17.2197 171.265 18.6559 171.025 20.6056 171.768L21.8029 172.229C23.1737 172.743 24.0987 172.949 25.8069 172.405C26.317 172.243 26.6451 171.819 26.8698 171.23C25.659 171.52 24.6548 171.589 23.856 171.438C21.9949 171.087 20.886 170.011 18.4154 170.011C15.9447 170.011 15.9254 170.547 14.0939 170.547L13.7039 170.544C11.6562 170.51 7.3742 170.228 6.36732 169.682C6.08139 169.527 5.84087 169.363 5.64574 169.189C5.60899 170.097 6.08936 170.7 6.72683 171.031Z" fill="#733DFF"/>
<path d="M67.6162 116.696C67.6162 116.696 49.3532 126.831 46.1973 130.002C43.5359 132.676 38.4523 158.609 38.4523 168.921C38.4523 170.731 37.6652 172.071 37.3148 172.549C36.1594 174.124 33.442 175.527 31.293 176.469C28.2242 177.814 24.2268 179.412 23.4216 180.376C21.8849 182.216 21.9248 183.797 24.4852 184.823C25.6676 185.297 27.347 185.869 30.4584 185.531C34.7457 185.064 41.085 181.226 42.268 180.827C44.3095 180.138 43.2946 172.045 46.1112 171.155C47.9362 170.579 54.595 149.121 55.2758 146.211C56.1601 142.432 55.9578 141.282 58.1245 140.262C58.535 140.068 58.882 139.253 60.423 137.767C61.6629 136.571 62.2016 128.668 65.6823 125.017C69.467 121.048 83.4607 114.212 83.4607 114.212L67.6162 116.696Z" fill="#733DFF"/>
<path d="M46.1971 130.001C45.205 130.998 43.8763 135.227 42.5998 140.674C44.4787 141.636 46.1566 142.368 47.6343 142.872L48.1068 143.028C49.8322 143.581 52.3107 144.206 55.5421 144.905C55.9986 142.301 55.6923 141.529 57.3971 140.673L57.5629 140.592C57.8085 140.477 58.2618 140.127 58.9228 139.542L59.0931 139.157C56.8042 137.251 54.748 135.357 52.9245 133.473L52.4828 133.011C51.3435 131.808 49.9415 130.238 48.277 128.299C47.3461 128.976 46.6532 129.543 46.1971 130.001Z" fill="#959FFA"/>
<path d="M43.311 138.216L43.1769 138.311L42.9204 139.337C40.6554 148.573 38.4522 162.132 38.4522 168.921C38.4522 170.731 37.6651 172.071 37.3147 172.549C37.0655 172.888 36.7437 173.22 36.3707 173.541C37.1875 174.939 37.755 175.396 38.0734 174.914L38.1065 174.852C38.6421 173.683 40.2318 162.626 42.8755 141.681L43.311 138.216Z" fill="black" fill-opacity="0.275213"/>
<path d="M83.4607 114.212L68.6664 116.531C68.1614 116.913 67.6588 117.284 67.1626 117.638L66.6686 117.988C61.4377 121.649 59.1232 125.944 58.2659 127.752L57.8884 128.577C56.941 130.717 54.6919 136.561 54.684 148.359L55.0308 147.146C55.1105 146.858 55.1756 146.615 55.2247 146.42L55.2758 146.211C56.1374 142.529 55.9675 141.343 57.9625 140.34L58.1245 140.262C58.3864 140.138 58.7835 139.913 59.3205 139.27C59.5946 138.942 59.8166 138.422 60.2648 137.93L60.423 137.767C61.6629 136.571 62.2016 128.668 65.6823 125.017C68.2054 122.371 74.1316 118.769 83.4607 114.212Z" fill="black" fill-opacity="0.275213"/>
<path d="M38.4492 169.086L38.452 168.92C38.452 170.731 37.665 172.071 37.3145 172.548C36.1591 174.124 33.4417 175.527 31.2928 176.469L28.2521 177.784C26.0266 178.755 23.9735 179.715 23.4213 180.376C21.9221 182.171 21.9235 183.72 24.302 184.747L24.4849 184.823C25.6674 185.297 27.3467 185.869 30.4582 185.53C34.7454 185.064 41.0847 181.226 42.2677 180.826C44.0344 180.23 43.5122 174.09 45.1649 171.871C43.7869 171.615 42.5592 171.234 41.4812 170.731C40.6196 170.329 39.609 169.781 38.4492 169.086Z" fill="#959FFA"/>
<path d="M36.1213 182.273L34.7874 182.818C31.3785 184.193 28.2552 185.222 25.1209 183.633C24.0199 183.075 23.1574 182.471 22.5336 181.821C22.1105 182.996 22.588 184.003 24.2906 184.742L24.4849 184.823C25.6674 185.297 27.3467 185.869 30.4582 185.53C34.7454 185.064 41.0847 181.226 42.2677 180.827C42.7618 180.66 43.0769 180.059 43.3105 179.232L40.3238 180.512C38.8048 181.158 37.404 181.744 36.1213 182.273Z" fill="#733DFF"/>
<path d="M69.7521 69.3533C69.7521 69.3533 52.5344 71.7327 50.9395 71.455C49.3446 71.1772 37.5985 63.8778 35.5802 64.6789C33.5619 65.4801 32.8056 63.4426 31.3491 62.635C29.8926 61.8274 26.2728 59.6945 24.5892 60.4188C22.9055 61.1431 16.8435 62.6822 17.3582 63.7945C17.8729 64.9069 23.3981 63.7945 24.5892 63.7945C25.7802 63.7945 28.2545 65.9533 27.6604 66.3072C27.4804 66.4145 27.2427 67.128 26.6987 67.0993C25.4473 67.0334 23.4226 65.853 22.9761 66.8672C22.5296 67.8814 26.3663 70.0151 27.6604 70.2928C28.4736 70.4673 30.7451 69.7011 32.0117 69.9165C32.7609 70.0439 32.8286 70.8961 32.93 71.455C33.2027 72.9586 44.764 80.5597 47.2148 81.2185C49.6656 81.8772 65.1407 80.7541 65.1407 80.7541L69.7521 69.3533Z" fill="#380085"/>
<path d="M68.5245 72.3866L68.5298 71.7993L67.5427 72.5132C62.528 76.1555 58.8397 79.083 56.4778 81.2957L57.9913 81.2171C60.0824 81.1025 62.4655 80.9483 65.1406 80.7541L68.5245 72.3866Z" fill="black" fill-opacity="0.275213"/>
<path d="M60.315 72.9854C58.2012 73.2449 56.3824 72.5985 56.2527 71.5416C56.1229 70.4848 57.7313 69.4176 59.845 69.158C61.9588 68.8985 63.7776 69.5449 63.9073 70.6018C64.0371 71.6587 62.4287 72.7258 60.315 72.9854Z" fill="#959FFA"/>
<path d="M60.315 72.0213C58.2012 72.2809 56.3911 71.7053 56.2721 70.7356C56.153 69.766 57.7701 68.7696 59.8839 68.51C61.9976 68.2505 63.8077 68.8261 63.9267 69.7958C64.0458 70.7654 62.4288 71.7618 60.315 72.0213Z" fill="#F8FCFF"/>
<path d="M93.9458 78.6886C93.0365 77.1561 79.7175 70.6539 79.7175 70.6539C79.7175 70.6539 70.4631 68.7794 69.7519 69.3535C69.0406 69.9276 63.1567 77.7497 62.6124 82.4538C62.0681 87.158 63.7929 104.232 62.6124 105.097C61.432 105.962 59.9018 106.488 59.9018 106.488L67.6162 116.696L88.2002 111.356C88.2002 111.356 94.8551 80.2212 93.9458 78.6886Z" fill="#733DFF"/>
<path d="M66.1647 74.291L66.1247 74.3466C64.4951 76.9635 62.885 80.0991 62.6126 82.4536C62.0683 87.1577 63.7931 104.231 62.6126 105.097C61.8256 105.674 60.9221 106.137 59.902 106.488L62.0596 109.343L62.5751 109.07C63.2002 108.732 63.5765 108.495 63.704 108.36C64.904 107.092 63.704 94.9804 63.704 87.3804C63.704 82.5086 64.4623 78.2873 65.979 74.7163L66.1647 74.291Z" fill="black" fill-opacity="0.275213"/>
<path d="M85.0773 85.9059C83.2442 87.0346 82.1547 88.492 81.8089 90.2781C81.2901 92.9571 82.1314 101.564 80.4444 104.829C78.9776 107.667 73.8439 112.58 68.8798 116.369L88.2002 111.356L89.3035 106.15C89.8844 103.384 90.4121 100.825 90.8865 98.4754L85.0773 85.9059Z" fill="black" fill-opacity="0.275213"/>
<path d="M93.9459 78.6885C96.3946 81.5522 96.4383 106.136 94.8409 108.472C93.2434 110.808 81.7263 122.188 79.1984 122.188C76.6705 122.188 76.5538 121.503 75.8554 122.188C75.1569 122.873 69.3552 127.237 68.3191 127.794C67.283 128.351 62.5125 122.48 63.9829 121.652C65.4532 120.823 65.7158 120.223 65.7158 120.223C65.7158 120.223 65.7083 118.992 66.2027 118.652C67.2702 117.917 71.236 118.489 71.4342 117.917C71.8105 116.832 72.8402 115.329 74.2098 114.015C75.5794 112.701 84.2602 105.138 84.2602 103.563C84.2602 101.989 83.6605 91.6564 84.2602 87.0551C84.8599 82.4538 91.4972 75.8249 93.9459 78.6885Z" fill="#380085"/>
<path d="M84.5912 86.3189L84.5288 85.8732C84.4016 86.2768 84.3101 86.673 84.2603 87.0552C83.6606 91.6565 84.2603 101.989 84.2603 103.563C84.2603 105.138 75.5795 112.701 74.2099 114.015C72.8404 115.329 71.8106 116.832 71.4343 117.918C71.3658 118.115 70.8468 118.176 70.153 118.202L71.3975 119.357L75.0109 116.136C81.9582 109.908 85.6787 106.337 86.1724 105.424C86.7141 104.421 86.2322 98.3832 84.7267 87.3091L84.5288 85.8732L84.5912 86.3189Z" fill="black" fill-opacity="0.275213"/>
<path d="M71.6405 117.761L71.5168 117.698C71.4865 117.773 71.4589 117.846 71.4342 117.917C71.236 118.489 67.2702 117.917 66.2027 118.652C65.8731 118.878 65.7108 119.402 65.7159 120.223C65.5408 120.623 64.9631 121.099 63.9829 121.652C62.5125 122.48 62.4917 126.598 62.4917 128.267C62.4917 129.937 66.2425 130.24 68.1183 129.776C69.9941 129.312 70.3612 126.638 71.3974 126.081C72.4335 125.524 75.157 122.873 75.8554 122.188C76.06 121.987 76.2147 121.904 76.3947 121.887C75.6197 120.759 74.8916 119.916 74.2098 119.357C73.6584 118.905 72.8019 118.373 71.6405 117.761L71.5168 117.698L71.6405 117.761Z" fill="#959FFA"/>
<path d="M24.5893 60.4188C22.9056 61.1431 16.8436 62.6822 17.3583 63.7945C17.873 64.9069 23.3982 63.7945 24.5893 63.7945C25.7453 63.7945 28.1101 65.8282 27.7051 66.2714L27.6605 66.3072C27.4805 66.4145 27.2428 67.128 26.6988 67.0993C25.4474 67.0334 23.4227 65.853 22.9762 66.8672C22.5298 67.8814 26.3664 70.0151 27.6605 70.2928C28.9196 70.563 32.459 69.1468 32.9006 70.4551L32.9301 70.5705C32.9499 70.68 33.0296 70.8265 33.1613 71.0043C33.7914 70.6559 34.312 70.0608 34.7234 69.2187C35.364 67.9072 35.4268 66.4512 34.9118 64.8506C33.3722 65.0126 32.6324 63.3465 31.3492 62.635L30.5524 62.1912C28.8402 61.2467 26.0178 59.8043 24.5893 60.4188Z" fill="#959FFA"/>
<path d="M24.5202 63.3309C24.2456 63.4526 23.8885 63.6419 23.4489 63.8988L24.1184 63.8238C24.3115 63.8053 24.4714 63.7945 24.589 63.7945C25.745 63.7945 28.1099 65.8281 27.7048 66.2714L27.6602 66.3072C27.4802 66.4144 27.2425 67.128 26.6985 67.0993C25.6961 67.0465 24.1975 66.2786 23.4114 66.4964C24.706 67.8064 25.5677 68.4607 25.9979 68.4607C26.5797 68.4607 27.9096 68.1556 29.9875 67.5455L28.2057 64.8705C26.2975 63.6009 25.069 63.0877 24.5202 63.3309Z" fill="black" fill-opacity="0.275213"/>
<path d="M80.4445 91.618C80.4445 91.209 80.1954 90.8413 79.8156 90.6895L65.4687 84.955C64.8118 84.6924 64.0975 85.1762 64.0975 85.8835V92.2874C64.0975 92.6927 64.3422 93.0579 64.717 93.2121L79.064 99.115C79.7221 99.3858 80.4445 98.9019 80.4445 98.1902V91.618Z" fill="#F8FCFF"/>
<path d="M80.4445 91.6219C80.4445 91.211 80.1932 90.842 79.8109 90.6914L78.7618 90.2783V99.0159L79.0759 99.1404C79.7323 99.4007 80.4445 98.917 80.4445 98.2108V91.6219Z" fill="#959FFA"/>
<path d="M82.306 73.9479C82.306 73.9479 82.4433 71.1208 82.8654 68.7304C83.2874 66.34 85.077 58.1908 85.077 58.1908L84.2999 50.2867C84.2999 50.2867 76.2085 50.2856 73.8755 51.6661C71.5425 53.0466 71.257 55.9122 71.257 55.9122C71.257 55.9122 70.9773 65.4714 71.8521 66.8975C72.7268 68.3236 75.1954 69.2187 75.1954 69.2187L74.9056 74.6894C74.9056 74.6894 74.9297 76.9555 77.9509 76.5722C80.9722 76.1889 82.306 73.9479 82.306 73.9479Z" fill="#FFAF8A"/>
<path d="M74.2871 51.4537L71.8997 53.6877C71.5546 54.3343 71.3404 55.0759 71.2571 55.9124L71.218 57.4725C71.2146 57.6394 71.2115 57.8041 71.2087 57.9667L74.8061 53.867L75.3748 51.0699C74.9593 51.1852 74.5967 51.3131 74.2871 51.4537Z" fill="black" fill-opacity="0.175153"/>
<path d="M75.1903 69.3217L74.9057 74.6896C74.9163 75.6905 75.3655 76.3038 76.2533 76.5294L76.6323 76.3334C78.0126 75.606 78.5581 75.1522 78.2698 74.9709C75.9281 73.4988 76.1488 71.5232 76.1634 70.9167L76.164 70.8667C76.164 70.119 75.8395 69.604 75.1903 69.3217Z" fill="black" fill-opacity="0.175153"/>
<path d="M84.9741 58.6624L77.4587 58.1675L78.2235 58.7021C80.6514 60.4191 81.8654 61.4881 81.8654 61.9092L81.8831 62.5274C81.9332 63.9108 82.0889 67.4617 82.3503 73.1803C82.4366 71.8159 82.5754 70.5313 82.7662 69.3263L82.8659 68.7305C83.139 67.1835 83.8417 63.8275 84.9741 58.6624Z" fill="black" fill-opacity="0.175153"/>
<path d="M76.6601 74.346C75.5975 74.033 74.391 74.3766 73.8787 75.3587L73.0114 77.021C72.4598 78.0782 72.95 79.3801 74.0619 79.811L76.0104 80.566C76.8625 80.8962 77.8292 80.6079 78.3573 79.8621C79.3181 78.5052 80.8016 76.3967 81.5311 75.29C82.6618 73.5747 82.323 73.5784 82.323 73.5784C82.323 73.5784 80.8323 74.8776 80.0382 74.8068C78.5927 74.6779 77.6628 74.6262 76.7427 74.3697C76.7153 74.3621 76.6877 74.3542 76.6601 74.346Z" fill="#380085"/>
<path d="M74.9061 72.9395C74.9061 72.9395 75.8298 74.1365 76.9694 74.3397C78.1089 74.5428 80.4045 74.8505 80.4045 74.8505L77.5956 78.6467C77.0858 79.3357 76.1937 79.6233 75.3775 79.3617L74.4672 79.07C73.3082 78.6986 72.7468 77.3868 73.2784 76.2919L74.9061 72.9395Z" fill="#959FFA"/>
<path d="M72.302 69.3538L72.1487 69.335C70.9788 69.418 70.3135 69.9285 70.1529 70.8666C69.8856 72.4276 71.8895 73.5068 76.1644 74.104L75.865 73.8708C75.3573 73.4611 75.0754 73.1508 75.0192 72.9396C74.9619 72.7241 74.986 71.898 75.0914 70.4614L75.1434 69.7853L74.0813 69.6085C73.5232 69.5195 73.0183 69.4457 72.5666 69.3871L72.1487 69.335L72.302 69.3538Z" fill="black" fill-opacity="0.275213"/>
<path d="M73.555 53.0466C73.555 53.0466 75.0157 58.4027 77.5428 59.7791C80.0698 61.1555 83.5942 61.1555 83.5942 61.1555C83.5942 61.1555 83.8801 64.376 83.214 66.8974C82.5478 69.4188 82.4726 72.0295 82.4726 72.0295L90.4191 76.0402C90.4191 76.0402 91.4004 75.5931 90.9098 72.2948C90.4191 68.9965 90.9053 66.8807 91.6018 64.0181C92.2983 61.1555 93.5428 54.5363 90.9098 51.0346C88.2767 47.5329 84.1812 46.3774 81.653 46.3774C81.4444 46.3774 81.2808 47.0304 81.0417 47.0097C79.7612 46.8987 78.6493 46.7129 76.9783 46.7812C76.6588 46.7943 73.4107 46.7763 72.3758 47.7192C69.5578 50.2865 66.6614 58.4027 68.797 59.7791C70.9327 61.1555 67.5631 65.2995 67.5631 65.2995C67.5631 65.2995 68.7379 66.355 69.5179 66.6267C70.2979 66.8985 71.567 66.6267 71.567 66.6267C71.567 66.6267 70.8696 57.4813 71.567 55.8478C72.185 54.4004 73.555 53.0466 73.555 53.0466Z" fill="#0D134E"/>
<path d="M81.057 46.1897C81.847 46.556 83.3692 46.663 86.1507 50.0301C88.9322 53.3972 89.1876 57.833 87.7245 62.88L85.1762 62.1412C86.4244 57.8354 85.7473 54.075 83.5862 51.1915C81.4251 48.3081 79.5066 47.2292 76.6802 46.556C77.6569 45.653 81.057 46.1897 81.057 46.1897Z" fill="#959FFA"/>
<rect width="7.95978" height="8.8442" rx="3.97989" transform="matrix(-0.999848 0.0174524 0.0174524 0.999848 90.7479 59.169)" fill="#959FFA"/>
<path d="M87.2758 60.0569C85.3223 60.091 83.7663 61.7023 83.8004 63.6558L83.8158 64.5401C83.8499 66.4936 85.4612 68.0496 87.4147 68.0155C89.3682 67.9814 90.9242 66.3701 90.8901 64.4166L90.8747 63.5323C90.8406 61.5788 89.2293 60.0228 87.2758 60.0569Z" fill="#5C66C0"/>
<path d="M70.5613 64.8722L68.3065 64.0615C67.732 63.8549 67.4337 63.2216 67.6403 62.6471C67.6763 62.5469 67.7266 62.4525 67.7895 62.3668C67.7895 62.3668 69.1298 60.5114 69.2804 60.3697C69.4311 60.228 69.5817 60.6807 69.5817 60.6807L68.146 62.6285C68.1082 62.68 68.078 62.7366 68.0564 62.7967C67.9325 63.1414 68.1114 63.5214 68.4562 63.6453L70.7109 64.456L70.5613 64.8722Z" fill="#5C66C0"/>
<path d="M73.0397 64.1346L70.5163 63.3147C69.8195 63.0883 69.071 63.4696 68.8446 64.1664C68.6182 64.8632 68.9996 65.6117 69.6964 65.8381L72.2198 66.658C72.9166 66.8844 73.665 66.503 73.8914 65.8062C74.1178 65.1094 73.7365 64.361 73.0397 64.1346Z" fill="#959FFA"/>
<path d="M73.4341 64.4169L73.3176 64.411C72.5849 64.411 71.9909 65.005 71.9909 65.7376C71.9909 66.0914 72.1904 66.4439 72.4792 66.7138C73.0935 66.7854 73.693 66.417 73.8914 65.8062C74.0549 65.3031 73.9016 64.7731 73.5414 64.4321L73.4341 64.4169L73.3176 64.411L73.4341 64.4169Z" fill="#5C66C0"/>
<path d="M61.4487 105.77C61.4487 105.77 63.6617 107.463 64.982 109.861C66.3022 112.259 67.2023 115.851 67.2023 115.851C67.2023 115.851 72.9459 113.716 75.1899 113.129C73.3734 114.918 73.1554 115.221 71.9025 116.907C70.5063 117.266 65.4591 117.988 65.4591 117.988C65.4591 117.988 63.7549 114.706 62.4436 112.259C61.1324 109.811 57.1393 107.877 57.1393 107.877L61.4487 105.77Z" fill="#959FFA"/>
<path d="M75.1899 113.13L74.8165 113.231C73.9611 113.472 72.8027 113.846 71.3414 114.355L66.9486 117.771L68.4676 117.54C70.143 117.276 71.288 117.066 71.9025 116.908L72.5999 115.975C73.3258 115.02 73.7683 114.529 75.1899 113.13Z" fill="black" fill-opacity="0.275213"/>
<path d="M46.6334 102.718C47.2533 102.372 48.0103 102.38 48.6222 102.74L61.451 110.286C62.0908 110.662 62.4696 111.362 62.4348 112.104L62.3452 114.015C62.3131 114.699 61.9323 115.32 61.3363 115.659L49.5782 122.349C48.9359 122.714 48.1445 122.695 47.52 122.3L34.1434 113.839C33.3465 113.335 33.01 112.342 33.3358 111.457L33.6905 110.494C33.8555 110.046 34.1754 109.672 34.5924 109.439L46.6334 102.718Z" fill="#1B215B"/>
<path d="M61.5713 110.357L48.5081 102.673C48.012 102.381 47.4081 102.35 46.8886 102.583L46.7492 102.653L34.5991 109.435C34.5375 110.045 34.7972 110.665 35.317 111.043L35.4415 111.126L48.5812 119.1C49.0838 119.405 49.7016 119.439 50.2307 119.199L50.3726 119.126L62.1627 112.429C62.2571 112.375 62.3459 112.314 62.4283 112.244L62.4414 111.964C62.47 111.355 62.1832 110.778 61.689 110.432L61.5713 110.357L48.5081 102.673L61.5713 110.357Z" fill="#5C66C0"/>
<path d="M45.4167 103.398L36.6963 108.265L48.5837 115.328C49.0829 115.625 49.6927 115.656 50.2159 115.42L50.3562 115.348L56.7955 111.716C56.9297 111.64 57.0419 111.531 57.1208 111.398C57.3529 111.009 57.2509 110.513 56.8991 110.244L56.8135 110.186L45.4167 103.398Z" fill="#F8FCFF"/>
<path d="M21.7498 66.4282C21.7498 65.8116 21.4254 65.2406 20.8958 64.9249L4.43245 55.1121C3.93359 54.8147 3.30062 55.1728 3.29846 55.7535L3.25409 67.7073C3.25177 68.3306 3.58113 68.908 4.11876 69.2233L20.6204 78.9012C21.1204 79.1944 21.7498 78.8339 21.7498 78.2542V66.4282Z" fill="#9286FF" fill-opacity="0.193018" stroke="#F8F8F8" stroke-width="0.5"/>
<path d="M3.7269 55.25C3.59061 55.2495 3.46164 55.2779 3.34579 55.3291L10.4831 66.7779C10.9225 67.4827 11.7558 67.8542 12.5852 67.7244L12.7606 67.6894L21.5961 65.5589C21.476 65.4061 21.333 65.2692 21.1698 65.1535L20.9986 65.0443L4.18896 55.3738L4.31356 55.1572L4.18896 55.3738C4.04931 55.2935 3.88982 55.2506 3.7269 55.25Z" fill="#9286FF" fill-opacity="0.193018" stroke="#F8F8F8" stroke-width="0.5"/>
<path d="M41.7757 84.5066C41.7757 83.8836 41.4445 83.3076 40.9062 82.9942L13.0166 66.7573C12.5177 66.4668 11.8915 66.8253 11.8893 67.4026L11.8118 87.7772C11.8095 88.4069 12.1456 88.9894 12.692 89.3024L40.6529 105.32C41.1529 105.606 41.7757 105.245 41.7757 104.669V84.5066Z" fill="#FF623F" fill-opacity="0.280021" stroke="#FF623F" stroke-width="0.5"/>
<path d="M35.473 87.3991L17.0403 77.081C16.628 76.8502 16.1066 76.9973 15.8759 77.4096C15.6451 77.8219 15.7922 78.3433 16.2045 78.574L34.6372 88.8922C35.0495 89.123 35.5708 88.9758 35.8016 88.5635C36.0324 88.1512 35.8853 87.6299 35.473 87.3991Z" fill="#FF623F" fill-opacity="0.193018" stroke="#F8F8F8" stroke-width="0.5"/>
<path d="M35.473 94.4745L17.0403 84.1564C16.628 83.9256 16.1066 84.0727 15.8759 84.485C15.6451 84.8973 15.7922 85.4186 16.2045 85.6494L34.6372 95.9676C35.0495 96.1983 35.5708 96.0512 35.8016 95.6389C36.0324 95.2266 35.8853 94.7053 35.473 94.4745Z" fill="#FF623F" fill-opacity="0.193018" stroke="#F8F8F8" stroke-width="0.5"/>
<path d="M60.3046 26.1947C60.3046 25.286 59.821 24.446 59.0352 23.9896L20.1952 1.43297C19.43 0.988561 18.4706 1.53876 18.4677 2.42366L18.3577 36.0203C18.3547 36.9384 18.8455 37.7872 19.6426 38.2427L58.584 60.4954C59.3507 60.9335 60.3046 60.3799 60.3046 59.4969V26.1947Z" fill="#FF623F" fill-opacity="0.280021" stroke="#FF623F" stroke-width="0.5"/>
<path d="M42.6155 20.1727C42.6155 19.7629 42.3975 19.384 42.0431 19.1782L22.6231 7.89989C22.3237 7.726 21.9482 7.94129 21.9471 8.28756L21.8921 25.0859C21.8908 25.4999 22.1121 25.8827 22.4716 26.0881L41.9423 37.2145C42.2423 37.3859 42.6155 37.1693 42.6155 36.8238V20.1727Z" fill="#FF623F" fill-opacity="0.193018" stroke="#F8F8F8" stroke-width="0.5"/>
<path d="M56.7667 28.8006C56.7667 27.9152 56.3075 27.0933 55.5535 26.6291L48.4267 22.2414C47.6624 21.7709 46.6777 22.3182 46.6738 23.2158L46.5682 47.9055C46.5643 48.8198 47.0501 49.6661 47.8416 50.1238L55.041 54.2872C55.8076 54.7306 56.7667 54.1774 56.7667 53.2917V28.8006Z" fill="#FF623F" fill-opacity="0.193018" stroke="#F8F8F8" stroke-width="0.5"/>
<path d="M40.4048 45.9898V39.3566C40.4048 39.0063 40.1208 38.7222 39.7704 38.7222C39.42 38.7222 39.136 39.0063 39.136 39.3566V45.9898C39.136 46.3402 39.42 46.6242 39.7704 46.6242C40.1208 46.6242 40.4048 46.3402 40.4048 45.9898Z" fill="#FF623F" fill-opacity="0.280021" stroke="#FF623F" stroke-width="0.5"/>
<path d="M36.8672 44.221V41.1255C36.8672 40.7751 36.5831 40.4911 36.2328 40.4911C35.8824 40.4911 35.5983 40.7751 35.5983 41.1255V44.221C35.5983 44.5714 35.8824 44.8554 36.2328 44.8554C36.5831 44.8554 36.8672 44.5714 36.8672 44.221Z" fill="#FF623F" fill-opacity="0.280021" stroke="#FF623F" stroke-width="0.5"/>
<path d="M33.3295 42.4522V37.5879C33.3295 37.2375 33.0455 36.9534 32.6951 36.9534C32.3447 36.9534 32.0607 37.2375 32.0607 37.5879V42.4522C32.0607 42.8025 32.3447 43.0866 32.6951 43.0866C33.0455 43.0866 33.3295 42.8025 33.3295 42.4522Z" fill="#FF623F" fill-opacity="0.280021" stroke="#FF623F" stroke-width="0.5"/>
<path d="M22.7165 35.3768V30.5125C22.7165 30.1621 22.4325 29.8781 22.0821 29.8781C21.7317 29.8781 21.4477 30.1621 21.4477 30.5125V35.3768C21.4477 35.7272 21.7317 36.0112 22.0821 36.0112C22.4325 36.0112 22.7165 35.7272 22.7165 35.3768Z" fill="#FF623F" fill-opacity="0.280021" stroke="#FF623F" stroke-width="0.5"/>
<path d="M26.2542 37.1457V34.0502C26.2542 33.6998 25.9702 33.4158 25.6198 33.4158C25.2694 33.4158 24.9854 33.6998 24.9854 34.0502V37.1457C24.9854 37.496 25.2694 37.7801 25.6198 37.7801C25.9702 37.7801 26.2542 37.496 26.2542 37.1457Z" fill="#FF623F" fill-opacity="0.280021" stroke="#FF623F" stroke-width="0.5"/>
<path d="M29.7919 39.7989V34.0502C29.7919 33.6998 29.5078 33.4158 29.1575 33.4158C28.8071 33.4158 28.523 33.6998 28.523 34.0502V39.7989C28.523 40.1493 28.8071 40.4333 29.1575 40.4333C29.5078 40.4333 29.7919 40.1493 29.7919 39.7989Z" fill="#FF623F" fill-opacity="0.280021" stroke="#FF623F" stroke-width="0.5"/>
</svg>
