<svg width="14" height="16" viewBox="0 0 14 16" fill="none" xmlns="http://www.w3.org/2000/svg">
<path d="M7.51318 8.64419C7.33819 8.81928 7.05442 8.81928 6.87932 8.64419L4.84235 6.60721C4.7583 6.52317 4.71103 6.40912 4.71103 6.29029C4.71103 6.17134 4.7583 6.05741 4.84235 5.97324L5.20445 5.61126L4.14091 4.54771L3.26962 5.419C2.97639 5.71223 2.97651 6.18931 3.26962 6.48254L7.00399 10.2171C7.14512 10.3583 7.33399 10.4359 7.53582 10.4359C7.73765 10.4359 7.92652 10.3582 8.06765 10.217L8.93894 9.34586L7.87539 8.2822L7.51318 8.64419Z" fill="#333333"/>
<path d="M13.9999 5.40025C13.9999 3.96316 13.4368 2.60861 12.414 1.58592C11.3913 0.563231 10.0367 0 8.59975 0H5.40002C3.96316 0 2.60849 0.563231 1.58592 1.5858C0.563231 2.60849 0 3.96316 0 5.40013V7.91524C0 9.02804 0.339456 10.0986 0.981715 11.0111C1.54833 11.8161 2.31036 12.4448 3.1988 12.8435V14.2882C3.1988 15.0352 3.61705 15.3002 3.97519 15.3003C4.23106 15.3003 4.48706 15.174 4.73616 14.925L6.34554 13.3154H8.59987C10.0368 13.3154 11.3914 12.7521 12.4141 11.7294C13.4368 10.7068 14 9.3522 14 7.91524L13.9999 5.40025ZM9.88952 9.66294L8.70119 10.8512C8.39069 11.1617 7.97675 11.3324 7.53551 11.3324C7.09426 11.3324 6.68033 11.1615 6.36982 10.8512L2.63534 7.11656C1.99273 6.47371 1.99273 5.42791 2.63534 4.78519L3.82367 3.59697C3.90772 3.51281 4.02165 3.46565 4.1406 3.46565C4.25943 3.46565 4.37348 3.51281 4.45752 3.59697L6.15504 5.29449C6.23908 5.37854 6.28624 5.49258 6.28624 5.61142C6.28624 5.73025 6.23908 5.8443 6.15492 5.92834L5.79293 6.29033L7.19605 7.69345L7.55815 7.33134C7.73325 7.15636 8.01703 7.15636 8.19201 7.33146L9.88952 9.02897C9.97369 9.11302 10.0208 9.22707 10.0208 9.3459C10.0208 9.46485 9.97369 9.5789 9.88952 9.66294ZM6.66049 4.35165C6.66049 4.10417 6.86115 3.9034 7.10874 3.9034C8.66185 3.9034 9.92548 5.1669 9.92548 6.7199C9.92548 6.96749 9.72481 7.16815 9.47723 7.16815C9.22975 7.16815 9.02898 6.96749 9.02898 6.7199C9.02898 5.66126 8.16761 4.7999 7.10874 4.7999C6.86115 4.7999 6.66049 4.59923 6.66049 4.35165ZM11.3976 7.16839C11.15 7.16839 10.9493 6.96761 10.9493 6.72014C10.9494 5.69418 10.5499 4.72974 9.8245 4.00425C9.09901 3.27888 8.13458 2.87931 7.10862 2.87931C6.86115 2.87931 6.66037 2.67865 6.66037 2.43106C6.66037 2.18359 6.86115 1.98281 7.10862 1.98281C8.37399 1.98281 9.56361 2.47565 10.4584 3.3704C11.3532 4.26515 11.8459 5.45476 11.8458 6.72014C11.8458 6.96761 11.6452 7.16839 11.3976 7.16839Z" fill="#333333"/>
</svg>
