<svg width="16" height="16" viewBox="0 0 16 16" fill="none" xmlns="http://www.w3.org/2000/svg">
<path d="M12.9999 9.00024C12.4479 9.00024 11.9999 9.44824 11.9999 10.0002C11.9999 10.5522 12.4479 11.0002 12.9999 11.0002H15.9999V9.00024H12.9999Z" fill="#333333"/>
<path d="M13 8.00037H15V5.50037C15 5.22037 14.78 5.00037 14.5 5.00037H13.5V3.50037C13.5 3.22037 13.28 3.00037 13 3.00037H11.81L10.95 1.28037C10.82 1.03037 10.52 0.930368 10.28 1.05037L9.12 1.63037L8.95 1.28037C8.82 1.03037 8.52 0.930368 8.28 1.05037L4.38 3.00037H1.5C0.67 3.00037 0 3.67037 0 4.50037V13.5004C0 14.3304 0.67 15.0004 1.5 15.0004H14.5C14.78 15.0004 15 14.7804 15 14.5004V12.0004H13C11.9 12.0004 11 11.1004 11 10.0004C11 8.90037 11.9 8.00037 13 8.00037ZM12.5 4.00037V4.38037L12.31 4.00037H12.5ZM1.03 4.67037C1.01 4.62037 1 4.56037 1 4.50037C1 4.22037 1.22 4.00037 1.5 4.00037H2.38L1.03 4.67037ZM2.62 5.00037L8.28 2.17037L9.69 5.00037H2.62ZM10.81 5.00037L9.57 2.52037L10.28 2.17037L11.69 5.00037H10.81Z" fill="#333333"/>
</svg>
