<svg width="15" height="15" viewBox="0 0 15 15" fill="none" xmlns="http://www.w3.org/2000/svg">
<path d="M12.8954 2.10457C11.5383 0.747393 9.73386 0 7.81456 0C5.89526 0 4.09081 0.747393 2.73363 2.10457C1.37646 3.46175 0.629092 5.26614 0.629092 7.18544C0.629092 8.40123 0.936855 9.59596 1.52104 10.6542L0 15L4.34569 13.479C5.40401 14.0631 6.59874 14.3709 7.81453 14.3709C9.73383 14.3709 11.5383 13.6235 12.8954 12.2663C14.2526 10.9092 15 9.10477 15 7.18544C15 5.26611 14.2526 3.46172 12.8954 2.10457ZM11.3667 9.85474L10.5372 10.6843C9.85002 11.3715 7.90017 10.5359 6.18217 8.81783C4.46414 7.0998 3.62851 5.15001 4.31572 4.46279L5.14523 3.63328C5.31703 3.46148 5.59559 3.46148 5.76738 3.63328L6.80429 4.67019C6.97608 4.84198 6.97608 5.12054 6.80429 5.29233L6.18214 5.91448C6.78562 7.18852 7.81148 8.21435 9.08552 8.81783L9.70767 8.19568C9.87946 8.02389 10.158 8.02389 10.3298 8.19568L11.3667 9.23259C11.5385 9.40441 11.5385 9.68294 11.3667 9.85474Z" fill="#333333"/>
</svg>
